<?xml version="1.0" encoding="utf-8"?>
<!-- Generator: Adobe Illustrator 15.0.2, SVG Export Plug-In . SVG Version: 6.00 Build 0)  -->
<!DOCTYPE svg PUBLIC "-//W3C//DTD SVG 1.1//EN" "http://www.w3.org/Graphics/SVG/1.1/DTD/svg11.dtd">
<svg version="1.1" id="Layer_1" xmlns="http://www.w3.org/2000/svg" xmlns:xlink="http://www.w3.org/1999/xlink" x="0px" y="0px"
	 width="1057.172px" height="1057.171px" viewBox="0 0 1057.172 1057.171" enable-background="new 0 0 1057.172 1057.171"
	 xml:space="preserve">
<g>
	<path fill="#FBD35C" d="M154.91,154.905c206.541-206.542,540.809-206.539,747.354,0.008L528.59,528.585L154.91,154.905z"/>
</g>
<g>
	<path fill="#A4D970" d="M902.269,154.907c206.543,206.544,206.538,540.807-0.009,747.352L528.587,528.587L902.269,154.907z"/>
</g>
<g>
	<path fill="#A1BDE3" d="M902.26,902.267c-206.541,206.543-540.809,206.537-747.354-0.008l373.673-373.672L902.26,902.267z"/>
</g>
<g>
	<path fill="#FA7977" d="M154.905,902.265C-51.637,695.72-51.635,361.457,154.91,154.912l373.674,373.674L154.905,902.265z"/>
</g>
<circle fill="#4B5666" cx="528.585" cy="528.586" r="187.634"/>
<g>
	<path fill="#4B5666" d="M163.287,593.693v-37.289v-6.664l-6.152-2.564c-17.941-7.481-29.541-24.879-29.541-44.314
		c0-18.996,11.021-35.965,28.227-43.736h39.55c17.208,7.771,28.223,24.739,28.223,43.736c0,19.437-11.596,36.832-29.542,44.314
		l-6.148,2.564v6.664v37.289H163.287 M153.287,603.693H197.9v-47.289c20.958-8.741,35.69-29.421,35.69-53.546
		c0-24.312-14.961-45.11-36.172-53.735H153.77c-21.215,8.625-36.176,29.427-36.176,53.735c0,24.125,14.734,44.807,35.691,53.546
		v47.289H153.287z"/>
</g>
<path fill="#4B5666" d="M147.832,593.441c0-1.848,1.498-3.344,3.344-3.344h48.836c1.848,0,3.345,1.496,3.345,3.344v11.261
	c0,1.848-1.497,3.345-3.345,3.345h-48.836c-1.846,0-3.344-1.497-3.344-3.345V593.441z"/>
<path fill="#4B5666" d="M214.738,502.163c-0.183-14.5-8.238-27.092-20.099-33.708h-38.092c-11.857,6.617-19.918,19.208-20.1,33.708
	H214.738z M182.534,471.675c3.559,0,6.444,2.888,6.444,6.445c0,3.561-2.887,6.443-6.444,6.443c-3.562,0-6.445-2.886-6.445-6.443
	C176.089,474.562,178.972,471.675,182.534,471.675z M177.824,493.735c1.23,0,2.229,0.998,2.229,2.229s-0.998,2.229-2.229,2.229
	s-2.229-0.999-2.229-2.229S176.593,493.735,177.824,493.735z M162.953,480.353c2.328,0,4.213,1.887,4.213,4.214
	c0,2.328-1.885,4.214-4.213,4.214s-4.215-1.887-4.215-4.214C158.739,482.24,160.625,480.353,162.953,480.353z"/>
<path fill="#4B5666" d="M449.121,221.79c0,28.571,22.177,51.745,51.746,51.745c55.665,0,70.153-52.67,103.49-81.312
	c0.368-0.263,0.669-0.48,0.997-0.816c3.587-3.619,3.587-9.461,0-13.08c-0.327-0.333-0.628-0.633-0.997-0.889
	c-33.265-28.606-48.049-81.313-103.49-81.313c-29.569,0-51.746,23.177-51.746,51.744c0,14.489,8.541,33.27,22.917,36.963
	C457.662,188.526,449.121,207.302,449.121,221.79z M498.463,240.377c3.477,0.636,6.101,3.662,6.101,7.283
	c0,4.065-3.327,7.396-7.392,7.396c-5.321,0-13.417-4.477-19.477-10.572c-5.916-5.988-10.094-13.12-10.094-18.998
	c0-4.062,3.44-7.391,7.505-7.391c3.62,0,6.652,2.624,7.28,6.1C484.236,232.179,491.035,238.529,498.463,240.377z"/>
<g>
	<path fill="#4B5666" d="M598.045,936.912h-76.361c-6.781,0-20.312-1.926-34.746-14.812c-15.855-14.155-24.477-34.729-27.242-42.241
		c2.75-7.518,11.299-27.981,27.242-42.218c14.434-12.89,27.965-14.812,34.746-14.812h76.361v57.043V936.912 M608.045,946.912
		v-67.041v-67.043c0,0-75.717,0-86.361,0c-10.646,0-25.996,3.597-41.406,17.354c-22.084,19.717-31.154,49.688-31.154,49.688
		s9.07,29.974,31.154,49.688c15.41,13.761,30.76,17.354,41.406,17.354C532.328,946.912,608.045,946.912,608.045,946.912
		L608.045,946.912z"/>
</g>
<g>
	<path fill="#4B5666" d="M608.045,879.871H449.121c0,0,9.07,29.974,31.152,49.688c15.412,13.761,30.76,17.354,41.406,17.354
		s86.359,0,86.359,0L608.045,879.871L608.045,879.871z"/>
</g>
<g>
	<path fill="#4B5666" d="M864.248,463.635l-8.588,27.394l-60.811,8.307l8.719-18.983L864.248,463.635 M879.282,449.125
		l-82.854,22.82l-18.264,39.762l85.141-11.629L879.282,449.125L879.282,449.125z"/>
</g>
<g>
	<path fill="#4B5666" d="M895.193,463.879l59.798,16.472l8.688,18.91l-58.762-8.247L895.193,463.879 M879.282,449.125l18.26,50.952
		l82.855,11.629l-18.262-39.762L879.282,449.125L879.282,449.125z"/>
</g>
<g>
	<path fill="#4B5666" d="M879.912,480.531l8.215,22.922l2.039,5.688l5.984,0.84l55.982,7.857v59.771l-72.854,20.064l-72.855-20.064
		v-59.673l58.23-7.954l6.287-0.856l1.898-6.06L879.912,480.531 M879.282,449.125l-15.979,50.952l-66.877,9.135v76.018l82.854,22.82
		l82.854-22.82v-76.085l-64.596-9.063L879.282,449.125L879.282,449.125z"/>
</g>
<polygon fill="#4B5666" points="897.541,500.079 879.282,449.125 879.282,608.048 962.135,585.228 962.135,509.143 "/>
</svg>
