<?xml version="1.0" encoding="utf-8"?>
<!-- Generator: Adobe Illustrator 15.0.2, SVG Export Plug-In . SVG Version: 6.00 Build 0)  -->
<!DOCTYPE svg PUBLIC "-//W3C//DTD SVG 1.1//EN" "http://www.w3.org/Graphics/SVG/1.1/DTD/svg11.dtd">
<svg version="1.1" id="Layer_1" xmlns="http://www.w3.org/2000/svg" xmlns:xlink="http://www.w3.org/1999/xlink" x="0px" y="0px"
	 width="1057.172px" height="1057.171px" viewBox="0 0 1057.172 1057.171" enable-background="new 0 0 1057.172 1057.171"
	 xml:space="preserve">
<g>
	<path fill="#FBD35C" d="M154.91,154.905c206.542-206.542,540.809-206.539,747.354,0.008L528.59,528.585L154.91,154.905z"/>
</g>
<g>
	<path fill="#A4D970" d="M902.269,154.907c206.543,206.544,206.538,540.808-0.009,747.353L528.587,528.587L902.269,154.907z"/>
</g>
<g>
	<path fill="#A1BDE3" d="M902.26,902.267c-206.541,206.543-540.808,206.537-747.353-0.008L528.58,528.587L902.26,902.267z"/>
</g>
<g>
	<path fill="#FA7977" d="M154.905,902.265C-51.637,695.72-51.635,361.457,154.91,154.912l373.674,373.674L154.905,902.265z"/>
</g>
<circle fill="#4B5666" cx="528.585" cy="528.586" r="187.634"/>
<g>
	<path fill="#4B5666" d="M240.699,540.89H203.41h-6.664l-2.564,6.152c-7.482,17.941-24.88,29.541-44.315,29.541
		c-18.996,0-35.964-11.02-43.736-28.227v-39.549c7.771-17.208,24.739-28.223,43.736-28.223c19.437,0,36.832,11.596,44.315,29.542
		l2.564,6.148h6.664h37.289V540.89 M250.699,550.89v-44.613H203.41c-8.741-20.958-29.421-35.69-53.546-35.69
		c-24.312,0-45.111,14.961-53.736,36.172v43.648c8.625,21.215,29.427,36.176,53.736,36.176c24.125,0,44.807-14.734,53.546-35.691
		h47.289V550.89z"/>
</g>
<path fill="#4B5666" d="M240.448,556.345c-1.848,0-3.344-1.498-3.344-3.344v-48.836c0-1.848,1.496-3.345,3.344-3.345h11.26
	c1.848,0,3.345,1.497,3.345,3.345v48.836c0,1.846-1.497,3.344-3.345,3.344H240.448z"/>
<path fill="#4B5666" d="M149.169,489.439c-14.5,0.183-27.092,8.239-33.708,20.099v38.092c6.617,11.857,19.208,19.918,33.708,20.1
	V489.439z M118.681,521.644c0-3.559,2.888-6.445,6.445-6.445c3.561,0,6.444,2.887,6.444,6.445c0,3.562-2.886,6.445-6.444,6.445
	S118.681,525.205,118.681,521.644z M140.741,526.353c0-1.23,0.999-2.229,2.229-2.229s2.229,0.998,2.229,2.229
	c0,1.232-0.999,2.23-2.229,2.23S140.741,527.585,140.741,526.353z M127.359,541.224c0-2.328,1.886-4.213,4.214-4.213
	s4.213,1.885,4.213,4.213s-1.886,4.215-4.213,4.215S127.359,543.552,127.359,541.224z"/>
<path fill="#4B5666" d="M565.543,264.292c28.572,0,51.746-22.177,51.746-51.746c0-55.665-52.67-70.154-81.312-103.491
	c-0.263-0.368-0.48-0.668-0.816-0.997c-3.62-3.587-9.461-3.587-13.08,0c-0.333,0.328-0.633,0.628-0.889,0.997
	c-28.607,33.265-81.314,48.049-81.314,103.491c0,29.569,23.177,51.746,51.745,51.746c14.489,0,33.269-8.541,36.962-22.917
	C532.28,255.751,551.056,264.292,565.543,264.292z M584.131,214.95c0.636-3.477,3.662-6.101,7.284-6.101
	c4.065,0,7.396,3.328,7.396,7.392c0,5.321-4.476,13.417-10.572,19.477c-5.988,5.916-13.12,10.093-18.998,10.093
	c-4.062,0-7.391-3.44-7.391-7.505c0-3.62,2.624-6.652,6.1-7.28C575.933,229.178,582.283,222.378,584.131,214.95z"/>
<g>
	<path fill="#4B5666" d="M585.625,810.408v76.361c0,6.781-1.925,20.312-14.812,34.746c-14.155,15.855-34.729,24.477-42.241,27.242
		c-7.518-2.75-27.982-11.299-42.218-27.242c-12.89-14.434-14.812-27.965-14.812-34.746v-76.361h57.042H585.625 M595.625,800.408
		h-67.041h-67.042c0,0,0,75.717,0,86.361c0,10.646,3.596,25.996,17.354,41.406c19.717,22.084,49.688,31.154,49.688,31.154
		s29.974-9.07,49.688-31.154c13.761-15.41,17.354-30.76,17.354-41.406C595.625,876.125,595.625,800.408,595.625,800.408
		L595.625,800.408z"/>
</g>
<g>
	<path fill="#4B5666" d="M528.584,800.408v158.924c0,0,29.974-9.07,49.688-31.152c13.761-15.412,17.354-30.76,17.354-41.408
		c0-10.645,0-86.359,0-86.359L528.584,800.408L528.584,800.408z"/>
</g>
<g>
	<path fill="#4B5666" d="M814.329,543.621l27.393,8.588l8.307,60.811l-18.984-8.719L814.329,543.621 M799.819,528.587l22.82,82.854
		l39.762,18.264l-11.629-85.141L799.819,528.587L799.819,528.587z"/>
</g>
<g>
	<path fill="#4B5666" d="M814.573,512.677l16.471-59.798l18.911-8.688l-8.248,58.762L814.573,512.677 M799.819,528.587l50.952-18.26
		l11.629-82.855l-39.762,18.261L799.819,528.587L799.819,528.587z"/>
</g>
<g>
	<path fill="#4B5666" d="M831.224,527.957l22.922-8.215l5.688-2.039l0.84-5.984l7.858-55.983h59.771l20.065,72.854l-20.065,72.854
		H868.63l-7.954-58.229l-0.856-6.287l-6.06-1.9L831.224,527.957 M799.819,528.587l50.952,15.979l9.135,66.877h76.017l22.821-82.854
		l-22.821-82.854h-76.085l-9.063,64.596L799.819,528.587L799.819,528.587z"/>
</g>
<polygon fill="#4B5666" points="850.772,510.328 799.819,528.587 958.742,528.587 935.921,445.734 859.836,445.734 "/>
</svg>
