<?xml version="1.0" encoding="utf-8"?>
<!-- Generator: Adobe Illustrator 15.0.2, SVG Export Plug-In . SVG Version: 6.00 Build 0)  -->
<!DOCTYPE svg PUBLIC "-//W3C//DTD SVG 1.1//EN" "http://www.w3.org/Graphics/SVG/1.1/DTD/svg11.dtd">
<svg version="1.1" id="Layer_1" xmlns="http://www.w3.org/2000/svg" xmlns:xlink="http://www.w3.org/1999/xlink" x="0px" y="0px"
	 width="1057.172px" height="1057.171px" viewBox="0 0 1057.172 1057.171" enable-background="new 0 0 1057.172 1057.171"
	 xml:space="preserve">
<g>
	<path fill="#FBD35C" d="M154.91,154.905c206.542-206.542,540.809-206.539,747.354,0.008L528.59,528.585L154.91,154.905z"/>
</g>
<g>
	<path fill="#A4D970" d="M902.269,154.907c206.544,206.544,206.538,540.807-0.009,747.352L528.587,528.587L902.269,154.907z"/>
</g>
<g>
	<path fill="#A1BDE3" d="M902.26,902.267c-206.541,206.543-540.808,206.537-747.353-0.008L528.58,528.587L902.26,902.267z"/>
</g>
<g>
	<path fill="#FA7977" d="M154.905,902.265C-51.637,695.72-51.635,361.457,154.91,154.912l373.674,373.674L154.905,902.265z"/>
</g>
<circle fill="#4B5666" cx="528.585" cy="528.586" r="187.634"/>
<g>
	<path fill="#4B5666" d="M251.708,500.82h-11.26c-1.848,0-3.344,1.497-3.344,3.345v2.112H203.41
		c-8.741-20.958-29.421-35.69-53.546-35.69c-24.312,0-45.111,14.961-53.736,36.172v43.649c8.625,21.215,29.427,36.176,53.736,36.176
		c24.125,0,44.807-14.734,53.546-35.691h33.694v2.109c0,1.846,1.496,3.344,3.344,3.344h11.26c1.848,0,3.345-1.498,3.345-3.344
		v-48.836C255.053,502.317,253.556,500.82,251.708,500.82z M203.41,540.89h-6.664l-2.564,6.152
		c-7.482,17.941-24.88,29.541-44.315,29.541c-18.996,0-35.964-11.021-43.736-28.227v-39.55
		c7.771-17.208,24.739-28.223,43.736-28.223c19.437,0,36.832,11.596,44.315,29.542l2.564,6.148h6.664h33.694v24.616H203.41z"/>
	<path fill="#4B5666" d="M115.461,509.538v38.092c6.617,11.857,19.208,19.918,33.708,20.1v-78.291
		C134.669,489.622,122.077,497.678,115.461,509.538z M142.97,524.124c1.23,0,2.229,0.998,2.229,2.229s-0.999,2.229-2.229,2.229
		s-2.229-0.998-2.229-2.229C140.741,525.123,141.74,524.124,142.97,524.124z M135.786,541.224c0,2.328-1.886,4.215-4.213,4.215
		c-2.327,0-4.214-1.887-4.214-4.215s1.886-4.213,4.214-4.213C133.901,537.011,135.786,538.896,135.786,541.224z M131.57,521.644
		c0,3.562-2.886,6.445-6.444,6.445s-6.445-2.884-6.445-6.445c0-3.559,2.888-6.444,6.445-6.444
		C128.687,515.199,131.57,518.086,131.57,521.644z"/>
</g>
<path fill="#4B5666" d="M565.543,264.292c28.572,0,51.746-22.177,51.746-51.746c0-55.665-52.67-70.154-81.312-103.491
	c-0.263-0.368-0.479-0.668-0.815-0.997c-3.62-3.587-9.461-3.587-13.08,0c-0.333,0.328-0.633,0.628-0.889,0.997
	c-28.607,33.265-81.314,48.049-81.314,103.491c0,29.569,23.177,51.746,51.745,51.746c14.489,0,33.269-8.541,36.962-22.917
	C532.28,255.751,551.056,264.292,565.543,264.292z M584.131,214.95c0.636-3.477,3.662-6.101,7.284-6.101
	c4.065,0,7.396,3.328,7.396,7.392c0,5.321-4.476,13.417-10.571,19.477c-5.988,5.916-13.12,10.093-18.998,10.093
	c-4.062,0-7.392-3.44-7.392-7.505c0-3.62,2.624-6.652,6.101-7.28C575.933,229.178,582.283,222.378,584.131,214.95z"/>
<path fill="#4B5666" d="M595.625,800.414v-0.006h-67.041h-67.042c0,0,0,75.717,0,86.361c0,10.646,3.596,25.996,17.354,41.406
	c19.717,22.084,49.688,31.154,49.688,31.154v0.002c0,0,29.974-9.07,49.688-31.152c13.762-15.412,17.354-30.76,17.354-41.406
	S595.626,800.414,595.625,800.414L595.625,800.414z M528.572,948.757c-7.519-2.75-27.982-11.299-42.219-27.242
	c-12.89-14.434-14.812-27.965-14.812-34.746v-76.361h57.042v138.346C528.58,948.754,528.576,948.756,528.572,948.757z"/>
<g>
	<path fill="#4B5666" d="M862.4,427.472l-39.763,18.262l-22.818,82.854l50.952-18.26L862.4,427.472z M841.707,502.953l-27.134,9.724
		l16.471-59.798l18.911-8.688L841.707,502.953z"/>
	<path fill="#4B5666" d="M958.744,528.589l-22.821-82.854h-76.085l-9.062,64.596l-50.956,18.256l22.819,82.854l39.763,18.264
		l-2.494-18.262h76.016L958.744,528.589z M831.045,604.3l-16.716-60.68l27.393,8.588l8.308,60.811L831.045,604.3z M868.63,601.445
		l-7.954-58.23l-0.855-6.287l-6.061-1.898l-22.536-7.072l22.923-8.215l5.688-2.039l0.84-5.984l7.858-55.982h59.771l20.065,72.854
		l-20.065,72.855H868.63z"/>
</g>
<polygon fill="#4B5666" points="850.771,510.328 799.819,528.587 958.742,528.587 935.921,445.734 859.836,445.734 "/>
</svg>
