<?xml version="1.0" encoding="utf-8"?>
<!-- Generator: Adobe Illustrator 15.0.2, SVG Export Plug-In . SVG Version: 6.00 Build 0)  -->
<!DOCTYPE svg PUBLIC "-//W3C//DTD SVG 1.1//EN" "http://www.w3.org/Graphics/SVG/1.1/DTD/svg11.dtd">
<svg version="1.1" id="Layer_1" xmlns="http://www.w3.org/2000/svg" xmlns:xlink="http://www.w3.org/1999/xlink" x="0px" y="0px"
	 width="1057.172px" height="1057.171px" viewBox="0 0 1057.172 1057.171" enable-background="new 0 0 1057.172 1057.171"
	 xml:space="preserve">
<g>
	<path fill="#FBD35C" d="M154.91,154.905c206.541-206.542,540.809-206.539,747.354,0.008L528.59,528.585L154.91,154.905z"/>
</g>
<g>
	<path fill="#A4D970" d="M902.269,154.907c206.544,206.544,206.538,540.807-0.009,747.352L528.587,528.587L902.269,154.907z"/>
</g>
<g>
	<path fill="#A1BDE3" d="M902.26,902.267c-206.541,206.543-540.809,206.537-747.354-0.008l373.673-373.672L902.26,902.267z"/>
</g>
<g>
	<path fill="#FA7977" d="M154.905,902.265C-51.637,695.72-51.635,361.457,154.91,154.912l373.674,373.674L154.905,902.265z"/>
</g>
<circle fill="#4B5666" cx="528.585" cy="528.586" r="187.634"/>
<g>
	<path fill="#4B5666" d="M233.59,502.858c0-24.312-14.961-45.11-36.172-53.735H153.77c-21.215,8.625-36.176,29.427-36.176,53.735
		c0,24.125,14.734,44.807,35.691,53.545v33.693h-2.109c-1.846,0-3.344,1.496-3.344,3.344v11.262c0,1.848,1.498,3.344,3.344,3.344
		h48.836c1.848,0,3.345-1.496,3.345-3.344v-11.262c0-1.848-1.497-3.344-3.345-3.344H197.9v-33.693
		C218.858,547.664,233.59,526.983,233.59,502.858z M163.287,590.097v-33.693v-6.664l-6.152-2.564
		c-17.941-7.48-29.541-24.878-29.541-44.313c0-18.996,11.021-35.966,28.227-43.736h39.55c17.208,7.771,28.223,24.739,28.223,43.736
		c0,19.437-11.596,36.833-29.542,44.313l-6.148,2.564v6.664v33.693H163.287z"/>
	<path fill="#4B5666" d="M194.639,468.455h-38.092c-11.857,6.617-19.918,19.208-20.1,33.708h78.291
		C214.555,487.663,206.5,475.071,194.639,468.455z M162.953,488.781c-2.328,0-4.215-1.888-4.215-4.214
		c0.001-2.327,1.887-4.215,4.215-4.215s4.213,1.888,4.213,4.215S165.281,488.781,162.953,488.781z M177.824,498.193
		c-1.231,0-2.229-0.999-2.229-2.229c0-1.229,0.998-2.229,2.229-2.229c1.23,0,2.229,0.998,2.229,2.229
		C180.053,497.195,179.055,498.193,177.824,498.193z M182.534,484.562c-3.562,0-6.445-2.886-6.445-6.442
		c0-3.558,2.883-6.445,6.445-6.445c3.559,0,6.444,2.888,6.444,6.445C188.978,481.681,186.091,484.562,182.534,484.562z"/>
</g>
<path fill="#4B5666" d="M449.121,221.79c0,28.571,22.177,51.745,51.746,51.745c55.665,0,70.152-52.67,103.49-81.312
	c0.367-0.263,0.669-0.48,0.996-0.816c3.588-3.619,3.588-9.461,0-13.08c-0.326-0.333-0.628-0.633-0.996-0.889
	c-33.266-28.606-48.05-81.313-103.49-81.313c-29.569,0-51.746,23.177-51.746,51.744c0,14.489,8.541,33.27,22.917,36.963
	C457.662,188.526,449.121,207.302,449.121,221.79z M498.463,240.377c3.478,0.636,6.102,3.662,6.102,7.283
	c0,4.065-3.327,7.396-7.393,7.396c-5.321,0-13.417-4.477-19.477-10.572c-5.916-5.988-10.095-13.12-10.095-18.998
	c0-4.062,3.44-7.391,7.506-7.391c3.619,0,6.651,2.624,7.279,6.1C484.236,232.179,491.035,238.529,498.463,240.377z"/>
<path fill="#4B5666" d="M521.684,812.828c-10.646,0-25.996,3.598-41.405,17.354c-22.084,19.719-31.154,49.689-31.154,49.689h-0.003
	c0,0,9.07,29.975,31.152,49.688c15.411,13.762,30.76,17.355,41.405,17.355c10.646,0,86.359,0,86.359,0v-0.002
	c0.001,0,0.007,0,0.007,0v-67.041v-67.043C608.045,812.828,532.328,812.828,521.684,812.828z M459.701,879.871
	c-0.001-0.004-0.003-0.008-0.004-0.012c2.75-7.518,11.299-27.98,27.241-42.219c14.435-12.889,27.966-14.811,34.746-14.811h76.361
	v57.041H459.701z"/>
<path fill="#4B5666" d="M962.135,509.143l18.262,2.563l-18.262-39.762l-82.853-22.819l18.26,50.952l54.59,7.662l-54.591-7.66
	l-18.259-50.954l-82.854,22.82l-18.264,39.762l18.262-2.494v76.017l82.854,22.82l82.854-22.82v-0.002h0.001V509.143z
	 M895.193,463.879l59.798,16.472l8.688,18.91l-58.762-8.247L895.193,463.879z M803.568,480.354l60.68-16.719l-8.588,27.395
	l-60.812,8.307L803.568,480.354z M879.278,597.673l-72.855-20.064v-59.673l58.23-7.953l6.287-0.856l1.897-6.06l6.444-20.529v115.135
	L879.278,597.673z"/>
</svg>
