<?xml version="1.0" encoding="utf-8"?>
<!-- Generator: Adobe Illustrator 15.0.2, SVG Export Plug-In . SVG Version: 6.00 Build 0)  -->
<!DOCTYPE svg PUBLIC "-//W3C//DTD SVG 1.1//EN" "http://www.w3.org/Graphics/SVG/1.1/DTD/svg11.dtd">
<svg version="1.1" id="Layer_1" xmlns="http://www.w3.org/2000/svg" xmlns:xlink="http://www.w3.org/1999/xlink" x="0px" y="0px"
	 width="1057.171px" height="1057.172px" viewBox="-1619.676 -0.002 1057.171 1057.172"
	 enable-background="new -1619.676 -0.002 1057.171 1057.172" xml:space="preserve">
<g>
	<path fill="#FBD35C" d="M-1464.766,154.902c206.542-206.542,540.808-206.539,747.354,0.008l-373.674,373.672L-1464.766,154.902z"/>
</g>
<g>
	<path fill="#A4D970" d="M-717.409,154.904c206.543,206.544,206.538,540.809-0.007,747.354l-373.673-373.671L-717.409,154.904z"/>
</g>
<g>
	<path fill="#9EBEED" d="M-717.416,902.263c-206.542,206.545-540.808,206.539-747.353-0.006l373.673-373.673L-717.416,902.263z"/>
</g>
<g>
	<path fill="#FA7977" d="M-1464.771,902.261c-206.542-206.543-206.539-540.808,0.006-747.353l373.674,373.673L-1464.771,902.261z"/>
</g>
<circle fill="#4B5666" cx="-1091.09" cy="528.583" r="187.634"/>
<path fill="#4B5666" d="M-1128.053,264.288c14.49,0,33.269-8.542,36.961-22.919l0.003,0.003v-0.003
	c3.694,14.377,22.473,22.919,36.959,22.919c28.571,0,51.745-22.179,51.745-51.746c0-34.79-20.572-56.079-42.996-73.354
	c-13.454-10.366-43.309-33.824-45.672-33.824c-0.012,0-0.023,0.003-0.036,0.003c-0.012,0-0.025-0.003-0.038-0.003
	c-2.362,0-32.219,23.458-45.672,33.824c-22.424,17.275-43,38.564-43,73.354C-1179.799,242.108-1156.625,264.288-1128.053,264.288z
	 M-1034.059,240.881c8.933-6.606,14.059-16.938,14.059-28.341c0-1.881,1.522-3.406,3.403-3.406c1.882,0,3.407,1.525,3.407,3.406
	c0,13.587-6.13,25.911-16.818,33.815c-1.512,1.12-3.642,0.8-4.762-0.712C-1035.889,244.131-1035.569,241.999-1034.059,240.881z"/>
<path fill="#4B5666" d="M-1470.506,586.582c-21.85,0-40.865-12.09-50.751-29.938c0,0-1.241-2.168-1.729-4.994
	c-0.475-2.75-0.562-4.777-0.562-4.777v-18.292v-18.288c0,0,0.089-2.032,0.562-4.78c0.488-2.825,1.729-4.995,1.729-4.995
	c9.886-17.848,28.901-29.937,50.751-29.937c24.127,0,44.808,14.733,53.548,35.692h32.944c0-2.854,2.311-5.16,5.159-5.16h9.073
	c2.85,0,5.158,2.31,5.158,5.16v44.615c0,2.85-2.31,5.16-5.158,5.16h-9.073c-2.85,0-5.159-2.311-5.159-5.16h-32.944
	C-1425.701,571.847-1446.379,586.582-1470.506,586.582z M-1368.128,543.507v-29.85c0-1.881-1.525-3.405-3.406-3.405
	s-3.404,1.524-3.404,3.405v29.85c0,1.881,1.523,3.406,3.404,3.406C-1369.655,546.914-1368.128,545.388-1368.128,543.507z
	 M-1426.758,546.804c1.649-3.955,5.515-6.533,9.8-6.533h32.944v-23.378h-32.944c-4.285,0-8.149-2.574-9.8-6.529
	c-7.391-17.714-24.562-29.16-43.748-29.16c-17.213,0-33.099,9.368-41.459,24.454c-0.117,0.229-0.438,0.963-0.562,1.666
	c-0.271,1.565-0.375,2.829-0.407,3.285v17.976v17.978c0.029,0.434,0.135,1.701,0.408,3.285c0.122,0.703,0.44,1.436,0.559,1.662
	c8.36,15.082,24.246,24.453,41.459,24.453C-1451.32,575.962-1434.149,564.519-1426.758,546.804z M-1470.506,569.152
	c-14.627,0-28.134-7.902-35.337-20.65c-0.161-0.98-0.243-1.793-0.277-2.211v-35.426c0.033-0.388,0.112-1.204,0.277-2.197
	c7.202-12.749,20.71-20.655,35.337-20.655c5.152,0,10.079,0.979,14.618,2.737v75.667
	C-1460.427,568.175-1465.354,569.152-1470.506,569.152z M-1493.582,516.248c5.536-8.738,15.326-14.148,25.655-14.148
	c1.881,0,3.406-1.522,3.406-3.403s-1.525-3.407-3.406-3.407c-12.817,0-24.959,6.804-31.681,17.752l-0.403,0.695l-0.111,1.019
	c-0.009,0.099-0.013,0.197-0.013,0.297c0,1.741,1.345,3.165,3.118,3.318C-1495.511,518.498-1494.145,517.583-1493.582,516.248z"/>
<path fill="#4B5666" d="M-1029.197,800.406h-123.797c-2.839,0-5.144,2.301-5.144,5.141l0.006,47.705c0,0.004,0.002,0.01,0.002,0.014
	c0,14.33,0,28.703,0,33.506c0,10.648,3.594,25.996,17.354,41.408c19.716,22.082,49.688,31.15,49.688,31.15
	s29.971-9.068,49.687-31.15c13.76-15.412,17.354-30.76,17.354-41.408c0-4.803,0-19.176,0-33.506c0-0.004,0.002-0.01,0.002-0.014
	l-0.006-47.705C-1024.053,802.707-1026.359,800.406-1029.197,800.406z M-1127.277,921.808c-0.65,0.58-1.461,0.863-2.267,0.863
	c-0.938,0-1.869-0.383-2.542-1.137c-13.505-15.125-15.521-29.43-15.521-36.605c0-1.879,1.523-3.402,3.404-3.402
	c1.881,0,3.406,1.523,3.406,3.402c0,6.209,1.791,18.629,13.791,32.066C-1125.752,918.402-1125.875,920.554-1127.277,921.808z
	 M-1034.666,853.083c-0.001,0.061-0.001,0.121-0.001,0.182v33.506c0,6.693-1.906,20.055-14.656,34.336
	c-13.92,15.592-34.113,24.148-41.767,26.99l-0.006-137.074h56.424L-1034.666,853.083z"/>
<path fill="#4B5666" d="M-759.123,435.062c0,0.233-0.018,0.481-0.057,0.744l-1.389,9.927l72.464,0.001
	c2.838,0,5.773,2.236,6.529,4.973l20.077,72.907c0.376,1.366,0.565,3.171,0.565,4.973c0,1.803-0.189,3.606-0.565,4.973
	l-20.077,72.902c-0.756,2.738-3.691,4.975-6.529,4.975l-72.464-0.002l1.389,9.928c0.039,0.262,0.057,0.51,0.057,0.744
	c0,2.289-1.688,3.285-4.026,2.209l-30.381-13.949c-2.577-1.186-5.306-4.391-6.059-7.129l-20.083-72.904
	c-0.124-0.457-0.187-0.881-0.187-1.266c0-0.174,0.027-0.326,0.051-0.48c-0.023-0.157-0.051-0.309-0.051-0.479
	c0-0.391,0.062-0.812,0.187-1.271l20.083-72.905c0.753-2.735,3.481-5.94,6.059-7.128l30.381-13.95
	C-760.811,431.778-759.123,432.773-759.123,435.062z M-696.37,600.376c1.881,0,3.404-1.525,3.404-3.406
	c0-1.883-1.523-3.404-3.404-3.404h-32.496c-1.881,0-3.407,1.521-3.407,3.404c0,1.881,1.526,3.406,3.407,3.406H-696.37z
	 M-793.023,601.431c0.226,0.805,1.579,2.396,2.338,2.746l23.75,10.908l-9.56-68.154c-0.116-0.35-0.634-0.953-0.96-1.119
	l-33.731-10.314L-793.023,601.431z M-772.306,528.011l-1.878,0.574h100.641c0-1.191-0.137-1.975-0.184-2.153l-19.301-70.081h-58.309
	l-7.907,56.361C-760.204,519.551-765.697,525.985-772.306,528.011z M-790.685,452.993c-0.759,0.35-2.112,1.938-2.338,2.746
	l-18.163,65.936l33.731-10.313c0.326-0.166,0.844-0.771,0.96-1.121l9.56-68.152L-790.685,452.993z"/>
</svg>
