<?xml version="1.0" encoding="utf-8"?>
<!-- Generator: Adobe Illustrator 15.0.2, SVG Export Plug-In . SVG Version: 6.00 Build 0)  -->
<!DOCTYPE svg PUBLIC "-//W3C//DTD SVG 1.1//EN" "http://www.w3.org/Graphics/SVG/1.1/DTD/svg11.dtd">
<svg version="1.1" id="Layer_1" xmlns="http://www.w3.org/2000/svg" xmlns:xlink="http://www.w3.org/1999/xlink" x="0px" y="0px"
	 width="1057.172px" height="1057.172px" viewBox="-2 -40 1057.172 1057.172" enable-background="new -2 -40 1057.172 1057.172"
	 xml:space="preserve">
<g>
	<path fill="#FBD35C" d="M152.911,114.904c206.542-206.542,540.808-206.539,747.354,0.008L526.591,488.584L152.911,114.904z"/>
</g>
<g>
	<path fill="#A4D970" d="M900.268,114.906c206.543,206.544,206.538,540.808-0.007,747.353L526.588,488.586L900.268,114.906z"/>
</g>
<g>
	<path fill="#9EBEED" d="M900.261,862.265c-206.542,206.545-540.808,206.539-747.353-0.006l373.673-373.673L900.261,862.265z"/>
</g>
<g>
	<path fill="#FA7977" d="M152.905,862.263C-53.637,655.72-53.634,321.456,152.911,114.911l373.674,373.673L152.905,862.263z"/>
</g>
<circle fill="#4B5666" cx="526.586" cy="488.585" r="187.634"/>
<path fill="#4B5666" d="M447.122,107.867c0,14.49,8.542,33.269,22.919,36.961l-0.003,0.003h0.003
	c-14.377,3.694-22.919,22.473-22.919,36.959c0,28.571,22.179,51.745,51.746,51.745c34.79,0,56.079-20.572,73.354-42.996
	c10.365-13.454,33.823-43.309,33.823-45.672c0-0.012-0.003-0.023-0.003-0.036c0-0.012,0.003-0.025,0.003-0.038
	c0-2.362-23.458-32.219-33.823-45.672c-17.273-22.424-38.562-43-73.354-43C469.301,56.121,447.122,79.295,447.122,107.867z
	 M470.528,201.861c6.604,8.933,16.938,14.059,28.341,14.059c1.881,0,3.406,1.522,3.406,3.403c0,1.882-1.525,3.407-3.406,3.407
	c-13.587,0-25.911-6.13-33.815-16.818c-1.12-1.512-0.8-3.642,0.712-4.762C467.278,200.031,469.411,200.352,470.528,201.861z"/>
<path fill="#4B5666" d="M115.59,462.164c0-21.85,12.09-40.865,29.937-50.751c0,0,2.169-1.241,4.995-1.729
	c2.749-0.475,4.777-0.562,4.777-0.562h18.291h18.288c0,0,2.032,0.089,4.781,0.562c2.826,0.488,4.995,1.729,4.995,1.729
	c17.848,9.886,29.936,28.901,29.936,50.751c0,24.127-14.733,44.807-35.692,53.547v32.945c2.851,0,5.16,2.311,5.16,5.158v9.074
	c0,2.85-2.31,5.158-5.16,5.158h-44.615c-2.85,0-5.159-2.311-5.159-5.158v-9.072c0-2.852,2.311-5.16,5.159-5.16v-32.944
	C130.325,506.969,115.59,486.291,115.59,462.164z M158.665,564.542h29.849c1.881,0,3.405-1.525,3.405-3.406
	c0-1.883-1.524-3.406-3.405-3.406h-29.849c-1.881,0-3.406,1.523-3.406,3.406C155.258,563.015,156.784,564.542,158.665,564.542z
	 M155.368,505.912c3.955,1.647,6.532,5.515,6.532,9.8v32.944h23.379V515.71c0-4.285,2.576-8.146,6.531-9.799
	c17.713-7.393,29.16-24.562,29.16-43.748c0-17.213-9.369-33.099-24.454-41.459c-0.229-0.117-0.963-0.438-1.666-0.56
	c-1.567-0.271-2.829-0.375-3.285-0.407h-17.976H155.61c-0.43,0.027-1.701,0.135-3.286,0.407c-0.702,0.121-1.431,0.439-1.661,0.56
	c-15.083,8.36-24.454,24.246-24.454,41.459C126.209,481.35,137.653,498.521,155.368,505.912z M133.02,462.164
	c0-14.627,7.901-28.134,20.65-35.337c0.98-0.161,1.793-0.243,2.211-0.277h35.428c0.386,0.033,1.204,0.112,2.197,0.277
	c12.75,7.202,20.656,20.71,20.656,35.337c0,5.152-0.979,10.079-2.737,14.618h-75.669C133.996,472.243,133.02,467.316,133.02,462.164
	z M185.923,439.088c8.738,5.536,14.149,15.326,14.149,25.655c0,1.881,1.524,3.406,3.405,3.406c1.88,0,3.407-1.525,3.407-3.406
	c0-12.817-6.804-24.959-17.752-31.681l-0.695-0.403l-1.019-0.111c-0.098-0.009-0.197-0.013-0.297-0.013
	c-1.741,0-3.165,1.345-3.318,3.118C183.673,437.159,184.588,438.525,185.923,439.088z"/>
<path fill="#4B5666" d="M606.046,901.765V777.968c0-2.84-2.301-5.145-5.141-5.145L553.2,772.83c-0.004,0-0.01,0.002-0.016,0.002
	c-14.328,0-28.701,0-33.506,0c-10.646,0-25.996,3.594-41.406,17.354c-22.082,19.719-31.15,49.689-31.15,49.689
	s9.068,29.971,31.15,49.688c15.41,13.76,30.76,17.354,41.406,17.354c4.805,0,19.178,0,33.506,0c0.006,0,0.012,0.002,0.016,0.002
	l47.705-0.006C603.745,906.91,606.046,904.603,606.046,901.765z M484.644,803.685c-0.578-0.65-0.861-1.461-0.861-2.268
	c0-0.939,0.383-1.869,1.137-2.541c15.125-13.506,29.426-15.521,36.604-15.521c1.88,0,3.403,1.523,3.403,3.404
	s-1.523,3.406-3.403,3.406c-6.209,0-18.63,1.791-32.065,13.791C488.05,805.208,485.897,805.085,484.644,803.685z M553.368,896.296
	c-0.062-0.002-0.121-0.002-0.184-0.002H519.68c-6.691,0-20.055-1.906-34.336-14.656c-15.592-13.92-24.146-34.111-26.99-41.766
	l137.074-0.006v56.424L553.368,896.296z"/>
<path fill="#4B5666" d="M970.803,469.86c-0.232,0-0.48-0.02-0.745-0.059l-9.925-1.389l-0.001,72.463
	c0,2.838-2.237,5.773-4.973,6.529l-72.907,20.076c-1.367,0.377-3.171,0.564-4.973,0.564c-1.806,0-3.605-0.188-4.976-0.564
	l-72.9-20.076c-2.737-0.756-4.976-3.691-4.976-6.529l0.001-72.463l-9.928,1.389c-0.261,0.039-0.509,0.059-0.743,0.059
	c-2.29,0-3.285-1.689-2.21-4.026l13.95-30.381c1.186-2.577,4.391-5.307,7.128-6.061l72.905-20.083
	c0.456-0.123,0.88-0.187,1.268-0.187c0.172,0,0.326,0.027,0.48,0.05c0.155-0.021,0.309-0.05,0.479-0.05
	c0.391,0,0.812,0.062,1.271,0.187l72.903,20.083c2.737,0.754,5.942,3.481,7.128,6.061l13.95,30.381
	C974.088,468.171,973.093,469.86,970.803,469.86z M805.49,532.613c0,1.881,1.523,3.404,3.406,3.404c1.882,0,3.402-1.523,3.402-3.404
	v-32.496c0-1.881-1.521-3.407-3.402-3.407c-1.883,0-3.406,1.526-3.406,3.407V532.613z M804.436,435.96
	c-0.806,0.225-2.396,1.579-2.744,2.337l-10.908,23.75l68.151-9.56c0.352-0.116,0.954-0.636,1.119-0.96l10.315-33.731L804.436,435.96
	z M877.855,456.677l-0.574-1.878v100.64c1.189,0,1.975-0.137,2.151-0.184l70.081-19.301v-58.311l-56.359-7.905
	C886.315,468.779,879.881,463.286,877.855,456.677z M952.873,438.297c-0.35-0.758-1.94-2.112-2.746-2.337l-65.936-18.164
	l10.313,33.731c0.166,0.324,0.771,0.844,1.121,0.96l68.152,9.56L952.873,438.297z"/>
</svg>
