<?xml version="1.0" encoding="utf-8"?>
<!-- Generator: Adobe Illustrator 15.0.2, SVG Export Plug-In . SVG Version: 6.00 Build 0)  -->
<!DOCTYPE svg PUBLIC "-//W3C//DTD SVG 1.1//EN" "http://www.w3.org/Graphics/SVG/1.1/DTD/svg11.dtd">
<svg version="1.1" id="Layer_1" xmlns="http://www.w3.org/2000/svg" xmlns:xlink="http://www.w3.org/1999/xlink" x="0px" y="0px"
	 width="1110.315px" height="1110.316px" viewBox="244.159 -48.849 1110.315 1110.316"
	 enable-background="new 244.159 -48.849 1110.315 1110.316" xml:space="preserve">
<circle fill="#4B5666" cx="799.317" cy="506.309" r="555.158"/>
<g>
	<path fill="#FBD35C" d="M425.642,132.627c206.542-206.542,540.811-206.539,747.354,0.008L799.322,506.308L425.642,132.627z"/>
</g>
<g>
	<path fill="#A4D970" d="M1172.999,132.63c206.543,206.544,206.538,540.811-0.007,747.354L799.319,506.31L1172.999,132.63z"/>
</g>
<g>
	<path fill="#9EBEED" d="M1172.992,879.989c-206.542,206.544-540.811,206.538-747.354-0.007L799.312,506.31L1172.992,879.989z"/>
</g>
<g>
	<path fill="#FA7977" d="M425.636,879.987c-206.542-206.544-206.539-540.808,0.006-747.354l373.677,373.673L425.636,879.987z"/>
</g>
<circle fill="#4B5666" cx="799.317" cy="506.309" r="170.66"/>
<path fill="#4B5666" d="M819.411,11.455c-7.878,0-18.086,4.644-20.092,12.459l-0.002-0.001v0.001
	c-2.011-7.817-12.217-12.459-20.093-12.459c-15.533,0-28.132,12.057-28.132,28.131c0,18.914,11.185,30.488,23.376,39.879
	c7.313,5.636,23.547,18.389,24.829,18.389c0.007,0,0.014-0.001,0.02-0.001s0.015,0.001,0.019,0.001
	c1.288,0,17.516-12.753,24.83-18.389c12.19-9.392,23.377-20.966,23.377-39.879C847.543,23.512,834.944,11.455,819.411,11.455z
	 M768.31,24.179c-4.855,3.591-7.643,9.208-7.643,15.408c0,1.023-0.827,1.853-1.851,1.853c-1.022,0-1.852-0.83-1.852-1.853
	c0-7.386,3.332-14.086,9.144-18.384c0.821-0.608,1.979-0.435,2.588,0.388C769.306,22.413,769.132,23.572,768.31,24.179z"/>
<path fill="#4B5666" d="M832.966,727.566h-67.301c-1.543,0-2.796,1.254-2.796,2.798l0.004,25.934c0,0.003,0,0.006,0,0.009
	c0,7.789,0,15.603,0,18.214c0,5.79,1.954,14.132,9.435,22.511c10.716,12.007,27.011,16.936,27.011,16.936s16.294-4.93,27.012-16.936
	c7.48-8.379,9.432-16.72,9.432-22.511c0-2.611,0-10.425,0-18.214c0-0.003,0.001-0.006,0.001-0.009l-0.004-25.934
	C835.762,728.818,834.509,727.566,832.966,727.566z M779.646,793.565c-0.354,0.317-0.794,0.47-1.231,0.47
	c-0.51,0-1.015-0.209-1.382-0.618c-7.342-8.222-8.438-15.996-8.438-19.898c0-1.022,0.829-1.852,1.851-1.852
	c1.023,0,1.853,0.829,1.853,1.852c0,3.375,0.974,10.127,7.497,17.433C780.475,791.714,780.407,792.884,779.646,793.565z
	 M829.992,756.205c0,0.032,0,0.065,0,0.099v18.215c0,3.638-1.036,10.901-7.966,18.665c-7.569,8.477-18.544,13.129-22.705,14.674
	l-0.003-74.519h30.671L829.992,756.205z"/>
<g>
	<path fill="#FFFFFF" d="M701.017,492.738L687.455,457.3h-0.219c0.255,2.811,0.383,6.146,0.383,10.008v25.433h-4.293v-39.979h7
		l12.66,32.979h0.219l12.77-32.979h6.945v39.979h-4.648v-25.76c0-2.953,0.13-6.161,0.386-9.625h-0.222l-13.672,35.383H701.017z"/>
	<path fill="#FFFFFF" d="M768.583,472.695c0,6.396-1.618,11.43-4.854,15.094c-3.233,3.664-7.731,5.496-13.491,5.496
		c-5.892,0-10.435-1.8-13.634-5.4c-3.196-3.6-4.799-8.682-4.799-15.244c0-6.508,1.604-11.553,4.812-15.135s7.766-5.373,13.672-5.373
		c5.742,0,10.227,1.823,13.453,5.469C766.97,461.248,768.583,466.279,768.583,472.695z M736.729,472.695
		c0,5.414,1.151,9.521,3.459,12.315c2.308,2.8,5.654,4.197,10.051,4.197c4.43,0,7.771-1.395,10.033-4.184s3.393-6.899,3.393-12.332
		c0-5.377-1.126-9.456-3.377-12.236c-2.252-2.779-5.583-4.17-9.994-4.17c-4.43,0-7.798,1.397-10.104,4.197
		C737.88,463.285,736.729,467.354,736.729,472.695z"/>
	<path fill="#FFFFFF" d="M809.407,472.367c0,6.6-1.791,11.645-5.373,15.135c-3.582,3.491-8.736,5.236-15.463,5.236h-11.074V452.76
		h12.25c6.216,0,11.047,1.726,14.492,5.168C807.684,461.374,809.407,466.188,809.407,472.367z M804.485,472.531
		c0-5.213-1.312-9.145-3.927-11.785c-2.613-2.644-6.504-3.965-11.659-3.965h-6.757v31.938h5.66c5.541,0,9.707-1.359,12.496-4.088
		C803.091,481.906,804.485,477.873,804.485,472.531z"/>
	<path fill="#FFFFFF" d="M840.606,492.738h-22.285V452.76h22.285v4.129H822.97v12.88h16.57v4.104h-16.57v14.711h17.64
		L840.606,492.738L840.606,492.738z"/>
	<path fill="#FFFFFF" d="M854.114,476.113v16.625h-4.648V452.76h10.965c4.903,0,8.526,0.939,10.869,2.816
		c2.342,1.878,3.517,4.703,3.517,8.477c0,5.287-2.683,8.859-8.039,10.722l10.854,17.965h-5.496l-9.68-16.625L854.114,476.113
		L854.114,476.113z M854.114,472.121h6.371c3.278,0,5.688-0.651,7.219-1.955c1.531-1.303,2.297-3.258,2.297-5.865
		c0-2.643-0.779-4.548-2.338-5.715c-1.562-1.166-4.062-1.75-7.506-1.75h-6.043V472.121L854.114,472.121z"/>
	<path fill="#FFFFFF" d="M915.31,492.738h-5.305l-21.848-33.551h-0.22c0.291,3.938,0.438,7.547,0.438,10.825v22.726h-4.293V452.76
		h5.25l21.793,33.414h0.219c-0.037-0.492-0.119-2.073-0.246-4.744c-0.128-2.67-0.174-4.579-0.137-5.729V452.76h4.348L915.31,492.738
		L915.31,492.738z"/>
	<path fill="#FFFFFF" d="M753.927,559.938l-4.977-12.716h-16.023l-4.922,12.716h-4.703l15.808-40.142h3.907l15.726,40.142H753.927z
		 M747.501,543.04l-4.648-12.387c-0.602-1.567-1.222-3.49-1.856-5.771c-0.401,1.75-0.979,3.674-1.725,5.771l-4.701,12.387H747.501z"
		/>
	<path fill="#FFFFFF" d="M781.817,538.993h13.59v19.438c-2.115,0.678-4.269,1.188-6.453,1.531c-2.188,0.345-4.722,0.521-7.604,0.521
		c-6.053,0-10.765-1.803-14.137-5.4c-3.373-3.6-5.059-8.646-5.059-15.135c0-4.156,0.834-7.797,2.502-10.924
		c1.668-3.126,4.066-5.517,7.205-7.164c3.135-1.649,6.809-2.478,11.02-2.478c4.269,0,8.239,0.784,11.922,2.354L793,525.841
		c-3.609-1.531-7.082-2.297-10.418-2.297c-4.867,0-8.668,1.449-11.402,4.348c-2.731,2.899-4.102,6.919-4.102,12.062
		c0,5.396,1.314,9.488,3.951,12.275c2.634,2.788,6.503,4.186,11.604,4.186c2.771,0,5.479-0.318,8.121-0.957V543.15h-8.938
		L781.817,538.993L781.817,538.993z"/>
	<path fill="#FFFFFF" d="M805.005,559.938V519.96h4.648v39.979L805.005,559.938L805.005,559.938z"/>
	<path fill="#FFFFFF" d="M820.618,559.938V519.96h4.646v35.766h17.64v4.212H820.618L820.618,559.938z"/>
	<path fill="#FFFFFF" d="M871.97,559.938h-22.285V519.96h22.285v4.129h-17.637v12.879h16.57v4.104h-16.57v14.711h17.637V559.938z"/>
</g>
<path fill="#4B5666" d="M1208.273,403.12c-0.127,0-0.263-0.012-0.405-0.031l-5.396-0.755l-0.001,39.394
	c0,1.543-1.217,3.142-2.701,3.552l-39.637,10.913c-0.742,0.204-1.725,0.308-2.702,0.308c-0.979,0-1.96-0.104-2.703-0.308
	l-39.635-10.913c-1.488-0.411-2.702-2.009-2.702-3.552v-39.394l-5.397,0.755c-0.144,0.019-0.278,0.031-0.403,0.031
	c-1.246,0-1.786-0.918-1.201-2.189l7.583-16.518c0.643-1.398,2.388-2.884,3.874-3.293l39.637-10.919
	c0.248-0.067,0.479-0.101,0.689-0.101c0.093,0,0.177,0.015,0.259,0.027c0.085-0.014,0.167-0.027,0.261-0.027
	c0.211,0,0.44,0.034,0.688,0.101l39.637,10.919c1.488,0.409,3.231,1.893,3.873,3.293l7.584,16.518
	C1210.06,402.202,1209.519,403.12,1208.273,403.12z M1118.397,437.237c0,1.02,0.83,1.848,1.853,1.848s1.851-0.828,1.851-1.848
	v-17.67c0-1.02-0.828-1.85-1.851-1.85s-1.853,0.83-1.853,1.85V437.237z M1117.824,384.689c-0.438,0.122-1.303,0.858-1.495,1.271
	l-5.928,12.913l37.053-5.198c0.189-0.062,0.52-0.344,0.609-0.521l5.608-18.339L1117.824,384.689z M1157.741,395.953l-0.312-1.021
	v54.718c0.647,0,1.074-0.074,1.171-0.1l38.101-10.496v-31.698l-30.642-4.299C1162.34,402.532,1158.842,399.546,1157.741,395.953z
	 M1198.525,385.96c-0.188-0.412-1.052-1.148-1.493-1.271l-35.847-9.875l5.608,18.339c0.089,0.177,0.419,0.459,0.609,0.521
	l37.052,5.198L1198.525,385.96z"/>
<path fill="#4B5666" d="M472.739,427.664c0,11.878-6.574,22.214-16.274,27.59c0,0-1.179,0.675-2.715,0.94
	c-1.495,0.258-2.598,0.307-2.598,0.307h-9.943h-9.942c0,0-1.107-0.049-2.6-0.307c-1.537-0.263-2.715-0.94-2.715-0.94
	c-9.703-5.376-16.274-15.712-16.274-27.59c0-13.117,8.01-24.359,19.404-29.111v-17.91c-1.549,0-2.805-1.256-2.805-2.805v-4.933
	c0-1.55,1.256-2.805,2.805-2.805h24.255c1.549,0,2.806,1.255,2.806,2.805v4.933c0,1.549-1.256,2.805-2.806,2.805v17.91
	C464.729,403.305,472.739,414.547,472.739,427.664z M449.321,372.007h-16.226c-1.023,0-1.852,0.83-1.852,1.852
	c0,1.022,0.829,1.852,1.852,1.852h16.227c1.022,0,1.852-0.829,1.852-1.852C451.173,372.837,450.344,372.007,449.321,372.007z
	 M451.114,403.881c-2.148-0.897-3.552-2.998-3.552-5.328v-17.91h-12.709v17.91c0,2.33-1.4,4.431-3.551,5.328
	c-9.632,4.017-15.855,13.35-15.855,23.783c0,9.357,5.096,17.994,13.294,22.538c0.125,0.063,0.523,0.237,0.908,0.305
	c0.85,0.146,1.536,0.204,1.787,0.222h9.771h9.774c0.233-0.017,0.924-0.073,1.786-0.223c0.384-0.066,0.778-0.24,0.906-0.304
	c8.197-4.544,13.294-13.181,13.294-22.538C466.966,417.233,460.745,407.897,451.114,403.881z M463.264,427.664
	c0,7.951-4.296,15.294-11.227,19.211c-0.532,0.088-0.974,0.132-1.201,0.15h-19.259c-0.209-0.017-0.655-0.059-1.194-0.15
	c-6.932-3.916-11.229-11.26-11.229-19.211c0-2.802,0.533-5.481,1.488-7.947h41.139C462.733,422.185,463.264,424.862,463.264,427.664
	z M434.504,440.208c-4.751-3.01-7.693-8.332-7.693-13.947c0-1.022-0.829-1.852-1.851-1.852c-1.022,0-1.853,0.829-1.853,1.852
	c0,6.969,3.699,13.569,9.651,17.224l0.378,0.222l0.554,0.061c0.053,0.004,0.107,0.007,0.161,0.007c0.944,0,1.72-0.733,1.804-1.697
	C435.726,441.258,435.229,440.515,434.504,440.208z"/>
</svg>
