<?xml version="1.0" encoding="utf-8"?>
<!-- Generator: Adobe Illustrator 15.0.0, SVG Export Plug-In . SVG Version: 6.00 Build 0)  -->
<!DOCTYPE svg PUBLIC "-//W3C//DTD SVG 1.1//EN" "http://www.w3.org/Graphics/SVG/1.1/DTD/svg11.dtd">
<svg version="1.1" id="Layer_1" xmlns="http://www.w3.org/2000/svg" xmlns:xlink="http://www.w3.org/1999/xlink" x="0px" y="0px"
	 width="1152px" height="1152.001px" viewBox="0 0 1152 1152.001" enable-background="new 0 0 1152 1152.001" xml:space="preserve">
<circle fill="#4B5666" cx="576" cy="576" r="576"/>
<g>
	<path fill="#FBD35C" d="M188.2964,188.29c214.2964-214.2959,561.1108-214.293,775.4106,0.0078L576.0049,575.999L188.2964,188.29z"
		/>
</g>
<g>
	<path fill="#A4D970" d="M963.71,188.293c214.2979,214.2979,214.293,561.1104-0.0068,775.4092L576.002,576.001L963.71,188.293z"/>
</g>
<g>
	<path fill="#9EBEED" d="M963.7031,963.709c-214.2959,214.2988-561.1104,214.293-775.4102-0.0068L575.9951,576.001L963.7031,963.709
		z"/>
</g>
<g>
	<path fill="#FA7977" d="M188.2896,963.707c-214.2959-214.2979-214.2925-561.1104,0.0068-775.4092L575.999,575.999L188.2896,963.707
		z"/>
</g>
<circle fill="#4B5666" cx="576" cy="576" r="194.6777"/>
<g>
	<path fill="#FFFFFF" d="M466.7227,560.9141l-15.0771-39.3945h-0.2432c0.2842,3.1211,0.4258,6.8301,0.4258,11.127v28.2676h-4.7725
		v-44.4395h7.7822l14.0732,36.6582h0.2432l14.1953-36.6582h7.7207v44.4395h-5.167v-28.6328c0-3.2832,0.1416-6.8496,0.4258-10.6992
		h-0.2432l-15.1992,39.332H466.7227z"/>
	<path fill="#FFFFFF" d="M541.833,538.6328c0,7.1133-1.7988,12.707-5.3955,16.7793c-3.5977,4.0742-8.5977,6.1113-15.001,6.1113
		c-6.5459,0-11.5967-2.002-15.1533-6.0039c-3.5557-4.002-5.334-9.6523-5.334-16.9473c0-7.2344,1.7832-12.8418,5.3496-16.8242
		s8.6328-5.9727,15.1982-5.9727c6.3838,0,11.3682,2.0273,14.9551,6.0801S541.833,531.5,541.833,538.6328z M506.4209,538.6328
		c0,6.0195,1.2812,10.584,3.8447,13.6953c2.5635,3.1094,6.2871,4.666,11.1709,4.666c4.9238,0,8.6426-1.5508,11.1553-4.6523
		c2.5127-3.0996,3.7695-7.6699,3.7695-13.709c0-5.9766-1.252-10.5117-3.7539-13.6016c-2.5029-3.0898-6.2061-4.6348-11.1104-4.6348
		c-4.9238,0-8.668,1.5547-11.2314,4.666C507.7021,528.1719,506.4209,532.6973,506.4209,538.6328z"/>
	<path fill="#FFFFFF" d="M587.2148,538.2695c0,7.3359-1.9912,12.9434-5.9736,16.8242c-3.9814,3.8809-9.7109,5.8203-17.1885,5.8203
		h-12.3115v-44.4395h13.6182c6.9102,0,12.2803,1.9141,16.1104,5.7441S587.2148,531.3984,587.2148,538.2695z M581.7432,538.4512
		c0-5.7949-1.4541-10.1621-4.3623-13.1016c-2.9082-2.9375-7.2295-4.4062-12.9639-4.4062h-7.5078v35.502h6.292
		c6.1602,0,10.791-1.5137,13.8916-4.543S581.7432,544.3887,581.7432,538.4512z"/>
	<path fill="#FFFFFF" d="M621.8975,560.9141H597.124v-44.4395h24.7734v4.5898H602.292v14.3164h18.4199v4.5605H602.292v16.3535
		h19.6055V560.9141z"/>
	<path fill="#FFFFFF" d="M636.9141,542.4336v18.4805h-5.168v-44.4395h12.1895c5.4512,0,9.4785,1.043,12.083,3.1309
		c2.6035,2.0879,3.9053,5.2285,3.9053,9.4238c0,5.877-2.9785,9.8477-8.9365,11.9141l12.0674,19.9707h-6.1094l-10.7607-18.4805
		H636.9141z M636.9141,537.9961h7.082c3.6475,0,6.3232-0.7246,8.0254-2.1738s2.5527-3.623,2.5527-6.5195
		c0-2.9395-0.8662-5.0566-2.5986-6.3535s-4.5137-1.9453-8.3438-1.9453h-6.7178V537.9961z"/>
	<path fill="#FFFFFF" d="M704.9424,560.9141h-5.8975l-24.2871-37.2969h-0.2432c0.3242,4.377,0.4863,8.3906,0.4863,12.0371v25.2598
		h-4.7725v-44.4395h5.8369l24.2256,37.1445h0.2432c-0.041-0.5469-0.1318-2.3047-0.2734-5.2734s-0.1924-5.0918-0.1514-6.3691v-25.502
		h4.833V560.9141z"/>
	<path fill="#FFFFFF" d="M525.54,635.6172l-5.5322-14.1348h-17.8125l-5.4707,14.1348h-5.2285l17.5693-44.6211h4.3467
		l17.4785,44.6211H525.54z M518.3975,616.832l-5.168-13.7695c-0.668-1.7422-1.3574-3.8809-2.0664-6.4141
		c-0.4463,1.9453-1.085,4.084-1.915,6.4141l-5.2285,13.7695H518.3975z"/>
	<path fill="#FFFFFF" d="M556.5459,612.334h15.1064v21.6113c-2.3506,0.75-4.7412,1.3184-7.1729,1.7031
		c-2.4326,0.3848-5.249,0.5781-8.4512,0.5781c-6.7275,0-11.9658-2.002-15.7148-6.0039s-5.623-9.6113-5.623-16.8242
		c0-4.6211,0.9268-8.668,2.7812-12.1445c1.8545-3.4746,4.5234-6.1289,8.0098-7.9629c3.4844-1.834,7.5684-2.752,12.249-2.752
		c4.7422,0,9.1602,0.8711,13.2539,2.6152l-2.0068,4.5586c-4.0117-1.7031-7.8721-2.5527-11.5811-2.5527
		c-5.4102,0-9.6357,1.6113-12.6758,4.832c-3.0391,3.2227-4.5586,7.6914-4.5586,13.4062c0,5.998,1.4629,10.5469,4.3916,13.6465
		c2.9287,3.1016,7.2295,4.6523,12.9033,4.6523c3.0801,0,6.0898-0.3555,9.0283-1.0645v-13.6797h-9.9395V612.334z"/>
	<path fill="#FFFFFF" d="M582.3213,635.6172v-44.4395h5.168v44.4395H582.3213z"/>
	<path fill="#FFFFFF" d="M599.6777,635.6172v-44.4395h5.168v39.7598h19.6055v4.6797H599.6777z"/>
	<path fill="#FFFFFF" d="M656.7627,635.6172h-24.7734v-44.4395h24.7734v4.5898h-19.6055v14.3164h18.4199v4.5605h-18.4199v16.3535
		h19.6055V635.6172z"/>
</g>
<g>
	<path fill="#4B5666" d="M475.7266,242.7002l-2.9404,8.9053h-3.7812l9.6621-28.3135h4.3691l9.6611,28.3135h-3.9062l-3.0244-8.9053
		H475.7266z M485.0518,239.8438l-2.8145-8.1494c-0.6299-1.8486-1.0498-3.5293-1.4697-5.167h-0.084
		c-0.4199,1.6377-0.8408,3.4023-1.4287,5.125l-2.7725,8.1914H485.0518z"/>
	<path fill="#4B5666" d="M513.2344,246.0186c0,2.1426,0.042,3.9902,0.1689,5.5869h-3.2773l-0.21-3.3184h-0.084
		c-0.9238,1.6377-3.1084,3.7803-6.7207,3.7803c-3.1924,0-7.0156-1.8057-7.0156-8.9053v-11.8887h3.6963v11.2168
		c0,3.8643,1.2188,6.5107,4.5371,6.5107c2.4785,0,4.2012-1.7227,4.873-3.4023c0.21-0.5039,0.3359-1.1768,0.3359-1.8906v-12.4346
		h3.6963V246.0186z"/>
	<path fill="#4B5666" d="M523.8164,226.4014v4.8721h5.293v2.8145h-5.293v10.9648c0,2.5195,0.7139,3.9482,2.7725,3.9482
		c1.0078,0,1.5957-0.084,2.1426-0.252l0.168,2.8145c-0.7148,0.252-1.8486,0.5039-3.2773,0.5039
		c-1.7217,0-3.1084-0.5879-3.9902-1.5537c-1.0078-1.1348-1.4287-2.9414-1.4287-5.335v-11.0908h-3.1504v-2.8145h3.1504v-3.7803
		L523.8164,226.4014z"/>
	<path fill="#4B5666" d="M547.5479,246.7324c0,1.7646,0.084,3.4863,0.2949,4.873h-3.3193l-0.2939-2.5625h-0.126
		c-1.1338,1.5967-3.3184,3.0244-6.2168,3.0244c-4.1172,0-6.2168-2.8984-6.2168-5.8389c0-4.915,4.3682-7.6035,12.2236-7.5615v-0.4199
		c0-1.6387-0.4619-4.7051-4.6211-4.6631c-1.9316,0-3.9062,0.5469-5.335,1.5127l-0.8398-2.4785
		c1.6807-1.0498,4.1592-1.7646,6.7217-1.7646c6.2168,0,7.7285,4.2432,7.7285,8.2754V246.7324z M543.9775,241.2295
		c-4.0322-0.084-8.6113,0.6299-8.6113,4.5791c0,2.4365,1.5967,3.5283,3.4443,3.5283c2.6885,0,4.4111-1.6797,4.999-3.4023
		c0.126-0.4199,0.168-0.8398,0.168-1.1768V241.2295z"/>
	<path fill="#4B5666" d="M566.5303,225.5605c0,1.2607-0.8828,2.2686-2.3525,2.2686c-1.3447,0-2.2266-1.0078-2.2266-2.2686
		c0-1.2598,0.9238-2.3105,2.3105-2.3105C565.6055,223.25,566.5303,224.2588,566.5303,225.5605z M562.4131,251.6055v-20.332h3.6973
		v20.332H562.4131z"/>
	<path fill="#4B5666" d="M572.2402,221.7803h3.6973v12.7285h0.084c0.5879-1.0508,1.5117-2.0166,2.6465-2.6465
		c1.0918-0.6309,2.3936-1.0088,3.7803-1.0088c2.7305,0,7.0996,1.6807,7.0996,8.6543v12.0977h-3.6973v-11.6777
		c0-3.2773-1.2178-6.0078-4.7051-6.0078c-2.3936,0-4.2422,1.6807-4.9561,3.6553c-0.21,0.5459-0.252,1.0918-0.252,1.7637v12.2666
		h-3.6973V221.7803z"/>
	<path fill="#4B5666" d="M595.5498,236.7764c0-2.1416-0.084-3.8223-0.168-5.5029h3.2344l0.168,3.3193h0.126
		c1.1348-1.9326,3.0254-3.7393,6.4277-3.7393c2.7305,0,4.8311,1.6807,5.7129,4.0752h0.084
		c0.6299-1.1768,1.4697-2.0166,2.3105-2.6465c1.2178-0.9248,2.5205-1.4287,4.4521-1.4287c2.7305,0,6.7217,1.7646,6.7217,8.8223
		v11.9297h-3.6123v-11.4678c0-3.9492-1.4707-6.2598-4.4111-6.2598c-2.1426,0-3.7383,1.5547-4.4111,3.3193
		c-0.168,0.5459-0.2939,1.1758-0.2939,1.8477v12.5605h-3.6123v-12.1826c0-3.2344-1.4287-5.5449-4.2432-5.5449
		c-2.2686,0-3.9902,1.8486-4.5781,3.6973c-0.21,0.5039-0.2949,1.1758-0.2949,1.8057v12.2246h-3.6123V236.7764z"/>
	<path fill="#4B5666" d="M634.6953,225.5605c0,1.2607-0.8828,2.2686-2.3525,2.2686c-1.3447,0-2.2266-1.0078-2.2266-2.2686
		c0-1.2598,0.9238-2.3105,2.3105-2.3105C633.7705,223.25,634.6953,224.2588,634.6953,225.5605z M630.5781,251.6055v-20.332h3.6973
		v20.332H630.5781z"/>
	<path fill="#4B5666" d="M639.9014,247.8672c1.1338,0.6719,3.0664,1.4277,4.915,1.4277c2.6465,0,3.9062-1.3018,3.9062-3.0244
		c0-1.7646-1.0498-2.6885-3.7383-3.6963c-3.6973-1.3447-5.4189-3.3193-5.4189-5.7559c0-3.2764,2.6885-5.9648,7.0146-5.9648
		c2.0586,0,3.8652,0.5459,4.957,1.2607l-0.8818,2.6885c-0.7979-0.5039-2.2686-1.2188-4.1592-1.2188
		c-2.1836,0-3.3604,1.2607-3.3604,2.7725c0,1.6807,1.1768,2.4365,3.8232,3.4873c3.4863,1.3018,5.335,3.0664,5.335,6.0908
		c0,3.6123-2.8145,6.1328-7.5615,6.1328c-2.2266,0-4.2852-0.5879-5.7129-1.4277L639.9014,247.8672z"/>
	<path fill="#4B5666" d="M661.1553,225.5605c0,1.2607-0.8828,2.2686-2.3525,2.2686c-1.3447,0-2.2266-1.0078-2.2266-2.2686
		c0-1.2598,0.9238-2.3105,2.3105-2.3105C660.2305,223.25,661.1553,224.2588,661.1553,225.5605z M657.0381,251.6055v-20.332h3.6973
		v20.332H657.0381z"/>
	<path fill="#4B5666" d="M681.1475,246.7324c0,1.7646,0.084,3.4863,0.2949,4.873h-3.3193l-0.2939-2.5625h-0.126
		c-1.1338,1.5967-3.3184,3.0244-6.2168,3.0244c-4.1172,0-6.2168-2.8984-6.2168-5.8389c0-4.915,4.3682-7.6035,12.2236-7.5615v-0.4199
		c0-1.6387-0.4619-4.7051-4.6211-4.6631c-1.9316,0-3.9062,0.5469-5.335,1.5127l-0.8398-2.4785
		c1.6807-1.0498,4.1592-1.7646,6.7217-1.7646c6.2168,0,7.7285,4.2432,7.7285,8.2754V246.7324z M667.958,225.5186
		c0-1.1758,0.9238-2.1416,2.1416-2.1416c1.1348,0,2.0166,0.9238,2.0166,2.1416c0,1.1348-0.8398,2.1426-2.1006,2.1426
		C668.8398,227.6611,667.958,226.6533,667.958,225.5186z M677.5771,241.2295c-4.0322-0.084-8.6113,0.6299-8.6113,4.5791
		c0,2.4365,1.5967,3.5283,3.4443,3.5283c2.6885,0,4.4111-1.6797,4.999-3.4023c0.126-0.4199,0.168-0.8398,0.168-1.1768V241.2295z
		 M675.7285,225.5186c0-1.1758,0.9248-2.1416,2.1006-2.1416c1.1768,0,2.0586,0.9238,2.0586,2.1416
		c0,1.1348-0.8398,2.1426-2.1006,2.1426C676.5693,227.6611,675.7285,226.6533,675.7285,225.5186z"/>
	<path fill="#4B5666" d="M481.4619,291.6719c0,7.5195-5.251,10.7959-10.124,10.7959c-5.4609,0-9.7451-4.0322-9.7451-10.46
		c0-6.7627,4.4941-10.7539,10.0811-10.7539C477.5137,281.2539,481.4619,285.4971,481.4619,291.6719z M465.373,291.8818
		c0,4.4531,2.5205,7.8135,6.1328,7.8135c3.5293,0,6.1758-3.3184,6.1758-7.8975c0-3.4443-1.7227-7.7715-6.0918-7.7715
		C467.2637,284.0264,465.373,288.0596,465.373,291.8818z"/>
	<path fill="#4B5666" d="M486.1201,287.1768c0-2.1416-0.042-3.8223-0.168-5.5029h3.2764l0.21,3.3613h0.084
		c1.0088-1.8906,3.3613-3.7812,6.7217-3.7812c2.8145,0,7.1836,1.6807,7.1836,8.6543v12.0977h-3.6973v-11.7197
		c0-3.2773-1.2178-6.0078-4.7051-6.0078c-2.3936,0-4.2842,1.7227-4.9561,3.7812c-0.168,0.4619-0.252,1.0918-0.252,1.7217v12.2246
		h-3.6973V287.1768z"/>
	<path fill="#4B5666" d="M509.4297,287.1768c0-2.1416-0.042-3.8223-0.168-5.5029h3.2764l0.21,3.3613h0.084
		c1.0088-1.8906,3.3613-3.7812,6.7217-3.7812c2.8145,0,7.1836,1.6807,7.1836,8.6543v12.0977H523.04v-11.7197
		c0-3.2773-1.2178-6.0078-4.7051-6.0078c-2.3936,0-4.2842,1.7227-4.9561,3.7812c-0.168,0.4619-0.252,1.0918-0.252,1.7217v12.2246
		h-3.6973V287.1768z"/>
	<path fill="#4B5666" d="M536.8564,275.9609c0,1.2607-0.8828,2.2686-2.3525,2.2686c-1.3447,0-2.2266-1.0078-2.2266-2.2686
		c0-1.2598,0.9238-2.3105,2.3105-2.3105C535.9316,273.6504,536.8564,274.6592,536.8564,275.9609z M532.7393,302.0059v-20.332h3.6973
		v20.332H532.7393z"/>
	<path fill="#4B5666" d="M542.0635,298.2676c1.1338,0.6719,3.0664,1.4277,4.915,1.4277c2.6465,0,3.9062-1.3018,3.9062-3.0244
		c0-1.7646-1.0498-2.6885-3.7383-3.6963c-3.6973-1.3447-5.4189-3.3193-5.4189-5.7559c0-3.2764,2.6885-5.9648,7.0146-5.9648
		c2.0586,0,3.8652,0.5459,4.957,1.2607l-0.8818,2.6885c-0.7979-0.5039-2.2686-1.2188-4.1592-1.2188
		c-2.1836,0-3.3604,1.2607-3.3604,2.7725c0,1.6807,1.1768,2.4365,3.8232,3.4873c3.4863,1.3018,5.335,3.0664,5.335,6.0908
		c0,3.6123-2.8145,6.1328-7.5615,6.1328c-2.2266,0-4.2852-0.5879-5.7129-1.4277L542.0635,298.2676z"/>
	<path fill="#4B5666" d="M563.6523,276.8018v4.8721h5.293v2.8145h-5.293v10.9648c0,2.5195,0.7139,3.9482,2.7725,3.9482
		c1.0078,0,1.5957-0.084,2.1426-0.252l0.168,2.8145c-0.7148,0.252-1.8486,0.5039-3.2773,0.5039
		c-1.7217,0-3.1084-0.5879-3.9902-1.5537c-1.0078-1.1348-1.4287-2.9414-1.4287-5.335v-11.0908h-3.1504v-2.8145h3.1504v-3.7803
		L563.6523,276.8018z"/>
	<path fill="#4B5666" d="M590.1133,296.4189c0,2.1426,0.042,3.9902,0.1689,5.5869h-3.2773l-0.21-3.3184h-0.084
		c-0.9238,1.6377-3.1084,3.7803-6.7207,3.7803c-3.1924,0-7.0156-1.8057-7.0156-8.9053v-11.8887h3.6963v11.2168
		c0,3.8643,1.2188,6.5107,4.5371,6.5107c2.4785,0,4.2012-1.7227,4.873-3.4023c0.21-0.5039,0.3359-1.1768,0.3359-1.8906v-12.4346
		h3.6963V296.4189z"/>
	<path fill="#4B5666" d="M596.2432,287.1768c0-2.1416-0.084-3.8223-0.168-5.5029h3.2344l0.168,3.3193h0.126
		c1.1348-1.9326,3.0254-3.7393,6.4277-3.7393c2.7305,0,4.8311,1.6807,5.7129,4.0752h0.084
		c0.6299-1.1768,1.4697-2.0166,2.3105-2.6465c1.2178-0.9248,2.5205-1.4287,4.4521-1.4287c2.7305,0,6.7217,1.7646,6.7217,8.8223
		v11.9297h-3.6123v-11.4678c0-3.9492-1.4707-6.2598-4.4111-6.2598c-2.1426,0-3.7383,1.5547-4.4111,3.3193
		c-0.168,0.5459-0.2939,1.1758-0.2939,1.8477v12.5605h-3.6123v-12.1826c0-3.2344-1.4287-5.5449-4.2432-5.5449
		c-2.2686,0-3.9902,1.8486-4.5781,3.6973c-0.21,0.5039-0.2949,1.1758-0.2949,1.8057v12.2246h-3.6123V287.1768z"/>
	<path fill="#4B5666" d="M645.5527,297.1328c0,1.7646,0.084,3.4863,0.2949,4.873h-3.3193l-0.2939-2.5625h-0.126
		c-1.1338,1.5967-3.3184,3.0244-6.2168,3.0244c-4.1172,0-6.2168-2.8984-6.2168-5.8389c0-4.915,4.3682-7.6035,12.2236-7.5615v-0.4199
		c0-1.6387-0.4619-4.7051-4.6211-4.6631c-1.9316,0-3.9062,0.5469-5.335,1.5127l-0.8398-2.4785
		c1.6807-1.0498,4.1592-1.7646,6.7217-1.7646c6.2168,0,7.7285,4.2432,7.7285,8.2754V297.1328z M641.9824,291.6299
		c-4.0322-0.084-8.6113,0.6299-8.6113,4.5791c0,2.4365,1.5967,3.5283,3.4443,3.5283c2.6885,0,4.4111-1.6797,4.999-3.4023
		c0.126-0.4199,0.168-0.8398,0.168-1.1768V291.6299z"/>
	<path fill="#4B5666" d="M665.7969,297.1328c0,1.7646,0.084,3.4863,0.2949,4.873h-3.3193l-0.2939-2.5625h-0.126
		c-1.1338,1.5967-3.3184,3.0244-6.2168,3.0244c-4.1172,0-6.2168-2.8984-6.2168-5.8389c0-4.915,4.3682-7.6035,12.2236-7.5615v-0.4199
		c0-1.6387-0.4619-4.7051-4.6211-4.6631c-1.9316,0-3.9062,0.5469-5.335,1.5127l-0.8398-2.4785
		c1.6807-1.0498,4.1592-1.7646,6.7217-1.7646c6.2168,0,7.7285,4.2432,7.7285,8.2754V297.1328z M662.2266,291.6299
		c-4.0322-0.084-8.6113,0.6299-8.6113,4.5791c0,2.4365,1.5967,3.5283,3.4443,3.5283c2.6885,0,4.4111-1.6797,4.999-3.4023
		c0.126-0.4199,0.168-0.8398,0.168-1.1768V291.6299z"/>
	<path fill="#4B5666" d="M671.7588,287.1768c0-2.1416-0.042-3.8223-0.168-5.5029h3.2764l0.21,3.3613h0.084
		c1.0088-1.8906,3.3613-3.7812,6.7217-3.7812c2.8145,0,7.1836,1.6807,7.1836,8.6543v12.0977h-3.6973v-11.7197
		c0-3.2773-1.2178-6.0078-4.7051-6.0078c-2.3936,0-4.2842,1.7227-4.9561,3.7812c-0.168,0.4619-0.252,1.0918-0.252,1.7217v12.2246
		h-3.6973V287.1768z"/>
</g>
<g>
	<path fill="#4B5666" d="M435.6416,981.4473h-10.9639v10.208h12.2656v3.0664h-15.9629v-28.3135h15.333v3.0674h-11.6357v8.9473
		h10.9639V981.4473z"/>
	<path fill="#4B5666" d="M458.9102,964.8965v24.5742c0,1.8066,0.084,3.8643,0.168,5.251h-3.2764l-0.1689-3.5283h-0.126
		c-1.0918,2.2686-3.5283,3.9902-6.8467,3.9902c-4.915,0-8.7373-4.1582-8.7373-10.334c-0.042-6.7627,4.2002-10.8799,9.1152-10.8799
		c3.1504,0,5.209,1.4707,6.1328,3.0664h0.084v-12.1396H458.9102z M455.2549,982.666c0-0.4629-0.042-1.0928-0.168-1.5547
		c-0.5459-2.3105-2.5625-4.2432-5.335-4.2432c-3.8223,0-6.0908,3.3613-6.0908,7.8135c0,4.1172,2.0586,7.5195,6.0068,7.5195
		c2.4785,0,4.7471-1.6807,5.4189-4.4111c0.126-0.5039,0.168-1.0078,0.168-1.5957V982.666z"/>
	<path fill="#4B5666" d="M467.1387,985.2275c0.084,4.999,3.2344,7.0576,6.9736,7.0576c2.6455,0,4.2842-0.4619,5.6289-1.0498
		l0.6719,2.6465c-1.3027,0.5879-3.5703,1.3018-6.8057,1.3018c-6.2588,0-9.9971-4.1582-9.9971-10.292
		c0-6.1328,3.6123-10.9219,9.5352-10.9219c6.6797,0,8.4014,5.7969,8.4014,9.5361c0,0.7559-0.042,1.3018-0.126,1.7217H467.1387z
		 M477.9766,982.5811c0.042-2.3096-0.9658-5.9648-5.125-5.9648c-3.7803,0-5.377,3.4033-5.6709,5.9648H477.9766z"/>
	<path fill="#4B5666" d="M486.1221,964.8965h3.6973v29.8252h-3.6973V964.8965z"/>
	<path fill="#4B5666" d="M496.0332,964.8965h3.6973v29.8252h-3.6973V964.8965z"/>
	<path fill="#4B5666" d="M507.29,974.3896l4.4102,12.0146c0.5039,1.3438,1.0088,2.9404,1.3447,4.1582h0.084
		c0.3779-1.2178,0.7979-2.7725,1.3018-4.2422l4.0332-11.9307h3.9062l-5.5449,14.4932c-2.6465,6.9727-4.4521,10.502-6.9727,12.7285
		c-1.8486,1.5537-3.6133,2.1836-4.5371,2.3516l-0.9238-3.0664c0.9238-0.2939,2.1416-0.8818,3.2344-1.8057
		c1.0078-0.7988,2.2266-2.2266,3.1084-4.1172c0.168-0.3779,0.2939-0.6719,0.2939-0.8818s-0.084-0.5039-0.2939-0.9668
		l-7.4775-18.7354H507.29z"/>
	<path fill="#4B5666" d="M530.1797,969.5176v4.8721h5.293v2.8145h-5.293v10.9648c0,2.5205,0.7139,3.9482,2.7725,3.9482
		c1.0078,0,1.5957-0.084,2.1426-0.252l0.168,2.8145c-0.7148,0.252-1.8486,0.5039-3.2773,0.5039
		c-1.7217,0-3.1084-0.5879-3.9902-1.5537c-1.0078-1.1348-1.4287-2.9404-1.4287-5.335v-11.0908h-3.1504v-2.8145h3.1504v-3.7803
		L530.1797,969.5176z"/>
	<path fill="#4B5666" d="M553.9102,989.8486c0,1.7646,0.084,3.4863,0.2949,4.873h-3.3193l-0.2939-2.5625h-0.126
		c-1.1338,1.5967-3.3184,3.0244-6.2168,3.0244c-4.1172,0-6.2168-2.8984-6.2168-5.8389c0-4.915,4.3682-7.6035,12.2236-7.5615v-0.4199
		c0-1.6387-0.4619-4.7051-4.6211-4.6631c-1.9316,0-3.9062,0.5459-5.335,1.5127l-0.8398-2.4785
		c1.6807-1.0498,4.1592-1.7646,6.7217-1.7646c6.2168,0,7.7285,4.2432,7.7285,8.2754V989.8486z M540.7207,968.6348
		c0-1.1758,0.9238-2.1426,2.1416-2.1426c1.1348,0,2.0166,0.9248,2.0166,2.1426c0,1.1348-0.8398,2.1426-2.1006,2.1426
		C541.6025,970.7773,540.7207,969.7695,540.7207,968.6348z M550.3398,984.3457c-4.0322-0.084-8.6113,0.6299-8.6113,4.5791
		c0,2.4365,1.5967,3.5283,3.4443,3.5283c2.6885,0,4.4111-1.6797,4.999-3.4023c0.126-0.4199,0.168-0.8398,0.168-1.1768V984.3457z
		 M548.4912,968.6348c0-1.1758,0.9248-2.1426,2.1006-2.1426c1.1768,0,2.0586,0.9248,2.0586,2.1426
		c0,1.1348-0.8398,2.1426-2.1006,2.1426C549.332,970.7773,548.4912,969.7695,548.4912,968.6348z"/>
	<path fill="#4B5666" d="M573.2285,969.5176v4.8721h5.293v2.8145h-5.293v10.9648c0,2.5205,0.7139,3.9482,2.7725,3.9482
		c1.0078,0,1.5957-0.084,2.1426-0.252l0.168,2.8145c-0.7148,0.252-1.8486,0.5039-3.2773,0.5039
		c-1.7217,0-3.1084-0.5879-3.9902-1.5537c-1.0078-1.1348-1.4287-2.9404-1.4287-5.335v-11.0908h-3.1504v-2.8145h3.1504v-3.7803
		L573.2285,969.5176z"/>
	<path fill="#4B5666" d="M599.6904,989.1348c0,2.1426,0.042,3.9902,0.1689,5.5869h-3.2773l-0.21-3.3184h-0.084
		c-0.9238,1.6377-3.1084,3.7803-6.7207,3.7803c-3.1924,0-7.0156-1.8066-7.0156-8.9053v-11.8887h3.6963v11.2168
		c0,3.8643,1.2188,6.5107,4.5371,6.5107c2.4785,0,4.2012-1.7227,4.873-3.4023c0.21-0.5039,0.3359-1.1768,0.3359-1.8906v-12.4346
		h3.6963V989.1348z"/>
	<path fill="#4B5666" d="M605.8193,980.7334c0-2.3945-0.042-4.4531-0.168-6.3438h3.2344l0.168,4.0332h0.126
		c0.9248-2.7305,3.1934-4.4531,5.6709-4.4531c0.3789,0,0.6729,0.042,1.0088,0.084v3.4873c-0.3779-0.084-0.7559-0.084-1.2607-0.084
		c-2.6045,0-4.4521,1.9316-4.9561,4.7041c-0.084,0.5049-0.126,1.1348-0.126,1.7227v10.8379h-3.6973V980.7334z"/>
	<path fill="#4B5666" d="M622.0312,974.3896l3.9902,11.3848c0.6719,1.8896,1.2188,3.5703,1.6387,5.251h0.126
		c0.4619-1.6807,1.0498-3.3613,1.7217-5.251l3.9492-11.3848h3.8643l-7.9814,20.332h-3.5283l-7.7295-20.332H622.0312z"/>
	<path fill="#4B5666" d="M654.9189,989.8486c0,1.7646,0.084,3.4863,0.2949,4.873h-3.3193l-0.2939-2.5625h-0.126
		c-1.1338,1.5967-3.3184,3.0244-6.2168,3.0244c-4.1172,0-6.2168-2.8984-6.2168-5.8389c0-4.915,4.3682-7.6035,12.2236-7.5615v-0.4199
		c0-1.6387-0.4619-4.7051-4.6211-4.6631c-1.9316,0-3.9062,0.5459-5.335,1.5127l-0.8398-2.4785
		c1.6807-1.0498,4.1592-1.7646,6.7217-1.7646c6.2168,0,7.7285,4.2432,7.7285,8.2754V989.8486z M651.3486,984.3457
		c-4.0322-0.084-8.6113,0.6299-8.6113,4.5791c0,2.4365,1.5967,3.5283,3.4443,3.5283c2.6885,0,4.4111-1.6797,4.999-3.4023
		c0.126-0.4199,0.168-0.8398,0.168-1.1768V984.3457z"/>
	<path fill="#4B5666" d="M660.8799,964.8965h3.6973v29.8252h-3.6973V964.8965z"/>
	<path fill="#4B5666" d="M670.792,964.8965h3.6973v29.8252h-3.6973V964.8965z"/>
	<path fill="#4B5666" d="M684.8203,968.6768c0,1.2607-0.8828,2.2686-2.3525,2.2686c-1.3447,0-2.2266-1.0078-2.2266-2.2686
		c0-1.2598,0.9238-2.3105,2.3105-2.3105C683.8955,966.3662,684.8203,967.375,684.8203,968.6768z M680.7031,994.7217v-20.332h3.6973
		v20.332H680.7031z"/>
	<path fill="#4B5666" d="M690.0273,990.9834c1.1338,0.6719,3.0664,1.4277,4.915,1.4277c2.6465,0,3.9062-1.3018,3.9062-3.0244
		c0-1.7646-1.0498-2.6885-3.7383-3.6963c-3.6973-1.3447-5.4189-3.3193-5.4189-5.7549c0-3.2773,2.6885-5.9658,7.0146-5.9658
		c2.0586,0,3.8652,0.5459,4.957,1.2607l-0.8818,2.6885c-0.7979-0.5039-2.2686-1.2188-4.1592-1.2188
		c-2.1836,0-3.3604,1.2607-3.3604,2.7725c0,1.6807,1.1768,2.4365,3.8232,3.4873c3.4863,1.3018,5.335,3.0664,5.335,6.0908
		c0,3.6123-2.8145,6.1328-7.5615,6.1328c-2.2266,0-4.2852-0.5879-5.7129-1.4277L690.0273,990.9834z"/>
	<path fill="#4B5666" d="M711.2803,968.6768c0,1.2607-0.8828,2.2686-2.3525,2.2686c-1.3447,0-2.2266-1.0078-2.2266-2.2686
		c0-1.2598,0.9238-2.3105,2.3105-2.3105C710.3555,966.3662,711.2803,967.375,711.2803,968.6768z M707.1631,994.7217v-20.332h3.6973
		v20.332H707.1631z"/>
	<path fill="#4B5666" d="M731.2734,989.8486c0,1.7646,0.084,3.4863,0.2949,4.873h-3.3193l-0.2939-2.5625h-0.126
		c-1.1338,1.5967-3.3184,3.0244-6.2168,3.0244c-4.1172,0-6.2168-2.8984-6.2168-5.8389c0-4.915,4.3682-7.6035,12.2236-7.5615v-0.4199
		c0-1.6387-0.4619-4.7051-4.6211-4.6631c-1.9316,0-3.9062,0.5459-5.335,1.5127l-0.8398-2.4785
		c1.6807-1.0498,4.1592-1.7646,6.7217-1.7646c6.2168,0,7.7285,4.2432,7.7285,8.2754V989.8486z M727.7031,984.3457
		c-4.0322-0.084-8.6113,0.6299-8.6113,4.5791c0,2.4365,1.5967,3.5283,3.4443,3.5283c2.6885,0,4.4111-1.6797,4.999-3.4023
		c0.126-0.4199,0.168-0.8398,0.168-1.1768V984.3457z"/>
	<path fill="#4B5666" d="M498.6611,1034.7881c0,7.5195-5.251,10.7959-10.124,10.7959c-5.4609,0-9.7451-4.0322-9.7451-10.46
		c0-6.7627,4.4941-10.7539,10.0811-10.7539C494.7129,1024.3701,498.6611,1028.6133,498.6611,1034.7881z M482.5723,1034.998
		c0,4.4531,2.5205,7.8135,6.1328,7.8135c3.5293,0,6.1758-3.3184,6.1758-7.8975c0-3.4443-1.7227-7.7715-6.0918-7.7715
		C484.4629,1027.1426,482.5723,1031.1758,482.5723,1034.998z"/>
	<path fill="#4B5666" d="M503.3193,1015.2969h3.6973v29.8252h-3.6973V1015.2969z"/>
	<path fill="#4B5666" d="M531.6309,1034.7881c0,7.5195-5.251,10.7959-10.124,10.7959c-5.4609,0-9.7451-4.0322-9.7451-10.46
		c0-6.7627,4.4941-10.7539,10.0811-10.7539C527.6826,1024.3701,531.6309,1028.6133,531.6309,1034.7881z M515.542,1034.998
		c0,4.4531,2.5205,7.8135,6.1328,7.8135c3.5293,0,6.1758-3.3184,6.1758-7.8975c0-3.4443-1.7227-7.7715-6.0918-7.7715
		C517.4326,1027.1426,515.542,1031.1758,515.542,1034.998z"/>
	<path fill="#4B5666" d="M535.7852,1041.3838c1.1338,0.6719,3.0664,1.4277,4.915,1.4277c2.6465,0,3.9062-1.3018,3.9062-3.0244
		c0-1.7646-1.0498-2.6885-3.7383-3.6963c-3.6973-1.3447-5.4189-3.3193-5.4189-5.7549c0-3.2773,2.6885-5.9658,7.0146-5.9658
		c2.0586,0,3.8652,0.5459,4.957,1.2607l-0.8818,2.6885c-0.7979-0.5039-2.2686-1.2188-4.1592-1.2188
		c-2.1836,0-3.3604,1.2607-3.3604,2.7725c0,1.6807,1.1768,2.4365,3.8232,3.4873c3.4863,1.3018,5.335,3.0664,5.335,6.0908
		c0,3.6123-2.8145,6.1328-7.5615,6.1328c-2.2266,0-4.2852-0.5879-5.7129-1.4277L535.7852,1041.3838z"/>
	<path fill="#4B5666" d="M569.9336,1039.5352c0,2.1426,0.042,3.9902,0.1689,5.5869h-3.2773l-0.21-3.3184h-0.084
		c-0.9238,1.6377-3.1084,3.7803-6.7207,3.7803c-3.1924,0-7.0156-1.8066-7.0156-8.9053V1024.79h3.6963v11.2168
		c0,3.8643,1.2188,6.5107,4.5371,6.5107c2.4785,0,4.2012-1.7227,4.873-3.4023c0.21-0.5039,0.3359-1.1768,0.3359-1.8906V1024.79
		h3.6963V1039.5352z"/>
	<path fill="#4B5666" d="M576.0625,1015.2969h3.6973v12.7285h0.084c0.5879-1.0508,1.5117-2.0166,2.6465-2.6465
		c1.0918-0.6309,2.3936-1.0088,3.7803-1.0088c2.7305,0,7.0996,1.6807,7.0996,8.6533v12.0986h-3.6973v-11.6777
		c0-3.2773-1.2178-6.0078-4.7051-6.0078c-2.3936,0-4.2422,1.6807-4.9561,3.6553c-0.21,0.5459-0.252,1.0918-0.252,1.7637v12.2666
		h-3.6973V1015.2969z"/>
	<path fill="#4B5666" d="M603.6572,1019.918v4.8721h5.293v2.8145h-5.293v10.9648c0,2.5205,0.7139,3.9482,2.7725,3.9482
		c1.0078,0,1.5957-0.084,2.1426-0.252l0.168,2.8145c-0.7148,0.252-1.8486,0.5039-3.2773,0.5039
		c-1.7217,0-3.1084-0.5879-3.9902-1.5537c-1.0078-1.1348-1.4287-2.9404-1.4287-5.335v-11.0908h-3.1504v-2.8145h3.1504v-3.7803
		L603.6572,1019.918z"/>
	<path fill="#4B5666" d="M614.9131,1035.6279c0.084,4.999,3.2344,7.0576,6.9727,7.0576c2.6465,0,4.2852-0.4619,5.6299-1.0498
		l0.6719,2.6465c-1.3027,0.5879-3.5703,1.3018-6.8057,1.3018c-6.2588,0-9.9971-4.1582-9.9971-10.292
		c0-6.1328,3.6123-10.9219,9.5352-10.9219c6.6797,0,8.4014,5.7969,8.4014,9.5361c0,0.7559-0.042,1.3018-0.126,1.7217H614.9131z
		 M625.751,1032.9814c0.042-2.3096-0.9658-5.9648-5.125-5.9648c-3.7803,0-5.377,3.4033-5.6709,5.9648H625.751z"/>
	<path fill="#4B5666" d="M638.0127,1019.0771c0,1.2607-0.8828,2.2686-2.3525,2.2686c-1.3447,0-2.2266-1.0078-2.2266-2.2686
		c0-1.2598,0.9238-2.3105,2.3105-2.3105C637.0879,1016.7666,638.0127,1017.7754,638.0127,1019.0771z M633.8955,1045.1221v-20.332
		h3.6973v20.332H633.8955z"/>
	<path fill="#4B5666" d="M648.1768,1019.918v4.8721h5.293v2.8145h-5.293v10.9648c0,2.5205,0.7139,3.9482,2.7725,3.9482
		c1.0078,0,1.5957-0.084,2.1426-0.252l0.168,2.8145c-0.7148,0.252-1.8486,0.5039-3.2773,0.5039
		c-1.7217,0-3.1084-0.5879-3.9902-1.5537c-1.0078-1.1348-1.4287-2.9404-1.4287-5.335v-11.0908h-3.1504v-2.8145h3.1504v-3.7803
		L648.1768,1019.918z"/>
	<path fill="#4B5666" d="M671.9072,1040.249c0,1.7646,0.084,3.4863,0.2949,4.873h-3.3193l-0.2939-2.5625h-0.126
		c-1.1338,1.5967-3.3184,3.0244-6.2168,3.0244c-4.1172,0-6.2168-2.8984-6.2168-5.8389c0-4.915,4.3682-7.6035,12.2236-7.5615v-0.4199
		c0-1.6387-0.4619-4.7051-4.6211-4.6631c-1.9316,0-3.9062,0.5459-5.335,1.5127l-0.8398-2.4785
		c1.6807-1.0498,4.1592-1.7646,6.7217-1.7646c6.2168,0,7.7285,4.2432,7.7285,8.2754V1040.249z M668.3369,1034.7461
		c-4.0322-0.084-8.6113,0.6299-8.6113,4.5791c0,2.4365,1.5967,3.5283,3.4443,3.5283c2.6885,0,4.4111-1.6797,4.999-3.4023
		c0.126-0.4199,0.168-0.8398,0.168-1.1768V1034.7461z"/>
</g>
<g>
	<path fill="#4B5666" d="M837.7275,584.1318h-8.6113v-3.1094h20.9629v3.1094h-8.6543v25.2041h-3.6973V584.1318z"/>
	<path fill="#4B5666" d="M868.5166,599.002c0,7.5195-5.252,10.7959-10.125,10.7959c-5.4609,0-9.7441-4.0322-9.7441-10.46
		c0-6.7627,4.4941-10.7539,10.0801-10.7539C864.5674,588.584,868.5166,592.8271,868.5166,599.002z M852.4268,599.2119
		c0,4.4531,2.5215,7.8135,6.1328,7.8135c3.5293,0,6.1758-3.3184,6.1758-7.8975c0-3.4443-1.7227-7.7715-6.0918-7.7715
		C854.3174,591.3564,852.4268,595.3896,852.4268,599.2119z"/>
	<path fill="#4B5666" d="M877.292,583.291c0,1.2607-0.8828,2.2686-2.3535,2.2686c-1.3438,0-2.2266-1.0078-2.2266-2.2686
		c0-1.2598,0.9238-2.3105,2.3105-2.3105C876.3662,580.9805,877.292,581.9893,877.292,583.291z M873.1748,609.3359v-20.332h3.6973
		v20.332H873.1748z"/>
	<path fill="#4B5666" d="M883.0029,594.5068c0-2.1416-0.084-3.8223-0.168-5.5029h3.2344l0.168,3.3193h0.125
		c1.1348-1.9326,3.0254-3.7393,6.4277-3.7393c2.7305,0,4.832,1.6807,5.7129,4.0752h0.084c0.6309-1.1768,1.4707-2.0166,2.3105-2.6465
		c1.2188-0.9248,2.5215-1.4287,4.4531-1.4287c2.7305,0,6.7207,1.7646,6.7207,8.8223v11.9297H908.46v-11.4678
		c0-3.9492-1.4707-6.2598-4.4121-6.2598c-2.1426,0-3.7383,1.5547-4.4102,3.3193c-0.168,0.5459-0.2949,1.1758-0.2949,1.8477v12.5605
		h-3.6113v-12.1826c0-3.2344-1.4297-5.5449-4.2441-5.5449c-2.2676,0-3.9902,1.8486-4.5781,3.6973
		c-0.209,0.5039-0.2949,1.1758-0.2949,1.8057v12.2246h-3.6113V594.5068z"/>
	<path fill="#4B5666" d="M922.1475,583.291c0,1.2607-0.8828,2.2686-2.3516,2.2686c-1.3457,0-2.2266-1.0078-2.2266-2.2686
		c0-1.2598,0.9238-2.3105,2.3105-2.3105C921.2236,580.9805,922.1475,581.9893,922.1475,583.291z M918.0303,609.3359v-20.332h3.6973
		v20.332H918.0303z"/>
	<path fill="#4B5666" d="M932.3115,584.1318v4.8721h5.293v2.8145h-5.293v10.9648c0,2.5195,0.7129,3.9482,2.7715,3.9482
		c1.0078,0,1.5957-0.084,2.1426-0.252l0.168,2.8145c-0.7148,0.252-1.8477,0.5039-3.2773,0.5039
		c-1.7207,0-3.1074-0.5879-3.9902-1.5537c-1.0078-1.1348-1.4277-2.9414-1.4277-5.335v-11.0908h-3.1504v-2.8145h3.1504v-3.7803
		L932.3115,584.1318z"/>
	<path fill="#4B5666" d="M956.042,604.4629c0,1.7646,0.084,3.4863,0.2949,4.873h-3.3184l-0.2949-2.5625h-0.125
		c-1.1348,1.5967-3.3184,3.0244-6.2168,3.0244c-4.1172,0-6.2168-2.8984-6.2168-5.8389c0-4.915,4.3672-7.6035,12.2227-7.5615v-0.4199
		c0-1.6387-0.4609-4.7051-4.6211-4.6631c-1.9316,0-3.9062,0.5469-5.334,1.5127l-0.8398-2.4785
		c1.6797-1.0498,4.1582-1.7646,6.7207-1.7646c6.2168,0,7.7285,4.2432,7.7285,8.2754V604.4629z M952.4717,598.96
		c-4.0312-0.084-8.6113,0.6299-8.6113,4.5791c0,2.4365,1.5977,3.5283,3.4453,3.5283c2.6875,0,4.4102-1.6797,4.998-3.4023
		c0.127-0.4199,0.168-0.8398,0.168-1.1768V598.96z"/>
	<path fill="#4B5666" d="M985.1904,604.4629c0,1.7646,0.084,3.4863,0.2949,4.873h-3.3203l-0.293-2.5625h-0.127
		c-1.1328,1.5967-3.3184,3.0244-6.2168,3.0244c-4.1172,0-6.2168-2.8984-6.2168-5.8389c0-4.915,4.3691-7.6035,12.2246-7.5615v-0.4199
		c0-1.6387-0.4629-4.7051-4.6211-4.6631c-1.9316,0-3.9062,0.5469-5.3359,1.5127l-0.8398-2.4785
		c1.6816-1.0498,4.1602-1.7646,6.7227-1.7646c6.2168,0,7.7285,4.2432,7.7285,8.2754V604.4629z M981.6201,598.96
		c-4.0332-0.084-8.6113,0.6299-8.6113,4.5791c0,2.4365,1.5957,3.5283,3.4434,3.5283c2.6895,0,4.4121-1.6797,5-3.4023
		c0.125-0.4199,0.168-0.8398,0.168-1.1768V598.96z"/>
	<path fill="#4B5666" d="M991.1514,595.3477c0-2.3945-0.043-4.4531-0.168-6.3438h3.2344l0.168,4.0332h0.125
		c0.9258-2.7305,3.1934-4.4531,5.6719-4.4531c0.3789,0,0.6719,0.042,1.0078,0.084v3.4873c-0.377-0.084-0.7559-0.084-1.2598-0.084
		c-2.6055,0-4.4531,1.9316-4.957,4.7041c-0.084,0.5049-0.125,1.1348-0.125,1.7227v10.8379h-3.6973V595.3477z"/>
	<path fill="#4B5666" d="M1007.3643,589.0039l3.9902,11.3848c0.6719,1.8896,1.2188,3.5703,1.6387,5.251h0.125
		c0.4629-1.6807,1.0508-3.3613,1.7227-5.251l3.9492-11.3848h3.8633l-7.9805,20.332h-3.5293l-7.7285-20.332H1007.3643z"/>
	<path fill="#4B5666" d="M1044.1162,599.002c0,7.5195-5.252,10.7959-10.125,10.7959c-5.4609,0-9.7441-4.0322-9.7441-10.46
		c0-6.7627,4.4941-10.7539,10.0801-10.7539C1040.167,588.584,1044.1162,592.8271,1044.1162,599.002z M1028.0264,599.2119
		c0,4.4531,2.5215,7.8135,6.1328,7.8135c3.5293,0,6.1758-3.3184,6.1758-7.8975c0-3.4443-1.7227-7.7715-6.0918-7.7715
		C1029.917,591.3564,1028.0264,595.3896,1028.0264,599.2119z"/>
	<path fill="#4B5666" d="M1063.0557,604.4629c0,1.7646,0.084,3.4863,0.2949,4.873h-3.3184l-0.2949-2.5625h-0.125
		c-1.1348,1.5967-3.3184,3.0244-6.2168,3.0244c-4.1172,0-6.2168-2.8984-6.2168-5.8389c0-4.915,4.3672-7.6035,12.2227-7.5615v-0.4199
		c0-1.6387-0.4609-4.7051-4.6211-4.6631c-1.9316,0-3.9062,0.5469-5.334,1.5127l-0.8398-2.4785
		c1.6797-1.0498,4.1582-1.7646,6.7207-1.7646c6.2168,0,7.7285,4.2432,7.7285,8.2754V604.4629z M1059.4854,598.96
		c-4.0312-0.084-8.6113,0.6299-8.6113,4.5791c0,2.4365,1.5977,3.5283,3.4453,3.5283c2.6875,0,4.4102-1.6797,4.998-3.4023
		c0.127-0.4199,0.168-0.8398,0.168-1.1768V598.96z"/>
	<path fill="#4B5666" d="M861.708,665.7012c1.7227-0.126,3.1504-0.5879,4.0332-1.5957c1.0078-1.1348,1.4277-2.7305,1.4277-7.6035
		v-17.0977h3.6973v18.5254c0,3.9492-0.6309,6.5117-2.4375,8.3594c-1.6387,1.6387-4.3262,2.3105-6.3008,2.3105L861.708,665.7012z
		 M871.2861,633.6914c0,1.2188-0.8398,2.2686-2.3535,2.2686c-1.3438,0-2.2266-1.0498-2.2266-2.2686
		c0-1.2598,0.9238-2.3105,2.3105-2.3105S871.2861,632.4316,871.2861,633.6914z"/>
	<path fill="#4B5666" d="M891.1943,654.8633c0,1.7646,0.084,3.4863,0.2949,4.873h-3.3184l-0.2949-2.5625h-0.125
		c-1.1348,1.5967-3.3184,3.0244-6.2168,3.0244c-4.1172,0-6.2168-2.8984-6.2168-5.8389c0-4.915,4.3672-7.6035,12.2227-7.5615v-0.4199
		c0-1.6387-0.4609-4.7051-4.6211-4.6631c-1.9316,0-3.9062,0.5469-5.334,1.5127l-0.8398-2.4785
		c1.6797-1.0498,4.1582-1.7646,6.7207-1.7646c6.2168,0,7.7285,4.2432,7.7285,8.2754V654.8633z M887.624,649.3604
		c-4.0312-0.084-8.6113,0.6299-8.6113,4.5791c0,2.4365,1.5977,3.5283,3.4453,3.5283c2.6875,0,4.4102-1.6797,4.998-3.4023
		c0.127-0.4199,0.168-0.8398,0.168-1.1768V649.3604z"/>
	<path fill="#4B5666" d="M901.4404,634.5322v4.8721h5.293v2.8145h-5.293v10.9648c0,2.5195,0.7148,3.9482,2.7734,3.9482
		c1.0078,0,1.5957-0.084,2.1426-0.252l0.168,2.8145c-0.7148,0.252-1.8496,0.5039-3.2773,0.5039
		c-1.7227,0-3.1094-0.5879-3.9902-1.5537c-1.0078-1.1348-1.4297-2.9414-1.4297-5.335v-11.0908h-3.1504v-2.8145h3.1504v-3.7803
		L901.4404,634.5322z"/>
	<path fill="#4B5666" d="M914.5459,648.7305h0.084c0.5039-0.7139,1.1758-1.5967,1.7637-2.3105l6.0059-7.0156h4.4121l-7.8145,8.3604
		l8.9473,11.9717h-4.5352l-6.9746-9.7461l-1.8887,2.1006v7.6455h-3.6562v-29.8252h3.6562V648.7305z"/>
	<path fill="#4B5666" d="M947.7686,654.1494c0,2.1426,0.041,3.9902,0.168,5.5869h-3.2773l-0.209-3.3184h-0.084
		c-0.9238,1.6377-3.1094,3.7803-6.7207,3.7803c-3.1934,0-7.0156-1.8057-7.0156-8.9053v-11.8887h3.6953v11.2168
		c0,3.8643,1.2188,6.5107,4.5371,6.5107c2.4785,0,4.2012-1.7227,4.873-3.4023c0.2109-0.5039,0.3359-1.1768,0.3359-1.8906v-12.4346
		h3.6973V654.1494z"/>
	<path fill="#4B5666" d="M955.3252,639.4043l3.9902,11.3848c0.6719,1.8896,1.2188,3.5703,1.6387,5.251h0.127
		c0.4609-1.6807,1.0488-3.3613,1.7207-5.251l3.9492-11.3848h3.8652l-7.9824,20.332h-3.5273l-7.7305-20.332H955.3252z"/>
	<path fill="#4B5666" d="M988.2139,654.8633c0,1.7646,0.084,3.4863,0.2949,4.873h-3.3203l-0.293-2.5625h-0.127
		c-1.1328,1.5967-3.3184,3.0244-6.2168,3.0244c-4.1172,0-6.2168-2.8984-6.2168-5.8389c0-4.915,4.3691-7.6035,12.2246-7.5615v-0.4199
		c0-1.6387-0.4629-4.7051-4.6211-4.6631c-1.9316,0-3.9062,0.5469-5.3359,1.5127l-0.8398-2.4785
		c1.6816-1.0498,4.1602-1.7646,6.7227-1.7646c6.2168,0,7.7285,4.2432,7.7285,8.2754V654.8633z M984.6436,649.3604
		c-4.0332-0.084-8.6113,0.6299-8.6113,4.5791c0,2.4365,1.5957,3.5283,3.4434,3.5283c2.6895,0,4.4121-1.6797,5-3.4023
		c0.125-0.4199,0.168-0.8398,0.168-1.1768V649.3604z"/>
	<path fill="#4B5666" d="M993.6709,655.998c1.1328,0.6719,3.0664,1.4277,4.9141,1.4277c2.6465,0,3.9062-1.3018,3.9062-3.0244
		c0-1.7646-1.0488-2.6885-3.7383-3.6963c-3.6973-1.3447-5.418-3.3193-5.418-5.7559c0-3.2764,2.6875-5.9648,7.0137-5.9648
		c2.0586,0,3.8652,0.5459,4.957,1.2607l-0.8809,2.6885c-0.7988-0.5039-2.2695-1.2188-4.1602-1.2188
		c-2.1836,0-3.3594,1.2607-3.3594,2.7725c0,1.6807,1.1758,2.4365,3.8223,3.4873c3.4863,1.3018,5.3359,3.0664,5.3359,6.0908
		c0,3.6123-2.8145,6.1328-7.5625,6.1328c-2.2266,0-4.2852-0.5879-5.7129-1.4277L993.6709,655.998z"/>
	<path fill="#4B5666" d="M1015.2588,634.5322v4.8721h5.293v2.8145h-5.293v10.9648c0,2.5195,0.7148,3.9482,2.7734,3.9482
		c1.0078,0,1.5957-0.084,2.1426-0.252l0.168,2.8145c-0.7148,0.252-1.8496,0.5039-3.2773,0.5039
		c-1.7227,0-3.1094-0.5879-3.9902-1.5537c-1.0078-1.1348-1.4297-2.9414-1.4297-5.335v-11.0908h-3.1504v-2.8145h3.1504v-3.7803
		L1015.2588,634.5322z"/>
	<path fill="#4B5666" d="M1028.8252,633.6914c0,1.2607-0.8828,2.2686-2.3516,2.2686c-1.3457,0-2.2266-1.0078-2.2266-2.2686
		c0-1.2598,0.9238-2.3105,2.3105-2.3105C1027.9014,631.3809,1028.8252,632.3896,1028.8252,633.6914z M1024.708,659.7363v-20.332
		h3.6973v20.332H1024.708z"/>
</g>
<g>
	<path fill="#4B5666" d="M124.2896,581.0225h3.6548v13.6533h0.126c0.7563-1.0928,1.5122-2.1006,2.2266-3.0254l8.6533-10.6279h4.5371
		l-10.25,12.0146l11.0479,16.2988h-4.3267l-9.2837-13.9043l-2.7305,3.1084v10.7959h-3.6548V581.0225z"/>
	<path fill="#4B5666" d="M165.3267,599.002c0,7.5195-5.251,10.7959-10.124,10.7959c-5.4609,0-9.7456-4.0322-9.7456-10.46
		c0-6.7627,4.4951-10.7539,10.082-10.7539C161.3779,588.584,165.3267,592.8271,165.3267,599.002z M149.2378,599.2119
		c0,4.4531,2.5205,7.8135,6.1333,7.8135c3.5283,0,6.1748-3.3184,6.1748-7.8975c0-3.4443-1.7222-7.7715-6.0908-7.7715
		C151.1279,591.3564,149.2378,595.3896,149.2378,599.2119z"/>
	<path fill="#4B5666" d="M173.6396,598.3301h0.084c0.5039-0.7139,1.1763-1.5967,1.7642-2.3105l6.0073-7.0156h4.4106l-7.8135,8.3604
		l8.9478,11.9717h-4.5366l-6.9736-9.7461l-1.8901,2.1006v7.6455h-3.6548v-29.8252h3.6548V598.3301z"/>
	<path fill="#4B5666" d="M191.7412,599.8418c0.084,4.999,3.2344,7.0576,6.9731,7.0576c2.6465,0,4.2847-0.4619,5.6289-1.0498
		l0.6724,2.6465c-1.3022,0.5879-3.5708,1.3018-6.8052,1.3018c-6.2593,0-9.998-4.1582-9.998-10.292
		c0-6.1328,3.6128-10.9219,9.5356-10.9219c6.6792,0,8.4019,5.7969,8.4019,9.5361c0,0.7559-0.0425,1.3018-0.1265,1.7217H191.7412z
		 M202.5791,597.1953c0.042-2.3096-0.9663-5.9648-5.125-5.9648c-3.7808,0-5.377,3.4033-5.6709,5.9648H202.5791z"/>
	<path fill="#4B5666" d="M214.8413,583.291c0,1.2607-0.8818,2.2686-2.3521,2.2686c-1.3442,0-2.2266-1.0078-2.2266-2.2686
		c0-1.2598,0.9243-2.3105,2.3105-2.3105C213.9175,580.9805,214.8413,581.9893,214.8413,583.291z M210.7246,609.3359v-20.332h3.6968
		v20.332H210.7246z"/>
	<path fill="#4B5666" d="M220.5522,579.5107h3.6968v29.8252h-3.6968V579.5107z"/>
	<path fill="#4B5666" d="M232.5225,599.8418c0.084,4.999,3.2344,7.0576,6.9731,7.0576c2.6465,0,4.2847-0.4619,5.6289-1.0498
		l0.6724,2.6465c-1.3022,0.5879-3.5708,1.3018-6.8052,1.3018c-6.2593,0-9.998-4.1582-9.998-10.292
		c0-6.1328,3.6128-10.9219,9.5356-10.9219c6.6792,0,8.4019,5.7969,8.4019,9.5361c0,0.7559-0.0425,1.3018-0.1265,1.7217H232.5225z
		 M243.3604,597.1953c0.042-2.3096-0.9663-5.9648-5.125-5.9648c-3.7808,0-5.377,3.4033-5.6709,5.9648H243.3604z"/>
	<path fill="#4B5666" d="M255.4106,615.3008c1.7222-0.126,3.1504-0.5879,4.0327-1.5957c1.0078-1.1348,1.4282-2.7305,1.4282-7.6035
		v-17.0977h3.6963v18.5254c0,3.9492-0.6299,6.5117-2.436,8.3594c-1.6387,1.6387-4.3271,2.3105-6.3013,2.3105L255.4106,615.3008z
		 M264.9883,583.291c0,1.2188-0.8403,2.2686-2.3525,2.2686c-1.3442,0-2.2266-1.0498-2.2266-2.2686
		c0-1.2598,0.9243-2.3105,2.3105-2.3105S264.9883,582.0312,264.9883,583.291z"/>
	<path fill="#4B5666" d="M284.8979,604.4629c0,1.7646,0.084,3.4863,0.2939,4.873h-3.3184l-0.2944-2.5625h-0.126
		c-1.1338,1.5967-3.3184,3.0244-6.2168,3.0244c-4.1167,0-6.2173-2.8984-6.2173-5.8389c0-4.915,4.3687-7.6035,12.2241-7.5615v-0.4199
		c0-1.6387-0.4619-4.7051-4.6206-4.6631c-1.9326,0-3.9067,0.5469-5.335,1.5127l-0.8403-2.4785
		c1.6802-1.0498,4.1587-1.7646,6.7212-1.7646c6.2173,0,7.7295,4.2432,7.7295,8.2754V604.4629z M281.3271,598.96
		c-4.0327-0.084-8.6113,0.6299-8.6113,4.5791c0,2.4365,1.5962,3.5283,3.4443,3.5283c2.6885,0,4.4111-1.6797,4.999-3.4023
		c0.126-0.4199,0.168-0.8398,0.168-1.1768V598.96z"/>
	<path fill="#4B5666" d="M117.1113,649.4023c0,7.5195-5.251,10.7959-10.124,10.7959c-5.4609,0-9.7456-4.0322-9.7456-10.46
		c0-6.7627,4.4951-10.7539,10.082-10.7539C113.1626,638.9844,117.1113,643.2275,117.1113,649.4023z M101.0225,649.6123
		c0,4.4531,2.5205,7.8135,6.1333,7.8135c3.5283,0,6.1748-3.3184,6.1748-7.8975c0-3.4443-1.7222-7.7715-6.0908-7.7715
		C102.9126,641.7568,101.0225,645.79,101.0225,649.6123z"/>
	<path fill="#4B5666" d="M121.7695,646.042c0-2.6045-0.084-4.7051-0.168-6.6377h3.2769l0.21,3.4873h0.084
		c1.4702-2.4785,3.9067-3.9072,7.2251-3.9072c4.957,0,8.6538,4.1592,8.6538,10.292c0,7.3096-4.4951,10.9219-9.2837,10.9219
		c-2.6885,0-5.041-1.1758-6.2593-3.1924h-0.084v11.0479h-3.6548V646.042z M125.4243,651.4609c0,0.5459,0.042,1.0498,0.168,1.5117
		c0.6724,2.5625,2.8984,4.3271,5.5449,4.3271c3.9067,0,6.1753-3.1924,6.1753-7.8555c0-4.0322-2.1426-7.5195-6.0493-7.5195
		c-2.5205,0-4.9146,1.7646-5.5869,4.5371c-0.126,0.4619-0.252,1.0078-0.252,1.4707V651.4609z"/>
	<path fill="#4B5666" d="M149.7837,633.6914c0,1.2607-0.8818,2.2686-2.3521,2.2686c-1.3442,0-2.2266-1.0078-2.2266-2.2686
		c0-1.2598,0.9243-2.3105,2.3105-2.3105C148.8599,631.3809,149.7837,632.3896,149.7837,633.6914z M145.667,659.7363v-20.332h3.6968
		v20.332H145.667z"/>
	<path fill="#4B5666" d="M164.3984,644.9072c0-2.1416-0.042-3.8223-0.168-5.5029h3.2769l0.21,3.3613h0.084
		c1.0083-1.8906,3.3604-3.7812,6.7212-3.7812c2.8145,0,7.1831,1.6807,7.1831,8.6543v12.0977h-3.6968v-11.7197
		c0-3.2773-1.2178-6.0078-4.7046-6.0078c-2.3945,0-4.2847,1.7227-4.957,3.7812c-0.168,0.4619-0.252,1.0918-0.252,1.7217v12.2246
		h-3.6968V644.9072z"/>
	<path fill="#4B5666" d="M206.1074,649.4023c0,7.5195-5.251,10.7959-10.124,10.7959c-5.4609,0-9.7456-4.0322-9.7456-10.46
		c0-6.7627,4.4951-10.7539,10.082-10.7539C202.1587,638.9844,206.1074,643.2275,206.1074,649.4023z M190.0186,649.6123
		c0,4.4531,2.5205,7.8135,6.1333,7.8135c3.5283,0,6.1748-3.3184,6.1748-7.8975c0-3.4443-1.7222-7.7715-6.0908-7.7715
		C191.9087,641.7568,190.0186,645.79,190.0186,649.6123z"/>
	<path fill="#4B5666" d="M210.7661,646.042c0-2.6045-0.084-4.7051-0.168-6.6377h3.2769l0.21,3.4873h0.084
		c1.4702-2.4785,3.9067-3.9072,7.2251-3.9072c4.957,0,8.6538,4.1592,8.6538,10.292c0,7.3096-4.4951,10.9219-9.2837,10.9219
		c-2.6885,0-5.041-1.1758-6.2593-3.1924h-0.084v11.0479h-3.6548V646.042z M214.4209,651.4609c0,0.5459,0.042,1.0498,0.168,1.5117
		c0.6724,2.5625,2.8984,4.3271,5.5449,4.3271c3.9067,0,6.1753-3.1924,6.1753-7.8555c0-4.0322-2.1426-7.5195-6.0493-7.5195
		c-2.5205,0-4.9146,1.7646-5.5869,4.5371c-0.126,0.4619-0.252,1.0078-0.252,1.4707V651.4609z"/>
	<path fill="#4B5666" d="M236.7217,650.2422c0.084,4.999,3.2344,7.0576,6.9731,7.0576c2.6465,0,4.2847-0.4619,5.6289-1.0498
		l0.6724,2.6465c-1.3022,0.5879-3.5708,1.3018-6.8052,1.3018c-6.2593,0-9.998-4.1582-9.998-10.292
		c0-6.1328,3.6128-10.9219,9.5356-10.9219c6.6792,0,8.4019,5.7969,8.4019,9.5361c0,0.7559-0.0425,1.3018-0.1265,1.7217H236.7217z
		 M247.5596,647.5957c0.042-2.3096-0.9663-5.9648-5.125-5.9648c-3.7808,0-5.377,3.4033-5.6709,5.9648H247.5596z"/>
	<path fill="#4B5666" d="M269.9878,654.8633c0,1.7646,0.084,3.4863,0.2939,4.873h-3.3184l-0.2944-2.5625h-0.126
		c-1.1338,1.5967-3.3184,3.0244-6.2168,3.0244c-4.1167,0-6.2173-2.8984-6.2173-5.8389c0-4.915,4.3687-7.6035,12.2241-7.5615v-0.4199
		c0-1.6387-0.4619-4.7051-4.6206-4.6631c-1.9326,0-3.9067,0.5469-5.335,1.5127l-0.8403-2.4785
		c1.6802-1.0498,4.1587-1.7646,6.7212-1.7646c6.2173,0,7.7295,4.2432,7.7295,8.2754V654.8633z M266.417,649.3604
		c-4.0327-0.084-8.6113,0.6299-8.6113,4.5791c0,2.4365,1.5962,3.5283,3.4443,3.5283c2.6885,0,4.4111-1.6797,4.999-3.4023
		c0.126-0.4199,0.168-0.8398,0.168-1.1768V649.3604z"/>
	<path fill="#4B5666" d="M275.4448,655.998c1.1343,0.6719,3.0664,1.4277,4.915,1.4277c2.6465,0,3.9062-1.3018,3.9062-3.0244
		c0-1.7646-1.0498-2.6885-3.7383-3.6963c-3.6968-1.3447-5.4189-3.3193-5.4189-5.7559c0-3.2764,2.6885-5.9648,7.0151-5.9648
		c2.0581,0,3.8647,0.5459,4.957,1.2607l-0.8823,2.6885c-0.7983-0.5039-2.2686-1.2188-4.1587-1.2188
		c-2.1846,0-3.3608,1.2607-3.3608,2.7725c0,1.6807,1.1763,2.4365,3.8228,3.4873c3.4868,1.3018,5.335,3.0664,5.335,6.0908
		c0,3.6123-2.8145,6.1328-7.5615,6.1328c-2.2261,0-4.2847-0.5879-5.7129-1.4277L275.4448,655.998z"/>
	<path fill="#4B5666" d="M297.0337,634.5322v4.8721h5.293v2.8145h-5.293v10.9648c0,2.5195,0.7139,3.9482,2.7725,3.9482
		c1.0078,0,1.5962-0.084,2.1421-0.252l0.168,2.8145c-0.7139,0.252-1.8481,0.5039-3.2764,0.5039
		c-1.7222,0-3.1084-0.5879-3.9907-1.5537c-1.0083-1.1348-1.4282-2.9414-1.4282-5.335v-11.0908h-3.1504v-2.8145h3.1504v-3.7803
		L297.0337,634.5322z"/>
	<path fill="#4B5666" d="M310.5991,633.6914c0,1.2607-0.8818,2.2686-2.3521,2.2686c-1.3442,0-2.2266-1.0078-2.2266-2.2686
		c0-1.2598,0.9243-2.3105,2.3105-2.3105C309.6753,631.3809,310.5991,632.3896,310.5991,633.6914z M306.4824,659.7363v-20.332h3.6968
		v20.332H306.4824z"/>
</g>
<path fill="#4B5666" d="M601.2812,88.3311c-9.9111,0-22.7549,5.8418-25.2822,15.6758l-0.002-0.002v0.002
	c-2.5273-9.834-15.3711-15.6758-25.2803-15.6758c-19.543,0-35.3936,15.1689-35.3936,35.3936
	c0,23.7969,14.0713,38.3584,29.4102,50.1758c9.2012,7.0898,29.6221,23.1357,31.2383,23.1357c0.0098,0,0.0176-0.002,0.0254-0.002
	s0.0176,0.002,0.0254,0.002c1.6172,0,22.0391-16.0459,31.2402-23.1357c15.3379-11.8174,29.4121-26.3789,29.4121-50.1758
	C636.6748,103.5,620.8242,88.3311,601.2812,88.3311z M536.9883,104.3398c-6.1104,4.5195-9.6162,11.585-9.6162,19.3848
	c0,1.2871-1.041,2.3301-2.3281,2.3301s-2.3301-1.043-2.3301-2.3301c0-9.293,4.1924-17.7227,11.5039-23.1299
	c1.0332-0.7656,2.4902-0.5469,3.2568,0.4873C538.2402,102.1162,538.0205,103.5762,536.9883,104.3398z"/>
<path fill-rule="evenodd" clip-rule="evenodd" fill="#4B5666" d="M244.1167,518.4824c0,14.9453-8.2681,27.9512-20.4751,34.7139
	c0,0-1.4834,0.8496-3.417,1.1836c-1.8804,0.3242-3.2686,0.3857-3.2686,0.3857h-12.5103h-12.5083c0,0-1.3901-0.0615-3.271-0.3857
	c-1.9331-0.334-3.4165-1.1836-3.4165-1.1836c-12.207-6.7627-20.4751-19.7686-20.4751-34.7139
	c0-16.502,10.0776-30.6465,24.4126-36.625v-22.5342c-1.9492,0-3.5293-1.5801-3.5293-3.5273v-6.207
	c0-1.9492,1.5801-3.5283,3.5293-3.5283h30.5166c1.9492,0,3.5298,1.5791,3.5298,3.5283v6.207c0,1.9473-1.5806,3.5273-3.5298,3.5273
	v22.5342C234.0391,487.8359,244.1167,501.9805,244.1167,518.4824z M214.6543,448.458h-20.4155
	c-1.2866,0-2.3296,1.0439-2.3296,2.3301c0,1.2871,1.043,2.3291,2.3296,2.3291h20.4155c1.2866,0,2.3306-1.042,2.3306-2.3291
	C216.9849,449.502,215.9409,448.458,214.6543,448.458z M216.9092,488.5605c-2.7051-1.1279-4.4683-3.7725-4.4683-6.7031v-22.5342
	h-15.9902v22.5342c0,2.9307-1.7622,5.5752-4.4678,6.7031c-12.1147,5.0537-19.9453,16.7998-19.9453,29.9219
	c0,11.7744,6.4092,22.6406,16.7266,28.3584c0.1572,0.0791,0.6587,0.2988,1.1396,0.3828c1.0723,0.1846,1.9355,0.2559,2.2476,0.2783
	h12.2944h12.2974c0.2939-0.0205,1.1636-0.0918,2.2471-0.2793c0.481-0.083,0.979-0.3027,1.1372-0.3818
	c10.3169-5.7178,16.7266-16.584,16.7266-28.3584C236.854,505.3604,229.0254,493.6143,216.9092,488.5605z M232.1948,518.4824
	c0,10.0059-5.4043,19.2441-14.124,24.1709c-0.6709,0.1104-1.2261,0.167-1.5117,0.1895h-24.2319
	c-0.2642-0.0215-0.8242-0.0771-1.5029-0.1895c-8.7207-4.9258-14.1289-14.165-14.1289-24.1709c0-3.5225,0.6699-6.8936,1.873-9.998
	h51.7563C231.5283,511.5889,232.1948,514.96,232.1948,518.4824z M196.0107,534.2666c-5.9766-3.7871-9.6782-10.4834-9.6782-17.5488
	c0-1.2871-1.0425-2.3291-2.3296-2.3291c-1.2856,0-2.3301,1.042-2.3301,2.3291c0,8.7676,4.6533,17.0723,12.1426,21.6699
	l0.4751,0.2764l0.6968,0.0752c0.0674,0.0059,0.1348,0.0088,0.2026,0.0088c1.1914,0,2.1646-0.9199,2.2695-2.1318
	C197.5488,535.5859,196.9238,534.6523,196.0107,534.2666z"/>
<path fill="#4B5666" d="M618.3379,831.3232h-84.6797c-1.9414,0-3.5186,1.5752-3.5186,3.5166l0.0039,32.6309
	c0,0.0029,0.002,0.0078,0.002,0.0117c0,9.8008,0,19.6309,0,22.917c0,7.2842,2.458,17.7812,11.8701,28.3242
	c13.4854,15.1035,33.9863,21.3076,33.9863,21.3076s20.501-6.2041,33.9863-21.3076c9.4121-10.543,11.8701-21.04,11.8701-28.3242
	c0-3.2861,0-13.1162,0-22.917c0-0.0039,0.002-0.0088,0.002-0.0117l-0.0049-32.6309
	C621.8555,832.8984,620.2793,831.3232,618.3379,831.3232z M551.249,914.3662c-0.4443,0.3955-0.999,0.5898-1.5498,0.5898
	c-0.6416,0-1.2793-0.2627-1.7393-0.7783c-9.2373-10.3447-10.6162-20.126-10.6162-25.0361c0-1.2861,1.042-2.3301,2.3281-2.3301
	c1.2871,0,2.3311,1.0439,2.3311,2.3301c0,4.2461,1.2246,12.7412,9.4326,21.9346C552.292,912.0352,552.207,913.5078,551.249,914.3662
	z M614.5967,867.3564c-0.001,0.041-0.001,0.084-0.001,0.126v22.917c0,4.5781-1.3037,13.7168-10.0244,23.4863
	c-9.5215,10.665-23.334,16.5176-28.5693,18.4619l-0.0039-93.7617h38.5947L614.5967,867.3564z"/>
<path fill-rule="evenodd" clip-rule="evenodd" fill="#4B5666" d="M1011.5254,487.6035c-0.1602,0-0.3301-0.0117-0.5098-0.0381
	l-6.7881-0.9492l-0.001,49.5664c0,1.9404-1.5312,3.9492-3.4014,4.4658l-49.8701,13.7334c-0.9346,0.2568-2.1689,0.3877-3.4014,0.3877
	c-1.2344,0-2.4658-0.1309-3.4023-0.3877l-49.8672-13.7334c-1.873-0.5166-3.4023-2.5254-3.4023-4.4658l0.001-49.5664l-6.791,0.9492
	c-0.1787,0.0264-0.3477,0.0381-0.5078,0.0381c-1.5664,0-2.2471-1.1543-1.5117-2.7529l9.543-20.7812
	c0.8105-1.7627,3.002-3.6299,4.875-4.1445l49.8682-13.7363c0.3125-0.0859,0.6025-0.1279,0.8672-0.1279
	c0.1182,0,0.2236,0.0176,0.3291,0.0342c0.1064-0.0166,0.2109-0.0342,0.3281-0.0342c0.2656,0,0.5557,0.042,0.8672,0.1279
	l49.8691,13.7363c1.8721,0.5146,4.0654,2.3818,4.876,4.1445l9.543,20.7812
	C1013.7734,486.4492,1013.0928,487.6035,1011.5254,487.6035z M898.4482,530.5283c0,1.2861,1.043,2.3281,2.3291,2.3281
	c1.2871,0,2.3291-1.042,2.3291-2.3281v-22.2285c0-1.2871-1.042-2.3291-2.3291-2.3291c-1.2861,0-2.3291,1.042-2.3291,2.3291V530.5283
	z M897.7256,464.416c-0.5508,0.1533-1.6387,1.0801-1.8779,1.5977l-7.4609,16.2461l46.6182-6.5381
	c0.2393-0.0791,0.6523-0.4346,0.7666-0.6572l7.0557-23.0732L897.7256,464.416z M947.9473,478.5869l-0.3926-1.2852v68.8408
	c0.8145,0,1.3506-0.0938,1.4736-0.126l47.9365-13.2021v-39.8848l-38.5527-5.4092
	C953.7344,486.8652,949.332,483.1074,947.9473,478.5869z M999.2617,466.0137c-0.2393-0.5176-1.3281-1.4443-1.8789-1.5977
	l-45.1016-12.4248l7.0566,23.0732c0.1133,0.2227,0.5273,0.5781,0.7666,0.6572l46.6172,6.5381L999.2617,466.0137z"/>
</svg>
