<?xml version="1.0" encoding="utf-8"?>
<!DOCTYPE svg PUBLIC "-//W3C//DTD SVG 1.1//EN" "http://www.w3.org/Graphics/SVG/1.1/DTD/svg11.dtd">
<svg version="1.1" id="Layer_1" xmlns="http://www.w3.org/2000/svg" xmlns:xlink="http://www.w3.org/1999/xlink" x="0px" y="0px"
	 width="1152px" height="1152.001px" viewBox="0 0 1152 1152.001" enable-background="new 0 0 1152 1152.001" xml:space="preserve">
<circle fill="#4B5666" cx="576" cy="576" r="576"/>
<g>
	<path fill="#FBD35C" d="M188.2964,188.29c214.2964-214.2959,561.1108-214.293,775.4106,0.0078L576.0049,575.999L188.2964,188.29z"
		/>
</g>
<g>
	<path fill="#A4D970" d="M963.71,188.293c214.2979,214.2979,214.293,561.1104-0.0068,775.4092L576.002,576.001L963.71,188.293z"/>
</g>
<g>
	<path fill="#9EBEED" d="M963.7031,963.709c-214.2959,214.2988-561.1104,214.293-775.4102-0.0068L575.9951,576.001L963.7031,963.709
		z"/>
</g>
<g>
	<path fill="#FA7977" d="M188.2896,963.707c-214.2959-214.2979-214.2925-561.1104,0.0068-775.4092L575.999,575.999L188.2896,963.707
		z"/>
</g>
<circle fill="#4B5666" cx="576" cy="576" r="194.6777"/>
<g>
	<path fill="#FFFFFF" d="M466.7227,560.9141l-15.0771-39.3945h-0.2432c0.2842,3.1211,0.4258,6.8301,0.4258,11.127v28.2676h-4.7725
		v-44.4395h7.7822l14.0732,36.6582h0.2432l14.1953-36.6582h7.7207v44.4395h-5.167v-28.6328c0-3.2832,0.1416-6.8496,0.4258-10.6992
		h-0.2432l-15.1992,39.332H466.7227z"/>
	<path fill="#FFFFFF" d="M541.833,538.6328c0,7.1133-1.7988,12.707-5.3955,16.7793c-3.5977,4.0742-8.5977,6.1113-15.001,6.1113
		c-6.5459,0-11.5967-2.002-15.1533-6.0039c-3.5557-4.002-5.334-9.6523-5.334-16.9473c0-7.2344,1.7832-12.8418,5.3496-16.8242
		s8.6328-5.9727,15.1982-5.9727c6.3838,0,11.3682,2.0273,14.9551,6.0801S541.833,531.5,541.833,538.6328z M506.4209,538.6328
		c0,6.0195,1.2812,10.584,3.8447,13.6953c2.5635,3.1094,6.2871,4.666,11.1709,4.666c4.9238,0,8.6426-1.5508,11.1553-4.6523
		c2.5127-3.0996,3.7695-7.6699,3.7695-13.709c0-5.9766-1.252-10.5117-3.7539-13.6016c-2.5029-3.0898-6.2061-4.6348-11.1104-4.6348
		c-4.9238,0-8.668,1.5547-11.2314,4.666C507.7021,528.1719,506.4209,532.6973,506.4209,538.6328z"/>
	<path fill="#FFFFFF" d="M587.2148,538.2695c0,7.3359-1.9912,12.9434-5.9736,16.8242c-3.9814,3.8809-9.7109,5.8203-17.1885,5.8203
		h-12.3115v-44.4395h13.6182c6.9102,0,12.2803,1.9141,16.1104,5.7441S587.2148,531.3984,587.2148,538.2695z M581.7432,538.4512
		c0-5.7949-1.4541-10.1621-4.3623-13.1016c-2.9082-2.9375-7.2295-4.4062-12.9639-4.4062h-7.5078v35.502h6.292
		c6.1602,0,10.791-1.5137,13.8916-4.543S581.7432,544.3887,581.7432,538.4512z"/>
	<path fill="#FFFFFF" d="M621.8975,560.9141H597.124v-44.4395h24.7734v4.5898H602.292v14.3164h18.4199v4.5605H602.292v16.3535
		h19.6055V560.9141z"/>
	<path fill="#FFFFFF" d="M636.9141,542.4336v18.4805h-5.168v-44.4395h12.1895c5.4512,0,9.4785,1.043,12.083,3.1309
		c2.6035,2.0879,3.9053,5.2285,3.9053,9.4238c0,5.877-2.9785,9.8477-8.9365,11.9141l12.0674,19.9707h-6.1094l-10.7607-18.4805
		H636.9141z M636.9141,537.9961h7.082c3.6475,0,6.3232-0.7246,8.0254-2.1738s2.5527-3.623,2.5527-6.5195
		c0-2.9395-0.8662-5.0566-2.5986-6.3535s-4.5137-1.9453-8.3438-1.9453h-6.7178V537.9961z"/>
	<path fill="#FFFFFF" d="M704.9424,560.9141h-5.8975l-24.2871-37.2969h-0.2432c0.3242,4.377,0.4863,8.3906,0.4863,12.0371v25.2598
		h-4.7725v-44.4395h5.8369l24.2256,37.1445h0.2432c-0.041-0.5469-0.1318-2.3047-0.2734-5.2734s-0.1924-5.0918-0.1514-6.3691v-25.502
		h4.833V560.9141z"/>
	<path fill="#FFFFFF" d="M525.54,635.6172l-5.5322-14.1348h-17.8125l-5.4707,14.1348h-5.2285l17.5693-44.6211h4.3467
		l17.4785,44.6211H525.54z M518.3975,616.832l-5.168-13.7695c-0.668-1.7422-1.3574-3.8809-2.0664-6.4141
		c-0.4463,1.9453-1.085,4.084-1.915,6.4141l-5.2285,13.7695H518.3975z"/>
	<path fill="#FFFFFF" d="M556.5459,612.334h15.1064v21.6113c-2.3506,0.75-4.7412,1.3184-7.1729,1.7031
		c-2.4326,0.3848-5.249,0.5781-8.4512,0.5781c-6.7275,0-11.9658-2.002-15.7148-6.0039s-5.623-9.6113-5.623-16.8242
		c0-4.6211,0.9268-8.668,2.7812-12.1445c1.8545-3.4746,4.5234-6.1289,8.0098-7.9629c3.4844-1.834,7.5684-2.752,12.249-2.752
		c4.7422,0,9.1602,0.8711,13.2539,2.6152l-2.0068,4.5586c-4.0117-1.7031-7.8721-2.5527-11.5811-2.5527
		c-5.4102,0-9.6357,1.6113-12.6758,4.832c-3.0391,3.2227-4.5586,7.6914-4.5586,13.4062c0,5.998,1.4629,10.5469,4.3916,13.6465
		c2.9287,3.1016,7.2295,4.6523,12.9033,4.6523c3.0801,0,6.0898-0.3555,9.0283-1.0645v-13.6797h-9.9395V612.334z"/>
	<path fill="#FFFFFF" d="M582.3213,635.6172v-44.4395h5.168v44.4395H582.3213z"/>
	<path fill="#FFFFFF" d="M599.6777,635.6172v-44.4395h5.168v39.7598h19.6055v4.6797H599.6777z"/>
	<path fill="#FFFFFF" d="M656.7627,635.6172h-24.7734v-44.4395h24.7734v4.5898h-19.6055v14.3164h18.4199v4.5605h-18.4199v16.3535
		h19.6055V635.6172z"/>
</g>
<g>
	<path fill="#4B5666" d="M560.4746,218.0752c-0.1504,0.3965-0.3281,0.6973-0.5332,0.9023
		c-0.1504,0.1504-0.3828,0.2734-0.6973,0.3691l-4.4297,1.3535c0.2734-0.4922,0.5127-0.8311,0.7178-1.0146
		c0.2051-0.1855,0.5742-0.3525,1.1074-0.5029c-0.3828-0.2461-0.6602-0.4746-0.8311-0.6865s-0.2559-0.4209-0.2559-0.626
		c0-0.1777,0.0547-0.3799,0.1641-0.6045c0.1094-0.2266,0.2529-0.4482,0.4307-0.667c0.8887-1.1895,1.7705-1.7842,2.6455-1.7842
		c0.2598,0,0.4678,0.0859,0.625,0.2559c0.1572,0.1719,0.2363,0.3936,0.2363,0.667c0,0.2188-0.0312,0.4072-0.0918,0.5635
		c-0.0625,0.1582-0.1885,0.3936-0.3799,0.708c-0.6836-0.3418-1.1484-0.5127-1.3945-0.5127s-0.4922,0.0615-0.7383,0.1846
		c-0.1641,0.082-0.3145,0.1914-0.4512,0.3281c0,0.1777,0.3281,0.4512,0.9844,0.8203s1.1279,0.5537,1.415,0.5537
		C559.1758,218.3828,559.668,218.2803,560.4746,218.0752z M560.5156,239.6289c0,1.2168-0.1436,2.3281-0.4307,3.332
		c-0.2871,1.0059-0.8408,2.3555-1.6611,4.0508l-1.2305-0.4922c0.3281-1.75,0.4922-3.1719,0.4922-4.2656
		c0-0.834-0.0684-2.0576-0.2051-3.6709s-0.3076-3.21-0.5127-4.7881c-0.2051-1.5801-0.54-3.4629-1.0049-5.6504
		c-0.1641-0.7656-0.2461-1.292-0.2461-1.5791c0-0.4238,0.2119-1.1445,0.6357-2.1631s1.0186-2.2529,1.7842-3.7021l1.2305,7.2598
		c0.4512,2.7617,0.7656,5.1543,0.9434,7.1777C560.4473,236.6963,560.5156,238.1934,560.5156,239.6289z"/>
	<path fill="#4B5666" d="M570.4414,218.6904c0,0.6289-0.3418,1.2373-1.0254,1.8252c-1.2578,0.5059-3.2539,1.3125-5.9883,2.4199
		c0-0.6152,0.2803-1.1895,0.8408-1.7227C565.4443,220.7344,567.502,219.8936,570.4414,218.6904z"/>
	<path fill="#4B5666" d="M584.4688,255.3379l-7.752,4.7988l-2.0918,0.041c-3.8145,0-6.6953-0.8174-8.6445-2.4512
		c-1.9473-1.6338-2.9219-4.0293-2.9219-7.1875c0-2.0371,0.2666-3.835,0.7998-5.3936c0.6016-1.7637,1.5654-3.3018,2.8916-4.6143
		c-0.6836-0.7793-1.2852-1.6816-1.8047-2.707s-0.7793-1.8594-0.7793-2.502c0-0.7793,0.2939-1.9414,0.8818-3.4863
		s1.1689-2.6387,1.7432-3.2812c0.4648-0.5879,1.165-1.0566,2.1016-1.4043c0.9365-0.3496,1.9453-0.5234,3.0254-0.5234
		c1.5039,0,2.8916,0.3457,4.1631,1.0352c1.2715,0.6914,2.3447,1.6855,3.2197,2.9844c-0.4102,0-0.7998-0.0068-1.1689-0.0205
		s-0.7588-0.0342-1.1689-0.0615c-2.8301,0-5.1172,0.2256-6.8594,0.6768c-1.7441,0.4512-2.6152,1.0459-2.6152,1.7842
		c0,0.5742,0.3008,1.1484,0.9023,1.7227c0.7109,0.6836,1.8594,1.3672,3.4453,2.0508c1.8867-0.8203,3.3359-1.3906,4.3477-1.7129
		c1.0117-0.3203,2.584-0.7207,4.7168-1.1992c-0.3828,1.1895-0.6768,2.0576-0.8818,2.6045
		c-0.2461,0.6289-0.6084,1.4424-1.0869,2.4404c-4.1562,0.9844-7.4512,2.3584-9.8848,4.1221s-3.6504,3.6436-3.6504,5.6396
		c0,1.873,1.0459,3.3086,3.1377,4.3066c2.3926,1.1484,6.1455,1.7227,11.2588,1.7227h0.4922c0.8066,0,1.3975-0.0098,1.7734-0.0312
		c0.376-0.0195,1.0566-0.0781,2.041-0.1738L584.4688,255.3379z"/>
	<path fill="#4B5666" d="M593.1641,249.8828c0,0.6562-0.3555,1.2852-1.0664,1.8867c-1.2305,0.4785-3.2129,1.2646-5.9473,2.3584
		c0-0.5879,0.3008-1.1553,0.9023-1.7021C588.1875,251.9609,590.2246,251.1133,593.1641,249.8828z"/>
	<path fill="#4B5666" d="M599.1113,245.5967h-9.29c-0.9023,0-1.5928-0.1914-2.0713-0.5742
		c-0.5879-0.4648-0.8818-1.2236-0.8818-2.2764c0-0.6016,0.0303-1.251,0.0928-1.9482c0.0605-0.6973,0.1533-1.4014,0.2764-2.1123
		l0.7793-0.041c0.1094,0.4785,0.3516,0.8271,0.7275,1.0459s0.8311,0.3281,1.3643,0.3281h7.0547
		c-0.3145-2.0098-0.8613-3.6162-1.6406-4.8193c-0.6426-0.998-1.5381-1.8594-2.6865-2.584l1.4766-6.3984
		c1.7773,1.3262,3.0352,3.0352,3.7734,5.127c0.6836,1.9277,1.0254,4.4844,1.0254,7.6699V245.5967z"/>
	<path fill="#4B5666" d="M607.9912,218.0547c0,1.0254-0.1777,1.8662-0.5332,2.5225c-0.3965,0.7383-0.9434,1.1074-1.6406,1.1074
		c-0.2461,0-0.4717-0.041-0.6768-0.123s-0.4375-0.2119-0.6973-0.3896c-0.2871,0.4922-0.5537,0.8613-0.7998,1.1074
		c-0.4375,0.4375-0.8955,0.6562-1.374,0.6562c-0.5742,0-1.0049-0.1953-1.292-0.584c-0.2871-0.3906-0.4307-0.9268-0.4307-1.6104
		c0-0.3555,0.0479-0.7041,0.1436-1.0459s0.2324-0.7314,0.4102-1.1689l0.4307-0.1846c0,0.1094-0.0137,0.2871-0.041,0.5332
		s-0.041,0.4512-0.041,0.6152c0,0.3008,0.0615,0.5713,0.1846,0.8105s0.3076,0.3584,0.5537,0.3584
		c0.5879,0,1.0596-0.3828,1.415-1.1484c0.1641-0.3555,0.3691-1.0459,0.6152-2.0713l0.4307-0.123
		c0.1094,0.6699,0.1982,1.0801,0.2666,1.2305c0.1641,0.4238,0.4375,0.6357,0.8203,0.6357c0.5195,0,0.9297-0.3418,1.2305-1.0254
		c0.2461-0.5469,0.3691-1.1143,0.3691-1.7021l0.4307-0.123c0.0547,0.2598,0.1055,0.5508,0.1543,0.8711
		C607.9668,217.5254,607.9912,217.8086,607.9912,218.0547z"/>
	<path fill="#4B5666" d="M470.415,268.4756c-0.1504,0.3965-0.3281,0.6973-0.5332,0.9023c-0.1504,0.1504-0.3828,0.2734-0.6973,0.3691
		l-4.4297,1.3535c0.2734-0.4922,0.5127-0.8311,0.7178-1.0146c0.2051-0.1855,0.5742-0.3525,1.1074-0.5029
		c-0.3828-0.2461-0.6602-0.4746-0.8311-0.6865s-0.2559-0.4209-0.2559-0.626c0-0.1777,0.0547-0.3799,0.1641-0.6045
		c0.1094-0.2266,0.2529-0.4482,0.4307-0.667c0.8887-1.1895,1.7705-1.7842,2.6455-1.7842c0.2598,0,0.4678,0.0859,0.625,0.2559
		c0.1572,0.1719,0.2363,0.3936,0.2363,0.667c0,0.2188-0.0312,0.4072-0.0918,0.5635c-0.0625,0.1582-0.1885,0.3936-0.3799,0.708
		c-0.6836-0.3418-1.1484-0.5127-1.3945-0.5127s-0.4922,0.0615-0.7383,0.1846c-0.1641,0.082-0.3145,0.1914-0.4512,0.3281
		c0,0.1777,0.3281,0.4512,0.9844,0.8203s1.1279,0.5537,1.415,0.5537C469.1162,268.7832,469.6084,268.6807,470.415,268.4756z
		 M470.4561,290.0293c0,1.2168-0.1436,2.3281-0.4307,3.332c-0.2871,1.0059-0.8408,2.3555-1.6611,4.0508l-1.2305-0.4922
		c0.3281-1.75,0.4922-3.1719,0.4922-4.2656c0-0.834-0.0684-2.0576-0.2051-3.6709s-0.3076-3.21-0.5127-4.7881
		c-0.2051-1.5801-0.54-3.4629-1.0049-5.6504c-0.1641-0.7656-0.2461-1.292-0.2461-1.5791c0-0.4238,0.2119-1.1445,0.6357-2.1631
		s1.0186-2.2529,1.7842-3.7021l1.2305,7.2598c0.4512,2.7617,0.7656,5.1543,0.9434,7.1777
		C470.3877,287.0967,470.4561,288.5938,470.4561,290.0293z"/>
	<path fill="#4B5666" d="M494.6553,294.9922c0,1.8867-0.1846,3.4014-0.5537,4.543s-0.9736,2.0605-1.8154,2.7578
		c-0.8398,0.6973-2.0703,1.2676-3.6914,1.7129c-1.6191,0.4434-3.291,0.666-5.0137,0.666c-3.3223,0-5.8828-0.6055-7.6797-1.8145
		c-1.7988-1.2109-2.6973-2.9297-2.6973-5.1582c0-1.9004,0.2871-3.6367,0.8613-5.209c0.6289-1.7363,1.8594-3.9922,3.6914-6.7676
		l1.2305,0.8613c-1.3535,2.3105-2.2393,3.9854-2.6562,5.0244s-0.625,2.1123-0.625,3.2197c0,1.4355,0.7695,2.6084,2.3066,3.5176
		c1.5391,0.9092,3.5586,1.3633,6.0605,1.3633c2.4609,0,4.5322-0.4717,6.2139-1.415s2.5225-2.0986,2.5225-3.4658
		c0-0.8477-0.1475-1.6885-0.4414-2.5225s-0.9258-2.167-1.8965-3.999l1.8047-5.5371c0.957,1.7363,1.5449,2.9326,1.7637,3.5889
		c0.4102,1.1895,0.6152,2.7002,0.6152,4.5322V294.9922z M487.9082,278.8525l-2.4609,4.5938l-4.7988-2.502l2.4814-4.6348
		L487.9082,278.8525z"/>
	<path fill="#4B5666" d="M502.2432,290.0293c0,1.2168-0.1436,2.3281-0.4307,3.332c-0.2871,1.0059-0.8408,2.3555-1.6611,4.0508
		l-1.2305-0.4922c0.3281-1.75,0.4922-3.1719,0.4922-4.2656c0-0.834-0.0684-2.0576-0.2051-3.6709s-0.3076-3.21-0.5127-4.7881
		c-0.2051-1.5801-0.54-3.4629-1.0049-5.6504c-0.1641-0.7656-0.2461-1.292-0.2461-1.5791c0-0.4238,0.2119-1.1445,0.6357-2.1631
		s1.0186-2.2529,1.7842-3.7021l1.2305,7.2598c0.4512,2.7617,0.7656,5.1543,0.9434,7.1777
		C502.1748,287.0967,502.2432,288.5938,502.2432,290.0293z"/>
	<path fill="#4B5666" d="M541.5361,295.9766c-1.5039,0-2.5771-0.0684-3.2197-0.2051s-1.8389-0.5195-3.5889-1.1484
		c-0.793,0.5605-1.501,0.9297-2.123,1.1074s-1.5547,0.2666-2.7988,0.2666h-3.3428c0,3.1719-1.0117,5.4551-3.0352,6.8496
		c-1.7637,1.2168-4.4229,1.8252-7.9775,1.8252c-3.3223,0-5.8828-0.6055-7.6797-1.8145c-1.7988-1.2109-2.6973-2.9297-2.6973-5.1582
		c0-1.9004,0.2871-3.6367,0.8613-5.209c0.6289-1.7363,1.8594-3.9922,3.6914-6.7676l1.2305,0.8613
		c-1.3535,2.3105-2.2393,3.9854-2.6562,5.0244s-0.625,2.1123-0.625,3.2197c0,1.4355,0.7695,2.6084,2.3066,3.5176
		c1.5391,0.9092,3.5586,1.3633,6.0605,1.3633c2.4609,0,4.5322-0.4717,6.2139-1.415s2.5225-2.0986,2.5225-3.4658
		c0-0.8477-0.1475-1.6885-0.4414-2.5225s-0.9258-2.167-1.8965-3.999l1.8047-5.5371c0.9707,1.6406,1.6133,2.9941,1.9277,4.0605
		c0.2734,0.9297,0.4102,2.126,0.4102,3.5889h1.8867c2.0645,0,3.5029-0.2422,4.3164-0.7275s1.2207-1.3574,1.2207-2.6152
		c0-0.5469,0.0508-0.9463,0.1543-1.1992c0.1016-0.2529,0.3447-0.5166,0.7275-0.79l0.9639-0.6768
		c0.0273,0.2598,0.0479,0.6123,0.0615,1.0566s0.0205,0.7344,0.0205,0.8711c0,0.752-0.1094,1.75-0.3281,2.9941
		c0.6289,0.2051,1.2617,0.3936,1.8965,0.5645c0.6367,0.1709,1.2344,0.2969,1.7949,0.3789c0-0.4922-0.1709-1.0938-0.5127-1.8047
		s-0.5127-1.1758-0.5127-1.3945c0-0.1641,0.0234-0.3213,0.0723-0.4717c0.0469-0.1504,0.1602-0.3486,0.3379-0.5947l1.9277-2.748
		c0.3691,0.8613,0.6318,1.6445,0.7891,2.3477c0.1572,0.7051,0.2363,1.583,0.2363,2.6357V295.9766z"/>
	<path fill="#4B5666" d="M549.124,290.0293c0,1.2168-0.1436,2.3281-0.4307,3.332c-0.2871,1.0059-0.8408,2.3555-1.6611,4.0508
		l-1.2305-0.4922c0.3281-1.75,0.4922-3.1719,0.4922-4.2656c0-0.834-0.0684-2.0576-0.2051-3.6709s-0.3076-3.21-0.5127-4.7881
		c-0.2051-1.5801-0.54-3.4629-1.0049-5.6504c-0.1641-0.7656-0.2461-1.292-0.2461-1.5791c0-0.4238,0.2119-1.1445,0.6357-2.1631
		s1.0186-2.2529,1.7842-3.7021l1.2305,7.2598c0.4512,2.7617,0.7656,5.1543,0.9434,7.1777
		C549.0557,287.0967,549.124,288.5938,549.124,290.0293z"/>
	<path fill="#4B5666" d="M559.0908,265.9941c0,0.6289-0.3486,1.2373-1.0459,1.8252c-1.2441,0.5059-3.2334,1.3057-5.9678,2.3994
		c0-0.5879,0.3008-1.1553,0.9023-1.7021C554.1143,268.0381,556.1514,267.1973,559.0908,265.9941z M559.0908,269.0703
		c0,0.6562-0.3418,1.2783-1.0254,1.8662c-1.2578,0.5059-3.2539,1.3057-5.9883,2.3994c0-0.5879,0.3008-1.1553,0.9023-1.7021
		C554.1143,271.1553,556.1514,270.3008,559.0908,269.0703z"/>
	<path fill="#4B5666" d="M580.4805,296.4688c0,0.834-0.4785,1.9375-1.4355,3.3125c-0.957,1.373-2.0781,2.5664-3.3633,3.5781
		c-1.4219,1.1211-2.6387,1.6816-3.6504,1.6816c-1.2031,0-2.4951-0.3418-3.876-1.0254c-1.2031-0.5879-3.083-1.7637-5.6396-3.5273
		l0.8613-1.2715c1.2305,0.8203,2.2217,1.374,2.9736,1.6611s1.5654,0.4307,2.4404,0.4307c0.9434,0,1.8867-0.2666,2.8301-0.7998
		s2.2285-1.5244,3.8555-2.9736c2.2695-2.0234,3.4043-3.582,3.4043-4.6758c0-0.5469-0.2188-1.2646-0.6562-2.1533
		c-0.4922-1.0117-1.0938-1.8525-1.8047-2.5225l1.1484-5.5371c0.9297,0.957,1.6475,2.0576,2.1533,3.3018s0.7588,2.6592,0.7588,4.2451
		V296.4688z"/>
	<path fill="#4B5666" d="M588.0684,290.0293c0,1.2168-0.1436,2.3281-0.4307,3.332c-0.2871,1.0059-0.8408,2.3555-1.6611,4.0508
		l-1.2305-0.4922c0.3281-1.75,0.4922-3.1719,0.4922-4.2656c0-0.834-0.0684-2.0576-0.2051-3.6709s-0.3076-3.21-0.5127-4.7881
		c-0.2051-1.5801-0.54-3.4629-1.0049-5.6504c-0.1641-0.7656-0.2461-1.292-0.2461-1.5791c0-0.4238,0.2119-1.1445,0.6357-2.1631
		s1.0186-2.2529,1.7842-3.7021l1.2305,7.2598c0.4512,2.7617,0.7656,5.1543,0.9434,7.1777
		C588,287.0967,588.0684,288.5938,588.0684,290.0293z"/>
	<path fill="#4B5666" d="M613.7236,286.0098c0,0.752-0.0752,1.374-0.2256,1.8662s-0.4717,1.1416-0.9639,1.9482
		c-0.3691-0.9707-0.6807-1.6025-0.9326-1.8965c-0.2539-0.2939-0.6191-0.4414-1.0977-0.4414c-0.7383,0-1.7539,0.4199-3.0449,1.2617
		c-1.293,0.8398-1.9385,1.5479-1.9385,2.1221c0,0.3008,0.2598,0.5127,0.7793,0.6357c0.3691,0.082,0.9434,0.123,1.7227,0.123
		c0.2051,0,0.4062,0,0.6045,0s0.4004-0.0068,0.6055-0.0205c1.4902,0,2.4814,0.1504,2.9736,0.4512
		c0.4238,0.2598,0.6357,0.7656,0.6357,1.5176c0,1.4766-0.2734,2.8916-0.8203,4.2451c-0.6836,1.709-1.6748,2.9258-2.9736,3.6504
		c-1.627,0.916-3.3193,1.6543-5.0752,2.2148c-1.7578,0.5605-3.3945,0.8408-4.9121,0.8408c-4.252,0-6.3779-1.9072-6.3779-5.7217
		c0-1.9277,0.2393-3.5889,0.7178-4.9834c0.5332-1.5586,1.6611-3.6709,3.3838-6.3369l0.9434,0.6152
		c-1.0117,1.709-1.7705,3.2305-2.2764,4.5625c-0.5059,1.334-0.7588,2.499-0.7588,3.4971c0,2.584,1.4561,3.876,4.3682,3.876
		c1.0938,0,2.1328-0.0986,3.1172-0.2969s1.9824-0.4756,2.9941-0.8311c0.6562-0.2324,1.4082-0.5332,2.2559-0.9023
		c1.3535-0.6016,2.0713-0.9229,2.1533-0.9639c0.6152-0.3281,0.9229-0.6221,0.9229-0.8818c0-0.1367-0.332-0.2217-0.9941-0.2568
		c-0.6641-0.0332-1.1318-0.0508-1.4053-0.0508c-2.1055,0-3.5137-0.3008-4.2246-0.9023c-0.5742-0.4922-0.8613-1.4014-0.8613-2.7275
		c0-0.6289,0.2012-1.4219,0.6045-2.3789s0.9336-1.9072,1.5898-2.8506c0.998-1.4355,1.9961-2.5225,2.9941-3.2607
		s1.9756-1.1074,2.9326-1.1074c0.793,0,1.4219,0.3076,1.8867,0.9229S613.7236,284.9844,613.7236,286.0098z M599.04,282.3184
		c-0.123,0.4375-0.2871,0.7588-0.4922,0.9639c-0.1504,0.1504-0.3828,0.2734-0.6973,0.3691l-4.4297,1.3535
		c0.2734-0.4922,0.5127-0.8311,0.7178-1.0146c0.2051-0.1855,0.5605-0.373,1.0664-0.5645c-0.3828-0.2461-0.6602-0.4746-0.8301-0.6875
		c-0.1719-0.2109-0.2568-0.4199-0.2568-0.625c0-0.1777,0.0547-0.3789,0.1641-0.6055c0.1094-0.2246,0.2529-0.4473,0.4307-0.666
		c0.8887-1.1895,1.7705-1.7842,2.6455-1.7842c0.2598,0,0.4678,0.0859,0.626,0.2568c0.1562,0.1709,0.2354,0.3926,0.2354,0.666
		c0,0.2188-0.0303,0.4072-0.0928,0.5645c-0.0605,0.1572-0.1875,0.3926-0.3789,0.707c-0.6836-0.3418-1.1484-0.5127-1.3945-0.5127
		s-0.4922,0.0615-0.7383,0.1846c-0.1641,0.082-0.3145,0.1914-0.4512,0.3281c0,0.1777,0.3281,0.4512,0.9844,0.8203
		s1.1279,0.5537,1.415,0.5537C597.7412,282.626,598.2334,282.5234,599.04,282.3184z"/>
	<path fill="#4B5666" d="M639.1328,305.7383l-7.752,4.7988l-2.0918,0.041c-3.8145,0-6.6953-0.8174-8.6445-2.4512
		c-1.9473-1.6338-2.9219-4.0293-2.9219-7.1875c0-2.0371,0.2666-3.835,0.7998-5.3936c0.6016-1.7637,1.5654-3.3018,2.8916-4.6143
		c-0.6836-0.7793-1.2852-1.6816-1.8047-2.707s-0.7793-1.8594-0.7793-2.502c0-0.7793,0.2939-1.9414,0.8818-3.4863
		s1.1689-2.6387,1.7432-3.2812c0.4648-0.5879,1.165-1.0566,2.1016-1.4043c0.9365-0.3496,1.9453-0.5234,3.0254-0.5234
		c1.5039,0,2.8916,0.3457,4.1631,1.0352c1.2715,0.6914,2.3447,1.6855,3.2197,2.9844c-0.4102,0-0.7998-0.0068-1.1689-0.0205
		s-0.7588-0.0342-1.1689-0.0615c-2.8301,0-5.1172,0.2256-6.8594,0.6768c-1.7441,0.4512-2.6152,1.0459-2.6152,1.7842
		c0,0.5742,0.3008,1.1484,0.9023,1.7227c0.7109,0.6836,1.8594,1.3672,3.4453,2.0508c1.8867-0.8203,3.3359-1.3906,4.3477-1.7129
		c1.0117-0.3203,2.584-0.7207,4.7168-1.1992c-0.3828,1.1895-0.6768,2.0576-0.8818,2.6045
		c-0.2461,0.6289-0.6084,1.4424-1.0869,2.4404c-4.1562,0.9844-7.4512,2.3584-9.8848,4.1221s-3.6504,3.6436-3.6504,5.6396
		c0,1.873,1.0459,3.3086,3.1377,4.3066c2.3926,1.1484,6.1455,1.7227,11.2588,1.7227h0.4922c0.8066,0,1.3975-0.0098,1.7734-0.0312
		c0.376-0.0195,1.0566-0.0781,2.041-0.1738L639.1328,305.7383z"/>
	<path fill="#4B5666" d="M663.5166,286.0098c0,0.752-0.0752,1.374-0.2256,1.8662s-0.4717,1.1416-0.9639,1.9482
		c-0.3691-0.9707-0.6807-1.6025-0.9326-1.8965c-0.2539-0.2939-0.6191-0.4414-1.0977-0.4414c-0.7383,0-1.7539,0.4199-3.0449,1.2617
		c-1.293,0.8398-1.9385,1.5479-1.9385,2.1221c0,0.3008,0.2598,0.5127,0.7793,0.6357c0.3691,0.082,0.9434,0.123,1.7227,0.123
		c0.2051,0,0.4062,0,0.6045,0s0.4004-0.0068,0.6055-0.0205c1.4902,0,2.4814,0.1504,2.9736,0.4512
		c0.4238,0.2598,0.6357,0.7656,0.6357,1.5176c0,1.4766-0.2734,2.8916-0.8203,4.2451c-0.6836,1.709-1.6748,2.9258-2.9736,3.6504
		c-1.627,0.916-3.3193,1.6543-5.0752,2.2148c-1.7578,0.5605-3.3945,0.8408-4.9121,0.8408c-4.252,0-6.3779-1.9072-6.3779-5.7217
		c0-1.9277,0.2393-3.5889,0.7178-4.9834c0.5332-1.5586,1.6611-3.6709,3.3838-6.3369l0.9434,0.6152
		c-1.0117,1.709-1.7705,3.2305-2.2764,4.5625c-0.5059,1.334-0.7588,2.499-0.7588,3.4971c0,2.584,1.4561,3.876,4.3682,3.876
		c1.0938,0,2.1328-0.0986,3.1172-0.2969s1.9824-0.4756,2.9941-0.8311c0.6562-0.2324,1.4082-0.5332,2.2559-0.9023
		c1.3535-0.6016,2.0713-0.9229,2.1533-0.9639c0.6152-0.3281,0.9229-0.6221,0.9229-0.8818c0-0.1367-0.332-0.2217-0.9941-0.2568
		c-0.6641-0.0332-1.1318-0.0508-1.4053-0.0508c-2.1055,0-3.5137-0.3008-4.2246-0.9023c-0.5742-0.4922-0.8613-1.4014-0.8613-2.7275
		c0-0.6289,0.2012-1.4219,0.6045-2.3789s0.9336-1.9072,1.5898-2.8506c0.998-1.4355,1.9961-2.5225,2.9941-3.2607
		s1.9756-1.1074,2.9326-1.1074c0.793,0,1.4219,0.3076,1.8867,0.9229S663.5166,284.9844,663.5166,286.0098z M658.082,306.2715
		l-1.5176,2.7891l-3.1582-1.5996l-1.5176,2.707l-3.1582-1.6816l1.5586-2.8301l3.0762,1.5996l1.5176-2.625L658.082,306.2715z"/>
	<path fill="#4B5666" d="M689.1719,294.9922c0,1.8867-0.1846,3.4014-0.5537,4.543s-0.9736,2.0605-1.8154,2.7578
		c-0.8398,0.6973-2.0703,1.2676-3.6914,1.7129c-1.6191,0.4434-3.291,0.666-5.0137,0.666c-3.3223,0-5.8828-0.6055-7.6797-1.8145
		c-1.7988-1.2109-2.6973-2.9297-2.6973-5.1582c0-1.9004,0.2871-3.6367,0.8613-5.209c0.6289-1.7363,1.8594-3.9922,3.6914-6.7676
		l1.2305,0.8613c-1.3535,2.3105-2.2393,3.9854-2.6562,5.0244s-0.625,2.1123-0.625,3.2197c0,1.4355,0.7695,2.6084,2.3066,3.5176
		c1.5391,0.9092,3.5586,1.3633,6.0605,1.3633c2.4609,0,4.5322-0.4717,6.2139-1.415s2.5225-2.0986,2.5225-3.4658
		c0-0.8477-0.1475-1.6885-0.4414-2.5225s-0.9258-2.167-1.8965-3.999l1.8047-5.5371c0.957,1.7363,1.5449,2.9326,1.7637,3.5889
		c0.4102,1.1895,0.6152,2.7002,0.6152,4.5322V294.9922z M682.4248,278.8525l-2.4609,4.5938l-4.7988-2.502l2.4814-4.6348
		L682.4248,278.8525z"/>
</g>
<g>
	<path fill="#4B5666" d="M498.1416,995.7471c-0.123,0.4375-0.2871,0.7588-0.4922,0.9639c-0.1504,0.1504-0.3828,0.2734-0.6973,0.3691
		l-4.4297,1.3535c0.2734-0.4922,0.5127-0.8311,0.7178-1.0146c0.2051-0.1855,0.5605-0.373,1.0664-0.5645
		c-0.3828-0.2461-0.6602-0.4756-0.8311-0.6875s-0.2559-0.4199-0.2559-0.625c0-0.1777,0.0547-0.3789,0.1641-0.6055
		c0.1094-0.2246,0.2529-0.4473,0.4307-0.666c0.8887-1.1895,1.7705-1.7842,2.6455-1.7842c0.2598,0,0.4678,0.0859,0.625,0.2568
		s0.2363,0.3926,0.2363,0.666c0,0.2188-0.0312,0.4072-0.0918,0.5645c-0.0625,0.1572-0.1885,0.3926-0.3799,0.707
		c-0.6836-0.3418-1.1484-0.5127-1.3945-0.5127s-0.4922,0.0615-0.7383,0.1846c-0.1641,0.082-0.3145,0.1914-0.4512,0.3281
		c0,0.1777,0.3281,0.4512,0.9844,0.8203s1.1279,0.5537,1.415,0.5537C496.8428,996.0547,497.335,995.9521,498.1416,995.7471z
		 M498.1826,982.7451c0,1.2168-0.1436,2.3281-0.4307,3.332c-0.2871,1.0059-0.8408,2.3555-1.6611,4.0508l-1.2305-0.4922
		c0.3281-1.75,0.4922-3.1719,0.4922-4.2656c0-0.834-0.0684-2.0576-0.2051-3.6709s-0.3076-3.21-0.5127-4.7881
		c-0.2051-1.5801-0.54-3.4629-1.0049-5.6504c-0.1641-0.7656-0.2461-1.292-0.2461-1.5791c0-0.4238,0.2119-1.1445,0.6357-2.1631
		s1.0186-2.2529,1.7842-3.7021l1.2305,7.2598c0.4512,2.7617,0.7656,5.1543,0.9434,7.1777
		C498.1143,979.8125,498.1826,981.3096,498.1826,982.7451z"/>
	<path fill="#4B5666" d="M523.3252,998.3721l-7.916,4.8809c-4.8672,0-8.4492-0.9297-10.7461-2.7891
		c-2.3516-1.9141-3.5273-4.9219-3.5273-9.0234c0-2.8301,0.5605-5.3281,1.6816-7.4961c1.1211-2.166,2.8984-4.1113,5.332-5.834
		c-1.627,0-3.0625,0.2393-4.3066,0.7178c-0.4512,0.1777-1.4766,0.6357-3.0762,1.374c0.6562-5.0859,3.0762-7.6289,7.2598-7.6289
		c0.6289,0,1.6611,0.0723,3.0967,0.2148c1.4355,0.1445,2.7002,0.25,3.7939,0.3184c2.0781,0.1367,4.1289,0.2051,6.1523,0.2051
		l-1.2305,5.0449c-5.2363,0.6562-9.2324,1.918-11.9863,3.7832c-2.7559,1.8672-4.1328,4.2559-4.1328,7.168
		c0,2.7344,1.1309,4.8262,3.3945,6.2754c2.2617,1.4492,5.5195,2.1738,9.7715,2.1738c0.1094,0,1.1416-0.0615,3.0967-0.1846
		c1.0801-0.0684,2.0576-0.1025,2.9326-0.1025L523.3252,998.3721z M516.8037,987.4619l-2.4609,4.7168l-4.7988-2.666l2.543-4.6758
		L516.8037,987.4619z"/>
	<path fill="#4B5666" d="M546.417,998.4541l-7.752,4.7988l-2.0918,0.041c-3.8145,0-6.6953-0.8174-8.6445-2.4512
		c-1.9473-1.6338-2.9219-4.0293-2.9219-7.1875c0-2.0371,0.2666-3.835,0.7998-5.3936c0.6016-1.7637,1.5654-3.3018,2.8916-4.6143
		c-0.6836-0.7793-1.2852-1.6816-1.8047-2.707s-0.7793-1.8594-0.7793-2.502c0-0.7793,0.2939-1.9414,0.8818-3.4863
		s1.1689-2.6387,1.7432-3.2812c0.4648-0.5879,1.165-1.0566,2.1016-1.4043c0.9365-0.3496,1.9453-0.5234,3.0254-0.5234
		c1.5039,0,2.8916,0.3457,4.1631,1.0352c1.2715,0.6914,2.3447,1.6855,3.2197,2.9844c-0.4102,0-0.7998-0.0068-1.1689-0.0205
		s-0.7588-0.0342-1.1689-0.0615c-2.8301,0-5.1172,0.2256-6.8594,0.6768c-1.7441,0.4512-2.6152,1.0459-2.6152,1.7842
		c0,0.5742,0.3008,1.1484,0.9023,1.7227c0.7109,0.6836,1.8594,1.3672,3.4453,2.0508c1.8867-0.8203,3.3359-1.3906,4.3477-1.7129
		c1.0117-0.3203,2.584-0.7207,4.7168-1.1992c-0.3828,1.1895-0.6768,2.0576-0.8818,2.6045
		c-0.2461,0.6289-0.6084,1.4424-1.0869,2.4404c-4.1562,0.9844-7.4512,2.3584-9.8848,4.1221s-3.6504,3.6436-3.6504,5.6396
		c0,1.873,1.0459,3.3086,3.1377,4.3066c2.3926,1.1484,6.1455,1.7227,11.2588,1.7227h0.4922c0.8066,0,1.3975-0.0098,1.7734-0.0312
		c0.376-0.0195,1.0566-0.0781,2.041-0.1738L546.417,998.4541z"/>
	<path fill="#4B5666" d="M565.6123,988.2002c0,2.1055-1.0938,3.9717-3.2812,5.5986s-4.6826,2.4404-7.4854,2.4404
		c-2.3379,0-4.167-0.5918-5.4854-1.7734c-1.3203-1.1826-1.9795-2.834-1.9795-4.9531c0-1.9824,0.2461-3.7119,0.7383-5.1885
		c0.5605-1.668,1.6543-3.7119,3.2812-6.1318l1.2715,0.8613c-1.0664,1.5996-1.8252,2.9873-2.2764,4.1631
		s-0.6768,2.3447-0.6768,3.5068c0,1.2441,0.4619,2.2051,1.3838,2.8809c0.9238,0.6777,2.2256,1.0156,3.9072,1.0156
		c2.4062,0,4.3613-0.4648,5.8652-1.3945s2.2559-2.1465,2.2559-3.6504c0-0.2598,0-0.4648,0-0.6152s0-0.2666,0-0.3486
		c0-0.5332-0.0449-1.1211-0.1338-1.7637s-0.3174-1.9688-0.6865-3.9785c-0.5879-3.2402-1.1758-6.4873-1.7637-9.7412l-1.0254-0.7383
		c0-1.3398,0.6289-3.3906,1.8867-6.1523l0.9434,0.4512c-0.0547,0.1914-0.082,0.4102-0.082,0.6562
		c0,0.5469,0.2803,0.9912,0.8408,1.333c0.834,0.4648,1.6201,0.9092,2.3584,1.333c-0.1504,1.1758-0.3008,2.0166-0.4512,2.5225
		s-0.4648,1.2646-0.9434,2.2764l-0.6152-0.2461c0,0.2051,0.1943,1.3711,0.585,3.4961c0.3887,2.127,0.7207,3.9619,0.9941,5.5068
		c0.3828,2.2148,0.5742,3.5615,0.5742,4.04V988.2002z"/>
	<path fill="#4B5666" d="M584.8691,982.7451c0,1.2168-0.1436,2.3281-0.4307,3.332c-0.2871,1.0059-0.8408,2.3555-1.6611,4.0508
		l-1.2305-0.4922c0.3281-1.75,0.4922-3.1719,0.4922-4.2656c0-0.834-0.0684-2.0576-0.2051-3.6709s-0.3076-3.21-0.5127-4.7881
		c-0.2051-1.5801-0.54-3.4629-1.0049-5.6504c-0.1641-0.7656-0.2461-1.292-0.2461-1.5791c0-0.4238,0.2119-1.1445,0.6357-2.1631
		s1.0186-2.2529,1.7842-3.7021l1.2305,7.2598c0.4512,2.7617,0.7656,5.1543,0.9434,7.1777
		C584.8008,979.8125,584.8691,981.3096,584.8691,982.7451z"/>
	<path fill="#4B5666" d="M605.3359,988.2002c0,2.1055-1.0938,3.9717-3.2812,5.5986s-4.6826,2.4404-7.4854,2.4404
		c-2.3379,0-4.167-0.5918-5.4854-1.7734c-1.3203-1.1826-1.9795-2.834-1.9795-4.9531c0-1.9824,0.2461-3.7119,0.7383-5.1885
		c0.5605-1.668,1.6543-3.7119,3.2812-6.1318l1.2715,0.8613c-1.0664,1.5996-1.8252,2.9873-2.2764,4.1631
		s-0.6768,2.3447-0.6768,3.5068c0,1.2441,0.4619,2.2051,1.3838,2.8809c0.9238,0.6777,2.2256,1.0156,3.9072,1.0156
		c2.4062,0,4.3613-0.4648,5.8652-1.3945s2.2559-2.1465,2.2559-3.6504c0-0.2598,0-0.4648,0-0.6152s0-0.2666,0-0.3486
		c0-0.5332-0.0449-1.1211-0.1338-1.7637s-0.3174-1.9688-0.6865-3.9785c-0.5879-3.2402-1.1758-6.4873-1.7637-9.7412l-1.0254-0.7383
		c0-1.3398,0.6289-3.3906,1.8867-6.1523l0.9434,0.4512c-0.0547,0.1914-0.082,0.4102-0.082,0.6562
		c0,0.5469,0.2803,0.9912,0.8408,1.333c0.834,0.4648,1.6201,0.9092,2.3584,1.333c-0.1504,1.1758-0.3008,2.0166-0.4512,2.5225
		s-0.4648,1.2646-0.9434,2.2764l-0.6152-0.2461c0,0.2051,0.1943,1.3711,0.585,3.4961c0.3887,2.127,0.7207,3.9619,0.9941,5.5068
		c0.3828,2.2148,0.5742,3.5615,0.5742,4.04V988.2002z"/>
	<path fill="#4B5666" d="M612.9238,961.1914c-0.1504,0.3965-0.3281,0.6973-0.5332,0.9023
		c-0.1504,0.1504-0.3828,0.2734-0.6973,0.3691l-4.4297,1.3535c0.2734-0.4922,0.5127-0.8311,0.7178-1.0146
		c0.2051-0.1855,0.5742-0.3525,1.1074-0.5029c-0.3828-0.2461-0.6602-0.4746-0.8311-0.6865s-0.2559-0.4209-0.2559-0.626
		c0-0.1777,0.0547-0.3799,0.1641-0.6045c0.1094-0.2266,0.2529-0.4482,0.4307-0.667c0.8887-1.1895,1.7705-1.7842,2.6455-1.7842
		c0.2598,0,0.4678,0.0859,0.625,0.2559c0.1572,0.1719,0.2363,0.3936,0.2363,0.667c0,0.2188-0.0312,0.4072-0.0918,0.5635
		c-0.0625,0.1582-0.1885,0.3936-0.3799,0.708c-0.6836-0.3418-1.1484-0.5127-1.3945-0.5127s-0.4922,0.0615-0.7383,0.1846
		c-0.1641,0.082-0.3145,0.1914-0.4512,0.3281c0,0.1777,0.3281,0.4512,0.9844,0.8203s1.1279,0.5537,1.415,0.5537
		C611.625,961.499,612.1172,961.3965,612.9238,961.1914z M612.9648,982.7451c0,1.2168-0.1436,2.3281-0.4307,3.332
		c-0.2871,1.0059-0.8408,2.3555-1.6611,4.0508l-1.2305-0.4922c0.3281-1.75,0.4922-3.1719,0.4922-4.2656
		c0-0.834-0.0684-2.0576-0.2051-3.6709s-0.3076-3.21-0.5127-4.7881c-0.2051-1.5801-0.54-3.4629-1.0049-5.6504
		c-0.1641-0.7656-0.2461-1.292-0.2461-1.5791c0-0.4238,0.2119-1.1445,0.6357-2.1631s1.0186-2.2529,1.7842-3.7021l1.2305,7.2598
		c0.4512,2.7617,0.7656,5.1543,0.9434,7.1777C612.8965,979.8125,612.9648,981.3096,612.9648,982.7451z"/>
	<path fill="#4B5666" d="M629.5762,988.7129l-2.666-0.0205c-2.502,0-4.7168,0.2119-6.6445,0.6357s-2.8916,0.9092-2.8916,1.4561
		c0.5332,1.6406,1.0078,3.1787,1.4248,4.6143s0.626,2.7959,0.626,4.0811c0,0.9297-0.0928,1.6816-0.2764,2.2559
		c-0.1855,0.5742-0.5303,1.2031-1.0361,1.8867c-0.1504-1.8047-0.4854-3.6982-1.0049-5.6807
		c-0.1777-0.6973-0.6221-2.167-1.333-4.4092c-0.4375-1.3809-0.6562-2.2969-0.6562-2.748c0-0.6426,0.1777-1.4424,0.5332-2.3994
		c0.2871-0.7793,0.6152-1.4697,0.9844-2.0713c0.4375-0.6836,1.2002-1.2236,2.2861-1.6201c1.0879-0.3965,2.7451-0.7178,4.9736-0.9639
		c-1.0938-1.5312-2.0508-2.2969-2.8711-2.2969c-0.3555,0-0.6904,0.1367-1.0049,0.4102s-0.8271,0.875-1.5381,1.8047l-0.9844-0.4922
		c0.6016-2.0918,1.3428-3.7012,2.2256-4.8301c0.8809-1.127,1.8486-1.6914,2.9014-1.6914c0.916,0,1.9346,0.5264,3.0557,1.5791
		s2.4199,2.6934,3.8965,4.9219V988.7129z"/>
	<path fill="#4B5666" d="M637.1641,982.7451c0,1.2168-0.1436,2.3281-0.4307,3.332c-0.2871,1.0059-0.8408,2.3555-1.6611,4.0508
		l-1.2305-0.4922c0.3281-1.75,0.4922-3.1719,0.4922-4.2656c0-0.834-0.0684-2.0576-0.2051-3.6709s-0.3076-3.21-0.5127-4.7881
		c-0.2051-1.5801-0.54-3.4629-1.0049-5.6504c-0.1641-0.7656-0.2461-1.292-0.2461-1.5791c0-0.4238,0.2119-1.1445,0.6357-2.1631
		s1.0186-2.2529,1.7842-3.7021l1.2305,7.2598c0.4512,2.7617,0.7656,5.1543,0.9434,7.1777
		C637.0957,979.8125,637.1641,981.3096,637.1641,982.7451z"/>
	<path fill="#4B5666" d="M661.4043,987.708c0,1.8867-0.1846,3.4014-0.5537,4.543s-0.9736,2.0605-1.8154,2.7578
		c-0.8398,0.6973-2.0703,1.2676-3.6914,1.7129c-1.6191,0.4434-3.291,0.666-5.0137,0.666c-3.3223,0-5.8828-0.6055-7.6797-1.8145
		c-1.7988-1.2109-2.6973-2.9297-2.6973-5.1582c0-1.9004,0.2871-3.6367,0.8613-5.209c0.6289-1.7363,1.8594-3.9922,3.6914-6.7676
		l1.2305,0.8613c-1.3535,2.3105-2.2393,3.9854-2.6562,5.0244s-0.625,2.1123-0.625,3.2197c0,1.4355,0.7695,2.6084,2.3066,3.5176
		c1.5391,0.9092,3.5586,1.3633,6.0605,1.3633c2.4609,0,4.5322-0.4717,6.2139-1.415s2.5225-2.0986,2.5225-3.4658
		c0-0.8477-0.1475-1.6885-0.4414-2.5225s-0.9258-2.167-1.8965-3.999l1.8047-5.5371c0.957,1.7363,1.5449,2.9326,1.7637,3.5889
		c0.4102,1.1895,0.6152,2.7002,0.6152,4.5322V987.708z M654.6572,971.5684l-2.4609,4.5938l-4.7988-2.502l2.4814-4.6348
		L654.6572,971.5684z"/>
	<path fill="#4B5666" d="M508.5596,1039.0928c-1.5039,0-2.5771-0.0684-3.2197-0.2051s-1.8389-0.5195-3.5889-1.1484
		c-0.793,0.5605-1.501,0.9297-2.123,1.1074s-1.5547,0.2666-2.7988,0.2666h-3.3428c0,3.1719-1.0117,5.4551-3.0352,6.8496
		c-1.7637,1.2168-4.4229,1.8252-7.9775,1.8252c-3.3223,0-5.8828-0.6055-7.6797-1.8145c-1.7988-1.2109-2.6973-2.9297-2.6973-5.1582
		c0-1.9004,0.2871-3.6367,0.8613-5.209c0.6289-1.7363,1.8594-3.9922,3.6914-6.7676l1.2305,0.8613
		c-1.3535,2.3105-2.2393,3.9854-2.6562,5.0244s-0.625,2.1123-0.625,3.2197c0,1.4355,0.7695,2.6084,2.3066,3.5176
		c1.5391,0.9092,3.5586,1.3633,6.0605,1.3633c2.4609,0,4.5322-0.4717,6.2139-1.415s2.5225-2.0986,2.5225-3.4658
		c0-0.8477-0.1475-1.6885-0.4414-2.5225s-0.9258-2.167-1.8965-3.999l1.8047-5.5371c0.9707,1.6406,1.6133,2.9941,1.9277,4.0605
		c0.2734,0.9297,0.4102,2.126,0.4102,3.5889h1.8867c2.0645,0,3.5029-0.2422,4.3164-0.7275s1.2207-1.3574,1.2207-2.6152
		c0-0.5469,0.0508-0.9463,0.1543-1.1992c0.1016-0.2529,0.3447-0.5166,0.7275-0.79l0.9639-0.6768
		c0.0273,0.2598,0.0479,0.6123,0.0615,1.0566s0.0205,0.7344,0.0205,0.8711c0,0.752-0.1094,1.75-0.3281,2.9941
		c0.6289,0.2051,1.2617,0.3936,1.8965,0.5645c0.6367,0.1709,1.2344,0.2969,1.7949,0.3789c0-0.4922-0.1709-1.0938-0.5127-1.8047
		s-0.5127-1.1758-0.5127-1.3945c0-0.1641,0.0234-0.3213,0.0723-0.4717c0.0469-0.1504,0.1602-0.3486,0.3379-0.5947l1.9277-2.748
		c0.3691,0.8613,0.6318,1.6445,0.7891,2.3477c0.1572,0.7051,0.2363,1.583,0.2363,2.6357V1039.0928z M506.8779,1019.4463
		l-2.2559,4.1836l-2.9121-1.6406l-1.6406,3.2402l-3.8145-2.0918l2.1328-3.9785l3.0352,1.5176l1.7227-3.3223L506.8779,1019.4463z
		 M502.8994,1014.5859l-2.0508,4.2656l-3.8555-2.0508l2.0918-4.1836L502.8994,1014.5859z"/>
	<path fill="#4B5666" d="M526.7295,1039.585c0,0.834-0.4785,1.9375-1.4355,3.3125c-0.957,1.373-2.0781,2.5664-3.3633,3.5781
		c-1.4219,1.1211-2.6387,1.6816-3.6504,1.6816c-1.2031,0-2.4951-0.3418-3.876-1.0254c-1.2031-0.5879-3.083-1.7637-5.6396-3.5273
		l0.8613-1.2715c1.2305,0.8203,2.2217,1.374,2.9736,1.6611s1.5654,0.4307,2.4404,0.4307c0.9434,0,1.8867-0.2666,2.8301-0.7998
		s2.2285-1.5244,3.8555-2.9736c2.2695-2.0234,3.4043-3.582,3.4043-4.6758c0-0.5469-0.2188-1.2646-0.6562-2.1533
		c-0.4922-1.0117-1.0938-1.8525-1.8047-2.5225l1.1484-5.5371c0.9297,0.957,1.6475,2.0576,2.1533,3.3018s0.7588,2.6592,0.7588,4.2451
		V1039.585z"/>
	<path fill="#4B5666" d="M548.7139,1039.1133h-23.4199v-5.5781h2.7275c0.3281,0,1.251-0.5674,2.7686-1.7021
		c0.5059-0.3691,1.2373-0.9434,2.1943-1.7227c0-1.6816-0.0615-3.1035-0.1846-4.2656s-0.3213-2.3721-0.5947-3.6299
		c-0.0684-0.3008-0.4375-1.7842-1.1074-4.4502l-1.1895-0.7383c0.3145-1.4355,0.5742-2.4639,0.7793-3.0859
		s0.6016-1.6035,1.1895-2.9434l0.9434,0.3691c0,0.082-0.0273,0.2598-0.082,0.5332c0,0.4785,0.6768,1.0459,2.0303,1.7021
		c0.4512,0.2188,1.1279,0.499,2.0303,0.8408c-0.1367,1.0664-0.3555,2.0645-0.6562,2.9941
		c-0.1504,0.4648-0.4238,1.1895-0.8203,2.1738l-0.7383-0.2461c0.4238,1.9414,0.708,3.373,0.8506,4.2969
		c0.1445,0.9219,0.2158,1.7461,0.2158,2.4707v0.2256c0,0.3965-0.0107,0.708-0.0303,0.9326
		c-0.0215,0.2266-0.0791,0.5781-0.1748,1.0566c0.7109-0.5195,1.4287-1.0391,2.1533-1.5586
		c1.1074-0.7793,2.0986-1.4082,2.9736-1.8867c1.1484-0.6289,2.0234-0.9434,2.625-0.9434c1.6133,0,2.9053,0.417,3.876,1.251
		c1.0938,0.9434,1.6406,2.3037,1.6406,4.0811V1039.1133z M545.8633,1031.4434c0-0.4785-0.5059-0.9258-1.5176-1.3428
		s-1.9004-0.626-2.666-0.626c-0.9023,0-1.917,0.291-3.0459,0.8721c-1.127,0.5811-2.7646,1.6436-4.9111,3.1885h5.373
		C543.6074,1033.5352,545.8633,1032.8379,545.8633,1031.4434z"/>
	<path fill="#4B5666" d="M567.9707,1011.5918c-0.1504,0.3965-0.3281,0.6973-0.5332,0.9023
		c-0.1504,0.1504-0.3828,0.2734-0.6973,0.3691l-4.4297,1.3535c0.2734-0.4922,0.5127-0.8311,0.7178-1.0146
		c0.2051-0.1855,0.5742-0.3525,1.1074-0.5029c-0.3828-0.2461-0.6602-0.4746-0.8311-0.6865s-0.2559-0.4209-0.2559-0.626
		c0-0.1777,0.0547-0.3799,0.1641-0.6045c0.1094-0.2266,0.2529-0.4482,0.4307-0.667c0.8887-1.1895,1.7705-1.7842,2.6455-1.7842
		c0.2598,0,0.4678,0.0859,0.625,0.2559c0.1572,0.1719,0.2363,0.3936,0.2363,0.667c0,0.2188-0.0312,0.4072-0.0918,0.5635
		c-0.0625,0.1582-0.1885,0.3936-0.3799,0.708c-0.6836-0.3418-1.1484-0.5127-1.3945-0.5127s-0.4922,0.0615-0.7383,0.1846
		c-0.1641,0.082-0.3145,0.1914-0.4512,0.3281c0,0.1777,0.3281,0.4512,0.9844,0.8203s1.1279,0.5537,1.415,0.5537
		C566.6719,1011.8994,567.1641,1011.7969,567.9707,1011.5918z M568.0117,1033.1455c0,1.2168-0.1436,2.3281-0.4307,3.332
		c-0.2871,1.0059-0.8408,2.3555-1.6611,4.0508l-1.2305-0.4922c0.3281-1.75,0.4922-3.1719,0.4922-4.2656
		c0-0.834-0.0684-2.0576-0.2051-3.6709s-0.3076-3.21-0.5127-4.7881c-0.2051-1.5801-0.54-3.4629-1.0049-5.6504
		c-0.1641-0.7656-0.2461-1.292-0.2461-1.5791c0-0.4238,0.2119-1.1445,0.6357-2.1631s1.0186-2.2529,1.7842-3.7021l1.2305,7.2598
		c0.4512,2.7617,0.7656,5.1543,0.9434,7.1777C567.9434,1030.2129,568.0117,1031.71,568.0117,1033.1455z"/>
	<path fill="#4B5666" d="M607.2637,1039.0928c-1.5039,0-2.5771-0.0684-3.2197-0.2051s-1.8389-0.5195-3.5889-1.1484
		c-0.793,0.5605-1.501,0.9297-2.123,1.1074s-1.5547,0.2666-2.7988,0.2666h-3.3428c0,3.1719-1.0117,5.4551-3.0352,6.8496
		c-1.7637,1.2168-4.4229,1.8252-7.9775,1.8252c-3.3223,0-5.8828-0.6055-7.6797-1.8145c-1.7988-1.2109-2.6973-2.9297-2.6973-5.1582
		c0-1.9004,0.2871-3.6367,0.8613-5.209c0.6289-1.7363,1.8594-3.9922,3.6914-6.7676l1.2305,0.8613
		c-1.3535,2.3105-2.2393,3.9854-2.6562,5.0244s-0.625,2.1123-0.625,3.2197c0,1.4355,0.7695,2.6084,2.3066,3.5176
		c1.5391,0.9092,3.5586,1.3633,6.0605,1.3633c2.4609,0,4.5322-0.4717,6.2139-1.415s2.5225-2.0986,2.5225-3.4658
		c0-0.8477-0.1475-1.6885-0.4414-2.5225s-0.9258-2.167-1.8965-3.999l1.8047-5.5371c0.9707,1.6406,1.6133,2.9941,1.9277,4.0605
		c0.2734,0.9297,0.4102,2.126,0.4102,3.5889h1.8867c2.0645,0,3.5029-0.2422,4.3164-0.7275s1.2207-1.3574,1.2207-2.6152
		c0-0.5469,0.0508-0.9463,0.1543-1.1992c0.1016-0.2529,0.3447-0.5166,0.7275-0.79l0.9639-0.6768
		c0.0273,0.2598,0.0479,0.6123,0.0615,1.0566s0.0205,0.7344,0.0205,0.8711c0,0.752-0.1094,1.75-0.3281,2.9941
		c0.6289,0.2051,1.2617,0.3936,1.8965,0.5645c0.6367,0.1709,1.2344,0.2969,1.7949,0.3789c0-0.4922-0.1709-1.0938-0.5127-1.8047
		s-0.5127-1.1758-0.5127-1.3945c0-0.1641,0.0234-0.3213,0.0723-0.4717c0.0469-0.1504,0.1602-0.3486,0.3379-0.5947l1.9277-2.748
		c0.3691,0.8613,0.6318,1.6445,0.7891,2.3477c0.1572,0.7051,0.2363,1.583,0.2363,2.6357V1039.0928z"/>
	<path fill="#4B5666" d="M614.8516,1033.1455c0,1.2168-0.1436,2.3281-0.4307,3.332c-0.2871,1.0059-0.8408,2.3555-1.6611,4.0508
		l-1.2305-0.4922c0.3281-1.75,0.4922-3.1719,0.4922-4.2656c0-0.834-0.0684-2.0576-0.2051-3.6709s-0.3076-3.21-0.5127-4.7881
		c-0.2051-1.5801-0.54-3.4629-1.0049-5.6504c-0.1641-0.7656-0.2461-1.292-0.2461-1.5791c0-0.4238,0.2119-1.1445,0.6357-2.1631
		s1.0186-2.2529,1.7842-3.7021l1.2305,7.2598c0.4512,2.7617,0.7656,5.1543,0.9434,7.1777
		C614.7832,1030.2129,614.8516,1031.71,614.8516,1033.1455z"/>
	<path fill="#4B5666" d="M654.1445,1039.0928c-1.5039,0-2.5771-0.0684-3.2197-0.2051s-1.8389-0.5195-3.5889-1.1484
		c-0.793,0.5605-1.501,0.9297-2.123,1.1074s-1.5547,0.2666-2.7988,0.2666h-3.3428c0,3.1719-1.0117,5.4551-3.0352,6.8496
		c-1.7637,1.2168-4.4229,1.8252-7.9775,1.8252c-3.3223,0-5.8828-0.6055-7.6797-1.8145c-1.7988-1.2109-2.6973-2.9297-2.6973-5.1582
		c0-1.9004,0.2871-3.6367,0.8613-5.209c0.6289-1.7363,1.8594-3.9922,3.6914-6.7676l1.2305,0.8613
		c-1.3535,2.3105-2.2393,3.9854-2.6562,5.0244s-0.625,2.1123-0.625,3.2197c0,1.4355,0.7695,2.6084,2.3066,3.5176
		c1.5391,0.9092,3.5586,1.3633,6.0605,1.3633c2.4609,0,4.5322-0.4717,6.2139-1.415s2.5225-2.0986,2.5225-3.4658
		c0-0.8477-0.1475-1.6885-0.4414-2.5225s-0.9258-2.167-1.8965-3.999l1.8047-5.5371c0.9707,1.6406,1.6133,2.9941,1.9277,4.0605
		c0.2734,0.9297,0.4102,2.126,0.4102,3.5889h1.8867c2.0645,0,3.5029-0.2422,4.3164-0.7275s1.2207-1.3574,1.2207-2.6152
		c0-0.5469,0.0508-0.9463,0.1543-1.1992c0.1016-0.2529,0.3447-0.5166,0.7275-0.79l0.9639-0.6768
		c0.0273,0.2598,0.0479,0.6123,0.0615,1.0566s0.0205,0.7344,0.0205,0.8711c0,0.752-0.1094,1.75-0.3281,2.9941
		c0.6289,0.2051,1.2617,0.3936,1.8965,0.5645c0.6367,0.1709,1.2344,0.2969,1.7949,0.3789c0-0.4922-0.1709-1.0938-0.5127-1.8047
		s-0.5127-1.1758-0.5127-1.3945c0-0.1641,0.0234-0.3213,0.0723-0.4717c0.0469-0.1504,0.1602-0.3486,0.3379-0.5947l1.9277-2.748
		c0.3691,0.8613,0.6318,1.6445,0.7891,2.3477c0.1572,0.7051,0.2363,1.583,0.2363,2.6357V1039.0928z"/>
	<path fill="#4B5666" d="M678.2822,1029.126c0,0.752-0.0752,1.374-0.2256,1.8662s-0.4717,1.1416-0.9639,1.9482
		c-0.3691-0.9707-0.6807-1.6025-0.9326-1.8965c-0.2539-0.2939-0.6191-0.4414-1.0977-0.4414c-0.7383,0-1.7539,0.4199-3.0449,1.2617
		c-1.293,0.8398-1.9385,1.5479-1.9385,2.1221c0,0.3008,0.2598,0.5127,0.7793,0.6357c0.3691,0.082,0.9434,0.123,1.7227,0.123
		c0.2051,0,0.4062,0,0.6045,0s0.4004-0.0068,0.6055-0.0205c1.4902,0,2.4814,0.1504,2.9736,0.4512
		c0.4238,0.2598,0.6357,0.7656,0.6357,1.5176c0,1.4766-0.2734,2.8916-0.8203,4.2451c-0.6836,1.709-1.6748,2.9258-2.9736,3.6504
		c-1.627,0.916-3.3193,1.6543-5.0752,2.2148c-1.7578,0.5605-3.3945,0.8408-4.9121,0.8408c-4.252,0-6.3779-1.9072-6.3779-5.7217
		c0-1.9277,0.2393-3.5889,0.7178-4.9834c0.5332-1.5586,1.6611-3.6709,3.3838-6.3369l0.9434,0.6152
		c-1.0117,1.709-1.7705,3.2305-2.2764,4.5625c-0.5059,1.334-0.7588,2.499-0.7588,3.4971c0,2.584,1.4561,3.876,4.3682,3.876
		c1.0938,0,2.1328-0.0986,3.1172-0.2969s1.9824-0.4756,2.9941-0.8311c0.6562-0.2324,1.4082-0.5332,2.2559-0.9023
		c1.3535-0.6016,2.0713-0.9229,2.1533-0.9639c0.6152-0.3281,0.9229-0.6221,0.9229-0.8818c0-0.1367-0.332-0.2217-0.9941-0.2568
		c-0.6641-0.0332-1.1318-0.0508-1.4053-0.0508c-2.1055,0-3.5137-0.3008-4.2246-0.9023c-0.5742-0.4922-0.8613-1.4014-0.8613-2.7275
		c0-0.6289,0.2012-1.4219,0.6045-2.3789s0.9336-1.9072,1.5898-2.8506c0.998-1.4355,1.9961-2.5225,2.9941-3.2607
		s1.9756-1.1074,2.9326-1.1074c0.793,0,1.4219,0.3076,1.8867,0.9229S678.2822,1028.1006,678.2822,1029.126z M672.8477,1049.3877
		l-1.5176,2.7891l-3.1582-1.5996l-1.5176,2.707l-3.1582-1.6816l1.5586-2.8301l3.0762,1.5996l1.5176-2.625L672.8477,1049.3877z"/>
</g>
<g>
	<path fill="#4B5666" d="M866.4775,575.8057c-0.1504,0.3965-0.3281,0.6973-0.5332,0.9023
		c-0.1504,0.1504-0.3828,0.2734-0.6973,0.3691l-4.4297,1.3535c0.2734-0.4922,0.5117-0.8311,0.7168-1.0146
		c0.2051-0.1855,0.5742-0.3525,1.1074-0.5029c-0.3828-0.2461-0.6602-0.4746-0.8301-0.6865
		c-0.1719-0.2119-0.2559-0.4209-0.2559-0.626c0-0.1777,0.0547-0.3799,0.1641-0.6045c0.1094-0.2266,0.252-0.4482,0.4297-0.667
		c0.8887-1.1895,1.7715-1.7842,2.6465-1.7842c0.2598,0,0.4668,0.0859,0.625,0.2559c0.1562,0.1719,0.2363,0.3936,0.2363,0.667
		c0,0.2188-0.0312,0.4072-0.0918,0.5635c-0.0625,0.1582-0.1895,0.3936-0.3809,0.708c-0.6836-0.3418-1.1484-0.5127-1.3945-0.5127
		s-0.4922,0.0615-0.7383,0.1846c-0.1641,0.082-0.3145,0.1914-0.4512,0.3281c0,0.1777,0.3281,0.4512,0.9844,0.8203
		s1.1289,0.5537,1.416,0.5537C865.1787,576.1133,865.6709,576.0107,866.4775,575.8057z M866.5186,597.3594
		c0,1.2168-0.1445,2.3281-0.4316,3.332c-0.2871,1.0059-0.8398,2.3555-1.6602,4.0508l-1.2305-0.4922
		c0.3281-1.75,0.4922-3.1719,0.4922-4.2656c0-0.834-0.0684-2.0576-0.2051-3.6709s-0.3086-3.21-0.5137-4.7881
		c-0.2051-1.5801-0.5391-3.4629-1.0039-5.6504c-0.1641-0.7656-0.2461-1.292-0.2461-1.5791c0-0.4238,0.2109-1.1445,0.6348-2.1631
		s1.0195-2.2529,1.7852-3.7021l1.2305,7.2598c0.4512,2.7617,0.7656,5.1543,0.9434,7.1777
		C866.4502,594.4268,866.5186,595.9238,866.5186,597.3594z"/>
	<path fill="#4B5666" d="M876.4443,576.4209c0,0.6289-0.3418,1.2373-1.0254,1.8252c-1.2578,0.5059-3.2539,1.3125-5.9883,2.4199
		c0-0.6152,0.2793-1.1895,0.8398-1.7227C871.4463,578.4648,873.5049,577.624,876.4443,576.4209z"/>
	<path fill="#4B5666" d="M890.7178,602.3223c0,1.8867-0.1855,3.4014-0.5547,4.543s-0.9727,2.0605-1.8145,2.7578
		c-0.8398,0.6973-2.0703,1.2676-3.6914,1.7129c-1.6191,0.4434-3.291,0.666-5.0137,0.666c-3.3223,0-5.8828-0.6055-7.6797-1.8145
		c-1.7988-1.2109-2.6973-2.9297-2.6973-5.1582c0-1.9004,0.2871-3.6367,0.8613-5.209c0.6289-1.7363,1.8594-3.9922,3.6914-6.7676
		l1.2305,0.8613c-1.3535,2.3105-2.2402,3.9854-2.6562,5.0244c-0.418,1.0391-0.625,2.1123-0.625,3.2197
		c0,1.4355,0.7695,2.6084,2.3066,3.5176c1.5391,0.9092,3.5586,1.3633,6.0605,1.3633c2.4609,0,4.5312-0.4717,6.2129-1.415
		s2.5234-2.0986,2.5234-3.4658c0-0.8477-0.1484-1.6885-0.4414-2.5225c-0.2949-0.834-0.9258-2.167-1.8965-3.999l1.8047-5.5371
		c0.957,1.7363,1.5449,2.9326,1.7637,3.5889c0.4102,1.1895,0.6152,2.7002,0.6152,4.5322V602.3223z M883.9697,586.1826
		l-2.4609,4.5938l-4.7988-2.502l2.4824-4.6348L883.9697,586.1826z"/>
	<path fill="#4B5666" d="M917.9932,603.3271h-17.207c-1.6543,0-2.752-0.0273-3.291-0.082c-0.541-0.0547-1.125-0.1982-1.7539-0.4307
		c-1.1211-0.3828-2.043-1.1621-2.7676-2.3379s-1.0879-2.4883-1.0879-3.9375c0-0.5605,0.0273-1.0625,0.082-1.5078
		c0.0547-0.4434,0.1641-0.9668,0.3281-1.5684c0.2324-0.8887,0.4922-1.6338,0.7793-2.2354s0.793-1.415,1.5176-2.4404l1.1484,0.8203
		c-0.5879,1.0801-0.9883,1.9346-1.1992,2.5635c-0.2129,0.6289-0.3184,1.251-0.3184,1.8662c0,0.7793,0.25,1.4805,0.75,2.1016
		c0.498,0.623,1.1504,1.0293,1.957,1.2207c0.4785,0.123,1.1035,0.2188,1.877,0.2871c0.7715,0.0684,1.582,0.1025,2.4297,0.1025
		h14.8281c-0.3828-1.0391-0.6973-1.7773-0.9434-2.2148c-0.2871-0.5195-0.752-1.1826-1.3945-1.9893l1.8457-4.7578
		c1.0254,1.4629,1.6953,2.8027,2.0098,4.0195c0.2734,1.0664,0.4102,2.6387,0.4102,4.7168V603.3271z M910.7529,583.8652
		l-2.2559,4.1836l-2.9121-1.6406l-1.6406,3.2402l-3.8145-2.0918l2.1328-3.9785l3.0352,1.5176l1.7227-3.3223L910.7529,583.8652z"/>
	<path fill="#4B5666" d="M926.4424,607.6133c0,0.6562-0.3555,1.2852-1.0664,1.8867c-1.2305,0.4785-3.2129,1.2646-5.9473,2.3584
		c0-0.5879,0.3008-1.1553,0.9023-1.7021C921.4658,609.6914,923.5029,608.8438,926.4424,607.6133z"/>
	<path fill="#4B5666" d="M941.6182,612.9863l-7.916,4.8809c-4.8672,0-8.4492-0.9297-10.7461-2.7891
		c-2.3516-1.9141-3.5273-4.9219-3.5273-9.0234c0-2.8301,0.5605-5.3281,1.6816-7.4961c1.1211-2.166,2.8984-4.1113,5.332-5.834
		c-1.627,0-3.0625,0.2393-4.3066,0.7178c-0.4512,0.1777-1.4766,0.6357-3.0762,1.374c0.6562-5.0859,3.0762-7.6289,7.2598-7.6289
		c0.6289,0,1.6602,0.0723,3.0957,0.2148c1.4355,0.1445,2.7012,0.25,3.7949,0.3184c2.0781,0.1367,4.1289,0.2051,6.1523,0.2051
		l-1.2305,5.0449c-5.2363,0.6562-9.2324,1.918-11.9863,3.7832c-2.7559,1.8672-4.1328,4.2559-4.1328,7.168
		c0,2.7344,1.1309,4.8262,3.3945,6.2754c2.2617,1.4492,5.5195,2.1738,9.7715,2.1738c0.1094,0,1.1406-0.0615,3.0957-0.1846
		c1.0801-0.0684,2.0586-0.1025,2.9336-0.1025L941.6182,612.9863z M935.0967,602.0762l-2.4609,4.7168l-4.7988-2.666l2.543-4.6758
		L935.0967,602.0762z"/>
	<path fill="#4B5666" d="M949.1436,577.3848c0,0.8477-0.3145,1.6064-0.9434,2.2764s-1.4004,1.0049-2.3164,1.0049
		c-0.7383,0-1.293-0.2051-1.6621-0.6152s-0.5527-0.9844-0.5527-1.7227c0-1.0527,0.2734-1.9854,0.8203-2.7988
		s1.2227-1.2207,2.0293-1.2207c0.7383,0,1.3613,0.3076,1.8672,0.9229S949.1436,576.5645,949.1436,577.3848z M947.9131,577.9385
		c0-0.3828-0.2656-0.8066-0.7988-1.2715s-0.9844-0.6973-1.3535-0.6973c-0.3555,0-0.6562,0.1533-0.9023,0.4619
		c-0.2461,0.3066-0.3691,0.625-0.3691,0.9531c0,0.4785,0.2246,0.8135,0.6758,1.0049c0.3555,0.1504,0.8691,0.2256,1.5391,0.2256
		c0.3418,0,0.6289-0.0479,0.8613-0.1436S947.9131,578.1982,947.9131,577.9385z"/>
	<path fill="#4B5666" d="M979.6182,603.8809c0,2.6934-0.1504,4.4746-0.4512,5.3418c-0.3008,0.8682-1.0176,1.7539-2.1523,2.6562
		c-2.4746,1.9414-5.9746,2.9121-10.5,2.9121c-3.8008,0-6.7207-0.6221-8.7578-1.8662s-3.0547-3.0283-3.0547-5.3525
		c0-2.0098,0.3145-3.835,0.9434-5.4756c0.6973-1.8047,1.9961-4.0264,3.8965-6.665l1.2305,0.8613
		c-1.2441,1.8047-2.1309,3.3291-2.6562,4.5732c-0.5273,1.2441-0.7891,2.4541-0.7891,3.6299c0,1.668,0.8613,2.9668,2.584,3.8965
		s4.1426,1.3945,7.2598,1.3945c2.8164,0,5.3047-0.5469,7.4648-1.6406s3.2402-2.3379,3.2402-3.7324
		c0-0.1777-0.0039-0.3623-0.0117-0.5537c-0.0059-0.1914-0.043-0.417-0.1113-0.6768c-1.4355,0.1367-2.502,0.2051-3.1992,0.2051
		c-1.5039,0-2.6797-0.376-3.5273-1.1279s-1.2715-1.8115-1.2715-3.1787c0-2.0098,0.5059-4.0127,1.5176-6.0088
		c1.0938-2.1465,2.3105-3.2197,3.6504-3.2197c1.4766,0,2.6445,1.0596,3.5059,3.1787c0.793,1.9414,1.1895,4.3545,1.1895,7.2393
		V603.8809z M978.7568,583.7832l-2.2559,4.1836l-2.9121-1.6406l-1.6406,3.2402l-3.8145-2.0918l2.1328-3.9785l3.0352,1.5176
		l1.7227-3.3223L978.7568,583.7832z M975.9072,597.7285c-0.3691-0.8477-0.7461-1.4492-1.1289-1.8047s-0.8398-0.5332-1.373-0.5332
		c-0.3418,0-0.6133,0.1064-0.8105,0.3184c-0.1992,0.2119-0.2969,0.4883-0.2969,0.8301c0,0.9023,0.5742,1.3535,1.7227,1.3535
		c0.4102,0,0.7109-0.0098,0.9023-0.0312C975.1143,597.8418,975.4424,597.7969,975.9072,597.7285z"/>
	<path fill="#4B5666" d="M1003.7568,593.3398c0,0.752-0.0762,1.374-0.2266,1.8662s-0.4707,1.1416-0.9629,1.9482
		c-0.3691-0.9707-0.6816-1.6025-0.9336-1.8965c-0.2539-0.2939-0.6191-0.4414-1.0977-0.4414c-0.7383,0-1.7539,0.4199-3.0449,1.2617
		c-1.293,0.8398-1.9375,1.5479-1.9375,2.1221c0,0.3008,0.2598,0.5127,0.7793,0.6357c0.3691,0.082,0.9434,0.123,1.7227,0.123
		c0.2051,0,0.4062,0,0.6035,0c0.1992,0,0.4004-0.0068,0.6055-0.0205c1.4902,0,2.4824,0.1504,2.9746,0.4512
		c0.4238,0.2598,0.6348,0.7656,0.6348,1.5176c0,1.4766-0.2734,2.8916-0.8203,4.2451c-0.6836,1.709-1.6738,2.9258-2.9727,3.6504
		c-1.627,0.916-3.3203,1.6543-5.0762,2.2148c-1.7578,0.5605-3.3945,0.8408-4.9121,0.8408c-4.252,0-6.377-1.9072-6.377-5.7217
		c0-1.9277,0.2383-3.5889,0.7168-4.9834c0.5332-1.5586,1.6621-3.6709,3.3848-6.3369l0.9434,0.6152
		c-1.0117,1.709-1.7715,3.2305-2.2773,4.5625c-0.5059,1.334-0.7578,2.499-0.7578,3.4971c0,2.584,1.4551,3.876,4.3672,3.876
		c1.0938,0,2.1328-0.0986,3.1172-0.2969s1.9824-0.4756,2.9941-0.8311c0.6562-0.2324,1.4082-0.5332,2.2559-0.9023
		c1.3535-0.6016,2.0723-0.9229,2.1543-0.9639c0.6152-0.3281,0.9219-0.6221,0.9219-0.8818c0-0.1367-0.332-0.2217-0.9941-0.2568
		c-0.6641-0.0332-1.1309-0.0508-1.4043-0.0508c-2.1055,0-3.5137-0.3008-4.2246-0.9023c-0.5742-0.4922-0.8613-1.4014-0.8613-2.7275
		c0-0.6289,0.2012-1.4219,0.6035-2.3789c0.4043-0.957,0.9336-1.9072,1.5898-2.8506c0.998-1.4355,1.9961-2.5225,2.9941-3.2607
		s1.9766-1.1074,2.9336-1.1074c0.793,0,1.4219,0.3076,1.8867,0.9229S1003.7568,592.3145,1003.7568,593.3398z M998.3213,613.6016
		l-1.5176,2.7891l-3.1582-1.5996l-1.5176,2.707l-3.1582-1.6816l1.5586-2.8301l3.0762,1.5996l1.5176-2.625L998.3213,613.6016z"/>
	<path fill="#4B5666" d="M1021.8232,603.3271l-2.666-0.0205c-2.502,0-4.7168,0.2119-6.6445,0.6357s-2.8906,0.9092-2.8906,1.4561
		c0.5332,1.6406,1.0078,3.1787,1.4238,4.6143c0.418,1.4355,0.627,2.7959,0.627,4.0811c0,0.9297-0.0938,1.6816-0.2773,2.2559
		c-0.1855,0.5742-0.5293,1.2031-1.0352,1.8867c-0.1504-1.8047-0.4863-3.6982-1.0059-5.6807
		c-0.1777-0.6973-0.6211-2.167-1.332-4.4092c-0.4375-1.3809-0.6562-2.2969-0.6562-2.748c0-0.6426,0.1777-1.4424,0.5332-2.3994
		c0.2871-0.7793,0.6152-1.4697,0.9844-2.0713c0.4375-0.6836,1.1992-1.2236,2.2852-1.6201c1.0879-0.3965,2.7461-0.7178,4.9746-0.9639
		c-1.0938-1.5312-2.0508-2.2969-2.8711-2.2969c-0.3555,0-0.6914,0.1367-1.0059,0.4102s-0.8262,0.875-1.5371,1.8047l-0.9844-0.4922
		c0.6016-2.0918,1.3418-3.7012,2.2246-4.8301c0.8809-1.127,1.8496-1.6914,2.9023-1.6914c0.916,0,1.9336,0.5264,3.0547,1.5791
		s2.4199,2.6934,3.8965,4.9219V603.3271z"/>
	<path fill="#4B5666" d="M1033.5537,579.374l-2.2559,4.1836l-2.9121-1.6406l-1.6406,3.2402l-3.8145-2.0918l2.1328-3.9785
		l3.0352,1.5176l1.7227-3.3223L1033.5537,579.374z M1034.5791,595.6367c0,0.8203-0.0645,1.6504-0.1953,2.4922
		c-0.1289,0.8398-0.2969,1.5273-0.502,2.0605c-0.3828,1.0391-1.3262,1.9551-2.8301,2.748c-1.3945,0.7383-2.707,1.1074-3.9375,1.1074
		c-1.0664,0-1.9141-0.3691-2.543-1.1074s-0.9434-1.7227-0.9434-2.9531c0-1.1211,0.1602-2.2217,0.4824-3.3018
		c0.3203-1.0801,0.8984-2.4404,1.7324-4.0811l-0.7383-0.4922c0.2324-0.6289,0.5469-1.3906,0.9434-2.2871
		c0.3965-0.8945,0.752-1.6504,1.0664-2.2656l2.0098,1.1895c0.875,0.5332,1.709,1.1074,2.502,1.7227
		c1.1211,0.8477,1.8945,1.6445,2.3184,2.3887C1034.3682,593.6035,1034.5791,594.5293,1034.5791,595.6367z M1031.5439,597.2773
		c0-0.2598-0.4746-0.7998-1.4258-1.6201c-0.9492-0.8203-1.8828-1.5244-2.7988-2.1123c-0.875,1.3809-1.3125,2.5293-1.3125,3.4453
		c0,0.4375,0.1816,0.8135,0.543,1.1279c0.3633,0.3145,0.7969,0.4717,1.3027,0.4717c0.6836,0,1.4707-0.1602,2.3594-0.4824
		C1031.1006,597.7871,1031.5439,597.5098,1031.5439,597.2773z"/>
	<path fill="#4B5666" d="M848.6162,653.7275h-17.207c-1.6543,0-2.752-0.0273-3.291-0.082c-0.541-0.0547-1.125-0.1982-1.7539-0.4307
		c-1.1211-0.3828-2.043-1.1621-2.7676-2.3379s-1.0879-2.4883-1.0879-3.9375c0-0.5605,0.0273-1.0625,0.082-1.5078
		c0.0547-0.4434,0.1641-0.9668,0.3281-1.5684c0.2324-0.8887,0.4922-1.6338,0.7793-2.2354s0.793-1.415,1.5176-2.4404l1.1484,0.8203
		c-0.5879,1.0801-0.9883,1.9346-1.1992,2.5635c-0.2129,0.6289-0.3184,1.251-0.3184,1.8662c0,0.7793,0.25,1.4805,0.75,2.1016
		c0.498,0.623,1.1504,1.0293,1.957,1.2207c0.4785,0.123,1.1035,0.2188,1.877,0.2871c0.7715,0.0684,1.582,0.1025,2.4297,0.1025
		h14.8281c-0.3828-1.0391-0.6973-1.7773-0.9434-2.2148c-0.2871-0.5195-0.752-1.1826-1.3945-1.9893l1.8457-4.7578
		c1.0254,1.4629,1.6953,2.8027,2.0098,4.0195c0.2734,1.0664,0.4102,2.6387,0.4102,4.7168V653.7275z M840.5967,658.0547
		l-2.4609,4.5938l-4.7578-2.584l2.4609-4.6758L840.5967,658.0547z"/>
	<path fill="#4B5666" d="M886.3916,653.707c-1.5039,0-2.5781-0.0684-3.2207-0.2051s-1.8379-0.5195-3.5879-1.1484
		c-0.793,0.5605-1.502,0.9297-2.123,1.1074c-0.623,0.1777-1.5547,0.2666-2.7988,0.2666h-3.3438
		c0,3.1719-1.0117,5.4551-3.0352,6.8496c-1.7637,1.2168-4.4219,1.8252-7.9766,1.8252c-3.3223,0-5.8828-0.6055-7.6797-1.8145
		c-1.7988-1.2109-2.6973-2.9297-2.6973-5.1582c0-1.9004,0.2871-3.6367,0.8613-5.209c0.6289-1.7363,1.8594-3.9922,3.6914-6.7676
		l1.2305,0.8613c-1.3535,2.3105-2.2402,3.9854-2.6562,5.0244c-0.418,1.0391-0.625,2.1123-0.625,3.2197
		c0,1.4355,0.7695,2.6084,2.3066,3.5176c1.5391,0.9092,3.5586,1.3633,6.0605,1.3633c2.4609,0,4.5312-0.4717,6.2129-1.415
		s2.5234-2.0986,2.5234-3.4658c0-0.8477-0.1484-1.6885-0.4414-2.5225c-0.2949-0.834-0.9258-2.167-1.8965-3.999l1.8047-5.5371
		c0.9707,1.6406,1.6133,2.9941,1.9277,4.0605c0.2734,0.9297,0.4102,2.126,0.4102,3.5889h1.8867c2.0645,0,3.502-0.2422,4.3164-0.7275
		c0.8125-0.4854,1.2207-1.3574,1.2207-2.6152c0-0.5469,0.0508-0.9463,0.1543-1.1992c0.1016-0.2529,0.3438-0.5166,0.7266-0.79
		l0.9648-0.6768c0.0273,0.2598,0.0469,0.6123,0.0605,1.0566s0.0215,0.7344,0.0215,0.8711c0,0.752-0.1094,1.75-0.3281,2.9941
		c0.6289,0.2051,1.2617,0.3936,1.8965,0.5645c0.6367,0.1709,1.2344,0.2969,1.7949,0.3789c0-0.4922-0.1719-1.0938-0.5137-1.8047
		s-0.5117-1.1758-0.5117-1.3945c0-0.1641,0.0234-0.3213,0.0723-0.4717c0.0469-0.1504,0.1602-0.3486,0.3379-0.5947l1.9277-2.748
		c0.3691,0.8613,0.6309,1.6445,0.7891,2.3477c0.1562,0.7051,0.2363,1.583,0.2363,2.6357V653.707z M884.71,634.0605l-2.2559,4.1836
		l-2.9121-1.6406l-1.6406,3.2402l-3.8145-2.0918l2.1328-3.9785l3.0352,1.5176l1.7227-3.3223L884.71,634.0605z M880.7314,629.2002
		l-2.0508,4.2656l-3.8555-2.0508l2.0918-4.1836L880.7314,629.2002z"/>
	<path fill="#4B5666" d="M909.1143,653.7275h-13.7617c-2.9531,0-5.0781-0.5059-6.377-1.5176
		c-1.1621-0.9023-1.7441-2.3037-1.7441-4.2041c0-1.2715,0.1953-2.5186,0.5859-3.7422c0.3887-1.2236,1.0547-2.6836,1.998-4.3789
		l1.2305,0.8613c-0.5332,1.0527-0.8789,1.8359-1.0352,2.3477c-0.1582,0.5137-0.2363,1.0566-0.2363,1.6309
		c0,1.3125,0.4863,2.2119,1.457,2.6973s2.8223,0.7275,5.5566,0.7275h9.8652l-2.4824-13.9248l-1.3125-0.8613
		c0-0.8066,0.123-1.6201,0.3691-2.4404c0.3145-1.0391,0.8477-2.2764,1.5996-3.7119l0.9434,0.4922
		c0,0.082-0.0273,0.3008-0.082,0.6562c0,0.4512,0.2871,0.8887,0.8613,1.3125c0.5059,0.3828,1.3125,0.8066,2.4199,1.2715
		c-0.123,0.875-0.3047,1.7295-0.543,2.5635c-0.2402,0.834-0.5098,1.5791-0.8105,2.2354l-0.7383-0.2871l2.2363,12.6943V653.7275z
		 M902.0791,638.4492c0,1.8184-0.5371,3.2373-1.6094,4.2559c-1.0742,1.0186-2.5742,1.5273-4.502,1.5273
		c-0.5332,0-0.9609-0.0137-1.2812-0.041c-0.3223-0.0273-0.8516-0.1094-1.5898-0.2461l0.2461-1.3125h0.3691
		c1.3535,0,2.6016-0.1875,3.7441-0.5645c1.1406-0.375,1.7109-0.8164,1.7109-1.3223c0-0.1914-0.0684-0.3242-0.2051-0.4004
		c-0.1367-0.0742-0.4102-0.1328-0.8203-0.1738c-1.3125,0-1.9688-0.5742-1.9688-1.7227c0-0.8203,0.1602-1.7324,0.4824-2.7383
		c0.3203-1.0039,0.7754-2.0195,1.3633-3.0449c0.3828-0.6289,0.7734-1.0938,1.1699-1.3945s0.9902-0.5742,1.7832-0.8203
		c-0.0273,0.5332-0.0469,1.1143-0.0605,1.7432s-0.0215,1.1826-0.0215,1.6611c-0.7383,0.2051-1.3535,0.4922-1.8457,0.8613
		c-0.4375,0.3281-0.6562,0.6152-0.6562,0.8613c0,0.2871,0.4648,0.4922,1.3945,0.6152c0.8477,0,1.4434,0.1709,1.7852,0.5127
		S902.0791,637.6289,902.0791,638.4492z"/>
	<path fill="#4B5666" d="M928.0635,653.2148c0,2.1055-1.0938,3.9717-3.2812,5.5986s-4.6836,2.4404-7.4863,2.4404
		c-2.3379,0-4.166-0.5918-5.4844-1.7734c-1.3203-1.1826-1.9805-2.834-1.9805-4.9531c0-1.9824,0.2461-3.7119,0.7383-5.1885
		c0.5605-1.668,1.6543-3.7119,3.2812-6.1318l1.2715,0.8613c-1.0664,1.5996-1.8242,2.9873-2.2754,4.1631
		s-0.6777,2.3447-0.6777,3.5068c0,1.2441,0.4629,2.2051,1.3848,2.8809c0.9238,0.6777,2.2246,1.0156,3.9062,1.0156
		c2.4062,0,4.3613-0.4648,5.8652-1.3945s2.2559-2.1465,2.2559-3.6504c0-0.2598,0-0.4648,0-0.6152s0-0.2666,0-0.3486
		c0-0.5332-0.0449-1.1211-0.1328-1.7637c-0.0898-0.6426-0.3184-1.9688-0.6875-3.9785c-0.5879-3.2402-1.1758-6.4873-1.7637-9.7412
		l-1.0254-0.7383c0-1.3398,0.6289-3.3906,1.8867-6.1523l0.9434,0.4512c-0.0547,0.1914-0.082,0.4102-0.082,0.6562
		c0,0.5469,0.2812,0.9912,0.8418,1.333c0.834,0.4648,1.6191,0.9092,2.3574,1.333c-0.1504,1.1758-0.3008,2.0166-0.4512,2.5225
		s-0.4648,1.2646-0.9434,2.2764l-0.6152-0.2461c0,0.2051,0.1953,1.3711,0.5859,3.4961c0.3887,2.127,0.7207,3.9619,0.9941,5.5068
		c0.3828,2.2148,0.5742,3.5615,0.5742,4.04V653.2148z"/>
	<path fill="#4B5666" d="M954.8662,653.7275l-2.666-0.0205c-2.502,0-4.7168,0.2119-6.6445,0.6357s-2.8906,0.9092-2.8906,1.4561
		c0.5332,1.6406,1.0078,3.1787,1.4238,4.6143c0.418,1.4355,0.627,2.7959,0.627,4.0811c0,0.9297-0.0938,1.6816-0.2773,2.2559
		c-0.1855,0.5742-0.5293,1.2031-1.0352,1.8867c-0.1504-1.8047-0.4863-3.6982-1.0059-5.6807
		c-0.1777-0.6973-0.6211-2.167-1.332-4.4092c-0.4375-1.3809-0.6562-2.2969-0.6562-2.748c0-0.6426,0.1777-1.4424,0.5332-2.3994
		c0.2871-0.7793,0.6152-1.4697,0.9844-2.0713c0.4375-0.6836,1.1992-1.2236,2.2852-1.6201c1.0879-0.3965,2.7461-0.7178,4.9746-0.9639
		c-1.0938-1.5312-2.0508-2.2969-2.8711-2.2969c-0.3555,0-0.6914,0.1367-1.0059,0.4102s-0.8262,0.875-1.5371,1.8047l-0.9844-0.4922
		c0.6016-2.0918,1.3418-3.7012,2.2246-4.8301c0.8809-1.127,1.8496-1.6914,2.9023-1.6914c0.916,0,1.9336,0.5264,3.0547,1.5791
		s2.4199,2.6934,3.8965,4.9219V653.7275z"/>
	<path fill="#4B5666" d="M982.1416,653.7275h-17.2051c-1.6543,0-2.752-0.0273-3.293-0.082c-0.5391-0.0547-1.123-0.1982-1.752-0.4307
		c-1.1211-0.3828-2.0449-1.1621-2.7695-2.3379s-1.0859-2.4883-1.0859-3.9375c0-0.5605,0.0273-1.0625,0.082-1.5078
		c0.0547-0.4434,0.1641-0.9668,0.3281-1.5684c0.2324-0.8887,0.4922-1.6338,0.7793-2.2354s0.793-1.415,1.5176-2.4404l1.1484,0.8203
		c-0.5879,1.0801-0.9883,1.9346-1.2012,2.5635c-0.2109,0.6289-0.3164,1.251-0.3164,1.8662c0,0.7793,0.248,1.4805,0.748,2.1016
		c0.498,0.623,1.1523,1.0293,1.959,1.2207c0.4785,0.123,1.1035,0.2188,1.875,0.2871c0.7734,0.0684,1.584,0.1025,2.4316,0.1025
		h14.8262c-0.3828-1.0391-0.6973-1.7773-0.9434-2.2148c-0.2871-0.5195-0.752-1.1826-1.3945-1.9893l1.8457-4.7578
		c1.0254,1.4629,1.6953,2.8027,2.0098,4.0195c0.2734,1.0664,0.4102,2.6387,0.4102,4.7168V653.7275z M974.9033,634.2656
		l-2.2559,4.1836l-2.9121-1.6406l-1.6406,3.2402l-3.8145-2.0918l2.1328-3.9785l3.0352,1.5176l1.7227-3.3223L974.9033,634.2656z"/>
	<path fill="#4B5666" d="M1001.0908,652.3125c0,2.3516-0.998,4.6758-2.9941,6.9727s-3.9648,3.4453-5.9062,3.4453
		c-1.1348,0-2.375-0.3623-3.7227-1.0869c-1.3457-0.7246-3.4141-2.1533-6.2031-4.2861l0.8613-1.1895
		c1.4766,0.9844,2.6875,1.6406,3.6309,1.9688c0.7793,0.2734,1.6602,0.4102,2.6445,0.4102c1.3262,0,2.6387-0.3691,3.9375-1.1074
		c1.5312-0.875,3.1172-2.2832,4.7578-4.2246c-0.5742,0.082-1.0527,0.123-1.4355,0.123c-1.3535,0-2.4297-0.4414-3.2305-1.3223
		c-0.7988-0.8828-1.1992-2.082-1.1992-3.5996c0-2.0508,0.4727-4.0264,1.416-5.9268c1.0254-2.0645,2.1934-3.0967,3.5059-3.0967
		c1.0938,0,2.0234,0.7451,2.7891,2.2354s1.1484,3.2881,1.1484,5.3936V652.3125z M998.6299,648.1494
		c-0.3828-2.2012-1.1621-3.3018-2.3379-3.3018c-0.4238,0-0.7617,0.168-1.0156,0.502c-0.252,0.3359-0.3789,0.7012-0.3789,1.0977
		c0,0.4922,0.2695,0.8994,0.8105,1.2207c0.5391,0.3213,1.2539,0.4814,2.1426,0.4814H998.6299z"/>
	<path fill="#4B5666" d="M1008.6787,647.7598c0,1.2168-0.1426,2.3281-0.4297,3.332c-0.2871,1.0059-0.8418,2.3555-1.6621,4.0508
		l-1.2305-0.4922c0.3281-1.75,0.4922-3.1719,0.4922-4.2656c0-0.834-0.0684-2.0576-0.2051-3.6709s-0.3066-3.21-0.5117-4.7881
		c-0.2051-1.5801-0.541-3.4629-1.0059-5.6504c-0.1641-0.7656-0.2461-1.292-0.2461-1.5791c0-0.4238,0.2129-1.1445,0.6367-2.1631
		s1.0176-2.2529,1.7832-3.7021l1.2305,7.2598c0.4512,2.7617,0.7656,5.1543,0.9434,7.1777
		C1008.6104,644.8271,1008.6787,646.3242,1008.6787,647.7598z"/>
	<path fill="#4B5666" d="M1054.8213,653.7275h-21.9219c0,3.1855-1.0117,5.4756-3.0352,6.8701
		c-1.75,1.2031-4.4102,1.8047-7.9785,1.8047c-3.3223,0-5.8828-0.6055-7.6797-1.8145c-1.7988-1.2109-2.6973-2.9297-2.6973-5.1582
		c0-1.9004,0.2871-3.6367,0.8613-5.209c0.6289-1.7363,1.8594-3.9922,3.6914-6.7676l1.2305,0.8613
		c-1.3535,2.3105-2.2383,3.9854-2.6562,5.0244c-0.416,1.0391-0.625,2.1123-0.625,3.2197c0,1.4355,0.7695,2.6084,2.3066,3.5176
		c1.5391,0.9092,3.5586,1.3633,6.0605,1.3633c2.4609,0,4.5332-0.4717,6.2148-1.415s2.5215-2.0986,2.5215-3.4658
		c0-0.8477-0.1465-1.6885-0.4414-2.5225c-0.293-0.834-0.9258-2.167-1.8965-3.999l1.8047-5.5371
		c0.752,1.4492,1.1758,2.2832,1.2715,2.502c0.3965,0.834,0.6738,1.6133,0.8301,2.3379c0.1582,0.7246,0.2363,1.6611,0.2363,2.8096
		c0.8887,0,1.6953-0.2256,2.4199-0.6768c0.082-0.0547,0.7598-0.5332,2.0312-1.4355l7.3418-5.25
		c1.1484-0.8066,2.0098-1.3535,2.584-1.6406c0.793-0.3828,1.5918-0.5742,2.3984-0.5742c1.5312,0,2.7344,0.54,3.6094,1.6201
		c1.0117,1.2441,1.5176,3.1377,1.5176,5.6807V653.7275z M1052.1143,646.0576c0-0.5195-0.4238-0.9775-1.2715-1.374
		s-1.8652-0.5947-3.0547-0.5947c-0.9023,0-1.918,0.291-3.0469,0.8721c-1.127,0.5811-2.7637,1.6436-4.9102,3.1885h5.373
		C1049.8115,648.1494,1052.1143,647.4521,1052.1143,646.0576z"/>
	<path fill="#4B5666" d="M1073.7705,653.2148c0,2.1055-1.0938,3.9717-3.2812,5.5986s-4.6816,2.4404-7.4844,2.4404
		c-2.3379,0-4.168-0.5918-5.4863-1.7734c-1.3203-1.1826-1.9785-2.834-1.9785-4.9531c0-1.9824,0.2461-3.7119,0.7383-5.1885
		c0.5605-1.668,1.6543-3.7119,3.2812-6.1318l1.2715,0.8613c-1.0664,1.5996-1.8262,2.9873-2.2773,4.1631
		s-0.6758,2.3447-0.6758,3.5068c0,1.2441,0.4609,2.2051,1.3828,2.8809c0.9238,0.6777,2.2266,1.0156,3.9082,1.0156
		c2.4062,0,4.3613-0.4648,5.8652-1.3945s2.2559-2.1465,2.2559-3.6504c0-0.2598,0-0.4648,0-0.6152s0-0.2666,0-0.3486
		c0-0.5332-0.0449-1.1211-0.1348-1.7637c-0.0879-0.6426-0.3164-1.9688-0.6855-3.9785c-0.5879-3.2402-1.1758-6.4873-1.7637-9.7412
		l-1.0254-0.7383c0-1.3398,0.6289-3.3906,1.8867-6.1523l0.9434,0.4512c-0.0547,0.1914-0.082,0.4102-0.082,0.6562
		c0,0.5469,0.2793,0.9912,0.8398,1.333c0.834,0.4648,1.6211,0.9092,2.3594,1.333c-0.1504,1.1758-0.3008,2.0166-0.4512,2.5225
		s-0.4648,1.2646-0.9434,2.2764l-0.6152-0.2461c0,0.2051,0.1934,1.3711,0.584,3.4961c0.3887,2.127,0.7207,3.9619,0.9941,5.5068
		c0.3828,2.2148,0.5742,3.5615,0.5742,4.04V653.2148z"/>
</g>
<g>
	<path fill="#4B5666" d="M84.4229,597.3594c0,1.2168-0.1436,2.3281-0.4307,3.332c-0.2871,1.0059-0.8408,2.3555-1.6611,4.0508
		l-1.2305-0.4922c0.3281-1.75,0.4922-3.1719,0.4922-4.2656c0-0.834-0.0684-2.0576-0.2051-3.6709s-0.3076-3.21-0.5127-4.7881
		c-0.2051-1.5801-0.54-3.4629-1.0049-5.6504c-0.1641-0.7656-0.2461-1.292-0.2461-1.5791c0-0.4238,0.2119-1.1445,0.6357-2.1631
		s1.0186-2.2529,1.7842-3.7021l1.2305,7.2598c0.4512,2.7617,0.7656,5.1543,0.9434,7.1777
		C84.3545,594.4268,84.4229,595.9238,84.4229,597.3594z"/>
	<path fill="#4B5666" d="M108.6631,603.3271H94.9023c-2.9531,0-5.0791-0.5059-6.3779-1.5176
		c-1.1621-0.9023-1.7432-2.3037-1.7432-4.2041c0-1.2715,0.1948-2.5186,0.5845-3.7422s1.0562-2.6836,1.9995-4.3789l1.2305,0.8613
		c-0.5332,1.0527-0.8784,1.8359-1.0356,2.3477c-0.1572,0.5137-0.2358,1.0566-0.2358,1.6309c0,1.3125,0.4854,2.2119,1.4561,2.6973
		s2.8232,0.7275,5.5576,0.7275h9.8643l-2.4814-13.9248l-1.3125-0.8613c0-0.8066,0.123-1.6201,0.3691-2.4404
		c0.3145-1.0391,0.8477-2.2764,1.5996-3.7119l0.9434,0.4922c0,0.082-0.0273,0.3008-0.082,0.6562
		c0,0.4512,0.2871,0.8887,0.8613,1.3125c0.5059,0.3828,1.3125,0.8066,2.4199,1.2715c-0.123,0.875-0.3042,1.7295-0.5435,2.5635
		s-0.5093,1.5791-0.8101,2.2354l-0.7383-0.2871l2.2354,12.6943V603.3271z M101.6289,588.0488c0,1.8184-0.5366,3.2373-1.6099,4.2559
		s-2.5737,1.5273-4.5015,1.5273c-0.5332,0-0.9604-0.0137-1.2817-0.041s-0.8511-0.1094-1.5894-0.2461l0.2461-1.3125h0.3691
		c1.3535,0,2.6011-0.1875,3.7427-0.5645c1.1416-0.375,1.7124-0.8164,1.7124-1.3223c0-0.1914-0.0684-0.3242-0.2051-0.4004
		c-0.1367-0.0742-0.4102-0.1328-0.8203-0.1738c-1.3125,0-1.9688-0.5742-1.9688-1.7227c0-0.8203,0.1606-1.7324,0.4819-2.7383
		c0.3213-1.0039,0.7759-2.0195,1.3638-3.0449c0.3828-0.6289,0.7725-1.0938,1.1689-1.3945s0.9912-0.5742,1.7842-0.8203
		c-0.0273,0.5332-0.0479,1.1143-0.0615,1.7432s-0.0205,1.1826-0.0205,1.6611c-0.7383,0.2051-1.3535,0.4922-1.8457,0.8613
		c-0.4375,0.3281-0.6562,0.6152-0.6562,0.8613c0,0.2871,0.4648,0.4922,1.3945,0.6152c0.8477,0,1.4424,0.1709,1.7842,0.5127
		S101.6289,587.2285,101.6289,588.0488z"/>
	<path fill="#4B5666" d="M135.9385,603.3271h-17.2061c-1.6543,0-2.7515-0.0273-3.2915-0.082s-1.1245-0.1982-1.7534-0.4307
		c-1.1211-0.3828-2.0439-1.1621-2.7686-2.3379s-1.0869-2.4883-1.0869-3.9375c0-0.5605,0.0273-1.0625,0.082-1.5078
		c0.0547-0.4434,0.1641-0.9668,0.3281-1.5684c0.2324-0.8887,0.4922-1.6338,0.7793-2.2354s0.793-1.415,1.5176-2.4404l1.1484,0.8203
		c-0.5879,1.0801-0.9878,1.9346-1.1997,2.5635s-0.3179,1.251-0.3179,1.8662c0,0.7793,0.2495,1.4805,0.7485,2.1016
		c0.499,0.623,1.1519,1.0293,1.9585,1.2207c0.4785,0.123,1.104,0.2188,1.8765,0.2871s1.5825,0.1025,2.4302,0.1025h14.8271
		c-0.3828-1.0391-0.6973-1.7773-0.9434-2.2148c-0.2871-0.5195-0.752-1.1826-1.3945-1.9893l1.8457-4.7578
		c1.0254,1.4629,1.6953,2.8027,2.0098,4.0195c0.2734,1.0664,0.4102,2.6387,0.4102,4.7168V603.3271z M128.6992,583.8652
		l-2.2559,4.1836l-2.9121-1.6406l-1.6406,3.2402l-3.8145-2.0918l2.1328-3.9785l3.0352,1.5176l1.7227-3.3223L128.6992,583.8652z"/>
	<path fill="#4B5666" d="M173.7139,603.3066c-1.5039,0-2.5771-0.0684-3.2197-0.2051s-1.8389-0.5195-3.5889-1.1484
		c-0.793,0.5605-1.5005,0.9297-2.1226,1.1074s-1.5552,0.2666-2.7993,0.2666h-3.3428c0,3.1719-1.0117,5.4551-3.0352,6.8496
		c-1.7637,1.2168-4.4229,1.8252-7.9775,1.8252c-3.3223,0-5.8823-0.6055-7.6802-1.8145c-1.7979-1.2109-2.6968-2.9297-2.6968-5.1582
		c0-1.9004,0.2871-3.6367,0.8613-5.209c0.6289-1.7363,1.8594-3.9922,3.6914-6.7676l1.2305,0.8613
		c-1.3535,2.3105-2.2388,3.9854-2.6558,5.0244s-0.6255,2.1123-0.6255,3.2197c0,1.4355,0.769,2.6084,2.3071,3.5176
		s3.5581,1.3633,6.0601,1.3633c2.4609,0,4.5322-0.4717,6.2139-1.415s2.5225-2.0986,2.5225-3.4658
		c0-0.8477-0.147-1.6885-0.4409-2.5225s-0.9263-2.167-1.897-3.999l1.8047-5.5371c0.9707,1.6406,1.6133,2.9941,1.9277,4.0605
		c0.2734,0.9297,0.4102,2.126,0.4102,3.5889h1.8867c2.0645,0,3.5034-0.2422,4.3169-0.7275s1.2202-1.3574,1.2202-2.6152
		c0-0.5469,0.0513-0.9463,0.1538-1.1992s0.3452-0.5166,0.728-0.79l0.9639-0.6768c0.0273,0.2598,0.0479,0.6123,0.0615,1.0566
		s0.0205,0.7344,0.0205,0.8711c0,0.752-0.1094,1.75-0.3281,2.9941c0.6289,0.2051,1.2612,0.3936,1.897,0.5645
		s1.2339,0.2969,1.7944,0.3789c0-0.4922-0.1709-1.0938-0.5127-1.8047s-0.5127-1.1758-0.5127-1.3945
		c0-0.1641,0.0239-0.3213,0.0718-0.4717s0.1606-0.3486,0.3384-0.5947l1.9277-2.748c0.3691,0.8613,0.6323,1.6445,0.7896,2.3477
		c0.1572,0.7051,0.2358,1.583,0.2358,2.6357V603.3066z M172.0322,583.6602l-2.2559,4.1836l-2.9121-1.6406l-1.6406,3.2402
		l-3.8145-2.0918l2.1328-3.9785l3.0352,1.5176l1.7227-3.3223L172.0322,583.6602z M168.0537,578.7998l-2.0508,4.2656l-3.8555-2.0508
		l2.0918-4.1836L168.0537,578.7998z"/>
	<path fill="#4B5666" d="M205.542,603.3271h-2.748c-2.3926,0-5.1064,0.0547-8.1416,0.1641
		c-1.832,0.0684-4.2109,0.1709-7.1367,0.3076s-4.498,0.2051-4.7168,0.2051c-2.9121,0-5.0176-0.5127-6.3164-1.5381
		c-1.2031-0.957-1.8047-2.4404-1.8047-4.4502c0-1.5586,0.1504-2.9189,0.4512-4.0811s0.998-3.042,2.0918-5.6396l1.3535,0.6152
		c-0.9844,2.3379-1.4766,4.0469-1.4766,5.127c0,1.4082,0.5537,2.4199,1.6611,3.0352c1.2305,0.6836,3.3564,1.0254,6.3779,1.0254
		c2.0918-0.123,4.1289-0.2285,6.1113-0.3184c1.9824-0.0879,3.8828-0.1328,5.7012-0.1328c-0.5605-0.2734-0.9468-0.5771-1.1587-0.9121
		s-0.3179-0.8242-0.3179-1.4668c0-1.9551,0.5947-3.9033,1.7842-5.8447c1.2852-2.0918,2.7002-3.1377,4.2451-3.1377
		c1.4492,0,2.502,1.0117,3.1582,3.0352c0.5879,1.832,0.8818,4.6416,0.8818,8.4287V603.3271z M203.9424,579.1484l-2.4609,4.5938
		l-4.7988-2.502l2.4609-4.6348L203.9424,579.1484z M202.3428,595.1445c-0.4785-1.3398-0.875-2.2217-1.1895-2.6455
		s-0.7246-0.6357-1.2305-0.6357c-0.2598,0-0.4888,0.0996-0.687,0.2969c-0.1982,0.1992-0.2974,0.4551-0.2974,0.7695
		c0,0.4238,0.2939,0.8203,0.8818,1.1895S201.249,594.8301,202.3428,595.1445z"/>
	<path fill="#4B5666" d="M254.9863,603.3066c-1.5039,0-2.5771-0.0684-3.2197-0.2051s-1.8389-0.5195-3.5889-1.1484
		c-0.793,0.5605-1.5005,0.9297-2.1226,1.1074s-1.5552,0.2666-2.7993,0.2666h-3.3428c0,3.1719-1.0117,5.4551-3.0352,6.8496
		c-1.7637,1.2168-4.4229,1.8252-7.9775,1.8252c-3.3223,0-5.8823-0.6055-7.6802-1.8145c-1.7979-1.2109-2.6968-2.9297-2.6968-5.1582
		c0-1.9004,0.2871-3.6367,0.8613-5.209c0.6289-1.7363,1.8594-3.9922,3.6914-6.7676l1.2305,0.8613
		c-1.3535,2.3105-2.2388,3.9854-2.6558,5.0244s-0.6255,2.1123-0.6255,3.2197c0,1.4355,0.769,2.6084,2.3071,3.5176
		s3.5581,1.3633,6.0601,1.3633c2.4609,0,4.5322-0.4717,6.2139-1.415s2.5225-2.0986,2.5225-3.4658
		c0-0.8477-0.147-1.6885-0.4409-2.5225s-0.9263-2.167-1.897-3.999l1.8047-5.5371c0.9707,1.6406,1.6133,2.9941,1.9277,4.0605
		c0.2734,0.9297,0.4102,2.126,0.4102,3.5889h1.8867c2.0645,0,3.5034-0.2422,4.3169-0.7275s1.2202-1.3574,1.2202-2.6152
		c0-0.5469,0.0513-0.9463,0.1538-1.1992s0.3452-0.5166,0.728-0.79l0.9639-0.6768c0.0273,0.2598,0.0479,0.6123,0.0615,1.0566
		s0.0205,0.7344,0.0205,0.8711c0,0.752-0.1094,1.75-0.3281,2.9941c0.6289,0.2051,1.2612,0.3936,1.897,0.5645
		s1.2339,0.2969,1.7944,0.3789c0-0.4922-0.1709-1.0938-0.5127-1.8047s-0.5127-1.1758-0.5127-1.3945
		c0-0.1641,0.0239-0.3213,0.0718-0.4717s0.1606-0.3486,0.3384-0.5947l1.9277-2.748c0.3691,0.8613,0.6323,1.6445,0.7896,2.3477
		c0.1572,0.7051,0.2358,1.583,0.2358,2.6357V603.3066z"/>
	<path fill="#4B5666" d="M273.1562,603.7988c0,0.834-0.4785,1.9375-1.4355,3.3125c-0.957,1.373-2.0781,2.5664-3.3633,3.5781
		c-1.4219,1.1211-2.6387,1.6816-3.6504,1.6816c-1.2031,0-2.4951-0.3418-3.876-1.0254c-1.2031-0.5879-3.083-1.7637-5.6396-3.5273
		l0.8613-1.2715c1.2305,0.8203,2.2217,1.374,2.9736,1.6611s1.5654,0.4307,2.4404,0.4307c0.9434,0,1.8867-0.2666,2.8301-0.7998
		s2.2285-1.5244,3.8555-2.9736c2.2695-2.0234,3.4043-3.582,3.4043-4.6758c0-0.5469-0.2188-1.2646-0.6562-2.1533
		c-0.4922-1.0117-1.0938-1.8525-1.8047-2.5225l1.1484-5.5371c0.9297,0.957,1.6475,2.0576,2.1533,3.3018s0.7588,2.6592,0.7588,4.2451
		V603.7988z"/>
	<path fill="#4B5666" d="M297.2939,593.3398c0,0.752-0.0752,1.374-0.2256,1.8662s-0.4717,1.1416-0.9639,1.9482
		c-0.3691-0.9707-0.6802-1.6025-0.9331-1.8965s-0.6187-0.4414-1.0972-0.4414c-0.7383,0-1.7534,0.4199-3.0454,1.2617
		c-1.292,0.8398-1.938,1.5479-1.938,2.1221c0,0.3008,0.2598,0.5127,0.7793,0.6357c0.3691,0.082,0.9434,0.123,1.7227,0.123
		c0.2051,0,0.4067,0,0.605,0s0.3999-0.0068,0.605-0.0205c1.4902,0,2.4814,0.1504,2.9736,0.4512
		c0.4238,0.2598,0.6357,0.7656,0.6357,1.5176c0,1.4766-0.2734,2.8916-0.8203,4.2451c-0.6836,1.709-1.6748,2.9258-2.9736,3.6504
		c-1.627,0.916-3.3188,1.6543-5.0757,2.2148s-3.394,0.8408-4.9116,0.8408c-4.252,0-6.3779-1.9072-6.3779-5.7217
		c0-1.9277,0.2393-3.5889,0.7178-4.9834c0.5332-1.5586,1.6611-3.6709,3.3838-6.3369l0.9434,0.6152
		c-1.0117,1.709-1.7705,3.2305-2.2764,4.5625c-0.5059,1.334-0.7588,2.499-0.7588,3.4971c0,2.584,1.4561,3.876,4.3682,3.876
		c1.0938,0,2.1328-0.0986,3.1172-0.2969s1.9824-0.4756,2.9941-0.8311c0.6562-0.2324,1.4082-0.5332,2.2559-0.9023
		c1.3535-0.6016,2.0713-0.9229,2.1533-0.9639c0.6152-0.3281,0.9229-0.6221,0.9229-0.8818c0-0.1367-0.3315-0.2217-0.9946-0.2568
		c-0.6631-0.0332-1.1313-0.0508-1.4048-0.0508c-2.1055,0-3.5137-0.3008-4.2246-0.9023c-0.5742-0.4922-0.8613-1.4014-0.8613-2.7275
		c0-0.6289,0.2017-1.4219,0.605-2.3789s0.9331-1.9072,1.5894-2.8506c0.998-1.4355,1.9961-2.5225,2.9941-3.2607
		s1.9756-1.1074,2.9326-1.1074c0.793,0,1.4219,0.3076,1.8867,0.9229S297.2939,592.3145,297.2939,593.3398z M291.8594,613.6016
		l-1.5176,2.7891l-3.1582-1.5996l-1.5176,2.707l-3.1582-1.6816l1.5586-2.8301l3.0762,1.5996l1.5176-2.625L291.8594,613.6016z"/>
	<path fill="#4B5666" d="M322.7031,613.0684l-7.752,4.7988l-2.0918,0.041c-3.8145,0-6.6958-0.8174-8.644-2.4512
		s-2.9224-4.0293-2.9224-7.1875c0-2.0371,0.2666-3.835,0.7998-5.3936c0.6016-1.7637,1.5654-3.3018,2.8916-4.6143
		c-0.6836-0.7793-1.2852-1.6816-1.8047-2.707s-0.7793-1.8594-0.7793-2.502c0-0.7793,0.2939-1.9414,0.8818-3.4863
		s1.1689-2.6387,1.7432-3.2812c0.4648-0.5879,1.1655-1.0566,2.1021-1.4043c0.9365-0.3496,1.9448-0.5234,3.0249-0.5234
		c1.5039,0,2.8916,0.3457,4.1631,1.0352c1.2715,0.6914,2.3447,1.6855,3.2197,2.9844c-0.4102,0-0.7998-0.0068-1.1689-0.0205
		s-0.7588-0.0342-1.1689-0.0615c-2.8301,0-5.1167,0.2256-6.8599,0.6768s-2.6147,1.0459-2.6147,1.7842
		c0,0.5742,0.3008,1.1484,0.9023,1.7227c0.7109,0.6836,1.8594,1.3672,3.4453,2.0508c1.8867-0.8203,3.3359-1.3906,4.3477-1.7129
		c1.0117-0.3203,2.584-0.7207,4.7168-1.1992c-0.3828,1.1895-0.6768,2.0576-0.8818,2.6045
		c-0.2461,0.6289-0.6084,1.4424-1.0869,2.4404c-4.1562,0.9844-7.4512,2.3584-9.8848,4.1221s-3.6504,3.6436-3.6504,5.6396
		c0,1.873,1.0459,3.3086,3.1377,4.3066c2.3926,1.1484,6.1455,1.7227,11.2588,1.7227h0.4922c0.8066,0,1.3979-0.0098,1.7739-0.0312
		c0.376-0.0195,1.0562-0.0781,2.0405-0.1738L322.7031,613.0684z"/>
	<path fill="#4B5666" d="M330.5371,597.3594c0,1.2168-0.1436,2.3281-0.4307,3.332c-0.2871,1.0059-0.8408,2.3555-1.6611,4.0508
		l-1.2305-0.4922c0.3281-1.75,0.4922-3.1719,0.4922-4.2656c0-0.834-0.0684-2.0576-0.2051-3.6709s-0.3076-3.21-0.5127-4.7881
		c-0.2051-1.5801-0.54-3.4629-1.0049-5.6504c-0.1641-0.7656-0.2461-1.292-0.2461-1.5791c0-0.4238,0.2119-1.1445,0.6357-2.1631
		s1.0186-2.2529,1.7842-3.7021l1.2305,7.2598c0.4512,2.7617,0.7656,5.1543,0.9434,7.1777
		C330.4688,594.4268,330.5371,595.9238,330.5371,597.3594z"/>
	<path fill="#4B5666" d="M340.5039,573.3242c0,0.6289-0.3486,1.2373-1.0459,1.8252c-1.2441,0.5059-3.2334,1.3057-5.9678,2.3994
		c0-0.5879,0.3008-1.1553,0.9023-1.7021C335.5273,575.3682,337.5645,574.5273,340.5039,573.3242z M340.5039,576.4004
		c0,0.6562-0.3418,1.2783-1.0254,1.8662c-1.2578,0.5059-3.2539,1.3057-5.9883,2.3994c0-0.5879,0.3008-1.1553,0.9023-1.7021
		C335.5273,578.4854,337.5645,577.6309,340.5039,576.4004z"/>
	<path fill="#4B5666" d="M82.7002,652.3125c0,2.3516-0.998,4.6758-2.9941,6.9727s-3.9648,3.4453-5.9062,3.4453
		c-1.1348,0-2.3755-0.3623-3.7222-1.0869s-3.4146-2.1533-6.2036-4.2861l0.8613-1.1895c1.4766,0.9844,2.6865,1.6406,3.6299,1.9688
		c0.7793,0.2734,1.6611,0.4102,2.6455,0.4102c1.3262,0,2.6387-0.3691,3.9375-1.1074c1.5312-0.875,3.1172-2.2832,4.7578-4.2246
		c-0.5742,0.082-1.0527,0.123-1.4355,0.123c-1.3535,0-2.4302-0.4414-3.23-1.3223c-0.7998-0.8828-1.1997-2.082-1.1997-3.5996
		c0-2.0508,0.4717-4.0264,1.415-5.9268c1.0254-2.0645,2.1943-3.0967,3.5068-3.0967c1.0938,0,2.0234,0.7451,2.7891,2.2354
		s1.1484,3.2881,1.1484,5.3936V652.3125z M80.2393,648.1494c-0.3828-2.2012-1.1621-3.3018-2.3379-3.3018
		c-0.4238,0-0.7622,0.168-1.0151,0.502c-0.2529,0.3359-0.3794,0.7012-0.3794,1.0977c0,0.4922,0.27,0.8994,0.8101,1.2207
		s1.2544,0.4814,2.1431,0.4814H80.2393z"/>
	<path fill="#4B5666" d="M109.9756,653.7275H92.7695c-1.6543,0-2.7515-0.0273-3.2915-0.082s-1.1245-0.1982-1.7534-0.4307
		c-1.1211-0.3828-2.0439-1.1621-2.7686-2.3379s-1.0869-2.4883-1.0869-3.9375c0-0.5605,0.0273-1.0625,0.082-1.5078
		c0.0547-0.4434,0.1641-0.9668,0.3281-1.5684c0.2324-0.8887,0.4922-1.6338,0.7793-2.2354s0.793-1.415,1.5176-2.4404l1.1484,0.8203
		c-0.5879,1.0801-0.9878,1.9346-1.1997,2.5635s-0.3179,1.251-0.3179,1.8662c0,0.7793,0.2495,1.4805,0.7485,2.1016
		c0.499,0.623,1.1519,1.0293,1.9585,1.2207c0.4785,0.123,1.104,0.2188,1.8765,0.2871s1.5825,0.1025,2.4302,0.1025h14.8271
		c-0.3828-1.0391-0.6973-1.7773-0.9434-2.2148c-0.2871-0.5195-0.752-1.1826-1.3945-1.9893l1.8457-4.7578
		c1.0254,1.4629,1.6953,2.8027,2.0098,4.0195c0.2734,1.0664,0.4102,2.6387,0.4102,4.7168V653.7275z M102.7363,634.2656
		l-2.2559,4.1836l-2.9121-1.6406l-1.6406,3.2402l-3.8145-2.0918l2.1328-3.9785l3.0352,1.5176l1.7227-3.3223L102.7363,634.2656z"/>
	<path fill="#4B5666" d="M132.4521,663.4688l-7.752,4.7988l-2.0918,0.041c-3.8145,0-6.6958-0.8174-8.644-2.4512
		s-2.9224-4.0293-2.9224-7.1875c0-2.0371,0.2666-3.835,0.7998-5.3936c0.6016-1.7637,1.5654-3.3018,2.8916-4.6143
		c-0.6836-0.7793-1.2852-1.6816-1.8047-2.707s-0.7793-1.8594-0.7793-2.502c0-0.7793,0.2939-1.9414,0.8818-3.4863
		s1.1689-2.6387,1.7432-3.2812c0.4648-0.5879,1.1655-1.0566,2.1021-1.4043c0.9365-0.3496,1.9448-0.5234,3.0249-0.5234
		c1.5039,0,2.8916,0.3457,4.1631,1.0352c1.2715,0.6914,2.3447,1.6855,3.2197,2.9844c-0.4102,0-0.7998-0.0068-1.1689-0.0205
		s-0.7588-0.0342-1.1689-0.0615c-2.8301,0-5.1167,0.2256-6.8599,0.6768s-2.6147,1.0459-2.6147,1.7842
		c0,0.5742,0.3008,1.1484,0.9023,1.7227c0.7109,0.6836,1.8594,1.3672,3.4453,2.0508c1.8867-0.8203,3.3359-1.3906,4.3477-1.7129
		c1.0117-0.3203,2.584-0.7207,4.7168-1.1992c-0.3828,1.1895-0.6768,2.0576-0.8818,2.6045
		c-0.2461,0.6289-0.6084,1.4424-1.0869,2.4404c-4.1562,0.9844-7.4512,2.3584-9.8848,4.1221s-3.6504,3.6436-3.6504,5.6396
		c0,1.873,1.0459,3.3086,3.1377,4.3066c2.3926,1.1484,6.1455,1.7227,11.2588,1.7227h0.4922c0.8066,0,1.3979-0.0098,1.7739-0.0312
		c0.376-0.0195,1.0562-0.0781,2.0405-0.1738L132.4521,663.4688z"/>
	<path fill="#4B5666" d="M151.6475,653.2148c0,2.1055-1.0938,3.9717-3.2812,5.5986s-4.6826,2.4404-7.4854,2.4404
		c-2.3379,0-4.1665-0.5918-5.4858-1.7734c-1.3193-1.1826-1.979-2.834-1.979-4.9531c0-1.9824,0.2461-3.7119,0.7383-5.1885
		c0.5605-1.668,1.6543-3.7119,3.2812-6.1318l1.2715,0.8613c-1.0664,1.5996-1.8252,2.9873-2.2764,4.1631
		s-0.6768,2.3447-0.6768,3.5068c0,1.2441,0.4614,2.2051,1.3843,2.8809c0.9229,0.6777,2.2251,1.0156,3.9067,1.0156
		c2.4062,0,4.3613-0.4648,5.8652-1.3945s2.2559-2.1465,2.2559-3.6504c0-0.2598,0-0.4648,0-0.6152s0-0.2666,0-0.3486
		c0-0.5332-0.0444-1.1211-0.1333-1.7637s-0.3179-1.9688-0.687-3.9785c-0.5879-3.2402-1.1758-6.4873-1.7637-9.7412l-1.0254-0.7383
		c0-1.3398,0.6289-3.3906,1.8867-6.1523l0.9434,0.4512c-0.0547,0.1914-0.082,0.4102-0.082,0.6562
		c0,0.5469,0.2803,0.9912,0.8408,1.333c0.834,0.4648,1.6201,0.9092,2.3584,1.333c-0.1504,1.1758-0.3008,2.0166-0.4512,2.5225
		s-0.4648,1.2646-0.9434,2.2764l-0.6152-0.2461c0,0.2051,0.1948,1.3711,0.5845,3.4961c0.3896,2.127,0.7212,3.9619,0.9946,5.5068
		c0.3828,2.2148,0.5742,3.5615,0.5742,4.04V653.2148z"/>
	<path fill="#4B5666" d="M166.7822,653.7275l-2.666-0.0205c-2.502,0-4.7168,0.2119-6.6445,0.6357s-2.8916,0.9092-2.8916,1.4561
		c0.5332,1.6406,1.0083,3.1787,1.4253,4.6143s0.6255,2.7959,0.6255,4.0811c0,0.9297-0.0923,1.6816-0.2769,2.2559
		s-0.5298,1.2031-1.0356,1.8867c-0.1504-1.8047-0.4854-3.6982-1.0049-5.6807c-0.1777-0.6973-0.6221-2.167-1.333-4.4092
		c-0.4375-1.3809-0.6562-2.2969-0.6562-2.748c0-0.6426,0.1777-1.4424,0.5332-2.3994c0.2871-0.7793,0.6152-1.4697,0.9844-2.0713
		c0.4375-0.6836,1.1997-1.2236,2.2866-1.6201s2.7446-0.7178,4.9731-0.9639c-1.0938-1.5312-2.0508-2.2969-2.8711-2.2969
		c-0.3555,0-0.6904,0.1367-1.0049,0.4102s-0.8271,0.875-1.5381,1.8047l-0.9844-0.4922c0.6016-2.0918,1.3433-3.7012,2.2251-4.8301
		c0.8818-1.127,1.8491-1.6914,2.9019-1.6914c0.916,0,1.9346,0.5264,3.0557,1.5791s2.4199,2.6934,3.8965,4.9219V653.7275z"/>
	<path fill="#4B5666" d="M205.7266,653.7275h-17.2061c-1.6543,0-2.7515-0.0273-3.2915-0.082s-1.1245-0.1982-1.7534-0.4307
		c-1.1211-0.3828-2.0439-1.1621-2.7686-2.3379s-1.0869-2.4883-1.0869-3.9375c0-0.5605,0.0273-1.0625,0.082-1.5078
		c0.0547-0.4434,0.1641-0.9668,0.3281-1.5684c0.2324-0.8887,0.4922-1.6338,0.7793-2.2354s0.793-1.415,1.5176-2.4404l1.1484,0.8203
		c-0.5879,1.0801-0.9878,1.9346-1.1997,2.5635s-0.3179,1.251-0.3179,1.8662c0,0.7793,0.2495,1.4805,0.7485,2.1016
		c0.499,0.623,1.1519,1.0293,1.9585,1.2207c0.4785,0.123,1.104,0.2188,1.8765,0.2871s1.5825,0.1025,2.4302,0.1025h14.8271
		c-0.3828-1.0391-0.6973-1.7773-0.9434-2.2148c-0.2871-0.5195-0.752-1.1826-1.3945-1.9893l1.8457-4.7578
		c1.0254,1.4629,1.6953,2.8027,2.0098,4.0195c0.2734,1.0664,0.4102,2.6387,0.4102,4.7168V653.7275z M197.708,658.0547
		l-2.4609,4.5938l-4.7578-2.584l2.4609-4.6758L197.708,658.0547z"/>
	<path fill="#4B5666" d="M213.3145,647.7598c0,1.2168-0.1436,2.3281-0.4307,3.332c-0.2871,1.0059-0.8408,2.3555-1.6611,4.0508
		l-1.2305-0.4922c0.3281-1.75,0.4922-3.1719,0.4922-4.2656c0-0.834-0.0684-2.0576-0.2051-3.6709s-0.3076-3.21-0.5127-4.7881
		c-0.2051-1.5801-0.54-3.4629-1.0049-5.6504c-0.1641-0.7656-0.2461-1.292-0.2461-1.5791c0-0.4238,0.2119-1.1445,0.6357-2.1631
		s1.0186-2.2529,1.7842-3.7021l1.2305,7.2598c0.4512,2.7617,0.7656,5.1543,0.9434,7.1777
		C213.2461,644.8271,213.3145,646.3242,213.3145,647.7598z"/>
	<path fill="#4B5666" d="M233.7812,653.2148c0,2.1055-1.0938,3.9717-3.2812,5.5986s-4.6826,2.4404-7.4854,2.4404
		c-2.3379,0-4.1665-0.5918-5.4858-1.7734c-1.3193-1.1826-1.979-2.834-1.979-4.9531c0-1.9824,0.2461-3.7119,0.7383-5.1885
		c0.5605-1.668,1.6543-3.7119,3.2812-6.1318l1.2715,0.8613c-1.0664,1.5996-1.8252,2.9873-2.2764,4.1631
		s-0.6768,2.3447-0.6768,3.5068c0,1.2441,0.4614,2.2051,1.3843,2.8809c0.9229,0.6777,2.2251,1.0156,3.9067,1.0156
		c2.4062,0,4.3613-0.4648,5.8652-1.3945s2.2559-2.1465,2.2559-3.6504c0-0.2598,0-0.4648,0-0.6152s0-0.2666,0-0.3486
		c0-0.5332-0.0444-1.1211-0.1333-1.7637s-0.3179-1.9688-0.687-3.9785c-0.5879-3.2402-1.1758-6.4873-1.7637-9.7412l-1.0254-0.7383
		c0-1.3398,0.6289-3.3906,1.8867-6.1523l0.9434,0.4512c-0.0547,0.1914-0.082,0.4102-0.082,0.6562
		c0,0.5469,0.2803,0.9912,0.8408,1.333c0.834,0.4648,1.6201,0.9092,2.3584,1.333c-0.1504,1.1758-0.3008,2.0166-0.4512,2.5225
		s-0.4648,1.2646-0.9434,2.2764l-0.6152-0.2461c0,0.2051,0.1948,1.3711,0.5845,3.4961c0.3896,2.127,0.7212,3.9619,0.9946,5.5068
		c0.3828,2.2148,0.5742,3.5615,0.5742,4.04V653.2148z"/>
	<path fill="#4B5666" d="M261.0566,653.7275h-17.2061c-1.6543,0-2.7515-0.0273-3.2915-0.082s-1.1245-0.1982-1.7534-0.4307
		c-1.1211-0.3828-2.0439-1.1621-2.7686-2.3379s-1.0869-2.4883-1.0869-3.9375c0-0.5605,0.0273-1.0625,0.082-1.5078
		c0.0547-0.4434,0.1641-0.9668,0.3281-1.5684c0.2324-0.8887,0.4922-1.6338,0.7793-2.2354s0.793-1.415,1.5176-2.4404l1.1484,0.8203
		c-0.5879,1.0801-0.9878,1.9346-1.1997,2.5635s-0.3179,1.251-0.3179,1.8662c0,0.7793,0.2495,1.4805,0.7485,2.1016
		c0.499,0.623,1.1519,1.0293,1.9585,1.2207c0.4785,0.123,1.104,0.2188,1.8765,0.2871s1.5825,0.1025,2.4302,0.1025h14.8271
		c-0.3828-1.0391-0.6973-1.7773-0.9434-2.2148c-0.2871-0.5195-0.752-1.1826-1.3945-1.9893l1.8457-4.7578
		c1.0254,1.4629,1.6953,2.8027,2.0098,4.0195c0.2734,1.0664,0.4102,2.6387,0.4102,4.7168V653.7275z M253.8174,634.2656
		l-2.2559,4.1836l-2.9121-1.6406l-1.6406,3.2402l-3.8145-2.0918l2.1328-3.9785l3.0352,1.5176l1.7227-3.3223L253.8174,634.2656z"/>
	<path fill="#4B5666" d="M284.6816,663.3867l-7.916,4.8809c-4.8672,0-8.4492-0.9297-10.7461-2.7891
		c-2.3516-1.9141-3.5273-4.9219-3.5273-9.0234c0-2.8301,0.5605-5.3281,1.6816-7.4961c1.1211-2.166,2.8984-4.1113,5.332-5.834
		c-1.627,0-3.0625,0.2393-4.3066,0.7178c-0.4512,0.1777-1.4766,0.6357-3.0762,1.374c0.6562-5.0859,3.0762-7.6289,7.2598-7.6289
		c0.6289,0,1.6611,0.0723,3.0967,0.2148c1.4355,0.1445,2.7002,0.25,3.7939,0.3184c2.0781,0.1367,4.1289,0.2051,6.1523,0.2051
		l-1.2305,5.0449c-5.2363,0.6562-9.2319,1.918-11.9868,3.7832c-2.7549,1.8672-4.1323,4.2559-4.1323,7.168
		c0,2.7344,1.1313,4.8262,3.394,6.2754s5.52,2.1738,9.772,2.1738c0.1094,0,1.1416-0.0615,3.0967-0.1846
		c1.0801-0.0684,2.0576-0.1025,2.9326-0.1025L284.6816,663.3867z M278.1602,652.4766l-2.4609,4.7168l-4.7988-2.666l2.543-4.6758
		L278.1602,652.4766z"/>
	<path fill="#4B5666" d="M303.4668,654.1992c0,0.834-0.4785,1.9375-1.4355,3.3125c-0.957,1.373-2.0781,2.5664-3.3633,3.5781
		c-1.4219,1.1211-2.6387,1.6816-3.6504,1.6816c-1.2031,0-2.4951-0.3418-3.876-1.0254c-1.2031-0.5879-3.083-1.7637-5.6396-3.5273
		l0.8613-1.2715c1.2305,0.8203,2.2217,1.374,2.9736,1.6611s1.5654,0.4307,2.4404,0.4307c0.9434,0,1.8867-0.2666,2.8301-0.7998
		s2.2285-1.5244,3.8555-2.9736c2.2695-2.0234,3.4043-3.582,3.4043-4.6758c0-0.5469-0.2188-1.2646-0.6562-2.1533
		c-0.4922-1.0117-1.0938-1.8525-1.8047-2.5225l1.1484-5.5371c0.9297,0.957,1.6475,2.0576,2.1533,3.3018s0.7588,2.6592,0.7588,4.2451
		V654.1992z"/>
	<path fill="#4B5666" d="M330.7422,653.7275h-17.2061c-1.6543,0-2.7515-0.0273-3.2915-0.082s-1.1245-0.1982-1.7534-0.4307
		c-1.1211-0.3828-2.0439-1.1621-2.7686-2.3379s-1.0869-2.4883-1.0869-3.9375c0-0.5605,0.0273-1.0625,0.082-1.5078
		c0.0547-0.4434,0.1641-0.9668,0.3281-1.5684c0.2324-0.8887,0.4922-1.6338,0.7793-2.2354s0.793-1.415,1.5176-2.4404l1.1484,0.8203
		c-0.5879,1.0801-0.9878,1.9346-1.1997,2.5635s-0.3179,1.251-0.3179,1.8662c0,0.7793,0.2495,1.4805,0.7485,2.1016
		c0.499,0.623,1.1519,1.0293,1.9585,1.2207c0.4785,0.123,1.104,0.2188,1.8765,0.2871s1.5825,0.1025,2.4302,0.1025h14.8271
		c-0.3828-1.0391-0.6973-1.7773-0.9434-2.2148c-0.2871-0.5195-0.752-1.1826-1.3945-1.9893l1.8457-4.7578
		c1.0254,1.4629,1.6953,2.8027,2.0098,4.0195c0.2734,1.0664,0.4102,2.6387,0.4102,4.7168V653.7275z M322.7236,658.0547
		l-2.4609,4.5938l-4.7578-2.584l2.4609-4.6758L322.7236,658.0547z"/>
	<path fill="#4B5666" d="M342.4727,629.7744l-2.2559,4.1836l-2.9121-1.6406l-1.6406,3.2402l-3.8145-2.0918l2.1328-3.9785
		l3.0352,1.5176l1.7227-3.3223L342.4727,629.7744z M343.498,646.0371c0,0.8203-0.0649,1.6504-0.1948,2.4922
		c-0.1299,0.8398-0.2974,1.5273-0.5024,2.0605c-0.3828,1.0391-1.3262,1.9551-2.8301,2.748
		c-1.3945,0.7383-2.707,1.1074-3.9375,1.1074c-1.0664,0-1.9141-0.3691-2.543-1.1074s-0.9434-1.7227-0.9434-2.9531
		c0-1.1211,0.1606-2.2217,0.4819-3.3018s0.8989-2.4404,1.7329-4.0811l-0.7383-0.4922c0.2324-0.6289,0.5469-1.3906,0.9434-2.2871
		c0.3965-0.8945,0.752-1.6504,1.0664-2.2656l2.0098,1.1895c0.875,0.5332,1.709,1.1074,2.502,1.7227
		c1.1211,0.8477,1.8936,1.6445,2.3174,2.3887C343.2861,644.0039,343.498,644.9297,343.498,646.0371z M340.4629,647.6777
		c0-0.2598-0.4751-0.7998-1.4253-1.6201s-1.8833-1.5244-2.7993-2.1123c-0.875,1.3809-1.3125,2.5293-1.3125,3.4453
		c0,0.4375,0.1812,0.8135,0.5435,1.1279s0.7964,0.4717,1.3022,0.4717c0.6836,0,1.4697-0.1602,2.3584-0.4824
		C340.0186,648.1875,340.4629,647.9102,340.4629,647.6777z"/>
</g>
<path fill="#4B5666" d="M601.2812,88.3311c-9.9111,0-22.7549,5.8418-25.2822,15.6758l-0.002-0.002v0.002
	c-2.5273-9.834-15.3711-15.6758-25.2803-15.6758c-19.543,0-35.3936,15.1689-35.3936,35.3936
	c0,23.7969,14.0713,38.3584,29.4102,50.1758c9.2012,7.0898,29.6221,23.1357,31.2383,23.1357c0.0098,0,0.0176-0.002,0.0254-0.002
	s0.0176,0.002,0.0254,0.002c1.6172,0,22.0391-16.0459,31.2402-23.1357c15.3379-11.8174,29.4121-26.3789,29.4121-50.1758
	C636.6748,103.5,620.8242,88.3311,601.2812,88.3311z M536.9883,104.3398c-6.1104,4.5195-9.6162,11.585-9.6162,19.3848
	c0,1.2871-1.041,2.3301-2.3281,2.3301s-2.3301-1.043-2.3301-2.3301c0-9.293,4.1924-17.7227,11.5039-23.1299
	c1.0332-0.7656,2.4902-0.5469,3.2568,0.4873C538.2402,102.1162,538.0205,103.5762,536.9883,104.3398z"/>
<path fill-rule="evenodd" clip-rule="evenodd" fill="#4B5666" d="M244.1167,518.4824c0,14.9453-8.2681,27.9512-20.4751,34.7139
	c0,0-1.4834,0.8496-3.417,1.1836c-1.8804,0.3242-3.2686,0.3857-3.2686,0.3857h-12.5103h-12.5083c0,0-1.3901-0.0615-3.271-0.3857
	c-1.9331-0.334-3.4165-1.1836-3.4165-1.1836c-12.207-6.7627-20.4751-19.7686-20.4751-34.7139
	c0-16.502,10.0776-30.6465,24.4126-36.625v-22.5342c-1.9492,0-3.5293-1.5801-3.5293-3.5273v-6.207
	c0-1.9492,1.5801-3.5283,3.5293-3.5283h30.5166c1.9492,0,3.5298,1.5791,3.5298,3.5283v6.207c0,1.9473-1.5806,3.5273-3.5298,3.5273
	v22.5342C234.0391,487.8359,244.1167,501.9805,244.1167,518.4824z M214.6543,448.458h-20.4155
	c-1.2866,0-2.3296,1.0439-2.3296,2.3301c0,1.2871,1.043,2.3291,2.3296,2.3291h20.4155c1.2866,0,2.3306-1.042,2.3306-2.3291
	C216.9849,449.502,215.9409,448.458,214.6543,448.458z M216.9092,488.5605c-2.7051-1.1279-4.4683-3.7725-4.4683-6.7031v-22.5342
	h-15.9902v22.5342c0,2.9307-1.7622,5.5752-4.4678,6.7031c-12.1147,5.0537-19.9453,16.7998-19.9453,29.9219
	c0,11.7744,6.4092,22.6406,16.7266,28.3584c0.1572,0.0791,0.6587,0.2988,1.1396,0.3828c1.0723,0.1846,1.9355,0.2559,2.2476,0.2783
	h12.2944h12.2974c0.2939-0.0205,1.1636-0.0918,2.2471-0.2793c0.481-0.083,0.979-0.3027,1.1372-0.3818
	c10.3169-5.7178,16.7266-16.584,16.7266-28.3584C236.854,505.3604,229.0254,493.6143,216.9092,488.5605z M232.1948,518.4824
	c0,10.0059-5.4043,19.2441-14.124,24.1709c-0.6709,0.1104-1.2261,0.167-1.5117,0.1895h-24.2319
	c-0.2642-0.0215-0.8242-0.0771-1.5029-0.1895c-8.7207-4.9258-14.1289-14.165-14.1289-24.1709c0-3.5225,0.6699-6.8936,1.873-9.998
	h51.7563C231.5283,511.5889,232.1948,514.96,232.1948,518.4824z M196.0107,534.2666c-5.9766-3.7871-9.6782-10.4834-9.6782-17.5488
	c0-1.2871-1.0425-2.3291-2.3296-2.3291c-1.2856,0-2.3301,1.042-2.3301,2.3291c0,8.7676,4.6533,17.0723,12.1426,21.6699
	l0.4751,0.2764l0.6968,0.0752c0.0674,0.0059,0.1348,0.0088,0.2026,0.0088c1.1914,0,2.1646-0.9199,2.2695-2.1318
	C197.5488,535.5859,196.9238,534.6523,196.0107,534.2666z"/>
<path fill="#4B5666" d="M618.3379,831.3232h-84.6797c-1.9414,0-3.5186,1.5752-3.5186,3.5166l0.0039,32.6309
	c0,0.0029,0.002,0.0078,0.002,0.0117c0,9.8008,0,19.6309,0,22.917c0,7.2842,2.458,17.7812,11.8701,28.3242
	c13.4854,15.1035,33.9863,21.3076,33.9863,21.3076s20.501-6.2041,33.9863-21.3076c9.4121-10.543,11.8701-21.04,11.8701-28.3242
	c0-3.2861,0-13.1162,0-22.917c0-0.0039,0.002-0.0088,0.002-0.0117l-0.0049-32.6309
	C621.8555,832.8984,620.2793,831.3232,618.3379,831.3232z M551.249,914.3662c-0.4443,0.3955-0.999,0.5898-1.5498,0.5898
	c-0.6416,0-1.2793-0.2627-1.7393-0.7783c-9.2373-10.3447-10.6162-20.126-10.6162-25.0361c0-1.2861,1.042-2.3301,2.3281-2.3301
	c1.2871,0,2.3311,1.0439,2.3311,2.3301c0,4.2461,1.2246,12.7412,9.4326,21.9346C552.292,912.0352,552.207,913.5078,551.249,914.3662
	z M614.5967,867.3564c-0.001,0.041-0.001,0.084-0.001,0.126v22.917c0,4.5781-1.3037,13.7168-10.0244,23.4863
	c-9.5215,10.665-23.334,16.5176-28.5693,18.4619l-0.0039-93.7617h38.5947L614.5967,867.3564z"/>
<path fill-rule="evenodd" clip-rule="evenodd" fill="#4B5666" d="M1011.5254,487.6035c-0.1602,0-0.3301-0.0117-0.5098-0.0381
	l-6.7881-0.9492l-0.001,49.5664c0,1.9404-1.5312,3.9492-3.4014,4.4658l-49.8701,13.7334c-0.9346,0.2568-2.1689,0.3877-3.4014,0.3877
	c-1.2344,0-2.4658-0.1309-3.4023-0.3877l-49.8672-13.7334c-1.873-0.5166-3.4023-2.5254-3.4023-4.4658l0.001-49.5664l-6.791,0.9492
	c-0.1787,0.0264-0.3477,0.0381-0.5078,0.0381c-1.5664,0-2.2471-1.1543-1.5117-2.7529l9.543-20.7812
	c0.8105-1.7627,3.002-3.6299,4.875-4.1445l49.8682-13.7363c0.3125-0.0859,0.6025-0.1279,0.8672-0.1279
	c0.1182,0,0.2236,0.0176,0.3291,0.0342c0.1064-0.0166,0.2109-0.0342,0.3281-0.0342c0.2656,0,0.5557,0.042,0.8672,0.1279
	l49.8691,13.7363c1.8721,0.5146,4.0654,2.3818,4.876,4.1445l9.543,20.7812
	C1013.7734,486.4492,1013.0928,487.6035,1011.5254,487.6035z M898.4482,530.5283c0,1.2861,1.043,2.3281,2.3291,2.3281
	c1.2871,0,2.3291-1.042,2.3291-2.3281v-22.2285c0-1.2871-1.042-2.3291-2.3291-2.3291c-1.2861,0-2.3291,1.042-2.3291,2.3291V530.5283
	z M897.7256,464.416c-0.5508,0.1533-1.6387,1.0801-1.8779,1.5977l-7.4609,16.2461l46.6182-6.5381
	c0.2393-0.0791,0.6523-0.4346,0.7666-0.6572l7.0557-23.0732L897.7256,464.416z M947.9473,478.5869l-0.3926-1.2852v68.8408
	c0.8145,0,1.3506-0.0938,1.4736-0.126l47.9365-13.2021v-39.8848l-38.5527-5.4092
	C953.7344,486.8652,949.332,483.1074,947.9473,478.5869z M999.2617,466.0137c-0.2393-0.5176-1.3281-1.4443-1.8789-1.5977
	l-45.1016-12.4248l7.0566,23.0732c0.1133,0.2227,0.5273,0.5781,0.7666,0.6572l46.6172,6.5381L999.2617,466.0137z"/>
</svg>
