<?xml version="1.0" encoding="utf-8"?>
<!-- Generator: Adobe Illustrator 15.0.2, SVG Export Plug-In . SVG Version: 6.00 Build 0)  -->
<!DOCTYPE svg PUBLIC "-//W3C//DTD SVG 1.1//EN" "http://www.w3.org/Graphics/SVG/1.1/DTD/svg11.dtd">
<svg version="1.1" id="Layer_1" xmlns="http://www.w3.org/2000/svg" xmlns:xlink="http://www.w3.org/1999/xlink" x="0px" y="0px"
	 width="1152px" height="1152.001px" viewBox="0 0 1152 1152.001" enable-background="new 0 0 1152 1152.001" xml:space="preserve">
<circle fill="#4B5666" cx="576" cy="576" r="576"/>
<g>
	<path fill="#FBD35C" d="M188.2964,188.29c214.2964-214.2959,561.1108-214.293,775.4106,0.0078L576.0049,575.999L188.2964,188.29z"
		/>
</g>
<g>
	<path fill="#A4D970" d="M963.71,188.293c214.2979,214.2979,214.293,561.1104-0.0068,775.4092L576.002,576.001L963.71,188.293z"/>
</g>
<g>
	<path fill="#9EBEED" d="M963.7031,963.709c-214.2959,214.2988-561.1104,214.293-775.4102-0.0068L575.9951,576.001L963.7031,963.709
		z"/>
</g>
<g>
	<path fill="#FA7977" d="M188.2896,963.707c-214.2959-214.2979-214.2925-561.1104,0.0068-775.4092L575.999,575.999L188.2896,963.707
		z"/>
</g>
<circle fill="#4B5666" cx="576" cy="576" r="194.6777"/>
<g>
	<path fill="#FFFFFF" d="M466.7227,560.9141l-15.0771-39.3945h-0.2432c0.2842,3.1211,0.4258,6.8301,0.4258,11.127v28.2676h-4.7725
		v-44.4395h7.7822l14.0732,36.6582h0.2432l14.1953-36.6582h7.7207v44.4395h-5.167v-28.6328c0-3.2832,0.1416-6.8496,0.4258-10.6992
		h-0.2432l-15.1992,39.332H466.7227z"/>
	<path fill="#FFFFFF" d="M541.833,538.6328c0,7.1133-1.7988,12.707-5.3955,16.7793c-3.5977,4.0742-8.5977,6.1113-15.001,6.1113
		c-6.5459,0-11.5967-2.002-15.1533-6.0039c-3.5557-4.002-5.334-9.6523-5.334-16.9473c0-7.2344,1.7832-12.8418,5.3496-16.8242
		s8.6328-5.9727,15.1982-5.9727c6.3838,0,11.3682,2.0273,14.9551,6.0801S541.833,531.5,541.833,538.6328z M506.4209,538.6328
		c0,6.0195,1.2812,10.584,3.8447,13.6953c2.5635,3.1094,6.2871,4.666,11.1709,4.666c4.9238,0,8.6426-1.5508,11.1553-4.6523
		c2.5127-3.0996,3.7695-7.6699,3.7695-13.709c0-5.9766-1.252-10.5117-3.7539-13.6016c-2.5029-3.0898-6.2061-4.6348-11.1104-4.6348
		c-4.9238,0-8.668,1.5547-11.2314,4.666C507.7021,528.1719,506.4209,532.6973,506.4209,538.6328z"/>
	<path fill="#FFFFFF" d="M587.2148,538.2695c0,7.3359-1.9912,12.9434-5.9736,16.8242c-3.9814,3.8809-9.7109,5.8203-17.1885,5.8203
		h-12.3115v-44.4395h13.6182c6.9102,0,12.2803,1.9141,16.1104,5.7441S587.2148,531.3984,587.2148,538.2695z M581.7432,538.4512
		c0-5.7949-1.4541-10.1621-4.3623-13.1016c-2.9082-2.9375-7.2295-4.4062-12.9639-4.4062h-7.5078v35.502h6.292
		c6.1602,0,10.791-1.5137,13.8916-4.543S581.7432,544.3887,581.7432,538.4512z"/>
	<path fill="#FFFFFF" d="M621.8975,560.9141H597.124v-44.4395h24.7734v4.5898H602.292v14.3164h18.4199v4.5605H602.292v16.3535
		h19.6055V560.9141z"/>
	<path fill="#FFFFFF" d="M636.9141,542.4336v18.4805h-5.168v-44.4395h12.1895c5.4512,0,9.4785,1.043,12.083,3.1309
		c2.6035,2.0879,3.9053,5.2285,3.9053,9.4238c0,5.877-2.9785,9.8477-8.9365,11.9141l12.0674,19.9707h-6.1094l-10.7607-18.4805
		H636.9141z M636.9141,537.9961h7.082c3.6475,0,6.3232-0.7246,8.0254-2.1738s2.5527-3.623,2.5527-6.5195
		c0-2.9395-0.8662-5.0566-2.5986-6.3535s-4.5137-1.9453-8.3438-1.9453h-6.7178V537.9961z"/>
	<path fill="#FFFFFF" d="M704.9424,560.9141h-5.8975l-24.2871-37.2969h-0.2432c0.3242,4.377,0.4863,8.3906,0.4863,12.0371v25.2598
		h-4.7725v-44.4395h5.8369l24.2256,37.1445h0.2432c-0.041-0.5469-0.1318-2.3047-0.2734-5.2734s-0.1924-5.0918-0.1514-6.3691v-25.502
		h4.833V560.9141z"/>
	<path fill="#FFFFFF" d="M525.54,635.6172l-5.5322-14.1348h-17.8125l-5.4707,14.1348h-5.2285l17.5693-44.6211h4.3467
		l17.4785,44.6211H525.54z M518.3975,616.832l-5.168-13.7695c-0.668-1.7422-1.3574-3.8809-2.0664-6.4141
		c-0.4463,1.9453-1.085,4.084-1.915,6.4141l-5.2285,13.7695H518.3975z"/>
	<path fill="#FFFFFF" d="M556.5459,612.334h15.1064v21.6113c-2.3506,0.75-4.7412,1.3184-7.1729,1.7031
		c-2.4326,0.3848-5.249,0.5781-8.4512,0.5781c-6.7275,0-11.9658-2.002-15.7148-6.0039s-5.623-9.6113-5.623-16.8242
		c0-4.6211,0.9268-8.668,2.7812-12.1445c1.8545-3.4746,4.5234-6.1289,8.0098-7.9629c3.4844-1.834,7.5684-2.752,12.249-2.752
		c4.7422,0,9.1602,0.8711,13.2539,2.6152l-2.0068,4.5586c-4.0117-1.7031-7.8721-2.5527-11.5811-2.5527
		c-5.4102,0-9.6357,1.6113-12.6758,4.832c-3.0391,3.2227-4.5586,7.6914-4.5586,13.4062c0,5.998,1.4629,10.5469,4.3916,13.6465
		c2.9287,3.1016,7.2295,4.6523,12.9033,4.6523c3.0801,0,6.0898-0.3555,9.0283-1.0645v-13.6797h-9.9395V612.334z"/>
	<path fill="#FFFFFF" d="M582.3213,635.6172v-44.4395h5.168v44.4395H582.3213z"/>
	<path fill="#FFFFFF" d="M599.6777,635.6172v-44.4395h5.168v39.7598h19.6055v4.6797H599.6777z"/>
	<path fill="#FFFFFF" d="M656.7627,635.6172h-24.7734v-44.4395h24.7734v4.5898h-19.6055v14.3164h18.4199v4.5605h-18.4199v16.3535
		h19.6055V635.6172z"/>
</g>
<g>
	<path fill="#4B5666" d="M565.9902,212.5039c0,1.0254-0.1777,1.8662-0.5332,2.5225c-0.3965,0.7383-0.9434,1.1074-1.6406,1.1074
		c-0.2461,0-0.4717-0.041-0.6768-0.123s-0.4375-0.2119-0.6973-0.3896c-0.2871,0.4922-0.5537,0.8613-0.7998,1.1074
		c-0.4375,0.4375-0.8955,0.6562-1.374,0.6562c-0.5742,0-1.0049-0.1953-1.292-0.584c-0.2871-0.3906-0.4307-0.9268-0.4307-1.6104
		c0-0.3555,0.0479-0.7041,0.1436-1.0459s0.2324-0.7314,0.4102-1.1689l0.4307-0.1846c0,0.1094-0.0137,0.2871-0.041,0.5332
		s-0.041,0.4512-0.041,0.6152c0,0.3008,0.0615,0.5713,0.1846,0.8105s0.3076,0.3584,0.5537,0.3584
		c0.5879,0,1.0596-0.3828,1.415-1.1484c0.1641-0.3555,0.3691-1.0459,0.6152-2.0713l0.4307-0.123
		c0.1094,0.6699,0.1982,1.0801,0.2666,1.2305c0.1641,0.4238,0.4375,0.6357,0.8203,0.6357c0.5195,0,0.9297-0.3418,1.2305-1.0254
		c0.2461-0.5469,0.3691-1.1143,0.3691-1.7021l0.4307-0.123c0.0547,0.2598,0.1055,0.5508,0.1543,0.8711
		C565.9658,211.9746,565.9902,212.2578,565.9902,212.5039z"/>
	<path fill="#4B5666" d="M567.2822,239.6768h-9.29c-0.9023,0-1.5928-0.1914-2.0713-0.5742
		c-0.5879-0.4648-0.8818-1.2236-0.8818-2.2764c0-0.6016,0.0303-1.251,0.0928-1.9482c0.0605-0.6973,0.1533-1.4014,0.2764-2.1123
		l0.7793-0.041c0.1094,0.4785,0.3516,0.8271,0.7275,1.0459s0.8311,0.3281,1.3643,0.3281h7.0547
		c-0.3145-2.0098-0.8613-3.6162-1.6406-4.8193c-0.6426-0.998-1.5381-1.8594-2.6865-2.584l1.4766-6.3984
		c1.7773,1.3262,3.0352,3.0352,3.7734,5.127c0.6836,1.9277,1.0254,4.4844,1.0254,7.6699V239.6768z"/>
	<path fill="#4B5666" d="M579.9766,243.6963c0,0.6562-0.3555,1.2852-1.0664,1.8867c-1.2305,0.4785-3.2129,1.2646-5.9473,2.3584
		c0-0.5879,0.3008-1.1553,0.9023-1.7021C575,245.7744,577.0371,244.9268,579.9766,243.6963z"/>
	<path fill="#4B5666" d="M587.585,229.8945l-2.2969,5.8242c-3.6777,1.1348-6.7197,2.0098-9.126,2.625
		c-2.0918,0.5332-3.8555,0.9023-5.291,1.1074c-1.0527,0.1504-2.1123,0.2256-3.1787,0.2256h-1.8457v-5.5781h2.2148
		c0.3965,0,0.6904-0.0068,0.8818-0.0205c0.4102-0.0547,0.8135-0.0957,1.21-0.123c-0.6836-1.0254-1.1416-1.8555-1.374-2.4922
		c-0.2324-0.6348-0.3486-1.3496-0.3486-2.1426c0-2.0371,0.8438-3.8174,2.5332-5.3418c1.6875-1.5244,3.6602-2.2871,5.916-2.2871
		c1.5176,0,2.9668,0.499,4.3477,1.4971c1.2715,0.9297,2.2012,2.0576,2.7891,3.3838l-0.8613,0.7383
		c-1.0801-0.4102-1.9375-0.6768-2.5742-0.7998c-0.6348-0.123-1.418-0.1846-2.3477-0.1846c-1.6953,0-3.165,0.1367-4.4092,0.4102
		c-1.5723,0.3418-2.3584,0.834-2.3584,1.4766c0,0.9434,1.9004,2.502,5.7012,4.6758L587.585,229.8945z"/>
	<path fill="#4B5666" d="M598.085,202.4756c0,0.6289-0.3418,1.2373-1.0254,1.8252c-1.2578,0.5059-3.2539,1.3125-5.9883,2.4199
		c0-0.6152,0.2803-1.1895,0.8408-1.7227C593.0879,204.5195,595.1455,203.6787,598.085,202.4756z"/>
	<path fill="#4B5666" d="M597.5928,212.1553c-0.1504,0.3965-0.3281,0.6973-0.5332,0.9023
		c-0.1504,0.1504-0.3828,0.2734-0.6973,0.3691l-4.4297,1.3535c0.2734-0.4922,0.5127-0.8311,0.7178-1.0146
		c0.2051-0.1855,0.5742-0.3525,1.1074-0.5029c-0.3828-0.2461-0.6602-0.4746-0.8311-0.6865s-0.2559-0.4209-0.2559-0.626
		c0-0.1777,0.0547-0.3799,0.1641-0.6045c0.1094-0.2266,0.2529-0.4482,0.4307-0.667c0.8887-1.1895,1.7705-1.7842,2.6455-1.7842
		c0.2598,0,0.4678,0.0859,0.625,0.2559c0.1572,0.1719,0.2363,0.3936,0.2363,0.667c0,0.2188-0.0312,0.4072-0.0918,0.5635
		c-0.0625,0.1582-0.1885,0.3936-0.3799,0.708c-0.6836-0.3418-1.1484-0.5127-1.3945-0.5127s-0.4922,0.0615-0.7383,0.1846
		c-0.1641,0.082-0.3145,0.1914-0.4512,0.3281c0,0.1777,0.3281,0.4512,0.9844,0.8203s1.1279,0.5537,1.415,0.5537
		C596.2939,212.4629,596.7861,212.3604,597.5928,212.1553z M597.6338,233.709c0,1.2168-0.1436,2.3281-0.4307,3.332
		c-0.2871,1.0059-0.8408,2.3555-1.6611,4.0508l-1.2305-0.4922c0.3281-1.75,0.4922-3.1719,0.4922-4.2656
		c0-0.834-0.0684-2.0576-0.2051-3.6709s-0.3076-3.21-0.5127-4.7881c-0.2051-1.5801-0.54-3.4629-1.0049-5.6504
		c-0.1641-0.7656-0.2461-1.292-0.2461-1.5791c0-0.4238,0.2119-1.1445,0.6357-2.1631s1.0186-2.2529,1.7842-3.7021l1.2305,7.2598
		c0.4512,2.7617,0.7656,5.1543,0.9434,7.1777C597.5654,230.7764,597.6338,232.2734,597.6338,233.709z"/>
	<path fill="#4B5666" d="M516.0439,289.0723c0,1.8867-0.1846,3.4014-0.5537,4.543s-0.9736,2.0605-1.8154,2.7578
		c-0.8398,0.6973-2.0703,1.2676-3.6914,1.7129c-1.6191,0.4434-3.291,0.666-5.0137,0.666c-3.3223,0-5.8828-0.6055-7.6797-1.8145
		c-1.7988-1.2109-2.6973-2.9297-2.6973-5.1582c0-1.9004,0.2871-3.6367,0.8613-5.209c0.6289-1.7363,1.8594-3.9922,3.6914-6.7676
		l1.2305,0.8613c-1.3535,2.3105-2.2393,3.9854-2.6562,5.0244s-0.625,2.1123-0.625,3.2197c0,1.4355,0.7695,2.6084,2.3066,3.5176
		c1.5391,0.9092,3.5586,1.3633,6.0605,1.3633c2.4609,0,4.5322-0.4717,6.2139-1.415s2.5225-2.0986,2.5225-3.4658
		c0-0.8477-0.1475-1.6885-0.4414-2.5225s-0.9258-2.167-1.8965-3.999l1.8047-5.5371c0.957,1.7363,1.5449,2.9326,1.7637,3.5889
		c0.4102,1.1895,0.6152,2.7002,0.6152,4.5322V289.0723z M509.2969,272.9326l-2.4609,4.5938l-4.7988-2.502l2.4814-4.6348
		L509.2969,272.9326z"/>
	<path fill="#4B5666" d="M527.4463,290.0771h-12.8379v-5.5781h10.7871c-0.1504-0.9297-0.4238-1.7158-0.8203-2.3584
		c-0.2051-0.3555-0.6836-0.9707-1.4355-1.8457l1.6406-4.8809c1.0254,1.1621,1.7256,2.3789,2.1016,3.6504
		s0.5645,3.1582,0.5645,5.6602V290.0771z M527.1182,293.6865l-2.2559,4.1836l-2.9121-1.6406l-1.6406,3.2402l-3.8145-2.0918
		l2.1328-3.9785l3.0352,1.5176l1.7227-3.3223L527.1182,293.6865z"/>
	<path fill="#4B5666" d="M542.5811,290.0771h-3.0352c-1.0801,0-2.0303-0.2188-2.8506-0.6562s-1.4834-1.1416-1.9893-2.1123
		c-0.8887,1.0938-2.0439,1.8662-3.4658,2.3174c-0.9434,0.3008-1.9688,0.4512-3.0762,0.4512h-2.1533v-5.5781h2.1533
		c1.1348,0,1.9307-0.0576,2.3896-0.1748c0.457-0.1152,1.0762-0.3789,1.8555-0.7891c-0.4102-0.8066-0.7656-1.3877-1.0664-1.7432
		c-0.3691-0.4238-0.752-0.6357-1.1484-0.6357c-0.1504,0-0.291,0.0508-0.4199,0.1543c-0.1309,0.1016-0.2773,0.2969-0.4414,0.584
		l-0.9023-0.123c0-2.4746,0.4268-4.2412,1.2812-5.3008s2.2051-1.5898,4.0508-1.5898c1.9004,0,3.3945,0.373,4.4805,1.1172
		c1.0879,0.7461,1.6309,1.7676,1.6309,3.0664c0,0.6973-0.1436,1.3633-0.4307,2c-0.2871,0.6348-0.8271,1.5-1.6201,2.5938
		c0.1914,0.2598,0.4512,0.4648,0.7793,0.6152s0.6426,0.2256,0.9434,0.2256h3.0352V290.0771z"/>
	<path fill="#4B5666" d="M553.9834,290.0771h-12.8379v-5.5781h10.7871c-0.1504-0.9297-0.4238-1.7158-0.8203-2.3584
		c-0.2051-0.3555-0.6836-0.9707-1.4355-1.8457l1.6406-4.8809c1.0254,1.1621,1.7256,2.3789,2.1016,3.6504
		s0.5645,3.1582,0.5645,5.6602V290.0771z M553.3682,271.5791c-0.123,0.4375-0.2871,0.7588-0.4922,0.9639
		c-0.1504,0.1504-0.3828,0.2734-0.6973,0.3691l-4.4297,1.3535c0.2734-0.4922,0.5127-0.8301,0.7178-1.0156
		c0.2051-0.1836,0.5605-0.3721,1.0664-0.5635c-0.3828-0.2461-0.6602-0.4746-0.8311-0.6865s-0.2559-0.4209-0.2559-0.626
		c0-0.1777,0.0547-0.3799,0.1641-0.6045c0.1094-0.2266,0.2529-0.4482,0.4307-0.667c0.8887-1.1895,1.7705-1.7842,2.6455-1.7842
		c0.2598,0,0.4678,0.0859,0.625,0.2559c0.1572,0.1719,0.2363,0.3936,0.2363,0.667c0,0.2188-0.0312,0.4072-0.0918,0.5635
		c-0.0625,0.1582-0.1885,0.3936-0.3799,0.708c-0.6836-0.3418-1.1484-0.5127-1.3945-0.5127s-0.4922,0.0615-0.7383,0.1846
		c-0.1641,0.082-0.3145,0.1914-0.4512,0.3281c0,0.1777,0.3281,0.4512,0.9844,0.8203s1.1279,0.5537,1.415,0.5537
		C552.0693,271.8867,552.5615,271.7842,553.3682,271.5791z"/>
	<path fill="#4B5666" d="M561.5713,284.1094c0,1.2168-0.1436,2.3281-0.4307,3.332c-0.2871,1.0059-0.8408,2.3555-1.6611,4.0508
		L558.249,291c0.3281-1.75,0.4922-3.1719,0.4922-4.2656c0-0.834-0.0684-2.0576-0.2051-3.6709s-0.3076-3.21-0.5127-4.7881
		c-0.2051-1.5801-0.54-3.4629-1.0049-5.6504c-0.1641-0.7656-0.2461-1.292-0.2461-1.5791c0-0.4238,0.2119-1.1445,0.6357-2.1631
		s1.0186-2.2529,1.7842-3.7021l1.2305,7.2598c0.4512,2.7617,0.7656,5.1543,0.9434,7.1777
		C561.5029,281.1768,561.5713,282.6738,561.5713,284.1094z"/>
	<path fill="#4B5666" d="M581.2588,290.5488c0,0.834-0.4785,1.9375-1.4355,3.3125c-0.957,1.373-2.0781,2.5664-3.3633,3.5781
		c-1.4219,1.1211-2.6387,1.6816-3.6504,1.6816c-1.2031,0-2.4951-0.3418-3.876-1.0254c-1.2031-0.5879-3.083-1.7637-5.6396-3.5273
		l0.8613-1.2715c1.2305,0.8203,2.2217,1.374,2.9736,1.6611s1.5654,0.4307,2.4404,0.4307c0.9434,0,1.8867-0.2666,2.8301-0.7998
		s2.2285-1.5244,3.8555-2.9736c2.2695-2.0234,3.4043-3.582,3.4043-4.6758c0-0.5469-0.2188-1.2646-0.6562-2.1533
		c-0.4922-1.0117-1.0938-1.8525-1.8047-2.5225l1.1484-5.5371c0.9297,0.957,1.6475,2.0576,2.1533,3.3018s0.7588,2.6592,0.7588,4.2451
		V290.5488z"/>
	<path fill="#4B5666" d="M599.4902,256.6289c0,0.6289-0.3486,1.2373-1.0459,1.8252c-1.2441,0.5059-3.2334,1.3057-5.9678,2.3994
		c0-0.5879,0.3008-1.1553,0.9023-1.7021C594.5137,258.6729,596.5508,257.832,599.4902,256.6289z M599.4902,259.7051
		c0,0.6562-0.3418,1.2783-1.0254,1.8662c-1.2578,0.5059-3.2539,1.3057-5.9883,2.3994c0-0.5879,0.3008-1.1553,0.9023-1.7021
		C594.5137,261.79,596.5508,260.9355,599.4902,259.7051z"/>
	<path fill="#4B5666" d="M602.7715,290.0771h-2.8711c-1.5996,0-2.7549-0.6562-3.4658-1.9688
		c-0.793-1.4492-1.1895-3.8896-1.1895-7.3213v-5.8447c0-1.3262-0.1846-2.3584-0.5537-3.0967
		c-0.1777-0.3555-0.5879-0.8682-1.2305-1.5381l2.2148-5.127c0.793,1.0938,1.3467,2.1738,1.6611,3.2402
		c0.3691,1.2441,0.5537,2.8301,0.5537,4.7578v4.04c0,2.8574,0.1914,4.8398,0.5742,5.9473c0.3008,0.8887,0.7793,1.333,1.4355,1.333
		h2.8711V290.0771z"/>
	<path fill="#4B5666" d="M628.3242,290.0771c-1.5312,0-2.8027-0.1094-3.8145-0.3281s-2.0098-0.5674-2.9941-1.0459
		c-0.793,0.5605-1.501,0.9297-2.123,1.1074s-1.5547,0.2666-2.7988,0.2666h-3.3428c-0.916,0-1.6406-0.2393-2.1738-0.7178
		s-1.0117-1.2715-1.4355-2.3789c-0.752,1.1484-1.5928,1.9688-2.5225,2.4609c-0.793,0.4238-1.7432,0.6357-2.8506,0.6357h-2.9326
		v-5.5781h2.9326c1.4355,0,2.6318-0.4033,3.5889-1.21c1.2441-1.0527,1.8662-2.6523,1.8662-4.7988l1.3535,0.2051
		c-0.0273,0.4375-0.0547,0.9365-0.082,1.4971s-0.041,1.1826-0.041,1.8662c0,0.6973,0.2393,1.2783,0.7178,1.7432
		s1.0254,0.6973,1.6406,0.6973h2.5225c1.668,0,2.8574-0.2324,3.5684-0.6973c0.8613-0.5605,1.292-1.6064,1.292-3.1377
		c0-0.3281,0.1025-0.6221,0.3076-0.8818c0.123-0.1504,0.376-0.376,0.7588-0.6768l0.7793-0.6152
		c0.0273,0.2598,0.0479,0.6123,0.0615,1.0566s0.0205,0.7344,0.0205,0.8711c0,0.752-0.1094,1.75-0.3281,2.9941
		c0.5059,0.2461,1.0732,0.458,1.7021,0.6357s1.292,0.3145,1.9893,0.4102c0-0.4648-0.1709-1.0664-0.5127-1.8047
		s-0.5127-1.2373-0.5127-1.4971c0-0.3555,0.0479-0.6289,0.1436-0.8203c0.0273-0.0684,0.1777-0.2803,0.4512-0.6357l1.7432-2.3584
		c0.3691,0.8613,0.6318,1.6445,0.7891,2.3477c0.1572,0.7051,0.2363,1.583,0.2363,2.6357V290.0771z"/>
	<path fill="#4B5666" d="M638.168,290.0771h-2.8711c-1.5996,0-2.7549-0.6562-3.4658-1.9688
		c-0.793-1.4492-1.1895-3.8896-1.1895-7.3213v-5.8447c0-1.3262-0.1846-2.3584-0.5537-3.0967
		c-0.1777-0.3555-0.5879-0.8682-1.2305-1.5381l2.2148-5.127c0.793,1.0938,1.3467,2.1738,1.6611,3.2402
		c0.3691,1.2441,0.5537,2.8301,0.5537,4.7578v4.04c0,2.8574,0.1914,4.8398,0.5742,5.9473c0.3008,0.8887,0.7793,1.333,1.4355,1.333
		h2.8711V290.0771z"/>
	<path fill="#4B5666" d="M649.5703,290.0771h-12.8379v-5.5781h10.7871c-0.1504-0.9297-0.4238-1.7158-0.8203-2.3584
		c-0.2051-0.3555-0.6836-0.9707-1.4355-1.8457l1.6406-4.8809c1.0254,1.1621,1.7256,2.3789,2.1016,3.6504
		s0.5645,3.1582,0.5645,5.6602V290.0771z M649.6934,267.7441l-2.4609,4.5938l-4.7988-2.502l2.4814-4.6348L649.6934,267.7441z"/>
	<path fill="#4B5666" d="M657.1582,262.5557c-0.1504,0.3965-0.3281,0.6973-0.5332,0.9023
		c-0.1504,0.1504-0.3828,0.2734-0.6973,0.3691l-4.4297,1.3535c0.2734-0.4922,0.5127-0.8311,0.7178-1.0146
		c0.2051-0.1855,0.5742-0.3525,1.1074-0.5029c-0.3828-0.2461-0.6602-0.4746-0.8311-0.6865s-0.2559-0.4209-0.2559-0.626
		c0-0.1777,0.0547-0.3799,0.1641-0.6045c0.1094-0.2266,0.2529-0.4482,0.4307-0.667c0.8887-1.1895,1.7705-1.7842,2.6455-1.7842
		c0.2598,0,0.4678,0.0859,0.625,0.2559c0.1572,0.1719,0.2363,0.3936,0.2363,0.667c0,0.2188-0.0312,0.4072-0.0918,0.5635
		c-0.0625,0.1582-0.1885,0.3936-0.3799,0.708c-0.6836-0.3418-1.1484-0.5127-1.3945-0.5127s-0.4922,0.0615-0.7383,0.1846
		c-0.1641,0.082-0.3145,0.1914-0.4512,0.3281c0,0.1777,0.3281,0.4512,0.9844,0.8203s1.1279,0.5537,1.415,0.5537
		C655.8594,262.8633,656.3516,262.7607,657.1582,262.5557z M657.1992,284.1094c0,1.2168-0.1436,2.3281-0.4307,3.332
		c-0.2871,1.0059-0.8408,2.3555-1.6611,4.0508L653.877,291c0.3281-1.75,0.4922-3.1719,0.4922-4.2656
		c0-0.834-0.0684-2.0576-0.2051-3.6709s-0.3076-3.21-0.5127-4.7881c-0.2051-1.5801-0.54-3.4629-1.0049-5.6504
		c-0.1641-0.7656-0.2461-1.292-0.2461-1.5791c0-0.4238,0.2119-1.1445,0.6357-2.1631s1.0186-2.2529,1.7842-3.7021l1.2305,7.2598
		c0.4512,2.7617,0.7656,5.1543,0.9434,7.1777C657.1309,281.1768,657.1992,282.6738,657.1992,284.1094z"/>
</g>
<g>
	<path fill="#4B5666" d="M520.5352,981.7881c0,1.8867-0.1846,3.4014-0.5537,4.543s-0.9736,2.0605-1.8154,2.7578
		c-0.8398,0.6973-2.0703,1.2676-3.6914,1.7129c-1.6191,0.4434-3.291,0.666-5.0137,0.666c-3.3223,0-5.8828-0.6055-7.6797-1.8145
		c-1.7988-1.2109-2.6973-2.9297-2.6973-5.1582c0-1.9004,0.2871-3.6367,0.8613-5.209c0.6289-1.7363,1.8594-3.9922,3.6914-6.7676
		l1.2305,0.8613c-1.3535,2.3105-2.2393,3.9854-2.6562,5.0244s-0.625,2.1123-0.625,3.2197c0,1.4355,0.7695,2.6084,2.3066,3.5176
		c1.5391,0.9092,3.5586,1.3633,6.0605,1.3633c2.4609,0,4.5322-0.4717,6.2139-1.415s2.5225-2.0986,2.5225-3.4658
		c0-0.8477-0.1475-1.6885-0.4414-2.5225s-0.9258-2.167-1.8965-3.999l1.8047-5.5371c0.957,1.7363,1.5449,2.9326,1.7637,3.5889
		c0.4102,1.1895,0.6152,2.7002,0.6152,4.5322V981.7881z M513.7881,965.6484l-2.4609,4.5938l-4.7988-2.502l2.4814-4.6348
		L513.7881,965.6484z"/>
	<path fill="#4B5666" d="M530.3789,982.793h-2.8711c-1.5996,0-2.7549-0.6562-3.4658-1.9688
		c-0.793-1.4492-1.1895-3.8896-1.1895-7.3213v-5.8447c0-1.3262-0.1846-2.3584-0.5537-3.0967
		c-0.1777-0.3555-0.5879-0.8682-1.2305-1.5381l2.2148-5.127c0.793,1.0938,1.3467,2.1738,1.6611,3.2402
		c0.3691,1.2441,0.5537,2.8301,0.5537,4.7578v4.04c0,2.8574,0.1914,4.8398,0.5742,5.9473c0.3008,0.8887,0.7793,1.333,1.4355,1.333
		h2.8711V982.793z"/>
	<path fill="#4B5666" d="M547.8105,982.7725c-1.4355,0-3.124-0.2803-5.0654-0.8408c-1.709-0.4922-3.2129-1.0732-4.5117-1.7432
		c-0.793,1.1895-1.7705,1.9688-2.9326,2.3379c-0.5605,0.1777-1.3262,0.2666-2.2969,0.2666h-4.0605v-5.5781h4.0605
		c1.2305,0,2.208-0.1504,2.9326-0.4512c0.9297-0.3828,1.5723-1.0459,1.9277-1.9893c0.7793-1.7363,1.7773-3.165,2.9941-4.2861
		c1.0801-0.998,1.9961-1.4971,2.748-1.4971c0.6973,0,1.5586,1.0527,2.584,3.1582c1.0801,2.2285,1.6201,4.2793,1.6201,6.1523
		V982.7725z M543.9756,976.5791c0-0.3008-0.2939-0.8203-0.8818-1.5586c-0.6562-0.8203-1.2236-1.2305-1.7021-1.2305
		c-0.5332,0-0.9844,0.6152-1.3535,1.8457c0.7109,0.2734,1.251,0.4785,1.6201,0.6152c1.1074,0.4102,1.7295,0.6152,1.8662,0.6152
		C543.8252,976.8662,543.9756,976.7705,543.9756,976.5791z"/>
	<path fill="#4B5666" d="M567.5801,960.9932c0,0.957-0.0957,1.9209-0.2871,2.8916c-0.082,0.4102-0.2734,1.1553-0.5742,2.2354
		l-1.4766-0.5742c0,1.6133-0.1914,3.2197-0.5742,4.8193s-0.998,3.1787-1.8457,4.7373c0.752,1.3535,1.1895,2.1465,1.3125,2.3789
		c0.3281,0.6289,0.4922,1.1963,0.4922,1.7021v0.6357c0,0.3418-0.1094,1.7363-0.3281,4.1836
		c-1.5586,0.7383-2.9502,1.2168-4.1738,1.4355s-3.0449,0.3281-5.4648,0.3281v-6.0703c1.3809-0.7109,2.3691-1.3086,2.9629-1.7949
		c0.5957-0.4844,1.3711-1.3223,2.3281-2.5117c-1.5586-1.9688-2.6934-3.3564-3.4043-4.1631
		c-0.5742-0.6562-1.3125-1.415-2.2148-2.2764c-0.2188,0.4512-0.3789,0.748-0.4824,0.8926
		c-0.1016,0.1426-0.2012,0.2148-0.2969,0.2148c-0.3281,0-0.9434-0.2803-1.8457-0.8408c-0.8066-0.5059-1.4287-0.957-1.8662-1.3535
		s-0.7686-1.1377-0.9951-2.2256c-0.2246-1.0859-0.3379-2.4707-0.3379-4.1523c0-0.7383,0.0439-1.251,0.1328-1.5381
		s0.2773-0.4307,0.5645-0.4307c0.5332,0,1.6133,0.7656,3.2402,2.2969c1.3945,1.3125,2.6387,2.625,3.7324,3.9375
		c0.8613,0.9434,1.6406,1.8867,2.3379,2.8301c0.6289,0.834,1.6133,2.2695,2.9531,4.3066c0.6152-1.1621,1.0391-2.6455,1.2715-4.4502
		c0.1367-1.0938,0.2051-2.3994,0.2051-3.917c-0.4922-0.2324-0.8271-0.4609-1.0049-0.6875
		c-0.1777-0.2246-0.2666-0.5293-0.2666-0.9121c0-0.8203,0.0889-1.6543,0.2666-2.502s0.4717-1.7363,0.8818-2.666l0.8613,0.2871
		c0,0.875,0.2051,1.4561,0.6152,1.7432C564.627,960.0156,565.7207,960.4189,567.5801,960.9932z M554.6807,955.2715
		c-0.123,0.4375-0.2871,0.7588-0.4922,0.9639c-0.1504,0.1504-0.3828,0.2734-0.6973,0.3691l-4.4297,1.3535
		c0.2734-0.4922,0.5127-0.8301,0.7178-1.0156c0.2051-0.1836,0.5605-0.3721,1.0664-0.5635
		c-0.3828-0.2461-0.6602-0.4746-0.8301-0.6865c-0.1719-0.2119-0.2568-0.4209-0.2568-0.626c0-0.1777,0.0547-0.3799,0.1641-0.6045
		c0.1094-0.2266,0.2529-0.4482,0.4307-0.667c0.8887-1.1895,1.7705-1.7842,2.6455-1.7842c0.2598,0,0.4678,0.0859,0.626,0.2559
		c0.1562,0.1719,0.2354,0.3936,0.2354,0.667c0,0.2188-0.0303,0.4072-0.0928,0.5635c-0.0605,0.1582-0.1875,0.3936-0.3789,0.708
		c-0.6836-0.3418-1.1484-0.5127-1.3945-0.5127s-0.4922,0.0615-0.7383,0.1846c-0.1641,0.082-0.3145,0.1914-0.4512,0.3281
		c0,0.1777,0.3281,0.4512,0.9844,0.8203s1.1279,0.5537,1.415,0.5537C553.3818,955.5791,553.874,955.4766,554.6807,955.2715z
		 M562.207,978.835l-0.9844-1.5176c-0.6016,0.6699-1.0635,1.1455-1.3848,1.4258s-0.8848,0.707-1.6914,1.2812
		c1.0391-0.1094,1.7803-0.2285,2.2246-0.3594C560.8154,979.5361,561.4277,979.2588,562.207,978.835z"/>
	<path fill="#4B5666" d="M575.8242,976.8252c0,1.2168-0.1436,2.3281-0.4307,3.332c-0.2871,1.0059-0.8408,2.3555-1.6611,4.0508
		l-1.2305-0.4922c0.3281-1.75,0.4922-3.1719,0.4922-4.2656c0-0.834-0.0684-2.0576-0.2051-3.6709s-0.3076-3.21-0.5127-4.7881
		c-0.2051-1.5801-0.54-3.4629-1.0049-5.6504c-0.1641-0.7656-0.2461-1.292-0.2461-1.5791c0-0.4238,0.2119-1.1445,0.6357-2.1631
		s1.0186-2.2529,1.7842-3.7021l1.2305,7.2598c0.4512,2.7617,0.7656,5.1543,0.9434,7.1777
		C575.7559,973.8926,575.8242,975.3896,575.8242,976.8252z"/>
	<path fill="#4B5666" d="M607.96,982.2803c0,2.1055-1.0938,3.9717-3.2812,5.5986s-4.6826,2.4404-7.4854,2.4404
		c-2.3379,0-4.167-0.5918-5.4854-1.7734c-1.3203-1.1826-1.9795-2.834-1.9795-4.9531c0-1.9824,0.2461-3.7119,0.7383-5.1885
		c0.5605-1.668,1.6543-3.7119,3.2812-6.1318l1.2715,0.8613c-1.0664,1.5996-1.8252,2.9873-2.2764,4.1631
		s-0.6768,2.3447-0.6768,3.5068c0,1.2441,0.4619,2.2051,1.3838,2.8809c0.9238,0.6777,2.2256,1.0156,3.9072,1.0156
		c2.4062,0,4.3613-0.4648,5.8652-1.3945s2.2559-2.1465,2.2559-3.6504c0-0.2598,0-0.4648,0-0.6152s0-0.2666,0-0.3486
		c0-0.5332-0.0449-1.1211-0.1338-1.7637s-0.3174-1.9688-0.6865-3.9785c-0.5879-3.2402-1.1758-6.4873-1.7637-9.7412l-1.0254-0.7383
		c0-1.3398,0.6289-3.3906,1.8867-6.1523l0.9434,0.4512c-0.0547,0.1914-0.082,0.4102-0.082,0.6562
		c0,0.5469,0.2803,0.9912,0.8408,1.333c0.834,0.4648,1.6201,0.9092,2.3584,1.333c-0.1504,1.1758-0.3008,2.0166-0.4512,2.5225
		s-0.4648,1.2646-0.9434,2.2764l-0.6152-0.2461c0,0.2051,0.1943,1.3711,0.585,3.4961c0.3887,2.127,0.7207,3.9619,0.9941,5.5068
		c0.3828,2.2148,0.5742,3.5615,0.5742,4.04V982.2803z"/>
	<path fill="#4B5666" d="M623.0947,982.793h-3.0352c-1.0801,0-2.0303-0.2188-2.8506-0.6562s-1.4834-1.1416-1.9893-2.1123
		c-0.8887,1.0938-2.0439,1.8662-3.4658,2.3174c-0.9434,0.3008-1.9688,0.4512-3.0762,0.4512h-2.1533v-5.5781h2.1533
		c1.1348,0,1.9307-0.0576,2.3896-0.1748c0.457-0.1152,1.0762-0.3789,1.8555-0.7891c-0.4102-0.8066-0.7656-1.3877-1.0664-1.7432
		c-0.3691-0.4238-0.752-0.6357-1.1484-0.6357c-0.1504,0-0.291,0.0508-0.4199,0.1543c-0.1309,0.1016-0.2773,0.2969-0.4414,0.584
		l-0.9023-0.123c0-2.4746,0.4268-4.2412,1.2812-5.3008s2.2051-1.5898,4.0508-1.5898c1.9004,0,3.3945,0.373,4.4805,1.1172
		c1.0879,0.7461,1.6309,1.7676,1.6309,3.0664c0,0.6973-0.1436,1.3633-0.4307,2c-0.2871,0.6348-0.8271,1.5-1.6201,2.5938
		c0.1914,0.2598,0.4512,0.4648,0.7793,0.6152s0.6426,0.2256,0.9434,0.2256h3.0352V982.793z"/>
	<path fill="#4B5666" d="M645.0791,982.793h-23.4199v-5.5781h14.5811c-1.6543-1.709-3.1855-2.9395-4.5938-3.6914
		c-1.2441-0.6699-2.4609-1.0049-3.6504-1.0049c-0.3555,0-0.6807,0.0176-0.9736,0.0508c-0.2949,0.0352-0.7217,0.1133-1.2822,0.2363
		c0.752-1.7227,1.5889-2.9941,2.5127-3.8145c0.9219-0.8203,1.9717-1.2305,3.1475-1.2305c0.9023,0,1.7705,0.2188,2.6045,0.6562
		s1.7705,1.1416,2.8096,2.1123c0.8203,0.7656,1.9824,1.9619,3.4863,3.5889c1.0254,1.1484,1.8076,1.8936,2.3486,2.2354
		c0.5391,0.3418,1.3496,0.6289,2.4297,0.8613V982.793z M637.4912,987.2842l-2.584,4.6348l-4.7168-2.543l2.5225-4.6348
		L637.4912,987.2842z"/>
	<path fill="#4B5666" d="M652.667,976.8252c0,1.2168-0.1436,2.3281-0.4307,3.332c-0.2871,1.0059-0.8408,2.3555-1.6611,4.0508
		l-1.2305-0.4922c0.3281-1.75,0.4922-3.1719,0.4922-4.2656c0-0.834-0.0684-2.0576-0.2051-3.6709s-0.3076-3.21-0.5127-4.7881
		c-0.2051-1.5801-0.54-3.4629-1.0049-5.6504c-0.1641-0.7656-0.2461-1.292-0.2461-1.5791c0-0.4238,0.2119-1.1445,0.6357-2.1631
		s1.0186-2.2529,1.7842-3.7021l1.2305,7.2598c0.4512,2.7617,0.7656,5.1543,0.9434,7.1777
		C652.5986,973.8926,652.667,975.3896,652.667,976.8252z"/>
	<path fill="#4B5666" d="M493.3008,999.7451c0,0.6289-0.3486,1.2373-1.0459,1.8252c-1.2441,0.5059-3.2334,1.3057-5.9678,2.3994
		c0-0.5879,0.3008-1.1553,0.9023-1.7021C488.3242,1001.7891,490.3613,1000.9482,493.3008,999.7451z M493.3008,1002.8213
		c0,0.6562-0.3418,1.2783-1.0254,1.8662c-1.2578,0.5059-3.2539,1.3057-5.9883,2.3994c0-0.5879,0.3008-1.1553,0.9023-1.7021
		C488.3242,1004.9062,490.3613,1004.0518,493.3008,1002.8213z"/>
	<path fill="#4B5666" d="M496.582,1033.1934h-2.8711c-1.5996,0-2.7549-0.6562-3.4658-1.9688
		c-0.793-1.4492-1.1895-3.8896-1.1895-7.3213v-5.8447c0-1.3262-0.1846-2.3584-0.5537-3.0967
		c-0.1777-0.3555-0.5879-0.8682-1.2305-1.5381l2.2148-5.127c0.793,1.0938,1.3467,2.1738,1.6611,3.2402
		c0.3691,1.2441,0.5537,2.8301,0.5537,4.7578v4.04c0,2.8574,0.1914,4.8398,0.5742,5.9473c0.3008,0.8887,0.7793,1.333,1.4355,1.333
		h2.8711V1033.1934z"/>
	<path fill="#4B5666" d="M507.9844,1033.1934h-12.8379v-5.5781h10.7871c-0.1504-0.9297-0.4238-1.7158-0.8203-2.3584
		c-0.2051-0.3555-0.6836-0.9707-1.4355-1.8457l1.6406-4.8809c1.0254,1.1621,1.7256,2.3789,2.1016,3.6504
		s0.5645,3.1582,0.5645,5.6602V1033.1934z M507.6562,1036.8027l-2.2559,4.1836l-2.9121-1.6406l-1.6406,3.2402l-3.8145-2.0918
		l2.1328-3.9785l3.0352,1.5176l1.7227-3.3223L507.6562,1036.8027z"/>
	<path fill="#4B5666" d="M533.5371,1033.1934c-1.5312,0-2.8027-0.1094-3.8145-0.3281s-2.0098-0.5674-2.9941-1.0459
		c-0.793,0.5605-1.501,0.9297-2.123,1.1074s-1.5547,0.2666-2.7988,0.2666h-3.3428c-0.916,0-1.6406-0.2393-2.1738-0.7178
		s-1.0117-1.2715-1.4355-2.3789c-0.752,1.1484-1.5928,1.9688-2.5225,2.4609c-0.793,0.4238-1.7432,0.6357-2.8506,0.6357h-2.9326
		v-5.5781h2.9326c1.4355,0,2.6318-0.4033,3.5889-1.21c1.2441-1.0527,1.8662-2.6523,1.8662-4.7988l1.3535,0.2051
		c-0.0273,0.4375-0.0547,0.9365-0.082,1.4971s-0.041,1.1826-0.041,1.8662c0,0.6973,0.2393,1.2783,0.7178,1.7432
		s1.0254,0.6973,1.6406,0.6973h2.5225c1.668,0,2.8574-0.2324,3.5684-0.6973c0.8613-0.5605,1.292-1.6064,1.292-3.1377
		c0-0.3281,0.1025-0.6221,0.3076-0.8818c0.123-0.1504,0.376-0.376,0.7588-0.6768l0.7793-0.6152
		c0.0273,0.2598,0.0479,0.6123,0.0615,1.0566s0.0205,0.7344,0.0205,0.8711c0,0.752-0.1094,1.75-0.3281,2.9941
		c0.5059,0.2461,1.0732,0.458,1.7021,0.6357s1.292,0.3145,1.9893,0.4102c0-0.4648-0.1709-1.0664-0.5127-1.8047
		s-0.5127-1.2373-0.5127-1.4971c0-0.3555,0.0479-0.6289,0.1436-0.8203c0.0273-0.0684,0.1777-0.2803,0.4512-0.6357l1.7432-2.3584
		c0.3691,0.8613,0.6318,1.6445,0.7891,2.3477c0.1572,0.7051,0.2363,1.583,0.2363,2.6357V1033.1934z"/>
	<path fill="#4B5666" d="M543.3809,1033.1934h-2.8711c-1.5996,0-2.7549-0.6562-3.4658-1.9688
		c-0.793-1.4492-1.1895-3.8896-1.1895-7.3213v-5.8447c0-1.3262-0.1846-2.3584-0.5537-3.0967
		c-0.1777-0.3555-0.5879-0.8682-1.2305-1.5381l2.2148-5.127c0.793,1.0938,1.3467,2.1738,1.6611,3.2402
		c0.3691,1.2441,0.5537,2.8301,0.5537,4.7578v4.04c0,2.8574,0.1914,4.8398,0.5742,5.9473c0.3008,0.8887,0.7793,1.333,1.4355,1.333
		h2.8711V1033.1934z"/>
	<path fill="#4B5666" d="M568.9336,1033.1934c-1.5312,0-2.8027-0.1094-3.8145-0.3281s-2.0098-0.5674-2.9941-1.0459
		c-0.793,0.5605-1.501,0.9297-2.123,1.1074s-1.5547,0.2666-2.7988,0.2666h-3.3428c-0.916,0-1.6406-0.2393-2.1738-0.7178
		s-1.0117-1.2715-1.4355-2.3789c-0.752,1.1484-1.5928,1.9688-2.5225,2.4609c-0.793,0.4238-1.7432,0.6357-2.8506,0.6357h-2.9326
		v-5.5781h2.9326c1.4355,0,2.6318-0.4033,3.5889-1.21c1.2441-1.0527,1.8662-2.6523,1.8662-4.7988l1.3535,0.2051
		c-0.0273,0.4375-0.0547,0.9365-0.082,1.4971s-0.041,1.1826-0.041,1.8662c0,0.6973,0.2393,1.2783,0.7178,1.7432
		s1.0254,0.6973,1.6406,0.6973h2.5225c1.668,0,2.8574-0.2324,3.5684-0.6973c0.8613-0.5605,1.292-1.6064,1.292-3.1377
		c0-0.3281,0.1025-0.6221,0.3076-0.8818c0.123-0.1504,0.376-0.376,0.7588-0.6768l0.7793-0.6152
		c0.0273,0.2598,0.0479,0.6123,0.0615,1.0566s0.0205,0.7344,0.0205,0.8711c0,0.752-0.1094,1.75-0.3281,2.9941
		c0.5059,0.2461,1.0732,0.458,1.7021,0.6357s1.292,0.3145,1.9893,0.4102c0-0.4648-0.1709-1.0664-0.5127-1.8047
		s-0.5127-1.2373-0.5127-1.4971c0-0.3555,0.0479-0.6289,0.1436-0.8203c0.0273-0.0684,0.1777-0.2803,0.4512-0.6357l1.7432-2.3584
		c0.3691,0.8613,0.6318,1.6445,0.7891,2.3477c0.1572,0.7051,0.2363,1.583,0.2363,2.6357V1033.1934z"/>
	<path fill="#4B5666" d="M576.5215,1005.6719c-0.1504,0.3965-0.3281,0.6973-0.5332,0.9023
		c-0.1504,0.1504-0.3828,0.2734-0.6973,0.3691l-4.4297,1.3535c0.2734-0.4922,0.5127-0.8311,0.7178-1.0146
		c0.2051-0.1855,0.5742-0.3525,1.1074-0.5029c-0.3828-0.2461-0.6602-0.4746-0.8311-0.6865s-0.2559-0.4209-0.2559-0.626
		c0-0.1777,0.0547-0.3799,0.1641-0.6045c0.1094-0.2266,0.2529-0.4482,0.4307-0.667c0.8887-1.1895,1.7705-1.7842,2.6455-1.7842
		c0.2598,0,0.4678,0.0859,0.625,0.2559c0.1572,0.1719,0.2363,0.3936,0.2363,0.667c0,0.2188-0.0312,0.4072-0.0918,0.5635
		c-0.0625,0.1582-0.1885,0.3936-0.3799,0.708c-0.6836-0.3418-1.1484-0.5127-1.3945-0.5127s-0.4922,0.0615-0.7383,0.1846
		c-0.1641,0.082-0.3145,0.1914-0.4512,0.3281c0,0.1777,0.3281,0.4512,0.9844,0.8203s1.1279,0.5537,1.415,0.5537
		C575.2227,1005.9795,575.7148,1005.877,576.5215,1005.6719z M576.5625,1027.2256c0,1.2168-0.1436,2.3281-0.4307,3.332
		c-0.2871,1.0059-0.8408,2.3555-1.6611,4.0508l-1.2305-0.4922c0.3281-1.75,0.4922-3.1719,0.4922-4.2656
		c0-0.834-0.0684-2.0576-0.2051-3.6709s-0.3076-3.21-0.5127-4.7881c-0.2051-1.5801-0.54-3.4629-1.0049-5.6504
		c-0.1641-0.7656-0.2461-1.292-0.2461-1.5791c0-0.4238,0.2119-1.1445,0.6357-2.1631s1.0186-2.2529,1.7842-3.7021l1.2305,7.2598
		c0.4512,2.7617,0.7656,5.1543,0.9434,7.1777C576.4941,1024.293,576.5625,1025.79,576.5625,1027.2256z"/>
	<path fill="#4B5666" d="M596.2705,999.7451c0,0.6289-0.3486,1.2373-1.0459,1.8252c-1.2441,0.5059-3.2334,1.3057-5.9678,2.3994
		c0-0.5879,0.3008-1.1553,0.9023-1.7021C591.2939,1001.7891,593.3311,1000.9482,596.2705,999.7451z M596.2705,1002.8213
		c0,0.6562-0.3418,1.2783-1.0254,1.8662c-1.2578,0.5059-3.2539,1.3057-5.9883,2.3994c0-0.5879,0.3008-1.1553,0.9023-1.7021
		C591.2939,1004.9062,593.3311,1004.0518,596.2705,1002.8213z"/>
	<path fill="#4B5666" d="M599.5518,1033.1934h-2.8711c-1.5996,0-2.7549-0.6562-3.4658-1.9688
		c-0.793-1.4492-1.1895-3.8896-1.1895-7.3213v-5.8447c0-1.3262-0.1846-2.3584-0.5537-3.0967
		c-0.1777-0.3555-0.5879-0.8682-1.2305-1.5381l2.2148-5.127c0.793,1.0938,1.3467,2.1738,1.6611,3.2402
		c0.3691,1.2441,0.5537,2.8301,0.5537,4.7578v4.04c0,2.8574,0.1914,4.8398,0.5742,5.9473c0.3008,0.8887,0.7793,1.333,1.4355,1.333
		h2.8711V1033.1934z"/>
	<path fill="#4B5666" d="M621.5361,1033.1934h-23.4199v-5.5781h2.7275c0.3281,0,1.251-0.5674,2.7686-1.7021
		c0.5059-0.3691,1.2373-0.9434,2.1943-1.7227c0-1.6816-0.0615-3.1035-0.1846-4.2656s-0.3213-2.3721-0.5947-3.6299
		c-0.0684-0.3008-0.4375-1.7842-1.1074-4.4502l-1.1895-0.7383c0.3145-1.4355,0.5742-2.4639,0.7793-3.0859
		s0.6016-1.6035,1.1895-2.9434l0.9434,0.3691c0,0.082-0.0273,0.2598-0.082,0.5332c0,0.4785,0.6768,1.0459,2.0303,1.7021
		c0.4512,0.2188,1.1279,0.499,2.0303,0.8408c-0.1367,1.0664-0.3555,2.0645-0.6562,2.9941
		c-0.1504,0.4648-0.4238,1.1895-0.8203,2.1738l-0.7383-0.2461c0.4238,1.9414,0.708,3.373,0.8506,4.2969
		c0.1445,0.9219,0.2158,1.7461,0.2158,2.4707v0.2256c0,0.3965-0.0107,0.708-0.0303,0.9326
		c-0.0215,0.2266-0.0791,0.5781-0.1748,1.0566c0.7109-0.5195,1.4287-1.0391,2.1533-1.5586
		c1.1074-0.7793,2.0986-1.4082,2.9736-1.8867c1.1484-0.6289,2.0234-0.9434,2.625-0.9434c1.6133,0,2.9053,0.417,3.876,1.251
		c1.0938,0.9434,1.6406,2.3037,1.6406,4.0811V1033.1934z M618.6855,1025.5234c0-0.4785-0.5059-0.9258-1.5176-1.3428
		s-1.9004-0.626-2.666-0.626c-0.9023,0-1.917,0.291-3.0459,0.8721c-1.127,0.5811-2.7646,1.6436-4.9111,3.1885h5.373
		C616.4297,1027.6152,618.6855,1026.918,618.6855,1025.5234z"/>
	<path fill="#4B5666" d="M639.7061,1033.665c0,0.834-0.4785,1.9375-1.4355,3.3125c-0.957,1.373-2.0781,2.5664-3.3633,3.5781
		c-1.4219,1.1211-2.6387,1.6816-3.6504,1.6816c-1.2031,0-2.4951-0.3418-3.876-1.0254c-1.2031-0.5879-3.083-1.7637-5.6396-3.5273
		l0.8613-1.2715c1.2305,0.8203,2.2217,1.374,2.9736,1.6611s1.5654,0.4307,2.4404,0.4307c0.9434,0,1.8867-0.2666,2.8301-0.7998
		s2.2285-1.5244,3.8555-2.9736c2.2695-2.0234,3.4043-3.582,3.4043-4.6758c0-0.5469-0.2188-1.2646-0.6562-2.1533
		c-0.4922-1.0117-1.0938-1.8525-1.8047-2.5225l1.1484-5.5371c0.9297,0.957,1.6475,2.0576,2.1533,3.3018s0.7588,2.6592,0.7588,4.2451
		V1033.665z"/>
	<path fill="#4B5666" d="M665.2588,1033.1934c-1.5312,0-2.8027-0.1094-3.8145-0.3281s-2.0098-0.5674-2.9941-1.0459
		c-0.793,0.5605-1.501,0.9297-2.123,1.1074s-1.5547,0.2666-2.7988,0.2666h-3.3428c-0.916,0-1.6406-0.2393-2.1738-0.7178
		s-1.0117-1.2715-1.4355-2.3789c-0.752,1.1484-1.5928,1.9688-2.5225,2.4609c-0.793,0.4238-1.7432,0.6357-2.8506,0.6357h-2.9326
		v-5.5781h2.9326c1.4355,0,2.6318-0.4033,3.5889-1.21c1.2441-1.0527,1.8662-2.6523,1.8662-4.7988l1.3535,0.2051
		c-0.0273,0.4375-0.0547,0.9365-0.082,1.4971s-0.041,1.1826-0.041,1.8662c0,0.6973,0.2393,1.2783,0.7178,1.7432
		s1.0254,0.6973,1.6406,0.6973h2.5225c1.668,0,2.8574-0.2324,3.5684-0.6973c0.8613-0.5605,1.292-1.6064,1.292-3.1377
		c0-0.3281,0.1025-0.6221,0.3076-0.8818c0.123-0.1504,0.376-0.376,0.7588-0.6768l0.7793-0.6152
		c0.0273,0.2598,0.0479,0.6123,0.0615,1.0566s0.0205,0.7344,0.0205,0.8711c0,0.752-0.1094,1.75-0.3281,2.9941
		c0.5059,0.2461,1.0732,0.458,1.7021,0.6357s1.292,0.3145,1.9893,0.4102c0-0.4648-0.1709-1.0664-0.5127-1.8047
		s-0.5127-1.2373-0.5127-1.4971c0-0.3555,0.0479-0.6289,0.1436-0.8203c0.0273-0.0684,0.1777-0.2803,0.4512-0.6357l1.7432-2.3584
		c0.3691,0.8613,0.6318,1.6445,0.7891,2.3477c0.1572,0.7051,0.2363,1.583,0.2363,2.6357V1033.1934z M662.8799,1013.5264
		l-2.2559,4.1836l-2.9121-1.6406l-1.7842,3.2402l-3.6709-2.0918l2.1328-3.9785l3.0352,1.5176l1.7227-3.3223L662.8799,1013.5264z
		 M658.9014,1008.666l-2.0508,4.2656l-3.8555-2.0508l2.0918-4.1836L658.9014,1008.666z"/>
</g>
<g>
	<path fill="#4B5666" d="M901.9336,597.4072h-2.6865c-0.4922,0-0.9434-0.1025-1.3535-0.3076
		c-0.793-0.3965-1.4629-1.1211-2.0098-2.1738c-0.7383-1.4492-1.2168-3.4316-1.4355-5.9473
		c-0.9297,1.1484-1.6543,1.9619-2.1738,2.4404c-0.752,0.6973-1.3809,1.0459-1.8867,1.0459c-0.2598,0-0.5879-0.041-0.9844-0.123
		l-2.502-0.4922c-1.0664-0.2188-1.7227-0.376-1.9688-0.4717s-0.3691-0.2666-0.3691-0.5127c0-0.3691,0.4746-1.5342,1.4248-3.4961
		s1.6377-3.1758,2.0615-3.6406c0.3418-0.3691,0.9502-0.8477,1.8252-1.4355c0.5195-0.3555,1.2578-0.8135,2.2148-1.374l1.0869-0.6357
		c-0.041-0.1914-0.0713-0.3857-0.0928-0.584c-0.0195-0.1982-0.0303-0.3867-0.0303-0.5645c0-0.5195,0.1191-1.1719,0.3584-1.959
		c0.2393-0.7852,0.667-1.7598,1.2822-2.9219l1.9688,12.7969c0.3145,2.0098,0.7246,3.3701,1.2305,4.0811
		c0.3281,0.4648,0.7793,0.6973,1.3535,0.6973h2.6865V597.4072z M897.1963,568.6553l-2.2559,3.8145l-2.9121-1.6406l-1.6406,3.2402
		l-3.8145-2.0918l2.1328-3.6094l3.0352,1.5176l1.7842-3.1377L897.1963,568.6553z M893.9561,585.8203l-0.4102-2.4609
		c-0.4375,0.2051-0.7793,0.3691-1.0254,0.4922c-0.752,0.3965-1.3535,0.7656-1.8047,1.1074
		c-0.3281,0.2734-0.6016,0.5264-0.8203,0.7588c-0.2734,0.3008-0.4102,0.5264-0.4102,0.6768c0,0.1914,0.2393,0.3418,0.7178,0.4512
		s0.9502,0.1641,1.415,0.1641c0.3008,0,0.6152-0.085,0.9434-0.2559S893.3545,586.2715,893.9561,585.8203z"/>
	<path fill="#4B5666" d="M919.3652,597.3867c-1.4355,0-3.124-0.2803-5.0654-0.8408c-1.709-0.4922-3.2129-1.0732-4.5117-1.7432
		c-0.793,1.1895-1.7705,1.9688-2.9326,2.3379c-0.5605,0.1777-1.3262,0.2666-2.2969,0.2666h-4.0605v-5.5781h4.0605
		c1.2305,0,2.208-0.1504,2.9326-0.4512c0.9297-0.3828,1.5723-1.0459,1.9277-1.9893c0.7793-1.7363,1.7773-3.165,2.9941-4.2861
		c1.0801-0.998,1.9961-1.4971,2.748-1.4971c0.6973,0,1.5586,1.0527,2.584,3.1582c1.0801,2.2285,1.6201,4.2793,1.6201,6.1523
		V597.3867z M915.5303,591.1934c0-0.3008-0.2939-0.8203-0.8818-1.5586c-0.6562-0.8203-1.2236-1.2305-1.7021-1.2305
		c-0.5332,0-0.9844,0.6152-1.3535,1.8457c0.7109,0.2734,1.251,0.4785,1.6201,0.6152c1.1074,0.4102,1.7295,0.6152,1.8662,0.6152
		C915.3799,591.4805,915.5303,591.3848,915.5303,591.1934z"/>
	<path fill="#4B5666" d="M930.7676,597.4072h-12.8379v-5.5781h10.7871c-0.1504-0.9297-0.4238-1.7158-0.8203-2.3584
		c-0.2051-0.3555-0.6836-0.9707-1.4355-1.8457l1.6406-4.8809c1.0254,1.1621,1.7256,2.3789,2.1016,3.6504
		s0.5645,3.1582,0.5645,5.6602V597.4072z M930.4395,601.0166l-2.2559,4.1836l-2.9121-1.6406l-1.6406,3.2402l-3.8145-2.0918
		l2.1328-3.9785l3.0352,1.5176l1.7227-3.3223L930.4395,601.0166z"/>
	<path fill="#4B5666" d="M943.5645,597.4072H929.332v-5.5781h12.3047c0-1.1895-0.0342-2.0371-0.1025-2.543
		c-0.1094-0.7793-0.335-1.4561-0.6768-2.0303c-0.4375,0.8477-1.0254,1.4971-1.7637,1.9482s-1.5244,0.6768-2.3584,0.6768
		c-1.0938,0-2.0166-0.3623-2.7686-1.0869s-1.1279-1.6338-1.1279-2.7275c0-1.6133,0.4922-3.5273,1.4766-5.7422
		c1.0801-2.4336,2.1738-3.6504,3.2812-3.6504c1.4355,0,2.7891,1.251,4.0605,3.7529s1.9072,5.1475,1.9072,7.9365V597.4072z
		 M941.6162,570.0703l-2.2559,4.1836l-2.9121-1.6406l-1.6406,3.2402l-3.8145-2.0918l2.1328-3.9785l3.0352,1.5176l1.7227-3.3223
		L941.6162,570.0703z M939.1143,583.6055c-0.3691-0.6426-0.6943-1.0898-0.9736-1.3438c-0.2812-0.252-0.585-0.3789-0.9131-0.3789
		c-0.4102,0-0.7793,0.1846-1.1074,0.5537s-0.4922,0.7998-0.4922,1.292c0,0.3145,0.126,0.5781,0.3799,0.7891
		c0.252,0.2129,0.5771,0.3184,0.9736,0.3184c0.3145,0,0.6318-0.0918,0.9541-0.2773
		C938.2559,584.375,938.6494,584.0566,939.1143,583.6055z"/>
	<path fill="#4B5666" d="M967.374,573.8848c0,0.8477-0.3145,1.6064-0.9434,2.2764s-1.4014,1.0049-2.3174,1.0049
		c-0.7383,0-1.292-0.2051-1.6611-0.6152s-0.5537-0.9844-0.5537-1.7227c0-1.0527,0.2734-1.9854,0.8203-2.7988
		s1.2236-1.2207,2.0303-1.2207c0.7383,0,1.3604,0.3076,1.8662,0.9229S967.374,573.0645,967.374,573.8848z M966.1436,574.4385
		c0-0.3828-0.2666-0.8066-0.7998-1.2715s-0.9844-0.6973-1.3535-0.6973c-0.3555,0-0.6562,0.1533-0.9023,0.4619
		c-0.2461,0.3066-0.3691,0.625-0.3691,0.9531c0,0.4785,0.2256,0.8135,0.6768,1.0049c0.3555,0.1504,0.8682,0.2256,1.5381,0.2256
		c0.3418,0,0.6289-0.0479,0.8613-0.1436S966.1436,574.6982,966.1436,574.4385z"/>
	<path fill="#4B5666" d="M978.6943,597.4072h-3.1992c-2.4062,0-4.0469-0.3486-4.9219-1.0459s-1.3125-2.0098-1.3125-3.9375
		c0-0.8613,0.0547-1.6885,0.1641-2.4814c0.041-0.2734,0.1504-0.9229,0.3281-1.9482c-3.1172,0.7246-5.6328,1.9756-7.5469,3.7529
		c-1.9688,1.832-2.9531,3.917-2.9531,6.2549c0,2.7344,1.1719,4.8398,3.5176,6.3164c2.3438,1.4766,5.7246,2.2148,10.1406,2.2148
		c1.2988,0,3.1582-0.123,5.5781-0.3691l0.3691,0.6562l-7.793,5.0039l-1.9688,0.041c-4.0059,0-7.0928-1.0156-9.2598-3.0449
		c-2.167-2.0312-3.25-4.9258-3.25-8.6855c0-2.8574,0.6523-5.5059,1.959-7.9473c1.3047-2.4395,2.9766-4.207,5.0137-5.3008h-0.4512
		c-1.2715,0-2.3213,0.1201-3.1484,0.3594s-2.0742,0.7891-3.7422,1.6504c0.6152-5.0859,3.1035-7.6289,7.4648-7.6289
		c0.5059,0,1.4697,0.0791,2.8916,0.2363s2.6865,0.2764,3.7939,0.3584c2.0781,0.1504,4.1152,0.2256,6.1113,0.2256l-1.2305,4.9629
		c-0.8066,0-1.4971,0.0479-2.0713,0.1436c-0.7656,0.1641-1.4561,0.3076-2.0713,0.4307c-0.041,0.2598-0.0791,0.5537-0.1133,0.8818
		s-0.0508,0.5811-0.0508,0.7588c0,0.9707,0.3213,1.6406,0.9639,2.0098s1.832,0.5537,3.5684,0.5537h3.2197V597.4072z
		 M969.2607,597.7559l-2.502,4.5938l-4.6758-2.625l2.4609-4.5527L969.2607,597.7559z"/>
	<path fill="#4B5666" d="M987.2871,601.4268c0,0.6562-0.3555,1.2852-1.0664,1.8867c-1.2305,0.4785-3.2129,1.2646-5.9473,2.3584
		c0-0.5879,0.3008-1.1553,0.9023-1.7021C982.3105,603.5049,984.3477,602.6572,987.2871,601.4268z"/>
	<path fill="#4B5666" d="M990.0967,597.4072h-12.8379v-5.5781h10.7871c-0.1504-0.9297-0.4238-1.7158-0.8203-2.3584
		c-0.2051-0.3555-0.6836-0.9707-1.4355-1.8457l1.6406-4.8809c1.0254,1.1621,1.7256,2.3789,2.1016,3.6504
		s0.5645,3.1582,0.5645,5.6602V597.4072z M989.7686,575.4844l-2.2559,4.1836l-2.9121-1.6406l-1.6406,3.2402l-3.8145-2.0918
		l2.1328-3.9785l3.0352,1.5176l1.7227-3.3223L989.7686,575.4844z"/>
	<path fill="#4B5666" d="M1001.499,597.4072h-12.8379v-5.5781h10.7871c-0.1504-0.9297-0.4238-1.7158-0.8203-2.3584
		c-0.2051-0.3555-0.6836-0.9707-1.4355-1.8457l1.6406-4.8809c1.0254,1.1621,1.7256,2.3789,2.1016,3.6504
		s0.5645,3.1582,0.5645,5.6602V597.4072z M1001.6221,575.0742l-2.4609,4.5938l-4.7988-2.502l2.4814-4.6348L1001.6221,575.0742z"/>
	<path fill="#4B5666" d="M1009.5791,560.2061c0,0.6289-0.3418,1.2373-1.0254,1.8252c-1.2578,0.5059-3.2539,1.3125-5.9883,2.4199
		c0-0.6152,0.2803-1.1895,0.8408-1.7227C1004.582,562.25,1006.6396,561.4092,1009.5791,560.2061z"/>
	<path fill="#4B5666" d="M1009.0869,569.8857c-0.1504,0.3965-0.3281,0.6973-0.5332,0.9023
		c-0.1504,0.1504-0.3828,0.2734-0.6973,0.3691l-4.4297,1.3535c0.2734-0.4922,0.5127-0.8311,0.7178-1.0146
		c0.2051-0.1855,0.5742-0.3525,1.1074-0.5029c-0.3828-0.2461-0.6602-0.4746-0.8311-0.6865s-0.2559-0.4209-0.2559-0.626
		c0-0.1777,0.0547-0.3799,0.1641-0.6045c0.1094-0.2266,0.2529-0.4482,0.4307-0.667c0.8887-1.1895,1.7705-1.7842,2.6455-1.7842
		c0.2598,0,0.4678,0.0859,0.625,0.2559c0.1572,0.1719,0.2363,0.3936,0.2363,0.667c0,0.2188-0.0312,0.4072-0.0918,0.5635
		c-0.0625,0.1582-0.1885,0.3936-0.3799,0.708c-0.6836-0.3418-1.1484-0.5127-1.3945-0.5127s-0.4922,0.0615-0.7383,0.1846
		c-0.1641,0.082-0.3145,0.1914-0.4512,0.3281c0,0.1777,0.3281,0.4512,0.9844,0.8203s1.1279,0.5537,1.415,0.5537
		C1007.7881,570.1934,1008.2803,570.0908,1009.0869,569.8857z M1009.1279,591.4395c0,1.2168-0.1436,2.3281-0.4307,3.332
		c-0.2871,1.0059-0.8408,2.3555-1.6611,4.0508l-1.2305-0.4922c0.3281-1.75,0.4922-3.1719,0.4922-4.2656
		c0-0.834-0.0684-2.0576-0.2051-3.6709s-0.3076-3.21-0.5127-4.7881c-0.2051-1.5801-0.54-3.4629-1.0049-5.6504
		c-0.1641-0.7656-0.2461-1.292-0.2461-1.5791c0-0.4238,0.2119-1.1445,0.6357-2.1631s1.0186-2.2529,1.7842-3.7021l1.2305,7.2598
		c0.4512,2.7617,0.7656,5.1543,0.9434,7.1777C1009.0596,588.5068,1009.1279,590.0039,1009.1279,591.4395z"/>
	<path fill="#4B5666" d="M871.0283,647.2949c0,2.1055-1.0938,3.9717-3.2812,5.5986s-4.6826,2.4404-7.4854,2.4404
		c-2.3379,0-4.167-0.5918-5.4854-1.7734c-1.3203-1.1826-1.9795-2.834-1.9795-4.9531c0-1.9824,0.2461-3.7119,0.7383-5.1885
		c0.5605-1.668,1.6543-3.7119,3.2812-6.1318l1.2715,0.8613c-1.0664,1.5996-1.8252,2.9873-2.2764,4.1631
		s-0.6768,2.3447-0.6768,3.5068c0,1.2441,0.4619,2.2051,1.3838,2.8809c0.9238,0.6777,2.2256,1.0156,3.9072,1.0156
		c2.4062,0,4.3613-0.4648,5.8652-1.3945s2.2559-2.1465,2.2559-3.6504c0-0.2598,0-0.4648,0-0.6152s0-0.2666,0-0.3486
		c0-0.5332-0.0449-1.1211-0.1338-1.7637s-0.3174-1.9688-0.6865-3.9785c-0.5879-3.2402-1.1758-6.4873-1.7637-9.7412l-1.0254-0.7383
		c0-1.3398,0.6289-3.3906,1.8867-6.1523l0.9434,0.4512c-0.0547,0.1914-0.082,0.4102-0.082,0.6562
		c0,0.5469,0.2803,0.9912,0.8408,1.333c0.834,0.4648,1.6201,0.9092,2.3584,1.333c-0.1504,1.1758-0.3008,2.0166-0.4512,2.5225
		s-0.4648,1.2646-0.9434,2.2764l-0.6152-0.2461c0,0.2051,0.1943,1.3711,0.585,3.4961c0.3887,2.127,0.7207,3.9619,0.9941,5.5068
		c0.3828,2.2148,0.5742,3.5615,0.5742,4.04V647.2949z"/>
	<path fill="#4B5666" d="M903.4307,647.8076h-21.7178c-0.9707,0-1.7471-0.2422-2.3271-0.7275
		c-0.582-0.4854-1.0771-1.2754-1.4873-2.3691c-0.875,1.2168-1.709,2.0439-2.502,2.4814c-0.7246,0.3965-1.6816,0.5947-2.8711,0.5947
		l-2.9326,0.0205v-5.5781l2.9326-0.0205c1.5859,0,2.7891-0.3965,3.6094-1.1895c0.957-0.9297,1.5723-2.5293,1.8457-4.7988
		l1.3945,0.2051c-0.041,0.4922-0.0684,0.8887-0.082,1.1895c-0.0547,0.9023-0.082,1.627-0.082,2.1738
		c0,0.7793,0.2051,1.3809,0.6152,1.8047s0.9502,0.6357,1.6201,0.6357s1.2881-0.1367,1.8555-0.4102s1.46-0.8408,2.6768-1.7021
		l7.3418-5.25c0.8613-0.6152,1.5107-1.0527,1.9482-1.3125c0.998-0.6016,1.9619-0.9023,2.8916-0.9023
		c1.5312,0,2.7549,0.54,3.6709,1.6201c1.0664,1.2578,1.5996,3.1514,1.5996,5.6807V647.8076z M900.5596,640.1377
		c0-0.6152-0.4854-1.1143-1.4561-1.4971c-0.8066-0.3145-1.709-0.4717-2.707-0.4717c-0.9023,0-1.917,0.291-3.0459,0.8721
		c-1.127,0.5811-2.7646,1.6436-4.9111,3.1885h5.373C898.3105,642.2295,900.5596,641.5322,900.5596,640.1377z"/>
	<path fill="#4B5666" d="M911.0186,641.8398c0,1.2168-0.1436,2.3281-0.4307,3.332c-0.2871,1.0059-0.8408,2.3555-1.6611,4.0508
		l-1.2305-0.4922c0.3281-1.75,0.4922-3.1719,0.4922-4.2656c0-0.834-0.0684-2.0576-0.2051-3.6709s-0.3076-3.21-0.5127-4.7881
		c-0.2051-1.5801-0.54-3.4629-1.0049-5.6504c-0.1641-0.7656-0.2461-1.292-0.2461-1.5791c0-0.4238,0.2119-1.1445,0.6357-2.1631
		s1.0186-2.2529,1.7842-3.7021l1.2305,7.2598c0.4512,2.7617,0.7656,5.1543,0.9434,7.1777
		C910.9502,638.9072,911.0186,640.4043,911.0186,641.8398z"/>
	<path fill="#4B5666" d="M931.4854,646.3926c0,2.3516-0.998,4.6758-2.9941,6.9727s-3.9648,3.4453-5.9062,3.4453
		c-1.1348,0-2.376-0.3623-3.7227-1.0869s-3.4141-2.1533-6.2031-4.2861l0.8613-1.1895c1.4766,0.9844,2.6865,1.6406,3.6299,1.9688
		c0.7793,0.2734,1.6611,0.4102,2.6455,0.4102c1.3262,0,2.6387-0.3691,3.9375-1.1074c1.5312-0.875,3.1172-2.2832,4.7578-4.2246
		c-0.5742,0.082-1.0527,0.123-1.4355,0.123c-1.3535,0-2.4297-0.4414-3.2305-1.3223c-0.7988-0.8828-1.1992-2.082-1.1992-3.5996
		c0-2.0508,0.4717-4.0264,1.415-5.9268c1.0254-2.0645,2.1943-3.0967,3.5068-3.0967c1.0938,0,2.0234,0.7451,2.7891,2.2354
		s1.1484,3.2881,1.1484,5.3936V646.3926z M929.0244,642.2295c-0.3828-2.2012-1.1621-3.3018-2.3379-3.3018
		c-0.4238,0-0.7627,0.168-1.0156,0.502c-0.2529,0.3359-0.3789,0.7012-0.3789,1.0977c0,0.4922,0.2695,0.8994,0.8105,1.2207
		c0.5391,0.3213,1.2539,0.4814,2.1426,0.4814H929.0244z"/>
	<path fill="#4B5666" d="M942.8877,647.8076h-12.8379v-5.5781h10.7871c-0.1504-0.9297-0.4238-1.7158-0.8203-2.3584
		c-0.2051-0.3555-0.6836-0.9707-1.4355-1.8457l1.6406-4.8809c1.0254,1.1621,1.7256,2.3789,2.1016,3.6504
		s0.5645,3.1582,0.5645,5.6602V647.8076z M942.5596,625.8848l-2.2559,4.1836l-2.9121-1.6406l-1.6406,3.2402l-3.8145-2.0918
		l2.1328-3.9785l3.0352,1.5176l1.7227-3.3223L942.5596,625.8848z"/>
	<path fill="#4B5666" d="M960.3193,647.7871c-1.4355,0-3.124-0.2803-5.0654-0.8408c-1.709-0.4922-3.2129-1.0732-4.5117-1.7432
		c-0.793,1.1895-1.7705,1.9688-2.9326,2.3379c-0.5605,0.1777-1.3262,0.2666-2.2969,0.2666h-4.0605v-5.5781h4.0605
		c1.2305,0,2.208-0.1504,2.9326-0.4512c0.9297-0.3828,1.5723-1.0459,1.9277-1.9893c0.7793-1.7363,1.7773-3.165,2.9941-4.2861
		c1.0801-0.998,1.9961-1.4971,2.748-1.4971c0.6973,0,1.5586,1.0527,2.584,3.1582c1.0801,2.2285,1.6201,4.2793,1.6201,6.1523
		V647.7871z M956.4844,641.5938c0-0.3008-0.2939-0.8203-0.8818-1.5586c-0.6562-0.8203-1.2236-1.2305-1.7021-1.2305
		c-0.5332,0-0.9844,0.6152-1.3535,1.8457c0.7109,0.2734,1.251,0.4785,1.6201,0.6152c1.1074,0.4102,1.7295,0.6152,1.8662,0.6152
		C956.334,641.8809,956.4844,641.7852,956.4844,641.5938z"/>
	<path fill="#4B5666" d="M990.9375,647.2949c0,2.1055-1.0938,3.9717-3.2812,5.5986s-4.6826,2.4404-7.4854,2.4404
		c-2.3379,0-4.167-0.5918-5.4854-1.7734c-1.3203-1.1826-1.9795-2.834-1.9795-4.9531c0-1.9824,0.2461-3.7119,0.7383-5.1885
		c0.5605-1.668,1.6543-3.7119,3.2812-6.1318l1.2715,0.8613c-1.0664,1.5996-1.8252,2.9873-2.2764,4.1631
		s-0.6768,2.3447-0.6768,3.5068c0,1.2441,0.4619,2.2051,1.3838,2.8809c0.9238,0.6777,2.2256,1.0156,3.9072,1.0156
		c2.4062,0,4.3613-0.4648,5.8652-1.3945s2.2559-2.1465,2.2559-3.6504c0-0.2598,0-0.4648,0-0.6152s0-0.2666,0-0.3486
		c0-0.5332-0.0449-1.1211-0.1338-1.7637s-0.3174-1.9688-0.6865-3.9785c-0.5879-3.2402-1.1758-6.4873-1.7637-9.7412l-1.0254-0.7383
		c0-1.3398,0.6289-3.3906,1.8867-6.1523l0.9434,0.4512c-0.0547,0.1914-0.082,0.4102-0.082,0.6562
		c0,0.5469,0.2803,0.9912,0.8408,1.333c0.834,0.4648,1.6201,0.9092,2.3584,1.333c-0.1504,1.1758-0.3008,2.0166-0.4512,2.5225
		s-0.4648,1.2646-0.9434,2.2764l-0.6152-0.2461c0,0.2051,0.1943,1.3711,0.585,3.4961c0.3887,2.127,0.7207,3.9619,0.9941,5.5068
		c0.3828,2.2148,0.5742,3.5615,0.5742,4.04V647.2949z"/>
	<path fill="#4B5666" d="M1006.0723,647.8076H989.502v-5.5781h13.3096c-0.5332-0.6426-1.0527-1.2031-1.5586-1.6816
		c-0.4102-0.3828-0.9639-0.8477-1.6611-1.3945c-0.7793-0.6016-1.5518-1.2031-2.3174-1.8047l-0.6562,0.7383
		c-1.2168-1.2031-1.9414-1.9346-2.1738-2.1943c-0.6836-0.7793-1.0254-1.6748-1.0254-2.6865c0-1.3809,0.0957-2.3516,0.2871-2.9121
		c0.2734-0.793,0.8545-1.4971,1.7432-2.1123c0.793-0.5469,1.6406-1.0459,2.543-1.4971c0.7109-0.3555,1.6543-0.7725,2.8301-1.251
		c0.5469-0.2188,1.7021-0.6699,3.4658-1.3535v4.8809c-0.0684,0-0.6426,0.1777-1.7227,0.5332
		c-1.3398,0.4375-2.4062,0.8203-3.1992,1.1484c-1.1484,0.4648-1.7227,0.8135-1.7227,1.0459c0,0.123,0.4854,0.6562,1.4561,1.5996
		c1.3262,1.2852,2.4404,2.4609,3.3428,3.5273c1.4902,1.7637,2.7002,3.5205,3.6299,5.2705V647.8076z"/>
	<path fill="#4B5666" d="M1031.625,647.8076c-1.5312,0-2.8027-0.1094-3.8145-0.3281s-2.0098-0.5674-2.9941-1.0459
		c-0.793,0.5605-1.501,0.9297-2.123,1.1074s-1.5547,0.2666-2.7988,0.2666h-3.3428c-0.916,0-1.6406-0.2393-2.1738-0.7178
		s-1.0117-1.2715-1.4355-2.3789c-0.752,1.1484-1.5928,1.9688-2.5225,2.4609c-0.793,0.4238-1.7432,0.6357-2.8506,0.6357h-2.9326
		v-5.5781h2.9326c1.4355,0,2.6318-0.4033,3.5889-1.21c1.2441-1.0527,1.8662-2.6523,1.8662-4.7988l1.3535,0.2051
		c-0.0273,0.4375-0.0547,0.9365-0.082,1.4971s-0.041,1.1826-0.041,1.8662c0,0.6973,0.2393,1.2783,0.7178,1.7432
		s1.0254,0.6973,1.6406,0.6973h2.5225c1.668,0,2.8574-0.2324,3.5684-0.6973c0.8613-0.5605,1.292-1.6064,1.292-3.1377
		c0-0.3281,0.1025-0.6221,0.3076-0.8818c0.123-0.1504,0.376-0.376,0.7588-0.6768l0.7793-0.6152
		c0.0273,0.2598,0.0479,0.6123,0.0615,1.0566s0.0205,0.7344,0.0205,0.8711c0,0.752-0.1094,1.75-0.3281,2.9941
		c0.5059,0.2461,1.0732,0.458,1.7021,0.6357s1.292,0.3145,1.9893,0.4102c0-0.4648-0.1709-1.0664-0.5127-1.8047
		s-0.5127-1.2373-0.5127-1.4971c0-0.3555,0.0479-0.6289,0.1436-0.8203c0.0273-0.0684,0.1777-0.2803,0.4512-0.6357l1.7432-2.3584
		c0.3691,0.8613,0.6318,1.6445,0.7891,2.3477c0.1572,0.7051,0.2363,1.583,0.2363,2.6357V647.8076z M1029.2461,628.1406
		l-2.2559,4.1836l-2.9121-1.6406l-1.7842,3.2402l-3.6709-2.0918l2.1328-3.9785l3.0352,1.5176l1.7227-3.3223L1029.2461,628.1406z
		 M1025.2676,623.2803l-2.0508,4.2656l-3.8555-2.0508l2.0918-4.1836L1025.2676,623.2803z"/>
	<path fill="#4B5666" d="M1043.0273,647.8076h-12.8379v-5.5781h10.7871c-0.1504-0.9297-0.4238-1.7158-0.8203-2.3584
		c-0.2051-0.3555-0.6836-0.9707-1.4355-1.8457l1.6406-4.8809c1.0254,1.1621,1.7256,2.3789,2.1016,3.6504
		s0.5645,3.1582,0.5645,5.6602V647.8076z M1040.9355,652.1348l-2.4609,4.5938l-4.7578-2.584l2.4609-4.6758L1040.9355,652.1348z"/>
</g>
<g>
	<path fill="#4B5666" d="M118.6094,563.959c0,0.6289-0.3486,1.2373-1.0459,1.8252c-1.2441,0.5059-3.2334,1.3057-5.9678,2.3994
		c0-0.5879,0.3008-1.1553,0.9023-1.7021C113.6328,566.0029,115.6699,565.1621,118.6094,563.959z M118.6094,567.0352
		c0,0.6562-0.3418,1.2783-1.0254,1.8662c-1.2578,0.5059-3.2539,1.3057-5.9883,2.3994c0-0.5879,0.3008-1.1553,0.9023-1.7021
		C113.6328,569.1201,115.6699,568.2656,118.6094,567.0352z"/>
	<path fill="#4B5666" d="M121.8906,597.4072h-2.8711c-1.5996,0-2.7549-0.6562-3.4658-1.9688
		c-0.793-1.4492-1.1895-3.8896-1.1895-7.3213v-5.8447c0-1.3262-0.1846-2.3584-0.5537-3.0967
		c-0.1777-0.3555-0.5879-0.8682-1.2305-1.5381l2.2148-5.127c0.793,1.0938,1.3467,2.1738,1.6611,3.2402
		c0.3691,1.2441,0.5537,2.8301,0.5537,4.7578v4.04c0,2.8574,0.1914,4.8398,0.5742,5.9473c0.3008,0.8887,0.7793,1.333,1.4355,1.333
		h2.8711V597.4072z"/>
	<path fill="#4B5666" d="M137.0254,597.4072h-3.0352c-1.0801,0-2.0303-0.2188-2.8506-0.6562s-1.4834-1.1416-1.9893-2.1123
		c-0.8887,1.0938-2.0439,1.8662-3.4658,2.3174c-0.9434,0.3008-1.9688,0.4512-3.0762,0.4512h-2.1533v-5.5781h2.1533
		c1.1348,0,1.9307-0.0576,2.3896-0.1748c0.457-0.1152,1.0762-0.3789,1.8555-0.7891c-0.4102-0.8066-0.7656-1.3877-1.0664-1.7432
		c-0.3691-0.4238-0.752-0.6357-1.1484-0.6357c-0.1504,0-0.291,0.0508-0.4199,0.1543c-0.1309,0.1016-0.2773,0.2969-0.4414,0.584
		l-0.9023-0.123c0-2.4746,0.4268-4.2412,1.2812-5.3008s2.2051-1.5898,4.0508-1.5898c1.9004,0,3.3945,0.373,4.4805,1.1172
		c1.0879,0.7461,1.6309,1.7676,1.6309,3.0664c0,0.6973-0.1436,1.3633-0.4307,2c-0.2871,0.6348-0.8271,1.5-1.6201,2.5938
		c0.1914,0.2598,0.4512,0.4648,0.7793,0.6152s0.6426,0.2256,0.9434,0.2256h3.0352V597.4072z"/>
	<path fill="#4B5666" d="M148.4277,597.4072h-12.8379v-5.5781h10.7871c-0.1504-0.9297-0.4238-1.7158-0.8203-2.3584
		c-0.2051-0.3555-0.6836-0.9707-1.4355-1.8457l1.6406-4.8809c1.0254,1.1621,1.7256,2.3789,2.1016,3.6504
		s0.5645,3.1582,0.5645,5.6602V597.4072z M148.0996,601.0166l-2.2559,4.1836l-2.9121-1.6406l-1.6406,3.2402l-3.8145-2.0918
		l2.1328-3.9785l3.0352,1.5176l1.7227-3.3223L148.0996,601.0166z"/>
	<path fill="#4B5666" d="M166.5977,597.8789c0,0.834-0.4785,1.9375-1.4355,3.3125c-0.957,1.373-2.0781,2.5664-3.3633,3.5781
		c-1.4219,1.1211-2.6387,1.6816-3.6504,1.6816c-1.2031,0-2.4951-0.3418-3.876-1.0254c-1.2031-0.5879-3.083-1.7637-5.6396-3.5273
		l0.8613-1.2715c1.2305,0.8203,2.2217,1.374,2.9736,1.6611s1.5654,0.4307,2.4404,0.4307c0.9434,0,1.8867-0.2666,2.8301-0.7998
		s2.2285-1.5244,3.8555-2.9736c2.2695-2.0234,3.4043-3.582,3.4043-4.6758c0-0.5469-0.2188-1.2646-0.6562-2.1533
		c-0.4922-1.0117-1.0938-1.8525-1.8047-2.5225l1.1484-5.5371c0.9297,0.957,1.6475,2.0576,2.1533,3.3018s0.7588,2.6592,0.7588,4.2451
		V597.8789z"/>
	<path fill="#4B5666" d="M192.1504,597.4072c-1.5312,0-2.8027-0.1094-3.8145-0.3281s-2.0098-0.5674-2.9941-1.0459
		c-0.793,0.5605-1.501,0.9297-2.123,1.1074s-1.5547,0.2666-2.7988,0.2666h-3.3428c-0.916,0-1.6406-0.2393-2.1738-0.7178
		s-1.0117-1.2715-1.4355-2.3789c-0.752,1.1484-1.5928,1.9688-2.5225,2.4609c-0.793,0.4238-1.7432,0.6357-2.8506,0.6357h-2.9326
		v-5.5781h2.9326c1.4355,0,2.6318-0.4033,3.5889-1.21c1.2441-1.0527,1.8662-2.6523,1.8662-4.7988l1.3535,0.2051
		c-0.0273,0.4375-0.0547,0.9365-0.082,1.4971s-0.041,1.1826-0.041,1.8662c0,0.6973,0.2393,1.2783,0.7178,1.7432
		s1.0254,0.6973,1.6406,0.6973h2.5225c1.668,0,2.8574-0.2324,3.5684-0.6973c0.8613-0.5605,1.292-1.6064,1.292-3.1377
		c0-0.3281,0.1025-0.6221,0.3076-0.8818c0.123-0.1504,0.376-0.376,0.7588-0.6768l0.7793-0.6152
		c0.0273,0.2598,0.0479,0.6123,0.0615,1.0566s0.0205,0.7344,0.0205,0.8711c0,0.752-0.1094,1.75-0.3281,2.9941
		c0.5059,0.2461,1.0732,0.458,1.7021,0.6357s1.292,0.3145,1.9893,0.4102c0-0.4648-0.1709-1.0664-0.5127-1.8047
		s-0.5127-1.2373-0.5127-1.4971c0-0.3555,0.0479-0.6289,0.1436-0.8203c0.0273-0.0684,0.1777-0.2803,0.4512-0.6357l1.7432-2.3584
		c0.3691,0.8613,0.6318,1.6445,0.7891,2.3477c0.1572,0.7051,0.2363,1.583,0.2363,2.6357V597.4072z"/>
	<path fill="#4B5666" d="M235.6475,597.4072h-2.748c-2.3926,0-5.1064,0.0547-8.1416,0.1641
		c-1.832,0.0684-4.2109,0.1709-7.1367,0.3076s-4.498,0.2051-4.7168,0.2051c-2.9121,0-5.0176-0.5127-6.3164-1.5381
		c-1.2031-0.957-1.8047-2.4404-1.8047-4.4502c0-1.5586,0.1504-2.9189,0.4512-4.0811s0.998-3.042,2.0918-5.6396l1.3535,0.6152
		c-0.9844,2.3379-1.4766,4.0469-1.4766,5.127c0,1.4082,0.5537,2.4199,1.6611,3.0352c1.2305,0.6836,3.3564,1.0254,6.3779,1.0254
		c2.0918-0.123,4.1289-0.2285,6.1113-0.3184c1.9824-0.0879,3.8828-0.1328,5.7012-0.1328c-0.5605-0.2734-0.9473-0.5771-1.1592-0.9121
		s-0.3174-0.8242-0.3174-1.4668c0-1.9551,0.5947-3.9033,1.7842-5.8447c1.2852-2.0918,2.7002-3.1377,4.2451-3.1377
		c1.4492,0,2.502,1.0117,3.1582,3.0352c0.5879,1.832,0.8818,4.6416,0.8818,8.4287V597.4072z M234.0479,573.2285l-2.4609,4.5938
		l-4.7988-2.502l2.4609-4.6348L234.0479,573.2285z M232.4482,589.2246c-0.4785-1.3398-0.875-2.2217-1.1895-2.6455
		s-0.7246-0.6357-1.2305-0.6357c-0.2598,0-0.4893,0.0996-0.6875,0.2969c-0.1982,0.1992-0.2969,0.4551-0.2969,0.7695
		c0,0.4238,0.2939,0.8203,0.8818,1.1895S231.3545,588.9102,232.4482,589.2246z"/>
	<path fill="#4B5666" d="M261.2002,597.4072c-1.5312,0-2.8027-0.1094-3.8145-0.3281s-2.0098-0.5674-2.9941-1.0459
		c-0.793,0.5605-1.501,0.9297-2.123,1.1074s-1.5547,0.2666-2.7988,0.2666h-3.3428c-0.916,0-1.6406-0.2393-2.1738-0.7178
		s-1.0117-1.2715-1.4355-2.3789c-0.752,1.1484-1.5928,1.9688-2.5225,2.4609c-0.793,0.4238-1.7432,0.6357-2.8506,0.6357h-2.9326
		v-5.5781h2.9326c1.4355,0,2.6318-0.4033,3.5889-1.21c1.2441-1.0527,1.8662-2.6523,1.8662-4.7988l1.3535,0.2051
		c-0.0273,0.4375-0.0547,0.9365-0.082,1.4971s-0.041,1.1826-0.041,1.8662c0,0.6973,0.2393,1.2783,0.7178,1.7432
		s1.0254,0.6973,1.6406,0.6973h2.5225c1.668,0,2.8574-0.2324,3.5684-0.6973c0.8613-0.5605,1.292-1.6064,1.292-3.1377
		c0-0.3281,0.1025-0.6221,0.3076-0.8818c0.123-0.1504,0.376-0.376,0.7588-0.6768l0.7793-0.6152
		c0.0273,0.2598,0.0479,0.6123,0.0615,1.0566s0.0205,0.7344,0.0205,0.8711c0,0.752-0.1094,1.75-0.3281,2.9941
		c0.5059,0.2461,1.0732,0.458,1.7021,0.6357s1.292,0.3145,1.9893,0.4102c0-0.4648-0.1709-1.0664-0.5127-1.8047
		s-0.5127-1.2373-0.5127-1.4971c0-0.3555,0.0479-0.6289,0.1436-0.8203c0.0273-0.0684,0.1777-0.2803,0.4512-0.6357l1.7432-2.3584
		c0.3691,0.8613,0.6318,1.6445,0.7891,2.3477c0.1572,0.7051,0.2363,1.583,0.2363,2.6357V597.4072z M258.8213,577.7402
		l-2.2559,4.1836l-2.9121-1.6406l-1.7842,3.2402l-3.6709-2.0918l2.1328-3.9785l3.0352,1.5176l1.7227-3.3223L258.8213,577.7402z
		 M254.8428,572.8799l-2.0508,4.2656l-3.8555-2.0508l2.0918-4.1836L254.8428,572.8799z"/>
	<path fill="#4B5666" d="M272.6025,597.4072h-12.8379v-5.5781h10.7871c-0.1504-0.9297-0.4238-1.7158-0.8203-2.3584
		c-0.2051-0.3555-0.6836-0.9707-1.4355-1.8457l1.6406-4.8809c1.0254,1.1621,1.7256,2.3789,2.1016,3.6504
		s0.5645,3.1582,0.5645,5.6602V597.4072z M272.2744,575.4844l-2.2559,4.1836l-2.9121-1.6406l-1.6406,3.2402l-3.8145-2.0918
		l2.1328-3.9785l3.0352,1.5176l1.7227-3.3223L272.2744,575.4844z"/>
	<path fill="#4B5666" d="M287.7373,597.4072H271.167v-5.5781h13.3096c-0.5332-0.6426-1.0527-1.2031-1.5586-1.6816
		c-0.4102-0.3828-0.9639-0.8477-1.6611-1.3945c-0.7793-0.6016-1.5518-1.2031-2.3174-1.8047l-0.6562,0.7383
		c-1.2168-1.2031-1.9414-1.9346-2.1738-2.1943c-0.6836-0.7793-1.0254-1.6748-1.0254-2.6865c0-1.3809,0.0957-2.3516,0.2871-2.9121
		c0.2734-0.793,0.8545-1.4971,1.7432-2.1123c0.793-0.5469,1.6406-1.0459,2.543-1.4971c0.7109-0.3555,1.6543-0.7725,2.8301-1.251
		c0.5469-0.2188,1.7021-0.6699,3.4658-1.3535v4.8809c-0.0684,0-0.6426,0.1777-1.7227,0.5332
		c-1.3398,0.4375-2.4062,0.8203-3.1992,1.1484c-1.1484,0.4648-1.7227,0.8135-1.7227,1.0459c0,0.123,0.4854,0.6562,1.4561,1.5996
		c1.3262,1.2852,2.4404,2.4609,3.3428,3.5273c1.4902,1.7637,2.7002,3.5205,3.6299,5.2705V597.4072z"/>
	<path fill="#4B5666" d="M295.3252,591.4395c0,1.2168-0.1436,2.3281-0.4307,3.332c-0.2871,1.0059-0.8408,2.3555-1.6611,4.0508
		l-1.2305-0.4922c0.3281-1.75,0.4922-3.1719,0.4922-4.2656c0-0.834-0.0684-2.0576-0.2051-3.6709s-0.3076-3.21-0.5127-4.7881
		c-0.2051-1.5801-0.54-3.4629-1.0049-5.6504c-0.1641-0.7656-0.2461-1.292-0.2461-1.5791c0-0.4238,0.2119-1.1445,0.6357-2.1631
		s1.0186-2.2529,1.7842-3.7021l1.2305,7.2598c0.4512,2.7617,0.7656,5.1543,0.9434,7.1777
		C295.2568,588.5068,295.3252,590.0039,295.3252,591.4395z"/>
	<path fill="#4B5666" d="M125.0693,647.8076h-2.6865c-0.4922,0-0.9434-0.1025-1.3535-0.3076
		c-0.793-0.3965-1.4629-1.1211-2.0098-2.1738c-0.7383-1.4492-1.2168-3.4316-1.4355-5.9473
		c-0.9297,1.1484-1.6543,1.9619-2.1738,2.4404c-0.752,0.6973-1.3809,1.0459-1.8867,1.0459c-0.2598,0-0.5879-0.041-0.9844-0.123
		l-2.502-0.4922c-1.0664-0.2188-1.7227-0.376-1.9688-0.4717s-0.3691-0.2666-0.3691-0.5127c0-0.3691,0.4746-1.5342,1.4248-3.4961
		s1.6377-3.1758,2.0615-3.6406c0.3418-0.3691,0.9502-0.8477,1.8252-1.4355c0.5195-0.3555,1.2578-0.8135,2.2148-1.374l1.0869-0.6357
		c-0.041-0.1914-0.0713-0.3857-0.0928-0.584c-0.0195-0.1982-0.0303-0.3867-0.0303-0.5645c0-0.5195,0.1191-1.1719,0.3584-1.959
		c0.2393-0.7852,0.667-1.7598,1.2822-2.9219l1.9688,12.7969c0.3145,2.0098,0.7246,3.3701,1.2305,4.0811
		c0.3281,0.4648,0.7793,0.6973,1.3535,0.6973h2.6865V647.8076z M120.332,619.0557l-2.2559,3.8145l-2.9121-1.6406l-1.6406,3.2402
		l-3.8145-2.0918l2.1328-3.6094l3.0352,1.5176l1.7842-3.1377L120.332,619.0557z M117.0918,636.2207l-0.4102-2.4609
		c-0.4375,0.2051-0.7793,0.3691-1.0254,0.4922c-0.752,0.3965-1.3535,0.7656-1.8047,1.1074
		c-0.3281,0.2734-0.6016,0.5264-0.8203,0.7588c-0.2734,0.3008-0.4102,0.5264-0.4102,0.6768c0,0.1914,0.2393,0.3418,0.7178,0.4512
		s0.9502,0.1641,1.415,0.1641c0.3008,0,0.6152-0.085,0.9434-0.2559S116.4902,636.6719,117.0918,636.2207z"/>
	<path fill="#4B5666" d="M136.4717,647.8076h-12.8379v-5.5781h10.7871c-0.1504-0.9297-0.4238-1.7158-0.8203-2.3584
		c-0.2051-0.3555-0.6836-0.9707-1.4355-1.8457l1.6406-4.8809c1.0254,1.1621,1.7256,2.3789,2.1016,3.6504
		s0.5645,3.1582,0.5645,5.6602V647.8076z M134.3799,652.1348l-2.4609,4.5938l-4.7578-2.584l2.4609-4.6758L134.3799,652.1348z"/>
	<path fill="#4B5666" d="M154.6416,648.2793c0,0.834-0.4785,1.9375-1.4355,3.3125c-0.957,1.373-2.0781,2.5664-3.3633,3.5781
		c-1.4219,1.1211-2.6387,1.6816-3.6504,1.6816c-1.2031,0-2.4951-0.3418-3.876-1.0254c-1.2031-0.5879-3.083-1.7637-5.6396-3.5273
		l0.8613-1.2715c1.2305,0.8203,2.2217,1.374,2.9736,1.6611s1.5654,0.4307,2.4404,0.4307c0.9434,0,1.8867-0.2666,2.8301-0.7998
		s2.2285-1.5244,3.8555-2.9736c2.2695-2.0234,3.4043-3.582,3.4043-4.6758c0-0.5469-0.2188-1.2646-0.6562-2.1533
		c-0.4922-1.0117-1.0938-1.8525-1.8047-2.5225l1.1484-5.5371c0.9297,0.957,1.6475,2.0576,2.1533,3.3018s0.7588,2.6592,0.7588,4.2451
		V648.2793z"/>
	<path fill="#4B5666" d="M176.626,647.8076h-23.4199v-5.5781h14.5811c-1.6543-1.709-3.1855-2.9395-4.5938-3.6914
		c-1.2441-0.6699-2.4609-1.0049-3.6504-1.0049c-0.3555,0-0.6807,0.0176-0.9736,0.0508c-0.2949,0.0352-0.7217,0.1133-1.2822,0.2363
		c0.752-1.7227,1.5889-2.9941,2.5127-3.8145c0.9219-0.8203,1.9717-1.2305,3.1475-1.2305c0.9023,0,1.7705,0.2188,2.6045,0.6562
		s1.7705,1.1416,2.8096,2.1123c0.8203,0.7656,1.9824,1.9619,3.4863,3.5889c1.0254,1.1484,1.8076,1.8936,2.3486,2.2354
		c0.5391,0.3418,1.3496,0.6289,2.4297,0.8613V647.8076z M169.0381,652.2988l-2.584,4.6348l-4.7168-2.543l2.5225-4.6348
		L169.0381,652.2988z"/>
	<path fill="#4B5666" d="M188.0283,647.8076h-12.8379v-5.5781h10.7871c-0.1504-0.9297-0.4238-1.7158-0.8203-2.3584
		c-0.2051-0.3555-0.6836-0.9707-1.4355-1.8457l1.6406-4.8809c1.0254,1.1621,1.7256,2.3789,2.1016,3.6504
		s0.5645,3.1582,0.5645,5.6602V647.8076z M187.7002,625.8848l-2.2559,4.1836l-2.9121-1.6406l-1.6406,3.2402l-3.8145-2.0918
		l2.1328-3.9785l3.0352,1.5176l1.7227-3.3223L187.7002,625.8848z"/>
	<path fill="#4B5666" d="M197.8721,647.8076h-11.2793v-5.5781h8.8184l-2.4814-13.9248l-1.3125-0.8613
		c0-0.8066,0.123-1.6201,0.3691-2.4404c0.3145-1.0391,0.8477-2.2764,1.5996-3.7119l0.9434,0.4922
		c0,0.082-0.0273,0.3008-0.082,0.6562c0,0.4512,0.2871,0.8887,0.8613,1.3125c0.5059,0.3828,1.3125,0.8066,2.4199,1.2715
		c-0.123,0.875-0.3047,1.7295-0.5439,2.5635s-0.5088,1.5791-0.8096,2.2354l-0.7383-0.2871l2.2354,12.6943V647.8076z"/>
	<path fill="#4B5666" d="M207.7158,647.8076h-2.8711c-1.5996,0-2.7549-0.6562-3.4658-1.9688
		c-0.793-1.4492-1.1895-3.8896-1.1895-7.3213v-5.8447c0-1.3262-0.1846-2.3584-0.5537-3.0967
		c-0.1777-0.3555-0.5879-0.8682-1.2305-1.5381l2.2148-5.127c0.793,1.0938,1.3467,2.1738,1.6611,3.2402
		c0.3691,1.2441,0.5537,2.8301,0.5537,4.7578v4.04c0,2.8574,0.1914,4.8398,0.5742,5.9473c0.3008,0.8887,0.7793,1.333,1.4355,1.333
		h2.8711V647.8076z"/>
	<path fill="#4B5666" d="M219.1182,647.8076h-12.8379v-5.5781h10.7871c-0.1504-0.9297-0.4238-1.7158-0.8203-2.3584
		c-0.2051-0.3555-0.6836-0.9707-1.4355-1.8457l1.6406-4.8809c1.0254,1.1621,1.7256,2.3789,2.1016,3.6504
		s0.5645,3.1582,0.5645,5.6602V647.8076z M217.0264,652.1348l-2.4609,4.5938l-4.7578-2.584l2.4609-4.6758L217.0264,652.1348z"/>
	<path fill="#4B5666" d="M245.9219,647.8076l-2.666-0.0205c-2.502,0-4.7168,0.2119-6.6445,0.6357s-2.8916,0.9092-2.8916,1.4561
		c0.5332,1.6406,1.0078,3.1787,1.4248,4.6143s0.626,2.7959,0.626,4.0811c0,0.9297-0.0928,1.6816-0.2764,2.2559
		c-0.1855,0.5742-0.5303,1.2031-1.0361,1.8867c-0.1504-1.8047-0.4854-3.6982-1.0049-5.6807
		c-0.1777-0.6973-0.6221-2.167-1.333-4.4092c-0.4375-1.3809-0.6562-2.2969-0.6562-2.748c0-0.6426,0.1777-1.4424,0.5332-2.3994
		c0.2871-0.7793,0.6152-1.4697,0.9844-2.0713c0.4375-0.6836,1.2002-1.2236,2.2861-1.6201c1.0879-0.3965,2.7451-0.7178,4.9736-0.9639
		c-1.0938-1.5312-2.0508-2.2969-2.8711-2.2969c-0.3555,0-0.6904,0.1367-1.0049,0.4102s-0.8271,0.875-1.5381,1.8047l-0.9844-0.4922
		c0.6016-2.0918,1.3428-3.7012,2.2256-4.8301c0.8809-1.127,1.8486-1.6914,2.9014-1.6914c0.916,0,1.9346,0.5264,3.0557,1.5791
		s2.4199,2.6934,3.8965,4.9219V647.8076z"/>
	<path fill="#4B5666" d="M255.7656,647.8076h-11.2793v-5.5781h8.8184l-2.4814-13.9248l-1.3125-0.8613
		c0-0.8066,0.123-1.6201,0.3691-2.4404c0.3145-1.0391,0.8477-2.2764,1.5996-3.7119l0.9434,0.4922
		c0,0.082-0.0273,0.3008-0.082,0.6562c0,0.4512,0.2871,0.8887,0.8613,1.3125c0.5059,0.3828,1.3125,0.8066,2.4199,1.2715
		c-0.123,0.875-0.3047,1.7295-0.5439,2.5635s-0.5088,1.5791-0.8096,2.2354l-0.7383-0.2871l2.2354,12.6943V647.8076z"/>
	<path fill="#4B5666" d="M270.9004,647.8076h-3.0352c-1.0801,0-2.0303-0.2188-2.8506-0.6562s-1.4834-1.1416-1.9893-2.1123
		c-0.8887,1.0938-2.0439,1.8662-3.4658,2.3174c-0.9434,0.3008-1.9688,0.4512-3.0762,0.4512h-2.1533v-5.5781h2.1533
		c1.1348,0,1.9307-0.0576,2.3896-0.1748c0.457-0.1152,1.0762-0.3789,1.8555-0.7891c-0.4102-0.8066-0.7656-1.3877-1.0664-1.7432
		c-0.3691-0.4238-0.752-0.6357-1.1484-0.6357c-0.1504,0-0.291,0.0508-0.4199,0.1543c-0.1309,0.1016-0.2773,0.2969-0.4414,0.584
		l-0.9023-0.123c0-2.4746,0.4268-4.2412,1.2812-5.3008s2.2051-1.5898,4.0508-1.5898c1.9004,0,3.3945,0.373,4.4805,1.1172
		c1.0879,0.7461,1.6309,1.7676,1.6309,3.0664c0,0.6973-0.1436,1.3633-0.4307,2c-0.2871,0.6348-0.8271,1.5-1.6201,2.5938
		c0.1914,0.2598,0.4512,0.4648,0.7793,0.6152s0.6426,0.2256,0.9434,0.2256h3.0352V647.8076z"/>
	<path fill="#4B5666" d="M282.3027,647.8076h-12.8379v-5.5781h10.7871c-0.1504-0.9297-0.4238-1.7158-0.8203-2.3584
		c-0.2051-0.3555-0.6836-0.9707-1.4355-1.8457l1.6406-4.8809c1.0254,1.1621,1.7256,2.3789,2.1016,3.6504
		s0.5645,3.1582,0.5645,5.6602V647.8076z M281.9746,625.8848l-2.2559,4.1836l-2.9121-1.6406l-1.6406,3.2402l-3.8145-2.0918
		l2.1328-3.9785l3.0352,1.5176l1.7227-3.3223L281.9746,625.8848z"/>
	<path fill="#4B5666" d="M301.252,646.3926c0,2.3516-0.998,4.6758-2.9941,6.9727s-3.9648,3.4453-5.9062,3.4453
		c-1.1348,0-2.376-0.3623-3.7227-1.0869s-3.4141-2.1533-6.2031-4.2861l0.8613-1.1895c1.4766,0.9844,2.6865,1.6406,3.6299,1.9688
		c0.7793,0.2734,1.6611,0.4102,2.6455,0.4102c1.3262,0,2.6387-0.3691,3.9375-1.1074c1.5312-0.875,3.1172-2.2832,4.7578-4.2246
		c-0.5742,0.082-1.0527,0.123-1.4355,0.123c-1.3535,0-2.4297-0.4414-3.2305-1.3223c-0.7988-0.8828-1.1992-2.082-1.1992-3.5996
		c0-2.0508,0.4717-4.0264,1.415-5.9268c1.0254-2.0645,2.1943-3.0967,3.5068-3.0967c1.0938,0,2.0234,0.7451,2.7891,2.2354
		s1.1484,3.2881,1.1484,5.3936V646.3926z M298.791,642.2295c-0.3828-2.2012-1.1621-3.3018-2.3379-3.3018
		c-0.4238,0-0.7627,0.168-1.0156,0.502c-0.2529,0.3359-0.3789,0.7012-0.3789,1.0977c0,0.4922,0.2695,0.8994,0.8105,1.2207
		c0.5391,0.3213,1.2539,0.4814,2.1426,0.4814H298.791z"/>
</g>
<path fill="#4B5666" d="M601.2812,88.3311c-9.9111,0-22.7549,5.8418-25.2822,15.6758l-0.002-0.002v0.002
	c-2.5273-9.834-15.3711-15.6758-25.2803-15.6758c-19.543,0-35.3936,15.1689-35.3936,35.3936
	c0,23.7969,14.0713,38.3584,29.4102,50.1758c9.2012,7.0898,29.6221,23.1357,31.2383,23.1357c0.0098,0,0.0176-0.002,0.0254-0.002
	s0.0176,0.002,0.0254,0.002c1.6172,0,22.0391-16.0459,31.2402-23.1357c15.3379-11.8174,29.4121-26.3789,29.4121-50.1758
	C636.6748,103.5,620.8242,88.3311,601.2812,88.3311z M536.9883,104.3398c-6.1104,4.5195-9.6162,11.585-9.6162,19.3848
	c0,1.2871-1.041,2.3301-2.3281,2.3301s-2.3301-1.043-2.3301-2.3301c0-9.293,4.1924-17.7227,11.5039-23.1299
	c1.0332-0.7656,2.4902-0.5469,3.2568,0.4873C538.2402,102.1162,538.0205,103.5762,536.9883,104.3398z"/>
<path fill-rule="evenodd" clip-rule="evenodd" fill="#4B5666" d="M244.1167,518.4824c0,14.9453-8.2681,27.9512-20.4751,34.7139
	c0,0-1.4834,0.8496-3.417,1.1836c-1.8804,0.3242-3.2686,0.3857-3.2686,0.3857h-12.5103h-12.5083c0,0-1.3901-0.0615-3.271-0.3857
	c-1.9331-0.334-3.4165-1.1836-3.4165-1.1836c-12.207-6.7627-20.4751-19.7686-20.4751-34.7139
	c0-16.502,10.0776-30.6465,24.4126-36.625v-22.5342c-1.9492,0-3.5293-1.5801-3.5293-3.5273v-6.207
	c0-1.9492,1.5801-3.5283,3.5293-3.5283h30.5166c1.9492,0,3.5298,1.5791,3.5298,3.5283v6.207c0,1.9473-1.5806,3.5273-3.5298,3.5273
	v22.5342C234.0391,487.8359,244.1167,501.9805,244.1167,518.4824z M214.6543,448.458h-20.4155
	c-1.2866,0-2.3296,1.0439-2.3296,2.3301c0,1.2871,1.043,2.3291,2.3296,2.3291h20.4155c1.2866,0,2.3306-1.042,2.3306-2.3291
	C216.9849,449.502,215.9409,448.458,214.6543,448.458z M216.9092,488.5605c-2.7051-1.1279-4.4683-3.7725-4.4683-6.7031v-22.5342
	h-15.9902v22.5342c0,2.9307-1.7622,5.5752-4.4678,6.7031c-12.1147,5.0537-19.9453,16.7998-19.9453,29.9219
	c0,11.7744,6.4092,22.6406,16.7266,28.3584c0.1572,0.0791,0.6587,0.2988,1.1396,0.3828c1.0723,0.1846,1.9355,0.2559,2.2476,0.2783
	h12.2944h12.2974c0.2939-0.0205,1.1636-0.0918,2.2471-0.2793c0.481-0.083,0.979-0.3027,1.1372-0.3818
	c10.3169-5.7178,16.7266-16.584,16.7266-28.3584C236.854,505.3604,229.0254,493.6143,216.9092,488.5605z M232.1948,518.4824
	c0,10.0059-5.4043,19.2441-14.124,24.1709c-0.6709,0.1104-1.2261,0.167-1.5117,0.1895h-24.2319
	c-0.2642-0.0215-0.8242-0.0771-1.5029-0.1895c-8.7207-4.9258-14.1289-14.165-14.1289-24.1709c0-3.5225,0.6699-6.8936,1.873-9.998
	h51.7563C231.5283,511.5889,232.1948,514.96,232.1948,518.4824z M196.0107,534.2666c-5.9766-3.7871-9.6782-10.4834-9.6782-17.5488
	c0-1.2871-1.0425-2.3291-2.3296-2.3291c-1.2856,0-2.3301,1.042-2.3301,2.3291c0,8.7676,4.6533,17.0723,12.1426,21.6699
	l0.4751,0.2764l0.6968,0.0752c0.0674,0.0059,0.1348,0.0088,0.2026,0.0088c1.1914,0,2.1646-0.9199,2.2695-2.1318
	C197.5488,535.5859,196.9238,534.6523,196.0107,534.2666z"/>
<path fill="#4B5666" d="M618.3379,831.3232h-84.6797c-1.9414,0-3.5186,1.5752-3.5186,3.5166l0.0039,32.6309
	c0,0.0029,0.002,0.0078,0.002,0.0117c0,9.8008,0,19.6309,0,22.917c0,7.2842,2.458,17.7812,11.8701,28.3242
	c13.4854,15.1035,33.9863,21.3076,33.9863,21.3076s20.501-6.2041,33.9863-21.3076c9.4121-10.543,11.8701-21.04,11.8701-28.3242
	c0-3.2861,0-13.1162,0-22.917c0-0.0039,0.002-0.0088,0.002-0.0117l-0.0049-32.6309
	C621.8555,832.8984,620.2793,831.3232,618.3379,831.3232z M551.249,914.3662c-0.4443,0.3955-0.999,0.5898-1.5498,0.5898
	c-0.6416,0-1.2793-0.2627-1.7393-0.7783c-9.2373-10.3447-10.6162-20.126-10.6162-25.0361c0-1.2861,1.042-2.3301,2.3281-2.3301
	c1.2871,0,2.3311,1.0439,2.3311,2.3301c0,4.2461,1.2246,12.7412,9.4326,21.9346C552.292,912.0352,552.207,913.5078,551.249,914.3662
	z M614.5967,867.3564c-0.001,0.041-0.001,0.084-0.001,0.126v22.917c0,4.5781-1.3037,13.7168-10.0244,23.4863
	c-9.5215,10.665-23.334,16.5176-28.5693,18.4619l-0.0039-93.7617h38.5947L614.5967,867.3564z"/>
<path fill-rule="evenodd" clip-rule="evenodd" fill="#4B5666" d="M1011.5254,487.6035c-0.1602,0-0.3301-0.0117-0.5098-0.0381
	l-6.7881-0.9492l-0.001,49.5664c0,1.9404-1.5312,3.9492-3.4014,4.4658l-49.8701,13.7334c-0.9346,0.2568-2.1689,0.3877-3.4014,0.3877
	c-1.2344,0-2.4658-0.1309-3.4023-0.3877l-49.8672-13.7334c-1.873-0.5166-3.4023-2.5254-3.4023-4.4658l0.001-49.5664l-6.791,0.9492
	c-0.1787,0.0264-0.3477,0.0381-0.5078,0.0381c-1.5664,0-2.2471-1.1543-1.5117-2.7529l9.543-20.7812
	c0.8105-1.7627,3.002-3.6299,4.875-4.1445l49.8682-13.7363c0.3125-0.0859,0.6025-0.1279,0.8672-0.1279
	c0.1182,0,0.2236,0.0176,0.3291,0.0342c0.1064-0.0166,0.2109-0.0342,0.3281-0.0342c0.2656,0,0.5557,0.042,0.8672,0.1279
	l49.8691,13.7363c1.8721,0.5146,4.0654,2.3818,4.876,4.1445l9.543,20.7812
	C1013.7734,486.4492,1013.0928,487.6035,1011.5254,487.6035z M898.4482,530.5283c0,1.2861,1.043,2.3281,2.3291,2.3281
	c1.2871,0,2.3291-1.042,2.3291-2.3281v-22.2285c0-1.2871-1.042-2.3291-2.3291-2.3291c-1.2861,0-2.3291,1.042-2.3291,2.3291V530.5283
	z M897.7256,464.416c-0.5508,0.1533-1.6387,1.0801-1.8779,1.5977l-7.4609,16.2461l46.6182-6.5381
	c0.2393-0.0791,0.6523-0.4346,0.7666-0.6572l7.0557-23.0732L897.7256,464.416z M947.9473,478.5869l-0.3926-1.2852v68.8408
	c0.8145,0,1.3506-0.0938,1.4736-0.126l47.9365-13.2021v-39.8848l-38.5527-5.4092
	C953.7344,486.8652,949.332,483.1074,947.9473,478.5869z M999.2617,466.0137c-0.2393-0.5176-1.3281-1.4443-1.8789-1.5977
	l-45.1016-12.4248l7.0566,23.0732c0.1133,0.2227,0.5273,0.5781,0.7666,0.6572l46.6172,6.5381L999.2617,466.0137z"/>
</svg>
