<?xml version="1.0" encoding="utf-8"?>
<!-- Generator: Adobe Illustrator 20.1.0, SVG Export Plug-In . SVG Version: 6.00 Build 0)  -->
<svg version="1.1" id="Layer_1" xmlns="http://www.w3.org/2000/svg" xmlns:xlink="http://www.w3.org/1999/xlink" x="0px" y="0px"
	 viewBox="0 0 1152 1152.001" enable-background="new 0 0 1152 1152.001" xml:space="preserve">
<circle fill="#4B5666" cx="576" cy="576" r="576"/>
<g>
	<path fill="#FBD35C" d="M188.2964,188.29C402.5928-26.0059,749.4072-26.003,963.707,188.2978L576.0049,575.999L188.2964,188.29z"/>
</g>
<g>
	<path fill="#A4D970" d="M963.71,188.293c214.2979,214.2979,214.293,561.1105-0.0068,775.4092L576.002,576.001L963.71,188.293z"/>
</g>
<g>
	<path fill="#9EBEED" d="M963.7031,963.709c-214.2959,214.2988-561.1104,214.293-775.4102-0.0068L575.9951,576.001L963.7031,963.709
		z"/>
</g>
<g>
	<path fill="#FA7977" d="M188.2896,963.707c-214.2959-214.2979-214.2925-561.1104,0.0068-775.4092L575.999,575.999L188.2896,963.707
		z"/>
</g>
<circle fill="#4B5666" cx="576" cy="576" r="194.6777"/>
<g>
	<path fill="#FFFFFF" d="M466.7227,560.9141l-15.0771-39.3945h-0.2432c0.2842,3.1211,0.4258,6.8301,0.4258,11.127v28.2676h-4.7725
		v-44.4395h7.7822l14.0732,36.6582h0.2432l14.1953-36.6582h7.7207v44.4395h-5.167v-28.6328c0-3.2832,0.1416-6.8496,0.4258-10.6992
		h-0.2432l-15.1992,39.332L466.7227,560.9141L466.7227,560.9141z"/>
	<path fill="#FFFFFF" d="M541.833,538.6328c0,7.1133-1.7988,12.707-5.3955,16.7793c-3.5977,4.0742-8.5977,6.1113-15.001,6.1113
		c-6.5459,0-11.5967-2.002-15.1533-6.0039c-3.5557-4.002-5.334-9.6523-5.334-16.9473c0-7.2344,1.7832-12.8418,5.3496-16.8242
		s8.6328-5.9727,15.1982-5.9727c6.3838,0,11.3682,2.0273,14.9551,6.0801S541.833,531.5,541.833,538.6328z M506.4209,538.6328
		c0,6.0195,1.2812,10.584,3.8447,13.6953c2.5635,3.1094,6.2871,4.666,11.1709,4.666c4.9238,0,8.6426-1.5508,11.1553-4.6523
		c2.5127-3.0996,3.7695-7.6699,3.7695-13.709c0-5.9766-1.252-10.5117-3.7539-13.6016c-2.5029-3.0898-6.2061-4.6348-11.1104-4.6348
		c-4.9238,0-8.668,1.5547-11.2314,4.666C507.7021,528.1719,506.4209,532.6973,506.4209,538.6328z"/>
	<path fill="#FFFFFF" d="M587.2148,538.2695c0,7.3359-1.9912,12.9434-5.9736,16.8242c-3.9814,3.8809-9.7109,5.8203-17.1885,5.8203
		h-12.3115v-44.4395h13.6182c6.9102,0,12.2803,1.9141,16.1104,5.7441S587.2148,531.3984,587.2148,538.2695z M581.7432,538.4512
		c0-5.7949-1.4541-10.1621-4.3623-13.1016c-2.9082-2.9375-7.2295-4.4062-12.9639-4.4062h-7.5078v35.502h6.292
		c6.1602,0,10.791-1.5137,13.8916-4.543S581.7432,544.3887,581.7432,538.4512z"/>
	<path fill="#FFFFFF" d="M621.8975,560.9141H597.124v-44.4395h24.7734v4.5898H602.292v14.3164h18.4199v4.5605H602.292v16.3535
		h19.6055L621.8975,560.9141L621.8975,560.9141z"/>
	<path fill="#FFFFFF" d="M636.9141,542.4336v18.4805h-5.168v-44.4395h12.1895c5.4512,0,9.4785,1.043,12.083,3.1309
		c2.6035,2.0879,3.9053,5.2285,3.9053,9.4238c0,5.877-2.9785,9.8477-8.9365,11.9141l12.0674,19.9707h-6.1094l-10.7607-18.4805
		H636.9141z M636.9141,537.9961h7.082c3.6475,0,6.3232-0.7246,8.0254-2.1738s2.5527-3.623,2.5527-6.5195
		c0-2.9395-0.8662-5.0566-2.5986-6.3535s-4.5137-1.9453-8.3438-1.9453h-6.7178v16.9921H636.9141z"/>
	<path fill="#FFFFFF" d="M704.9424,560.9141h-5.8975l-24.2871-37.2969h-0.2432c0.3242,4.377,0.4863,8.3906,0.4863,12.0371v25.2598
		h-4.7725v-44.4395h5.8369l24.2256,37.1445h0.2432c-0.041-0.5469-0.1318-2.3047-0.2734-5.2734s-0.1924-5.0918-0.1514-6.3691v-25.502
		h4.833v44.4395H704.9424z"/>
	<path fill="#FFFFFF" d="M525.54,635.6172l-5.5322-14.1348h-17.8125l-5.4707,14.1348h-5.2285l17.5693-44.6211h4.3467
		l17.4785,44.6211H525.54z M518.3975,616.832l-5.168-13.7695c-0.668-1.7422-1.3574-3.8809-2.0664-6.4141
		c-0.4463,1.9453-1.085,4.084-1.915,6.4141l-5.2285,13.7695H518.3975z"/>
	<path fill="#FFFFFF" d="M556.5459,612.334h15.1064v21.6113c-2.3506,0.75-4.7412,1.3184-7.1729,1.7031
		c-2.4326,0.3848-5.249,0.5781-8.4512,0.5781c-6.7275,0-11.9658-2.002-15.7148-6.0039s-5.623-9.6113-5.623-16.8242
		c0-4.6211,0.9268-8.668,2.7812-12.1445c1.8545-3.4746,4.5234-6.1289,8.0098-7.9629c3.4844-1.834,7.5684-2.752,12.249-2.752
		c4.7422,0,9.1602,0.8711,13.2539,2.6152l-2.0068,4.5586c-4.0117-1.7031-7.8721-2.5527-11.5811-2.5527
		c-5.4102,0-9.6357,1.6113-12.6758,4.832c-3.0391,3.2227-4.5586,7.6914-4.5586,13.4062c0,5.998,1.4629,10.5469,4.3916,13.6465
		c2.9287,3.1016,7.2295,4.6523,12.9033,4.6523c3.0801,0,6.0898-0.3555,9.0283-1.0645v-13.6797h-9.9395L556.5459,612.334
		L556.5459,612.334z"/>
	<path fill="#FFFFFF" d="M582.3213,635.6172v-44.4395h5.168v44.4395H582.3213z"/>
	<path fill="#FFFFFF" d="M599.6777,635.6172v-44.4395h5.168v39.7598h19.6055v4.6797H599.6777z"/>
	<path fill="#FFFFFF" d="M656.7627,635.6172h-24.7734v-44.4395h24.7734v4.5898h-19.6055v14.3164h18.4199v4.5605h-18.4199v16.3535
		h19.6055V635.6172z"/>
</g>
<path fill="#4B5666" d="M601.2812,88.3311c-9.9111,0-22.7549,5.8418-25.2822,15.6758l-0.002-0.002v0.002
	c-2.5273-9.834-15.3711-15.6758-25.2803-15.6758c-19.543,0-35.3936,15.1689-35.3936,35.3936
	c0,23.7969,14.0713,38.3584,29.4102,50.1758c9.2012,7.0898,29.6221,23.1357,31.2383,23.1357c0.0098,0,0.0176-0.002,0.0254-0.002
	s0.0176,0.002,0.0254,0.002c1.6172,0,22.0391-16.0459,31.2402-23.1357c15.3379-11.8174,29.4121-26.3789,29.4121-50.1758
	C636.6748,103.5,620.8242,88.3311,601.2812,88.3311z M536.9883,104.3398c-6.1104,4.5195-9.6162,11.585-9.6162,19.3848
	c0,1.2871-1.041,2.3301-2.3281,2.3301s-2.3301-1.043-2.3301-2.3301c0-9.293,4.1924-17.7227,11.5039-23.1299
	c1.0332-0.7656,2.4902-0.5469,3.2568,0.4873C538.2402,102.1162,538.0205,103.5762,536.9883,104.3398z"/>
<path fill="#4B5666" d="M244.1167,518.4824c0,14.9453-8.2681,27.9512-20.4751,34.7139c0,0-1.4834,0.8496-3.417,1.1836
	c-1.8804,0.3242-3.2686,0.3857-3.2686,0.3857h-12.5103h-12.5083c0,0-1.3901-0.0615-3.271-0.3857
	c-1.9331-0.334-3.4165-1.1836-3.4165-1.1836c-12.207-6.7627-20.4751-19.7686-20.4751-34.7139
	c0-16.502,10.0776-30.6465,24.4126-36.625v-22.5342c-1.9492,0-3.5293-1.5801-3.5293-3.5273v-6.207
	c0-1.9492,1.5801-3.5283,3.5293-3.5283h30.5166c1.9492,0,3.5298,1.5791,3.5298,3.5283v6.207c0,1.9473-1.5806,3.5273-3.5298,3.5273
	v22.5342C234.0391,487.8359,244.1167,501.9805,244.1167,518.4824z M214.6543,448.458h-20.4155
	c-1.2866,0-2.3296,1.0439-2.3296,2.3301c0,1.2871,1.043,2.3291,2.3296,2.3291h20.4155c1.2866,0,2.3306-1.042,2.3306-2.3291
	C216.9849,449.502,215.9409,448.458,214.6543,448.458z M216.9092,488.5605c-2.7051-1.1279-4.4683-3.7725-4.4683-6.7031v-22.5342
	h-15.9902v22.5342c0,2.9307-1.7622,5.5752-4.4678,6.7031c-12.1147,5.0537-19.9453,16.7998-19.9453,29.9219
	c0,11.7744,6.4092,22.6406,16.7266,28.3584c0.1572,0.0791,0.6587,0.2988,1.1396,0.3828c1.0723,0.1846,1.9355,0.2559,2.2476,0.2783
	h12.2944h12.2974c0.2939-0.0205,1.1636-0.0918,2.2471-0.2793c0.481-0.083,0.979-0.3027,1.1372-0.3818
	c10.3169-5.7178,16.7266-16.584,16.7266-28.3584C236.854,505.3604,229.0254,493.6143,216.9092,488.5605z M232.1948,518.4824
	c0,10.0059-5.4043,19.2441-14.124,24.1709c-0.6709,0.1104-1.2261,0.167-1.5117,0.1895h-24.2319
	c-0.2642-0.0215-0.8242-0.0771-1.5029-0.1895c-8.7207-4.9258-14.1289-14.165-14.1289-24.1709c0-3.5225,0.6699-6.8936,1.873-9.998
	h51.7563C231.5283,511.5889,232.1948,514.96,232.1948,518.4824z M196.0107,534.2666c-5.9766-3.7871-9.6782-10.4834-9.6782-17.5488
	c0-1.2871-1.0425-2.3291-2.3296-2.3291c-1.2856,0-2.3301,1.042-2.3301,2.3291c0,8.7676,4.6533,17.0723,12.1426,21.6699
	l0.4751,0.2764l0.6968,0.0752c0.0674,0.0059,0.1348,0.0088,0.2026,0.0088c1.1914,0,2.1646-0.9199,2.2695-2.1318
	C197.5488,535.5859,196.9238,534.6523,196.0107,534.2666z"/>
<path fill="#4B5666" d="M618.3379,831.3232h-84.6797c-1.9414,0-3.5186,1.5752-3.5186,3.5166l0.0039,32.6309
	c0,0.0029,0.002,0.0078,0.002,0.0117c0,9.8008,0,19.6309,0,22.917c0,7.2842,2.458,17.7812,11.8701,28.3242
	c13.4854,15.1035,33.9863,21.3076,33.9863,21.3076s20.501-6.2041,33.9863-21.3076c9.4121-10.543,11.8701-21.04,11.8701-28.3242
	c0-3.2861,0-13.1162,0-22.917c0-0.0039,0.002-0.0088,0.002-0.0117l-0.0049-32.6309
	C621.8555,832.8984,620.2793,831.3232,618.3379,831.3232z M551.249,914.3662c-0.4443,0.3955-0.999,0.5898-1.5498,0.5898
	c-0.6416,0-1.2793-0.2627-1.7393-0.7783c-9.2373-10.3447-10.6162-20.126-10.6162-25.0361c0-1.2861,1.042-2.3301,2.3281-2.3301
	c1.2871,0,2.3311,1.0439,2.3311,2.3301c0,4.2461,1.2246,12.7412,9.4326,21.9346C552.292,912.0352,552.207,913.5078,551.249,914.3662
	z M614.5967,867.3564c-0.001,0.041-0.001,0.084-0.001,0.126v22.917c0,4.5781-1.3037,13.7168-10.0244,23.4863
	c-9.5215,10.665-23.334,16.5176-28.5693,18.4619l-0.0039-93.7617h38.5947L614.5967,867.3564z"/>
<path fill="#4B5666" d="M1011.5254,487.6035c-0.1602,0-0.3301-0.0117-0.5098-0.0381l-6.7881-0.9492l-0.001,49.5664
	c0,1.9404-1.5312,3.9492-3.4014,4.4658l-49.8701,13.7334c-0.9346,0.2568-2.1689,0.3877-3.4014,0.3877
	c-1.2344,0-2.4658-0.1309-3.4023-0.3877l-49.8672-13.7334c-1.873-0.5166-3.4023-2.5254-3.4023-4.4658l0.001-49.5664l-6.791,0.9492
	c-0.1787,0.0264-0.3477,0.0381-0.5078,0.0381c-1.5664,0-2.2471-1.1543-1.5117-2.7529l9.543-20.7812
	c0.8105-1.7627,3.002-3.6299,4.875-4.1445l49.8682-13.7363c0.3125-0.0859,0.6025-0.1279,0.8672-0.1279
	c0.1182,0,0.2236,0.0176,0.3291,0.0342c0.1064-0.0166,0.2109-0.0342,0.3281-0.0342c0.2656,0,0.5557,0.042,0.8672,0.1279
	l49.8691,13.7363c1.8721,0.5146,4.0654,2.3818,4.876,4.1445l9.543,20.7812
	C1013.7734,486.4492,1013.0928,487.6035,1011.5254,487.6035z M898.4482,530.5283c0,1.2861,1.043,2.3281,2.3291,2.3281
	c1.2871,0,2.3291-1.042,2.3291-2.3281v-22.2285c0-1.2871-1.042-2.3291-2.3291-2.3291c-1.2861,0-2.3291,1.042-2.3291,2.3291V530.5283
	z M897.7256,464.416c-0.5508,0.1533-1.6387,1.0801-1.8779,1.5977l-7.4609,16.2461l46.6182-6.5381
	c0.2393-0.0791,0.6523-0.4346,0.7666-0.6572l7.0557-23.0732L897.7256,464.416z M947.9473,478.5869l-0.3926-1.2852v68.8408
	c0.8145,0,1.3506-0.0938,1.4736-0.126l47.9365-13.2021v-39.8848l-38.5527-5.4092
	C953.7344,486.8652,949.332,483.1074,947.9473,478.5869z M999.2617,466.0137c-0.2393-0.5176-1.3281-1.4443-1.8789-1.5977
	l-45.1016-12.4248l7.0566,23.0732c0.1133,0.2227,0.5273,0.5781,0.7666,0.6572l46.6172,6.5381L999.2617,466.0137z"/>
<g>
	<path fill="#4B5666" d="M92.6602,606.5918H76.5078v-28.5547h16.1523v3.9453H81.1758v7.7734h10.7617v3.9063H81.1758v8.9648h11.4844
		V606.5918z"/>
	<path fill="#4B5666" d="M103.1484,595.5566l-7.2461-10.5664h5.2344l4.9219,7.5586l4.9609-7.5586h5.1953l-7.2656,10.5664
		l7.6367,11.0352h-5.1953l-5.332-8.0859l-5.3125,8.0859h-5.1953L103.1484,595.5566z"/>
	<path fill="#4B5666" d="M131.332,606.9824c-2.7344,0-4.8569-0.9834-6.3672-2.9492h-0.2734
		c0.1821,1.8232,0.2734,2.9297,0.2734,3.3203v8.8477h-4.5898v-31.2109h3.7109c0.104,0.4043,0.3188,1.3672,0.6445,2.8906h0.2344
		c1.4321-2.1875,3.5806-3.2813,6.4453-3.2813c2.6953,0,4.7949,0.9766,6.2988,2.9297s2.2559,4.6943,2.2559,8.2227
		c0,3.5293-0.7651,6.2822-2.2949,8.2617C136.1396,605.9932,134.0273,606.9824,131.332,606.9824z M130.2188,588.3496
		c-1.8232,0-3.1543,0.5342-3.9941,1.6016c-0.8398,1.0684-1.2598,2.7734-1.2598,5.1172v0.6836c0,2.6309,0.4165,4.5342,1.25,5.7129
		c0.833,1.1787,2.1938,1.7676,4.082,1.7676c1.5884,0,2.8125-0.6514,3.6719-1.9531s1.2891-3.1572,1.2891-5.5664
		c0-2.4219-0.4268-4.2539-1.2793-5.498C133.1255,588.9717,131.8721,588.3496,130.2188,588.3496z"/>
	<path fill="#4B5666" d="M154.7305,606.9824c-3.3594,0-5.9863-0.9795-7.8809-2.9395s-2.8418-4.6582-2.8418-8.0957
		c0-3.5283,0.8789-6.3018,2.6367-8.3203c1.7578-2.0176,4.1729-3.0273,7.2461-3.0273c2.8516,0,5.104,0.8662,6.7578,2.5977
		c1.6533,1.7324,2.4805,4.1152,2.4805,7.1484v2.4805h-14.3945c0.0649,2.0967,0.6313,3.708,1.6992,4.834
		c1.0674,1.126,2.5713,1.6895,4.5117,1.6895c1.2759,0,2.4639-0.1201,3.5645-0.3613c1.1001-0.2412,2.2817-0.6416,3.5449-1.2012
		v3.7305c-1.1201,0.5342-2.2529,0.9111-3.3984,1.1328C157.5103,606.8721,156.2017,606.9824,154.7305,606.9824z M153.8906,588.0762
		c-1.4585,0-2.627,0.4629-3.5059,1.3867c-0.8789,0.9248-1.4033,2.2725-1.5723,4.043h9.8047
		c-0.0264-1.7832-0.4561-3.1348-1.2891-4.0527C156.4946,588.5352,155.3486,588.0762,153.8906,588.0762z M150.9609,582.3535v-0.4883
		c0.7422-0.9111,1.5068-1.9268,2.2949-3.0469c0.7876-1.1191,1.4092-2.0762,1.8652-2.8711h5.332v0.4102
		c-0.6772,0.7949-1.6895,1.8203-3.0371,3.0762c-1.3477,1.2568-2.4839,2.2305-3.4082,2.9199H150.9609z"/>
	<path fill="#4B5666" d="M179.3008,584.5996c0.9243,0,1.686,0.0654,2.2852,0.1953l-0.4492,4.2773
		c-0.6514-0.1563-1.3281-0.2344-2.0313-0.2344c-1.8359,0-3.3237,0.5996-4.4629,1.7969c-1.1396,1.1982-1.709,2.7539-1.709,4.668
		v11.2891h-4.5898v-21.6016h3.5938l0.6055,3.8086h0.2344c0.7158-1.2891,1.6504-2.3105,2.8027-3.0664
		C176.7324,584.9775,177.9727,584.5996,179.3008,584.5996z"/>
	<path fill="#4B5666" d="M185.3164,579.2676c0-0.8203,0.2246-1.4512,0.6738-1.8945c0.4492-0.4424,1.0903-0.6641,1.9238-0.6641
		c0.8071,0,1.4355,0.2217,1.8848,0.6641c0.4492,0.4434,0.6738,1.0742,0.6738,1.8945c0,0.7813-0.2246,1.3965-0.6738,1.8457
		s-1.0776,0.6738-1.8848,0.6738c-0.8335,0-1.4746-0.2246-1.9238-0.6738S185.3164,580.0488,185.3164,579.2676z M190.1797,606.5918
		h-4.5898v-21.6016h4.5898V606.5918z"/>
	<path fill="#4B5666" d="M214.9453,606.5918h-4.6094v-13.3203c0-1.6533-0.3125-2.8867-0.9375-3.7012
		c-0.625-0.8135-1.6016-1.2207-2.9297-1.2207c-1.771,0-3.0698,0.5762-3.8965,1.7285c-0.8271,1.1523-1.2402,3.0703-1.2402,5.752
		v10.7617h-4.5898v-21.6016h3.5938l0.6445,2.832h0.2344c0.5986-1.0283,1.4678-1.8223,2.6074-2.3828
		c1.1392-0.5596,2.3926-0.8398,3.7598-0.8398c3.3203,0,5.5205,1.1328,6.6016,3.3984h0.3125c0.6377-1.0674,1.5361-1.9004,2.6953-2.5
		c1.1587-0.5986,2.4868-0.8984,3.9844-0.8984c2.5781,0,4.4561,0.6514,5.6348,1.9531c1.1782,1.3027,1.7676,3.2881,1.7676,5.957
		v14.082h-4.5898v-13.3203c0-1.6533-0.3159-2.8867-0.9473-3.7012c-0.6318-0.8135-1.6113-1.2207-2.9395-1.2207
		c-1.7842,0-3.0894,0.5566-3.916,1.6699c-0.8271,1.1133-1.2402,2.8223-1.2402,5.127V606.5918z"/>
	<path fill="#4B5666" d="M244.418,606.9824c-3.3594,0-5.9863-0.9795-7.8809-2.9395s-2.8418-4.6582-2.8418-8.0957
		c0-3.5283,0.8789-6.3018,2.6367-8.3203c1.7578-2.0176,4.1729-3.0273,7.2461-3.0273c2.8516,0,5.104,0.8662,6.7578,2.5977
		c1.6533,1.7324,2.4805,4.1152,2.4805,7.1484v2.4805h-14.3945c0.0649,2.0967,0.6313,3.708,1.6992,4.834
		c1.0674,1.126,2.5713,1.6895,4.5117,1.6895c1.2759,0,2.4639-0.1201,3.5645-0.3613c1.1001-0.2412,2.2817-0.6416,3.5449-1.2012
		v3.7305c-1.1201,0.5342-2.2529,0.9111-3.3984,1.1328C247.1978,606.8721,245.8892,606.9824,244.418,606.9824z M243.5781,588.0762
		c-1.4585,0-2.627,0.4629-3.5059,1.3867c-0.8789,0.9248-1.4033,2.2725-1.5723,4.043h9.8047
		c-0.0264-1.7832-0.4561-3.1348-1.2891-4.0527C246.1821,588.5352,245.0361,588.0762,243.5781,588.0762z"/>
	<path fill="#4B5666" d="M277.0352,606.5918h-4.6094v-13.2813c0-1.666-0.3354-2.9102-1.0059-3.7305
		c-0.6709-0.8203-1.7354-1.2305-3.1934-1.2305c-1.9404,0-3.3594,0.5732-4.2578,1.7188c-0.8984,1.1465-1.3477,3.0664-1.3477,5.7617
		v10.7617h-4.5898v-21.6016h3.5938l0.6445,2.832h0.2344c0.6509-1.0283,1.5752-1.8223,2.7734-2.3828
		c1.1978-0.5596,2.5259-0.8398,3.9844-0.8398c5.1821,0,7.7734,2.6367,7.7734,7.9102V606.5918z"/>
	<path fill="#4B5666" d="M291.4688,603.2715c1.1196,0,2.2393-0.1758,3.3594-0.5273v3.457
		c-0.5078,0.2217-1.1621,0.4072-1.9629,0.5566s-1.6309,0.2246-2.4902,0.2246c-4.3491,0-6.5234-2.292-6.5234-6.875v-11.6406h-2.9492
		v-2.0313l3.1641-1.6797l1.5625-4.5703h2.832v4.8047h6.1523v3.4766h-6.1523v11.5625c0,1.1064,0.2764,1.9238,0.8301,2.4512
		C289.8442,603.0078,290.5703,603.2715,291.4688,603.2715z"/>
	<path fill="#4B5666" d="M308.5781,606.9824c-3.3594,0-5.9863-0.9795-7.8809-2.9395s-2.8418-4.6582-2.8418-8.0957
		c0-3.5283,0.8789-6.3018,2.6367-8.3203c1.7578-2.0176,4.1729-3.0273,7.2461-3.0273c2.8516,0,5.104,0.8662,6.7578,2.5977
		c1.6533,1.7324,2.4805,4.1152,2.4805,7.1484v2.4805H302.582c0.0649,2.0967,0.6313,3.708,1.6992,4.834
		c1.0674,1.126,2.5713,1.6895,4.5117,1.6895c1.2759,0,2.4639-0.1201,3.5645-0.3613c1.1001-0.2412,2.2817-0.6416,3.5449-1.2012
		v3.7305c-1.1201,0.5342-2.2529,0.9111-3.3984,1.1328C311.3579,606.8721,310.0493,606.9824,308.5781,606.9824z M307.7383,588.0762
		c-1.4585,0-2.627,0.4629-3.5059,1.3867c-0.8789,0.9248-1.4033,2.2725-1.5723,4.043h9.8047
		c-0.0264-1.7832-0.4561-3.1348-1.2891-4.0527C310.3423,588.5352,309.1963,588.0762,307.7383,588.0762z"/>
	<path fill="#4B5666" d="M333.1484,584.5996c0.9243,0,1.686,0.0654,2.2852,0.1953l-0.4492,4.2773
		c-0.6514-0.1563-1.3281-0.2344-2.0313-0.2344c-1.8359,0-3.3237,0.5996-4.4629,1.7969c-1.1396,1.1982-1.709,2.7539-1.709,4.668
		v11.2891h-4.5898v-21.6016h3.5938l0.6055,3.8086h0.2344c0.7158-1.2891,1.6504-2.3105,2.8027-3.0664
		C330.5801,584.9775,331.8203,584.5996,333.1484,584.5996z"/>
	<path fill="#4B5666" d="M85.4141,654.9824c-3.3594,0-5.9863-0.9795-7.8809-2.9395s-2.8418-4.6582-2.8418-8.0957
		c0-3.5283,0.8789-6.3018,2.6367-8.3203s4.1729-3.0273,7.2461-3.0273c2.8516,0,5.104,0.8662,6.7578,2.5977
		c1.6533,1.7314,2.4805,4.1143,2.4805,7.1484v2.4805H79.418c0.0649,2.0967,0.6313,3.708,1.6992,4.834
		c1.0674,1.126,2.5713,1.6895,4.5117,1.6895c1.2759,0,2.4639-0.1201,3.5645-0.3613c1.1001-0.2412,2.2817-0.6416,3.5449-1.2012
		v3.7305c-1.1201,0.5342-2.2529,0.9111-3.3984,1.1328C88.1938,654.8721,86.8853,654.9824,85.4141,654.9824z M84.5742,636.0762
		c-1.4585,0-2.627,0.4619-3.5059,1.3867s-1.4033,2.2725-1.5723,4.043h9.8047c-0.0264-1.7842-0.4561-3.1348-1.2891-4.0527
		C87.1782,636.5352,86.0322,636.0762,84.5742,636.0762z"/>
	<path fill="#4B5666" d="M107.0742,651.2715c1.1196,0,2.2393-0.1758,3.3594-0.5273v3.457
		c-0.5078,0.2217-1.1621,0.4072-1.9629,0.5566s-1.6309,0.2246-2.4902,0.2246c-4.3491,0-6.5234-2.292-6.5234-6.875v-11.6406h-2.9492
		v-2.0313l3.1641-1.6797l1.5625-4.5703h2.832v4.8047h6.1523v3.4766h-6.1523v11.5625c0,1.1064,0.2764,1.9238,0.8301,2.4512
		C105.4497,651.0078,106.1758,651.2715,107.0742,651.2715z"/>
	<path fill="#4B5666" d="M138.6563,654.5918l-0.918-3.0078h-0.1563c-1.042,1.3154-2.0898,2.21-3.1445,2.6855
		s-2.4092,0.7129-4.0625,0.7129c-2.1226,0-3.7793-0.5732-4.9707-1.7188s-1.7871-2.7666-1.7871-4.8633
		c0-2.2266,0.8267-3.9063,2.4805-5.0391c1.6533-1.1328,4.1729-1.751,7.5586-1.8555l3.7305-0.1172v-1.1523
		c0-1.3799-0.3223-2.4121-0.9668-3.0957s-1.644-1.0254-2.998-1.0254c-1.1069,0-2.168,0.1631-3.1836,0.4883
		s-1.9922,0.71-2.9297,1.1523l-1.4844-3.2813c1.1719-0.6123,2.4541-1.0771,3.8477-1.3965c1.3931-0.3193,2.708-0.4785,3.9453-0.4785
		c2.7471,0,4.8208,0.5986,6.2207,1.7969c1.3994,1.1982,2.0996,3.0791,2.0996,5.6445v14.5508H138.6563z M131.8203,651.4668
		c1.6665,0,3.0044-0.4658,4.0137-1.3965c1.0088-0.9307,1.5137-2.2363,1.5137-3.916v-1.875l-2.7734,0.1172
		c-2.1616,0.0781-3.7339,0.4395-4.7168,1.084c-0.9834,0.6445-1.4746,1.6309-1.4746,2.959c0,0.9639,0.2861,1.709,0.8594,2.2363
		C129.8149,651.2031,130.6743,651.4668,131.8203,651.4668z"/>
	<path fill="#4B5666" d="M159.3008,654.9824c-2.7344,0-4.8569-0.9834-6.3672-2.9492h-0.2734
		c0.1821,1.8232,0.2734,2.9297,0.2734,3.3203v8.8477h-4.5898v-31.2109h3.7109c0.104,0.4033,0.3188,1.3672,0.6445,2.8906h0.2344
		c1.4321-2.1875,3.5806-3.2813,6.4453-3.2813c2.6953,0,4.7949,0.9766,6.2988,2.9297s2.2559,4.6943,2.2559,8.2227
		s-0.7651,6.2822-2.2949,8.2617C164.1084,653.9932,161.9961,654.9824,159.3008,654.9824z M158.1875,636.3496
		c-1.8232,0-3.1543,0.5342-3.9941,1.6016s-1.2598,2.7734-1.2598,5.1172v0.6836c0,2.6299,0.4165,4.5342,1.25,5.7129
		c0.833,1.1787,2.1938,1.7676,4.082,1.7676c1.5884,0,2.8125-0.6514,3.6719-1.9531s1.2891-3.1572,1.2891-5.5664
		c0-2.4219-0.4268-4.2549-1.2793-5.498C161.0942,636.9717,159.8408,636.3496,158.1875,636.3496z"/>
	<path fill="#4B5666" d="M184.2227,654.9824c-2.7344,0-4.8569-0.9834-6.3672-2.9492h-0.2734
		c0.1821,1.8232,0.2734,2.9297,0.2734,3.3203v8.8477h-4.5898v-31.2109h3.7109c0.104,0.4033,0.3188,1.3672,0.6445,2.8906h0.2344
		c1.4321-2.1875,3.5806-3.2813,6.4453-3.2813c2.6953,0,4.7949,0.9766,6.2988,2.9297s2.2559,4.6943,2.2559,8.2227
		s-0.7651,6.2822-2.2949,8.2617C189.0303,653.9932,186.918,654.9824,184.2227,654.9824z M183.1094,636.3496
		c-1.8232,0-3.1543,0.5342-3.9941,1.6016s-1.2598,2.7734-1.2598,5.1172v0.6836c0,2.6299,0.4165,4.5342,1.25,5.7129
		c0.833,1.1787,2.1938,1.7676,4.082,1.7676c1.5884,0,2.8125-0.6514,3.6719-1.9531s1.2891-3.1572,1.2891-5.5664
		c0-2.4219-0.4268-4.2549-1.2793-5.498C186.0161,636.9717,184.7627,636.3496,183.1094,636.3496z"/>
	<path fill="#4B5666" d="M209.1445,632.5996c0.9243,0,1.686,0.0654,2.2852,0.1953l-0.4492,4.2773
		c-0.6514-0.1563-1.3281-0.2344-2.0313-0.2344c-1.8359,0-3.3237,0.5986-4.4629,1.7969c-1.1396,1.1982-1.709,2.7539-1.709,4.668
		v11.2891h-4.5898v-21.6016h3.5938l0.6055,3.8086h0.2344c0.7158-1.2891,1.6504-2.3115,2.8027-3.0664
		S207.8164,632.5996,209.1445,632.5996z"/>
	<path fill="#4B5666" d="M224.8672,654.9824c-3.3594,0-5.9863-0.9795-7.8809-2.9395s-2.8418-4.6582-2.8418-8.0957
		c0-3.5283,0.8789-6.3018,2.6367-8.3203s4.1729-3.0273,7.2461-3.0273c2.8516,0,5.104,0.8662,6.7578,2.5977
		c1.6533,1.7314,2.4805,4.1143,2.4805,7.1484v2.4805h-14.3945c0.0649,2.0967,0.6313,3.708,1.6992,4.834
		c1.0674,1.126,2.5713,1.6895,4.5117,1.6895c1.2759,0,2.4639-0.1201,3.5645-0.3613c1.1001-0.2412,2.2817-0.6416,3.5449-1.2012
		v3.7305c-1.1201,0.5342-2.2529,0.9111-3.3984,1.1328C227.647,654.8721,226.3384,654.9824,224.8672,654.9824z M224.0273,636.0762
		c-1.4585,0-2.627,0.4619-3.5059,1.3867s-1.4033,2.2725-1.5723,4.043h9.8047c-0.0264-1.7842-0.4561-3.1348-1.2891-4.0527
		C226.6313,636.5352,225.4854,636.0762,224.0273,636.0762z"/>
	<path fill="#4B5666" d="M257.4844,654.5918h-4.6094v-13.2813c0-1.667-0.3354-2.9102-1.0059-3.7305
		c-0.6709-0.8203-1.7354-1.2305-3.1934-1.2305c-1.9404,0-3.3594,0.5732-4.2578,1.7188s-1.3477,3.0664-1.3477,5.7617v10.7617h-4.5898
		v-21.6016h3.5938l0.6445,2.832h0.2344c0.6509-1.0283,1.5752-1.8232,2.7734-2.3828c1.1978-0.5596,2.5259-0.8398,3.9844-0.8398
		c5.1821,0,7.7734,2.6367,7.7734,7.9102V654.5918z"/>
	<path fill="#4B5666" d="M271.1563,654.9824c-2.6953,0-4.7983-0.9766-6.3086-2.9297c-1.5107-1.9531-2.2656-4.6943-2.2656-8.2227
		c0-3.542,0.7646-6.2988,2.2949-8.2715c1.5298-1.9727,3.6489-2.959,6.3574-2.959c2.8384,0,5,1.0479,6.4844,3.1445h0.2344
		c-0.2217-1.5498-0.332-2.7734-0.332-3.6719v-7.8711h4.6094v30.3906h-3.5938l-0.8008-2.832h-0.2148
		C276.1494,653.9082,273.9946,654.9824,271.1563,654.9824z M272.3867,651.2715c1.8877,0,3.2617-0.5303,4.1211-1.5918
		s1.3018-2.7832,1.3281-5.166v-0.6445c0-2.7217-0.4429-4.6553-1.3281-5.8008c-0.8857-1.1455-2.2725-1.7188-4.1602-1.7188
		c-1.6147,0-2.8584,0.6543-3.7305,1.9629c-0.8726,1.3086-1.3086,3.1738-1.3086,5.5957c0,2.3955,0.4229,4.2217,1.2695,5.4785
		C269.4243,650.6436,270.6938,651.2715,272.3867,651.2715z"/>
	<path fill="#4B5666" d="M299.75,632.5996c0.9243,0,1.686,0.0654,2.2852,0.1953l-0.4492,4.2773
		c-0.6514-0.1563-1.3281-0.2344-2.0313-0.2344c-1.8359,0-3.3237,0.5986-4.4629,1.7969c-1.1396,1.1982-1.709,2.7539-1.709,4.668
		v11.2891h-4.5898v-21.6016h3.5938l0.6055,3.8086h0.2344c0.7158-1.2891,1.6504-2.3115,2.8027-3.0664
		S298.4219,632.5996,299.75,632.5996z"/>
	<path fill="#4B5666" d="M315.4727,654.9824c-3.3594,0-5.9863-0.9795-7.8809-2.9395s-2.8418-4.6582-2.8418-8.0957
		c0-3.5283,0.8789-6.3018,2.6367-8.3203s4.1729-3.0273,7.2461-3.0273c2.8516,0,5.104,0.8662,6.7578,2.5977
		c1.6533,1.7314,2.4805,4.1143,2.4805,7.1484v2.4805h-14.3945c0.0649,2.0967,0.6313,3.708,1.6992,4.834
		c1.0674,1.126,2.5713,1.6895,4.5117,1.6895c1.2759,0,2.4639-0.1201,3.5645-0.3613c1.1001-0.2412,2.2817-0.6416,3.5449-1.2012
		v3.7305c-1.1201,0.5342-2.2529,0.9111-3.3984,1.1328C318.2524,654.8721,316.9438,654.9824,315.4727,654.9824z M314.6328,636.0762
		c-1.4585,0-2.627,0.4619-3.5059,1.3867s-1.4033,2.2725-1.5723,4.043h9.8047c-0.0264-1.7842-0.4561-3.1348-1.2891-4.0527
		C317.2368,636.5352,316.0908,636.0762,314.6328,636.0762z"/>
	<path fill="#4B5666" d="M105.2383,680.5996c0.9243,0,1.686,0.0654,2.2852,0.1953l-0.4492,4.2773
		c-0.6514-0.1563-1.3281-0.2344-2.0313-0.2344c-1.8359,0-3.3237,0.5986-4.4629,1.7969c-1.1396,1.1982-1.709,2.7539-1.709,4.668
		v11.2891h-4.5898v-21.6016h3.5938l0.6055,3.8086h0.2344c0.7158-1.2891,1.6504-2.3115,2.8027-3.0664
		S103.9102,680.5996,105.2383,680.5996z"/>
	<path fill="#4B5666" d="M125.043,702.5918l-0.918-3.0078h-0.1563c-1.042,1.3154-2.0898,2.21-3.1445,2.6855
		s-2.4092,0.7129-4.0625,0.7129c-2.1226,0-3.7793-0.5732-4.9707-1.7188s-1.7871-2.7666-1.7871-4.8633
		c0-2.2266,0.8267-3.9063,2.4805-5.0391c1.6533-1.1328,4.1729-1.751,7.5586-1.8555l3.7305-0.1172v-1.1523
		c0-1.3799-0.3223-2.4121-0.9668-3.0957s-1.644-1.0254-2.998-1.0254c-1.1069,0-2.168,0.1631-3.1836,0.4883
		s-1.9922,0.71-2.9297,1.1523l-1.4844-3.2813c1.1719-0.6123,2.4541-1.0771,3.8477-1.3965c1.3931-0.3193,2.708-0.4785,3.9453-0.4785
		c2.7471,0,4.8208,0.5986,6.2207,1.7969c1.3994,1.1982,2.0996,3.0791,2.0996,5.6445v14.5508H125.043z M118.207,699.4668
		c1.6665,0,3.0044-0.4658,4.0137-1.3965c1.0088-0.9307,1.5137-2.2363,1.5137-3.916v-1.875l-2.7734,0.1172
		c-2.1616,0.0781-3.7339,0.4395-4.7168,1.084c-0.9834,0.6445-1.4746,1.6309-1.4746,2.959c0,0.9639,0.2861,1.709,0.8594,2.2363
		C116.2017,699.2031,117.061,699.4668,118.207,699.4668z"/>
	<path fill="#4B5666" d="M145.6875,702.9824c-2.7344,0-4.8569-0.9834-6.3672-2.9492h-0.2734
		c0.1821,1.8232,0.2734,2.9297,0.2734,3.3203v8.8477h-4.5898v-31.2109h3.7109c0.104,0.4033,0.3188,1.3672,0.6445,2.8906h0.2344
		c1.4321-2.1875,3.5806-3.2813,6.4453-3.2813c2.6953,0,4.7949,0.9766,6.2988,2.9297s2.2559,4.6943,2.2559,8.2227
		s-0.7651,6.2822-2.2949,8.2617C150.4951,701.9932,148.3828,702.9824,145.6875,702.9824z M144.5742,684.3496
		c-1.8232,0-3.1543,0.5342-3.9941,1.6016s-1.2598,2.7734-1.2598,5.1172v0.6836c0,2.6299,0.4165,4.5342,1.25,5.7129
		c0.833,1.1787,2.1938,1.7676,4.082,1.7676c1.5884,0,2.8125-0.6514,3.6719-1.9531s1.2891-3.1572,1.2891-5.5664
		c0-2.4219-0.4268-4.2549-1.2793-5.498C147.481,684.9717,146.2275,684.3496,144.5742,684.3496z"/>
	<path fill="#4B5666" d="M159.3789,675.2676c0-0.8203,0.2246-1.4521,0.6738-1.8945s1.0903-0.6641,1.9238-0.6641
		c0.8071,0,1.4355,0.2217,1.8848,0.6641s0.6738,1.0742,0.6738,1.8945c0,0.7813-0.2246,1.3965-0.6738,1.8457
		s-1.0776,0.6738-1.8848,0.6738c-0.8335,0-1.4746-0.2246-1.9238-0.6738S159.3789,676.0488,159.3789,675.2676z M164.2422,702.5918
		h-4.5898v-21.6016h4.5898V702.5918z"/>
	<path fill="#4B5666" d="M178.0898,702.9824c-2.6953,0-4.7983-0.9766-6.3086-2.9297c-1.5107-1.9531-2.2656-4.6943-2.2656-8.2227
		c0-3.542,0.7646-6.2988,2.2949-8.2715c1.5298-1.9727,3.6489-2.959,6.3574-2.959c2.8384,0,5,1.0479,6.4844,3.1445h0.2344
		c-0.2217-1.5498-0.332-2.7734-0.332-3.6719v-7.8711h4.6094v30.3906h-3.5938l-0.8008-2.832h-0.2148
		C183.083,701.9082,180.9282,702.9824,178.0898,702.9824z M179.3203,699.2715c1.8877,0,3.2617-0.5303,4.1211-1.5918
		s1.3018-2.7832,1.3281-5.166v-0.6445c0-2.7217-0.4429-4.6553-1.3281-5.8008c-0.8857-1.1455-2.2725-1.7188-4.1602-1.7188
		c-1.6147,0-2.8584,0.6543-3.7305,1.9629c-0.8726,1.3086-1.3086,3.1738-1.3086,5.5957c0,2.3955,0.4229,4.2217,1.2695,5.4785
		C176.3579,698.6436,177.6274,699.2715,179.3203,699.2715z"/>
	<path fill="#4B5666" d="M205.1602,702.9824c-3.3594,0-5.9863-0.9795-7.8809-2.9395s-2.8418-4.6582-2.8418-8.0957
		c0-3.5283,0.8789-6.3018,2.6367-8.3203s4.1729-3.0273,7.2461-3.0273c2.8516,0,5.104,0.8662,6.7578,2.5977
		c1.6533,1.7314,2.4805,4.1143,2.4805,7.1484v2.4805h-14.3945c0.0649,2.0967,0.6313,3.708,1.6992,4.834
		c1.0674,1.126,2.5713,1.6895,4.5117,1.6895c1.2759,0,2.4639-0.1201,3.5645-0.3613c1.1001-0.2412,2.2817-0.6416,3.5449-1.2012
		v3.7305c-1.1201,0.5342-2.2529,0.9111-3.3984,1.1328C207.9399,702.8721,206.6313,702.9824,205.1602,702.9824z M204.3203,684.0762
		c-1.4585,0-2.627,0.4619-3.5059,1.3867s-1.4033,2.2725-1.5723,4.043h9.8047c-0.0264-1.7842-0.4561-3.1348-1.2891-4.0527
		C206.9243,684.5352,205.7783,684.0762,204.3203,684.0762z"/>
	<path fill="#4B5666" d="M236.9766,702.5918h-4.6094v-13.3203c0-1.6533-0.3125-2.8877-0.9375-3.7012s-1.6016-1.2207-2.9297-1.2207
		c-1.771,0-3.0698,0.5762-3.8965,1.7285c-0.8271,1.1523-1.2402,3.0693-1.2402,5.752v10.7617h-4.5898v-21.6016h3.5938l0.6445,2.832
		h0.2344c0.5986-1.0283,1.4678-1.8232,2.6074-2.3828c1.1392-0.5596,2.3926-0.8398,3.7598-0.8398
		c3.3203,0,5.5205,1.1328,6.6016,3.3984h0.3125c0.6377-1.0674,1.5361-1.9014,2.6953-2.5c1.1587-0.5986,2.4868-0.8984,3.9844-0.8984
		c2.5781,0,4.4561,0.6514,5.6348,1.9531c1.1782,1.3018,1.7676,3.2881,1.7676,5.957v14.082h-4.5898v-13.3203
		c0-1.6533-0.3159-2.8877-0.9473-3.7012c-0.6318-0.8135-1.6113-1.2207-2.9395-1.2207c-1.7842,0-3.0894,0.5566-3.916,1.6699
		c-0.8271,1.1133-1.2402,2.8223-1.2402,5.127V702.5918z"/>
	<path fill="#4B5666" d="M266.4492,702.9824c-3.3594,0-5.9863-0.9795-7.8809-2.9395s-2.8418-4.6582-2.8418-8.0957
		c0-3.5283,0.8789-6.3018,2.6367-8.3203s4.1729-3.0273,7.2461-3.0273c2.8516,0,5.104,0.8662,6.7578,2.5977
		c1.6533,1.7314,2.4805,4.1143,2.4805,7.1484v2.4805h-14.3945c0.0649,2.0967,0.6313,3.708,1.6992,4.834
		c1.0674,1.126,2.5713,1.6895,4.5117,1.6895c1.2759,0,2.4639-0.1201,3.5645-0.3613c1.1001-0.2412,2.2817-0.6416,3.5449-1.2012
		v3.7305c-1.1201,0.5342-2.2529,0.9111-3.3984,1.1328C269.229,702.8721,267.9204,702.9824,266.4492,702.9824z M265.6094,684.0762
		c-1.4585,0-2.627,0.4619-3.5059,1.3867s-1.4033,2.2725-1.5723,4.043h9.8047c-0.0264-1.7842-0.4561-3.1348-1.2891-4.0527
		C268.2134,684.5352,267.0674,684.0762,265.6094,684.0762z"/>
	<path fill="#4B5666" d="M299.0664,702.5918h-4.6094v-13.2813c0-1.667-0.3354-2.9102-1.0059-3.7305
		c-0.6709-0.8203-1.7354-1.2305-3.1934-1.2305c-1.9404,0-3.3594,0.5732-4.2578,1.7188s-1.3477,3.0664-1.3477,5.7617v10.7617h-4.5898
		v-21.6016h3.5938l0.6445,2.832h0.2344c0.6509-1.0283,1.5752-1.8232,2.7734-2.3828c1.1978-0.5596,2.5259-0.8398,3.9844-0.8398
		c5.1821,0,7.7734,2.6367,7.7734,7.9102V702.5918z"/>
	<path fill="#4B5666" d="M313.5,699.2715c1.1196,0,2.2393-0.1758,3.3594-0.5273v3.457c-0.5078,0.2217-1.1621,0.4072-1.9629,0.5566
		s-1.6309,0.2246-2.4902,0.2246c-4.3491,0-6.5234-2.292-6.5234-6.875v-11.6406h-2.9492v-2.0313l3.1641-1.6797l1.5625-4.5703h2.832
		v4.8047h6.1523v3.4766h-6.1523v11.5625c0,1.1064,0.2764,1.9238,0.8301,2.4512C311.8755,699.0078,312.6016,699.2715,313.5,699.2715z
		"/>
</g>
<g>
	<path fill="#4B5666" d="M515.8262,234.5938V246h-4.668v-28.5547h8.0664c3.6846,0,6.4126,0.6904,8.1836,2.0703
		c1.7705,1.3804,2.6563,3.4639,2.6563,6.25c0,3.5547-1.8491,6.0874-5.5469,7.5977L532.584,246h-5.3125l-6.8359-11.4063H515.8262z
		 M515.8262,230.7266h3.2422c2.1743,0,3.75-0.4033,4.7266-1.2109c0.9766-0.8071,1.4648-2.0049,1.4648-3.5938
		c0-1.6143-0.5273-2.7734-1.582-3.4766s-2.6436-1.0547-4.7656-1.0547h-3.0859V230.7266z"/>
	<path fill="#4B5666" d="M545.6699,246.3906c-3.3594,0-5.9863-0.9795-7.8809-2.9395c-1.8945-1.9595-2.8418-4.6582-2.8418-8.0957
		c0-3.5283,0.8789-6.3018,2.6367-8.3203c1.7578-2.0181,4.1729-3.0273,7.2461-3.0273c2.8516,0,5.104,0.8662,6.7578,2.5977
		c1.6533,1.7319,2.4805,4.1147,2.4805,7.1484v2.4805h-14.3945c0.0649,2.0967,0.6313,3.708,1.6992,4.834
		c1.0674,1.1265,2.5713,1.6895,4.5117,1.6895c1.2759,0,2.4639-0.1201,3.5645-0.3613c1.1001-0.2407,2.2817-0.6411,3.5449-1.2012
		v3.7305c-1.1201,0.5342-2.2529,0.9116-3.3984,1.1328C548.4497,246.2798,547.1411,246.3906,545.6699,246.3906z M544.8301,227.4844
		c-1.4585,0-2.627,0.4624-3.5059,1.3867c-0.8789,0.9248-1.4033,2.2725-1.5723,4.043h9.8047
		c-0.0264-1.7837-0.4561-3.1348-1.2891-4.0527C547.4341,227.9434,546.2881,227.4844,544.8301,227.4844z"/>
	<path fill="#4B5666" d="M578.2871,246h-4.6094v-13.2813c0-1.6665-0.3354-2.9102-1.0059-3.7305
		c-0.6709-0.8203-1.7354-1.2305-3.1934-1.2305c-1.9404,0-3.3594,0.5732-4.2578,1.7188c-0.8984,1.146-1.3477,3.0664-1.3477,5.7617
		V246h-4.5898v-21.6016h3.5938l0.6445,2.832h0.2344c0.6509-1.0283,1.5752-1.8228,2.7734-2.3828
		c1.1978-0.5596,2.5259-0.8398,3.9844-0.8398c5.1821,0,7.7734,2.6367,7.7734,7.9102V246z"/>
	<path fill="#4B5666" d="M591.959,246.3906c-2.6953,0-4.7988-0.9766-6.3086-2.9297c-1.5107-1.9531-2.2656-4.6938-2.2656-8.2227
		c0-3.5415,0.7646-6.2988,2.2949-8.2715c1.5293-1.9727,3.6484-2.959,6.3574-2.959c2.8379,0,5,1.0483,6.4844,3.1445h0.2344
		c-0.2217-1.5493-0.332-2.7734-0.332-3.6719v-7.8711h4.6094V246h-3.5938l-0.8008-2.832h-0.2148
		C596.9521,245.3164,594.7969,246.3906,591.959,246.3906z M593.1895,242.6797c1.8877,0,3.2617-0.5303,4.1211-1.5918
		c0.8594-1.061,1.3018-2.7832,1.3281-5.166v-0.6445c0-2.7212-0.4434-4.6548-1.3281-5.8008
		c-0.8857-1.1455-2.2725-1.7188-4.1602-1.7188c-1.6152,0-2.8584,0.6543-3.7305,1.9629c-0.873,1.3086-1.3086,3.1738-1.3086,5.5957
		c0,2.396,0.4229,4.2222,1.2695,5.4785C590.2266,242.0518,591.4961,242.6797,593.1895,242.6797z"/>
	<path fill="#4B5666" d="M620.5527,224.0078c0.9238,0,1.6855,0.0654,2.2852,0.1953l-0.4492,4.2773
		c-0.6514-0.1563-1.3281-0.2344-2.0313-0.2344c-1.8359,0-3.3242,0.5991-4.4629,1.7969c-1.1396,1.1982-1.709,2.7539-1.709,4.668V246
		h-4.5898v-21.6016h3.5938l0.6055,3.8086h0.2344c0.7158-1.2891,1.6504-2.311,2.8027-3.0664
		C617.9844,224.3857,619.2246,224.0078,620.5527,224.0078z"/>
	<path fill="#4B5666" d="M636.2754,246.3906c-3.3594,0-5.9863-0.9795-7.8809-2.9395c-1.8945-1.9595-2.8418-4.6582-2.8418-8.0957
		c0-3.5283,0.8789-6.3018,2.6367-8.3203c1.7578-2.0181,4.1729-3.0273,7.2461-3.0273c2.8516,0,5.1035,0.8662,6.7578,2.5977
		c1.6533,1.7319,2.4805,4.1147,2.4805,7.1484v2.4805h-14.3945c0.0645,2.0967,0.6309,3.708,1.6992,4.834
		c1.0674,1.1265,2.5713,1.6895,4.5117,1.6895c1.2754,0,2.4639-0.1201,3.5645-0.3613c1.0996-0.2407,2.2813-0.6411,3.5449-1.2012
		v3.7305c-1.1201,0.5342-2.2529,0.9116-3.3984,1.1328C639.0547,246.2798,637.7461,246.3906,636.2754,246.3906z M635.4355,227.4844
		c-1.459,0-2.627,0.4624-3.5059,1.3867c-0.8789,0.9248-1.4033,2.2725-1.5723,4.043h9.8047
		c-0.0264-1.7837-0.4561-3.1348-1.2891-4.0527C638.0391,227.9434,636.8936,227.4844,635.4355,227.4844z"/>
	<path fill="#4B5666" d="M507.7598,294h-4.5898v-30.3906h4.5898V294z"/>
	<path fill="#4B5666" d="M523.7559,294.3906c-3.3594,0-5.9863-0.9795-7.8809-2.9395c-1.8945-1.9595-2.8418-4.6582-2.8418-8.0957
		c0-3.5283,0.8789-6.3018,2.6367-8.3203c1.7578-2.0181,4.1729-3.0273,7.2461-3.0273c2.8516,0,5.104,0.8662,6.7578,2.5977
		c1.6533,1.7319,2.4805,4.1147,2.4805,7.1484v2.4805h-14.3945c0.0649,2.0967,0.6313,3.708,1.6992,4.834
		c1.0674,1.1265,2.5713,1.6895,4.5117,1.6895c1.2759,0,2.4639-0.1201,3.5645-0.3613c1.1001-0.2407,2.2817-0.6411,3.5449-1.2012
		v3.7305c-1.1201,0.5342-2.2529,0.9116-3.3984,1.1328C526.5356,294.2798,525.2271,294.3906,523.7559,294.3906z M522.916,275.4844
		c-1.4585,0-2.627,0.4624-3.5059,1.3867c-0.8789,0.9248-1.4033,2.2725-1.5723,4.043h9.8047
		c-0.0264-1.7837-0.4561-3.1348-1.2891-4.0527C525.52,275.9434,524.374,275.4844,522.916,275.4844z"/>
	<path fill="#4B5666" d="M551.8809,287.8477c0,2.1094-0.7686,3.7275-2.3047,4.8535c-1.5366,1.1265-3.7373,1.6895-6.6016,1.6895
		c-2.8779,0-5.189-0.436-6.9336-1.3086v-3.9648c2.5391,1.1719,4.9023,1.7578,7.0898,1.7578c2.8252,0,4.2383-0.8525,4.2383-2.5586
		c0-0.5469-0.1563-1.0024-0.4688-1.3672c-0.3125-0.3643-0.8271-0.7422-1.543-1.1328c-0.7163-0.3906-1.7124-0.833-2.9883-1.3281
		c-2.4873-0.9634-4.1699-1.9268-5.0488-2.8906c-0.8789-0.9634-1.3184-2.2134-1.3184-3.75c0-1.8486,0.7451-3.2842,2.2363-4.3066
		c1.4907-1.022,3.5186-1.5332,6.084-1.5332c2.5391,0,4.9414,0.5146,7.207,1.543l-1.4844,3.457
		c-2.3311-0.9634-4.2905-1.4453-5.8789-1.4453c-2.4219,0-3.6328,0.6904-3.6328,2.0703c0,0.6772,0.3154,1.25,0.9473,1.7188
		c0.6313,0.4688,2.0083,1.1133,4.1309,1.9336c1.7837,0.6904,3.0791,1.3218,3.8867,1.8945c0.8071,0.5732,1.4063,1.2339,1.7969,1.9824
		C551.6855,285.9111,551.8809,286.8062,551.8809,287.8477z"/>
	<path fill="#4B5666" d="M585.4746,272.3984v2.5195l-3.6914,0.6836c0.3379,0.4561,0.6182,1.0156,0.8398,1.6797
		c0.2207,0.6641,0.332,1.3672,0.332,2.1094c0,2.2266-0.7686,3.978-2.3047,5.2539c-1.5371,1.2764-3.6523,1.9141-6.3477,1.9141
		c-0.6904,0-1.3154-0.0518-1.875-0.1563c-0.9897,0.6123-1.4844,1.3281-1.4844,2.1484c0,0.4951,0.231,0.8662,0.6934,1.1133
		c0.4619,0.2476,1.3115,0.3711,2.5488,0.3711h3.7695c2.3828,0,4.1924,0.5078,5.4297,1.5234
		c1.2363,1.0156,1.8555,2.4805,1.8555,4.3945c0,2.4478-1.0098,4.3359-3.0273,5.6641c-2.0186,1.3281-4.9355,1.9922-8.75,1.9922
		c-2.9429,0-5.189-0.521-6.7383-1.5625c-1.5498-1.042-2.3242-2.5264-2.3242-4.4531c0-1.3281,0.4199-2.4448,1.2598-3.3496
		s2.0146-1.5332,3.5254-1.8848c-0.6123-0.2603-1.1167-0.6802-1.5137-1.2598c-0.3975-0.5791-0.5957-1.188-0.5957-1.8262
		c0-0.8071,0.2275-1.4907,0.6836-2.0508c0.4556-0.5596,1.1328-1.1133,2.0313-1.6602c-1.1201-0.4814-2.0283-1.2661-2.7246-2.3535
		c-0.6968-1.0869-1.0449-2.3599-1.0449-3.8184c0-2.3438,0.7388-4.1602,2.2168-5.4492c1.4775-1.2891,3.584-1.9336,6.3184-1.9336
		c0.6118,0,1.2529,0.0425,1.9238,0.127c0.6699,0.085,1.1748,0.1729,1.5137,0.2637H585.4746z M568.502,297.3594
		c0,0.9893,0.4458,1.751,1.3379,2.2852c0.8916,0.5337,2.145,0.8008,3.7598,0.8008c2.5,0,4.3613-0.3584,5.5859-1.0742
		c1.2236-0.7163,1.8359-1.667,1.8359-2.8516c0-0.9375-0.3359-1.605-1.0059-2.002c-0.6709-0.3975-1.918-0.5957-3.7402-0.5957h-3.4766
		c-1.3154,0-2.3604,0.3091-3.1348,0.9277C568.8892,295.4678,568.502,296.3047,568.502,297.3594z M570.4746,279.3906
		c0,1.3545,0.3481,2.396,1.0449,3.125c0.6963,0.7295,1.6958,1.0938,2.998,1.0938c2.6563,0,3.9844-1.4189,3.9844-4.2578
		c0-1.4063-0.3291-2.4902-0.9863-3.252c-0.6582-0.7617-1.6572-1.1426-2.998-1.1426c-1.3281,0-2.334,0.3779-3.0176,1.1328
		C570.8164,276.8452,570.4746,277.9453,570.4746,279.3906z"/>
	<path fill="#4B5666" d="M598.9121,294.3906c-3.3594,0-5.9863-0.9795-7.8809-2.9395c-1.8945-1.9595-2.8418-4.6582-2.8418-8.0957
		c0-3.5283,0.8789-6.3018,2.6367-8.3203c1.7578-2.0181,4.1729-3.0273,7.2461-3.0273c2.8516,0,5.1035,0.8662,6.7578,2.5977
		c1.6533,1.7319,2.4805,4.1147,2.4805,7.1484v2.4805H592.916c0.0645,2.0967,0.6309,3.708,1.6992,4.834
		c1.0674,1.1265,2.5713,1.6895,4.5117,1.6895c1.2754,0,2.4639-0.1201,3.5645-0.3613c1.0996-0.2407,2.2813-0.6411,3.5449-1.2012
		v3.7305c-1.1201,0.5342-2.2529,0.9116-3.3984,1.1328C601.6914,294.2798,600.3828,294.3906,598.9121,294.3906z M598.0723,275.4844
		c-1.459,0-2.627,0.4624-3.5059,1.3867c-0.8789,0.9248-1.4033,2.2725-1.5723,4.043h9.8047
		c-0.0264-1.7837-0.4561-3.1348-1.2891-4.0527C600.6758,275.9434,599.5303,275.4844,598.0723,275.4844z"/>
	<path fill="#4B5666" d="M631.5293,294h-4.6094v-13.2813c0-1.6665-0.3359-2.9102-1.0059-3.7305
		c-0.6709-0.8203-1.7354-1.2305-3.1934-1.2305c-1.9404,0-3.3594,0.5732-4.2578,1.7188c-0.8984,1.146-1.3477,3.0664-1.3477,5.7617
		V294h-4.5898v-21.6016h3.5938l0.6445,2.832h0.2344c0.6504-1.0283,1.5752-1.8228,2.7734-2.3828
		c1.1973-0.5596,2.5254-0.8398,3.9844-0.8398c5.1816,0,7.7734,2.6367,7.7734,7.9102V294z"/>
	<path fill="#4B5666" d="M652.4277,287.8477c0,2.1094-0.7686,3.7275-2.3047,4.8535c-1.5371,1.1265-3.7373,1.6895-6.6016,1.6895
		c-2.8779,0-5.1895-0.436-6.9336-1.3086v-3.9648c2.5391,1.1719,4.9023,1.7578,7.0898,1.7578c2.8252,0,4.2383-0.8525,4.2383-2.5586
		c0-0.5469-0.1563-1.0024-0.4688-1.3672c-0.3125-0.3643-0.8271-0.7422-1.543-1.1328c-0.7168-0.3906-1.7129-0.833-2.9883-1.3281
		c-2.4873-0.9634-4.1699-1.9268-5.0488-2.8906c-0.8789-0.9634-1.3184-2.2134-1.3184-3.75c0-1.8486,0.7451-3.2842,2.2363-4.3066
		c1.4902-1.022,3.5186-1.5332,6.084-1.5332c2.5391,0,4.9414,0.5146,7.207,1.543l-1.4844,3.457
		c-2.3311-0.9634-4.291-1.4453-5.8789-1.4453c-2.4219,0-3.6328,0.6904-3.6328,2.0703c0,0.6772,0.3154,1.25,0.9473,1.7188
		c0.6309,0.4688,2.0078,1.1133,4.1309,1.9336c1.7832,0.6904,3.0791,1.3218,3.8867,1.8945c0.8066,0.5732,1.4063,1.2339,1.7969,1.9824
		C652.2324,285.9111,652.4277,286.8062,652.4277,287.8477z"/>
	<path fill="#4B5666" d="M440.4551,342.3906c-3.3594,0-5.9863-0.9795-7.8809-2.9395c-1.8945-1.9595-2.8418-4.6582-2.8418-8.0957
		c0-3.5283,0.8789-6.3018,2.6367-8.3203c1.7578-2.0181,4.1729-3.0273,7.2461-3.0273c2.8516,0,5.104,0.8662,6.7578,2.5977
		c1.6533,1.7319,2.4805,4.1147,2.4805,7.1484v2.4805H434.459c0.0649,2.0967,0.6313,3.708,1.6992,4.834
		c1.0674,1.1265,2.5713,1.6895,4.5117,1.6895c1.2759,0,2.4639-0.1201,3.5645-0.3613c1.1001-0.2407,2.2817-0.6411,3.5449-1.2012
		v3.7305c-1.1201,0.5342-2.2529,0.9116-3.3984,1.1328C443.2349,342.2798,441.9263,342.3906,440.4551,342.3906z M439.6152,323.4844
		c-1.4585,0-2.627,0.4624-3.5059,1.3867c-0.8789,0.9248-1.4033,2.2725-1.5723,4.043h9.8047
		c-0.0264-1.7837-0.4561-3.1348-1.2891-4.0527C442.2192,323.9434,441.0732,323.4844,439.6152,323.4844z"/>
	<path fill="#4B5666" d="M458.873,330.9648l-7.2461-10.5664h5.2344l4.9219,7.5586l4.9609-7.5586h5.1953l-7.2656,10.5664
		L472.3105,342h-5.1953l-5.332-8.0859L456.4707,342h-5.1953L458.873,330.9648z"/>
	<path fill="#4B5666" d="M484.1465,338.6797c1.1196,0,2.2393-0.1758,3.3594-0.5273v3.457
		c-0.5078,0.2217-1.1621,0.4067-1.9629,0.5566c-0.8008,0.1494-1.6309,0.2246-2.4902,0.2246c-4.3491,0-6.5234-2.2915-6.5234-6.875
		V323.875h-2.9492v-2.0313l3.1641-1.6797l1.5625-4.5703h2.832v4.8047h6.1523v3.4766h-6.1523v11.5625
		c0,1.1069,0.2764,1.9238,0.8301,2.4512C482.522,338.416,483.248,338.6797,484.1465,338.6797z"/>
	<path fill="#4B5666" d="M502.7793,320.0078c0.9243,0,1.686,0.0654,2.2852,0.1953l-0.4492,4.2773
		c-0.6514-0.1563-1.3281-0.2344-2.0313-0.2344c-1.8359,0-3.3237,0.5991-4.4629,1.7969c-1.1396,1.1982-1.709,2.7539-1.709,4.668V342
		h-4.5898v-21.6016h3.5938l0.6055,3.8086h0.2344c0.7158-1.2891,1.6504-2.311,2.8027-3.0664
		C500.2109,320.3857,501.4512,320.0078,502.7793,320.0078z"/>
	<path fill="#4B5666" d="M522.584,342l-0.918-3.0078h-0.1563c-1.042,1.3154-2.0898,2.2104-3.1445,2.6855
		s-2.4092,0.7129-4.0625,0.7129c-2.1226,0-3.7793-0.5728-4.9707-1.7188c-1.1914-1.1455-1.7871-2.7666-1.7871-4.8633
		c0-2.2266,0.8267-3.9063,2.4805-5.0391c1.6533-1.1328,4.1729-1.751,7.5586-1.8555l3.7305-0.1172v-1.1523
		c0-1.3799-0.3223-2.4121-0.9668-3.0957s-1.644-1.0254-2.998-1.0254c-1.1069,0-2.168,0.1631-3.1836,0.4883
		c-1.0156,0.3257-1.9922,0.71-2.9297,1.1523l-1.4844-3.2813c1.1719-0.6118,2.4541-1.0771,3.8477-1.3965
		c1.3931-0.3188,2.708-0.4785,3.9453-0.4785c2.7471,0,4.8208,0.5991,6.2207,1.7969c1.3994,1.1982,2.0996,3.0796,2.0996,5.6445V342
		H522.584z M515.748,338.875c1.6665,0,3.0044-0.4653,4.0137-1.3965c1.0088-0.9307,1.5137-2.2363,1.5137-3.916v-1.875l-2.7734,0.1172
		c-2.1616,0.0781-3.7339,0.4395-4.7168,1.084c-0.9834,0.6445-1.4746,1.6309-1.4746,2.959c0,0.9639,0.2861,1.709,0.8594,2.2363
		C513.7427,338.6113,514.6021,338.875,515.748,338.875z"/>
	<path fill="#4B5666" d="M551.4316,331.1602c0,3.5288-0.9053,6.2827-2.7148,8.2617c-1.8101,1.9795-4.3296,2.9688-7.5586,2.9688
		c-2.0186,0-3.8022-0.4556-5.3516-1.3672c-1.5498-0.9111-2.7412-2.2197-3.5742-3.9258c-0.8335-1.7056-1.25-3.6846-1.25-5.9375
		c0-3.5024,0.8984-6.2368,2.6953-8.2031c1.7969-1.9658,4.3291-2.9492,7.5977-2.9492c3.125,0,5.5986,1.0059,7.4219,3.0176
		C550.52,325.0371,551.4316,327.749,551.4316,331.1602z M535.709,331.1602c0,4.9873,1.8423,7.4805,5.5273,7.4805
		c3.6455,0,5.4688-2.4932,5.4688-7.4805c0-4.9346-1.8359-7.4023-5.5078-7.4023c-1.9272,0-3.3237,0.6382-4.1895,1.9141
		C536.1416,326.9482,535.709,328.7773,535.709,331.1602z"/>
	<path fill="#4B5666" d="M567.6621,320.0078c0.9243,0,1.686,0.0654,2.2852,0.1953l-0.4492,4.2773
		c-0.6514-0.1563-1.3281-0.2344-2.0313-0.2344c-1.8359,0-3.3237,0.5991-4.4629,1.7969c-1.1396,1.1982-1.709,2.7539-1.709,4.668V342
		h-4.5898v-21.6016h3.5938l0.6055,3.8086h0.2344c0.7158-1.2891,1.6504-2.311,2.8027-3.0664
		C565.0938,320.3857,566.334,320.0078,567.6621,320.0078z"/>
	<path fill="#4B5666" d="M581.2363,342.3906c-2.6953,0-4.7988-0.9766-6.3086-2.9297c-1.5107-1.9531-2.2656-4.6938-2.2656-8.2227
		c0-3.5415,0.7646-6.2988,2.2949-8.2715c1.5293-1.9727,3.6484-2.959,6.3574-2.959c2.8379,0,5,1.0483,6.4844,3.1445h0.2344
		c-0.2217-1.5493-0.332-2.7734-0.332-3.6719v-7.8711h4.6094V342h-3.5938l-0.8008-2.832h-0.2148
		C586.2295,341.3164,584.0742,342.3906,581.2363,342.3906z M582.4668,338.6797c1.8877,0,3.2617-0.5303,4.1211-1.5918
		c0.8594-1.061,1.3018-2.7832,1.3281-5.166v-0.6445c0-2.7212-0.4434-4.6548-1.3281-5.8008
		c-0.8857-1.1455-2.2725-1.7188-4.1602-1.7188c-1.6152,0-2.8584,0.6543-3.7305,1.9629c-0.873,1.3086-1.3086,3.1738-1.3086,5.5957
		c0,2.396,0.4229,4.2222,1.2695,5.4785C579.5039,338.0518,580.7734,338.6797,582.4668,338.6797z"/>
	<path fill="#4B5666" d="M598.5996,314.6758c0-0.8203,0.2246-1.4517,0.6738-1.8945c0.4492-0.4424,1.0898-0.6641,1.9238-0.6641
		c0.8066,0,1.4355,0.2217,1.8848,0.6641c0.4492,0.4429,0.6738,1.0742,0.6738,1.8945c0,0.7813-0.2246,1.3965-0.6738,1.8457
		s-1.0781,0.6738-1.8848,0.6738c-0.834,0-1.4746-0.2246-1.9238-0.6738S598.5996,315.457,598.5996,314.6758z M603.4629,342h-4.5898
		v-21.6016h4.5898V342z"/>
	<path fill="#4B5666" d="M629.0293,342h-4.6094v-13.2813c0-1.6665-0.3359-2.9102-1.0059-3.7305
		c-0.6709-0.8203-1.7354-1.2305-3.1934-1.2305c-1.9404,0-3.3594,0.5732-4.2578,1.7188c-0.8984,1.146-1.3477,3.0664-1.3477,5.7617
		V342h-4.5898v-21.6016h3.5938l0.6445,2.832h0.2344c0.6504-1.0283,1.5752-1.8228,2.7734-2.3828
		c1.1973-0.5596,2.5254-0.8398,3.9844-0.8398c5.1816,0,7.7734,2.6367,7.7734,7.9102V342z"/>
	<path fill="#4B5666" d="M648.9316,342l-0.918-3.0078h-0.1563c-1.042,1.3154-2.0898,2.2104-3.1445,2.6855
		s-2.4092,0.7129-4.0625,0.7129c-2.123,0-3.7793-0.5728-4.9707-1.7188c-1.1914-1.1455-1.7871-2.7666-1.7871-4.8633
		c0-2.2266,0.8262-3.9063,2.4805-5.0391c1.6533-1.1328,4.1729-1.751,7.5586-1.8555l3.7305-0.1172v-1.1523
		c0-1.3799-0.3223-2.4121-0.9668-3.0957s-1.6445-1.0254-2.998-1.0254c-1.1074,0-2.168,0.1631-3.1836,0.4883
		c-1.0156,0.3257-1.9922,0.71-2.9297,1.1523l-1.4844-3.2813c1.1719-0.6118,2.4541-1.0771,3.8477-1.3965
		c1.3926-0.3188,2.708-0.4785,3.9453-0.4785c2.7471,0,4.8203,0.5991,6.2207,1.7969c1.3994,1.1982,2.0996,3.0796,2.0996,5.6445V342
		H648.9316z M642.0957,338.875c1.666,0,3.0039-0.4653,4.0137-1.3965c1.0088-0.9307,1.5137-2.2363,1.5137-3.916v-1.875
		l-2.7734,0.1172c-2.1621,0.0781-3.7344,0.4395-4.7168,1.084c-0.9834,0.6445-1.4746,1.6309-1.4746,2.959
		c0,0.9639,0.2861,1.709,0.8594,2.2363C640.0898,338.6113,640.9492,338.875,642.0957,338.875z"/>
	<path fill="#4B5666" d="M658.3457,314.6758c0-0.8203,0.2246-1.4517,0.6738-1.8945c0.4492-0.4424,1.0898-0.6641,1.9238-0.6641
		c0.8066,0,1.4355,0.2217,1.8848,0.6641c0.4492,0.4429,0.6738,1.0742,0.6738,1.8945c0,0.7813-0.2246,1.3965-0.6738,1.8457
		s-1.0781,0.6738-1.8848,0.6738c-0.834,0-1.4746-0.2246-1.9238-0.6738S658.3457,315.457,658.3457,314.6758z M663.209,342h-4.5898
		v-21.6016h4.5898V342z"/>
	<path fill="#4B5666" d="M680.7285,320.0078c0.9238,0,1.6855,0.0654,2.2852,0.1953l-0.4492,4.2773
		c-0.6514-0.1563-1.3281-0.2344-2.0313-0.2344c-1.8359,0-3.3242,0.5991-4.4629,1.7969c-1.1396,1.1982-1.709,2.7539-1.709,4.668V342
		h-4.5898v-21.6016h3.5938l0.6055,3.8086h0.2344c0.7158-1.2891,1.6504-2.311,2.8027-3.0664
		C678.1602,320.3857,679.4004,320.0078,680.7285,320.0078z"/>
	<path fill="#4B5666" d="M696.4512,342.3906c-3.3594,0-5.9863-0.9795-7.8809-2.9395c-1.8945-1.9595-2.8418-4.6582-2.8418-8.0957
		c0-3.5283,0.8789-6.3018,2.6367-8.3203c1.7578-2.0181,4.1729-3.0273,7.2461-3.0273c2.8516,0,5.1045,0.8662,6.7578,2.5977
		c1.6533,1.7319,2.4805,4.1147,2.4805,7.1484v2.4805h-14.3945c0.0654,2.0967,0.6318,3.708,1.6992,4.834
		c1.0674,1.1265,2.5713,1.6895,4.5117,1.6895c1.2764,0,2.4639-0.1201,3.5645-0.3613c1.1006-0.2407,2.2822-0.6411,3.5449-1.2012
		v3.7305c-1.1201,0.5342-2.2529,0.9116-3.3984,1.1328S697.9229,342.3906,696.4512,342.3906z M695.6113,323.4844
		c-1.458,0-2.627,0.4624-3.5059,1.3867c-0.8789,0.9248-1.4033,2.2725-1.5723,4.043h9.8047
		c-0.0264-1.7837-0.4561-3.1348-1.2891-4.0527S697.0693,323.4844,695.6113,323.4844z"/>
	<path fill="#4B5666" d="M724.5762,335.8477c0,2.1094-0.7686,3.7275-2.3047,4.8535c-1.5361,1.1265-3.7373,1.6895-6.6016,1.6895
		c-2.8779,0-5.1885-0.436-6.9336-1.3086v-3.9648c2.5391,1.1719,4.9023,1.7578,7.0898,1.7578c2.8252,0,4.2383-0.8525,4.2383-2.5586
		c0-0.5469-0.1563-1.0024-0.4688-1.3672c-0.3125-0.3643-0.8271-0.7422-1.543-1.1328s-1.7119-0.833-2.9883-1.3281
		c-2.4873-0.9634-4.1699-1.9268-5.0488-2.8906c-0.8789-0.9634-1.3184-2.2134-1.3184-3.75c0-1.8486,0.7451-3.2842,2.2363-4.3066
		c1.4912-1.022,3.5186-1.5332,6.084-1.5332c2.5391,0,4.9414,0.5146,7.207,1.543l-1.4844,3.457
		c-2.3311-0.9634-4.29-1.4453-5.8789-1.4453c-2.4219,0-3.6328,0.6904-3.6328,2.0703c0,0.6772,0.3154,1.25,0.9473,1.7188
		s2.0088,1.1133,4.1309,1.9336c1.7842,0.6904,3.0791,1.3218,3.8867,1.8945c0.8076,0.5732,1.4063,1.2339,1.7969,1.9824
		C724.3809,333.9111,724.5762,334.8062,724.5762,335.8477z"/>
</g>
<g>
	<path fill="#4B5666" d="M891.7168,609v-28.5547h4.668v24.5508h12.0898V609H891.7168z"/>
	<path fill="#4B5666" d="M912.6348,581.6758c0-0.8203,0.2246-1.4521,0.6738-1.8945s1.0908-0.6641,1.9238-0.6641
		c0.8076,0,1.4355,0.2217,1.8848,0.6641s0.6738,1.0742,0.6738,1.8945c0,0.7813-0.2246,1.3965-0.6738,1.8457
		s-1.0771,0.6738-1.8848,0.6738c-0.833,0-1.4746-0.2246-1.9238-0.6738S912.6348,582.457,912.6348,581.6758z M917.498,609h-4.5898
		v-21.6016h4.5898V609z"/>
	<path fill="#4B5666" d="M928.9824,609l-8.2031-21.6016h4.8438l4.3945,12.5586c0.7549,2.1094,1.2109,3.8154,1.3672,5.1172h0.1563
		c0.1172-0.9375,0.5732-2.6436,1.3672-5.1172l4.3945-12.5586h4.8828L933.9434,609H928.9824z"/>
	<path fill="#4B5666" d="M956.4238,587.0078c0.9248,0,1.6865,0.0654,2.2852,0.1953l-0.4492,4.2773
		c-0.6514-0.1563-1.3281-0.2344-2.0313-0.2344c-1.8359,0-3.3232,0.5986-4.4629,1.7969s-1.709,2.7539-1.709,4.668V609h-4.5898
		v-21.6016h3.5938l0.6055,3.8086h0.2344c0.7158-1.2891,1.6504-2.3115,2.8027-3.0664S955.0957,587.0078,956.4238,587.0078z"/>
	<path fill="#4B5666" d="M972.1465,609.3906c-3.3594,0-5.9863-0.9795-7.8809-2.9395s-2.8418-4.6582-2.8418-8.0957
		c0-3.5283,0.8789-6.3018,2.6367-8.3203s4.1729-3.0273,7.2461-3.0273c2.8516,0,5.1045,0.8662,6.7578,2.5977
		s2.4805,4.1143,2.4805,7.1484v2.4805h-14.3945c0.0654,2.0967,0.6318,3.708,1.6992,4.834s2.5713,1.6895,4.5117,1.6895
		c1.2764,0,2.4639-0.1201,3.5645-0.3613s2.2822-0.6416,3.5449-1.2012v3.7305c-1.1201,0.5342-2.2529,0.9111-3.3984,1.1328
		S973.6182,609.3906,972.1465,609.3906z M971.3066,590.4844c-1.458,0-2.627,0.4619-3.5059,1.3867s-1.4033,2.2725-1.5723,4.043
		h9.8047c-0.0264-1.7842-0.4561-3.1348-1.2891-4.0527S972.7646,590.4844,971.3066,590.4844z"/>
	<path fill="#4B5666" d="M996.7168,587.0078c0.9248,0,1.6865,0.0654,2.2852,0.1953l-0.4492,4.2773
		c-0.6514-0.1563-1.3281-0.2344-2.0313-0.2344c-1.8359,0-3.3232,0.5986-4.4629,1.7969s-1.709,2.7539-1.709,4.668V609h-4.5898
		v-21.6016h3.5938l0.6055,3.8086h0.2344c0.7158-1.2891,1.6504-2.3115,2.8027-3.0664S995.3887,587.0078,996.7168,587.0078z"/>
	<path fill="#4B5666" d="M842.127,657.3906c-2.6953,0-4.7979-0.9766-6.3086-2.9297s-2.2656-4.6943-2.2656-8.2227
		c0-3.542,0.7646-6.2988,2.2949-8.2715s3.6494-2.959,6.3574-2.959c2.8389,0,5,1.0479,6.4844,3.1445h0.2344
		c-0.2217-1.5498-0.332-2.7734-0.332-3.6719v-7.8711h4.6094V657h-3.5938l-0.8008-2.832h-0.2148
		C847.1201,656.3164,844.9658,657.3906,842.127,657.3906z M843.3574,653.6797c1.8877,0,3.2617-0.5303,4.1211-1.5918
		s1.3018-2.7832,1.3281-5.166v-0.6445c0-2.7217-0.4424-4.6553-1.3281-5.8008s-2.2725-1.7188-4.1602-1.7188
		c-1.6143,0-2.8584,0.6543-3.7305,1.9629s-1.3086,3.1738-1.3086,5.5957c0,2.3955,0.4229,4.2217,1.2695,5.4785
		S841.665,653.6797,843.3574,653.6797z"/>
	<path fill="#4B5666" d="M869.1973,657.3906c-3.3594,0-5.9863-0.9795-7.8809-2.9395s-2.8418-4.6582-2.8418-8.0957
		c0-3.5283,0.8789-6.3018,2.6367-8.3203s4.1729-3.0273,7.2461-3.0273c2.8516,0,5.1045,0.8662,6.7578,2.5977
		s2.4805,4.1143,2.4805,7.1484v2.4805h-14.3945c0.0654,2.0967,0.6318,3.708,1.6992,4.834s2.5713,1.6895,4.5117,1.6895
		c1.2764,0,2.4639-0.1201,3.5645-0.3613s2.2822-0.6416,3.5449-1.2012v3.7305c-1.1201,0.5342-2.2529,0.9111-3.3984,1.1328
		S870.6689,657.3906,869.1973,657.3906z M868.3574,638.4844c-1.458,0-2.627,0.4619-3.5059,1.3867s-1.4033,2.2725-1.5723,4.043
		h9.8047c-0.0264-1.7842-0.4561-3.1348-1.2891-4.0527S869.8154,638.4844,868.3574,638.4844z"/>
	<path fill="#4B5666" d="M897.791,657h-4.5898v-30.3906h4.5898V657z"/>
	<path fill="#4B5666" d="M917.8691,657l-0.918-3.0078h-0.1563c-1.042,1.3154-2.0898,2.21-3.1445,2.6855
		s-2.4092,0.7129-4.0625,0.7129c-2.1221,0-3.7793-0.5732-4.9707-1.7188s-1.7871-2.7666-1.7871-4.8633
		c0-2.2266,0.8271-3.9063,2.4805-5.0391s4.1729-1.751,7.5586-1.8555l3.7305-0.1172v-1.1523c0-1.3799-0.3223-2.4121-0.9668-3.0957
		s-1.6436-1.0254-2.998-1.0254c-1.1064,0-2.168,0.1631-3.1836,0.4883s-1.9922,0.71-2.9297,1.1523l-1.4844-3.2813
		c1.1719-0.6123,2.4541-1.0771,3.8477-1.3965s2.708-0.4785,3.9453-0.4785c2.7471,0,4.8213,0.5986,6.2207,1.7969
		s2.0996,3.0791,2.0996,5.6445V657H917.8691z M911.0332,653.875c1.667,0,3.0049-0.4658,4.0137-1.3965s1.5137-2.2363,1.5137-3.916
		v-1.875l-2.7734,0.1172c-2.1611,0.0781-3.7334,0.4395-4.7168,1.084s-1.4746,1.6309-1.4746,2.959
		c0,0.9639,0.2861,1.709,0.8594,2.2363S909.8877,653.875,911.0332,653.875z"/>
	<path fill="#4B5666" d="M942.8691,657l-8.2031-21.6016h4.8438l4.3945,12.5586c0.7549,2.1094,1.2109,3.8154,1.3672,5.1172h0.1563
		c0.1172-0.9375,0.5732-2.6436,1.3672-5.1172l4.3945-12.5586h4.8828L947.8301,657H942.8691z"/>
	<path fill="#4B5666" d="M972.8691,657l-0.918-3.0078h-0.1563c-1.042,1.3154-2.0898,2.21-3.1445,2.6855
		s-2.4092,0.7129-4.0625,0.7129c-2.1221,0-3.7793-0.5732-4.9707-1.7188s-1.7871-2.7666-1.7871-4.8633
		c0-2.2266,0.8271-3.9063,2.4805-5.0391s4.1729-1.751,7.5586-1.8555l3.7305-0.1172v-1.1523c0-1.3799-0.3223-2.4121-0.9668-3.0957
		s-1.6436-1.0254-2.998-1.0254c-1.1064,0-2.168,0.1631-3.1836,0.4883s-1.9922,0.71-2.9297,1.1523l-1.4844-3.2813
		c1.1719-0.6123,2.4541-1.0771,3.8477-1.3965s2.708-0.4785,3.9453-0.4785c2.7471,0,4.8213,0.5986,6.2207,1.7969
		s2.0996,3.0791,2.0996,5.6445V657H972.8691z M966.0332,653.875c1.667,0,3.0049-0.4658,4.0137-1.3965s1.5137-2.2363,1.5137-3.916
		v-1.875l-2.7734,0.1172c-2.1611,0.0781-3.7334,0.4395-4.7168,1.084s-1.4746,1.6309-1.4746,2.959
		c0,0.9639,0.2861,1.709,0.8594,2.2363S964.8877,653.875,966.0332,653.875z"/>
	<path fill="#4B5666" d="M987.1465,657h-4.5898v-30.3906h4.5898V657z"/>
	<path fill="#4B5666" d="M1003.1426,657.3906c-3.3594,0-5.9863-0.9795-7.8809-2.9395s-2.8418-4.6582-2.8418-8.0957
		c0-3.5283,0.8789-6.3018,2.6367-8.3203s4.1729-3.0273,7.2461-3.0273c2.8516,0,5.1045,0.8662,6.7578,2.5977
		s2.4805,4.1143,2.4805,7.1484v2.4805h-14.3945c0.0654,2.0967,0.6318,3.708,1.6992,4.834s2.5713,1.6895,4.5117,1.6895
		c1.2764,0,2.4639-0.1201,3.5645-0.3613s2.2822-0.6416,3.5449-1.2012v3.7305c-1.1201,0.5342-2.2529,0.9111-3.3984,1.1328
		S1004.6143,657.3906,1003.1426,657.3906z M1002.3027,638.4844c-1.458,0-2.627,0.4619-3.5059,1.3867s-1.4033,2.2725-1.5723,4.043
		h9.8047c-0.0264-1.7842-0.4561-3.1348-1.2891-4.0527S1003.7607,638.4844,1002.3027,638.4844z"/>
	<path fill="#4B5666" d="M1031.9902,657l-0.6445-2.832h-0.2344c-0.6377,1.0029-1.5459,1.79-2.7246,2.3633
		s-2.5225,0.8594-4.0332,0.8594c-2.6172,0-4.5703-0.6514-5.8594-1.9531s-1.9336-3.2744-1.9336-5.918v-14.1211h4.6289v13.3203
		c0,1.6533,0.3389,2.8936,1.0156,3.7207s1.7383,1.2402,3.1836,1.2402c1.9268,0,3.3428-0.5762,4.248-1.7285
		s1.3574-3.083,1.3574-5.791v-10.7617h4.6094V657H1031.9902z"/>
	<path fill="#4B5666" d="M1053.1035,635.0078c0.9248,0,1.6865,0.0654,2.2852,0.1953l-0.4492,4.2773
		c-0.6514-0.1563-1.3281-0.2344-2.0313-0.2344c-1.8359,0-3.3232,0.5986-4.4629,1.7969s-1.709,2.7539-1.709,4.668V657h-4.5898
		v-21.6016h3.5938l0.6055,3.8086h0.2344c0.7158-1.2891,1.6504-2.3115,2.8027-3.0664S1051.7754,635.0078,1053.1035,635.0078z"/>
	<path fill="#4B5666" d="M796.7852,705.3906c-3.2686,0-5.752-0.9541-7.4512-2.8613s-2.5488-4.6455-2.5488-8.2129
		c0-3.6328,0.8887-6.4258,2.666-8.3789s4.3457-2.9297,7.7051-2.9297c2.2783,0,4.3291,0.4229,6.1523,1.2695l-1.3867,3.6914
		c-1.9404-0.7549-3.542-1.1328-4.8047-1.1328c-3.7373,0-5.6055,2.4805-5.6055,7.4414c0,2.4219,0.4658,4.2412,1.3965,5.459
		s2.2949,1.8262,4.0918,1.8262c2.0439,0,3.9775-0.5078,5.8008-1.5234v4.0039c-0.8203,0.4814-1.6963,0.8271-2.627,1.0352
		S798.1133,705.3906,796.7852,705.3906z"/>
	<path fill="#4B5666" d="M827.0391,694.1602c0,3.5283-0.9053,6.2822-2.7148,8.2617s-4.3291,2.9688-7.5586,2.9688
		c-2.0186,0-3.8018-0.4561-5.3516-1.3672s-2.7412-2.2197-3.5742-3.9258s-1.25-3.6846-1.25-5.9375
		c0-3.5029,0.8984-6.2373,2.6953-8.2031s4.3291-2.9492,7.5977-2.9492c3.125,0,5.5986,1.0059,7.4219,3.0176
		S827.0391,690.749,827.0391,694.1602z M811.3164,694.1602c0,4.9873,1.8428,7.4805,5.5273,7.4805
		c3.6455,0,5.4688-2.4932,5.4688-7.4805c0-4.9346-1.8359-7.4023-5.5078-7.4023c-1.9268,0-3.3232,0.6377-4.1895,1.9141
		S811.3164,691.7773,811.3164,694.1602z"/>
	<path fill="#4B5666" d="M851.3164,705h-4.6094v-13.2813c0-1.667-0.335-2.9102-1.0059-3.7305s-1.7354-1.2305-3.1934-1.2305
		c-1.9404,0-3.3594,0.5732-4.2578,1.7188s-1.3477,3.0664-1.3477,5.7617V705h-4.5898v-21.6016h3.5938l0.6445,2.832h0.2344
		c0.6514-1.0283,1.5752-1.8232,2.7734-2.3828s2.5264-0.8398,3.9844-0.8398c5.1826,0,7.7734,2.6367,7.7734,7.9102V705z"/>
	<path fill="#4B5666" d="M865.75,701.6797c1.1201,0,2.2393-0.1758,3.3594-0.5273v3.457c-0.5078,0.2217-1.1621,0.4072-1.9629,0.5566
		s-1.6309,0.2246-2.4902,0.2246c-4.3486,0-6.5234-2.292-6.5234-6.875V686.875h-2.9492v-2.0313l3.1641-1.6797l1.5625-4.5703h2.832
		v4.8047h6.1523v3.4766h-6.1523v11.5625c0,1.1064,0.2764,1.9238,0.8301,2.4512S864.8516,701.6797,865.75,701.6797z"/>
	<path fill="#4B5666" d="M873.1523,677.6758c0-0.8203,0.2246-1.4521,0.6738-1.8945s1.0908-0.6641,1.9238-0.6641
		c0.8076,0,1.4355,0.2217,1.8848,0.6641s0.6738,1.0742,0.6738,1.8945c0,0.7813-0.2246,1.3965-0.6738,1.8457
		s-1.0771,0.6738-1.8848,0.6738c-0.833,0-1.4746-0.2246-1.9238-0.6738S873.1523,678.457,873.1523,677.6758z M878.0156,705h-4.5898
		v-21.6016h4.5898V705z"/>
	<path fill="#4B5666" d="M903.582,705h-4.6094v-13.2813c0-1.667-0.335-2.9102-1.0059-3.7305s-1.7354-1.2305-3.1934-1.2305
		c-1.9404,0-3.3594,0.5732-4.2578,1.7188s-1.3477,3.0664-1.3477,5.7617V705h-4.5898v-21.6016h3.5938l0.6445,2.832h0.2344
		c0.6514-1.0283,1.5752-1.8232,2.7734-2.3828s2.5264-0.8398,3.9844-0.8398c5.1826,0,7.7734,2.6367,7.7734,7.9102V705z"/>
	<path fill="#4B5666" d="M925.2031,705l-0.6445-2.832h-0.2344c-0.6377,1.0029-1.5459,1.79-2.7246,2.3633
		s-2.5225,0.8594-4.0332,0.8594c-2.6172,0-4.5703-0.6514-5.8594-1.9531s-1.9336-3.2744-1.9336-5.918v-14.1211h4.6289v13.3203
		c0,1.6533,0.3389,2.8936,1.0156,3.7207s1.7383,1.2402,3.1836,1.2402c1.9268,0,3.3428-0.5762,4.248-1.7285
		s1.3574-3.083,1.3574-5.791v-10.7617h4.6094V705H925.2031z"/>
	<path fill="#4B5666" d="M944.793,705.3906c-3.3594,0-5.9863-0.9795-7.8809-2.9395s-2.8418-4.6582-2.8418-8.0957
		c0-3.5283,0.8789-6.3018,2.6367-8.3203s4.1729-3.0273,7.2461-3.0273c2.8516,0,5.1045,0.8662,6.7578,2.5977
		s2.4805,4.1143,2.4805,7.1484v2.4805h-14.3945c0.0654,2.0967,0.6318,3.708,1.6992,4.834s2.5713,1.6895,4.5117,1.6895
		c1.2764,0,2.4639-0.1201,3.5645-0.3613s2.2822-0.6416,3.5449-1.2012v3.7305c-1.1201,0.5342-2.2529,0.9111-3.3984,1.1328
		S946.2646,705.3906,944.793,705.3906z M943.9531,686.4844c-1.458,0-2.627,0.4619-3.5059,1.3867s-1.4033,2.2725-1.5723,4.043h9.8047
		c-0.0264-1.7842-0.4561-3.1348-1.2891-4.0527S945.4111,686.4844,943.9531,686.4844z"/>
	<path fill="#4B5666" d="M962.9961,705h-4.5898v-30.3906h4.5898V705z"/>
	<path fill="#4B5666" d="M974.1484,705h-4.5898v-30.3906h4.5898V705z"/>
	<path fill="#4B5666" d="M990.1445,705.3906c-3.3594,0-5.9863-0.9795-7.8809-2.9395s-2.8418-4.6582-2.8418-8.0957
		c0-3.5283,0.8789-6.3018,2.6367-8.3203s4.1729-3.0273,7.2461-3.0273c2.8516,0,5.1045,0.8662,6.7578,2.5977
		s2.4805,4.1143,2.4805,7.1484v2.4805h-14.3945c0.0654,2.0967,0.6318,3.708,1.6992,4.834s2.5713,1.6895,4.5117,1.6895
		c1.2764,0,2.4639-0.1201,3.5645-0.3613s2.2822-0.6416,3.5449-1.2012v3.7305c-1.1201,0.5342-2.2529,0.9111-3.3984,1.1328
		S991.6162,705.3906,990.1445,705.3906z M989.3047,686.4844c-1.458,0-2.627,0.4619-3.5059,1.3867s-1.4033,2.2725-1.5723,4.043
		h9.8047c-0.0264-1.7842-0.4561-3.1348-1.2891-4.0527S990.7627,686.4844,989.3047,686.4844z"/>
	<path fill="#4B5666" d="M1021.9609,705h-4.6094v-13.3203c0-1.6533-0.3125-2.8877-0.9375-3.7012s-1.6016-1.2207-2.9297-1.2207
		c-1.7705,0-3.0693,0.5762-3.8965,1.7285s-1.2402,3.0693-1.2402,5.752V705h-4.5898v-21.6016h3.5938l0.6445,2.832h0.2344
		c0.5986-1.0283,1.4678-1.8232,2.6074-2.3828s2.3926-0.8398,3.7598-0.8398c3.3203,0,5.5205,1.1328,6.6016,3.3984h0.3125
		c0.6377-1.0674,1.5361-1.9014,2.6953-2.5s2.4873-0.8984,3.9844-0.8984c2.5781,0,4.4561,0.6514,5.6348,1.9531
		s1.7676,3.2881,1.7676,5.957V705h-4.5898v-13.3203c0-1.6533-0.3154-2.8877-0.9473-3.7012s-1.6113-1.2207-2.9395-1.2207
		c-1.7842,0-3.0889,0.5566-3.916,1.6699s-1.2402,2.8223-1.2402,5.127V705z"/>
	<path fill="#4B5666" d="M1051.4336,705.3906c-3.3594,0-5.9863-0.9795-7.8809-2.9395s-2.8418-4.6582-2.8418-8.0957
		c0-3.5283,0.8789-6.3018,2.6367-8.3203s4.1729-3.0273,7.2461-3.0273c2.8516,0,5.1045,0.8662,6.7578,2.5977
		s2.4805,4.1143,2.4805,7.1484v2.4805h-14.3945c0.0654,2.0967,0.6318,3.708,1.6992,4.834s2.5713,1.6895,4.5117,1.6895
		c1.2764,0,2.4639-0.1201,3.5645-0.3613s2.2822-0.6416,3.5449-1.2012v3.7305c-1.1201,0.5342-2.2529,0.9111-3.3984,1.1328
		S1052.9053,705.3906,1051.4336,705.3906z M1050.5938,686.4844c-1.458,0-2.627,0.4619-3.5059,1.3867s-1.4033,2.2725-1.5723,4.043
		h9.8047c-0.0264-1.7842-0.4561-3.1348-1.2891-4.0527S1052.0518,686.4844,1050.5938,686.4844z"/>
	<path fill="#4B5666" d="M1084.0508,705h-4.6094v-13.2813c0-1.667-0.335-2.9102-1.0059-3.7305s-1.7354-1.2305-3.1934-1.2305
		c-1.9404,0-3.3594,0.5732-4.2578,1.7188s-1.3477,3.0664-1.3477,5.7617V705h-4.5898v-21.6016h3.5938l0.6445,2.832h0.2344
		c0.6514-1.0283,1.5752-1.8232,2.7734-2.3828s2.5264-0.8398,3.9844-0.8398c5.1826,0,7.7734,2.6367,7.7734,7.9102V705z"/>
	<path fill="#4B5666" d="M1098.4844,701.6797c1.1201,0,2.2393-0.1758,3.3594-0.5273v3.457
		c-0.5078,0.2217-1.1621,0.4072-1.9629,0.5566s-1.6309,0.2246-2.4902,0.2246c-4.3486,0-6.5234-2.292-6.5234-6.875V686.875h-2.9492
		v-2.0313l3.1641-1.6797l1.5625-4.5703h2.832v4.8047h6.1523v3.4766h-6.1523v11.5625c0,1.1064,0.2764,1.9238,0.8301,2.4512
		S1097.5859,701.6797,1098.4844,701.6797z"/>
</g>
<g>
	<path fill="#4B5666" d="M508.7334,969.0391c-2.6826,0-4.792,0.9502-6.3281,2.8516c-1.5366,1.9014-2.3047,4.5244-2.3047,7.8711
		c0,3.5029,0.7388,6.1523,2.2168,7.9492c1.4775,1.7969,3.6162,2.6953,6.416,2.6953c1.2109,0,2.3828-0.1201,3.5156-0.3613
		s2.311-0.5498,3.5352-0.9277v4.0039c-2.2397,0.8467-4.7788,1.2695-7.6172,1.2695c-4.1797,0-7.3896-1.2666-9.6289-3.7988
		c-2.2397-2.5322-3.3594-6.1553-3.3594-10.8691c0-2.9688,0.5435-5.5664,1.6309-7.793c1.0869-2.2266,2.6592-3.9326,4.7168-5.1172
		c2.0571-1.1846,4.4727-1.7773,7.2461-1.7773c2.9165,0,5.6118,0.6123,8.0859,1.8359l-1.6797,3.8867
		c-0.9639-0.4561-1.9824-0.8564-3.0566-1.2012S509.918,969.0391,508.7334,969.0391z"/>
	<path fill="#4B5666" d="M532.4053,972.0078c0.9243,0,1.686,0.0654,2.2852,0.1953l-0.4492,4.2773
		c-0.6514-0.1563-1.3281-0.2344-2.0313-0.2344c-1.8359,0-3.3237,0.5986-4.4629,1.7969c-1.1396,1.1982-1.709,2.7539-1.709,4.668V994
		h-4.5898v-21.6016h3.5938l0.6055,3.8086h0.2344c0.7158-1.2891,1.6504-2.3115,2.8027-3.0664S531.0771,972.0078,532.4053,972.0078z"
		/>
	<path fill="#4B5666" d="M548.1279,994.3906c-3.3594,0-5.9863-0.9795-7.8809-2.9395s-2.8418-4.6582-2.8418-8.0957
		c0-3.5283,0.8789-6.3018,2.6367-8.3203s4.1729-3.0273,7.2461-3.0273c2.8516,0,5.104,0.8662,6.7578,2.5977
		c1.6533,1.7314,2.4805,4.1143,2.4805,7.1484v2.4805h-14.3945c0.0649,2.0967,0.6313,3.708,1.6992,4.834
		c1.0674,1.126,2.5713,1.6895,4.5117,1.6895c1.2759,0,2.4639-0.1201,3.5645-0.3613c1.1001-0.2412,2.2817-0.6416,3.5449-1.2012
		v3.7305c-1.1201,0.5342-2.2529,0.9111-3.3984,1.1328C550.9077,994.2803,549.5991,994.3906,548.1279,994.3906z M547.2881,975.4844
		c-1.4585,0-2.627,0.4619-3.5059,1.3867s-1.4033,2.2725-1.5723,4.043h9.8047c-0.0264-1.7842-0.4561-3.1348-1.2891-4.0527
		C549.8921,975.9434,548.7461,975.4844,547.2881,975.4844z M544.3584,969.7617v-0.4883c0.7422-0.9111,1.5068-1.9268,2.2949-3.0469
		c0.7876-1.1201,1.4092-2.0771,1.8652-2.8711h5.332v0.4102c-0.6772,0.7939-1.6895,1.8193-3.0371,3.0762
		s-2.4839,2.2295-3.4082,2.9199H544.3584z"/>
	<path fill="#4B5666" d="M571.1748,994.3906c-3.3594,0-5.9863-0.9795-7.8809-2.9395s-2.8418-4.6582-2.8418-8.0957
		c0-3.5283,0.8789-6.3018,2.6367-8.3203s4.1729-3.0273,7.2461-3.0273c2.8516,0,5.104,0.8662,6.7578,2.5977
		c1.6533,1.7314,2.4805,4.1143,2.4805,7.1484v2.4805h-14.3945c0.0649,2.0967,0.6313,3.708,1.6992,4.834
		c1.0674,1.126,2.5713,1.6895,4.5117,1.6895c1.2759,0,2.4639-0.1201,3.5645-0.3613s2.2822-0.6416,3.5449-1.2012v3.7305
		c-1.1201,0.5342-2.2529,0.9111-3.3984,1.1328C573.9546,994.2803,572.646,994.3906,571.1748,994.3906z M570.335,975.4844
		c-1.4585,0-2.627,0.4619-3.5059,1.3867s-1.4033,2.2725-1.5723,4.043h9.8047c-0.0264-1.7842-0.4561-3.1348-1.2891-4.0527
		C572.939,975.9434,571.793,975.4844,570.335,975.4844z"/>
	<path fill="#4B5666" d="M595.7451,972.0078c0.9248,0,1.6865,0.0654,2.2852,0.1953l-0.4492,4.2773
		c-0.6514-0.1563-1.3281-0.2344-2.0313-0.2344c-1.8359,0-3.3232,0.5986-4.4629,1.7969s-1.709,2.7539-1.709,4.668V994h-4.5898
		v-21.6016h3.5938l0.6055,3.8086h0.2344c0.7158-1.2891,1.6504-2.3115,2.8027-3.0664S594.417,972.0078,595.7451,972.0078z"/>
	<path fill="#4B5666" d="M627.6592,994l-0.6445-2.832h-0.2344c-0.6377,1.0029-1.5459,1.79-2.7246,2.3633
		s-2.5225,0.8594-4.0332,0.8594c-2.6172,0-4.5703-0.6514-5.8594-1.9531s-1.9336-3.2744-1.9336-5.918v-14.1211h4.6289v13.3203
		c0,1.6533,0.3389,2.8936,1.0156,3.7207s1.7383,1.2402,3.1836,1.2402c1.9268,0,3.3428-0.5762,4.248-1.7285
		s1.3574-3.083,1.3574-5.791v-10.7617h4.6094V994H627.6592z"/>
	<path fill="#4B5666" d="M656.8193,994H652.21v-13.2813c0-1.667-0.335-2.9102-1.0059-3.7305s-1.7354-1.2305-3.1934-1.2305
		c-1.9404,0-3.3594,0.5732-4.2578,1.7188s-1.3477,3.0664-1.3477,5.7617V994h-4.5898v-21.6016h3.5938l0.6445,2.832h0.2344
		c0.6514-1.0283,1.5752-1.8232,2.7734-2.3828s2.5264-0.8398,3.9844-0.8398c5.1826,0,7.7734,2.6367,7.7734,7.9102V994z"/>
	<path fill="#4B5666" d="M439.6318,1042.3906c-3.3594,0-5.9863-0.9795-7.8809-2.9395s-2.8418-4.6582-2.8418-8.0957
		c0-3.5283,0.8789-6.3018,2.6367-8.3203s4.1729-3.0273,7.2461-3.0273c2.8516,0,5.104,0.8662,6.7578,2.5977
		c1.6533,1.7314,2.4805,4.1143,2.4805,7.1484v2.4805h-14.3945c0.0649,2.0967,0.6313,3.708,1.6992,4.834
		c1.0674,1.126,2.5713,1.6895,4.5117,1.6895c1.2759,0,2.4639-0.1201,3.5645-0.3613c1.1001-0.2412,2.2817-0.6416,3.5449-1.2012
		v3.7305c-1.1201,0.5342-2.2529,0.9111-3.3984,1.1328C442.4116,1042.2803,441.103,1042.3906,439.6318,1042.3906z M438.792,1023.4844
		c-1.4585,0-2.627,0.4619-3.5059,1.3867s-1.4033,2.2725-1.5723,4.043h9.8047c-0.0264-1.7842-0.4561-3.1348-1.2891-4.0527
		C441.396,1023.9434,440.25,1023.4844,438.792,1023.4844z"/>
	<path fill="#4B5666" d="M472.249,1042h-4.6094v-13.2813c0-1.667-0.3354-2.9102-1.0059-3.7305
		c-0.6709-0.8203-1.7354-1.2305-3.1934-1.2305c-1.9404,0-3.3594,0.5732-4.2578,1.7188s-1.3477,3.0664-1.3477,5.7617V1042h-4.5898
		v-21.6016h3.5938l0.6445,2.832h0.2344c0.6509-1.0283,1.5752-1.8232,2.7734-2.3828c1.1978-0.5596,2.5259-0.8398,3.9844-0.8398
		c5.1821,0,7.7734,2.6367,7.7734,7.9102V1042z"/>
	<path fill="#4B5666" d="M483.5576,1042l-8.2031-21.6016h4.8438l4.3945,12.5586c0.7549,2.1094,1.2109,3.8154,1.3672,5.1172h0.1563
		c0.1172-0.9375,0.5728-2.6436,1.3672-5.1172l4.3945-12.5586h4.8828L488.5186,1042H483.5576z"/>
	<path fill="#4B5666" d="M499.7686,1014.6758c0-0.8203,0.2246-1.4521,0.6738-1.8945s1.0903-0.6641,1.9238-0.6641
		c0.8071,0,1.4355,0.2217,1.8848,0.6641s0.6738,1.0742,0.6738,1.8945c0,0.7813-0.2246,1.3965-0.6738,1.8457
		s-1.0776,0.6738-1.8848,0.6738c-0.8335,0-1.4746-0.2246-1.9238-0.6738S499.7686,1015.457,499.7686,1014.6758z M504.6318,1042
		h-4.5898v-21.6016h4.5898V1042z"/>
	<path fill="#4B5666" d="M522.1514,1020.0078c0.9243,0,1.686,0.0654,2.2852,0.1953l-0.4492,4.2773
		c-0.6514-0.1563-1.3281-0.2344-2.0313-0.2344c-1.8359,0-3.3237,0.5986-4.4629,1.7969c-1.1396,1.1982-1.709,2.7539-1.709,4.668V1042
		h-4.5898v-21.6016h3.5938l0.6055,3.8086h0.2344c0.7158-1.2891,1.6504-2.3115,2.8027-3.0664S520.8232,1020.0078,522.1514,1020.0078z
		"/>
	<path fill="#4B5666" d="M547.6006,1031.1602c0,3.5283-0.9053,6.2822-2.7148,8.2617c-1.8101,1.9795-4.3296,2.9688-7.5586,2.9688
		c-2.0186,0-3.8022-0.4561-5.3516-1.3672c-1.5498-0.9111-2.7412-2.2197-3.5742-3.9258c-0.8335-1.7061-1.25-3.6846-1.25-5.9375
		c0-3.5029,0.8984-6.2373,2.6953-8.2031s4.3291-2.9492,7.5977-2.9492c3.125,0,5.5986,1.0059,7.4219,3.0176
		C546.689,1025.0371,547.6006,1027.749,547.6006,1031.1602z M531.8779,1031.1602c0,4.9873,1.8423,7.4805,5.5273,7.4805
		c3.6455,0,5.4688-2.4932,5.4688-7.4805c0-4.9346-1.8359-7.4023-5.5078-7.4023c-1.9272,0-3.3237,0.6377-4.1895,1.9141
		C532.3105,1026.9482,531.8779,1028.7773,531.8779,1031.1602z"/>
	<path fill="#4B5666" d="M571.8779,1042h-4.6094v-13.2813c0-1.667-0.3354-2.9102-1.0059-3.7305
		c-0.6709-0.8203-1.7354-1.2305-3.1934-1.2305c-1.9404,0-3.3594,0.5732-4.2578,1.7188s-1.3477,3.0664-1.3477,5.7617V1042h-4.5898
		v-21.6016h3.5938l0.6445,2.832h0.2344c0.6509-1.0283,1.5752-1.8232,2.7734-2.3828c1.1978-0.5596,2.5259-0.8398,3.9844-0.8398
		c5.1821,0,7.7734,2.6367,7.7734,7.9102V1042z"/>
	<path fill="#4B5666" d="M597.2686,1042h-4.6094v-13.2813c0-1.667-0.335-2.9102-1.0059-3.7305s-1.7354-1.2305-3.1934-1.2305
		c-1.9404,0-3.3594,0.5732-4.2578,1.7188s-1.3477,3.0664-1.3477,5.7617V1042h-4.5898v-21.6016h3.5938l0.6445,2.832h0.2344
		c0.6514-1.0283,1.5752-1.8232,2.7734-2.3828s2.5264-0.8398,3.9844-0.8398c5.1826,0,7.7734,2.6367,7.7734,7.9102V1042z"/>
	<path fill="#4B5666" d="M613.0889,1042.3906c-3.3594,0-5.9863-0.9795-7.8809-2.9395s-2.8418-4.6582-2.8418-8.0957
		c0-3.5283,0.8789-6.3018,2.6367-8.3203s4.1729-3.0273,7.2461-3.0273c2.8516,0,5.1045,0.8662,6.7578,2.5977
		s2.4805,4.1143,2.4805,7.1484v2.4805h-14.3945c0.0654,2.0967,0.6318,3.708,1.6992,4.834s2.5713,1.6895,4.5117,1.6895
		c1.2764,0,2.4639-0.1201,3.5645-0.3613s2.2822-0.6416,3.5449-1.2012v3.7305c-1.1201,0.5342-2.2529,0.9111-3.3984,1.1328
		S614.5605,1042.3906,613.0889,1042.3906z M612.249,1023.4844c-1.458,0-2.627,0.4619-3.5059,1.3867s-1.4033,2.2725-1.5723,4.043
		h9.8047c-0.0264-1.7842-0.4561-3.1348-1.2891-4.0527S613.707,1023.4844,612.249,1023.4844z"/>
	<path fill="#4B5666" d="M644.9053,1042h-4.6094v-13.3203c0-1.6533-0.3125-2.8877-0.9375-3.7012s-1.6016-1.2207-2.9297-1.2207
		c-1.7705,0-3.0693,0.5762-3.8965,1.7285s-1.2402,3.0693-1.2402,5.752V1042h-4.5898v-21.6016h3.5938l0.6445,2.832h0.2344
		c0.5986-1.0283,1.4678-1.8232,2.6074-2.3828s2.3926-0.8398,3.7598-0.8398c3.3203,0,5.5205,1.1328,6.6016,3.3984h0.3125
		c0.6377-1.0674,1.5361-1.9014,2.6953-2.5s2.4873-0.8984,3.9844-0.8984c2.5781,0,4.4561,0.6514,5.6348,1.9531
		s1.7676,3.2881,1.7676,5.957V1042h-4.5898v-13.3203c0-1.6533-0.3154-2.8877-0.9473-3.7012s-1.6113-1.2207-2.9395-1.2207
		c-1.7842,0-3.0889,0.5566-3.916,1.6699s-1.2402,2.8223-1.2402,5.127V1042z"/>
	<path fill="#4B5666" d="M674.3779,1042.3906c-3.3594,0-5.9863-0.9795-7.8809-2.9395s-2.8418-4.6582-2.8418-8.0957
		c0-3.5283,0.8789-6.3018,2.6367-8.3203s4.1729-3.0273,7.2461-3.0273c2.8516,0,5.1045,0.8662,6.7578,2.5977
		s2.4805,4.1143,2.4805,7.1484v2.4805h-14.3945c0.0654,2.0967,0.6318,3.708,1.6992,4.834s2.5713,1.6895,4.5117,1.6895
		c1.2764,0,2.4639-0.1201,3.5645-0.3613s2.2822-0.6416,3.5449-1.2012v3.7305c-1.1201,0.5342-2.2529,0.9111-3.3984,1.1328
		S675.8496,1042.3906,674.3779,1042.3906z M673.5381,1023.4844c-1.458,0-2.627,0.4619-3.5059,1.3867s-1.4033,2.2725-1.5723,4.043
		h9.8047c-0.0264-1.7842-0.4561-3.1348-1.2891-4.0527S674.9961,1023.4844,673.5381,1023.4844z"/>
	<path fill="#4B5666" d="M706.9951,1042h-4.6094v-13.2813c0-1.667-0.335-2.9102-1.0059-3.7305s-1.7354-1.2305-3.1934-1.2305
		c-1.9404,0-3.3594,0.5732-4.2578,1.7188s-1.3477,3.0664-1.3477,5.7617V1042h-4.5898v-21.6016h3.5938l0.6445,2.832h0.2344
		c0.6514-1.0283,1.5752-1.8232,2.7734-2.3828s2.5264-0.8398,3.9844-0.8398c5.1826,0,7.7734,2.6367,7.7734,7.9102V1042z"/>
	<path fill="#4B5666" d="M721.4287,1038.6797c1.1201,0,2.2393-0.1758,3.3594-0.5273v3.457
		c-0.5078,0.2217-1.1621,0.4072-1.9629,0.5566s-1.6309,0.2246-2.4902,0.2246c-4.3486,0-6.5234-2.292-6.5234-6.875v-11.6406h-2.9492
		v-2.0313l3.1641-1.6797l1.5625-4.5703h2.832v4.8047h6.1523v3.4766h-6.1523v11.5625c0,1.1064,0.2764,1.9238,0.8301,2.4512
		S720.5303,1038.6797,721.4287,1038.6797z"/>
	<path fill="#4B5666" d="M551.585,1083.8477c0,2.1094-0.7686,3.7275-2.3047,4.8535c-1.5366,1.126-3.7373,1.6895-6.6016,1.6895
		c-2.8779,0-5.189-0.4365-6.9336-1.3086v-3.9648c2.5391,1.1719,4.9023,1.7578,7.0898,1.7578c2.8252,0,4.2383-0.8525,4.2383-2.5586
		c0-0.5469-0.1563-1.0029-0.4688-1.3672s-0.8271-0.7422-1.543-1.1328c-0.7163-0.3906-1.7124-0.833-2.9883-1.3281
		c-2.4873-0.9639-4.1699-1.9268-5.0488-2.8906s-1.3184-2.2139-1.3184-3.75c0-1.8486,0.7451-3.2842,2.2363-4.3066
		c1.4907-1.0225,3.5186-1.5332,6.084-1.5332c2.5391,0,4.9414,0.5146,7.207,1.543l-1.4844,3.457
		c-2.3311-0.9639-4.2905-1.4453-5.8789-1.4453c-2.4219,0-3.6328,0.6904-3.6328,2.0703c0,0.6768,0.3154,1.25,0.9473,1.7188
		c0.6313,0.4688,2.0083,1.1133,4.1309,1.9336c1.7837,0.6904,3.0791,1.3213,3.8867,1.8945c0.8071,0.5732,1.4063,1.2334,1.7969,1.9824
		S551.585,1082.8057,551.585,1083.8477z"/>
	<path fill="#4B5666" d="M571.7803,1090l-0.6445-2.832h-0.2344c-0.6382,1.0029-1.5464,1.79-2.7246,2.3633
		c-1.1787,0.5732-2.5229,0.8594-4.0332,0.8594c-2.6172,0-4.5703-0.6514-5.8594-1.9531s-1.9336-3.2744-1.9336-5.918v-14.1211h4.6289
		v13.3203c0,1.6533,0.3384,2.8936,1.0156,3.7207c0.6768,0.8271,1.7383,1.2402,3.1836,1.2402c1.9268,0,3.3428-0.5762,4.248-1.7285
		c0.9048-1.1523,1.3574-3.083,1.3574-5.791v-10.7617h4.6094V1090H571.7803z M570.2764,1065.7617
		c-1.6016-0.9502-3.0859-2.1221-4.4531-3.5156c-1.3413,1.3408-2.8062,2.5127-4.3945,3.5156h-3.0859v-0.4883
		c2.4868-2.5781,4.1406-4.5508,4.9609-5.918h5.0781c0.8203,1.4326,2.4868,3.4053,5,5.918v0.4883H570.2764z"/>
	<path fill="#4B5666" d="M592.8936,1068.0078c0.9248,0,1.6865,0.0654,2.2852,0.1953l-0.4492,4.2773
		c-0.6514-0.1563-1.3281-0.2344-2.0313-0.2344c-1.8359,0-3.3232,0.5986-4.4629,1.7969s-1.709,2.7539-1.709,4.668V1090h-4.5898
		v-21.6016h3.5938l0.6055,3.8086h0.2344c0.7158-1.2891,1.6504-2.3115,2.8027-3.0664S591.5654,1068.0078,592.8936,1068.0078z"/>
	<path fill="#4B5666" d="M608.6162,1090.3906c-3.3594,0-5.9863-0.9795-7.8809-2.9395s-2.8418-4.6582-2.8418-8.0957
		c0-3.5283,0.8789-6.3018,2.6367-8.3203s4.1729-3.0273,7.2461-3.0273c2.8516,0,5.1045,0.8662,6.7578,2.5977
		s2.4805,4.1143,2.4805,7.1484v2.4805h-14.3945c0.0654,2.0967,0.6318,3.708,1.6992,4.834s2.5713,1.6895,4.5117,1.6895
		c1.2764,0,2.4639-0.1201,3.5645-0.3613s2.2822-0.6416,3.5449-1.2012v3.7305c-1.1201,0.5342-2.2529,0.9111-3.3984,1.1328
		S610.0879,1090.3906,608.6162,1090.3906z M607.7764,1071.4844c-1.458,0-2.627,0.4619-3.5059,1.3867s-1.4033,2.2725-1.5723,4.043
		h9.8047c-0.0264-1.7842-0.4561-3.1348-1.2891-4.0527S609.2344,1071.4844,607.7764,1071.4844z"/>
</g>
</svg>
