<?xml version="1.0" encoding="utf-8"?>
<!-- Generator: Adobe Illustrator 15.0.0, SVG Export Plug-In . SVG Version: 6.00 Build 0)  -->
<!DOCTYPE svg PUBLIC "-//W3C//DTD SVG 1.1//EN" "http://www.w3.org/Graphics/SVG/1.1/DTD/svg11.dtd">
<svg version="1.1" id="Layer_1" xmlns="http://www.w3.org/2000/svg" xmlns:xlink="http://www.w3.org/1999/xlink" x="0px" y="0px"
	 width="1152px" height="1152.001px" viewBox="0 0 1152 1152.001" enable-background="new 0 0 1152 1152.001" xml:space="preserve">
<circle fill="#4B5666" cx="576" cy="576" r="576"/>
<g>
	<path fill="#FBD35C" d="M188.2964,188.29c214.2964-214.2959,561.1108-214.293,775.4106,0.0078L576.0049,575.999L188.2964,188.29z"
		/>
</g>
<g>
	<path fill="#A4D970" d="M963.71,188.293c214.2979,214.2979,214.293,561.1104-0.0068,775.4092L576.002,576.001L963.71,188.293z"/>
</g>
<g>
	<path fill="#9EBEED" d="M963.7031,963.709c-214.2959,214.2988-561.1104,214.293-775.4102-0.0068L575.9951,576.001L963.7031,963.709
		z"/>
</g>
<g>
	<path fill="#FA7977" d="M188.2896,963.707c-214.2959-214.2979-214.2925-561.1104,0.0068-775.4092L575.999,575.999L188.2896,963.707
		z"/>
</g>
<circle fill="#4B5666" cx="576" cy="576" r="180"/>
<g>
	<path fill="#FFFFFF" d="M466.7227,560.9141l-15.0771-39.3945h-0.2432c0.2842,3.1211,0.4258,6.8301,0.4258,11.126v28.2686h-4.7725
		v-44.4404h7.7822l14.0732,36.6592h0.2432l14.1953-36.6592h7.7207v44.4404h-5.167v-28.6338c0-3.2832,0.1416-6.8496,0.4258-10.6992
		h-0.2432l-15.1992,39.333H466.7227z"/>
	<path fill="#FFFFFF" d="M541.833,538.6328c0,7.1133-1.7988,12.7061-5.3955,16.7793c-3.5977,4.0732-8.5977,6.1104-15.001,6.1104
		c-6.5459,0-11.5967-2.001-15.1533-6.0039c-3.5557-4.002-5.334-9.6514-5.334-16.9463c0-7.2344,1.7832-12.8428,5.3496-16.8242
		c3.5664-3.9824,8.6328-5.9736,15.1982-5.9736c6.3838,0,11.3682,2.0273,14.9551,6.0801S541.833,531.5,541.833,538.6328z
		 M506.4209,538.6328c0,6.0186,1.2812,10.584,3.8447,13.6943s6.2871,4.666,11.1709,4.666c4.9238,0,8.6426-1.5508,11.1553-4.6514
		c2.5127-3.0996,3.7695-7.6699,3.7695-13.709c0-5.9775-1.252-10.5117-3.7539-13.6025c-2.5029-3.0898-6.2061-4.6348-11.1104-4.6348
		c-4.9238,0-8.668,1.5547-11.2314,4.666C507.7021,528.1719,506.4209,532.6963,506.4209,538.6328z"/>
	<path fill="#FFFFFF" d="M587.2158,538.2686c0,7.3359-1.9912,12.9443-5.9736,16.8242c-3.9814,3.8809-9.7109,5.8213-17.1885,5.8213
		h-12.3115v-44.4404h13.6182c6.9102,0,12.2803,1.915,16.1104,5.7451S587.2158,531.3984,587.2158,538.2686z M581.7441,538.4512
		c0-5.7959-1.4541-10.1631-4.3623-13.1016c-2.9082-2.9375-7.2295-4.4072-12.9639-4.4072h-7.5078v35.5029h6.292
		c6.1602,0,10.791-1.5146,13.8916-4.5439S581.7441,544.3887,581.7441,538.4512z"/>
	<path fill="#FFFFFF" d="M621.8975,560.9141H597.124v-44.4404h24.7734v4.5898H602.292v14.3174h18.4199v4.5596H602.292v16.3535
		h19.6055V560.9141z"/>
	<path fill="#FFFFFF" d="M636.9141,542.4326v18.4814h-5.168v-44.4404h12.1895c5.4512,0,9.4785,1.0439,12.083,3.1309
		c2.6035,2.0879,3.9053,5.2285,3.9053,9.4238c0,5.877-2.9785,9.8477-8.9365,11.915l12.0674,19.9707h-6.1094l-10.7607-18.4814
		H636.9141z M636.9141,537.9951h7.082c3.6475,0,6.3232-0.7246,8.0254-2.1738c1.7021-1.4482,2.5527-3.6221,2.5527-6.5195
		c0-2.9385-0.8662-5.0557-2.5986-6.3535c-1.7324-1.2959-4.5137-1.9453-8.3438-1.9453h-6.7178V537.9951z"/>
	<path fill="#FFFFFF" d="M704.9424,560.9141h-5.8975l-24.2871-37.2969h-0.2432c0.3242,4.377,0.4863,8.3896,0.4863,12.0371v25.2598
		h-4.7725v-44.4404h5.8369l24.2256,37.1455h0.2432c-0.041-0.5479-0.1318-2.3057-0.2734-5.2744
		c-0.1416-2.9678-0.1924-5.0908-0.1514-6.3682v-25.5029h4.833V560.9141z"/>
	<path fill="#FFFFFF" d="M525.54,635.6172l-5.5322-14.1348h-17.8125l-5.4707,14.1348h-5.2285l17.5693-44.6221h4.3467
		l17.4785,44.6221H525.54z M518.3975,616.832l-5.168-13.7695c-0.668-1.7432-1.3574-3.8809-2.0664-6.4141
		c-0.4463,1.9453-1.085,4.084-1.915,6.4141l-5.2285,13.7695H518.3975z"/>
	<path fill="#FFFFFF" d="M556.5459,612.333h15.1064v21.6123c-2.3506,0.75-4.7412,1.3174-7.1729,1.7021
		c-2.4326,0.3848-5.249,0.5781-8.4512,0.5781c-6.7275,0-11.9658-2.001-15.7148-6.0039c-3.749-4.002-5.623-9.6104-5.623-16.8242
		c0-4.6201,0.9268-8.668,2.7812-12.1436s4.5234-6.1299,8.0098-7.9639c3.4844-1.834,7.5684-2.751,12.249-2.751
		c4.7422,0,9.1602,0.8711,13.2539,2.6143l-2.0068,4.5596c-4.0117-1.7031-7.8721-2.5537-11.5811-2.5537
		c-5.4102,0-9.6357,1.6113-12.6758,4.833c-3.0391,3.2217-4.5586,7.6904-4.5586,13.4053c0,5.998,1.4629,10.5479,4.3916,13.6475
		c2.9287,3.1006,7.2295,4.6514,12.9033,4.6514c3.0801,0,6.0898-0.3545,9.0283-1.0645v-13.6787h-9.9395V612.333z"/>
	<path fill="#FFFFFF" d="M582.3213,635.6172v-44.4404h5.168v44.4404H582.3213z"/>
	<path fill="#FFFFFF" d="M599.6777,635.6172v-44.4404h5.168v39.7598h19.6055v4.6807H599.6777z"/>
	<path fill="#FFFFFF" d="M656.7627,635.6172h-24.7734v-44.4404h24.7734v4.5898h-19.6055v14.3174h18.4199v4.5596h-18.4199v16.3535
		h19.6055V635.6172z"/>
</g>
<g>
	<path fill="#4B5666" d="M515.6992,199.8467c1.7598-0.3193,4.3193-0.5596,6.6797-0.5596c3.7188,0,6.1582,0.7197,7.7979,2.1992
		c1.3203,1.2002,2.1201,3.04,2.1201,5.1592c0,3.5195-2.2393,5.8789-5.0391,6.8389v0.1201c2.04,0.7197,3.2793,2.6396,3.9189,5.4395
		c0.8799,3.7588,1.5205,6.3584,2.0801,7.3984h-3.5996c-0.4395-0.7998-1.04-3.0791-1.7598-6.4385
		c-0.7998-3.7197-2.2793-5.1191-5.4385-5.2393h-3.2803v11.6777h-3.4795V199.8467z M519.1787,212.125h3.5596
		c3.7197,0,6.0791-2.04,6.0791-5.1191c0-3.4795-2.5195-4.999-6.1992-4.999c-1.6797,0-2.8389,0.1191-3.4395,0.2793V212.125z"/>
	<path fill="#4B5666" d="M551.1768,221.8027c0,1.6797,0.0801,3.3203,0.2793,4.6396h-3.1592l-0.2803-2.4395h-0.1201
		c-1.0791,1.5195-3.1592,2.8789-5.9189,2.8789c-3.9189,0-5.9189-2.7588-5.9189-5.5586c0-4.6797,4.1592-7.2393,11.6387-7.1992
		v-0.3994c0-1.5596-0.4404-4.4795-4.3994-4.4395c-1.8398,0-3.7197,0.5205-5.0791,1.4395l-0.7998-2.3594
		c1.5996-1,3.959-1.6797,6.3984-1.6797c5.9189,0,7.3594,4.0391,7.3594,7.8789V221.8027z M547.7773,216.5645
		c-3.8398-0.0801-8.1992,0.5996-8.1992,4.3584c0,2.3203,1.5195,3.3604,3.2793,3.3604c2.5596,0,4.1992-1.6006,4.7598-3.2402
		c0.1201-0.3994,0.1602-0.7998,0.1602-1.1191V216.5645z"/>
	<path fill="#4B5666" d="M554.6592,224.4023l8.7188-11.3975c0.8799-1.0801,1.6797-2,2.5596-3.04v-0.0801H555.459v-2.7988h14.7178
		v2.1992l-8.6387,11.2383c-0.8398,1.0801-1.5996,2.0791-2.4795,3.0391v0.0801h11.2783v2.7998h-15.6777V224.4023z"/>
	<path fill="#4B5666" d="M576.2979,207.0859l3.7998,10.8379c0.6396,1.7998,1.1592,3.3994,1.5596,4.999h0.1201
		c0.4395-1.5996,0.999-3.1992,1.6396-4.999l3.7588-10.8379h3.6797l-7.5986,19.3564h-3.3594l-7.3594-19.3564H576.2979z"/>
	<path fill="#4B5666" d="M598.0967,201.6465c0,1.2002-0.8398,2.1602-2.2393,2.1602c-1.2803,0-2.1201-0.96-2.1201-2.1602
		s0.8799-2.1992,2.2002-2.1992C597.2168,199.4473,598.0967,200.4072,598.0967,201.6465z M594.1777,226.4424v-19.3564h3.5186v19.3564
		H594.1777z"/>
	<path fill="#4B5666" d="M598.7783,232.1211c1.6396-0.1201,3-0.5596,3.8398-1.5195c0.96-1.0801,1.3594-2.5996,1.3594-7.2383
		v-16.2773h3.5195v17.6367c0,3.7598-0.5996,6.1992-2.3193,7.959c-1.5605,1.5596-4.1201,2.1992-5.999,2.1992L598.7783,232.1211z
		 M607.8965,201.6465c0,1.1602-0.7998,2.1602-2.2393,2.1602c-1.2793,0-2.1191-1-2.1191-2.1602c0-1.2002,0.8799-2.1992,2.1992-2.1992
		S607.8965,200.4463,607.8965,201.6465z"/>
	<path fill="#4B5666" d="M626.8555,221.8027c0,1.6797,0.0801,3.3203,0.2793,4.6396h-3.1592l-0.2803-2.4395h-0.1201
		c-1.0791,1.5195-3.1592,2.8789-5.9189,2.8789c-3.9189,0-5.9189-2.7588-5.9189-5.5586c0-4.6797,4.1592-7.2393,11.6387-7.1992
		v-0.3994c0-1.5596-0.4404-4.4795-4.3994-4.4395c-1.8398,0-3.7197,0.5205-5.0791,1.4395l-0.7998-2.3594
		c1.5996-1,3.959-1.6797,6.3984-1.6797c5.9189,0,7.3594,4.0391,7.3594,7.8789V221.8027z M623.4561,216.5645
		c-3.8398-0.0801-8.1992,0.5996-8.1992,4.3584c0,2.3203,1.5195,3.3604,3.2793,3.3604c2.5596,0,4.1992-1.6006,4.7598-3.2402
		c0.1201-0.3994,0.1602-0.7998,0.1602-1.1191V216.5645z"/>
	<path fill="#4B5666" d="M627.7773,232.1211c1.6396-0.1201,3-0.5596,3.8398-1.5195c0.96-1.0801,1.3594-2.5996,1.3594-7.2383
		v-16.2773h3.5195v17.6367c0,3.7598-0.5996,6.1992-2.3193,7.959c-1.5605,1.5596-4.1201,2.1992-5.999,2.1992L627.7773,232.1211z
		 M636.8955,201.6465c0,1.1602-0.7998,2.1602-2.2393,2.1602c-1.2793,0-2.1191-1-2.1191-2.1602c0-1.2002,0.8799-2.1992,2.1992-2.1992
		S636.8955,200.4463,636.8955,201.6465z"/>
	<path fill="#4B5666" d="M508.4189,249.6465c0,1.2002-0.8398,2.1602-2.2393,2.1602c-1.2803,0-2.1201-0.96-2.1201-2.1602
		s0.8799-2.1992,2.2002-2.1992C507.5391,247.4473,508.4189,248.4072,508.4189,249.6465z M504.5,274.4424v-19.3564h3.5186v19.3564
		H504.5z"/>
	<path fill="#4B5666" d="M511.6592,272.4023l8.7188-11.3975c0.8799-1.0801,1.6797-2,2.5596-3.04v-0.0801H512.459v-2.7988h14.7178
		v2.1992l-8.6387,11.2383c-0.8398,1.0801-1.5996,2.0791-2.4795,3.0391v0.0801h11.2783v2.7998h-15.6777V272.4023z"/>
	<path fill="#4B5666" d="M533.2979,255.0859l3.7998,10.8379c0.6396,1.7998,1.1592,3.3994,1.5596,4.999h0.1201
		c0.4395-1.5996,0.999-3.1992,1.6396-4.999l3.7588-10.8379h3.6797l-7.5986,19.3564h-3.3594l-7.3594-19.3564H533.2979z"/>
	<path fill="#4B5666" d="M551.1787,261.125c0-2.2803-0.04-4.2393-0.1602-6.0391h3.0791l0.1602,3.8389h0.1201
		c0.8799-2.5996,3.0391-4.2393,5.3984-4.2393c0.3604,0,0.6406,0.04,0.96,0.0801v3.3193c-0.3594-0.0801-0.7197-0.0801-1.1992-0.0801
		c-2.4795,0-4.2393,1.8398-4.7197,4.4795c-0.0801,0.4795-0.1201,1.0801-0.1201,1.6396v10.3184h-3.5186V261.125z"/>
	<path fill="#4B5666" d="M563.7783,270.8828c1.0801,0.6396,2.9199,1.3604,4.6797,1.3604c2.5195,0,3.7188-1.2402,3.7188-2.8799
		c0-1.6797-1-2.5596-3.5596-3.5195c-3.5186-1.2793-5.1582-3.1592-5.1582-5.4795c0-3.1191,2.5596-5.6787,6.6787-5.6787
		c1.959,0,3.6787,0.5205,4.7188,1.2002l-0.8398,2.5596c-0.7598-0.4805-2.1592-1.1602-3.959-1.1602
		c-2.0801,0-3.1992,1.2002-3.1992,2.6396c0,1.5996,1.1191,2.3193,3.6387,3.3193c3.3193,1.2402,5.0791,2.9199,5.0791,5.7988
		c0,3.4395-2.6797,5.8389-7.1982,5.8389c-2.1201,0-4.0791-0.5596-5.4395-1.3594L563.7783,270.8828z"/>
	<path fill="#4B5666" d="M580.0986,260.3252c0-2.04-0.04-3.6396-0.1602-5.2393h3.1191l0.2002,3.1992h0.0801
		c0.96-1.7998,3.1992-3.5996,6.3984-3.5996c2.6797,0,6.8389,1.5996,6.8389,8.2393v11.5176h-3.5195v-11.1582
		c0-3.1191-1.1592-5.7188-4.4785-5.7188c-2.2803,0-4.0801,1.6396-4.7197,3.5996c-0.1602,0.4395-0.2402,1.0391-0.2402,1.6396v11.6377
		h-3.5186V260.3252z"/>
	<path fill="#4B5666" d="M619.8145,264.6045c0,7.1582-4.999,10.2773-9.6387,10.2773c-5.1992,0-9.2783-3.8389-9.2783-9.958
		c0-6.4385,4.2793-10.2383,9.5986-10.2383C616.0547,254.6855,619.8145,258.7246,619.8145,264.6045z M604.4971,264.8037
		c0,4.2393,2.3994,7.4395,5.8389,7.4395c3.3594,0,5.8789-3.1602,5.8789-7.5195c0-3.2793-1.6396-7.3984-5.7988-7.3984
		C606.2969,257.3252,604.4971,261.165,604.4971,264.8037z"/>
	<path fill="#4B5666" d="M623.7773,270.8828c1.0801,0.6396,2.9199,1.3604,4.6797,1.3604c2.5195,0,3.7188-1.2402,3.7188-2.8799
		c0-1.6797-1-2.5596-3.5596-3.5195c-3.5186-1.2793-5.1582-3.1592-5.1582-5.4795c0-3.1191,2.5596-5.6787,6.6787-5.6787
		c1.959,0,3.6787,0.5205,4.7188,1.2002l-0.8398,2.5596c-0.7598-0.4805-2.1592-1.1602-3.959-1.1602
		c-2.0801,0-3.1992,1.2002-3.1992,2.6396c0,1.5996,1.1191,2.3193,3.6387,3.3193c3.3193,1.2402,5.0791,2.9199,5.0791,5.7988
		c0,3.4395-2.6797,5.8389-7.1982,5.8389c-2.1201,0-4.0791-0.5596-5.4395-1.3594L623.7773,270.8828z"/>
	<path fill="#4B5666" d="M644.3369,250.4463v4.6396h5.0391v2.6797h-5.0391v10.4375c0,2.3994,0.6797,3.7598,2.6396,3.7598
		c0.959,0,1.5195-0.0801,2.0391-0.2402l0.1602,2.6797c-0.6797,0.2402-1.7598,0.4795-3.1191,0.4795
		c-1.6396,0-2.96-0.5596-3.7998-1.4795c-0.96-1.0801-1.3594-2.7998-1.3594-5.0791v-10.5576h-3v-2.6797h3v-3.5996L644.3369,250.4463z
		"/>
	<path fill="#4B5666" d="M513.1982,311.9639h0.0801c0.4805-0.6797,1.1201-1.5195,1.6797-2.1992l5.7197-6.6787h4.1992l-7.4385,7.958
		l8.5186,11.3984h-4.3193l-6.6396-9.2783l-1.7998,2v7.2783h-3.4785v-28.3955h3.4785V311.9639z"/>
	<path fill="#4B5666" d="M545.9961,312.6045c0,7.1582-4.999,10.2773-9.6387,10.2773c-5.1992,0-9.2783-3.8389-9.2783-9.958
		c0-6.4385,4.2793-10.2383,9.5986-10.2383C542.2363,302.6855,545.9961,306.7246,545.9961,312.6045z M530.6787,312.8037
		c0,4.2393,2.3994,7.4395,5.8389,7.4395c3.3594,0,5.8789-3.1602,5.8789-7.5195c0-3.2793-1.6396-7.3984-5.7988-7.3984
		C532.4785,305.3252,530.6787,309.165,530.6787,312.8037z"/>
	<path fill="#4B5666" d="M567.1162,294.0469v23.3965c0,1.7197,0.0801,3.6797,0.1602,4.999h-3.1191l-0.1602-3.3594h-0.1201
		c-1.04,2.1592-3.3594,3.7988-6.5195,3.7988c-4.6787,0-8.3184-3.959-8.3184-9.8379c-0.04-6.4385,4-10.3584,8.6787-10.3584
		c3,0,4.959,1.4004,5.8389,2.9199h0.0801v-11.5586H567.1162z M563.6367,310.9639c0-0.4395-0.04-1.0391-0.1602-1.4795
		c-0.5195-2.1992-2.4395-4.0391-5.0791-4.0391c-3.6387,0-5.7988,3.1992-5.7988,7.4385c0,3.9199,1.96,7.1592,5.7188,7.1592
		c2.3604,0,4.5195-1.5996,5.1592-4.1992c0.1201-0.4805,0.1602-0.96,0.1602-1.5195V310.9639z"/>
	<path fill="#4B5666" d="M580.998,318.8828c1.0801,0.6396,2.9199,1.3604,4.6797,1.3604c2.5195,0,3.7188-1.2402,3.7188-2.8799
		c0-1.6797-1-2.5596-3.5596-3.5195c-3.5186-1.2793-5.1582-3.1592-5.1582-5.4795c0-3.1191,2.5596-5.6787,6.6787-5.6787
		c1.959,0,3.6787,0.5205,4.7188,1.2002l-0.8398,2.5596c-0.7598-0.4805-2.1592-1.1602-3.959-1.1602
		c-2.0801,0-3.1992,1.2002-3.1992,2.6396c0,1.5996,1.1191,2.3193,3.6387,3.3193c3.3193,1.2402,5.0791,2.9199,5.0791,5.7988
		c0,3.4395-2.6797,5.8389-7.1982,5.8389c-2.1201,0-4.0791-0.5596-5.4395-1.3594L580.998,318.8828z"/>
	<path fill="#4B5666" d="M598.6777,303.0859l3.7998,10.8379c0.6396,1.7998,1.1592,3.3994,1.5596,4.999h0.1201
		c0.4395-1.5996,0.999-3.1992,1.6396-4.999l3.7588-10.8379h3.6797l-7.5986,19.3564h-3.3594l-7.3594-19.3564H598.6777z"/>
	<path fill="#4B5666" d="M620.4766,297.6465c0,1.2002-0.8398,2.1602-2.2393,2.1602c-1.2803,0-2.1201-0.96-2.1201-2.1602
		s0.8799-2.1992,2.2002-2.1992C619.5967,295.4473,620.4766,296.4072,620.4766,297.6465z M616.5576,322.4424v-19.3564h3.5186v19.3564
		H616.5576z"/>
	<path fill="#4B5666" d="M625.918,294.0469h3.5186v12.1182h0.0801c0.5605-1,1.4404-1.9199,2.5195-2.5195
		c1.04-0.5996,2.2803-0.96,3.5996-0.96c2.5996,0,6.7588,1.5996,6.7588,8.2393v11.5176h-3.5195v-11.1182
		c0-3.1191-1.1592-5.7188-4.4785-5.7188c-2.2803,0-4.04,1.5996-4.7197,3.4795c-0.2002,0.5195-0.2402,1.0391-0.2402,1.6797v11.6777
		h-3.5186V294.0469z"/>
</g>
<path fill="#4B5666" d="M596.1172,84.4746c-7.8867,0-18.1074,4.6484-20.1182,12.4736l-0.002-0.002v0.002
	c-2.0107-7.8252-12.2305-12.4736-20.1162-12.4736c-15.5508,0-28.1631,12.0703-28.1631,28.1641
	c0,18.9355,11.1963,30.5225,23.4023,39.9258c7.3213,5.6416,23.5713,18.4102,24.8574,18.4102c0.0078,0,0.0137-0.002,0.0195-0.002
	c0.0068,0,0.0146,0.002,0.0205,0.002c1.2871,0,17.5371-12.7686,24.8584-18.4102c12.2051-9.4033,23.4043-20.9902,23.4043-39.9258
	C624.2803,96.5449,611.668,84.4746,596.1172,84.4746z M544.957,97.2129c-4.8623,3.5967-7.6523,9.2188-7.6523,15.4258
	c0,1.0234-0.8281,1.8535-1.8525,1.8535c-1.0234,0-1.8535-0.8301-1.8535-1.8535c0-7.3945,3.3359-14.1025,9.1543-18.4053
	c0.8213-0.6094,1.9814-0.4355,2.5908,0.3877S545.7783,96.6055,544.957,97.2129z"/>
<g>
	<path fill="#4B5666" d="M498.6201,950.6807c1.5596,1,3.7988,1.7598,6.1992,1.7598c3.5596,0,5.6387-1.8799,5.6387-4.5996
		c0-2.4795-1.4395-3.959-5.0791-5.3184c-4.3994-1.6006-7.1191-3.9199-7.1191-7.6787c0-4.2002,3.4795-7.3193,8.7188-7.3193
		c2.7197,0,4.7598,0.6396,5.9189,1.3203l-0.96,2.8389c-0.8398-0.5195-2.6396-1.2793-5.0791-1.2793
		c-3.6787,0-5.0791,2.1992-5.0791,4.0391c0,2.5195,1.6396,3.7598,5.3594,5.1992c4.5596,1.7598,6.8389,3.959,6.8389,7.9189
		c0,4.1592-3.0391,7.7979-9.3984,7.7979c-2.5996,0-5.4395-0.7998-6.8789-1.7588L498.6201,950.6807z"/>
	<path fill="#4B5666" d="M522.5791,930.124c0,1.2002-0.8398,2.1602-2.2393,2.1602c-1.2803,0-2.1201-0.96-2.1201-2.1602
		s0.8799-2.1992,2.2002-2.1992C521.6992,927.9248,522.5791,928.8848,522.5791,930.124z M518.6602,954.9199v-19.3564h3.5186v19.3564
		H518.6602z"/>
	<path fill="#4B5666" d="M544.5771,952.0801c0,4.4795-0.9199,7.1592-2.7598,8.8789c-1.9189,1.7197-4.6387,2.3193-7.0781,2.3193
		c-2.3203,0-4.8799-0.5596-6.4395-1.5996l0.8799-2.7197c1.2803,0.8398,3.2793,1.5596,5.6797,1.5596
		c3.5986,0,6.2383-1.8789,6.2383-6.7988v-2.1191h-0.0801c-1.0391,1.7998-3.1592,3.2393-6.1582,3.2393
		c-4.7998,0-8.2393-4.0791-8.2393-9.4385c0-6.5586,4.2793-10.2383,8.7588-10.2383c3.3594,0,5.1592,1.7197,6.0391,3.3193h0.0801
		l0.1201-2.9189h3.1191c-0.1201,1.3594-0.1602,2.959-0.1602,5.2793V952.0801z M541.0576,943.2021
		c0-0.6006-0.04-1.1201-0.1992-1.5596c-0.6406-2.0801-2.3203-3.7598-4.9199-3.7598c-3.3594,0-5.7588,2.8398-5.7588,7.3184
		c0,3.7998,1.96,6.959,5.7188,6.959c2.2002,0,4.1592-1.3594,4.8799-3.5996c0.1992-0.5996,0.2793-1.2793,0.2793-1.8789V943.2021z"/>
	<path fill="#4B5666" d="M566.5771,949.6006c0,2.04,0.04,3.7998,0.1592,5.3193h-3.1191l-0.2002-3.1592h-0.0801
		c-0.8799,1.5596-2.959,3.5986-6.3984,3.5986c-3.04,0-6.6787-1.7197-6.6787-8.4785v-11.3174h3.5195v10.6777
		c0,3.6797,1.1592,6.1992,4.3193,6.1992c2.3594,0,3.999-1.6396,4.6387-3.2393c0.2002-0.4805,0.3203-1.1201,0.3203-1.7998v-11.8379
		h3.5195V949.6006z"/>
	<path fill="#4B5666" d="M572.4189,941.6025c0-2.2803-0.04-4.2393-0.1602-6.0391h3.0791l0.1602,3.8389h0.1201
		c0.8799-2.5996,3.0391-4.2393,5.3984-4.2393c0.3604,0,0.6406,0.04,0.96,0.0801v3.3193c-0.3594-0.0801-0.7197-0.0801-1.1992-0.0801
		c-2.4795,0-4.2393,1.8398-4.7197,4.4795c-0.0801,0.4795-0.1201,1.0801-0.1201,1.6396v10.3184h-3.5186V941.6025z"/>
	<path fill="#4B5666" d="M585.6592,940.8027c0-2.04-0.04-3.6396-0.1602-5.2393h3.1191l0.2002,3.1992h0.0801
		c0.96-1.7998,3.1992-3.5996,6.3984-3.5996c2.6797,0,6.8389,1.5996,6.8389,8.2383v11.5186h-3.5195v-11.1582
		c0-3.1191-1.1592-5.7188-4.4785-5.7188c-2.2803,0-4.0801,1.6396-4.7197,3.5996c-0.1602,0.4395-0.2402,1.0391-0.2402,1.6396v11.6377
		h-3.5186V940.8027z"/>
	<path fill="#4B5666" d="M625.375,945.082c0,7.1582-4.999,10.2773-9.6387,10.2773c-5.1992,0-9.2783-3.8389-9.2783-9.958
		c0-6.4385,4.2793-10.2383,9.5986-10.2383C621.6152,935.1631,625.375,939.2021,625.375,945.082z M610.0576,945.2812
		c0,4.2393,2.3994,7.4395,5.8389,7.4395c3.3594,0,5.8789-3.1602,5.8789-7.5195c0-3.2793-1.6396-7.3984-5.7988-7.3984
		C611.8574,937.8027,610.0576,941.6426,610.0576,945.2812z"/>
	<path fill="#4B5666" d="M629.3379,951.3604c1.0801,0.6396,2.9199,1.3604,4.6797,1.3604c2.5195,0,3.7188-1.2402,3.7188-2.8799
		c0-1.6797-1-2.5596-3.5596-3.5195c-3.5186-1.2793-5.1582-3.1592-5.1582-5.4785c0-3.1201,2.5596-5.6797,6.6787-5.6797
		c1.959,0,3.6787,0.5205,4.7188,1.2002l-0.8398,2.5596c-0.7598-0.4805-2.1592-1.1602-3.959-1.1602
		c-2.0801,0-3.1992,1.2002-3.1992,2.6396c0,1.5996,1.1191,2.3193,3.6387,3.3193c3.3193,1.2402,5.0791,2.9199,5.0791,5.7988
		c0,3.4395-2.6797,5.8389-7.1982,5.8389c-2.1201,0-4.0791-0.5596-5.4395-1.3594L629.3379,951.3604z"/>
	<path fill="#4B5666" d="M649.8975,930.9238v4.6396h5.0391v2.6797h-5.0391v10.4375c0,2.4004,0.6797,3.7598,2.6396,3.7598
		c0.959,0,1.5195-0.0801,2.0391-0.2402l0.1602,2.6797c-0.6797,0.2402-1.7598,0.4795-3.1191,0.4795
		c-1.6396,0-2.96-0.5596-3.7998-1.4795c-0.96-1.0801-1.3594-2.7988-1.3594-5.0791v-10.5576h-3v-2.6797h3v-3.5996L649.8975,930.9238z
		"/>
	<path fill="#4B5666" d="M490.4805,988.8027c0-2.04-0.04-3.6396-0.1602-5.2393h3.1191l0.2002,3.1992h0.0801
		c0.96-1.7998,3.1992-3.5996,6.3984-3.5996c2.6797,0,6.8389,1.5996,6.8389,8.2383v11.5186h-3.5195v-11.1582
		c0-3.1191-1.1592-5.7188-4.4785-5.7188c-2.2803,0-4.0801,1.6396-4.7197,3.5996c-0.1602,0.4395-0.2402,1.0391-0.2402,1.6396v11.6377
		h-3.5186V988.8027z"/>
	<path fill="#4B5666" d="M514.6396,993.8818c0.0801,4.7588,3.0801,6.7188,6.6387,6.7188c2.5205,0,4.0801-0.4404,5.3594-1
		l0.6396,2.5195c-1.2393,0.5596-3.3994,1.2393-6.4785,1.2393c-5.959,0-9.5186-3.959-9.5186-9.7979s3.4395-10.3984,9.0791-10.3984
		c6.3584,0,7.998,5.5195,7.998,9.0791c0,0.7197-0.04,1.2393-0.1201,1.6396H514.6396z M524.958,991.3623
		c0.04-2.2002-0.9199-5.6797-4.8789-5.6797c-3.5996,0-5.1191,3.2393-5.3994,5.6797H524.958z"/>
	<path fill="#4B5666" d="M536.1982,992.4414h0.0801c0.4805-0.6797,1.1201-1.5195,1.6797-2.1992l5.7197-6.6787h4.1992l-7.4385,7.958
		l8.5186,11.3984h-4.3193l-6.6396-9.2783l-1.7998,2v7.2783h-3.4785v-28.3955h3.4785V992.4414z"/>
	<path fill="#4B5666" d="M565.7969,998.2803c0,1.6797,0.0801,3.3203,0.2793,4.6396h-3.1592l-0.2803-2.4395h-0.1201
		c-1.0791,1.5195-3.1592,2.8789-5.9189,2.8789c-3.9189,0-5.9189-2.7588-5.9189-5.5586c0-4.6797,4.1592-7.2393,11.6387-7.1992
		v-0.3994c0-1.5596-0.4404-4.4795-4.3994-4.4395c-1.8398,0-3.7197,0.5195-5.0791,1.4395l-0.7998-2.3594
		c1.5996-1,3.959-1.6797,6.3984-1.6797c5.9189,0,7.3594,4.0391,7.3594,7.8789V998.2803z M562.3975,993.042
		c-3.8398-0.0801-8.1992,0.5996-8.1992,4.3584c0,2.3203,1.5195,3.3604,3.2793,3.3604c2.5596,0,4.1992-1.6006,4.7598-3.2402
		c0.1201-0.3994,0.1602-0.7998,0.1602-1.1191V993.042z"/>
	<path fill="#4B5666" d="M579.959,974.5244h3.4795v12.1582h0.0791c1.2402-2.1592,3.4795-3.5195,6.5996-3.5195
		c4.8389,0,8.1982,3.999,8.1982,9.8389c0,6.9189-4.3994,10.3574-8.7188,10.3574c-2.7988,0-5.0391-1.0791-6.5186-3.5986h-0.0801
		l-0.2002,3.1592h-2.999c0.0801-1.3193,0.1602-3.2793,0.1602-4.999V974.5244z M583.4385,995.1611
		c0,0.4404,0.0391,0.8799,0.1592,1.2803c0.6406,2.4395,2.7197,4.1191,5.2793,4.1191c3.7197,0,5.8789-3,5.8789-7.4395
		c0-3.8789-1.999-7.1982-5.7988-7.1982c-2.3594,0-4.5996,1.6797-5.3193,4.3193c-0.1201,0.4395-0.1992,0.9199-0.1992,1.4795V995.1611
		z"/>
	<path fill="#4B5666" d="M618.915,997.6006c0,2.04,0.04,3.7998,0.1592,5.3193h-3.1191l-0.2002-3.1592h-0.0801
		c-0.8799,1.5596-2.959,3.5986-6.3984,3.5986c-3.04,0-6.6787-1.7197-6.6787-8.4785v-11.3174h3.5195v10.6777
		c0,3.6797,1.1592,6.1992,4.3193,6.1992c2.3594,0,3.999-1.6396,4.6387-3.2393c0.2002-0.4805,0.3203-1.1201,0.3203-1.7998v-11.8379
		h3.5195V997.6006z"/>
	<path fill="#4B5666" d="M641.4346,974.5244v23.3965c0,1.7197,0.0801,3.6797,0.1602,4.999h-3.1191l-0.1602-3.3594h-0.1201
		c-1.04,2.1592-3.3594,3.7988-6.5195,3.7988c-4.6787,0-8.3184-3.959-8.3184-9.8379c-0.04-6.4385,4-10.3584,8.6787-10.3584
		c3,0,4.959,1.4004,5.8389,2.9199h0.0801v-11.5586H641.4346z M637.9551,991.4414c0-0.4395-0.04-1.0391-0.1602-1.4795
		c-0.5195-2.1992-2.4395-4.0391-5.0791-4.0391c-3.6387,0-5.7988,3.1992-5.7988,7.4385c0,3.9199,1.96,7.1592,5.7188,7.1592
		c2.3604,0,4.5195-1.5996,5.1592-4.1992c0.1201-0.4805,0.1602-0.96,0.1602-1.5195V991.4414z"/>
	<path fill="#4B5666" d="M649.2764,993.8818c0.0801,4.7588,3.0801,6.7188,6.6387,6.7188c2.5205,0,4.0801-0.4404,5.3594-1
		l0.6396,2.5195c-1.2393,0.5596-3.3994,1.2393-6.4785,1.2393c-5.959,0-9.5186-3.959-9.5186-9.7979s3.4395-10.3984,9.0791-10.3984
		c6.3584,0,7.998,5.5195,7.998,9.0791c0,0.7197-0.04,1.2393-0.1201,1.6396H649.2764z M659.5947,991.3623
		c0.04-2.2002-0.9199-5.6797-4.8789-5.6797c-3.5996,0-5.1191,3.2393-5.3994,5.6797H659.5947z"/>
	<path fill="#4B5666" d="M497.7598,1037.8818c0-2.4795-0.0801-4.4785-0.1602-6.3184h3.1191l0.2002,3.3193h0.0801
		c1.3994-2.3594,3.7188-3.7197,6.8789-3.7197c4.7188,0,8.2383,3.96,8.2383,9.7988c0,6.959-4.2793,10.3975-8.8389,10.3975
		c-2.5596,0-4.7988-1.1191-5.959-3.0391h-0.0791v10.5186h-3.4795V1037.8818z M501.2393,1043.041c0,0.5205,0.0391,1,0.1592,1.4404
		c0.6406,2.4395,2.7598,4.1191,5.2793,4.1191c3.7197,0,5.8789-3.04,5.8789-7.4795c0-3.8389-2.0391-7.1582-5.7588-7.1582
		c-2.3994,0-4.6797,1.6797-5.3193,4.3193c-0.1201,0.4395-0.2393,0.96-0.2393,1.3994V1043.041z"/>
	<path fill="#4B5666" d="M520.5195,1037.6025c0-2.2803-0.04-4.2393-0.1602-6.0391h3.0791l0.1602,3.8389h0.1201
		c0.8799-2.5996,3.0391-4.2393,5.3994-4.2393c0.3594,0,0.6396,0.04,0.959,0.0801v3.3193c-0.3594-0.0801-0.7197-0.0801-1.1992-0.0801
		c-2.4795,0-4.2393,1.8398-4.7197,4.4795c-0.0801,0.4795-0.1201,1.0801-0.1201,1.6396v10.3184h-3.5186V1037.6025z"/>
	<path fill="#4B5666" d="M535.1582,1041.8818c0.0801,4.7588,3.0801,6.7188,6.6396,6.7188c2.5195,0,4.0791-0.4404,5.3584-1
		l0.6396,2.5195c-1.2393,0.5596-3.3994,1.2393-6.4785,1.2393c-5.959,0-9.5186-3.959-9.5186-9.7979s3.4395-10.3984,9.0791-10.3984
		c6.3584,0,7.998,5.5195,7.998,9.0791c0,0.7197-0.04,1.2393-0.1201,1.6396H535.1582z M545.4766,1039.3623
		c0.04-2.2002-0.9199-5.6797-4.8789-5.6797c-3.5996,0-5.1191,3.2393-5.3994,5.6797H545.4766z"/>
	<path fill="#4B5666" d="M569.916,1022.5244v23.3965c0,1.7197,0.0801,3.6797,0.1602,4.999h-3.1201l-0.1592-3.3594h-0.1201
		c-1.04,2.1592-3.3594,3.7988-6.5195,3.7988c-4.6787,0-8.3184-3.959-8.3184-9.8379c-0.04-6.4385,4-10.3584,8.6787-10.3584
		c3,0,4.959,1.4004,5.8389,2.9199h0.0801v-11.5586H569.916z M566.4365,1039.4414c0-0.4395-0.04-1.0391-0.1602-1.4795
		c-0.5195-2.1992-2.4395-4.0391-5.0791-4.0391c-3.6387,0-5.7988,3.1992-5.7988,7.4385c0,3.9199,1.96,7.1592,5.7188,7.1592
		c2.3604,0,4.5195-1.5996,5.1592-4.1992c0.1201-0.4805,0.1602-0.96,0.1602-1.5195V1039.4414z"/>
	<path fill="#4B5666" d="M591.9961,1045.6006c0,2.04,0.04,3.7998,0.1592,5.3193h-3.1191l-0.2002-3.1592h-0.0801
		c-0.8799,1.5596-2.959,3.5986-6.3984,3.5986c-3.04,0-6.6787-1.7197-6.6787-8.4785v-11.3174h3.5195v10.6777
		c0,3.6797,1.1592,6.1992,4.3193,6.1992c2.3594,0,3.999-1.6396,4.6387-3.2393c0.2002-0.4805,0.3203-1.1201,0.3203-1.7998v-11.8379
		h3.5195V1045.6006z"/>
	<path fill="#4B5666" d="M599.1982,1031.5635l3.7998,10.8379c0.6396,1.7998,1.1592,3.3994,1.5596,4.999h0.1201
		c0.4395-1.5996,0.999-3.1992,1.6396-4.999l3.7588-10.8379h3.6797l-7.5986,19.3564h-3.3594l-7.3594-19.3564H599.1982z"/>
	<path fill="#4B5666" d="M612.3184,1056.5986c1.6396-0.1201,3-0.5596,3.8398-1.5195c0.96-1.0801,1.3594-2.5996,1.3594-7.2383
		v-16.2773h3.5195v17.6367c0,3.7598-0.5996,6.1992-2.3193,7.959c-1.5605,1.5596-4.1201,2.1992-5.999,2.1992L612.3184,1056.5986z
		 M621.4365,1026.124c0,1.1602-0.7998,2.1602-2.2393,2.1602c-1.2793,0-2.1191-1-2.1191-2.1602c0-1.2002,0.8799-2.1992,2.1992-2.1992
		S621.4365,1024.9238,621.4365,1026.124z"/>
	<path fill="#4B5666" d="M628.7568,1041.8818c0.0801,4.7588,3.0801,6.7188,6.6387,6.7188c2.5205,0,4.0801-0.4404,5.3594-1
		l0.6396,2.5195c-1.2393,0.5596-3.3994,1.2393-6.4785,1.2393c-5.959,0-9.5186-3.959-9.5186-9.7979s3.4395-10.3984,9.0791-10.3984
		c6.3584,0,7.998,5.5195,7.998,9.0791c0,0.7197-0.04,1.2393-0.1201,1.6396H628.7568z M639.0752,1039.3623
		c0.04-2.2002-0.9199-5.6797-4.8789-5.6797c-3.5996,0-5.1191,3.2393-5.3994,5.6797H639.0752z"/>
	<path fill="#4B5666" d="M651.0771,1026.9238v4.6396h5.0391v2.6797h-5.0391v10.4375c0,2.4004,0.6797,3.7598,2.6396,3.7598
		c0.959,0,1.5195-0.0801,2.0391-0.2402l0.1602,2.6797c-0.6797,0.2402-1.7598,0.4795-3.1191,0.4795
		c-1.6396,0-2.96-0.5596-3.7998-1.4795c-0.96-1.0801-1.3594-2.7988-1.3594-5.0791v-10.5576h-3v-2.6797h3v-3.5996L651.0771,1026.9238
		z"/>
</g>
<path fill="#4B5666" d="M609.6885,812.8311h-67.3799c-1.5449,0-2.7998,1.252-2.7998,2.7969l0.0029,25.9648
	c0,0.002,0.001,0.0059,0.001,0.0098c0,7.7988,0,15.6211,0,18.2344c0,5.7969,1.9561,14.1484,9.4453,22.5391
	c10.7305,12.0176,27.0439,16.9551,27.0439,16.9551s16.3125-4.9375,27.043-16.9551c7.4893-8.3906,9.4453-16.7422,9.4453-22.5391
	c0-2.6133,0-10.4355,0-18.2344c0-0.0039,0.001-0.0078,0.001-0.0098l-0.0039-25.9648
	C612.4873,814.083,611.2334,812.8311,609.6885,812.8311z M556.3057,878.9092c-0.3535,0.3145-0.7949,0.4688-1.2334,0.4688
	c-0.5107,0-1.0176-0.209-1.3838-0.6191c-7.3506-8.2324-8.4473-16.0156-8.4473-19.9219c0-1.0234,0.8291-1.8535,1.8525-1.8535
	s1.8545,0.8301,1.8545,1.8535c0,3.3789,0.9746,10.1387,7.5059,17.4531C557.1357,877.0537,557.0674,878.2256,556.3057,878.9092z
	 M606.7119,841.5029c-0.001,0.0312-0.001,0.0664-0.001,0.0996v18.2344c0,3.6426-1.0371,10.916-7.9766,18.6895
	c-7.5762,8.4863-18.5674,13.1426-22.7324,14.6895l-0.0039-74.6074h30.7109L606.7119,841.5029z"/>
<g>
	<path fill="#4B5666" d="M177.9634,564.0195c1.5195-0.3594,3.9595-0.5996,6.3589-0.5996c3.4795,0,5.7192,0.5996,7.3589,1.96
		c1.3994,1.0391,2.2793,2.6387,2.2793,4.7588c0,2.6396-1.7593,4.9189-4.5591,5.9189v0.1201
		c2.5596,0.5996,5.5591,2.7197,5.5591,6.7188c0,2.3193-0.9199,4.1191-2.3198,5.3994c-1.8394,1.7197-4.8789,2.5195-9.2783,2.5195
		c-2.3994,0-4.2393-0.1602-5.3989-0.3203V564.0195z M181.4429,575.0576h3.1592c3.6396,0,5.7993-1.96,5.7993-4.5586
		c0-3.1201-2.3599-4.3994-5.8789-4.3994c-1.6001,0-2.52,0.1201-3.0796,0.2393V575.0576z M181.4429,587.9355
		c0.7197,0.1201,1.6797,0.1602,2.9194,0.1602c3.5991,0,6.9189-1.3203,6.9189-5.2393c0-3.6396-3.1597-5.1992-6.959-5.1992h-2.8794
		V587.9355z"/>
	<path fill="#4B5666" d="M199.5229,577.2578c0-2.2803-0.04-4.2393-0.1597-6.0391h3.0791l0.1602,3.8389h0.1201
		c0.8799-2.5996,3.0396-4.2393,5.3989-4.2393c0.3599,0,0.6401,0.04,0.96,0.0801v3.3193c-0.3599-0.0801-0.7202-0.0801-1.1997-0.0801
		c-2.48,0-4.2393,1.8398-4.7192,4.4795c-0.0801,0.4795-0.1201,1.0801-0.1201,1.6396v10.3184h-3.5195V577.2578z"/>
	<path fill="#4B5666" d="M210.7627,588.5352l8.7188-11.3975c0.8799-1.0801,1.6797-2,2.5596-3.04v-0.0801h-10.4785v-2.7988h14.7178
		v2.1992l-8.6387,11.2383c-0.8398,1.0801-1.5996,2.0791-2.4795,3.0391v0.0801h11.2783v2.7998h-15.6777V588.5352z"/>
	<path fill="#4B5666" d="M247.3193,580.7373c0,7.1582-4.999,10.2773-9.6382,10.2773c-5.1992,0-9.2788-3.8389-9.2788-9.958
		c0-6.4385,4.2793-10.2383,9.5986-10.2383C243.5601,570.8184,247.3193,574.8574,247.3193,580.7373z M232.002,580.9365
		c0,4.2393,2.3994,7.4395,5.8389,7.4395c3.3594,0,5.8794-3.1602,5.8794-7.5195c0-3.2793-1.6401-7.3984-5.7993-7.3984
		C233.8018,573.458,232.002,577.2979,232.002,580.9365z"/>
	<path fill="#4B5666" d="M86.7842,629.5371c0.0796,4.7588,3.0791,6.7188,6.6387,6.7188c2.5195,0,4.0791-0.4404,5.3589-1
		l0.6401,2.5195c-1.2397,0.5596-3.3994,1.2393-6.479,1.2393c-5.959,0-9.5186-3.959-9.5186-9.7979s3.4395-10.3984,9.0786-10.3984
		c6.3589,0,7.9985,5.5195,7.9985,9.0791c0,0.7197-0.0396,1.2393-0.1196,1.6396H86.7842z M97.1021,627.0176
		c0.04-2.2002-0.9194-5.6797-4.8789-5.6797c-3.5996,0-5.1191,3.2393-5.3994,5.6797H97.1021z"/>
	<path fill="#4B5666" d="M108.3433,628.0967h0.0801c0.48-0.6797,1.1196-1.5195,1.6797-2.1992l5.7188-6.6787h4.1997l-7.439,7.958
		l8.5186,11.3984h-4.3193l-6.6387-9.2783l-1.7998,2v7.2783h-3.4795v-28.3955h3.4795V628.0967z"/>
	<path fill="#4B5666" d="M123.1436,635.0156c1.0801,0.6396,2.9194,1.3604,4.6792,1.3604c2.5195,0,3.7197-1.2402,3.7197-2.8799
		c0-1.6797-1-2.5596-3.5596-3.5195c-3.5195-1.2793-5.1592-3.1592-5.1592-5.4795c0-3.1191,2.5596-5.6787,6.6787-5.6787
		c1.96,0,3.6797,0.5205,4.7192,1.2002l-0.8398,2.5596c-0.7598-0.4805-2.1597-1.1602-3.959-1.1602
		c-2.0801,0-3.1997,1.2002-3.1997,2.6396c0,1.5996,1.1196,2.3193,3.6396,3.3193c3.3193,1.2402,5.0791,2.9199,5.0791,5.7988
		c0,3.4395-2.6797,5.8389-7.1987,5.8389c-2.1201,0-4.0796-0.5596-5.4395-1.3594L123.1436,635.0156z"/>
	<path fill="#4B5666" d="M139.4634,625.5371c0-2.4795-0.0801-4.4785-0.1597-6.3184h3.1191l0.2002,3.3193h0.0801
		c1.3994-2.3594,3.7192-3.7197,6.8784-3.7197c4.7192,0,8.2388,3.96,8.2388,9.7988c0,6.959-4.2793,10.3975-8.8384,10.3975
		c-2.5596,0-4.7993-1.1191-5.959-3.0391h-0.0801v10.5186h-3.4795V625.5371z M142.9429,630.6963c0,0.5205,0.04,1,0.1602,1.4404
		c0.6396,2.4395,2.7593,4.1191,5.2788,4.1191c3.7197,0,5.8789-3.04,5.8789-7.4795c0-3.8389-2.0396-7.1582-5.7588-7.1582
		c-2.3994,0-4.6792,1.6797-5.3193,4.3193c-0.1196,0.4395-0.2397,0.96-0.2397,1.3994V630.6963z"/>
	<path fill="#4B5666" d="M164.1831,629.5371c0.0796,4.7588,3.0791,6.7188,6.6387,6.7188c2.5195,0,4.0791-0.4404,5.3589-1
		l0.6401,2.5195c-1.2397,0.5596-3.3994,1.2393-6.479,1.2393c-5.959,0-9.5186-3.959-9.5186-9.7979s3.4395-10.3984,9.0786-10.3984
		c6.3589,0,7.9985,5.5195,7.9985,9.0791c0,0.7197-0.04,1.2393-0.1196,1.6396H164.1831z M174.501,627.0176
		c0.04-2.2002-0.9194-5.6797-4.8789-5.6797c-3.5996,0-5.1191,3.2393-5.3994,5.6797H174.501z"/>
	<path fill="#4B5666" d="M182.2627,625.2578c0-2.2803-0.04-4.2393-0.1597-6.0391h3.0791l0.1602,3.8389h0.1201
		c0.8799-2.5996,3.0396-4.2393,5.3989-4.2393c0.3599,0,0.6396,0.04,0.96,0.0801v3.3193c-0.3599-0.0801-0.7202-0.0801-1.1997-0.0801
		c-2.48,0-4.2397,1.8398-4.7192,4.4795c-0.0801,0.4795-0.1201,1.0801-0.1201,1.6396v10.3184h-3.5195V625.2578z"/>
	<path fill="#4B5666" d="M199.4219,613.7793c0,1.2002-0.8398,2.1602-2.2397,2.1602c-1.2798,0-2.1196-0.96-2.1196-2.1602
		s0.8799-2.1992,2.1997-2.1992C198.542,611.5801,199.4219,612.54,199.4219,613.7793z M195.5024,638.5752v-19.3564h3.5195v19.3564
		H195.5024z"/>
	<path fill="#4B5666" d="M204.8618,624.458c0-2.04-0.0801-3.6396-0.1597-5.2393h3.0791l0.1602,3.1592h0.1201
		c1.0796-1.8398,2.8794-3.5596,6.1187-3.5596c2.5996,0,4.5996,1.5996,5.4395,3.8799h0.0796
		c0.6001-1.1201,1.3999-1.9199,2.1997-2.5195c1.1597-0.8799,2.3999-1.3604,4.2393-1.3604c2.5996,0,6.3989,1.6797,6.3989,8.3984
		v11.3584h-3.4395v-10.918c0-3.7598-1.3994-5.959-4.1992-5.959c-2.0396,0-3.5591,1.4795-4.1992,3.1592
		c-0.1602,0.5195-0.2798,1.1201-0.2798,1.7598v11.958H216.98v-11.5977c0-3.0801-1.3599-5.2793-4.0396-5.2793
		c-2.1597,0-3.7993,1.7598-4.3594,3.5195c-0.1997,0.4795-0.2798,1.1191-0.2798,1.7197v11.6377h-3.4395V624.458z"/>
	<path fill="#4B5666" d="M240.1821,629.5371c0.0796,4.7588,3.0791,6.7188,6.6387,6.7188c2.5195,0,4.0791-0.4404,5.3589-1
		l0.6401,2.5195c-1.2397,0.5596-3.3994,1.2393-6.479,1.2393c-5.959,0-9.5186-3.959-9.5186-9.7979s3.4395-10.3984,9.0786-10.3984
		c6.3589,0,7.9985,5.5195,7.9985,9.0791c0,0.7197-0.04,1.2393-0.1196,1.6396H240.1821z M250.5,627.0176
		c0.04-2.2002-0.9194-5.6797-4.8789-5.6797c-3.5996,0-5.1191,3.2393-5.3994,5.6797H250.5z"/>
	<path fill="#4B5666" d="M258.2617,624.458c0-2.04-0.04-3.6396-0.1597-5.2393h3.1191l0.2002,3.1992h0.0801
		c0.9595-1.7998,3.1992-3.5996,6.3989-3.5996c2.6792,0,6.8389,1.5996,6.8389,8.2393v11.5176h-3.5195V627.417
		c0-3.1191-1.1602-5.7188-4.4795-5.7188c-2.2793,0-4.0791,1.6396-4.7192,3.5996c-0.1597,0.4395-0.2397,1.0391-0.2397,1.6396v11.6377
		h-3.5195V624.458z"/>
	<path fill="#4B5666" d="M284.5405,614.5791v4.6396h5.0391v2.6797h-5.0391v10.4375c0,2.3994,0.6802,3.7598,2.6396,3.7598
		c0.96,0,1.5195-0.0801,2.0396-0.2402l0.1602,2.6797c-0.6802,0.2402-1.7598,0.4795-3.1196,0.4795
		c-1.6396,0-2.9595-0.5596-3.7993-1.4795c-0.96-1.0801-1.3599-2.7998-1.3599-5.0791v-10.5576h-2.9995v-2.6797h2.9995v-3.5996
		L284.5405,614.5791z"/>
	<path fill="#4B5666" d="M297.4609,613.7793c0,1.2002-0.8398,2.1602-2.2397,2.1602c-1.2798,0-2.1196-0.96-2.1196-2.1602
		s0.8799-2.1992,2.1997-2.1992C296.5811,611.5801,297.4609,612.54,297.4609,613.7793z M293.5415,638.5752v-19.3564h3.5195v19.3564
		H293.5415z"/>
	<path fill="#4B5666" d="M302.9009,625.2578c0-2.2803-0.04-4.2393-0.1597-6.0391h3.0791l0.1602,3.8389h0.1201
		c0.8799-2.5996,3.0396-4.2393,5.3989-4.2393c0.3599,0,0.6401,0.04,0.96,0.0801v3.3193c-0.3599-0.0801-0.7202-0.0801-1.1997-0.0801
		c-2.48,0-4.2393,1.8398-4.7192,4.4795c-0.0801,0.4795-0.1201,1.0801-0.1201,1.6396v10.3184h-3.5195V625.2578z"/>
	<path fill="#4B5666" d="M329.3789,633.9355c0,1.6797,0.0801,3.3203,0.2803,4.6396h-3.1597l-0.2798-2.4395h-0.1201
		c-1.0801,1.5195-3.1597,2.8789-5.9189,2.8789c-3.9194,0-5.9189-2.7588-5.9189-5.5586c0-4.6797,4.1592-7.2393,11.6377-7.1992
		v-0.3994c0-1.5596-0.4399-4.4795-4.3989-4.4395c-1.8398,0-3.7197,0.5205-5.0791,1.4395l-0.7998-2.3594
		c1.5996-1,3.959-1.6797,6.3989-1.6797c5.9189,0,7.3584,4.0391,7.3584,7.8789V633.9355z M325.9795,628.6973
		c-3.8394-0.0801-8.1987,0.5996-8.1987,4.3584c0,2.3203,1.52,3.3604,3.2798,3.3604c2.5596,0,4.1992-1.6006,4.7593-3.2402
		c0.1196-0.3994,0.1597-0.7998,0.1597-1.1191V628.6973z"/>
	<path fill="#4B5666" d="M330.3018,644.2539c1.6396-0.1201,2.9995-0.5596,3.8394-1.5195c0.96-1.0801,1.3599-2.5996,1.3599-7.2383
		v-16.2773h3.5195v17.6367c0,3.7598-0.6001,6.1992-2.3198,7.959c-1.5596,1.5596-4.1191,2.1992-5.999,2.1992L330.3018,644.2539z
		 M339.4204,613.7793c0,1.1602-0.7998,2.1602-2.2397,2.1602c-1.2798,0-2.1196-1-2.1196-2.1602c0-1.2002,0.8799-2.1992,2.1997-2.1992
		S339.4204,612.5791,339.4204,613.7793z"/>
	<path fill="#4B5666" d="M185.1426,661.7793c0,1.2002-0.8398,2.1602-2.2397,2.1602c-1.2798,0-2.1196-0.96-2.1196-2.1602
		s0.8799-2.1992,2.1997-2.1992C184.2627,659.5801,185.1426,660.54,185.1426,661.7793z M181.2231,686.5752v-19.3564h3.5195v19.3564
		H181.2231z"/>
	<path fill="#4B5666" d="M215.2598,681.2559c0,2.04,0.04,3.7998,0.1602,5.3193h-3.1196l-0.1997-3.1592h-0.0801
		c-0.8799,1.5596-2.9595,3.5986-6.3989,3.5986c-3.0396,0-6.6792-1.7188-6.6792-8.4785v-11.3174h3.5195v10.6777
		c0,3.6797,1.1597,6.1992,4.3193,6.1992c2.3599,0,3.9995-1.6396,4.6392-3.2393c0.2002-0.4805,0.3198-1.1201,0.3198-1.7998v-11.8379
		h3.5195V681.2559z"/>
	<path fill="#4B5666" d="M234.8999,685.8955c-0.9199,0.4395-2.9595,1.1191-5.5591,1.1191c-5.8389,0-9.6387-3.959-9.6387-9.8779
		c0-5.959,4.0796-10.3184,10.3984-10.3184c2.0796,0,3.9194,0.5205,4.8794,1.04l-0.8003,2.6797
		c-0.8398-0.4404-2.1592-0.9199-4.0791-0.9199c-4.4395,0-6.8389,3.3193-6.8389,7.3184c0,4.4795,2.8794,7.2393,6.7188,7.2393
		c2,0,3.3198-0.4805,4.3193-0.9199L234.8999,685.8955z M227.4209,664.5791l-3.8394-5.7197h2.6797l2.3599,3.7998h0.0796
		l2.3599-3.7998h2.6396l-3.7598,5.7197H227.4209z"/>
	<path fill="#4B5666" d="M242.9414,661.7793c0,1.2002-0.8398,2.1602-2.2397,2.1602c-1.2798,0-2.1196-0.96-2.1196-2.1602
		s0.8799-2.1992,2.1997-2.1992C242.0615,659.5801,242.9414,660.54,242.9414,661.7793z M239.022,686.5752v-19.3564h3.5195v19.3564
		H239.022z"/>
</g>
<path fill-rule="evenodd" clip-rule="evenodd" fill="#4B5666" d="M243.4507,506.4004c0,11.8926-6.5791,22.2422-16.2925,27.623
	c0,0-1.1807,0.6758-2.7192,0.9424c-1.4961,0.2578-2.6011,0.3066-2.6011,0.3066h-9.9546h-9.9531c0,0-1.1064-0.0488-2.603-0.3066
	c-1.5381-0.2666-2.7188-0.9424-2.7188-0.9424c-9.7134-5.3809-16.2925-15.7305-16.2925-27.623
	c0-13.1309,8.019-24.3857,19.4258-29.1436v-17.9307c-1.5508,0-2.8081-1.2578-2.8081-2.8066v-4.9395
	c0-1.5508,1.2573-2.8076,2.8081-2.8076h24.2832c1.5508,0,2.8086,1.2568,2.8086,2.8076v4.9395c0,1.5488-1.2578,2.8066-2.8086,2.8066
	v17.9307C235.4316,482.0146,243.4507,493.2695,243.4507,506.4004z M220.0063,450.6797h-16.2451
	c-1.0239,0-1.8535,0.8311-1.8535,1.8545c0,1.0244,0.8296,1.8535,1.8535,1.8535h16.2451c1.0239,0,1.8545-0.8291,1.8545-1.8535
	C221.8608,451.5107,221.0303,450.6797,220.0063,450.6797z M221.8008,482.5908c-2.1523-0.8975-3.5557-3.002-3.5557-5.334v-17.9307
	h-12.7236v17.9307c0,2.332-1.4023,4.4365-3.5552,5.334c-9.6401,4.0215-15.8711,13.3682-15.8711,23.8096
	c0,9.3691,5.1001,18.0166,13.3096,22.5664c0.1255,0.0625,0.5244,0.2373,0.9072,0.3047c0.853,0.1465,1.54,0.2031,1.7881,0.2207
	h9.7832h9.7852c0.2339-0.0156,0.9263-0.0723,1.7881-0.2217c0.3828-0.0664,0.7793-0.2412,0.9053-0.3037
	c8.2095-4.5498,13.3096-13.1973,13.3096-22.5664C237.6714,495.959,231.4419,486.6123,221.8008,482.5908z M233.9639,506.4004
	c0,7.9629-4.3003,15.3135-11.2388,19.2344c-0.5337,0.0879-0.9756,0.1328-1.2031,0.1504h-19.2817
	c-0.2104-0.0176-0.6558-0.0615-1.1963-0.1504c-6.939-3.9199-11.2427-11.2715-11.2427-19.2344c0-2.8027,0.5332-5.4854,1.4907-7.9551
	h41.1841C233.4336,500.915,233.9639,503.5977,233.9639,506.4004z M205.1714,518.9609c-4.7559-3.0137-7.7012-8.3418-7.7012-13.9648
	c0-1.0234-0.8296-1.8525-1.854-1.8525c-1.0229,0-1.854,0.8291-1.854,1.8525c0,6.9775,3.7026,13.5859,9.6621,17.2441l0.3779,0.2197
	l0.5547,0.0596c0.0537,0.0049,0.1069,0.0068,0.1611,0.0068c0.9482,0,1.7227-0.7314,1.8062-1.6963
	C206.395,520.0107,205.8979,519.2676,205.1714,518.9609z"/>
<g>
	<path fill="#4B5666" d="M844.5762,590.5752v-26.9551h3.8398l8.5986,13.6377c1.96,3.1592,3.5596,5.999,4.7988,8.7578l0.1201-0.04
		c-0.3203-3.5986-0.3994-6.8789-0.3994-11.0781v-11.2773h3.2793v26.9551h-3.5195l-8.5586-13.6777
		c-1.8799-2.999-3.6797-6.0791-4.999-8.998l-0.1201,0.04c0.2002,3.3994,0.2402,6.6387,0.2402,11.1182v11.5176H844.5762z"/>
	<path fill="#4B5666" d="M872.7354,581.5371c0.0801,4.7588,3.0801,6.7188,6.6387,6.7188c2.5205,0,4.0801-0.4404,5.3594-1
		l0.6396,2.5195c-1.2393,0.5596-3.3994,1.2393-6.4785,1.2393c-5.959,0-9.5186-3.959-9.5186-9.7979s3.4395-10.3984,9.0791-10.3984
		c6.3584,0,7.998,5.5195,7.998,9.0791c0,0.7197-0.04,1.2393-0.1201,1.6396H872.7354z M883.0537,579.0176
		c0.04-2.2002-0.9199-5.6797-4.8789-5.6797c-3.5996,0-5.1191,3.2393-5.3994,5.6797H883.0537z"/>
	<path fill="#4B5666" d="M890.8164,577.5371c0-2.4795-0.0801-4.4785-0.1602-6.3184h3.1191l0.2002,3.3193h0.0801
		c1.3994-2.3594,3.7188-3.7197,6.8789-3.7197c4.7188,0,8.2383,3.96,8.2383,9.7988c0,6.959-4.2793,10.3975-8.8389,10.3975
		c-2.5596,0-4.7988-1.1191-5.959-3.0391h-0.0791v10.5186h-3.4795V577.5371z M894.2959,582.6963c0,0.5205,0.0391,1,0.1592,1.4404
		c0.6406,2.4395,2.7598,4.1191,5.2793,4.1191c3.7197,0,5.8789-3.04,5.8789-7.4795c0-3.8389-2.0391-7.1582-5.7588-7.1582
		c-2.3994,0-4.6797,1.6797-5.3193,4.3193c-0.1201,0.4395-0.2393,0.96-0.2393,1.3994V582.6963z"/>
	<path fill="#4B5666" d="M913.5752,577.2578c0-2.2803-0.04-4.2393-0.1602-6.0391h3.0791l0.1602,3.8389h0.1201
		c0.8799-2.5996,3.0391-4.2393,5.3984-4.2393c0.3604,0,0.6406,0.04,0.96,0.0801v3.3193c-0.3594-0.0801-0.7197-0.0801-1.1992-0.0801
		c-2.4795,0-4.2393,1.8398-4.7197,4.4795c-0.0801,0.4795-0.1201,1.0801-0.1201,1.6396v10.3184h-3.5186V577.2578z"/>
	<path fill="#4B5666" d="M928.2148,581.5371c0.0801,4.7588,3.0801,6.7188,6.6396,6.7188c2.5195,0,4.0791-0.4404,5.3584-1
		l0.6396,2.5195c-1.2393,0.5596-3.3994,1.2393-6.4785,1.2393c-5.959,0-9.5186-3.959-9.5186-9.7979s3.4395-10.3984,9.0791-10.3984
		c6.3584,0,7.998,5.5195,7.998,9.0791c0,0.7197-0.04,1.2393-0.1201,1.6396H928.2148z M938.5332,579.0176
		c0.04-2.2002-0.9199-5.6797-4.8789-5.6797c-3.5996,0-5.1191,3.2393-5.3994,5.6797H938.5332z"/>
	<path fill="#4B5666" d="M949.7744,580.0967h0.0801c0.4805-0.6797,1.1201-1.5195,1.6797-2.1992l5.7197-6.6787h4.1992l-7.4385,7.958
		l8.5186,11.3984h-4.3193l-6.6396-9.2783l-1.7998,2v7.2783h-3.4785v-28.3955h3.4785V580.0967z"/>
	<path fill="#4B5666" d="M969.6543,565.7793c0,1.2002-0.8398,2.1602-2.2393,2.1602c-1.2803,0-2.1201-0.96-2.1201-2.1602
		s0.8799-2.1992,2.2002-2.1992C968.7744,563.5801,969.6543,564.54,969.6543,565.7793z M965.7354,590.5752v-19.3564h3.5186v19.3564
		H965.7354z"/>
	<path fill="#4B5666" d="M991.7715,562.1797v23.3965c0,1.7197,0.0801,3.6797,0.1602,4.999h-3.1201l-0.1592-3.3594h-0.1201
		c-1.04,2.1592-3.3594,3.7988-6.5195,3.7988c-4.6787,0-8.3184-3.959-8.3184-9.8379c-0.04-6.4385,4-10.3584,8.6787-10.3584
		c3,0,4.959,1.4004,5.8389,2.9199h0.0801v-11.5586H991.7715z M988.292,579.0967c0-0.4395-0.04-1.0391-0.1602-1.4795
		c-0.5195-2.1992-2.4395-4.0391-5.0791-4.0391c-3.6387,0-5.7988,3.1992-5.7988,7.4385c0,3.9199,1.96,7.1592,5.7188,7.1592
		c2.3604,0,4.5195-1.5996,5.1592-4.1992c0.1201-0.4805,0.1602-0.96,0.1602-1.5195V579.0967z"/>
	<path fill="#4B5666" d="M997.6543,576.458c0-2.04-0.04-3.6396-0.1602-5.2393h3.1191l0.2002,3.1992h0.0801
		c0.96-1.7998,3.1992-3.5996,6.3984-3.5996c2.6797,0,6.8389,1.5996,6.8389,8.2393v11.5176h-3.5195V579.417
		c0-3.1191-1.1592-5.7188-4.4785-5.7188c-2.2803,0-4.0801,1.6396-4.7197,3.5996c-0.1602,0.4395-0.2402,1.0391-0.2402,1.6396v11.6377
		h-3.5186V576.458z"/>
	<path fill="#4B5666" d="M1037.3711,580.7373c0,7.1582-4.999,10.2773-9.6387,10.2773c-5.1992,0-9.2783-3.8389-9.2783-9.958
		c0-6.4385,4.2793-10.2383,9.5986-10.2383C1033.6113,570.8184,1037.3711,574.8574,1037.3711,580.7373z M1022.0537,580.9365
		c0,4.2393,2.3994,7.4395,5.8389,7.4395c3.3594,0,5.8789-3.1602,5.8789-7.5195c0-3.2793-1.6396-7.3984-5.7988-7.3984
		C1023.8535,573.458,1022.0537,577.2979,1022.0537,580.9365z"/>
	<path fill="#4B5666" d="M869.6953,613.7793c0,1.2002-0.8398,2.1602-2.2393,2.1602c-1.2803,0-2.1201-0.96-2.1201-2.1602
		s0.8799-2.1992,2.2002-2.1992C868.8154,611.5801,869.6953,612.54,869.6953,613.7793z M865.7764,638.5752v-19.3564h3.5186v19.3564
		H865.7764z"/>
	<path fill="#4B5666" d="M874.6553,635.0156c1.0801,0.6396,2.9199,1.3604,4.6797,1.3604c2.5195,0,3.7188-1.2402,3.7188-2.8799
		c0-1.6797-1-2.5596-3.5596-3.5195c-3.5186-1.2793-5.1582-3.1592-5.1582-5.4795c0-3.1191,2.5596-5.6787,6.6787-5.6787
		c1.959,0,3.6787,0.5205,4.7188,1.2002l-0.8398,2.5596c-0.7598-0.4805-2.1592-1.1602-3.959-1.1602
		c-2.0801,0-3.1992,1.2002-3.1992,2.6396c0,1.5996,1.1191,2.3193,3.6387,3.3193c3.3193,1.2402,5.0791,2.9199,5.0791,5.7988
		c0,3.4395-2.6797,5.8389-7.1982,5.8389c-2.1201,0-4.0791-0.5596-5.4395-1.3594L874.6553,635.0156z"/>
	<path fill="#4B5666" d="M890.9756,625.5371c0-2.4795-0.0801-4.4785-0.1602-6.3184h3.1191l0.2002,3.3193h0.0801
		c1.3994-2.3594,3.7188-3.7197,6.8789-3.7197c4.7188,0,8.2383,3.96,8.2383,9.7988c0,6.959-4.2793,10.3975-8.8389,10.3975
		c-2.5596,0-4.7988-1.1191-5.959-3.0391h-0.0801v10.5186h-3.4785V625.5371z M894.4541,630.6963c0,0.5205,0.04,1,0.1602,1.4404
		c0.6406,2.4395,2.7598,4.1191,5.2793,4.1191c3.7197,0,5.8789-3.04,5.8789-7.4795c0-3.8389-2.0391-7.1582-5.7588-7.1582
		c-2.3994,0-4.6797,1.6797-5.3193,4.3193c-0.1201,0.4395-0.2402,0.96-0.2402,1.3994V630.6963z"/>
	<path fill="#4B5666" d="M931.252,628.7373c0,7.1582-4.999,10.2773-9.6387,10.2773c-5.1992,0-9.2783-3.8389-9.2783-9.958
		c0-6.4385,4.2793-10.2383,9.5986-10.2383C927.4922,618.8184,931.252,622.8574,931.252,628.7373z M915.9346,628.9365
		c0,4.2393,2.3994,7.4395,5.8389,7.4395c3.3594,0,5.8789-3.1602,5.8789-7.5195c0-3.2793-1.6396-7.3984-5.7988-7.3984
		C917.7344,621.458,915.9346,625.2979,915.9346,628.9365z"/>
	<path fill="#4B5666" d="M935.6953,625.2578c0-2.2803-0.04-4.2393-0.1602-6.0391h3.0791l0.1602,3.8389h0.1201
		c0.8799-2.5996,3.0391-4.2393,5.3994-4.2393c0.3594,0,0.6396,0.04,0.959,0.0801v3.3193c-0.3594-0.0801-0.7197-0.0801-1.1992-0.0801
		c-2.4795,0-4.2393,1.8398-4.7197,4.4795c-0.0801,0.4795-0.1201,1.0801-0.1201,1.6396v10.3184h-3.5186V625.2578z"/>
	<path fill="#4B5666" d="M964.9727,633.2559c0,2.04,0.04,3.7998,0.1592,5.3193h-3.1191l-0.2002-3.1592h-0.0801
		c-0.8799,1.5596-2.959,3.5986-6.3984,3.5986c-3.04,0-6.6787-1.7188-6.6787-8.4785v-11.3174h3.5195v10.6777
		c0,3.6797,1.1592,6.1992,4.3193,6.1992c2.3594,0,3.999-1.6396,4.6387-3.2393c0.2002-0.4805,0.3203-1.1201,0.3203-1.7998v-11.8379
		h3.5195V633.2559z"/>
	<path fill="#4B5666" d="M984.6113,637.8955c-0.9199,0.4395-2.959,1.1191-5.5586,1.1191c-5.8389,0-9.6387-3.959-9.6387-9.8779
		c0-5.959,4.0791-10.3184,10.3984-10.3184c2.0801,0,3.9189,0.5205,4.8789,1.04l-0.7998,2.6797
		c-0.8398-0.4404-2.1592-0.9199-4.0791-0.9199c-4.4395,0-6.8389,3.3193-6.8389,7.3184c0,4.4795,2.8799,7.2393,6.7188,7.2393
		c2,0,3.3193-0.4805,4.3193-0.9199L984.6113,637.8955z M977.1328,616.5791l-3.8389-5.7197h2.6797l2.3594,3.7998h0.0801
		l2.3594-3.7998h2.6396l-3.7598,5.7197H977.1328z"/>
	<path fill="#4B5666" d="M1004.9316,633.2559c0,2.04,0.04,3.7998,0.1592,5.3193h-3.1191l-0.2002-3.1592h-0.0801
		c-0.8799,1.5596-2.959,3.5986-6.3984,3.5986c-3.04,0-6.6787-1.7188-6.6787-8.4785v-11.3174h3.5195v10.6777
		c0,3.6797,1.1592,6.1992,4.3193,6.1992c2.3594,0,3.999-1.6396,4.6387-3.2393c0.2002-0.4805,0.3203-1.1201,0.3203-1.7998v-11.8379
		h3.5195V633.2559z"/>
	<path fill="#4B5666" d="M1006.0146,644.2539c1.6396-0.1201,3-0.5596,3.8398-1.5195c0.96-1.0801,1.3594-2.5996,1.3594-7.2383
		v-16.2773h3.5195v17.6367c0,3.7598-0.5996,6.1992-2.3193,7.959c-1.5605,1.5596-4.1201,2.1992-5.999,2.1992L1006.0146,644.2539z
		 M1015.1328,613.7793c0,1.1602-0.7998,2.1602-2.2393,2.1602c-1.2793,0-2.1191-1-2.1191-2.1602
		c0-1.2002,0.8799-2.1992,2.1992-2.1992S1015.1328,612.5791,1015.1328,613.7793z"/>
	<path fill="#4B5666" d="M860.7959,667.2188l3.7998,10.8379c0.6396,1.7998,1.1592,3.3994,1.5596,4.999h0.1201
		c0.4395-1.5996,0.999-3.1992,1.6396-4.999l3.7588-10.8379h3.6797l-7.5986,19.3564h-3.3594l-7.3594-19.3564H860.7959z"/>
	<path fill="#4B5666" d="M878.6758,673.2578c0-2.2803-0.04-4.2393-0.1602-6.0391h3.0791l0.1602,3.8389h0.1201
		c0.8799-2.5996,3.0391-4.2393,5.3994-4.2393c0.3594,0,0.6396,0.04,0.959,0.0801v3.3193c-0.3594-0.0801-0.7197-0.0801-1.1992-0.0801
		c-2.4795,0-4.2393,1.8398-4.7197,4.4795c-0.0801,0.4795-0.1201,1.0801-0.1201,1.6396v10.3184h-3.5186V673.2578z"/>
	<path fill="#4B5666" d="M895.835,661.7793c0,1.2002-0.8398,2.1602-2.2393,2.1602c-1.2803,0-2.1201-0.96-2.1201-2.1602
		s0.8799-2.1992,2.2002-2.1992C894.9551,659.5801,895.835,660.54,895.835,661.7793z M891.916,686.5752v-19.3564h3.5186v19.3564
		H891.916z"/>
	<path fill="#4B5666" d="M896.5156,692.2539c1.6396-0.1201,3-0.5596,3.8398-1.5195c0.96-1.0801,1.3594-2.5996,1.3594-7.2383
		v-16.2773h3.5195v17.6367c0,3.7598-0.5996,6.1992-2.3193,7.959c-1.5605,1.5596-4.1201,2.1992-5.999,2.1992L896.5156,692.2539z
		 M905.6338,661.7793c0,1.1602-0.7998,2.1602-2.2393,2.1602c-1.2793,0-2.1191-1-2.1191-2.1602c0-1.2002,0.8799-2.1992,2.1992-2.1992
		S905.6338,660.5791,905.6338,661.7793z"/>
	<path fill="#4B5666" d="M912.9541,677.5371c0.0801,4.7588,3.0801,6.7188,6.6387,6.7188c2.5205,0,4.0801-0.4404,5.3594-1
		l0.6396,2.5195c-1.2393,0.5596-3.3994,1.2393-6.4785,1.2393c-5.959,0-9.5186-3.959-9.5186-9.7979s3.4395-10.3984,9.0791-10.3984
		c6.3584,0,7.998,5.5195,7.998,9.0791c0,0.7197-0.04,1.2393-0.1201,1.6396H912.9541z M923.2725,675.0176
		c0.04-2.2002-0.9199-5.6797-4.8789-5.6797c-3.5996,0-5.1191,3.2393-5.3994,5.6797H923.2725z"/>
	<path fill="#4B5666" d="M947.7119,658.1797v23.3965c0,1.7197,0.0801,3.6797,0.1602,4.999h-3.1191l-0.1602-3.3594h-0.1201
		c-1.04,2.1592-3.3594,3.7988-6.5195,3.7988c-4.6787,0-8.3184-3.959-8.3184-9.8379c-0.04-6.4385,4-10.3584,8.6787-10.3584
		c3,0,4.959,1.4004,5.8389,2.9199h0.0801v-11.5586H947.7119z M944.2324,675.0967c0-0.4395-0.04-1.0391-0.1602-1.4795
		c-0.5195-2.1992-2.4395-4.0391-5.0791-4.0391c-3.6387,0-5.7988,3.1992-5.7988,7.4385c0,3.9199,1.96,7.1592,5.7188,7.1592
		c2.3604,0,4.5195-1.5996,5.1592-4.1992c0.1201-0.4805,0.1602-0.96,0.1602-1.5195V675.0967z"/>
	<path fill="#4B5666" d="M953.5947,672.458c0-2.04-0.04-3.6396-0.1602-5.2393h3.1191l0.2002,3.1992h0.0801
		c0.96-1.7998,3.1992-3.5996,6.3984-3.5996c2.6797,0,6.8389,1.5996,6.8389,8.2393v11.5176h-3.5195V675.417
		c0-3.1191-1.1592-5.7188-4.4785-5.7188c-2.2803,0-4.0801,1.6396-4.7197,3.5996c-0.1602,0.4395-0.2402,1.0391-0.2402,1.6396v11.6377
		h-3.5186V672.458z"/>
	<path fill="#4B5666" d="M993.3115,676.7373c0,7.1582-4.999,10.2773-9.6387,10.2773c-5.1992,0-9.2783-3.8389-9.2783-9.958
		c0-6.4385,4.2793-10.2383,9.5986-10.2383C989.5518,666.8184,993.3115,670.8574,993.3115,676.7373z M977.9941,676.9365
		c0,4.2393,2.3994,7.4395,5.8389,7.4395c3.3594,0,5.8789-3.1602,5.8789-7.5195c0-3.2793-1.6396-7.3984-5.7988-7.3984
		C979.7939,669.458,977.9941,673.2979,977.9941,676.9365z"/>
	<path fill="#4B5666" d="M997.2744,683.0156c1.0801,0.6396,2.9199,1.3604,4.6797,1.3604c2.5195,0,3.7188-1.2402,3.7188-2.8799
		c0-1.6797-1-2.5596-3.5596-3.5195c-3.5186-1.2793-5.1582-3.1592-5.1582-5.4795c0-3.1191,2.5596-5.6787,6.6787-5.6787
		c1.959,0,3.6787,0.5205,4.7188,1.2002l-0.8398,2.5596c-0.7598-0.4805-2.1592-1.1602-3.959-1.1602
		c-2.0801,0-3.1992,1.2002-3.1992,2.6396c0,1.5996,1.1191,2.3193,3.6387,3.3193c3.3193,1.2402,5.0791,2.9199,5.0791,5.7988
		c0,3.4395-2.6797,5.8389-7.1982,5.8389c-2.1201,0-4.0791-0.5596-5.4395-1.3594L997.2744,683.0156z"/>
	<path fill="#4B5666" d="M1017.834,662.5791v4.6396h5.0391v2.6797h-5.0391v10.4375c0,2.3994,0.6797,3.7598,2.6396,3.7598
		c0.959,0,1.5195-0.0801,2.0391-0.2402l0.1602,2.6797c-0.6797,0.2402-1.7598,0.4795-3.1191,0.4795
		c-1.6396,0-2.96-0.5596-3.7998-1.4795c-0.96-1.0801-1.3594-2.7998-1.3594-5.0791v-10.5576h-3v-2.6797h3v-3.5996L1017.834,662.5791z
		"/>
</g>
<path fill-rule="evenodd" clip-rule="evenodd" fill="#4B5666" d="M991.1162,481.8281c-0.127,0-0.2627-0.0088-0.4053-0.0303
	l-5.4014-0.7549l-0.001,39.4395c0,1.5439-1.2178,3.1426-2.7061,3.5537l-39.6816,10.9277c-0.7441,0.2041-1.7266,0.3086-2.707,0.3086
	c-0.9814,0-1.9619-0.1045-2.707-0.3086l-39.6797-10.9277c-1.4902-0.4111-2.707-2.0098-2.707-3.5537l0.001-39.4395l-5.4033,0.7549
	c-0.1426,0.0215-0.2773,0.0303-0.4043,0.0303c-1.2461,0-1.7881-0.918-1.2031-2.1904l7.5938-16.5352
	c0.6445-1.4033,2.3887-2.8887,3.8789-3.2979l39.6797-10.9307c0.249-0.0684,0.4795-0.1016,0.6904-0.1016
	c0.0938,0,0.1777,0.0137,0.2617,0.0273c0.085-0.0137,0.168-0.0273,0.2607-0.0273c0.2119,0,0.4424,0.0332,0.6904,0.1016
	l39.6807,10.9307c1.4902,0.4092,3.2354,1.8945,3.8799,3.2979l7.5938,16.5352C992.9053,480.9102,992.3643,481.8281,991.1162,481.8281
	z M901.1406,515.9834c0,1.0234,0.8301,1.8525,1.8535,1.8525c1.0244,0,1.8535-0.8291,1.8535-1.8525v-17.6865
	c0-1.0244-0.8291-1.8535-1.8535-1.8535c-1.0234,0-1.8535,0.8291-1.8535,1.8535V515.9834z M900.5654,463.3779
	c-0.4375,0.1221-1.3037,0.8594-1.4941,1.2715l-5.9365,12.9268l37.0947-5.2021c0.1895-0.0635,0.5186-0.3457,0.6094-0.5234
	l5.6143-18.3594L900.5654,463.3779z M940.5273,474.6533l-0.3125-1.0225v54.7773c0.6484,0,1.0752-0.0752,1.1729-0.1006
	l38.1426-10.5049v-31.7363l-30.6758-4.3037C945.1318,481.2412,941.6289,478.251,940.5273,474.6533z M981.3584,464.6494
	c-0.1904-0.4121-1.0566-1.1494-1.4951-1.2715l-35.8877-9.8867l5.6152,18.3594c0.0898,0.1777,0.4199,0.46,0.6104,0.5234
	l37.0928,5.2021L981.3584,464.6494z"/>
</svg>
