<?xml version="1.0" encoding="utf-8"?>
<!-- Generator: Adobe Illustrator 15.0.0, SVG Export Plug-In . SVG Version: 6.00 Build 0)  -->
<!DOCTYPE svg PUBLIC "-//W3C//DTD SVG 1.1//EN" "http://www.w3.org/Graphics/SVG/1.1/DTD/svg11.dtd">
<svg version="1.1" id="Layer_1" xmlns="http://www.w3.org/2000/svg" xmlns:xlink="http://www.w3.org/1999/xlink" x="0px" y="0px"
	 width="1110px" height="1110px" viewBox="0 0 1110 1110" enable-background="new 0 0 1110 1110" xml:space="preserve">
<g>
	<defs>
		<rect id="SVGID_1_" width="1110" height="1110"/>
	</defs>
	<clipPath id="SVGID_2_">
		<use xlink:href="#SVGID_1_"  overflow="visible"/>
	</clipPath>
	<circle clip-path="url(#SVGID_2_)" fill="#4B5666" cx="555" cy="555" r="555"/>
	<path clip-path="url(#SVGID_2_)" fill="#FBD35C" d="M181.4302,181.4199c206.48-206.48,540.6597-206.48,747.1401,0.0103
		L555.0098,555L181.4302,181.4199z"/>
	<path clip-path="url(#SVGID_2_)" fill="#A4D970" d="M928.5801,181.4302c206.4805,206.48,206.4805,540.6499-0.0098,747.1401L555,555
		L928.5801,181.4302z"/>
	<path clip-path="url(#SVGID_2_)" fill="#9EBEED" d="M928.5703,928.5703c-206.4805,206.4893-540.6602,206.4795-747.1401,0L555,555
		L928.5703,928.5703z"/>
	<path clip-path="url(#SVGID_2_)" fill="#FA7977" d="M181.4302,928.5703c-206.4902-206.4805-206.48-540.6504,0-747.1401L555,555
		L181.4302,928.5703z"/>
	<circle clip-path="url(#SVGID_2_)" fill="#4B5666" cx="555" cy="555" r="187.5801"/>
	<path clip-path="url(#SVGID_2_)" fill="#4B5666" d="M517.4102,100.54c-5.8901,4.3501-9.2603,11.1602-9.2603,18.6699
		c0,1.2402-1.0098,2.25-2.25,2.25c-1.2397,0-2.2397-1.0098-2.2397-2.25c0-8.9502,4.04-17.0698,11.0801-22.2798
		c1-0.7402,2.3999-0.5303,3.1396,0.4697C518.6201,98.3901,518.4102,99.7998,517.4102,100.54z M579.3604,85.1099
		c-9.5508,0-21.9307,5.6304-24.3604,15.1001c-2.4399-9.4697-14.8101-15.1001-24.3599-15.1001
		c-18.8301,0-34.1001,14.6201-34.1001,34.1001c0,22.9302,13.5601,36.96,28.3398,48.3501c8.8604,6.8301,28.54,22.29,30.1001,22.29
		c0.0103,0,0.0103,0,0.02,0s0.0195,0,0.0195,0c1.5605,0,21.2402-15.46,30.1006-22.29
		c14.7803-11.3901,28.3398-25.4199,28.3398-48.3501C613.46,99.73,598.1904,85.1099,579.3604,85.1099z"/>
	<path clip-path="url(#SVGID_2_)" fill="#4B5666" d="M188.8701,514.79c-5.7603-3.6499-9.3301-10.1001-9.3301-16.9102
		c0-1.2397-1-2.25-2.2402-2.25c-1.2397,0-2.25,1.0103-2.25,2.25c0,8.4502,4.48,16.4502,11.7002,20.8799l0.46,0.2705l0.6699,0.0698
		c0.0601,0.0098,0.1299,0.0098,0.1899,0.0098c1.1504,0,2.0903-0.8901,2.1899-2.0601
		C190.3501,516.0601,189.75,515.1602,188.8701,514.79z M223.73,499.5801c0,9.6396-5.21,18.54-13.6099,23.29
		c-0.6401,0.1099-1.1802,0.1602-1.46,0.1797h-23.3403c-0.2598-0.0195-0.7998-0.0698-1.4497-0.1797
		c-8.3999-4.75-13.6104-13.6504-13.6104-23.29c0-3.3999,0.6401-6.6401,1.8003-9.6299h49.8701
		C223.0898,492.9399,223.73,496.1802,223.73,499.5801z M209,470.75c-2.6001-1.0898-4.2998-3.6401-4.2998-6.46v-21.71H189.29v21.71
		c0,2.8198-1.7002,5.3701-4.3101,6.46c-11.6699,4.8701-19.2202,16.1802-19.2202,28.8301c0,11.3398,6.1802,21.8101,16.1201,27.3198
		c0.1499,0.0801,0.6299,0.29,1.1001,0.3701c1.0298,0.1802,1.8599,0.25,2.1699,0.27h11.8403h11.8496
		c0.2803-0.02,1.1201-0.0898,2.1699-0.27c0.4604-0.0801,0.9404-0.29,1.0903-0.3701c9.9399-5.5098,16.1201-15.98,16.1201-27.3198
		C228.2202,486.9399,220.6802,475.6201,209,470.75z M206.8301,432.1099h-19.6699c-1.2402,0-2.25,1-2.25,2.2402
		c0,1.2397,1.0098,2.25,2.25,2.25h19.6699c1.2397,0,2.2397-1.0103,2.2397-2.25
		C209.0698,433.1099,208.0698,432.1099,206.8301,432.1099z M235.2202,499.5801c0,14.3999-7.9702,26.9297-19.73,33.4502
		c0,0-1.4302,0.8096-3.29,1.1396c-1.8101,0.3101-3.1504,0.3701-3.1504,0.3701h-12.0596h-12.0503c0,0-1.3398-0.0601-3.1499-0.3701
		c-1.8599-0.3198-3.29-1.1396-3.29-1.1396c-11.77-6.5205-19.73-19.0503-19.73-33.4502c0-15.8999,9.71-29.5303,23.52-35.29v-21.71
		c-1.8799,0-3.3999-1.5303-3.3999-3.3999v-5.98c0-1.8804,1.52-3.4004,3.3999-3.4004h29.3999c1.8799,0,3.4102,1.52,3.4102,3.4004
		v5.98c0,1.8696-1.5303,3.3999-3.4102,3.3999v21.71C225.5098,470.0498,235.2202,483.6802,235.2202,499.5801z"/>
	<path clip-path="url(#SVGID_2_)" fill="#4B5666" d="M592.1904,835.7305c0,0.0391,0,0.0791,0,0.1191v22.0908
		c0,4.4092-1.2607,13.21-9.6602,22.6299c-9.1699,10.2695-22.4805,15.9102-27.5205,17.79L555,808.0098h37.1904V835.7305z
		 M531.1499,881.0303c-0.4302,0.3799-0.96,0.5693-1.4897,0.5693c-0.6201,0-1.23-0.25-1.6802-0.75
		c-8.8999-9.9697-10.23-19.3896-10.23-24.1299c0-1.2295,1.0098-2.2393,2.25-2.2393s2.2402,1.0098,2.2402,2.2393
		c0,4.1006,1.1797,12.2803,9.0898,21.1406C532.1602,878.7803,532.0801,880.2002,531.1499,881.0303z M595.79,801.0098h-81.5898
		c-1.8701,0-3.3901,1.5205-3.3901,3.4004l0.0098,31.4395c0,0,0,0,0,0.0107c0,9.4395,0,18.9092,0,22.0801
		c0,7.0195,2.3701,17.1299,11.4302,27.29c13,14.5596,32.75,20.5293,32.75,20.5293s19.7598-5.9795,32.75-20.5293
		c9.0703-10.1602,11.4404-20.2705,11.4404-27.29c0-3.1709,0-12.6406,0-22.0801c0-0.0107,0-0.0107,0-0.0107l-0.0107-31.4395
		C599.1797,802.5303,597.6699,801.0098,595.79,801.0098z"/>
	<path clip-path="url(#SVGID_2_)" fill="#FFFFFF" d="M456.73,541.4302L443.1699,506h-0.2197
		c0.2598,2.8101,0.3799,6.1499,0.3799,10.0098v25.4204h-4.29v-39.9604h7l12.6602,32.9702h0.2197l12.7603-32.9702h6.9497v39.9604
		H473.98v-25.75c0-2.9502,0.1299-6.1602,0.3799-9.6201h-0.2197l-13.6699,35.3701H456.73z"/>
	<path clip-path="url(#SVGID_2_)" fill="#FFFFFF" d="M492.4302,521.3999c0,5.4102,1.1499,9.5103,3.46,12.3101
		c2.2998,2.7998,5.6499,4.1899,10.0498,4.1899c4.4199,0,7.77-1.3901,10.0298-4.1802c2.2603-2.7896,3.3901-6.8999,3.3901-12.3296
		c0-5.3701-1.1299-9.4502-3.3799-12.23c-2.25-2.7803-5.5801-4.1699-9.9897-4.1699c-4.4302,0-7.8003,1.3999-10.1001,4.1997
		C493.5801,511.9902,492.4302,516.0601,492.4302,521.3999z M524.2803,521.3999c0,6.3901-1.6201,11.4199-4.8604,15.0903
		c-3.23,3.6597-7.73,5.4897-13.4897,5.4897c-5.8804,0-10.4302-1.7998-13.6201-5.3999c-3.2002-3.6001-4.8003-8.6802-4.8003-15.2402
		c0-6.5,1.6001-11.5498,4.8101-15.1299s7.7603-5.3701,13.6704-5.3701c5.7397,0,10.2197,1.8203,13.4497,5.4702
		C522.6602,509.9502,524.2803,514.98,524.2803,521.3999z"/>
	<path clip-path="url(#SVGID_2_)" fill="#FFFFFF" d="M560.1699,521.23c0-5.21-1.3096-9.1401-3.9297-11.7798
		c-2.6104-2.6401-6.5-3.96-11.6504-3.96h-6.7598v31.9199h5.6602c5.54,0,9.6997-1.3501,12.4902-4.0801
		C558.7695,530.6001,560.1699,526.5698,560.1699,521.23z M565.0898,521.0698c0,6.6001-1.79,11.6401-5.3701,15.1304
		c-3.5801,3.4897-8.7397,5.23-15.46,5.23h-11.0698v-39.9604h12.2402c6.2197,0,11.0503,1.7202,14.4897,5.1602
		C563.3701,510.0801,565.0898,514.8901,565.0898,521.0698z"/>
	<polygon clip-path="url(#SVGID_2_)" fill="#FFFFFF" points="596.2803,541.4302 574,541.4302 574,501.4697 596.2803,501.4697 
		596.2803,505.5898 578.6504,505.5898 578.6504,518.4697 595.21,518.4697 595.21,522.5698 578.6504,522.5698 578.6504,537.2803 
		596.2803,537.2803 	"/>
	<path clip-path="url(#SVGID_2_)" fill="#FFFFFF" d="M609.7803,520.8198h6.3701c3.2793,0,5.6895-0.6499,7.2197-1.9497
		c1.5303-1.3101,2.29-3.2603,2.29-5.8701c0-2.6401-0.7705-4.54-2.3301-5.71c-1.5605-1.1699-4.0605-1.75-7.5098-1.75h-6.04V520.8198z
		 M609.7803,524.8101v16.6201h-4.6406v-39.9604h10.96c4.9004,0,8.5205,0.9302,10.8604,2.8105
		c2.3398,1.8799,3.5205,4.6997,3.5205,8.4795c0,5.2803-2.6807,8.8501-8.04,10.71l10.8496,17.9604h-5.4902l-9.6797-16.6201H609.7803z
		"/>
	<path clip-path="url(#SVGID_2_)" fill="#FFFFFF" d="M670.96,541.4302h-5.2998l-21.8398-33.54h-0.2207
		c0.29,3.9399,0.4307,7.5498,0.4307,10.8198v22.7202h-4.29v-39.9604h5.25l21.79,33.4004H667c-0.04-0.4902-0.1201-2.0703-0.25-4.7402
		s-0.1699-4.5801-0.1396-5.73v-22.9302h4.3496V541.4302z"/>
	<path clip-path="url(#SVGID_2_)" fill="#FFFFFF" d="M503.2002,591.7197l-4.6504-12.3799
		c-0.5996-1.5703-1.2197-3.4902-1.8496-5.7695c-0.4004,1.75-0.98,3.6699-1.73,5.7695l-4.7002,12.3799H503.2002z M509.6201,608.6104
		l-4.9702-12.71h-16.02l-4.9199,12.71h-4.7002l15.8003-40.1299h3.9102l15.7197,40.1299H509.6201z"/>
	<path clip-path="url(#SVGID_2_)" fill="#FFFFFF" d="M537.5098,587.6699h13.5801v19.4404c-2.1099,0.6699-4.27,1.1895-6.4497,1.5293
		c-2.1899,0.3408-4.7202,0.5205-7.6001,0.5205c-6.0498,0-10.7598-1.7998-14.1299-5.4004
		c-3.3799-3.5996-5.0601-8.6396-5.0601-15.1299c0-4.1494,0.8301-7.79,2.5-10.9199s4.0698-5.5098,7.1997-7.1602
		c3.1401-1.6494,6.8101-2.4795,11.02-2.4795c4.27,0,8.2402,0.79,11.9204,2.3496l-1.8003,4.1104
		c-3.6099-1.5303-7.0801-2.2998-10.4199-2.2998c-4.8701,0-8.6699,1.4492-11.3999,4.3496s-4.1001,6.9102-4.1001,12.0498
		c0,5.4004,1.3198,9.4902,3.9497,12.2803c2.6304,2.7803,6.5,4.1797,11.6001,4.1797c2.77,0,5.48-0.3203,8.1201-0.96v-12.2998H537.5
		L537.5098,587.6699z"/>
	<rect x="560.6904" y="568.6504" clip-path="url(#SVGID_2_)" fill="#FFFFFF" width="4.6396" height="39.96"/>
	<polygon clip-path="url(#SVGID_2_)" fill="#FFFFFF" points="576.2998,608.6104 576.2998,568.6504 580.9404,568.6504 
		580.9404,604.4004 598.5703,604.4004 598.5703,608.6104 	"/>
	<polygon clip-path="url(#SVGID_2_)" fill="#FFFFFF" points="627.6299,608.6104 605.3496,608.6104 605.3496,568.6504 
		627.6299,568.6504 627.6299,572.7695 610,572.7695 610,585.6504 626.5703,585.6504 626.5703,589.75 610,589.75 610,604.46 
		627.6299,604.46 	"/>
	<path clip-path="url(#SVGID_2_)" fill="#4B5666" d="M962.8301,449.02c-0.2305-0.5-1.2705-1.3901-1.8105-1.54l-43.46-11.9702
		l6.8008,22.2305c0.1094,0.2197,0.5098,0.5596,0.7393,0.6396l44.9199,6.3003L962.8301,449.02z M913.3896,461.1401l-0.3799-1.2402
		V526.23c0.7803,0,1.2998-0.0898,1.4199-0.1201l46.1904-12.7197V474.96l-37.1504-5.21
		C918.96,469.1099,914.7197,465.4902,913.3896,461.1401z M865,447.48c-0.5303,0.1499-1.5801,1.04-1.8096,1.54L856,464.6802
		l44.9199-6.3003c0.2305-0.0801,0.6299-0.4199,0.7402-0.6396l6.7998-22.2305L865,447.48z M865.6904,511.1899
		c0,1.23,1.0098,2.2402,2.25,2.2402c1.2393,0,2.2393-1.0103,2.2393-2.2402V489.77c0-1.2397-1-2.25-2.2393-2.25
		c-1.2402,0-2.25,1.0103-2.25,2.25V511.1899z M974.6504,469.8301c-0.1602,0-0.3203-0.02-0.4902-0.04l-6.54-0.9199v47.7598
		c0,1.8701-1.4805,3.8101-3.2803,4.3101l-48.0498,13.23c-0.9004,0.2402-2.0898,0.3701-3.2803,0.3701
		c-1.1797,0-2.3701-0.1299-3.2695-0.3701l-48.0498-13.23c-1.8105-0.5-3.2803-2.4399-3.2803-4.3101v-47.7598l-6.54,0.9199
		c-0.1699,0.02-0.3398,0.04-0.4902,0.04c-1.5098,0-2.1699-1.1201-1.46-2.6602l9.2002-20.02c0.7803-1.6997,2.8896-3.5,4.6895-3.9897
		l48.0508-13.2402c0.2998-0.0801,0.5801-0.1201,0.8398-0.1201c0.1094,0,0.21,0.02,0.3096,0.0303
		c0.1104-0.02,0.21-0.0303,0.3203-0.0303c0.25,0,0.5303,0.04,0.8301,0.1201l48.0596,13.2402
		c1.7998,0.4897,3.9102,2.29,4.6904,3.9897l9.2002,20.02C976.8096,468.71,976.1602,469.8301,974.6504,469.8301z"/>
</g>
<g>
	<path fill-rule="evenodd" clip-rule="evenodd" fill="#4B5666" d="M529.9336,209.9736c2.168-0.1685,0.4531,3.5464,0.9995,4.9995
		c-3.7222,1.2773-6.8022,3.1963-10.9985,3.9995c-2.4805,0.7676,1.8242,2.7446,2.9995,3.9995
		c2.6309,2.8081,5.3516,5.2417,4.9995,11.9985c-0.9722,0.0273-0.7759,1.2236-1,1.9995c-3.876,2.79-9.8975,3.4346-16.9976,2.9995
		c-0.4067-1.9263-3.8765-0.7896-3-3.999c-3.7856,1.8921-5.4116,1.4014-9.9985,0.9995c-2.5322-2.7461-3.5049-5.5103-2-9.9985
		c4.2246-2.7744,8.271-5.7275,13.9985-6.999c-0.6968,5.0293,1.6968,6.9688,1,11.9985c0.7983,4.6035,11.9956,3.9268,12.998,0
		c-1.124-4.542-5.2793-6.0527-7.999-8.999c-1.4399-0.2261-0.3481-2.9844-1.9995-2.9995
		C515.0254,213.0635,525.2852,214.3247,529.9336,209.9736z M498.937,231.9712c2.8965,2.396,7.5449,0.1411,5.9995-4.9995
		C501.9126,227.6143,499.166,228.5337,498.937,231.9712z"/>
	<path fill-rule="evenodd" clip-rule="evenodd" fill="#4B5666" d="M467.9409,212.9736c1.4639,0.8691,3.1694,1.4966,3,3.999
		c-2.3232,1.9756-2.6768,1.9756-4.9995,0C465.2129,214.2451,467.9282,214.96,467.9409,212.9736z"/>
	<path fill-rule="evenodd" clip-rule="evenodd" fill="#4B5666" d="M464.9414,217.9727c1.4639,0.8696,3.1689,1.4971,2.9995,3.9995
		c-1.9868,0.0132-1.271,2.728-3.9995,2C460.8667,221.3403,463.2681,220.6045,464.9414,217.9727z"/>
	<path fill-rule="evenodd" clip-rule="evenodd" fill="#4B5666" d="M470.9409,217.9727c1.4634,0.8696,3.1689,1.4971,2.9995,3.9995
		c-2.3228,1.9756-2.6768,1.9756-4.9995,0C468.2129,219.2441,470.9277,219.9595,470.9409,217.9727z"/>
	<path fill-rule="evenodd" clip-rule="evenodd" fill="#4B5666" d="M442.9443,219.9727c1.2446,2.3481,1.6196,6.4932,2.9995,8.9985
		c1.627,2.9536,2.7949,6.7812,7.999,5.9995c2.5015-0.0596,1.3491-2.1304,1.9995-3.9995c0.2656-0.7617-0.4316-2.3325,0-2.9995
		c0.269-0.416,2.4941,0.2417,2-1c4.9062-0.5732,1.04,7.6255,4.9995,7.999c3.1235,0.4575,3.1963-2.1362,2.9995-4.9995
		c-0.145-2.8115,2.4487-2.8838,4.9995-2.9995c0.3076,3.3584-1.335,8.6675,2.9995,7.999c2.916-1.417-1.2637-9.9292,2.9995-9.999
		c5.5615,0.2251,2.8848,11.9365,1,13.9985c-1.1626-0.1626-1.7788,0.2207-2,0.9995c-3.1592,0.1602-6.0347,0.0356-6.999-1.9995
		c-1.9038,0.4292-2.5122,2.1538-4.9995,1.9995c-3.1455,0.4795-3.9082-1.4238-5.999-1.9995
		c-2.1621,0.8379-3.4106,2.5889-6.999,1.9995c-3.7354,1.0693-2.8501-2.4824-5.9995-1.9995
		c-3.0708,1.3276-15.6299,5.6533-13.998-2.9995c1.8018-1.1812,7.874,1.1543,10.9985-1c-0.064-4.9355-1.6841-8.3145-3.9995-10.9985
		c-0.1626-1.1626,0.2207-1.7788,1-2C439.8345,220.1958,441.2026,219.8975,442.9443,219.9727z"/>
	<path fill-rule="evenodd" clip-rule="evenodd" fill="#4B5666" d="M418.9473,226.9717c-1.9868,0.0127-1.2715,2.728-3.9995,1.9995
		c-0.4429-0.8901-0.8779-1.7881-2-1.9995C412.7603,222.0742,419.1348,222.0742,418.9473,226.9717z"/>
	<path fill-rule="evenodd" clip-rule="evenodd" fill="#4B5666" d="M564.9287,224.9717c0.1318,2.4653,0.1514,4.8179-1,5.9995
		c0.3066,2.3057-2.8887,1.1108-2.999,2.9995c0.8594,2.0649,6.959,1.0552,7.999,0c2.71-1.3477,2.3682-7.8081,5.999-7.999
		c0.9746-0.0513,1.9268-1.5127,4.999-1c4.6348,0.7739,6.5859,4.8442,6,11.9985c-1.4404,0.5601-2.4404,1.5601-3,2.9995
		c-3.6299-0.0361-7.8936,0.561-8.999-1.9995c-3.3516,0.6675-4.8701,2.7324-9.999,1.9995c-0.3047-0.0435-1.8271,0.2109-1.999,0
		c-0.8594-1.0498-1.3525-0.6416-3-0.9995c-0.8281-0.1802-0.9824-0.9722-2-1c-5.1279-0.1392-10.0088,3.4971-15.9976,1.9995
		c-1.4814-0.0239-0.4395,2.0654-1,3c-0.3403,0.5669-1.6211,0.5093-1.9995,1c-2.4209,3.1348-4.748,5.3052-10.999,5.999
		c0.8267-2.8262-1.4092-2.5903-1-4.9995c4.5376,0.5376,5.9897-2.0093,8.999-2.9995c-0.1626-1.1626,0.2207-1.7788,1-2
		c1.3105-4.3672-2.2207-9.0342,0-10.9985c4.6826-2.9023,3.7944,3.6475,5.999,5.9995c3.1289-0.2046,7.3403,0.6743,8.999-1
		c-1.292-2.0405-4.8472-1.8184-3.9995-5.999C547.502,220.7568,560.373,222.5439,564.9287,224.9717z M559.9297,227.9717
		c-2.3906,0.6089-7.2549-1.2554-7.999,0.9995C553.7188,231.6182,559.2695,231.6968,559.9297,227.9717z M580.9268,234.9707
		c0.3193-2.3188-0.1602-3.8389-1-4.9995C573.3896,229.3545,574.4092,236.2705,580.9268,234.9707z"/>
	<path fill-rule="evenodd" clip-rule="evenodd" fill="#4B5666" d="M659.917,227.9717c0.3867,2.0703-0.1396,3.1699-1,3.9995
		c-1.1689,1.127-4.2979,1.0688-5.999,1.9995c-0.3086,0.1689-0.3633,0.7061-1,1c-1.0244,0.4731-2.4434,1.918-3.999,1.9995
		c-2.1895,0.1152-8.4502,3.5415-12.999,2.9995c-2.3926-0.2847-4.5645-0.9561-5.999-2.9995c-3.6367,3.4653-17.4551,4.0591-23.9971,1
		c-1.207-0.5645-2.0508-0.2744-3-1c-0.9844-0.7534-3.6719-4.5205-2.999-8.9985c0.1045-0.6982,0.6279-4.5449,2.999-3.9995
		c0.1621,1.1714,1.8232,0.8433,3,0.9995c-0.4854,2.2754-1.9834,5.1079,0,6.9995c3.7656,4.3452,15.8525,3.5977,20.9971,0.9995
		c2.8311,0.1646-0.8301-6.1631,2-5.999c0.667,0,1.333,0,2,0c4.3252-0.6592,0.3271,7.0054,3,7.999
		c7.9277,0.5952,12.335-2.3301,17.9971-3.9995c-1.0078-2.3257-3.4414-3.2241-6.999-2.9995
		c-2.0068-0.3403-3.1279,0.2041-2.999,1.9995c-1.7939,0.127-2.1094-1.2241-4-1c-2.5137-2.6313,2.5078-3.3677,3-5.999
		c6.8242-0.4917,11.707,0.9575,14.998,3.9995C656.3711,227.5186,660.0859,225.8032,659.917,227.9717z"/>
	<path fill-rule="evenodd" clip-rule="evenodd" fill="#4B5666" d="M676.915,234.9707c5.4834-0.1821,4.9814-6.3501,7.999-8.999
		c7.7373-3.4165,13.5654,1.9624,11.998,10.9985c-1.4395,0.5601-2.4395,1.5601-2.999,2.9995
		c-3.6299-0.0361-7.8936,0.561-8.999-1.9995c-3.2773,0.0562-3.8223,2.8438-7.999,1.9995c-1.4814-0.0239-0.4395,2.0654-1,3
		c-0.5244,0.8735-2.7803,1.6592-3.999,2.9995c-1.0186,1.1196-1.6367,2.1401-4,2.9995c-3.1357,1.1401-5.2646,1.3535-5.999-3.9995
		c5.0713,0.4058,6.96-2.3716,9.999-3.9995c-0.666-2.1831-3.5986-0.5791-5-1c-0.3066-0.0918-0.0439-0.9492-1-0.9995
		c-0.8291-0.0439-1.6035-1.415-2.999-1c0.1621-1.1626-0.2207-1.7788-1-1.9995c-0.6377-7.8081,4.21-13.7495,10.998-10.999
		C674.835,227.7183,676.7373,230.4824,676.915,234.9707z M667.916,234.9707c1.333,0,2.666,0,4,0
		c-0.0713-2.9292-0.3623-5.6372-4-4.9995C666.6328,231.2847,666.6328,233.6572,667.916,234.9707z M691.9131,234.9707
		c0.3193-2.3188-0.1611-3.8389-1-4.9995C684.376,229.3545,685.3955,236.2705,691.9131,234.9707z"/>
	<path fill-rule="evenodd" clip-rule="evenodd" fill="#4B5666" d="M423.9468,226.9717c0.9995,0,1.9995,0,2.9995,0
		c1.5571,3.126,3.0913,9.4238,1.9995,13.998c-0.0513,0.2148-0.9531,0.1162-0.9995,1c-0.0439,0.8296-1.415,1.6035-1,2.9995
		c-2.9512,1.7827-6.9751,4.0342-10.9985,3.9995c-2.0317-0.0176-6.1284-1.1133-7.999-1.9995c-0.4834-0.229,0.0962-0.9424-1-1
		c-1.5635-0.0825-3.9399-5.9688-3.9995-8.999c-0.0449-2.2886,0.5684-9.915,4.9995-8.9985c0.2471,1.0859,1.9878,0.6782,1.9995,1.9995
		c-0.9722,0.0273-0.7759,1.2241-1,2c-1.1509,1.1816-1.1313,3.5342-0.9995,5.999c0.8257,6.2256,10.0664,7.5073,14.998,3.9995
		c1.0381-2.8184,1.9131-9.355,0-11.9985C422.665,228.3564,423.8916,228.25,423.9468,226.9717z"/>
	<path fill-rule="evenodd" clip-rule="evenodd" fill="#4B5666" d="M618.9219,246.9692c-1.9863,0.0127-1.2715,2.728-3.999,1.9995
		c-0.4434-0.8896-0.8779-1.7881-2-1.9995C612.7354,242.0718,619.1104,242.0718,618.9219,246.9692z"/>
	<path fill-rule="evenodd" clip-rule="evenodd" fill="#4B5666" d="M651.918,246.9692c-1.9863,0.0127-1.2715,2.728-3.999,1.9995
		c-0.4434-0.8896-0.8779-1.7881-2-1.9995C645.7314,242.0718,652.1055,242.0718,651.918,246.9692z"/>
	<path fill-rule="evenodd" clip-rule="evenodd" fill="#4B5666" d="M574.9277,261.9673c-1.9863,0.0132-1.2715,2.728-4,1.9995
		c-0.4424-0.8896-0.877-1.7881-1.999-1.9995C568.7402,257.0698,575.1152,257.0698,574.9277,261.9673z"/>
	<path fill-rule="evenodd" clip-rule="evenodd" fill="#4B5666" d="M496.9375,260.9673c1.4634,0.8696,3.1689,1.4971,2.9995,3.9995
		c-2.3228,1.9756-2.6763,1.9756-4.9995,0C494.2095,262.2388,496.9243,262.9541,496.9375,260.9673z"/>
	<path fill-rule="evenodd" clip-rule="evenodd" fill="#4B5666" d="M542.9316,260.9673c1,0,2,0,2.9995,0
		c3.2407-0.73,1.8838,4.0522,2,5.9995c0.3188,5.3379,0.522,9.9263,0,15.998c-0.127,1.4761,1.1021,5.9634-2,4.999
		c-3.3369,1.0044-3.2783-1.3872-2.9995-3.9995c0-6.6655,0-13.3315,0-19.9976C542.9316,262.9668,542.9316,261.9673,542.9316,260.9673
		z"/>
	<path fill-rule="evenodd" clip-rule="evenodd" fill="#4B5666" d="M583.9268,260.9673c1,0,2,0,2.999,0
		c3.2412-0.73,1.8838,4.0522,2,5.9995c0.3193,5.3379,0.5225,9.9263,0,15.998c-0.127,1.4761,1.1016,5.9634-2,4.999
		c-3.3369,1.0044-3.2783-1.3872-2.999-3.9995c0-6.6655,0-13.3315,0-19.9976C583.9268,262.9668,583.9268,261.9673,583.9268,260.9673z
		"/>
	<path fill-rule="evenodd" clip-rule="evenodd" fill="#4B5666" d="M493.938,265.9668c1.4634,0.8691,3.1689,1.4971,2.9995,3.9995
		c-1.9868,0.0132-1.2715,2.728-3.9995,1.9995C489.8633,269.3345,492.2646,268.5986,493.938,265.9668z"/>
	<path fill-rule="evenodd" clip-rule="evenodd" fill="#4B5666" d="M499.937,265.9668c1.4639,0.8691,3.1694,1.4971,2.9995,3.9995
		c-2.3228,1.9751-2.6763,1.9751-4.999,0C497.209,267.2383,499.9243,267.9536,499.937,265.9668z"/>
	<path fill-rule="evenodd" clip-rule="evenodd" fill="#4B5666" d="M560.9297,287.9639c-1.4814-0.0244-0.4395,2.0654-1,3
		c-0.3398,0.5669-1.6211,0.5093-2,0.9995c-2.4209,3.1353-4.748,5.3057-10.9985,5.9995c0.0859-1.4189,0.1655-2.8315-1-3
		c-1.938-3.7012,2.9692-0.7397,3.9995-1.9995c0.4717-0.5762,3.3174-2.4644,5-2.9995c-0.1631-1.1626,0.2197-1.7793,0.999-2
		c1.3105-4.3672-2.2207-9.0342,0-10.9985c4.6826-2.9023,3.7949,3.647,6,5.9995c4.6113-0.0547,9.7754,0.4429,12.998-1
		c-2.1211-1.9365-6.6729-1.2163-8.999-3.9995c-1.2891-9.1318,3.8242-14.4927,10.999-10.9985c3.3203,3.5264,4.5537,14.5767,1,18.9976
		C574.2324,288.6016,567.2256,287.9272,560.9297,287.9639z M569.9287,274.9658c1.1602,0.8389,2.6807,1.3184,4.999,0.9995
		c0.3193-2.3184-0.1611-3.8384-1-4.999c-1,0-2,0-3,0C571.1523,272.8564,569.8008,273.1719,569.9287,274.9658z"/>
	<path fill-rule="evenodd" clip-rule="evenodd" fill="#4B5666" d="M654.918,266.9668c4.9336,1.6274,14.9648,6.7573,14.998,12.998
		c0.0068,1.3164-0.1514,3.6968-1,4.9995c-0.8945,1.373-2.8438,1.1572-4,2.9995c-3.6152,0.7856-6.4619-0.9106-9.998-1
		c-3.6689-0.0923-6.1562,1.6396-10.999,1c-1.4482-0.1914-1.8496-1.002-2.999-1c-2.041,0.0039-4.4365,1.1616-6,1
		c-2.0391-0.2104-4.2627-0.7168-5.999-1.9995c-2.1934,1.1392-4.085,2.5801-7.999,1.9995c-2.4346-0.5645-5.1436-0.856-4.999-3.9995
		c-3.7861,1.8921-5.4121,1.4019-9.999,1c-2.5322-2.7466-3.5049-5.5103-2-9.9985c4.2246-2.7744,8.2705-5.7275,13.998-6.9995
		c1.0713,5.5952-0.9551,14.2876,5,14.9985c4.6855-0.6475,3.9736-6.6919,6.999-8.999c6.4082-2.8198,8.8691-0.1802,11.998,3.9995
		c1.166,1.5562-0.1426,7.0503,5,4.9995c2.1475-0.0366-1.4014-4.6787-1-4.9995c0.793-0.6348,1.1338-1.4604,1-2.9995
		c2.4014-0.9316,2.6475-4.0186,6.999-3C653.0918,269.1396,655.3271,269.376,654.918,266.9668z M607.9238,279.9648
		c2.8965,2.3965,7.5449,0.1416,5.999-4.999C610.8994,275.6084,608.1523,276.5278,607.9238,279.9648z M659.917,282.9648
		c2.3184,0.3188,3.8389-0.1611,4.999-1c0.6846-4.3501-1.7979-5.5342-3.999-6.999
		C661.3545,278.4028,660.5215,280.5698,659.917,282.9648z M651.918,280.9648c3.2598,0.2603,4.8125-1.187,5-3.9995
		c-1.1611-0.8394-2.6816-1.3188-5-1C651.2178,279.0435,651.2178,277.8872,651.918,280.9648z M636.9199,282.9648
		c0.3193-2.3188-0.1602-3.8389-1-4.9995C629.3828,277.3486,630.4023,284.2646,636.9199,282.9648z"/>
	<path fill-rule="evenodd" clip-rule="evenodd" fill="#4B5666" d="M441.9443,267.9663c0.4204,1.8721,1.1836,3.8311,2,5.9995
		c1.6201,4.3052,2.3452,9.7861,9.9985,8.999c5.2031-1.3623,0.2021-6.895,2.9995-9.999c1.1626,0.1626,1.7793-0.2207,2-1
		c3.7573,1.2373,1.8022,10.1016,0.9995,12.9985c-2.1948,1.9487-6.1123,3.3901-9.9985,2.9995
		c-2.7754-0.2788-3.9209-1.5864-5.999-1.9995c-3.0713,1.3276-15.6304,5.6533-13.9985-2.9995c1.8018-1.1816,7.874,1.1543,10.9985-1
		c-0.0635-4.9355-1.6841-8.3149-3.9995-10.9985c-0.1621-1.1626,0.2207-1.7788,1-2
		C438.8345,268.1895,440.2026,267.8916,441.9443,267.9663z"/>
	<path fill-rule="evenodd" clip-rule="evenodd" fill="#4B5666" d="M527.9336,267.9663c2.4922-0.6172,3.1694,0.8735,4.9995,2
		c2.2261,1.3701,4.7139,4,5.999,6.999c1.085,2.5317,1.3833,5.7778-1.9995,8.999c-0.8149,0.7759-1.6621,0.6655-3,0.9995
		c-0.7026,0.1758-0.8726,0.9731-0.9995,1c-2.2646,0.4844-11.2178,2.1543-9.999-4.999c2.1646-0.9536,9.6001,1.2383,11.9985-2
		C535.3428,273.9688,524.54,274.8491,527.9336,267.9663z"/>
	<path fill-rule="evenodd" clip-rule="evenodd" fill="#4B5666" d="M478.9399,282.9648c1.333,0,2.666,0,3.9995,0
		c2.5015-0.0596,1.3486-2.1309,1.9995-4c0.2651-0.7617-0.4316-2.332,0-2.9995c0.269-0.4155,2.4937,0.2417,1.9995-0.9995
		c4.9062-0.5732,1.04,7.6255,4.9995,7.999c3.124,0.4575,3.1968-2.1367,2.9995-4.9995c-0.145-2.8115,2.4492-2.8838,4.9995-2.9995
		c0.3076,3.3584-1.335,8.667,2.9995,7.999c2.916-1.417-1.2632-9.9292,3-9.999c5.5615,0.2251,2.8843,11.9365,0.9995,13.998
		c-1.1621-0.1621-1.7788,0.2212-1.9995,1c-3.1592,0.1597-6.0347,0.0356-6.999-1.9995c-1.9043,0.4287-2.5122,2.1538-4.9995,1.9995
		c-2.4829,0.1499-4.1494-0.5166-4.9995-1.9995c-3.3315,0.3345-4.4351,2.897-8.9985,1.9995c-1.4814-0.0244-0.4395,2.0654-1,3
		c-0.3403,0.5669-1.6211,0.5093-2,0.9995c-2.2271,2.8848-4.2612,5.187-9.9985,5.9995c-0.4292-1.9043-2.1543-2.5122-2-4.9995
		c5.0718,0.4053,6.9609-2.3716,9.999-3.9995c-0.6655-2.1831-3.5981-0.5796-4.9995-1c-0.3071-0.0923-0.0439-0.9492-1-1
		c-0.8296-0.0435-1.6035-1.415-2.9995-0.9995c0.1626-1.1626-0.2207-1.7788-1-2c-0.6367-7.8081,4.2104-13.749,10.999-10.9985
		C476.8599,275.7124,478.7617,278.4766,478.9399,282.9648z M469.9409,282.9648c1.333,0,2.6665,0,3.9995,0
		c-0.0708-2.9292-0.3623-5.6372-3.9995-4.9995C468.6577,279.2788,468.6577,281.6509,469.9409,282.9648z"/>
	<path fill-rule="evenodd" clip-rule="evenodd" fill="#4B5666" d="M450.9434,290.9639c2.5439,0.1221,3.8774,1.4551,3.9995,3.999
		c-0.8901,0.4434-1.7886,0.8784-2,2C450.1895,295.3857,447.8291,293.3857,450.9434,290.9639z"/>
	<path fill-rule="evenodd" clip-rule="evenodd" fill="#4B5666" d="M457.9424,290.9639c1.4639,0.8691,3.1689,1.4966,2.9995,3.999
		c-2.3228,1.9756-2.6763,1.9756-4.9995,0C455.2144,292.2354,457.9292,292.9502,457.9424,290.9639z"/>
	<path fill-rule="evenodd" clip-rule="evenodd" fill="#4B5666" d="M187.9761,551.9312c1.1748,4.77-5.7876,4.7104-7.999,2.9995
		c-2.9839-0.2231-3.3994,3.6924-5.999,1c-1.3774-3.8682,1.8403-2.8403,2.9995-3.9995c0.5474-0.5479,0.8052-1.0757,1.9995-1
		c1.5474,0.0977,1.7749,1.0044,3,1C184.1025,551.9229,186.9316,550.3872,187.9761,551.9312z"/>
	<path fill-rule="evenodd" clip-rule="evenodd" fill="#4B5666" d="M134.9829,556.9307c1.6665,0,3.3325,0,4.999,0
		c1.1372,7.1953-2.7573,19.4219,3,21.9971c3.1055-0.8936,4.3237-3.6748,4.999-6.999c5.8149-6.4795,16.1157-2.2764,13.9985,8.999
		c-1.4399,0.5596-2.4399,1.5596-3,2.999c-3.6294-0.0361-7.8931,0.5615-8.9985-1.999c-3.3667,0.6318-5.1274,2.8711-9.999,1.999
		c-0.0273-0.9717-1.2236-0.7754-1.9995-1C133.1006,578.1436,135.5762,566.002,134.9829,556.9307z M156.98,578.9277
		c0.3188-2.3193-0.1606-3.8389-1-5C149.4429,573.3115,150.4619,580.2275,156.98,578.9277z"/>
	<path fill-rule="evenodd" clip-rule="evenodd" fill="#4B5666" d="M177.9775,559.9297c7.3599-0.6943,2.6787,10.6533,3.9995,15.998
		c0.6821,2.9844,3.9805,3.3516,7.999,3c4.4429,0.4434-0.6753-8.6738,3.9995-7.999c5.6626-1.6631,1.2876,6.7109,3.9995,7.999
		c1.666,0,3.3325,0,4.999,0c1.23-0.4365,2.0537-1.2803,2-3c2.4751-0.9639-1.3779-3.8398,0-6.999
		c1.4189,0.0859,2.8315,0.165,2.9995-1c3.7427,0.9238,1.3032,8.0293,1.9995,11.999c-2.0386,0.2939-1.9604,2.7051-3.9995,2.999
		c-0.8501-0.1836-0.9429,0.3906-0.9995,1c-4.6367,0.3037-8.6562-0.0098-10.9985-1.999c-2.4399,2.2256-7.1396,2.1924-11.9985,1.999
		c-0.7329-0.9336-1.8184-1.5146-3-1.999C176.248,577.4746,176.1865,565.6367,177.9775,559.9297z"/>
	<path fill-rule="evenodd" clip-rule="evenodd" fill="#4B5666" d="M797.8994,561.9297c2.5449,0.1221,3.8779,1.4551,4,4
		c-0.8896,0.4424-1.7881,0.8779-2,1.999C797.1465,566.3516,794.7852,564.3516,797.8994,561.9297z"/>
	<path fill-rule="evenodd" clip-rule="evenodd" fill="#4B5666" d="M804.8994,561.9297c1.4629,0.8691,3.1689,1.4971,2.999,4
		c-2.3223,1.9746-2.6768,1.9746-4.999,0C802.1709,563.2012,804.8857,563.916,804.8994,561.9297z"/>
	<path fill-rule="evenodd" clip-rule="evenodd" fill="#4B5666" d="M908.8857,561.9297c2.5439,0.1221,3.8779,1.4551,4,4
		c-0.8906,0.4424-1.7891,0.8779-2,1.999C908.1328,566.3516,905.7715,564.3516,908.8857,561.9297z"/>
	<path fill-rule="evenodd" clip-rule="evenodd" fill="#4B5666" d="M915.8848,561.9297c1.4639,0.8691,3.1699,1.4971,3,4
		c-2.3232,1.9746-2.6768,1.9746-4.999,0C913.1572,563.2012,915.8721,563.916,915.8848,561.9297z"/>
	<path fill-rule="evenodd" clip-rule="evenodd" fill="#4B5666" d="M171.978,566.9287c-1.9868,0.0137-1.2715,2.7285-3.9995,2
		c-0.4429-0.8896-0.8779-1.7881-1.9995-2C165.791,562.0312,172.166,562.0312,171.978,566.9287z"/>
	<path fill-rule="evenodd" clip-rule="evenodd" fill="#4B5666" d="M97.9873,563.9297c0.4204,1.8721,1.1836,3.8311,2,5.999
		c1.6201,4.3047,2.3452,9.7861,9.9985,8.999c3.9424,0.2764,0.2891-7.043,2.9995-7.999c0.6665,0,1.3335,0,2,0
		c4.3252-0.6592,0.3271,7.0049,2.9995,7.999c2.8804-0.1191,6.5454,0.5459,7.999-1c2.3936-2.7334-1.9604-6.416,1-8.999
		c1.1621,0.1631,1.7788-0.2207,1.9995-1c3.8672,1.7441,2.0376,11.8496,0,13.999c-2.8896,1.8613-11.5815,3.665-13.998,0
		c-3.3315,0.334-4.4355,2.8965-8.999,1.999c-3.7354,1.0693-2.8496-2.4824-5.999-1.999c-3.0713,1.3271-15.6304,5.6523-13.9985-3
		c1.8018-1.1816,7.8745,1.1543,10.9985-1c-0.0635-4.9355-1.6836-8.3145-3.9995-10.999c-0.1626-1.1621,0.2212-1.7783,1-1.999
		C94.8779,564.1533,96.2456,563.8545,97.9873,563.9297z"/>
	<path fill-rule="evenodd" clip-rule="evenodd" fill="#4B5666" d="M791.9004,563.9297c1.3594,6.6396-1.4629,17.4609,8.999,14.998
		c3.1104-0.2227,1.6895-4.9766,2-7.999c1.666,0,3.333,0,4.999,0c0.1191,2.8799-0.5459,6.5449,1,7.999
		c2.4648,0.1318,4.8174,0.1514,5.999-1c1.3574-0.3096,0.8301-2.5039,1-4c-0.5508-2.2168,1.9092-1.4229,2-2.999
		c5.5107-1.1787,0.7627,7.9033,4.999,7.999c3.124,0.457,3.1963-2.1367,3-5c-0.1455-2.8105,2.4482-2.8838,4.999-2.999
		c0.3076,3.3584-1.335,8.667,3,7.999c2.916-1.417-1.2637-9.9297,2.999-9.999c5.5625,0.2256,2.8848,11.9365,1,13.998
		c-1.1621-0.1621-1.7783,0.2207-1.999,1c-3.1602,0.1602-6.0352,0.0352-7-1.999c-1.9033,0.4287-2.5117,2.1533-4.999,1.999
		c-3.1455,0.4795-3.9082-1.4238-5.999-1.999c-2.0908,0.5752-2.8535,2.4785-5.999,1.999c-2.874,0.207-5.0791-0.2529-6-1.999
		c-3.0547,1.9434-7.7148,2.2832-12.998,1.999c-0.4062-1.9268-3.876-0.79-3-3.999c-7.002,4.0586-12.8145,0.3291-12.998-5
		c-0.2383-6.9336,8.4502-6.7295,11.999-10.998C789.9004,563.9297,790.9004,563.9297,791.9004,563.9297z M781.9023,575.9277
		c2.8955,2.3965,7.5439,0.1416,5.999-4.999C784.877,571.5713,782.1309,572.4902,781.9023,575.9277z"/>
	<path fill-rule="evenodd" clip-rule="evenodd" fill="#4B5666" d="M1019.8721,563.9297c1.5303,6.1348-1.6445,16.9756,7.999,14.998
		c5.2031-1.3623,0.2021-6.8945,3-9.999c1.1621,0.1631,1.7793-0.2207,1.999-1c3.7432,0.9238,1.3037,8.0293,2,11.999
		c-2.0391,0.2939-1.96,2.7051-3.999,2.999c-1.8926,1.7744-6.6045,0.7285-9.999,1c-0.4062-1.9268-3.876-0.79-3-3.999
		c-7.002,4.0586-12.8145,0.3291-12.998-5c-0.2383-6.9336,8.4492-6.7295,11.998-10.998
		C1017.8721,563.9297,1018.8721,563.9297,1019.8721,563.9297z M1009.873,575.9277c2.8965,2.3965,7.5449,0.1416,6-4.999
		C1012.8486,571.5713,1010.1025,572.4902,1009.873,575.9277z"/>
	<path fill-rule="evenodd" clip-rule="evenodd" fill="#4B5666" d="M242.9692,569.9287c0.5347,4.8672-3.9863,4.6787-4.9995,7.999
		c3.8247,0.8418,8.0264,1.3057,12.9985,1c2.7749-3.1279,0.9009-4.96,1-9.999c1.4189,0.0859,2.8315,0.165,2.9995-1
		c3.8672,1.7441,2.0371,11.8496,0,13.999c-5.5938,3.5117-17.3628,2.3398-20.9976-2c-5.0957,1.1396-8.5039,8.1152-2.9995,11.998
		c4.0991,0.0996,8.1958,0.1973,10.9985-1c1.0859,0.248,0.6782,1.9883,2,2c-0.1304,5.6992-10.9097,3.7715-13.9985,3
		c-1.5283-0.3828-2.5449-0.5459-3.9995-2c-0.2974-0.2979-1.8687-1.7607-1.9995-2c-0.4224-0.7715,0.3481-2.1865,0-2.999
		c-0.188-0.4385-0.8975,0.0312-1-1c-0.3379-3.4004,1.2422-7.373,4.9995-9.999c0.2754-3.9414-4.2749-3.0576-3.9995-6.999
		C224.5859,564,241.1899,564.1504,242.9692,569.9287z M236.9702,570.9287c-2.0718,0.5947-6.5688-1.2363-6.9995,1
		C231.8291,574.4785,236.1646,574.4541,236.9702,570.9287z"/>
	<path fill-rule="evenodd" clip-rule="evenodd" fill="#4B5666" d="M958.8799,583.9268c-1.0322,0.0039-0.7021,1.2539-1,2
		c-0.5205,1.3008-1.917,1.2354-2,3.999c-3.5527,0.1133-3.6338,3.6982-7.999,3c-1.6709,2.877-4.0479-1.8564-3.999-3.999
		c4.4219,0.0889,7.2158-1.4502,8.999-4c-1.8164-1.8506-6.0332-1.2988-7.999-2.999c-0.4297-2.3301-1.2529-3.3613-1-6
		c0.6279-6.5488,9.1982-11.6533,12.998-3.999c1.5088,1.8242,1.0605,5.6045,3,6.999c7.1338,2.1348,1.0264-8.9727,6.999-7.999
		c3.6133-0.9473,1.3945,3.9375,2,5.999c1.999,0.29,2.207-1.0684,2.999-2c1.1172-1.3115,2.2832-3.1748,4-4.999
		c1.084-1.1514,1.6514-1.4131,3.999-2c0.7666-0.1914,4.1377-2.2754,5.999,0c0.2705,0.3301,1.6426-0.2588,2,0
		c0.6455,0.4678,3.167,3.292,3,3c1.0674,1.8682,1.0645,6.2256,0,7.999c-0.5088,0.8467-2.1904,1.377-3,2
		c-1.3486,1.0371-1.3857,1.3457-3.999,1.999c-2.2461,0.5615-10.0762,1.4795-13.999,0
		C966.7969,581.7656,963.959,583.4609,958.8799,583.9268z M975.8779,578.9277c4.4463,0.4473,7.2881-0.7109,9.998-2
		c0-1.333,0-2.666,0-3.999C981.5576,570.4043,976.9219,574.9707,975.8779,578.9277z M949.8809,578.9277c1.333,0,2.666,0,3.999,0
		c-0.0703-2.9287-0.3613-5.6367-3.999-5C948.5977,575.2422,948.5977,577.6143,949.8809,578.9277z"/>
	<path fill-rule="evenodd" clip-rule="evenodd" fill="#4B5666" d="M856.8926,578.9277c1.666,0,3.333,0,4.999,0
		c3.9424,0.2764,0.2891-7.043,3-7.999c0.666,0,1.333,0,2,0c4.3252-0.6592,0.3271,7.0049,2.999,7.999c2.333,0,4.666,0,6.999,0
		c1.3779-1.2891,0.9902-4.3428,1-6.999c-1.5791-3.9131,2.5957-2.0703,3-4c3.7432,0.9238,1.3027,8.0293,2,11.999
		c-1.834,1.166-3.3857,2.6133-5,3.999c-4.0898-0.2432-9.6396,0.9736-10.998-1.999c-2.7109,1.2891-5.5527,2.4463-9.999,1.999
		c-1.0322,0.0039-0.7012,1.2539-1,2c-0.5205,1.3008-1.917,1.2354-2,3.999c-3.5527,0.1133-3.6338,3.6982-7.999,3
		c-1.6709,2.877-4.0479-1.8564-3.999-3.999c4.4219,0.0889,7.2158-1.4502,8.999-4c-1.8164-1.8506-6.0332-1.2988-7.999-2.999
		c-3.5078-7.4873,2.625-16.3926,9.998-12.999C854.8125,571.6748,856.7148,574.4395,856.8926,578.9277z M847.8936,578.9277
		c1.333,0,2.666,0,3.999,0c-0.0703-2.9287-0.3613-5.6367-3.999-5C846.6104,575.2422,846.6104,577.6143,847.8936,578.9277z"/>
	<path fill-rule="evenodd" clip-rule="evenodd" fill="#4B5666" d="M897.8877,567.9287c1.4189-0.0859,2.8311-0.165,2.999,1
		c4.8936-0.5312-1.4893,4.707,2,6.999c3.7949,4.4434,14.4834,3.04,20.9971,2c1.1514-1.1816,1.1318-3.5342,1-5.999
		c-1.1455-3.1455,1.5703-2.4297,2-4c4.7646,0.2295,2.957,8.9473,2,11.999c-4.1045,4.4209-16.8711,5.0312-24.9971,2.999
		c-0.6367-0.1592-2.7393-1.0352-4-1.999c-1.1328-0.8672-1.4492-1.8008-1.999-4
		C897.4717,575.2666,896.2578,572.6299,897.8877,567.9287z"/>
	<path fill-rule="evenodd" clip-rule="evenodd" fill="#4B5666" d="M301.9619,568.9287c1,0,1.9995,0,2.9995,0
		c1.9688,3.4814,1.3135,11.6074-1,13.998c-1.1621-0.1621-1.7788,0.2207-1.9995,1c-3.1592,0.1602-6.0347,0.0352-6.999-1.999
		c-1.9043,0.4287-2.5122,2.1533-4.9995,1.999c-3.1455,0.4795-3.9087-1.4238-5.9995-1.999c-2.271,1.7275-5.5859,2.4121-9.9985,1.999
		c-1.4814-0.0244-0.4395,2.0654-1,3c-0.3398,0.5664-1.6211,0.5098-1.9995,1c-2.4209,3.1348-4.748,5.3047-10.9985,5.999
		c0.8262-2.8262-1.4092-2.5908-1-4.999c4.5371,0.5371,5.9893-2.0098,8.999-3c1.7632-3.6865,0.8672-9.0986,0-12.998
		c1.4189,0.085,2.8311,0.165,2.9995-1c2.8042,0.8613,2.127,5.2051,3.9995,6.999c1.6665,0,3.333,0,4.9995,0
		c2.1855-0.1475,2.1465-2.5195,1.9995-5c-0.3042-2.6367,2.0874-2.5781,3.9995-2.999c2.2046,1.4619-0.5874,7.9199,2.9995,7.999
		c3.124,0.457,3.1963-2.1367,2.9995-5c-0.145-2.8105,2.4492-2.8838,4.9995-2.999c0.3076,3.3584-1.335,8.667,2.9995,7.999
		C302.5752,577.541,299.4761,570.4424,301.9619,568.9287z"/>
	<path fill-rule="evenodd" clip-rule="evenodd" fill="#4B5666" d="M170.978,571.9287c4.5767,2.7891,2.7417,10.0312,2,12.998
		c-0.5879,2.3525-1.1294,2.1299-2.9995,4c-0.6538,0.6533-1.248,2.5596-2,2.999c-2.5293,1.4785-6.0947,0.9355-7.999,2
		c0.8262-2.8262-1.4092-2.5908-1-4.999c4.5376,0.5371,5.9897-2.0098,8.999-3c1.7637-3.6865,0.8672-9.0986,0-12.998
		C169.3975,573.0137,170.8101,573.0938,170.978,571.9287z"/>
	<path fill-rule="evenodd" clip-rule="evenodd" fill="#4B5666" d="M938.8818,571.9287c2.7451-1.0439,0.7842,3.0049,2,3.999
		c0.0811,0.0664,0.9805-0.0801,1,0c0.5996,2.458,0.5059,7.126,0,8.999c-0.0713,0.2646-0.9512,0.0771-1,1
		c-0.0674,1.2803-1.668,1.2627-2,2c-0.1846,0.4102,0.3076,1.6963,0,1.999c-0.5771,0.5693-2.334,0.5869-2.999,1
		c-0.5127,0.3193-1.5566,1.8164-2,2c-1.8955,0.7861-4.7676,0.6465-5.999,1c0.8262-2.8262-1.4092-2.5908-1-4.999
		c2.6113,0.418,4.8721-0.624,6.999-2c0.5547-0.3594-0.1562-0.9395,1-1c1.0957-0.0576,0.6699-2.1338,2-2
		c0.4902-4.4902-0.5078-7.4922-1-10.998C937.3018,573.0137,938.7139,573.0938,938.8818,571.9287z"/>
	<path fill-rule="evenodd" clip-rule="evenodd" fill="#4B5666" d="M106.9863,586.9268c2.5439,0.1221,3.8774,1.4551,3.9995,3.999
		c-0.8901,0.4434-1.7886,0.8779-2,2C106.2324,591.3486,103.8721,589.3486,106.9863,586.9268z"/>
	<path fill-rule="evenodd" clip-rule="evenodd" fill="#4B5666" d="M113.9854,586.9268c1.4639,0.8691,3.1689,1.4971,2.9995,3.999
		c-2.3228,1.9756-2.6763,1.9756-4.999,0C111.2573,588.1982,113.9727,588.9131,113.9854,586.9268z"/>
	<path fill-rule="evenodd" clip-rule="evenodd" fill="#4B5666" d="M120.9844,586.9268c2.5444,0.1221,3.8774,1.4551,3.9995,3.999
		c-0.8901,0.4434-1.7881,0.8779-1.9995,2C120.231,591.3486,117.8701,589.3486,120.9844,586.9268z"/>
	<path fill-rule="evenodd" clip-rule="evenodd" fill="#4B5666" d="M127.9834,586.9268c1.4639,0.8691,3.1694,1.4971,3,3.999
		c-2.3228,1.9756-2.6768,1.9756-4.9995,0C125.2554,588.1982,127.9707,588.9131,127.9834,586.9268z"/>
	<path fill-rule="evenodd" clip-rule="evenodd" fill="#4B5666" d="M186.9761,586.9268c2.5444,0.1221,3.8774,1.4551,3.9995,3.999
		c-0.8896,0.4434-1.7881,0.8779-1.9995,2C186.2227,591.3486,183.8623,589.3486,186.9761,586.9268z"/>
	<path fill-rule="evenodd" clip-rule="evenodd" fill="#4B5666" d="M193.9756,586.9268c1.4634,0.8691,3.1689,1.4971,2.9995,3.999
		c-2.3228,1.9756-2.6768,1.9756-4.9995,0C191.2471,588.1982,193.9624,588.9131,193.9756,586.9268z"/>
	<path fill-rule="evenodd" clip-rule="evenodd" fill="#4B5666" d="M206.9736,590.9258c-1.9868,0.0137-1.2715,2.7285-3.9995,2
		c-0.4429-0.8896-0.8779-1.7881-1.9995-2C200.7866,586.0283,207.1616,586.0283,206.9736,590.9258z"/>
	<path fill-rule="evenodd" clip-rule="evenodd" fill="#4B5666" d="M246.9688,586.9268c2.5444,0.1221,3.8774,1.4551,3.9995,3.999
		c-0.8901,0.4434-1.7886,0.8779-2,2C246.2148,591.3486,243.8545,589.3486,246.9688,586.9268z"/>
	<path fill-rule="evenodd" clip-rule="evenodd" fill="#4B5666" d="M253.9678,586.9268c1.4639,0.8691,3.1694,1.4971,2.9995,3.999
		c-2.3228,1.9756-2.6763,1.9756-4.999,0C251.2397,588.1982,253.9551,588.9131,253.9678,586.9268z"/>
	<path fill-rule="evenodd" clip-rule="evenodd" fill="#4B5666" d="M858.8926,586.9268c2.5439,0.1221,3.877,1.4551,3.999,3.999
		c-0.8896,0.4434-1.7881,0.8779-2,2C858.1387,591.3486,855.7783,589.3486,858.8926,586.9268z"/>
	<path fill-rule="evenodd" clip-rule="evenodd" fill="#4B5666" d="M865.8916,586.9268c1.4629,0.8691,3.1689,1.4971,2.999,3.999
		c-2.3223,1.9756-2.6758,1.9756-4.999,0C863.1631,588.1982,865.8789,588.9131,865.8916,586.9268z"/>
	<path fill-rule="evenodd" clip-rule="evenodd" fill="#4B5666" d="M872.8906,586.9268c1.71-0.0439,2.5898,0.7432,2.999,2
		c3.1494,0.4824,2.2646-3.0693,6-2c1.2832,1.3135,1.2832,3.6855,0,4.999c-2.2793,0.2793-3.7588-0.2402-4-2
		c-3.0771-0.7441-1.9209,2.7451-4.999,2C870.915,589.6035,870.915,589.249,872.8906,586.9268z"/>
	<path fill-rule="evenodd" clip-rule="evenodd" fill="#4B5666" d="M1031.8711,590.9258c-1.9873,0.0137-1.2715,2.7285-4,2
		c-0.4434-0.8896-0.8779-1.7881-2-2C1025.6836,586.0283,1032.0586,586.0283,1031.8711,590.9258z"/>
	<path fill-rule="evenodd" clip-rule="evenodd" fill="#4B5666" d="M876.8896,591.9258c1.4639,0.8691,3.1699,1.4971,3,4
		c-2.3232,1.9746-2.6768,1.9746-4.999,0C874.1621,593.1973,876.877,593.9131,876.8896,591.9258z"/>
	<path fill-rule="evenodd" clip-rule="evenodd" fill="#4B5666" d="M140.9819,596.9258c1.1719,0.1611,0.8433,1.8223,1,2.999
		c-1.0322,0.3555-2.3975,1.3057-3.9995,2c-0.3599,0.1553-1.7686-0.2832-2,0c-0.0957,0.1172,0.125,0.9404,0,1
		c-0.3628,0.1719-1.7607-0.292-1.9995,0c-0.5215,0.6367-2.6284,1.4375-4.9995,1.999c-0.9189,0.2188-2.6533,1.916-2.9995,0
		c-1.7627-3.4404,3.9082-1.666,4.9995-2.999c0.0957-0.1172-0.125-0.9404,0-1c0.3628-0.1719,1.7607,0.292,1.9995,0
		c0.6567-0.8027,2.4746-1.0215,4.9995-2c0.4116-0.1592-0.0386-0.9453,1-1C140.1328,597.8643,140.7705,597.8828,140.9819,596.9258z"
		/>
	<path fill-rule="evenodd" clip-rule="evenodd" fill="#4B5666" d="M954.8799,599.9248c1.1748,4.7705-5.7881,4.7109-7.999,3
		c-2.9834-0.2227-3.3994,3.6914-5.999,1c-1.377-3.8682,1.8408-2.8408,3-4c0.5479-0.5479,0.8047-1.0752,1.999-1
		c1.5479,0.0986,1.7754,1.0049,3,1C951.0068,599.917,953.8359,598.3809,954.8799,599.9248z"/>
	<path fill-rule="evenodd" clip-rule="evenodd" fill="#4B5666" d="M140.9819,601.9248c2.1685-0.1689,0.4531,3.5459,1,4.999
		c-4.0996,1.2334-6.9712,3.6943-11.9985,4c2.2466,3.0859,4.9126,5.752,7.999,7.999c0.9692,4.6963,2.3799,8.9521,8.999,7.999
		c4.271-1.9189,1.8315-5.0332,1.9995-9.999c1.4189,0.0859,2.8315,0.165,2.9995-1c3.7432,0.9229,1.3032,8.0293,2,11.999
		c-1.4839,0.6338-2.3682,1.8906-3.9995,2.999c-2.3213,1.5771-10.4048,1.5664-12.9985-2c-1.5542,1.4463-3.8965,2.1035-5.999,3
		c-4.3306-0.335-10.4741,1.1416-11.9985-2c-3.457,1.21-6.625,2.707-11.9985,2c-1.4814-0.0244-0.4395,2.0654-1,3
		c-0.3398,0.5664-1.6211,0.5088-1.9995,1c-2.4209,3.1348-4.748,5.3047-10.999,5.999c0.8267-2.8262-1.4092-2.5908-0.9995-5
		c4.5371,0.5381,5.9893-2.0088,8.9985-2.999c1.7637-3.6865,0.8677-9.0986,0-12.999c5.7432-2.71,4.6694,2.8799,6.9995,6
		c1.9995,0,3.9995,0,5.999,0c3.9424,0.2764,0.2891-7.0439,2.9995-7.999c0.6665,0,1.3335,0,2,0
		c3.8008-0.8018,1.2715,4.7275,1.9995,6.999c3.3276,1.8145,12.0562,1.7617,12.9985-2c-1.124-4.542-5.2793-6.0527-7.999-8.999
		c-1.4404-0.2256-0.3486-2.9844-2-2.999C126.0737,605.0146,136.334,606.2754,140.9819,601.9248z"/>
	<path fill-rule="evenodd" clip-rule="evenodd" fill="#4B5666" d="M837.8945,601.9248c2.1689-0.1689,0.4531,3.5459,1,4.999
		c-3.7217,1.2773-6.8027,3.1963-10.998,4c-2.2314,1.2061,2.5195,3.3174,3.999,4.999c3.0303,3.4434,5.5674,6.1064,3,12.998
		c-3.5332,2.71-14.9053,5.1289-18.998,1c-2.3086,2.2314-10.9668,3.4189-12.998,0c-2.5928,1.0732-4.9033,2.4297-8.999,2
		c-3.1455,0.4795-3.9082-1.4238-5.999-2c-3.416,1.6104-16.4365,5.6348-13.999-3.999c3.0195,1.3467,7.9805,1.3467,10.999,0
		c0.3633-6.0293-3.1328-8.1992-3.999-12.998c6.7168-3.3975,5.4834,3.4736,7.999,6.999c0.6602,0.9248,0.4004,1.8008,0.999,2.999
		c1.1309,2.2607,2.2061,4.5488,7.999,4c3.9434,0.2764,0.29-7.0439,3-7.999c0.667,0,1.333,0,2,0
		c4.3252-0.6592,0.3271,7.0049,2.999,7.999c1.667,0,3.333,0,5,0c3.9424,0.2764,0.2891-7.0439,2.999-7.999c0.667,0,1.333,0,2,0
		c4.3252-0.6592,0.3271,7.0049,3,7.999c4.957-0.043,10.7744,0.7754,11.998-3c-0.8223-4.8438-5.752-5.5801-7.999-8.999
		c-1.4404-0.2256-0.3486-2.9844-2-2.999C823.0078,605.0352,832.9492,605.9785,837.8945,601.9248z"/>
	<path fill-rule="evenodd" clip-rule="evenodd" fill="#4B5666" d="M934.8828,605.9238c-1.9873,0.0137-1.2715,2.7285-4,2
		c-0.4424-0.8896-0.8779-1.7881-1.999-2C928.6953,601.0264,935.0703,601.0264,934.8828,605.9238z"/>
	<path fill-rule="evenodd" clip-rule="evenodd" fill="#4B5666" d="M1033.8701,603.9248c3.2412-0.7305,1.8838,4.0518,2,5.999
		c0.2969,4.9697,0.3545,10.0547,0,15.998c-0.1162,1.9473,1.2412,6.7295-2,5.999c-5.0186,1.1699-2.8389-6.6719-2.999-10.999
		c-0.2246-6.0234-0.5684-12.835,1-16.9971C1032.5371,603.9248,1033.2041,603.9248,1033.8701,603.9248z"/>
	<path fill-rule="evenodd" clip-rule="evenodd" fill="#4B5666" d="M187.9761,604.9238c1.6665,0,3.333,0,4.9995,0
		c1.5879,8.0781-4.6924,24.0234,6.999,21.998c3.1299-1.1289,2.6465-3.4121,2-6c-0.1357-0.541-0.9604-5.0938,1.9995-3.999
		c4.8716-3.1826,3.4048,11.3789,1,12.998c-3.4224,2.3643-11.7803,3.041-14.998,0
		C186.5171,624.3809,188.4883,613.4111,187.9761,604.9238z"/>
	<path fill-rule="evenodd" clip-rule="evenodd" fill="#4B5666" d="M987.876,604.9238c1.4639,0.8701,3.1689,1.4971,3,4
		c-2.3232,1.9756-2.6768,1.9756-5,0C985.1484,606.1963,987.8633,606.9111,987.876,604.9238z"/>
	<path fill-rule="evenodd" clip-rule="evenodd" fill="#4B5666" d="M946.8809,606.9238c0.667,0,1.334,0,2,0
		c3.2266-0.5566,1.8633,3.2402,2,6c0.2188,4.3984,0.4297,8.4043,0,13.998c-0.1426,1.8535,1.1182,5.8438-2,4.999
		c-5.0117,1.1104-2.8223-5.8232-3-9.999c-0.1807-4.2461,0.1396-8.7266,0-11.998
		C945.5996,608.3086,946.8262,608.2021,946.8809,606.9238z"/>
	<path fill-rule="evenodd" clip-rule="evenodd" fill="#4B5666" d="M816.8975,613.9229c-1.9873,0.0137-1.2715,2.7285-3.999,2
		c-0.4434-0.8896-0.8789-1.7881-2-2C810.7109,609.0254,817.085,609.0254,816.8975,613.9229z"/>
	<path fill-rule="evenodd" clip-rule="evenodd" fill="#4B5666" d="M888.8887,613.9229c-1.9873,0.0137-1.2715,2.7285-4,2
		c-0.4424-0.8896-0.8779-1.7881-1.999-2C882.7012,609.0254,889.0762,609.0254,888.8887,613.9229z"/>
	<path fill-rule="evenodd" clip-rule="evenodd" fill="#4B5666" d="M921.8848,631.9209c-4.1934,4.1387-6.8555,9.8096-14.998,9.999
		c0.8262-2.8262-1.4102-2.5908-1-5c2.6104,0.4189,4.8721-0.623,6.999-1.999c0.5537-0.3594-0.1562-0.9395,1-1
		c1.0957-0.0576,0.6699-2.1338,1.999-2c1.3105-4.3672-2.2207-9.0342,0-10.999c4.6826-2.9023,3.7949,3.6475,6,6
		c4.6113-0.0547,9.7754,0.4434,12.998-1c-2.1211-1.9365-6.6729-1.2158-8.999-4c-0.2178-4.8955-0.3271-7.5107,2-9.998
		c0.9346-1,3.1465-2.916,6.999-2c0.0947,0.0225-0.0898,0.9336,0,1c0.9092,0.6719,2.2617,0.2139,3,1
		c2.5449,3.8447,3.1543,14.3115,0,17.9971C934.3691,632.4072,927.9248,631.9619,921.8848,631.9209z M929.8828,618.9229
		c1.1611,0.8389,2.6807,1.3184,5,1c0.3193-2.3193-0.1611-3.8389-1-5c-1,0-2,0-3,0
		C931.1074,616.8135,929.7559,617.1289,929.8828,618.9229z"/>
	<path fill-rule="evenodd" clip-rule="evenodd" fill="#4B5666" d="M984.877,609.9238c1.4629,0.8691,3.1689,1.4971,2.999,3.999
		c-1.9863,0.0137-1.2715,2.7285-3.999,2C980.8018,613.291,983.2031,612.5557,984.877,609.9238z"/>
	<path fill-rule="evenodd" clip-rule="evenodd" fill="#4B5666" d="M990.876,609.9238c2.3711,0.5527,4.1484,3.8662,1.999,5.999
		C988.6396,615.8281,988.2256,611.8818,990.876,609.9238z"/>
	<path fill-rule="evenodd" clip-rule="evenodd" fill="#4B5666" d="M1010.873,614.9229c-1.9863,0.0127-1.2715,2.7285-3.999,2
		c-0.4434-0.8896-0.8779-1.7881-2-2C1004.6865,610.0254,1011.0605,610.0254,1010.873,614.9229z"/>
	<path fill-rule="evenodd" clip-rule="evenodd" fill="#4B5666" d="M70.9907,611.9238c0.4204,1.8721,1.1836,3.8301,2,5.999
		c1.6196,4.3047,2.3452,9.7861,9.9985,8.999c5.2031-1.3623,0.2021-6.8955,2.9995-9.999c1.1626,0.1631,1.7793-0.2207,2-1
		c3.7573,1.2373,1.8022,10.1016,0.9995,12.998c-2.1948,1.9492-6.1123,3.3906-9.9985,3c-2.7754-0.2783-3.9209-1.5869-5.999-2
		c-3.0713,1.3281-15.6304,5.6533-13.9985-2.999c1.8018-1.1816,7.874,1.1543,10.9985-1c-0.064-4.9355-1.6841-8.3145-3.9995-10.999
		c-0.1626-1.1621,0.2207-1.7793,1-1.999C67.8809,612.1465,69.249,611.8486,70.9907,611.9238z"/>
	<path fill-rule="evenodd" clip-rule="evenodd" fill="#4B5666" d="M172.978,611.9238c2.4922-0.6182,3.1694,0.873,4.9995,1.999
		c2.2261,1.3701,4.7139,4.001,5.999,6.999c1.085,2.5322,1.3828,5.7783-1.9995,8.999c-0.8149,0.7764-1.6626,0.666-3,1
		c-0.7026,0.1758-0.8726,0.9727-0.9995,1c-2.2646,0.4844-11.2178,2.1543-9.999-4.999c2.1646-0.9541,9.5996,1.2383,11.9985-2
		C180.3872,617.9258,169.5845,618.8066,172.978,611.9238z"/>
	<path fill-rule="evenodd" clip-rule="evenodd" fill="#4B5666" d="M241.9692,617.9229c0.5347,4.8672-3.9863,4.6787-4.999,7.999
		c3.6533,0.6787,7.2705,1.3945,11.998,1c2.7749-3.1279,0.9014-4.96,1-9.999c1.4189,0.0859,2.8315,0.165,2.9995-1
		c3.8677,1.7441,2.0376,11.8496,0,13.998c-5.4185,3.5234-16.4478,2.1836-19.9971-1.999c-5.0962,1.1396-8.5044,8.1152-3,11.998
		c4.0991,0.0996,8.1958,0.1963,10.999-1c1.0854,0.2471,0.6777,1.9883,1.9995,2c-0.1304,5.6982-10.9097,3.7715-13.998,3
		c-1.5283-0.3828-2.5454-0.5459-3.9995-2c-0.2979-0.2979-1.8691-1.7617-2-2c-0.4224-0.7715,0.3481-2.1865,0-3
		c-0.1875-0.4375-0.8975,0.0322-1-0.999c-0.3379-3.4004,1.2422-7.373,4.9995-9.999c0.2754-3.9414-4.2749-3.0576-3.9995-6.999
		C223.5859,611.9932,240.1899,612.1445,241.9692,617.9229z M235.9702,618.9229c-2.0718,0.5947-6.5684-1.2363-6.999,1
		C230.8296,622.4727,235.165,622.4482,235.9702,618.9229z"/>
	<path fill-rule="evenodd" clip-rule="evenodd" fill="#4B5666" d="M317.96,636.9199c5.0713,0.4062,6.9604-2.3711,9.9985-3.999
		c-0.5396-2.1816-3.4727-0.5967-4.9995-1c-0.2544-0.0674-0.085-0.9521-0.9995-1c-1.5957-0.084-1.7363-0.6641-2.9995-1
		c0.1621-1.1621-0.2212-1.7793-1-1.999c-0.9316-10.0742,7.9302-15.2861,11.9985-8.999c0.3584,0.5537,0.939-0.1562,0.9995,1
		c0.019,0.3594,0.7026,2.2559,1,2.999c0.853,2.1318,0.8032,6.7861,0,9.999c-0.5879,2.3516-1.1294,2.1299-2.9995,3.999
		c-1.5122,1.5127-2.1323,2.957-4.9995,4C320.8237,642.0596,318.6948,642.2734,317.96,636.9199z M322.959,626.9219
		c1.6665,0,3.333,0,4.9995,0c0.418-3.418-0.3018-5.6973-3.9995-5C323.1201,623.083,322.6401,624.6025,322.959,626.9219z"/>
	<path fill-rule="evenodd" clip-rule="evenodd" fill="#4B5666" d="M901.8867,615.9229c3.7432,0.9229,1.3037,8.0293,2,11.999
		c-1.833,1.166-3.3857,2.6133-5,3.999c-4.0898-0.2432-9.6387,0.9736-10.998-2c-2.2246,1.4424-4.8213,2.5107-8.999,2
		c-2.0762,0.2568-0.2734,4.3926-2,4.999c-1.4395,0.5605-2.4395,1.5596-2.999,3c-4.9746,1.6494-12.2832,3.4766-15.998,1
		c-1.46-0.9736-3.5078-1.6602-5-4c-0.9668-1.5176-0.8125-2.8125-1.999-3.999c-0.6094-0.6084-0.1475-11.8994,3.999-10.999
		c0.2471,1.0859,1.9883,0.6787,2,2c0.2197,3.2197-1.7686,4.2305-1,7.999c0.4336,6.7998,15.3447,6.7031,16.998,1
		c-0.125-2.208-4.2412-0.4248-5.999-1c0.4092-2.4092-1.8262-2.1729-1-4.999c5.666,0,11.332,0,16.998,0
		c3.9424,0.2764,0.2891-7.0439,2.999-7.999c0.667,0,1.333,0,2,0c4.3252-0.6592,0.3271,7.0049,3,7.999c2.333,0,4.666,0,6.999,0
		c1.7734-1.8926,0.7285-6.6045,0.999-9.999C900.3066,617.0088,901.7188,617.0879,901.8867,615.9229z"/>
	<path fill-rule="evenodd" clip-rule="evenodd" fill="#4B5666" d="M299.9619,616.9229c1,0,2,0,3,0
		c1.9683,3.4814,1.3135,11.6074-1,13.998c-1.1626-0.1621-1.7788,0.2207-2,1c-3.1592,0.1602-6.0342,0.0352-6.999-2
		c-1.9038,0.4297-2.5117,2.1543-4.999,2c-3.1455,0.4795-3.9087-1.4238-5.9995-2c-2.2715,1.7285-5.5864,2.4131-9.9985,2
		c-1.4814-0.0244-0.4395,2.0654-1,3c-0.3403,0.5664-1.6211,0.5098-2,1c-2.4209,3.1348-4.7476,5.3047-10.9985,5.999
		c0.8262-2.8262-1.4092-2.5908-1-5c4.5376,0.5381,5.9897-2.0088,8.999-2.999c1.7637-3.6865,0.8672-9.0986,0-12.999
		c1.4189,0.0859,2.8315,0.166,2.9995-0.999c2.8047,0.8613,2.127,5.2051,3.9995,6.999c1.6665,0,3.333,0,4.9995,0
		c2.186-0.1475,2.147-2.5195,2-5c-0.3047-2.6367,2.0869-2.5781,3.999-2.999c2.2046,1.4619-0.5869,7.9189,3,7.999
		c3.124,0.457,3.1963-2.1367,2.9995-5c-0.145-2.8115,2.4487-2.8838,4.9995-2.999c0.3076,3.3584-1.335,8.667,2.9995,7.999
		C300.5757,625.5352,297.4761,618.4365,299.9619,616.9229z"/>
	<path fill-rule="evenodd" clip-rule="evenodd" fill="#4B5666" d="M999.875,616.9229c2.335,5.5615,0.8203,13.5176-4,14.998
		c-2.873,0.207-5.0791-0.2529-5.999-2c-3.0273,0.3066-3.5723,3.0938-7.999,2c-2.2412,1.4248-1.9082,5.4238-4,6.999
		c-3.9033,2.459-9.9365,4.2822-14.998,3c-0.2383-0.0605-0.0977-0.9521-1-1c-2.9385-0.1553-6.542-5.1533-6.999-8.999
		c-0.2227-1.8779,0.2236-4.6807,1-6.999c0.3721-1.1113,0.4062-4.8652,3-4c0.2471,1.0859,1.9883,0.6787,2,2c0,1,0,2,0,3
		c-1.1514,1.1816-1.1318,3.5342-1,5.999c0.5713,6.6494,12.9609,6.1602,15.998,2c0.0166-4.3496,0.3301-8.9961-1-11.999
		c0.2471-1.0859,1.9883-0.6777,1.999-1.999c5.0879-0.4219,1.7334,7.5986,7,6.999c5.1562,1.2744,1.2754-4.3359,2.999-6.999
		c0.2695-0.416,2.4941,0.2412,2-1c4.9062-0.5732,1.04,7.625,4.999,7.999c4.6582-0.4648-0.2373-8.2617,2-8.999
		C996.7646,617.1465,998.1328,616.8477,999.875,616.9229z"/>
	<path fill-rule="evenodd" clip-rule="evenodd" fill="#4B5666" d="M1009.873,619.9229c2.7451-1.0439,0.7842,3.0049,2,3.999
		c0.0811,0.0664,0.9805-0.0801,1,0c0.5996,2.458,0.5059,7.126,0,8.999c-0.0713,0.2646-0.9512,0.0771-1,1
		c-0.0674,1.2803-1.668,1.2627-2,2c-0.1846,0.4102,0.3076,1.6963,0,1.999c-0.5771,0.5693-2.334,0.5869-2.999,1
		c-0.5137,0.3193-1.5566,1.8164-2,2c-1.8955,0.7861-4.7676,0.6465-5.999,1c0.8262-2.8262-1.4092-2.5908-1-5
		c2.6113,0.4189,4.8721-0.623,6.999-1.999c0.5547-0.3594-0.1562-0.9395,1-1c1.0957-0.0576,0.6699-2.1338,2-2
		c0.4902-4.4902-0.5078-7.4922-1-10.999C1008.293,621.0078,1009.7051,621.0879,1009.873,619.9229z"/>
	<path fill-rule="evenodd" clip-rule="evenodd" fill="#4B5666" d="M1024.8711,619.9229c2.7451-1.0439,0.7842,3.0049,2,3.999
		c0.0811,0.0664,0.9805-0.0801,1,0c0.5996,2.458,0.5059,7.126,0,8.999c-0.0713,0.2646-0.9512,0.0771-1,1
		c-0.0674,1.2803-1.668,1.2627-2,2c-0.1846,0.4102,0.3076,1.6963,0,1.999c-0.5762,0.5693-2.334,0.5869-2.999,1
		c-0.5127,0.3193-1.5566,1.8164-2,2c-1.8955,0.7861-4.7676,0.6465-5.999,1c0.8262-2.8262-1.4092-2.5908-1-5
		c2.6113,0.4189,4.8721-0.623,6.999-1.999c0.5547-0.3594-0.1562-0.9395,1-1c1.0957-0.0576,0.6709-2.1338,2-2
		c0.4902-4.4902-0.5078-7.4922-1-10.999C1023.291,621.0078,1024.7031,621.0879,1024.8711,619.9229z"/>
	<path fill-rule="evenodd" clip-rule="evenodd" fill="#4B5666" d="M79.9897,634.9209c2.5439,0.1221,3.8774,1.4551,3.9995,3.999
		c-0.8901,0.4434-1.7886,0.8779-2,2C79.2358,639.3428,76.8755,637.3428,79.9897,634.9209z"/>
	<path fill-rule="evenodd" clip-rule="evenodd" fill="#4B5666" d="M86.9888,634.9209c1.4634,0.8691,3.1689,1.4971,2.9995,3.999
		c-2.3228,1.9756-2.6763,1.9756-4.9995,0C84.2607,636.1924,86.9756,636.9072,86.9888,634.9209z"/>
	<path fill-rule="evenodd" clip-rule="evenodd" fill="#4B5666" d="M110.9858,634.9209c2.5439,0.1221,3.8774,1.4551,3.9995,3.999
		c-0.8901,0.4434-1.7886,0.8779-2,2C110.2319,639.3428,107.8716,637.3428,110.9858,634.9209z"/>
	<path fill-rule="evenodd" clip-rule="evenodd" fill="#4B5666" d="M117.9849,634.9209c1.4634,0.8691,3.1689,1.4971,2.9995,3.999
		c-2.3228,1.9756-2.6763,1.9756-4.999,0C115.2568,636.1924,117.9722,636.9072,117.9849,634.9209z"/>
	<path fill-rule="evenodd" clip-rule="evenodd" fill="#4B5666" d="M150.981,638.9199c-1.9868,0.0127-1.2715,2.7285-3.9995,2
		c-0.4434-0.8896-0.8784-1.7881-2-2C144.7939,634.0225,151.1685,634.0225,150.981,638.9199z"/>
	<path fill-rule="evenodd" clip-rule="evenodd" fill="#4B5666" d="M196.9751,634.9209c2.5439,0.1221,3.8774,1.4551,3.9995,3.999
		c-0.8901,0.4434-1.7886,0.8779-2,2C196.2212,639.3428,193.8608,637.3428,196.9751,634.9209z"/>
	<path fill-rule="evenodd" clip-rule="evenodd" fill="#4B5666" d="M203.9741,634.9209c1.4634,0.8691,3.1689,1.4971,2.9995,3.999
		c-2.3228,1.9756-2.6763,1.9756-4.999,0C201.2461,636.1924,203.9609,636.9072,203.9741,634.9209z"/>
	<path fill-rule="evenodd" clip-rule="evenodd" fill="#4B5666" d="M244.9688,634.9209c2.5444,0.1221,3.8774,1.4551,3.9995,3.999
		c-0.8896,0.4434-1.7881,0.8779-1.9995,2C244.2153,639.3428,241.855,637.3428,244.9688,634.9209z"/>
	<path fill-rule="evenodd" clip-rule="evenodd" fill="#4B5666" d="M251.9683,634.9209c1.4634,0.8691,3.1689,1.4971,2.9995,3.999
		c-2.3228,1.9756-2.6768,1.9756-4.9995,0C249.2402,636.1924,251.9551,636.9072,251.9683,634.9209z"/>
	<path fill-rule="evenodd" clip-rule="evenodd" fill="#4B5666" d="M794.9004,634.9209c2.5439,0.1221,3.877,1.4551,3.999,3.999
		c-0.8896,0.4434-1.7881,0.8779-1.999,2C794.1465,639.3428,791.7861,637.3428,794.9004,634.9209z"/>
	<path fill-rule="evenodd" clip-rule="evenodd" fill="#4B5666" d="M801.8994,634.9209c1.4639,0.8691,3.1689,1.4971,3,3.999
		c-2.3232,1.9756-2.6768,1.9756-5,0C799.1709,636.1924,801.8867,636.9072,801.8994,634.9209z"/>
	<path fill-rule="evenodd" clip-rule="evenodd" fill="#4B5666" d="M893.8877,634.9209c2.5439,0.1221,3.8779,1.4551,4,3.999
		c-0.8906,0.4434-1.7891,0.8779-2,2C893.1338,639.3428,890.7734,637.3428,893.8877,634.9209z"/>
	<path fill-rule="evenodd" clip-rule="evenodd" fill="#4B5666" d="M900.8867,634.9209c1.4639,0.8691,3.1699,1.4971,3,3.999
		c-2.3232,1.9756-2.6768,1.9756-5,0C898.1592,636.1924,900.874,636.9072,900.8867,634.9209z"/>
	<path fill-rule="evenodd" clip-rule="evenodd" fill="#4B5666" d="M443.9443,926.8838c0.9995,0,1.9995,0,2.9995,0
		c3.2402-0.7295,1.8833,4.0518,1.9995,5.999c0.3188,5.3389,0.522,9.9268,0,15.998c-0.127,1.4766,1.1021,5.9639-1.9995,5
		c-3.3374,1.0039-3.2788-1.3877-2.9995-4c-0.0005-6.666,0-13.3311,0-19.9971C443.9443,928.8838,443.9443,927.8838,443.9443,926.8838
		z"/>
	<path fill-rule="evenodd" clip-rule="evenodd" fill="#4B5666" d="M495.9375,926.8838c0.6665,0,1.3335,0,2,0
		c4.2632-0.0488,0.9639,9.2598,1.9995,12.999c3.1592-0.5078,4.3892-2.9434,7.999-3c2.4092-0.4092,2.1733,1.8262,4.9995,1
		c2.6748,2.3193,4.085,7.8184,1.9995,11.998c-5.6104,4.3887-15.7192,4.2783-25.9966,4c-1.4814-0.0244-0.4395,2.0654-1,2.999
		c-0.5244,0.874-2.7808,1.6592-3.9995,3c-1.1392,1.2529-2.3262,2.4922-5.999,3c-1.3833,0.1904-3.3022,1.373-2.9995-1
		c-2.5269-3.7666,5.9854-3.5996,7.999-5.999c-0.1631-1.1631,0.2207-1.7793,0.9995-2c1.3105-4.3672-2.2207-9.0342,0-10.999
		c6.0405-3.751,2.2505,7.5127,8.999,5.999c3.8555-0.0303,2.7222-4.6309,2.9995-7.998c0.3135-3.8047-0.2451-7.9658,0-10.999
		C495.9375,928.8838,495.9375,927.8838,495.9375,926.8838z M499.937,948.8809c5.4956-0.1699,12.0889,0.7578,10.9985-5.999
		C505.8716,939.9023,501.3223,944.9639,499.937,948.8809z"/>
	<path fill-rule="evenodd" clip-rule="evenodd" fill="#4B5666" d="M518.9346,926.8838c1.6665,0,3.333,0,4.9995,0
		c0,6.999,0,13.999,0,20.998c6.8179,3.2148,13.541-1.5928,18.9976-3c-0.3882-2.9443-4.7109-1.9551-5.999-3.999
		c-4.2046-0.0059-4.1997,4.1924-7.999,1.999c-2.1074-2.0908,1.3164-3.7578,2.9995-4.999c3.5513-3.0146,7.4204-0.0918,10.9985,1
		c1.1841,0.3613,3.4419,1.2979,4.9995,2c1.6831,0.7578,5.1216-0.1768,3.9995,2.999c-0.0825,2.9775-4.5752,2.7842-6.999,4
		c-0.501,0.251,0.1104,0.9414-1,0.999c-0.8774,0.0469-2.6543,1.1426-3.9995,2c-1.2114,0.7725-11.8032,5.0176-14.998,2
		c-0.5288-0.499-2.377,0.3994-2.9995,0C517.5859,947.5635,519.2144,936.2695,518.9346,926.8838z"/>
	<path fill-rule="evenodd" clip-rule="evenodd" fill="#4B5666" d="M540.9321,930.8838c-1.9868,0.0127-1.2715,2.7275-3.9995,1.999
		c-0.4434-0.8896-0.8779-1.7881-2-1.999C534.7451,925.9863,541.1196,925.9863,540.9321,930.8838z"/>
	<path fill-rule="evenodd" clip-rule="evenodd" fill="#4B5666" d="M650.918,926.8838c1,0,2,0,3,0
		c3.2402-0.7295,1.8828,4.0518,2,5.999c0.3184,5.3389,0.5215,9.9268,0,15.998c-0.127,1.4766,1.1016,5.9639-2,5
		c-3.3379,1.0039-3.2783-1.3877-3-4c0-6.666,0-13.3311,0-19.9971C650.918,928.8838,650.918,927.8838,650.918,926.8838z"/>
	<path fill-rule="evenodd" clip-rule="evenodd" fill="#4B5666" d="M578.9277,931.8838c1.4629,0.8691,3.1689,1.4961,2.999,3.999
		c-2.3232,1.9756-2.6768,1.9756-4.999,0C576.1992,933.1553,578.9141,933.8701,578.9277,931.8838z"/>
	<path fill-rule="evenodd" clip-rule="evenodd" fill="#4B5666" d="M584.9268,931.8838c1.4629,0.8691,3.1689,1.4961,2.999,3.999
		c-2.3223,1.9756-2.6758,1.9756-4.999,0C582.1982,933.1553,584.9141,933.8701,584.9268,931.8838z"/>
	<path fill-rule="evenodd" clip-rule="evenodd" fill="#4B5666" d="M624.9219,935.8828c-1.9873,0.0127-1.2715,2.7285-4,2
		c-0.4434-0.8906-0.8779-1.7881-2-2C618.7344,930.9854,625.1094,930.9854,624.9219,935.8828z"/>
	<path fill-rule="evenodd" clip-rule="evenodd" fill="#4B5666" d="M565.9287,937.8828c2.4092-0.4092,2.1738,1.8262,4.999,1
		c-1.4258,1.334-1.4258,5.665,0,6.999c3.4668,4.7725,14.6514,2.8721,20.998,2c2.4756-1.1904-1.3613-8.6943,3.999-6.999
		c3.8018-0.8018,1.2715,4.7275,2,6.999c1.4541,1.5459,5.1191,0.8799,7.999,0.999c3.9424,0.2764,0.2891-7.043,3-7.998
		c5.9844-1.6523,2.7646,5.8994,4.999,7.998c1.666,0,3.333,0,4.999,0c3.9434,0.2764,0.2891-7.043,3-7.998
		c6.666-2,1.7529,7.5791,5.999,7.998c5.6709,0.0049,5.1787-6.1533,7.999-8.998c7.7383-3.417,13.5654,1.9619,11.999,10.998
		c-1.4404,0.5596-2.4404,1.5596-3,3c-4.4121,0.4131-7.7275-0.2715-9.999-2c-3.6143,1.5576-7.834,3.04-10.998,0
		c-3.1641-0.1641-3.3418,2.6572-6.999,2c-3.1455,0.4785-3.9092-1.4238-6-2c-3.3311,0.335-4.4346,2.8975-8.999,2
		c-3.7744,0.4414-4.6934-1.9717-6.999-3c-7.0498,4.417-21.9678,3.8291-27.9961-1
		C565.3203,945.4482,564.835,943.1211,565.9287,937.8828z M641.9189,949.8809c1.3682-1.2783,1.3682-4.7207,0-5.999
		C634.9219,943.7246,637.4482,949.1348,641.9189,949.8809z"/>
	<path fill-rule="evenodd" clip-rule="evenodd" fill="#4B5666" d="M459.9419,941.8818c4.4033,2.2275,2.8042,9.7803,2,12.999
		c-0.5879,2.3516-1.1299,2.1289-2.9995,3.999c-1.5693,1.5693-3.5493,4.4111-7.999,4c-1.0015,3.085-1.6484-2.1689-3-2
		c1.7002-2.9658,6.4937-2.8389,8.999-4.999c-0.1626-1.1631,0.2207-1.7793,1-2c0.4907-4.4902-0.5068-7.4922-1-10.999
		C458.3613,942.9678,459.7739,943.0469,459.9419,941.8818z"/>
	<path fill-rule="evenodd" clip-rule="evenodd" fill="#4B5666" d="M603.9238,956.8799c1.4639,0.8701,3.1699,1.4971,3,4
		c-2.3232,1.9756-2.6768,1.9756-5,0C601.1963,958.1514,603.9111,958.8672,603.9238,956.8799z"/>
	<path fill-rule="evenodd" clip-rule="evenodd" fill="#4B5666" d="M609.9238,956.8799c1.4629,0.8701,3.1689,1.4971,2.999,4
		c-2.3232,1.9756-2.6768,1.9756-4.999,0C607.1953,958.1514,609.9102,958.8672,609.9238,956.8799z"/>
	<path fill-rule="evenodd" clip-rule="evenodd" fill="#4B5666" d="M467.9409,971.8789c1.4639,0.8691,3.1694,1.4961,3,3.999
		c-2.3232,1.9756-2.6768,1.9756-4.9995,0C465.2129,973.1504,467.9282,973.8652,467.9409,971.8789z"/>
	<path fill-rule="evenodd" clip-rule="evenodd" fill="#4B5666" d="M473.9404,971.8789c1.4634,0.8691,3.1689,1.4961,2.9995,3.999
		c-2.3228,1.9756-2.6763,1.9756-4.9995,0C471.2124,973.1504,473.9272,973.8652,473.9404,971.8789z"/>
	<path fill-rule="evenodd" clip-rule="evenodd" fill="#4B5666" d="M440.9443,974.8779c1,0,2,0,3,0
		c3.2402-0.7295,1.8833,4.0518,1.9995,5.999c0.3188,5.3389,0.522,9.9268,0,15.998c-0.127,1.4766,1.1021,5.9639-1.9995,5
		c-3.3374,1.0039-3.2788-1.3877-3-4c0-6.666,0-13.3311,0-19.9971C440.9443,976.8779,440.9443,975.8779,440.9443,974.8779z"/>
	<path fill-rule="evenodd" clip-rule="evenodd" fill="#4B5666" d="M656.918,974.8779c1.666,0,3.332,0,4.999,0
		c0,6.999,0,13.998,0,20.9971c1.2881,1.3779,4.3428,0.9902,6.999,1c3.9424,0.2764,0.2891-7.043,3-7.999
		c5.9834-1.6514,2.7646,5.9004,4.999,7.999c3.8164,0.4844,6.3818-0.2832,7.999-1.999c1.4043-3.499-2.8047-6.4014,0-7.999
		c6.3447-3.9404,4.3525,10.9521,2,12.998c-3.2383,2.2119-10.0049,2.916-12.999,0c-4.4258,1.9893-8.6172,2.6758-13.998,1
		C655.5693,995.5576,657.1973,984.2637,656.918,974.8779z"/>
	<path fill-rule="evenodd" clip-rule="evenodd" fill="#4B5666" d="M724.9092,974.8779c1.4639,0.8701,3.1689,1.4971,2.999,4
		c-2.3223,1.9746-2.6758,1.9746-4.999,0C722.1807,976.1494,724.8965,976.8652,724.9092,974.8779z"/>
	<path fill-rule="evenodd" clip-rule="evenodd" fill="#4B5666" d="M686.9141,981.877c-1.9873,0.0127-1.2715,2.7285-4,2
		c-0.4434-0.8896-0.8779-1.7881-2-2C680.7266,976.9795,687.1016,976.9795,686.9141,981.877z"/>
	<path fill-rule="evenodd" clip-rule="evenodd" fill="#4B5666" d="M459.9419,1001.875c-1.481-0.0244-0.439,2.0654-0.9995,2.999
		c-0.5244,0.874-2.7808,1.6592-3.9995,3c-1.0566,1.1621-2.8032,3.1133-6.9995,3c-1.001,3.085-1.6484-2.1689-2.9995-2
		c1.7002-2.9658,6.4937-2.8389,8.999-5c-0.1626-1.1621,0.2207-1.7783,1-1.999c0.4907-4.4902-0.5073-7.4922-1-10.999
		c5.7427-2.71,4.6694,2.8789,6.999,5.999c4.5801-0.4189,11.2866,1.2881,12.9985-1.999c-0.1919-2.0273-2.0605-0.0049-2,0
		c-0.6934-0.0508-1.1694-0.7939-1.9995-1c-2.0776-0.5166-3.4277-0.2412-4.9995-2c-1.3438-8.5146,3.6182-14.3418,10.9985-10.999
		c3.1436,3.4434,4.104,12.4043,2,17.998C473.9458,1001.8799,467.3003,1002.2334,459.9419,1001.875z M469.9409,989.876
		c1.333,0,2.6665,0,3.9995,0c0-1.333,0-2.666,0-3.999C471.1851,982.7646,466.8286,987.1211,469.9409,989.876z"/>
	<path fill-rule="evenodd" clip-rule="evenodd" fill="#4B5666" d="M377.9521,980.877c2.7231,0.0117,3.7881,1.7422,5.9995,3
		c4.2944,2.4434,11.7388,7.2598,7.999,14.998c-1.8081,0.8721-1.2124,1.3027-3.9995,2c-0.6802,0.1699-0.9023,0.9805-1,1
		c-2.1387,0.4248-4.9595-0.8506-7.999-1c-7.4209-0.3652-11.8442,2.959-16.998-1c-3.2764,0.0557-3.8218,2.8438-7.9985,2
		c-3.0483,0.0488-5.0913-0.9082-5.9995-3c-1.6655,0.5381-4.5938,2.875-7.999,3c-2.5854,0.0938-6.8901,0.5762-6.999-3
		c-0.0068-4.6729,9.3472,0.0156,10.9985-3c0.2017-2.4648,0.0991-4.3506-1-5.999c-0.376-0.5635-3.5786-6.2197-1.9995-6.999
		c4.4829-3.3926,4.6387,2.5156,5.999,5c1.8145,3.3115,2.4009,7.1396,3.9995,8.998c2,0,3.9995,0,5.9995,0
		c3.9424,0.2764,0.2891-7.043,2.9995-7.999c5.9844-1.6514,2.7656,5.9004,4.9995,7.999c1.6665,0,3.333,0,4.999,0
		c1.4287-0.2227-0.9282-4.9766,0-7.999c2.4019-0.9307,2.6475-4.0176,6.9995-2.999
		C376.126,983.0508,378.3618,983.2861,377.9521,980.877z M382.9517,996.875c2.3188,0.3193,3.8389-0.1602,4.9995-1
		c0.6836-4.3496-1.7983-5.5332-3.9995-6.999C384.3892,992.3135,383.5566,994.4805,382.9517,996.875z M374.9526,994.876
		c3.2603,0.2598,4.8125-1.1875,4.9995-4c-1.1606-0.8389-2.6807-1.3184-4.9995-1
		C374.2529,992.9541,374.2529,991.7979,374.9526,994.876z"/>
	<path fill-rule="evenodd" clip-rule="evenodd" fill="#4B5666" d="M498.937,980.877c2.5444,0.1221,3.8774,1.4561,3.9995,4
		c-0.8896,0.4434-1.7881,0.8779-1.9995,2C498.1836,985.2988,495.8232,983.2998,498.937,980.877z"/>
	<path fill-rule="evenodd" clip-rule="evenodd" fill="#4B5666" d="M611.9229,980.877c2.4824-0.9678,3.7568,2.8818,5.999,3
		c3.4658,0.1826,8.8779,6.3037,8.999,10.999c0.0469,1.7949-1.1631,2.1074-1,3.999c-0.8896,0.4434-1.7881,0.8779-1.999,2
		c-1.4854-0.9639-2.7461,0.9805-3,1c-2.8623,0.2148-6.0215-0.9023-8.999-1c-2.751-0.0908-5.4824,0.9336-7.999,1
		c-1.1484,0.0293-2.8984,0.3047-3.999,0c-0.5361-0.1484-2.0469-2.001-2-2c-1.2598-0.0186-1.3096,1.7266-2,2
		c-3.0625,1.2109-7.3789-0.4883-9.998-2c-3.1641-0.1641-3.3428,2.6572-6.999,2c-2.9668-0.3672-4.9336-1.7334-6-4
		c-1.8916,1.7744-6.6035,0.7285-9.998,1c-1.291-1.4502-1.4199-2.4805-2-3.999c-0.1016-0.2656-1.0264-1.3223-1-1
		c-0.5186-6.332,9.1611-10.2012,14.998-11.999c0.2588,5.7412,0.1543,11.8447,3,14.998c1.1035-0.4258,2.9658,0.5566,3.999,0
		c1.0439-0.5615,0.2588-2.1484,1-2.999c1.1006-1.2627,3.1631-3.1055,3-5c0.8057-0.8594,2.7383-0.5938,2.999-1.999
		c4.5801-1.0186,7.0518,0.9443,8.999,3.999c0.7178,1.126-0.3604,7.0645,5.999,5.999c1.4287-0.2227-0.9277-4.9766,0-7.999
		c2.4023-0.9307,2.6475-4.0176,6.999-2.999C610.0967,983.0508,612.332,983.2861,611.9229,980.877z M564.9287,993.876
		c3.4707,2.7246,8.5732-1.3721,5.999-5C567.9043,989.5186,565.1582,990.4385,564.9287,993.876z M616.9229,996.875
		c2.3184,0.3193,3.8389-0.1602,4.999-1c0.6836-4.3496-1.7988-5.5332-4-6.999C618.3604,992.3135,617.5273,994.4805,616.9229,996.875z
		 M608.9238,994.876c3.2598,0.2598,4.8115-1.1875,4.999-4c-1.1602-0.8389-2.6807-1.3184-4.999-1
		C608.2236,992.9541,608.2236,991.7979,608.9238,994.876z M593.9258,994.876c-0.667-0.667,0.0723-2.7393-1-3
		c-3.1406-0.4746-4.0859,1.2471-5,3C591.0576,998.7383,596.0156,996.9658,593.9258,994.876z"/>
	<path fill-rule="evenodd" clip-rule="evenodd" fill="#4B5666" d="M647.9189,980.877c2.5439,0.1221,3.877,1.4561,3.999,4
		c-0.8896,0.4434-1.7881,0.8779-2,2C647.165,985.2988,644.8047,983.2998,647.9189,980.877z"/>
	<path fill-rule="evenodd" clip-rule="evenodd" fill="#4B5666" d="M720.9092,980.877c4.6611,0.0186,4.6611,4.9814,0,5
		C719.626,984.5635,719.626,982.1914,720.9092,980.877z"/>
	<path fill-rule="evenodd" clip-rule="evenodd" fill="#4B5666" d="M730.9082,981.877c-0.0186,4.6611-4.9805,4.6611-4.999,0
		C727.2227,980.5938,729.5947,980.5938,730.9082,981.877z"/>
	<path fill-rule="evenodd" clip-rule="evenodd" fill="#4B5666" d="M394.9502,998.875c-0.5288-3.5703,3.6479-1.5625,5.9995-2
		c3.665-0.6816,4.3789,0.1035,5.999-1.999c-0.8428-4.8232-4.1929-7.1396-7.999-8.999c-0.2817-1.6152,0.9448-1.7217,1-3
		c0.7983-0.0957,1.0112-1.1211,1.9995-1c1.126,0.1387,0.4814,0.8027,1,1c1.4448,0.5488,3.4907,1.4912,4.9995,3
		c1.4863,1.4863,1.8955,2.7656,2.9995,5.999c0.5889,1.7246,1.2476,1.6787,0,3c-0.4927,0.5215,0.3774,2.3721,0,2.999
		c0.0444-0.0742-2.7378,2.8691-2.9995,3c-1.001,0.5-6.1748,1.1787-7.999,1C398.0181,1001.6846,394.4644,1001.7139,394.9502,998.875z
		"/>
	<path fill-rule="evenodd" clip-rule="evenodd" fill="#4B5666" d="M546.9312,991.876c0.6812,2.5557-1.7109,1.3467-2.9995,2
		c-0.6187,0.3135-1.4736,1.7441-2,1.999c-1.7642,0.8555-4.2324,1.2734-5.999,2c-0.4346,0.1787,0.0566,0.9443-1,1
		c-2.0674,0.1084-7.5874,3.2842-11.9985,3c-2.1919-0.1416-4.0293-0.6963-5.999-2c-3.4565,1.209-6.625,2.707-11.9985,2
		c-1.4814-0.0244-0.4395,2.0654-1,2.999c-0.5239,0.874-2.7808,1.6592-3.9995,3c-1.0566,1.1621-2.8032,3.1133-6.999,3
		c-1.0015,3.085-1.6484-2.1689-2.9995-2c1.7002-2.9658,6.4932-2.8389,8.9985-5c-0.1626-1.1621,0.2212-1.7783,1-1.999
		c0.4907-4.4902-0.5068-7.4922-1-10.999c1.4194,0.0859,2.8315,0.165,3-1c2.8042,0.8623,2.1265,5.2061,3.9995,6.999
		c1.9995,0,3.9995,0,5.999,0c3.9424,0.2764,0.2891-7.043,2.9995-7.999c5.9844-1.6514,2.7656,5.9004,4.9995,7.999
		c8.2339,0.9014,12.2393-2.4248,17.998-3.999c-0.3887-2.9443-4.7114-1.9551-5.9995-4c-4.2046-0.0049-4.1997,4.1934-7.999,2
		c-2.5132-2.6318,2.5078-3.3672,2.9995-5.999c5.4282-0.9033,9.8208,1.2236,13.9985,3
		C543.2061,988.8428,547.5332,988.499,546.9312,991.876z"/>
	<path fill-rule="evenodd" clip-rule="evenodd" fill="#4B5666" d="M763.9043,985.877c3.7568,1.2363,1.8027,10.1016,1,12.998
		c-2.8271,3.1484-11.3994,4.3281-14.998,1c-2.9277-0.2607-3.0723,2.2607-6,2c-3.1592,0.1592-6.0342,0.0352-6.999-2
		c-2.9268-0.2607-3.0723,2.2607-5.999,2c-2.8643,0.2236-2.6719-1.8818-4.999-2c-2.0586-0.1045-4.666,4.4131-6.999,1
		c-1.8359,0.9971-1.2383,3.5146-2,4.999c-0.3809,0.7402-1.542,1.374-2,2c-0.4521,0.6182-0.793,1.1504-1,2
		c-4.1016,1.2129-8.7422,2.8232-12.998,1.999c-0.1377-0.0264-0.1768-0.9561-1-0.999c-3.8291-0.2021-5.7471-2.7617-6.999-7
		c-0.7188-2.4307-1.3154-4.8154,0-8.998c0.5205-1.6553,0.5352-4.8076,2.999-4c0.248,1.0859,1.9883,0.6787,2,2c0,1,0,2,0,2.999
		c-2.208,0.125-0.4238,4.2422-1,6c0.4121,4.1162,6.8291,6.4775,11.999,4.999c1.9053-0.5449,2.2822-2.7041,3.999-3
		c0.3066-4.9717-0.1582-9.1738-1-12.998c1.4189,0.0859,2.832,0.165,3-1c3.4521,0.8809,0.8906,7.7754,5.999,6.999
		c4.9619,1.2959,1.4121-5.9199,4-6.999c5.1982-1.1992,2.416,5.583,4.999,6.999c5.2676,1.2676,1.2441-6.7549,4-7.999
		c5.9834-1.6514,2.7646,5.9004,4.999,7.999c2,0,3.999,0,5.999,0c3.9424,0.2764,0.2891-7.043,3-7.999
		c5.9844-1.6514,2.7656,5.9004,4.999,7.999c3.9854,0.3193,7.3877,0.0557,8.999-1.999c0.708-3.708-1.708-4.292-1-7.999
		C762.3232,986.9629,763.7363,987.042,763.9043,985.877z"/>
	<path fill-rule="evenodd" clip-rule="evenodd" fill="#4B5666" d="M434.9453,989.876c4.4028,2.2275,2.8042,9.7803,1.9995,12.999
		c-0.5879,2.3516-1.1294,2.1289-2.9995,3.999c-1.5693,1.5693-3.5493,4.4111-7.999,4c-1.001,3.085-1.6484-2.1689-2.9995-2
		c1.7002-2.9658,6.4937-2.8389,8.999-5c-0.1626-1.1621,0.2207-1.7783,0.9995-1.999c0.4912-4.4902-0.5068-7.4922-0.9995-10.999
		C433.3647,990.9619,434.7769,991.041,434.9453,989.876z"/>
	<path fill-rule="evenodd" clip-rule="evenodd" fill="#4B5666" d="M650.918,989.876c4.4033,2.2275,2.8047,9.7803,2,12.999
		c-0.5879,2.3516-1.1299,2.1289-3,3.999c-1.5693,1.5693-3.5488,4.4111-7.999,4c-1.001,3.085-1.6484-2.1689-2.999-2
		c1.7002-2.9658,6.4932-2.8389,8.999-5c-0.1631-1.1621,0.2207-1.7783,0.999-1.999c0.4912-4.4902-0.5068-7.4922-0.999-10.999
		C649.3379,990.9619,650.75,991.041,650.918,989.876z"/>
	<path fill-rule="evenodd" clip-rule="evenodd" fill="#4B5666" d="M354.9551,1004.874c1.4639,0.8701,3.1694,1.4971,3,4
		c-2.3232,1.9756-2.6768,1.9756-4.9995,0C352.2271,1006.1455,354.9424,1006.8613,354.9551,1004.874z"/>
	<path fill-rule="evenodd" clip-rule="evenodd" fill="#4B5666" d="M360.9546,1004.874c1.4634,0.8701,3.1689,1.4971,2.9995,4
		c-2.3228,1.9756-2.6768,1.9756-4.9995,0C358.2266,1006.1455,360.9414,1006.8613,360.9546,1004.874z"/>
	<path fill-rule="evenodd" clip-rule="evenodd" fill="#4B5666" d="M509.936,1004.874c1.4634,0.8701,3.1689,1.4971,2.9995,4
		c-2.3228,1.9756-2.6768,1.9756-4.9995,0C507.208,1006.1455,509.9229,1006.8613,509.936,1004.874z"/>
	<path fill-rule="evenodd" clip-rule="evenodd" fill="#4B5666" d="M515.9351,1004.874c1.4639,0.8701,3.1694,1.4971,2.9995,4
		c-2.3228,1.9756-2.6763,1.9756-4.999,0C513.207,1006.1455,515.9224,1006.8613,515.9351,1004.874z"/>
	<path fill-rule="evenodd" clip-rule="evenodd" fill="#4B5666" d="M530.9331,1004.874c4.6606,0.0186,4.6606,4.9814,0,5
		C529.6499,1008.5605,529.6499,1006.1875,530.9331,1004.874z"/>
	<path fill-rule="evenodd" clip-rule="evenodd" fill="#4B5666" d="M539.9321,1009.874
		C530.4839,1009.8623,543.1313,999.4434,539.9321,1009.874L539.9321,1009.874z"/>
	<path fill-rule="evenodd" clip-rule="evenodd" fill="#4B5666" d="M666.916,1004.874c1.4639,0.8701,3.1699,1.4971,3,4
		c-2.3232,1.9756-2.6768,1.9756-5,0C664.1885,1006.1455,666.9033,1006.8613,666.916,1004.874z"/>
	<path fill-rule="evenodd" clip-rule="evenodd" fill="#4B5666" d="M672.915,1004.874c1.4639,0.8701,3.1699,1.4971,3,4
		c-2.3232,1.9756-2.6768,1.9756-4.999,0C670.1875,1006.1455,672.9023,1006.8613,672.915,1004.874z"/>
	<path fill-rule="evenodd" clip-rule="evenodd" fill="#4B5666" d="M742.9062,1004.874c1.4639,0.8701,3.1699,1.4971,3,4
		c-2.3232,1.9756-2.6768,1.9756-4.999,0C740.1787,1006.1455,742.8936,1006.8613,742.9062,1004.874z"/>
	<path fill-rule="evenodd" clip-rule="evenodd" fill="#4B5666" d="M748.9062,1004.874c1.4629,0.8701,3.1689,1.4971,2.999,4
		c-2.3223,1.9756-2.6758,1.9756-4.999,0C746.1777,1006.1455,748.8926,1006.8613,748.9062,1004.874z"/>
	<path fill-rule="evenodd" clip-rule="evenodd" fill="#4B5666" d="M755.9053,1004.874c4.6602,0.0186,4.6602,4.9814,0,5
		C754.6221,1008.5605,754.6221,1006.1875,755.9053,1004.874z"/>
	<path fill-rule="evenodd" clip-rule="evenodd" fill="#4B5666" d="M764.9043,1009.874
		C755.4561,1009.8623,768.1035,999.4434,764.9043,1009.874L764.9043,1009.874z"/>
	<path fill-rule="evenodd" clip-rule="evenodd" fill="#4B5666" d="M534.9326,1009.874c1.4639,0.8691,3.1694,1.4971,3,3.999
		c-2.3232,1.9756-2.6768,1.9756-4.9995,0C532.2046,1011.1455,534.9199,1011.8604,534.9326,1009.874z"/>
	<path fill-rule="evenodd" clip-rule="evenodd" fill="#4B5666" d="M759.9043,1009.874c1.4639,0.8691,3.1689,1.4971,3,3.999
		c-2.3232,1.9756-2.6768,1.9756-4.999,0C757.1768,1011.1455,759.8916,1011.8604,759.9043,1009.874z"/>
</g>
</svg>
