<?xml version="1.0" encoding="UTF-8" standalone="no"?>
<!DOCTYPE svg PUBLIC "-//W3C//DTD SVG 1.1//EN" "http://www.w3.org/Graphics/SVG/1.1/DTD/svg11.dtd">
<svg width="100%" height="100%" viewBox="0 0 1152 1152" version="1.1" xmlns="http://www.w3.org/2000/svg" xmlns:xlink="http://www.w3.org/1999/xlink" xml:space="preserve" xmlns:serif="http://www.serif.com/" style="fill-rule:evenodd;clip-rule:evenodd;stroke-linejoin:round;stroke-miterlimit:2;">
    <g id="Layer-1" serif:id="Layer 1">
        <g transform="matrix(0,-1,-1,0,576,-0.0005)">
            <path d="M-576,-576.001C-894.116,-576.001 -1152,-318.116 -1152,-0.001C-1152,318.116 -894.116,576 -576,576C-257.883,576 0,318.116 0,-0.001C0,-318.116 -257.883,-576.001 -576,-576.001" style="fill:rgb(75,86,102);fill-rule:nonzero;"/>
        </g>
        <g transform="matrix(1,0,0,1,188.296,361.702)">
            <path d="M0,-173.413C214.296,-387.709 561.111,-387.706 775.411,-173.405L387.708,214.296L0,-173.413Z" style="fill:rgb(251,211,92);fill-rule:nonzero;"/>
        </g>
        <g transform="matrix(1,0,0,1,963.71,963.701)">
            <path d="M0,-775.409C214.298,-561.111 214.293,-214.299 -0.007,0L-387.708,-387.701L0,-775.409Z" style="fill:rgb(164,217,112);fill-rule:nonzero;"/>
        </g>
        <g transform="matrix(1,0,0,1,963.703,790.299)">
            <path d="M0,173.409C-214.296,387.708 -561.11,387.702 -775.41,173.402L-387.708,-214.299L0,173.409Z" style="fill:rgb(158,190,237);fill-rule:nonzero;"/>
        </g>
        <g transform="matrix(1,0,0,1,188.29,188.297)">
            <path d="M0,775.409C-214.296,561.111 -214.292,214.299 0.007,0L387.709,387.701L0,775.409Z" style="fill:rgb(250,121,119);fill-rule:nonzero;"/>
        </g>
        <g transform="matrix(0,-1,-1,0,576,381.322)">
            <path d="M-194.677,-194.678C-302.195,-194.678 -389.356,-107.518 -389.356,-0.001C-389.356,107.517 -302.195,194.677 -194.677,194.677C-87.158,194.677 0.001,107.517 0.001,-0.001C0.001,-107.518 -87.158,-194.678 -194.677,-194.678" style="fill:rgb(75,86,102);fill-rule:nonzero;"/>
        </g>
        <g transform="matrix(1,0,0,1,466.723,516.474)">
            <path d="M0,44.439L-15.077,5.044L-15.32,5.044C-15.036,8.166 -14.895,11.875 -14.895,16.171L-14.895,44.439L-19.667,44.439L-19.667,0L-11.885,0L2.188,36.658L2.432,36.658L16.627,0L24.348,0L24.348,44.439L19.181,44.439L19.181,15.806C19.181,12.523 19.322,8.957 19.606,5.107L19.363,5.107L4.164,44.439L0,44.439Z" style="fill:white;fill-rule:nonzero;"/>
        </g>
        <g transform="matrix(1,0,0,1,506.421,538.666)">
            <path d="M0,-0.034C0,5.986 1.281,10.55 3.845,13.661C6.408,16.771 10.132,18.327 15.016,18.327C19.939,18.327 23.658,16.777 26.171,13.675C28.684,10.575 29.94,6.005 29.94,-0.034C29.94,-6.011 28.688,-10.546 26.187,-13.636C23.684,-16.725 19.98,-18.27 15.076,-18.27C10.152,-18.27 6.408,-16.716 3.845,-13.604C1.281,-10.495 0,-5.97 0,-0.034M35.412,-0.034C35.412,7.079 33.613,12.673 30.017,16.745C26.419,20.82 21.419,22.857 15.016,22.857C8.47,22.857 3.419,20.855 -0.138,16.853C-3.693,12.851 -5.472,7.2 -5.472,-0.095C-5.472,-7.329 -3.688,-12.936 -0.122,-16.919C3.444,-20.901 8.511,-22.891 15.076,-22.891C21.46,-22.891 26.444,-20.864 30.031,-16.811C33.618,-12.759 35.412,-7.167 35.412,-0.034" style="fill:white;fill-rule:nonzero;"/>
        </g>
        <g transform="matrix(1,0,0,1,581.743,538.936)">
            <path d="M0,-0.486C0,-6.281 -1.454,-10.648 -4.362,-13.588C-7.271,-16.525 -11.592,-17.994 -17.326,-17.994L-24.834,-17.994L-24.834,17.508L-18.542,17.508C-12.382,17.508 -7.751,15.994 -4.65,12.965C-1.55,9.936 0,5.452 0,-0.486M5.472,-0.668C5.472,6.668 3.48,12.276 -0.502,16.157C-4.483,20.037 -10.213,21.977 -17.69,21.977L-30.002,21.977L-30.002,-22.463L-16.384,-22.463C-9.474,-22.463 -4.104,-20.549 -0.273,-16.718C3.557,-12.888 5.472,-7.539 5.472,-0.668" style="fill:white;fill-rule:nonzero;"/>
        </g>
        <g transform="matrix(1,0,0,1,621.897,516.474)">
            <path d="M0,44.439L-24.773,44.439L-24.773,0L0,0L0,4.589L-19.605,4.589L-19.605,18.906L-1.186,18.906L-1.186,23.466L-19.605,23.466L-19.605,39.82L0,39.82L0,44.439Z" style="fill:white;fill-rule:nonzero;"/>
        </g>
        <g transform="matrix(1,0,0,1,636.914,539.392)">
            <path d="M0,-1.397L7.082,-1.397C10.729,-1.397 13.405,-2.122 15.107,-3.571C16.81,-5.02 17.66,-7.194 17.66,-10.09C17.66,-13.03 16.794,-15.147 15.062,-16.444C13.329,-17.741 10.548,-18.389 6.718,-18.389L0,-18.389L0,-1.397ZM0,3.041L0,21.521L-5.168,21.521L-5.168,-22.918L7.021,-22.918C12.473,-22.918 16.5,-21.876 19.104,-19.788C21.708,-17.7 23.01,-14.559 23.01,-10.364C23.01,-4.487 20.031,-0.516 14.073,1.55L26.141,21.521L20.031,21.521L9.271,3.041L0,3.041Z" style="fill:white;fill-rule:nonzero;"/>
        </g>
        <g transform="matrix(1,0,0,1,704.942,516.474)">
            <path d="M0,44.439L-5.897,44.439L-30.185,7.142L-30.428,7.142C-30.104,11.519 -29.941,15.533 -29.941,19.179L-29.941,44.439L-34.714,44.439L-34.714,0L-28.877,0L-4.651,37.144L-4.408,37.144C-4.449,36.597 -4.54,34.839 -4.682,31.871C-4.823,28.902 -4.874,26.779 -4.833,25.501L-4.833,0L0,0L0,44.439Z" style="fill:white;fill-rule:nonzero;"/>
        </g>
        <g transform="matrix(1,0,0,1,518.397,609.78)">
            <path d="M0,7.051L-5.168,-6.719C-5.836,-8.461 -6.525,-10.599 -7.234,-13.133C-7.681,-11.187 -8.319,-9.049 -9.149,-6.719L-14.378,7.051L0,7.051ZM7.143,25.836L1.61,11.701L-16.202,11.701L-21.673,25.836L-26.901,25.836L-9.332,-18.785L-4.985,-18.785L12.493,25.836L7.143,25.836Z" style="fill:white;fill-rule:nonzero;"/>
        </g>
        <g transform="matrix(1,0,0,1,556.546,614.431)">
            <path d="M0,-2.098L15.106,-2.098L15.106,19.513C12.756,20.263 10.365,20.832 7.934,21.216C5.501,21.601 2.685,21.795 -0.518,21.795C-7.245,21.795 -12.483,19.793 -16.232,15.791C-19.981,11.789 -21.855,6.179 -21.855,-1.034C-21.855,-5.655 -20.929,-9.702 -19.074,-13.178C-17.22,-16.653 -14.551,-19.307 -11.064,-21.141C-7.58,-22.975 -3.496,-23.893 1.185,-23.893C5.927,-23.893 10.345,-23.022 14.438,-21.278L12.432,-16.719C8.42,-18.422 4.56,-19.272 0.851,-19.272C-4.56,-19.272 -8.785,-17.661 -11.825,-14.44C-14.864,-11.217 -16.384,-6.748 -16.384,-1.034C-16.384,4.965 -14.921,9.513 -11.992,12.613C-9.063,15.715 -4.763,17.265 0.911,17.265C3.991,17.265 7.001,16.91 9.939,16.201L9.939,2.521L0,2.521L0,-2.098Z" style="fill:white;fill-rule:nonzero;"/>
        </g>
        <g transform="matrix(1,0,0,1,0,74.793)">
            <rect x="582.321" y="516.384" width="5.168" height="44.439" style="fill:white;"/>
        </g>
        <g transform="matrix(1,0,0,1,599.678,591.177)">
            <path d="M0,44.439L0,0L5.168,0L5.168,39.759L24.773,39.759L24.773,44.439L0,44.439Z" style="fill:white;fill-rule:nonzero;"/>
        </g>
        <g transform="matrix(1,0,0,1,656.763,591.177)">
            <path d="M0,44.439L-24.773,44.439L-24.773,0L0,0L0,4.589L-19.605,4.589L-19.605,18.906L-1.186,18.906L-1.186,23.466L-19.605,23.466L-19.605,39.82L0,39.82L0,44.439Z" style="fill:white;fill-rule:nonzero;"/>
        </g>
        <g transform="matrix(1,0,0,1,536.988,181.026)">
            <path d="M0,-76.687C-6.11,-72.167 -9.616,-65.102 -9.616,-57.302C-9.616,-56.015 -10.657,-54.972 -11.944,-54.972C-13.231,-54.972 -14.274,-56.015 -14.274,-57.302C-14.274,-66.595 -10.082,-75.025 -2.771,-80.432C-1.737,-81.198 -0.28,-80.979 0.486,-79.945C1.252,-78.911 1.032,-77.451 0,-76.687M64.293,-92.696C54.382,-92.696 41.538,-86.854 39.011,-77.02L39.009,-77.022L39.009,-77.02C36.481,-86.854 23.638,-92.696 13.729,-92.696C-5.814,-92.696 -21.665,-77.527 -21.665,-57.302C-21.665,-33.505 -7.594,-18.944 7.745,-7.126C16.946,-0.037 37.367,16.009 38.983,16.009C38.993,16.009 39.001,16.007 39.009,16.007C39.017,16.007 39.026,16.009 39.034,16.009C40.651,16.009 61.073,-0.037 70.274,-7.126C85.612,-18.944 99.687,-33.505 99.687,-57.302C99.687,-77.527 83.836,-92.696 64.293,-92.696" style="fill:rgb(75,86,102);fill-rule:nonzero;"/>
        </g>
        <g transform="matrix(1,0,0,1,196.011,466.559)">
            <path d="M0,67.707C-5.977,63.92 -9.678,57.224 -9.678,50.158C-9.678,48.871 -10.721,47.829 -12.008,47.829C-13.293,47.829 -14.338,48.871 -14.338,50.158C-14.338,58.926 -9.685,67.23 -2.195,71.828L-1.72,72.104L-1.023,72.18C-0.956,72.186 -0.889,72.188 -0.821,72.188C0.371,72.188 1.344,71.269 1.449,70.057C1.538,69.026 0.913,68.093 0,67.707M36.184,51.923C36.184,61.929 30.78,71.167 22.06,76.094C21.389,76.204 20.834,76.261 20.548,76.283L-3.684,76.283C-3.948,76.262 -4.508,76.206 -5.187,76.094C-13.907,71.168 -19.315,61.929 -19.315,51.923C-19.315,48.4 -18.646,45.029 -17.442,41.925L34.314,41.925C35.518,45.029 36.184,48.4 36.184,51.923M20.898,22.001C18.193,20.873 16.43,18.228 16.43,15.298L16.43,-7.236L0.44,-7.236L0.44,15.298C0.44,18.228 -1.322,20.873 -4.028,22.001C-16.143,27.055 -23.973,38.801 -23.973,51.923C-23.973,63.697 -17.564,74.563 -7.247,80.281C-7.089,80.36 -6.588,80.58 -6.107,80.664C-5.035,80.849 -4.171,80.92 -3.859,80.942L20.732,80.942C21.026,80.922 21.896,80.851 22.979,80.663C23.46,80.58 23.958,80.36 24.117,80.281C34.434,74.563 40.843,63.697 40.843,51.923C40.843,38.801 33.015,27.055 20.898,22.001M18.644,-18.102L-1.772,-18.102C-3.059,-18.102 -4.102,-17.058 -4.102,-15.772C-4.102,-14.484 -3.059,-13.442 -1.772,-13.442L18.644,-13.442C19.93,-13.442 20.974,-14.484 20.974,-15.772C20.974,-17.058 19.93,-18.102 18.644,-18.102M48.106,51.923C48.106,66.868 39.838,79.874 27.631,86.637C27.631,86.637 26.147,87.486 24.214,87.82C22.333,88.145 20.945,88.206 20.945,88.206L-4.073,88.206C-4.073,88.206 -5.463,88.145 -7.344,87.82C-9.277,87.486 -10.761,86.637 -10.761,86.637C-22.968,79.874 -31.236,66.868 -31.236,51.923C-31.236,35.421 -21.158,21.276 -6.823,15.298L-6.823,-7.236C-8.772,-7.236 -10.353,-8.816 -10.353,-10.764L-10.353,-16.971C-10.353,-18.92 -8.772,-20.499 -6.823,-20.499L23.693,-20.499C25.643,-20.499 27.223,-18.92 27.223,-16.971L27.223,-10.764C27.223,-8.816 25.643,-7.236 23.693,-7.236L23.693,15.298C38.028,21.276 48.106,35.421 48.106,51.923" style="fill:rgb(75,86,102);"/>
        </g>
        <g transform="matrix(1,0,0,1,614.597,903.997)">
            <path d="M0,-36.642C-0.001,-36.601 -0.001,-36.558 -0.001,-36.516L-0.001,-13.599C-0.001,-9.021 -1.305,0.118 -10.025,9.887C-19.547,20.552 -33.359,26.405 -38.595,28.349L-38.599,-65.413L-0.004,-65.413L0,-36.642ZM-63.348,10.368C-63.792,10.763 -64.347,10.958 -64.897,10.958C-65.539,10.958 -66.177,10.695 -66.637,10.179C-75.874,-0.165 -77.253,-9.947 -77.253,-14.857C-77.253,-16.143 -76.211,-17.187 -74.925,-17.187C-73.638,-17.187 -72.594,-16.143 -72.594,-14.857C-72.594,-10.611 -71.369,-2.116 -63.161,7.078C-62.305,8.037 -62.39,9.509 -63.348,10.368M3.741,-72.675L-80.938,-72.675C-82.88,-72.675 -84.457,-71.1 -84.457,-69.159L-84.453,-36.528C-84.453,-36.525 -84.451,-36.52 -84.451,-36.516L-84.451,-13.599C-84.451,-6.315 -81.993,4.182 -72.581,14.725C-59.096,29.829 -38.595,36.033 -38.595,36.033C-38.595,36.033 -18.094,29.829 -4.608,14.725C4.804,4.182 7.262,-6.315 7.262,-13.599L7.262,-36.516C7.262,-36.52 7.264,-36.525 7.264,-36.528L7.259,-69.159C7.259,-71.1 5.683,-72.675 3.741,-72.675" style="fill:rgb(75,86,102);fill-rule:nonzero;"/>
        </g>
        <g transform="matrix(1,0,0,1,999.262,534.816)">
            <path d="M0,-68.803C-0.239,-69.321 -1.328,-70.247 -1.879,-70.401L-46.98,-82.825L-39.924,-59.752C-39.811,-59.53 -39.396,-59.174 -39.157,-59.095L7.46,-52.557L0,-68.803ZM-51.314,-56.23L-51.707,-57.515L-51.707,11.326C-50.893,11.326 -50.356,11.232 -50.233,11.2L-2.297,-2.002L-2.297,-41.887L-40.85,-47.296C-45.527,-47.951 -49.93,-51.709 -51.314,-56.23M-101.536,-70.401C-102.087,-70.247 -103.175,-69.321 -103.414,-68.803L-110.875,-52.557L-64.257,-59.095C-64.018,-59.174 -63.604,-59.53 -63.49,-59.752L-56.435,-82.825L-101.536,-70.401ZM-100.813,-4.288C-100.813,-3.002 -99.771,-1.96 -98.484,-1.96C-97.197,-1.96 -96.155,-3.002 -96.155,-4.288L-96.155,-26.517C-96.155,-27.804 -97.197,-28.846 -98.484,-28.846C-99.771,-28.846 -100.813,-27.804 -100.813,-26.517L-100.813,-4.288ZM12.264,-47.213C12.104,-47.213 11.934,-47.225 11.754,-47.251L4.966,-48.2L4.965,1.366C4.965,3.306 3.434,5.315 1.563,5.832L-48.307,19.565C-49.241,19.822 -50.476,19.953 -51.708,19.953C-52.942,19.953 -54.174,19.822 -55.11,19.565L-104.978,5.832C-106.851,5.315 -108.38,3.306 -108.38,1.366L-108.379,-48.2L-115.17,-47.251C-115.349,-47.225 -115.518,-47.213 -115.678,-47.213C-117.244,-47.213 -117.925,-48.367 -117.189,-49.966L-107.646,-70.747C-106.836,-72.51 -104.645,-74.377 -102.771,-74.892L-52.903,-88.628C-52.591,-88.714 -52.301,-88.756 -52.036,-88.756C-51.918,-88.756 -51.813,-88.739 -51.707,-88.722C-51.601,-88.739 -51.496,-88.756 -51.379,-88.756C-51.113,-88.756 -50.823,-88.714 -50.512,-88.628L-0.643,-74.892C1.229,-74.377 3.423,-72.51 4.233,-70.747L13.776,-49.966C14.512,-48.367 13.831,-47.213 12.264,-47.213" style="fill:rgb(75,86,102);"/>
        </g>
    </g>
    <g id="Layer1">
        <g transform="matrix(2.81863,0,0,2.81863,-826.793,-337.377)">
            <path d="M489.428,197.82L487.688,197.82L487.688,211.185L489.428,211.185L489.428,204.405L491.348,204.405L491.348,202.965L489.428,202.965L489.428,197.82ZM487.028,206.685C485.003,205.395 483.788,203.325 483.788,200.685L483.788,198.945L481.973,198.945L481.973,200.775C481.973,203.445 480.833,205.59 478.658,206.985C479.033,207.405 479.378,207.825 479.738,208.26C481.118,207.45 482.468,205.77 482.903,204.255C483.353,205.71 484.898,207.285 485.993,207.99C486.353,207.555 486.668,207.12 487.028,206.685Z" style="fill:rgb(75,86,102);fill-rule:nonzero;"/>
            <path d="M504.308,202.56L504.308,201.12L502.403,201.12L502.403,197.82L500.648,197.82L500.648,205.68L502.403,205.68L502.403,202.56L504.308,202.56ZM502.403,211.02L502.403,206.37L493.673,206.37L493.673,211.02L502.403,211.02ZM500.633,209.64L495.413,209.64L495.413,207.735L500.633,207.735L500.633,209.64ZM499.463,203.52C498.368,203.805 495.833,204 494.198,203.955L494.198,202.425L498.368,202.425L498.368,198.465L492.368,198.465L492.368,199.86L496.598,199.86L496.598,201.105L492.428,201.105L492.428,205.35L494.213,205.35C496.028,205.35 498.488,205.155 499.628,204.87L499.463,203.52Z" style="fill:rgb(75,86,102);fill-rule:nonzero;"/>
            <path d="M517.013,204.855L517.013,203.46L504.938,203.46L504.938,204.855L517.013,204.855ZM515.903,211.125L515.903,209.685L508.133,209.685L508.133,208.95L515.423,208.95L515.423,205.59L506.393,205.59L506.393,206.955L513.683,206.955L513.683,207.72L506.378,207.72L506.378,211.125L515.903,211.125ZM508.088,200.415C508.088,199.8 509.138,199.35 510.998,199.35C512.858,199.35 513.923,199.8 513.923,200.415C513.923,201.015 512.858,201.495 510.998,201.495C509.138,201.495 508.088,201.015 508.088,200.415ZM506.273,200.415C506.273,201.855 507.968,202.815 510.998,202.815C514.013,202.815 515.723,201.855 515.723,200.415C515.723,198.96 514.013,198.015 510.998,198.015C507.968,198.015 506.273,198.96 506.273,200.415Z" style="fill:rgb(75,86,102);fill-rule:nonzero;"/>
            <g transform="matrix(1,0,0,1,0,-3.54782)">
                <path d="M462.324,232.185L462.324,218.82L460.644,218.82L460.644,224.085L459.459,224.085L459.459,219.06L457.809,219.06L457.809,231.57L459.459,231.57L459.459,225.48L460.644,225.48L460.644,232.185L462.324,232.185ZM453.099,227.58L453.099,221.79C454.209,221.79 455.304,221.805 456.399,221.805L456.399,220.41L451.344,220.41L451.344,229.02L452.619,229.02C454.164,229.02 456.129,228.93 457.134,228.66L456.969,227.28C456.069,227.505 454.464,227.625 453.099,227.58Z" style="fill:rgb(75,86,102);fill-rule:nonzero;"/>
            </g>
            <g transform="matrix(1,0,0,1,0,-3.54782)">
                <path d="M476.274,223.905L476.274,222.465L474.369,222.465L474.369,218.82L472.599,218.82L472.599,228.465L474.369,228.465L474.369,223.905L476.274,223.905ZM474.684,231.795L474.684,230.385L467.559,230.385L467.559,227.535L465.804,227.535L465.804,231.795L474.684,231.795ZM466.104,224.82L466.104,221.295L470.319,221.295L470.319,219.915L464.364,219.915L464.364,226.23L465.669,226.23C468.129,226.23 470.319,226.065 471.579,225.765C471.489,225.33 471.399,224.88 471.339,224.43C469.959,224.715 468.054,224.82 466.104,224.82Z" style="fill:rgb(75,86,102);fill-rule:nonzero;"/>
            </g>
            <g transform="matrix(1,0,0,1,0,-3.54782)">
                <path d="M484.599,223.395L484.599,222L476.844,222L476.844,223.395L484.599,223.395ZM478.719,221.07L482.844,221.07L482.844,219.69L478.719,219.69L478.719,221.07ZM487.359,218.82L485.589,218.82L485.589,232.185L487.359,232.185L487.359,225.69L489.219,225.69L489.219,224.235L487.359,224.235L487.359,218.82ZM477.504,226.74C477.504,228.435 478.809,229.62 480.729,229.62C482.649,229.62 483.954,228.375 483.954,226.74C483.954,225.06 482.649,223.86 480.729,223.86C478.809,223.86 477.504,225.105 477.504,226.74ZM479.214,226.74C479.214,225.855 479.859,225.27 480.729,225.27C481.599,225.27 482.244,225.855 482.244,226.74C482.244,227.61 481.704,228.195 480.729,228.195C479.844,228.195 479.214,227.61 479.214,226.74Z" style="fill:rgb(75,86,102);fill-rule:nonzero;"/>
            </g>
            <g transform="matrix(1,0,0,1,0,-3.54782)">
                <path d="M501.249,232.185L501.249,218.82L499.584,218.82L499.584,232.185L501.249,232.185ZM498.564,231.57L498.564,219.075L496.929,219.075L496.929,224.07L495.189,224.07L495.189,225.48L496.929,225.48L496.929,231.57L498.564,231.57ZM495.534,220.395L490.389,220.395L490.389,221.805L493.824,221.805C493.629,224.46 492.189,226.8 489.579,228.36L490.719,229.575C493.989,227.43 495.534,224.385 495.534,220.395Z" style="fill:rgb(75,86,102);fill-rule:nonzero;"/>
            </g>
            <g transform="matrix(1,0,0,1,0,-3.54782)">
                <path d="M517.476,218.82L515.691,218.82L515.691,228.51L517.476,228.51L517.476,224.085L519.381,224.085L519.381,222.63L517.476,222.63L517.476,218.82ZM517.791,231.795L517.791,230.4L510.561,230.4L510.561,227.52L508.806,227.52L508.806,231.795L517.791,231.795ZM513.666,226.14L513.666,219.84L507.411,219.84L507.411,226.14L513.666,226.14ZM511.926,224.76L509.151,224.76L509.151,221.205L511.926,221.205L511.926,224.76Z" style="fill:rgb(75,86,102);fill-rule:nonzero;"/>
            </g>
            <g transform="matrix(1,0,0,1,0,-3.54782)">
                <path d="M530.661,223.32L530.661,221.925L523.356,221.925L523.356,220.44L530.556,220.44L530.556,219.045L521.601,219.045L521.601,223.32L530.661,223.32ZM532.071,225.555L532.071,224.145L519.996,224.145L519.996,225.555L532.071,225.555ZM530.961,232.125L530.961,230.685L523.281,230.685L523.281,229.905L530.481,229.905L530.481,226.455L521.451,226.455L521.451,227.835L528.726,227.835L528.726,228.645L521.541,228.645L521.541,232.125L530.961,232.125Z" style="fill:rgb(75,86,102);fill-rule:nonzero;"/>
            </g>
            <g transform="matrix(1,0,0,1,0,-3.54782)">
                <path d="M544.026,232.185L544.026,218.82L542.271,218.82L542.271,232.185L544.026,232.185ZM539.916,220.215L533.676,220.215L533.676,221.67L538.026,221.67C537.786,224.325 535.791,227.115 532.866,228.45L533.946,229.77C538.026,227.55 539.811,224.25 539.916,220.215Z" style="fill:rgb(75,86,102);fill-rule:nonzero;"/>
            </g>
        </g>
        <g transform="matrix(2.81863,0,0,2.81863,-811.914,-331.092)">
            <path d="M600.367,330.64C598.358,329.605 597.083,327.745 597.083,324.925L597.083,324.58L599.663,324.58L599.663,323.185L592.568,323.185L592.568,324.58L595.238,324.58L595.238,324.94C595.238,327.745 594.143,329.815 591.893,331.015L592.943,332.32C594.503,331.555 595.853,329.77 596.168,328.42C596.573,329.71 598.208,331.405 599.393,332.005L600.367,330.64ZM603.068,335.185L603.068,321.82L601.313,321.82L601.313,335.185L603.068,335.185Z" style="fill:rgb(75,86,102);fill-rule:nonzero;"/>
            <path d="M611.033,324.43C611.708,325.96 614.048,327.04 615.833,327.295L616.583,325.915C614.663,325.81 611.948,324.46 611.948,322.465L611.948,322.075L610.133,322.075L610.133,322.465C610.133,324.46 607.748,325.69 605.513,325.915L606.248,327.28C608.183,327.025 610.358,325.96 611.033,324.43ZM617.063,329.71L617.063,328.33L611.903,328.33L611.903,326.53L610.148,326.53L610.148,328.33L604.988,328.33L604.988,329.71L617.063,329.71ZM606.413,330.73L606.413,332.125L613.763,332.125L613.763,335.215L615.503,335.215L615.503,330.73L606.413,330.73Z" style="fill:rgb(75,86,102);fill-rule:nonzero;"/>
            <path d="M618.428,324.1L621.113,324.1C621.068,326.11 619.793,327.58 617.888,328.255L618.923,329.635C620.213,329.185 621.623,327.94 622.028,326.635C622.598,327.865 623.918,328.9 624.923,329.26L625.883,327.895C624.383,327.4 622.988,326.095 622.913,324.1L625.478,324.1L625.478,322.66L618.428,322.66L618.428,324.1ZM619.973,330.34L619.973,331.72L627.263,331.72L627.263,335.2L629.033,335.2L629.033,330.34L619.973,330.34ZM629.018,329.65L629.018,321.82L627.263,321.82L627.263,325.075L625.283,325.075L625.283,326.485L627.263,326.485L627.263,329.65L629.018,329.65Z" style="fill:rgb(75,86,102);fill-rule:nonzero;"/>
            <path d="M643.013,333.43L643.013,332.05L630.938,332.05L630.938,333.43L643.013,333.43ZM641.888,326.23C641.888,324.19 639.953,322.765 636.983,322.765C634.028,322.765 632.078,324.19 632.078,326.23C632.078,328.27 634.028,329.695 636.983,329.695C639.953,329.695 641.888,328.27 641.888,326.23ZM640.088,326.245C640.088,327.475 638.858,328.3 636.983,328.3C635.108,328.3 633.893,327.475 633.893,326.245C633.893,325.015 635.108,324.19 636.983,324.19C638.873,324.19 640.088,325.015 640.088,326.245Z" style="fill:rgb(75,86,102);fill-rule:nonzero;"/>
            <path d="M654.848,330.04L654.848,328.63L647.198,328.63L647.198,327.01L654.458,327.01L654.458,322.675L645.383,322.675L645.383,324.07L652.718,324.07L652.718,325.615L645.458,325.615L645.458,330.04L649.043,330.04L649.043,332.125L643.913,332.125L643.913,333.52L655.988,333.52L655.988,332.125L650.798,332.125L650.798,330.04L654.848,330.04Z" style="fill:rgb(75,86,102);fill-rule:nonzero;"/>
            <g transform="matrix(1,0,0,1,0,-3.54782)">
                <path d="M589.329,349.405L589.329,347.95L587.394,347.95L587.394,342.82L585.654,342.82L585.654,356.185L587.394,356.185L587.394,349.405L589.329,349.405ZM583.884,344.185L577.644,344.185L577.644,345.64L581.979,345.64C581.739,348.31 579.744,351.115 576.834,352.45L577.899,353.77C581.994,351.55 583.764,348.22 583.884,344.185Z" style="fill:rgb(75,86,102);fill-rule:nonzero;"/>
            </g>
            <g transform="matrix(1,0,0,1,0,-3.54782)">
                <path d="M598.344,352.33C596.589,351.565 595.209,349.96 595.074,347.38L597.699,347.38L597.699,346L590.574,346L590.574,347.38L593.244,347.38C593.139,349.945 592.029,351.67 589.884,352.69L590.934,353.98C592.494,353.215 593.859,351.625 594.189,350.275C594.594,351.565 596.154,353.08 597.429,353.695L598.344,352.33ZM600.984,356.185L600.984,342.82L599.229,342.82L599.229,356.185L600.984,356.185ZM592.119,345.025L596.139,345.025L596.139,343.63L592.119,343.63L592.119,345.025Z" style="fill:rgb(75,86,102);fill-rule:nonzero;"/>
            </g>
            <g transform="matrix(1,0,0,1,0,-3.54782)">
                <path d="M614.979,350.215L614.979,348.925L602.904,348.925L602.904,350.215L614.979,350.215ZM613.749,356.035L613.749,354.775L606.189,354.775L606.189,354.085L613.434,354.085L613.434,350.965L604.374,350.965L604.374,352.225L611.694,352.225L611.694,352.93L604.434,352.93L604.434,356.035L613.749,356.035ZM613.644,348.22L613.644,346.975L606.249,346.975L606.249,346.285L613.359,346.285L613.359,343.24L604.464,343.24L604.464,344.485L611.589,344.485L611.589,345.19L604.494,345.19L604.494,348.22L613.644,348.22Z" style="fill:rgb(75,86,102);fill-rule:nonzero;"/>
            </g>
            <g transform="matrix(1,0,0,1,0,-3.54782)">
                <path d="M620.511,345.325L623.196,345.325L623.196,345.37C623.196,347.395 621.906,349.015 619.971,349.72L621.006,351.1C622.296,350.65 623.706,349.315 624.111,348.01C624.681,349.24 625.986,350.35 627.006,350.725L627.966,349.345C626.436,348.85 625.026,347.365 624.996,345.325L627.561,345.325L627.561,343.885L620.511,343.885L620.511,345.325ZM631.101,352.51L631.101,342.82L629.346,342.82L629.346,346.375L627.336,346.375L627.336,347.785L629.346,347.785L629.346,352.51L631.101,352.51ZM631.386,355.825L631.386,354.445L623.931,354.445L623.931,351.61L622.161,351.61L622.161,355.825L631.386,355.825Z" style="fill:rgb(75,86,102);fill-rule:nonzero;"/>
            </g>
            <g transform="matrix(1,0,0,1,0,-3.54782)">
                <path d="M645.366,346.915L645.366,345.475L643.461,345.475L643.461,342.82L641.691,342.82L641.691,349.54L643.461,349.54L643.461,346.915L645.366,346.915ZM643.851,356.08L643.851,354.67L636.486,354.67L636.486,353.77L643.461,353.77L643.461,350.185L634.641,350.185L634.641,351.565L641.691,351.565L641.691,352.495L634.746,352.495L634.746,356.08L643.851,356.08ZM635.196,347.83L635.196,344.95L639.411,344.95L639.411,343.555L633.456,343.555L633.456,349.225L634.761,349.225C637.236,349.225 639.396,349.075 640.656,348.76C640.566,348.325 640.491,347.86 640.416,347.41C639.036,347.725 637.161,347.815 635.196,347.83Z" style="fill:rgb(75,86,102);fill-rule:nonzero;"/>
            </g>
            <g transform="matrix(1,0,0,1,0,-3.54782)">
                <path d="M653.691,347.395L653.691,346L645.936,346L645.936,347.395L653.691,347.395ZM647.811,345.07L651.936,345.07L651.936,343.69L647.811,343.69L647.811,345.07ZM656.451,342.82L654.681,342.82L654.681,356.185L656.451,356.185L656.451,349.69L658.311,349.69L658.311,348.235L656.451,348.235L656.451,342.82ZM646.596,350.74C646.596,352.435 647.901,353.62 649.821,353.62C651.741,353.62 653.046,352.375 653.046,350.74C653.046,349.06 651.741,347.86 649.821,347.86C647.901,347.86 646.596,349.105 646.596,350.74ZM648.306,350.74C648.306,349.855 648.951,349.27 649.821,349.27C650.691,349.27 651.336,349.855 651.336,350.74C651.336,351.61 650.796,352.195 649.821,352.195C648.936,352.195 648.306,351.61 648.306,350.74Z" style="fill:rgb(75,86,102);fill-rule:nonzero;"/>
            </g>
            <g transform="matrix(1,0,0,1,0,-3.54782)">
                <path d="M670.026,356.185L670.026,342.82L668.271,342.82L668.271,356.185L670.026,356.185ZM665.916,344.215L659.676,344.215L659.676,345.67L664.026,345.67C663.786,348.325 661.791,351.115 658.866,352.45L659.946,353.77C664.026,351.55 665.811,348.25 665.916,344.215Z" style="fill:rgb(75,86,102);fill-rule:nonzero;"/>
            </g>
        </g>
        <g transform="matrix(2.81863,0,0,2.81863,-827.698,-321.088)">
            <path d="M447.279,455.82L447.279,463.47L449.034,463.47L449.034,455.82L447.279,455.82ZM449.034,469.02L449.034,464.115L440.169,464.115L440.169,469.02L449.034,469.02ZM447.279,467.655L441.939,467.655L441.939,465.465L447.279,465.465L447.279,467.655ZM446.124,461.61C444.564,461.115 443.034,459.63 443.034,457.545L443.034,456.495L441.204,456.495L441.204,457.635C441.204,459.645 439.944,461.265 437.994,461.97L439.059,463.365C440.304,462.93 441.744,461.655 442.134,460.29C442.719,461.52 444.114,462.6 445.134,462.975L446.124,461.61Z" style="fill:rgb(75,86,102);fill-rule:nonzero;"/>
            <path d="M460.254,455.82L460.254,469.185L461.994,469.185L461.994,455.82L460.254,455.82ZM459.084,464.295C457.374,464.61 454.719,464.685 453.444,464.685L453.444,461.97L457.809,461.97L457.809,456.96L451.644,456.96L451.644,458.355L456.039,458.355L456.039,460.575L451.704,460.575L451.704,466.125L453.114,466.125C455.379,466.125 457.869,465.975 459.279,465.69L459.084,464.295Z" style="fill:rgb(75,86,102);fill-rule:nonzero;"/>
            <path d="M464.394,458.1L467.079,458.1C467.034,460.11 465.759,461.58 463.854,462.255L464.889,463.635C466.179,463.185 467.589,461.94 467.994,460.635C468.564,461.865 469.884,462.9 470.889,463.26L471.849,461.895C470.349,461.4 468.954,460.095 468.879,458.1L471.444,458.1L471.444,456.66L464.394,456.66L464.394,458.1ZM465.939,464.34L465.939,465.72L473.229,465.72L473.229,469.2L474.999,469.2L474.999,464.34L465.939,464.34ZM474.984,463.65L474.984,455.82L473.229,455.82L473.229,459.075L471.249,459.075L471.249,460.485L473.229,460.485L473.229,463.65L474.984,463.65Z" style="fill:rgb(75,86,102);fill-rule:nonzero;"/>
            <path d="M488.979,467.43L488.979,466.05L476.904,466.05L476.904,467.43L488.979,467.43ZM487.854,460.23C487.854,458.19 485.919,456.765 482.949,456.765C479.994,456.765 478.044,458.19 478.044,460.23C478.044,462.27 479.994,463.695 482.949,463.695C485.919,463.695 487.854,462.27 487.854,460.23ZM486.054,460.245C486.054,461.475 484.824,462.3 482.949,462.3C481.074,462.3 479.859,461.475 479.859,460.245C479.859,459.015 481.074,458.19 482.949,458.19C484.839,458.19 486.054,459.015 486.054,460.245Z" style="fill:rgb(75,86,102);fill-rule:nonzero;"/>
            <path d="M500.814,464.04L500.814,462.63L493.164,462.63L493.164,461.01L500.424,461.01L500.424,456.675L491.349,456.675L491.349,458.07L498.684,458.07L498.684,459.615L491.424,459.615L491.424,464.04L495.009,464.04L495.009,466.125L489.879,466.125L489.879,467.52L501.954,467.52L501.954,466.125L496.764,466.125L496.764,464.04L500.814,464.04Z" style="fill:rgb(75,86,102);fill-rule:nonzero;"/>
            <path d="M517.476,455.82L515.706,455.82L515.706,465.51L517.476,465.51L517.476,461.025L519.366,461.025L519.366,459.57L517.476,459.57L517.476,455.82ZM517.791,468.795L517.791,467.4L510.561,467.4L510.561,464.52L508.806,464.52L508.806,468.795L517.791,468.795ZM507.246,460.17C507.246,462.075 508.641,463.44 510.771,463.44C512.916,463.44 514.296,462.075 514.296,460.17C514.296,458.28 512.916,456.9 510.771,456.9C508.641,456.9 507.246,458.28 507.246,460.17ZM509.031,460.17C509.031,459.15 509.706,458.385 510.771,458.385C511.851,458.385 512.526,459.15 512.526,460.17C512.526,461.22 511.851,461.985 510.771,461.985C509.706,461.985 509.031,461.22 509.031,460.17Z" style="fill:rgb(75,86,102);fill-rule:nonzero;"/>
            <path d="M520.461,458.325L523.146,458.325L523.146,458.37C523.146,460.395 521.856,462.015 519.921,462.72L520.956,464.1C522.246,463.65 523.656,462.315 524.061,461.01C524.631,462.24 525.936,463.35 526.956,463.725L527.916,462.345C526.386,461.85 524.976,460.365 524.946,458.325L527.511,458.325L527.511,456.885L520.461,456.885L520.461,458.325ZM531.051,465.51L531.051,455.82L529.296,455.82L529.296,459.375L527.286,459.375L527.286,460.785L529.296,460.785L529.296,465.51L531.051,465.51ZM531.336,468.825L531.336,467.445L523.881,467.445L523.881,464.61L522.111,464.61L522.111,468.825L531.336,468.825Z" style="fill:rgb(75,86,102);fill-rule:nonzero;"/>
            <path d="M545.256,461.04L545.256,459.63L543.426,459.63L543.426,455.82L541.671,455.82L541.671,464.01L543.426,464.01L543.426,461.04L545.256,461.04ZM543.426,469.02L543.426,464.67L534.756,464.67L534.756,469.02L543.426,469.02ZM541.656,467.655L536.511,467.655L536.511,466.02L541.656,466.02L541.656,467.655ZM540.681,459.36L540.681,457.995L532.866,457.995L532.866,459.36L540.681,459.36ZM534.861,457.41L538.821,457.41L538.821,456.045L534.861,456.045L534.861,457.41ZM540.006,461.955C540.006,460.575 538.641,459.645 536.826,459.645C534.981,459.645 533.616,460.575 533.616,461.955C533.616,463.32 534.996,464.235 536.826,464.235C538.641,464.235 540.006,463.32 540.006,461.955ZM535.386,461.955C535.386,461.37 536.031,460.995 536.826,460.995C537.606,460.995 538.281,461.37 538.281,461.955C538.281,462.51 537.606,462.915 536.826,462.915C536.046,462.915 535.386,462.51 535.386,461.955Z" style="fill:rgb(75,86,102);fill-rule:nonzero;"/>
            <path d="M558.021,462.855L558.021,461.46L545.946,461.46L545.946,462.855L558.021,462.855ZM556.911,469.125L556.911,467.685L549.141,467.685L549.141,466.95L556.431,466.95L556.431,463.59L547.401,463.59L547.401,464.955L554.691,464.955L554.691,465.72L547.386,465.72L547.386,469.125L556.911,469.125ZM549.096,458.415C549.096,457.8 550.146,457.35 552.006,457.35C553.866,457.35 554.931,457.8 554.931,458.415C554.931,459.015 553.866,459.495 552.006,459.495C550.146,459.495 549.096,459.015 549.096,458.415ZM547.281,458.415C547.281,459.855 548.976,460.815 552.006,460.815C555.021,460.815 556.731,459.855 556.731,458.415C556.731,456.96 555.021,456.015 552.006,456.015C548.976,456.015 547.281,456.96 547.281,458.415Z" style="fill:rgb(75,86,102);fill-rule:nonzero;"/>
            <g transform="matrix(1,0,0,1,0,-3.54782)">
                <path d="M464.394,479.325L467.079,479.325L467.079,479.37C467.079,481.395 465.789,483.015 463.854,483.72L464.889,485.1C466.179,484.65 467.589,483.315 467.994,482.01C468.564,483.24 469.869,484.35 470.889,484.725L471.849,483.345C470.319,482.85 468.909,481.365 468.879,479.325L471.444,479.325L471.444,477.885L464.394,477.885L464.394,479.325ZM474.984,486.51L474.984,476.82L473.229,476.82L473.229,480.375L471.219,480.375L471.219,481.785L473.229,481.785L473.229,486.51L474.984,486.51ZM475.269,489.825L475.269,488.445L467.814,488.445L467.814,485.61L466.044,485.61L466.044,489.825L475.269,489.825Z" style="fill:rgb(75,86,102);fill-rule:nonzero;"/>
            </g>
            <g transform="matrix(1,0,0,1,0,-3.54782)">
                <path d="M483.489,485.835C481.899,484.89 481.029,482.985 481.029,480.375L481.029,479.76L483.114,479.76L483.114,478.365L477.084,478.365L477.084,479.76L479.334,479.76L479.334,480.405C479.334,483.045 478.479,484.95 476.574,486.21L477.639,487.395C478.719,486.78 479.859,485.235 480.174,483.99C480.504,485.175 481.629,486.54 482.499,487.095L483.489,485.835ZM485.604,489.57L485.604,477.075L483.969,477.075L483.969,481.425L482.229,481.425L482.229,482.865L483.969,482.865L483.969,489.57L485.604,489.57ZM488.289,490.185L488.289,476.82L486.624,476.82L486.624,490.185L488.289,490.185Z" style="fill:rgb(75,86,102);fill-rule:nonzero;"/>
            </g>
            <g transform="matrix(1,0,0,1,0,-3.54782)">
                <path d="M500.814,485.04L500.814,483.63L493.164,483.63L493.164,482.01L500.424,482.01L500.424,477.675L491.349,477.675L491.349,479.07L498.684,479.07L498.684,480.615L491.424,480.615L491.424,485.04L495.009,485.04L495.009,487.125L489.879,487.125L489.879,488.52L501.954,488.52L501.954,487.125L496.764,487.125L496.764,485.04L500.814,485.04Z" style="fill:rgb(75,86,102);fill-rule:nonzero;"/>
            </g>
            <g transform="matrix(1,0,0,1,0,-3.54782)">
                <path d="M514.716,481.395L514.716,480L506.961,480L506.961,481.395L514.716,481.395ZM508.836,479.07L512.961,479.07L512.961,477.69L508.836,477.69L508.836,479.07ZM517.476,476.82L515.706,476.82L515.706,490.185L517.476,490.185L517.476,483.69L519.336,483.69L519.336,482.235L517.476,482.235L517.476,476.82ZM507.621,484.74C507.621,486.435 508.926,487.62 510.846,487.62C512.766,487.62 514.071,486.375 514.071,484.74C514.071,483.06 512.766,481.86 510.846,481.86C508.926,481.86 507.621,483.105 507.621,484.74ZM509.331,484.74C509.331,483.855 509.976,483.27 510.846,483.27C511.716,483.27 512.361,483.855 512.361,484.74C512.361,485.61 511.821,486.195 510.846,486.195C509.961,486.195 509.331,485.61 509.331,484.74Z" style="fill:rgb(75,86,102);fill-rule:nonzero;"/>
            </g>
            <g transform="matrix(1,0,0,1,0,-3.54782)">
                <path d="M531.051,490.185L531.051,476.82L529.296,476.82L529.296,490.185L531.051,490.185ZM526.941,478.215L520.701,478.215L520.701,479.67L525.051,479.67C524.811,482.325 522.816,485.115 519.891,486.45L520.971,487.77C525.051,485.55 526.836,482.25 526.941,478.215Z" style="fill:rgb(75,86,102);fill-rule:nonzero;"/>
            </g>
        </g>
        <g transform="matrix(2.81863,0,0,2.81863,-842.69,-331.135)">
            <path d="M363.878,321.82L362.168,321.82L362.168,335.185L363.878,335.185L363.878,328.24L365.423,328.24L365.423,326.8L363.878,326.8L363.878,321.82ZM356.918,332.02L356.918,323.02L355.373,323.02L355.373,326.26L354.563,326.26L354.563,323.05L353.033,323.05L353.033,332.02L356.918,332.02ZM355.373,330.625L354.563,330.625L354.563,327.64L355.373,327.64L355.373,330.625ZM361.403,332.02L361.403,323.02L359.888,323.02L359.888,326.26L359.063,326.26L359.063,323.05L357.548,323.05L357.548,332.02L361.403,332.02ZM359.888,330.625L359.063,330.625L359.063,327.64L359.888,327.64L359.888,330.625Z" style="fill:rgb(75,86,102);fill-rule:nonzero;"/>
            <path d="M378.038,333.52L378.038,332.14L365.963,332.14L365.963,333.52L378.038,333.52ZM376.898,330.16L376.898,328.75L369.248,328.75L369.248,327.145L376.508,327.145L376.508,322.81L367.433,322.81L367.433,324.205L374.768,324.205L374.768,325.735L367.508,325.735L367.508,330.16L376.898,330.16Z" style="fill:rgb(75,86,102);fill-rule:nonzero;"/>
            <path d="M390.308,335.185L390.308,321.82L388.643,321.82L388.643,335.185L390.308,335.185ZM387.623,334.57L387.623,322.075L385.988,322.075L385.988,327.07L384.248,327.07L384.248,328.48L385.988,328.48L385.988,334.57L387.623,334.57ZM384.593,323.395L379.448,323.395L379.448,324.805L382.883,324.805C382.688,327.46 381.248,329.8 378.638,331.36L379.778,332.575C383.048,330.43 384.593,327.385 384.593,323.395Z" style="fill:rgb(75,86,102);fill-rule:nonzero;"/>
            <g transform="matrix(1,0,0,1,0,-3.54782)">
                <path d="M329.506,349.525L329.506,342.82L327.766,342.82L327.766,349.525L329.506,349.525ZM329.926,356.08L329.926,354.67L322.501,354.67L322.501,353.77L329.506,353.77L329.506,350.185L320.641,350.185L320.641,351.58L327.766,351.58L327.766,352.495L320.716,352.495L320.716,356.08L329.926,356.08ZM326.581,348.145C325.021,347.65 323.506,346.18 323.506,344.125L323.506,343.225L321.691,343.225L321.691,344.215C321.691,346.24 320.431,347.785 318.496,348.49L319.516,349.795C320.761,349.375 322.216,348.175 322.606,346.81C323.206,348.04 324.586,349.06 325.621,349.45L326.581,348.145Z" style="fill:rgb(75,86,102);fill-rule:nonzero;"/>
            </g>
            <g transform="matrix(1,0,0,1,0,-3.54782)">
                <path d="M342.496,356.02L342.496,351.805L333.526,351.805L333.526,356.02L342.496,356.02ZM340.741,354.64L335.296,354.64L335.296,353.155L340.741,353.155L340.741,354.64ZM342.496,351.175L342.496,342.82L340.741,342.82L340.741,347.215L338.881,347.215L338.881,348.625L340.741,348.625L340.741,351.175L342.496,351.175ZM339.106,346.45L339.106,345.1L331.336,345.1L331.336,346.45L339.106,346.45ZM338.401,349C338.401,347.68 337.021,346.795 335.206,346.795C333.361,346.795 332.011,347.68 332.011,349C332.011,350.32 333.376,351.205 335.206,351.205C337.021,351.205 338.401,350.32 338.401,349ZM336.646,349C336.646,349.54 336.001,349.93 335.206,349.93C334.411,349.93 333.751,349.54 333.751,349C333.751,348.46 334.396,348.055 335.206,348.055C336.001,348.055 336.646,348.46 336.646,349ZM333.271,344.515L337.231,344.515L337.231,343.135L333.271,343.135L333.271,344.515Z" style="fill:rgb(75,86,102);fill-rule:nonzero;"/>
            </g>
            <g transform="matrix(1,0,0,1,0,-3.54782)">
                <path d="M352.111,347.395L352.111,346L344.356,346L344.356,347.395L352.111,347.395ZM346.231,345.07L350.356,345.07L350.356,343.69L346.231,343.69L346.231,345.07ZM354.871,342.82L353.101,342.82L353.101,356.185L354.871,356.185L354.871,349.69L356.731,349.69L356.731,348.235L354.871,348.235L354.871,342.82ZM345.016,350.74C345.016,352.435 346.321,353.62 348.241,353.62C350.161,353.62 351.466,352.375 351.466,350.74C351.466,349.06 350.161,347.86 348.241,347.86C346.321,347.86 345.016,349.105 345.016,350.74ZM346.726,350.74C346.726,349.855 347.371,349.27 348.241,349.27C349.111,349.27 349.756,349.855 349.756,350.74C349.756,351.61 349.216,352.195 348.241,352.195C347.356,352.195 346.726,351.61 346.726,350.74Z" style="fill:rgb(75,86,102);fill-rule:nonzero;"/>
            </g>
            <g transform="matrix(1,0,0,1,0,-3.54782)">
                <path d="M369.466,354.31L369.466,352.915L363.481,352.915L363.481,348.415L361.726,348.415L361.726,352.915L357.391,352.915L357.391,354.31L369.466,354.31ZM368.086,343.99L358.681,343.99L358.681,345.4L366.316,345.4C366.361,347.245 366.256,349.81 365.836,351.355L367.516,351.565C367.981,349.795 368.146,347.35 368.086,343.99Z" style="fill:rgb(75,86,102);fill-rule:nonzero;"/>
            </g>
            <g transform="matrix(1,0,0,1,0,-3.54782)">
                <path d="M386.864,348.04L386.864,346.63L384.989,346.63L384.989,342.82L383.219,342.82L383.219,351.28L384.989,351.28L384.989,348.04L386.864,348.04ZM376.184,351.925L376.184,353.32L383.234,353.32L383.234,356.2L384.989,356.2L384.989,351.925L376.184,351.925ZM382.184,346.36L382.184,344.995L374.429,344.995L374.429,346.36L382.184,346.36ZM376.364,344.41L380.324,344.41L380.324,343.045L376.364,343.045L376.364,344.41ZM381.509,349.015C381.509,347.635 380.159,346.705 378.344,346.705C376.499,346.705 375.134,347.635 375.134,349.015C375.134,350.395 376.514,351.34 378.344,351.34C380.159,351.34 381.509,350.395 381.509,349.015ZM376.889,349.015C376.889,348.43 377.534,348.04 378.344,348.04C379.124,348.04 379.784,348.43 379.784,349.015C379.784,349.6 379.124,350.005 378.344,350.005C377.549,350.005 376.889,349.6 376.889,349.015Z" style="fill:rgb(75,86,102);fill-rule:nonzero;"/>
            </g>
            <g transform="matrix(1,0,0,1,0,-3.54782)">
                <path d="M399.584,350.185L399.584,348.79L387.509,348.79L387.509,350.185L399.584,350.185ZM393.554,345.265C394.229,346.825 396.569,347.83 398.354,348.085L399.104,346.705C397.184,346.615 394.469,345.325 394.469,343.315L394.469,342.955L392.654,342.955L392.654,343.315C392.654,345.325 390.269,346.48 388.034,346.705L388.769,348.07C390.704,347.815 392.879,346.825 393.554,345.265ZM398.039,356.02L398.039,350.875L396.299,350.875L396.299,352.18L390.794,352.18L390.794,350.905L389.054,350.905L389.054,356.02L398.039,356.02ZM396.299,354.625L390.794,354.625L390.794,353.5L396.299,353.5L396.299,354.625Z" style="fill:rgb(75,86,102);fill-rule:nonzero;"/>
            </g>
            <g transform="matrix(1,0,0,1,0,-3.54782)">
                <path d="M408.179,347.395L408.179,346L400.424,346L400.424,347.395L408.179,347.395ZM402.299,345.07L406.424,345.07L406.424,343.69L402.299,343.69L402.299,345.07ZM410.939,342.82L409.169,342.82L409.169,356.185L410.939,356.185L410.939,349.69L412.799,349.69L412.799,348.235L410.939,348.235L410.939,342.82ZM401.084,350.74C401.084,352.435 402.389,353.62 404.309,353.62C406.229,353.62 407.534,352.375 407.534,350.74C407.534,349.06 406.229,347.86 404.309,347.86C402.389,347.86 401.084,349.105 401.084,350.74ZM402.794,350.74C402.794,349.855 403.439,349.27 404.309,349.27C405.179,349.27 405.824,349.855 405.824,350.74C405.824,351.61 405.284,352.195 404.309,352.195C403.424,352.195 402.794,351.61 402.794,350.74Z" style="fill:rgb(75,86,102);fill-rule:nonzero;"/>
            </g>
            <g transform="matrix(1,0,0,1,0,-3.54782)">
                <path d="M424.514,356.185L424.514,342.82L422.759,342.82L422.759,356.185L424.514,356.185ZM420.404,344.215L414.164,344.215L414.164,345.67L418.514,345.67C418.274,348.325 416.279,351.115 413.354,352.45L414.434,353.77C418.514,351.55 420.299,348.25 420.404,344.215Z" style="fill:rgb(75,86,102);fill-rule:nonzero;"/>
            </g>
        </g>
    </g>
</svg>
