<?xml version="1.0" encoding="utf-8"?>
<!-- Generator: Adobe Illustrator 15.0.2, SVG Export Plug-In . SVG Version: 6.00 Build 0)  -->
<!DOCTYPE svg PUBLIC "-//W3C//DTD SVG 1.1//EN" "http://www.w3.org/Graphics/SVG/1.1/DTD/svg11.dtd">
<svg version="1.1" id="Layer_1" xmlns="http://www.w3.org/2000/svg" xmlns:xlink="http://www.w3.org/1999/xlink" x="0px" y="0px"
	 width="1152px" height="1152px" viewBox="0 0 1152 1152" enable-background="new 0 0 1152 1152" xml:space="preserve">
<circle fill="#4B5666" cx="576" cy="576" r="576"/>
<g>
	<path fill="#FBD35C" d="M188.296,188.29c214.296-214.296,561.111-214.293,775.411,0.008L576.005,575.999L188.296,188.29z"/>
</g>
<g>
	<path fill="#A4D970" d="M963.71,188.293c214.298,214.298,214.293,561.11-0.007,775.409L576.002,576.001L963.71,188.293z"/>
</g>
<g>
	<path fill="#9EBEED" d="M963.703,963.709c-214.296,214.299-561.11,214.293-775.41-0.007l387.702-387.701L963.703,963.709z"/>
</g>
<g>
	<path fill="#FA7977" d="M188.29,963.707c-214.296-214.298-214.292-561.11,0.007-775.409l387.703,387.701L188.29,963.707z"/>
</g>
<circle fill="#4B5666" cx="576" cy="576" r="194.678"/>
<g>
	<path fill="#FFFFFF" d="M466.723,560.914l-15.077-39.395h-0.243c0.284,3.121,0.426,6.83,0.426,11.127v28.268h-4.772v-44.439h7.782
		l14.073,36.658h0.243l14.195-36.658h7.721v44.439h-5.167v-28.633c0-3.283,0.142-6.85,0.426-10.699h-0.243l-15.199,39.332H466.723z"
		/>
	<path fill="#FFFFFF" d="M541.833,538.633c0,7.113-1.799,12.707-5.396,16.779c-3.598,4.074-8.598,6.111-15.001,6.111
		c-6.546,0-11.597-2.002-15.153-6.004c-3.556-4.002-5.334-9.652-5.334-16.947c0-7.234,1.783-12.842,5.35-16.824
		s8.633-5.973,15.198-5.973c6.384,0,11.368,2.027,14.955,6.08S541.833,531.5,541.833,538.633z M506.421,538.633
		c0,6.02,1.281,10.584,3.845,13.695c2.563,3.109,6.287,4.666,11.171,4.666c4.924,0,8.643-1.551,11.155-4.652
		c2.513-3.1,3.77-7.67,3.77-13.709c0-5.977-1.252-10.512-3.754-13.602c-2.503-3.09-6.206-4.635-11.11-4.635
		c-4.924,0-8.668,1.555-11.231,4.666C507.702,528.172,506.421,532.697,506.421,538.633z"/>
	<path fill="#FFFFFF" d="M587.215,538.27c0,7.336-1.991,12.943-5.974,16.824c-3.981,3.881-9.711,5.82-17.188,5.82h-12.312v-44.439
		h13.618c6.91,0,12.28,1.914,16.11,5.744S587.215,531.398,587.215,538.27z M581.743,538.451c0-5.795-1.454-10.162-4.362-13.102
		c-2.908-2.938-7.229-4.406-12.964-4.406h-7.508v35.502h6.292c6.16,0,10.791-1.514,13.892-4.543S581.743,544.389,581.743,538.451z"
		/>
	<path fill="#FFFFFF" d="M621.897,560.914h-24.773v-44.439h24.773v4.59h-19.605v14.316h18.42v4.561h-18.42v16.354h19.605V560.914z"
		/>
	<path fill="#FFFFFF" d="M636.914,542.434v18.48h-5.168v-44.439h12.189c5.451,0,9.479,1.043,12.083,3.131
		c2.604,2.088,3.905,5.229,3.905,9.424c0,5.877-2.979,9.848-8.937,11.914l12.067,19.971h-6.109l-10.761-18.48H636.914z
		 M636.914,537.996h7.082c3.647,0,6.323-0.725,8.025-2.174s2.553-3.623,2.553-6.52c0-2.939-0.866-5.057-2.599-6.354
		s-4.514-1.945-8.344-1.945h-6.718V537.996z"/>
	<path fill="#FFFFFF" d="M704.942,560.914h-5.897l-24.287-37.297h-0.243c0.324,4.377,0.486,8.391,0.486,12.037v25.26h-4.772v-44.439
		h5.837l24.226,37.145h0.243c-0.041-0.547-0.132-2.305-0.273-5.273s-0.192-5.092-0.151-6.369v-25.502h4.833V560.914z"/>
	<path fill="#FFFFFF" d="M525.54,635.617l-5.532-14.135h-17.812l-5.471,14.135h-5.229l17.569-44.621h4.347l17.479,44.621H525.54z
		 M518.397,616.832l-5.168-13.77c-0.668-1.742-1.357-3.881-2.066-6.414c-0.446,1.945-1.085,4.084-1.915,6.414l-5.229,13.77H518.397z
		"/>
	<path fill="#FFFFFF" d="M556.546,612.334h15.106v21.611c-2.351,0.75-4.741,1.318-7.173,1.703c-2.433,0.385-5.249,0.578-8.451,0.578
		c-6.728,0-11.966-2.002-15.715-6.004s-5.623-9.611-5.623-16.824c0-4.621,0.927-8.668,2.781-12.145
		c1.854-3.475,4.523-6.129,8.01-7.963c3.484-1.834,7.568-2.752,12.249-2.752c4.742,0,9.16,0.871,13.254,2.615l-2.007,4.559
		c-4.012-1.703-7.872-2.553-11.581-2.553c-5.41,0-9.636,1.611-12.676,4.832c-3.039,3.223-4.559,7.691-4.559,13.406
		c0,5.998,1.463,10.547,4.392,13.646c2.929,3.102,7.229,4.652,12.903,4.652c3.08,0,6.09-0.355,9.028-1.064v-13.68h-9.939V612.334z"
		/>
	<path fill="#FFFFFF" d="M582.321,635.617v-44.439h5.168v44.439H582.321z"/>
	<path fill="#FFFFFF" d="M599.678,635.617v-44.439h5.168v39.76h19.605v4.68H599.678z"/>
	<path fill="#FFFFFF" d="M656.763,635.617h-24.773v-44.439h24.773v4.59h-19.605v14.316h18.42v4.561h-18.42v16.354h19.605V635.617z"
		/>
</g>
<path fill="#4B5666" d="M601.281,88.331c-9.911,0-22.755,5.842-25.282,15.676l-0.002-0.002v0.002
	c-2.527-9.834-15.371-15.676-25.28-15.676c-19.543,0-35.394,15.169-35.394,35.394c0,23.797,14.071,38.358,29.41,50.176
	c9.201,7.09,29.622,23.136,31.238,23.136c0.01,0,0.018-0.002,0.025-0.002s0.018,0.002,0.025,0.002
	c1.617,0,22.039-16.046,31.24-23.136c15.338-11.817,29.412-26.379,29.412-50.176C636.675,103.5,620.824,88.331,601.281,88.331z
	 M536.988,104.34c-6.11,4.52-9.616,11.585-9.616,19.385c0,1.287-1.041,2.33-2.328,2.33s-2.33-1.043-2.33-2.33
	c0-9.293,4.192-17.723,11.504-23.13c1.033-0.766,2.49-0.547,3.257,0.487C538.24,102.116,538.021,103.576,536.988,104.34z"/>
<path fill-rule="evenodd" clip-rule="evenodd" fill="#4B5666" d="M244.117,518.482c0,14.945-8.268,27.951-20.475,34.714
	c0,0-1.483,0.85-3.417,1.184c-1.88,0.324-3.269,0.386-3.269,0.386h-12.51h-12.508c0,0-1.39-0.062-3.271-0.386
	c-1.933-0.334-3.417-1.184-3.417-1.184c-12.207-6.763-20.475-19.769-20.475-34.714c0-16.502,10.078-30.646,24.413-36.625v-22.534
	c-1.949,0-3.529-1.58-3.529-3.527v-6.207c0-1.949,1.58-3.528,3.529-3.528h30.517c1.949,0,3.53,1.579,3.53,3.528v6.207
	c0,1.947-1.581,3.527-3.53,3.527v22.534C234.039,487.836,244.117,501.98,244.117,518.482z M214.654,448.458h-20.416
	c-1.287,0-2.33,1.044-2.33,2.33c0,1.287,1.043,2.329,2.33,2.329h20.416c1.287,0,2.331-1.042,2.331-2.329
	C216.985,449.502,215.941,448.458,214.654,448.458z M216.909,488.561c-2.705-1.128-4.468-3.772-4.468-6.703v-22.534h-15.99v22.534
	c0,2.931-1.762,5.575-4.468,6.703c-12.115,5.054-19.945,16.8-19.945,29.922c0,11.774,6.409,22.641,16.727,28.358
	c0.157,0.079,0.659,0.299,1.14,0.383c1.072,0.185,1.936,0.256,2.248,0.278h12.294h12.297c0.294-0.021,1.164-0.092,2.247-0.279
	c0.481-0.083,0.979-0.303,1.137-0.382c10.317-5.718,16.727-16.584,16.727-28.358C236.854,505.36,229.025,493.614,216.909,488.561z
	 M232.195,518.482c0,10.006-5.404,19.244-14.124,24.171c-0.671,0.11-1.226,0.167-1.512,0.189h-24.232
	c-0.264-0.021-0.824-0.077-1.503-0.189c-8.721-4.926-14.129-14.165-14.129-24.171c0-3.522,0.67-6.894,1.873-9.998h51.756
	C231.528,511.589,232.195,514.96,232.195,518.482z M196.011,534.267c-5.977-3.787-9.678-10.483-9.678-17.549
	c0-1.287-1.042-2.329-2.33-2.329c-1.286,0-2.33,1.042-2.33,2.329c0,8.768,4.653,17.072,12.143,21.67l0.475,0.276l0.697,0.075
	c0.067,0.006,0.135,0.009,0.203,0.009c1.191,0,2.165-0.92,2.27-2.132C197.549,535.586,196.924,534.652,196.011,534.267z"/>
<path fill="#4B5666" d="M618.338,831.323h-84.68c-1.941,0-3.519,1.575-3.519,3.517l0.004,32.631c0,0.003,0.002,0.008,0.002,0.012
	c0,9.801,0,19.631,0,22.917c0,7.284,2.458,17.781,11.87,28.324c13.485,15.104,33.986,21.308,33.986,21.308
	s20.501-6.204,33.986-21.308c9.412-10.543,11.87-21.04,11.87-28.324c0-3.286,0-13.116,0-22.917c0-0.004,0.002-0.009,0.002-0.012
	l-0.005-32.631C621.855,832.898,620.279,831.323,618.338,831.323z M551.249,914.366c-0.444,0.396-0.999,0.59-1.55,0.59
	c-0.642,0-1.279-0.263-1.739-0.778c-9.237-10.345-10.616-20.126-10.616-25.036c0-1.286,1.042-2.33,2.328-2.33
	c1.287,0,2.331,1.044,2.331,2.33c0,4.246,1.225,12.741,9.433,21.935C552.292,912.035,552.207,913.508,551.249,914.366z
	 M614.597,867.356c-0.001,0.041-0.001,0.084-0.001,0.126v22.917c0,4.578-1.304,13.717-10.024,23.486
	c-9.521,10.665-23.334,16.518-28.569,18.462l-0.004-93.762h38.595L614.597,867.356z"/>
<path fill-rule="evenodd" clip-rule="evenodd" fill="#4B5666" d="M1011.525,487.604c-0.16,0-0.33-0.012-0.51-0.038l-6.788-0.949
	l-0.001,49.566c0,1.94-1.531,3.949-3.401,4.466l-49.87,13.733c-0.935,0.257-2.169,0.388-3.401,0.388
	c-1.234,0-2.466-0.131-3.402-0.388l-49.867-13.733c-1.873-0.517-3.402-2.525-3.402-4.466l0.001-49.566l-6.791,0.949
	c-0.179,0.026-0.348,0.038-0.508,0.038c-1.566,0-2.247-1.154-1.512-2.753l9.543-20.781c0.811-1.763,3.002-3.63,4.875-4.145
	l49.868-13.736c0.312-0.086,0.603-0.128,0.867-0.128c0.118,0,0.224,0.018,0.329,0.034c0.106-0.017,0.211-0.034,0.328-0.034
	c0.266,0,0.556,0.042,0.867,0.128l49.869,13.736c1.872,0.515,4.065,2.382,4.876,4.145l9.543,20.781
	C1013.773,486.449,1013.093,487.604,1011.525,487.604z M898.448,530.528c0,1.286,1.043,2.328,2.329,2.328
	c1.287,0,2.329-1.042,2.329-2.328V508.3c0-1.287-1.042-2.329-2.329-2.329c-1.286,0-2.329,1.042-2.329,2.329V530.528z
	 M897.726,464.416c-0.551,0.153-1.639,1.08-1.878,1.598l-7.461,16.246l46.618-6.538c0.239-0.079,0.652-0.435,0.767-0.657
	l7.056-23.073L897.726,464.416z M947.947,478.587l-0.393-1.285v68.841c0.814,0,1.351-0.094,1.474-0.126l47.937-13.202V492.93
	l-38.553-5.409C953.734,486.865,949.332,483.107,947.947,478.587z M999.262,466.014c-0.239-0.518-1.328-1.444-1.879-1.598
	l-45.102-12.425l7.057,23.073c0.113,0.223,0.527,0.578,0.767,0.657l46.617,6.538L999.262,466.014z"/>
<g>
	<path fill="#4B5666" d="M517.639,252.92c-0.36,0.2-0.72,0.32-1.08,0.32c-0.6,0-1.16-0.28-1.48-0.92c-0.2-0.36-0.32-0.72-0.32-1.04
		c0-0.6,0.32-1.16,0.96-1.479c5.439-2.879,9.518-7.359,11.758-12.158c2.52-5.319,3.6-9.838,3.6-18.677c0-0.88,0.76-1.36,1.799-1.36
		c0.92,0,1.68,0.48,1.68,1.36c0,8.759,1.08,13.078,3.72,18.317c2.359,4.719,6.839,9.438,12.158,12.398c0.48,0.24,0.72,0.8,0.72,1.4
		c0,0.36-0.12,0.76-0.32,1.12c-0.4,0.6-0.92,0.84-1.479,0.84c-0.36,0-0.76-0.12-1.12-0.32c-7.039-4.279-13.397-11.558-15.277-21.716
		C530.877,241.841,525.238,248.24,517.639,252.92z"/>
	<path fill="#4B5666" d="M568.877,228.804c-0.88,1.72-2.2,3.759-3.68,5.759c-1.919,2.599-4.199,5.039-5.919,6.679
		c-0.32,0.32-0.72,0.44-1.12,0.44c-0.48,0-0.96-0.2-1.28-0.52c-0.36-0.36-0.56-0.8-0.56-1.24s0.16-0.84,0.56-1.16
		c2.56-2.08,5.559-5.599,7.679-9.039c1.959-3.16,3.639-7.239,4.559-10.238c0.2-0.68,0.8-1.04,1.44-1.04c0.24,0,0.52,0.04,0.76,0.16
		c0.76,0.28,1.16,0.76,1.16,1.4c0,0.16-0.04,0.36-0.08,0.56c-0.48,1.56-1.32,3.479-2.16,5.279l11.958-0.08
		c1.76,0,2.959,1.24,2.959,2.839c0,0.44-0.08,0.92-0.279,1.4c-1.68,4.04-4.8,9.398-8.438,13.518c1.879,1.64,3.719,3.399,5.119,4.999
		c0.319,0.36,0.439,0.76,0.439,1.12c0,0.52-0.24,0.96-0.6,1.32c-0.36,0.28-0.76,0.48-1.2,0.48c-0.439,0-0.88-0.2-1.239-0.64
		c-3.12-3.679-7.839-7.918-11.838-10.518c-0.44-0.28-0.6-0.68-0.6-1.08s0.16-0.8,0.48-1.12c0.36-0.4,0.8-0.6,1.24-0.6
		c0.32,0,0.68,0.12,1.04,0.36c1.439,0.96,3.12,2.24,4.759,3.599c3.12-3.439,5.679-7.918,7.239-11.478c0.08-0.2,0.12-0.4,0.12-0.52
		c0-0.44-0.32-0.64-0.92-0.64H568.877z"/>
	<path fill="#4B5666" d="M601.438,233.523c3.119-2.2,5.358-3.279,7.838-3.279c2.88,0,5,1.24,5.52,4.679
		c3.6-1.28,7.079-2.36,9.838-3.16c0.24-0.04,0.48-0.08,0.681-0.08c0.72,0,1.239,0.36,1.479,1.08c0.04,0.24,0.08,0.44,0.08,0.64
		c0,0.72-0.4,1.28-1.28,1.48c-2.919,0.76-6.679,1.76-10.518,3.159c0.08,1.44,0.12,2.84,0.12,4.279c0,0.76,0,1.52-0.04,2.28
		c-0.04,1-0.681,1.52-1.561,1.52c-0.92,0-1.479-0.52-1.479-1.52c0-1.08,0-2.399,0-3.679c0-0.64,0-1.32,0-1.92
		c-5.599,2.16-8.078,4.559-8.078,7.039c0,2.359,2.6,3.599,8.238,3.599c3.839,0,7.839-0.36,10.798-0.88
		c0.2-0.04,0.36-0.04,0.561-0.04c0.8,0,1.319,0.4,1.479,1.24c0.04,0.16,0.04,0.28,0.04,0.4c0,0.84-0.561,1.52-1.479,1.64
		c-3,0.52-6.879,0.84-11.158,0.84c-7.52,0-11.759-2.08-11.759-6.679c0-3.799,3.68-7.519,11.118-10.198
		c-0.239-2.439-1.439-3.119-3.199-3.119c-3.399,0-7.799,2.639-12.598,7.519c-0.36,0.4-0.84,0.6-1.28,0.6
		c-0.399,0-0.76-0.16-1.079-0.48c-0.36-0.32-0.521-0.76-0.521-1.2c0-0.479,0.2-0.919,0.561-1.28
		c3.439-3.199,6.879-7.358,9.479-11.478c-0.561,0-1.2,0-1.84,0c-2,0-4.279-0.04-6.079-0.12c-0.88-0.04-1.4-0.68-1.4-1.48
		c0-0.04,0-0.12,0-0.16c0.08-0.8,0.641-1.48,1.44-1.48c0.04,0,0.08,0,0.12,0c1.879,0.16,4.438,0.2,7.078,0.2c0.76,0,1.521,0,2.28,0
		c0.8-1.439,1.52-2.919,1.999-4.359c0.28-0.84,0.84-1.16,1.48-1.16c0.199,0,0.359,0.04,0.56,0.08c0.8,0.16,1.239,0.64,1.239,1.24
		c0,0.2-0.039,0.44-0.159,0.68c-0.48,1.16-1,2.24-1.6,3.439c3.399-0.12,8.158-0.6,12.558-1.24c0.12-0.04,0.24-0.04,0.359-0.04
		c0.8,0,1.32,0.44,1.44,1.28c0,0.08,0,0.16,0,0.28c0,0.76-0.48,1.32-1.36,1.48c-5.039,0.72-10.038,1.16-14.598,1.28
		c-1.56,2.639-3.399,5.039-5.479,6.839L601.438,233.523z"/>
</g>
<g>
	<path fill="#4B5666" d="M475.359,283.243c-0.68,0-1.04-0.52-1.04-1.28s0.36-1.2,1.04-1.2h35.194c0.64,0,1.04,0.44,1.04,1.2
		s-0.4,1.28-1.04,1.28h-18.557v18.157c0,0.76-0.52,1.2-1.399,1.2c-0.96,0-1.4-0.44-1.4-1.2v-3.439
		c-4.679,0.96-9.638,1.68-13.438,2.08c-0.08,0-0.12,0-0.16,0c-0.76,0-1.24-0.52-1.24-1.28c-0.04-0.08-0.04-0.2-0.04-0.28
		c0-0.68,0.4-1.16,1.04-1.2c0.84-0.08,1.76-0.16,2.72-0.24v-13.798H475.359z M503.835,266.405c2.399,0,3.479,0.96,3.479,3.16v5.919
		c0,2.2-1.08,3.12-3.479,3.12h-21.716c-2.4,0-3.439-0.92-3.439-3.12v-5.919c0-2.2,1.04-3.16,3.439-3.16H503.835z M480.879,285.882
		h8.318v-2.64h-8.318V285.882z M480.879,290.881h8.318v-2.72h-8.318V290.881z M480.879,296.76c2.799-0.28,5.559-0.72,8.318-1.24
		v-2.399h-8.318V296.76z M504.435,271.365v-1.68c0-0.76-0.4-0.96-1.12-0.96h-20.637c-0.72,0-1.12,0.2-1.12,0.96v1.68H504.435z
		 M481.559,275.324c0,0.76,0.4,1,1.12,1h20.637c0.72,0,1.12-0.24,1.12-1v-1.72h-22.876V275.324z M494.316,288.202
		c-0.68,0-1.08-0.52-1.08-1.24c0-0.76,0.4-1.24,1.08-1.24h11.838c1.76,0,2.64,0.88,2.64,2.16c0,0.6-0.2,1.28-0.56,2
		c-1.16,2.16-2.679,4.2-4.479,5.999c2.04,1.52,4.319,2.68,6.559,3.439c0.6,0.2,0.879,0.6,0.879,1.12c0,0.24-0.04,0.48-0.16,0.76
		c-0.28,0.68-0.76,1-1.32,1c-0.2,0-0.44-0.04-0.64-0.12c-2.599-1.04-5.119-2.479-7.318-4.359c-2,1.68-4.2,3.08-6.479,4.119
		c-0.36,0.16-0.64,0.24-0.92,0.24c-0.52,0-0.92-0.28-1.12-0.72c-0.12-0.24-0.2-0.479-0.2-0.72c0-0.48,0.24-0.96,0.76-1.16
		c2.08-0.92,4.12-2.16,5.919-3.64c-2.08-2.239-3.679-4.759-4.719-7.639H494.316z M497.636,288.202c0.96,2.24,2.32,4.16,4.04,5.919
		c1.52-1.52,2.799-3.159,3.719-4.839c0.16-0.28,0.24-0.48,0.24-0.64c0-0.28-0.24-0.44-0.72-0.44H497.636z"/>
	<path fill="#4B5666" d="M550.914,268.405c0.64,0,1,0.52,1,1.32c0,0.8-0.36,1.32-1,1.32h-33.954c-0.68,0-1.04-0.52-1.04-1.32
		c0-0.76,0.36-1.32,1.04-1.32h15.157v-2.2c0-0.72,0.68-1.12,1.6-1.12c0.959,0,1.6,0.4,1.6,1.12v2.2H550.914z M547.114,284.522
		c2.56,0,3.68,1,3.68,3.319v10.479c0,2.56-1.44,3.519-4.279,3.519c-1.36,0-2.6-0.16-3.6-0.4c-0.64-0.16-1.04-0.56-1.04-1.2
		c0-0.16,0.04-0.32,0.08-0.52c0.2-0.68,0.6-1.04,1.08-1.04c0.12,0,0.28,0.04,0.4,0.04c0.76,0.16,1.76,0.32,2.6,0.32
		c1.28,0,1.72-0.32,1.72-1.56v-9.199c0-0.96-0.44-1.24-1.4-1.24h-24.876c-0.959,0-1.399,0.28-1.399,1.24v12.838
		c0,0.72-0.6,1.16-1.52,1.16s-1.52-0.44-1.6-1.16v-13.278c0-2.319,1.12-3.319,3.679-3.319H547.114z M542.595,273.284
		c2,0,3,0.8,3,2.68v3.56c0,1.919-1,2.719-3,2.719h-17.437c-2,0-3-0.8-3-2.719v-3.56c0-1.88,1-2.68,3-2.68H542.595z M541.595,279.683
		c0.76,0,1.12-0.2,1.12-0.92v-2c0-0.72-0.36-0.92-1.12-0.92h-15.438c-0.76,0-1.12,0.2-1.12,0.92v2c0,0.72,0.36,0.92,1.12,0.92
		H541.595z M527.877,298.76c-1.919,0-2.799-0.68-2.799-2.64v-4.12c0-2,0.88-2.719,2.799-2.719h11.638c1.96,0,2.839,0.72,2.839,2.719
		v4.12c0,1.919-0.879,2.64-2.759,2.64H527.877z M538.436,296.201c0.68,0,1-0.2,1-0.84v-2.68c0-0.72-0.32-0.88-1-0.88h-9.438
		c-0.72,0-1,0.16-1,0.88v2.68c0,0.64,0.28,0.84,0.96,0.84H538.436z"/>
	<path fill="#4B5666" d="M564.718,268.445c0,0.16-0.04,0.32-0.08,0.52c-1.44,5.319-2.2,11.638-2.2,17.477
		c0,3.959,0.36,8.199,1.04,11.918c0.04,0.2,0.04,0.4,0.04,0.6c0,0.92-0.52,1.4-1.36,1.6c-0.16,0.04-0.32,0.04-0.44,0.04
		c-0.76,0-1.36-0.44-1.56-1.52c-0.76-3.68-1.12-7.999-1.12-12.478c0-6.239,0.76-12.718,2.28-18.357c0.24-0.84,0.88-1.2,1.6-1.2
		c0.16,0,0.28,0,0.44,0.04C564.158,267.206,564.718,267.685,564.718,268.445z M573.876,285.322c0,0.4-0.2,0.76-0.52,1.08
		c-1.68,1.6-2.32,3.119-2.32,4.639c0,2.479,2.16,3.759,7.759,3.759c3.439,0,7.119-0.36,9.838-0.96c0.16-0.04,0.32-0.04,0.48-0.04
		c0.8,0,1.399,0.52,1.56,1.32c0.04,0.16,0.04,0.28,0.04,0.44c0,0.8-0.48,1.56-1.359,1.72c-2.96,0.6-6.479,0.88-10.159,0.88
		c-7.358,0-11.278-2.08-11.278-7.119c0-2.44,1-4.719,3.04-6.639c0.44-0.4,0.92-0.6,1.36-0.6c0.36,0,0.72,0.16,1.04,0.44
		C573.717,284.603,573.876,284.962,573.876,285.322z M587.515,271.365c0.999,0,1.52,0.56,1.64,1.479c0,0.04,0,0.08,0,0.12
		c0,0.92-0.4,1.68-1.56,1.8c-3.359,0.4-8.159,0.6-12.519,0.6c-1.479,0-2.919-0.04-4.239-0.08c-1.24-0.04-1.68-0.84-1.68-1.76
		c0.04-0.88,0.6-1.68,1.64-1.68c0.04,0,0.04,0,0.08,0c1.28,0.04,2.72,0.08,4.199,0.08c4.239,0,8.879-0.2,12.118-0.56
		C587.314,271.365,587.395,271.365,587.515,271.365z"/>
	<path fill="#4B5666" d="M616.196,287.362c-1.04,3.479-3.479,4.639-6.639,4.639c-4.16,0-7.119-2.839-7.119-6.839
		c0-4.199,3.319-7.159,7.879-7.159c1.959,0,3.599,0.64,4.759,1.84c-0.04-1.44-0.04-3.479-0.04-5.359
		c-5.879,0.12-11.998,0.36-17.797,0.72c-0.04,0-0.12,0-0.16,0c-0.92,0-1.439-0.64-1.479-1.56c0-0.04,0-0.08,0-0.08
		c0-0.84,0.52-1.48,1.439-1.52c5.64-0.32,11.878-0.52,17.957-0.64c0-1.4-0.04-2.8-0.04-4c0-0.88,0.521-1.44,1.52-1.44
		c1.16,0,1.681,0.48,1.681,1.52c0,1.12,0,2.439,0,3.879c2.159-0.04,4.279-0.08,6.318-0.08c1.439,0,2.88,0,4.239,0.04
		c1.08,0,1.64,0.52,1.64,1.6c0,0.04,0,0.08,0,0.12c0,0.96-0.56,1.4-1.479,1.4c-2.359-0.04-4.839-0.08-7.438-0.08
		c-1.08,0-2.16,0-3.279,0.04c0,2.679,0,5.519,0,8.278c0.8,1.64,1.159,3.359,1.159,5.239c0,5.199-2.239,8.559-6.479,10.798
		c-1.8,0.959-3.96,1.68-6.359,2.12c-0.12,0.04-0.24,0.04-0.399,0.04c-0.8,0-1.44-0.44-1.6-1.32c-0.04-0.16-0.04-0.32-0.04-0.44
		c0-0.84,0.479-1.44,1.279-1.6c7.159-1.319,10.679-4.679,10.679-9.398v-0.76H616.196z M610.517,280.683
		c-2.719,0-4.799,1.8-4.799,4.319c0,2.68,1.84,4.079,4.359,4.079c2.8,0,4.719-1.959,4.719-4.799
		C614.796,282.123,613.076,280.683,610.517,280.683z"/>
	<path fill="#4B5666" d="M646.077,282.363c3.12-1.4,6.039-2.08,8.879-2.08c7.198,0,11.598,3.799,11.598,9.238
		c0,6.719-6.118,10.958-15.877,10.958c-5.919,0-9.759-2.48-9.759-6.199c0-3.12,2.6-5.399,6.52-5.399c4.319,0,7.879,2.6,8.559,7.878
		c4.079-0.959,7.118-3.479,7.118-7.199c0-3.799-3.119-6.559-8.798-6.559c-5.319,0-10.158,1.759-16.718,5.839
		c-0.359,0.2-0.72,0.28-1.079,0.28c-0.561,0-1.12-0.24-1.44-0.76c-0.2-0.28-0.279-0.56-0.279-0.88c0-0.6,0.319-1.2,0.919-1.52
		c6.6-4.04,15.478-10.559,20.517-14.998c-4.358,0.36-10.478,0.6-15.597,0.64c-0.84,0-1.48-0.6-1.48-1.56c0-0.92,0.48-1.64,1.4-1.64
		c5.398,0,12.237-0.2,17.557-0.56c0.12,0,0.24,0,0.36,0c0.92,0,1.6,0.32,1.999,1c0.2,0.36,0.32,0.72,0.32,1.16
		c0,0.56-0.24,1.12-0.76,1.64c-3.439,3.2-7.199,6.079-10.438,8.239c-1.119,0.76-2.479,1.68-3.6,2.319L646.077,282.363z
		 M647.277,291.601c-2.08,0-3.279,1.08-3.279,2.56c0,1.84,2.399,3.359,5.959,3.399c0.96,0,1.959,0,2.919-0.08
		C652.557,293.561,650.037,291.601,647.277,291.601z"/>
</g>
<g>
	<path fill="#4B5666" d="M186.954,582.405c0.64,0,1,0.52,1,1.319s-0.36,1.32-1,1.32H153c-0.68,0-1.04-0.521-1.04-1.32
		c0-0.76,0.36-1.319,1.04-1.319h15.157v-2.2c0-0.72,0.68-1.119,1.6-1.119c0.959,0,1.6,0.399,1.6,1.119v2.2H186.954z
		 M183.154,598.522c2.56,0,3.68,1,3.68,3.319v10.479c0,2.56-1.44,3.52-4.279,3.52c-1.36,0-2.6-0.16-3.6-0.4
		c-0.64-0.16-1.04-0.56-1.04-1.199c0-0.16,0.04-0.32,0.08-0.521c0.2-0.68,0.6-1.04,1.08-1.04c0.12,0,0.28,0.04,0.4,0.04
		c0.76,0.16,1.76,0.32,2.6,0.32c1.28,0,1.72-0.32,1.72-1.56v-9.198c0-0.96-0.44-1.24-1.4-1.24h-24.876
		c-0.959,0-1.399,0.28-1.399,1.24v12.838c0,0.72-0.6,1.159-1.52,1.159s-1.52-0.439-1.6-1.159v-13.278
		c0-2.319,1.12-3.319,3.679-3.319H183.154z M178.635,587.284c2,0,3,0.8,3,2.68v3.56c0,1.92-1,2.72-3,2.72h-17.437c-2,0-3-0.8-3-2.72
		v-3.56c0-1.88,1-2.68,3-2.68H178.635z M177.635,593.684c0.76,0,1.12-0.2,1.12-0.92v-2c0-0.72-0.36-0.92-1.12-0.92h-15.438
		c-0.76,0-1.12,0.2-1.12,0.92v2c0,0.72,0.36,0.92,1.12,0.92H177.635z M163.917,612.76c-1.919,0-2.799-0.68-2.799-2.64v-4.119
		c0-1.999,0.88-2.72,2.799-2.72h11.638c1.96,0,2.839,0.721,2.839,2.72v4.119c0,1.92-0.879,2.64-2.759,2.64H163.917z M174.476,610.2
		c0.68,0,1-0.199,1-0.84v-2.68c0-0.72-0.32-0.88-1-0.88h-9.438c-0.72,0-1,0.16-1,0.88v2.68c0,0.641,0.28,0.84,0.96,0.84H174.476z"/>
	<path fill="#4B5666" d="M200.998,607.841c1.2,2.56,3.439,3.76,5.839,4.159c1.879,0.28,4.359,0.44,7.599,0.44
		c4.919,0,9.798-0.2,13.877-0.561c0.04,0,0.12,0,0.16,0c0.92,0,1.4,0.561,1.44,1.521c0,0.079,0,0.119,0,0.199
		c0,0.84-0.52,1.36-1.48,1.44c-4.079,0.159-9.479,0.319-14.237,0.319c-3.439,0-6.479-0.16-8.439-0.64
		c-2.839-0.6-5.079-2.08-6.359-4.479c-1.399,1.8-3.279,3.68-4.879,4.919c-0.28,0.2-0.56,0.28-0.88,0.28c-0.4,0-0.84-0.2-1.16-0.64
		c-0.28-0.36-0.4-0.72-0.4-1.08c0-0.399,0.2-0.8,0.56-1.04c1.52-1.119,4-3.119,5.359-5.039v-8.479c0-0.76-0.24-1.04-0.96-1.04
		h-3.479c-0.68,0-1.16-0.439-1.16-1.359s0.48-1.399,1.16-1.399h4.519c2.04,0,2.919,1,2.919,3.119V607.841z M201.158,586.604
		c0.28,0.36,0.4,0.68,0.4,1c0,0.439-0.24,0.8-0.68,1.159c-0.32,0.28-0.72,0.44-1.12,0.44s-0.76-0.16-1.08-0.6
		c-1.4-2.08-3.279-4.399-4.959-5.959c-0.24-0.24-0.4-0.561-0.4-0.88c0-0.36,0.2-0.721,0.56-1.08c0.4-0.32,0.76-0.48,1.16-0.48
		c0.32,0,0.6,0.12,0.88,0.36C197.719,582.165,199.798,584.604,201.158,586.604z M203.998,585.925c-0.68,0-1.08-0.521-1.08-1.36
		c0-0.8,0.4-1.319,1.08-1.319h10.238v-2.96c0-0.76,0.52-1.079,1.4-1.079c0.84,0,1.44,0.319,1.44,1.079v2.96h10.878
		c0.68,0,1.12,0.52,1.12,1.319s-0.44,1.36-1.12,1.36h-10.878v3.079h6.879c2.319,0,3.279,0.76,3.279,2.92v4.559
		c0,2.12-0.96,2.92-3.16,2.92h-5.439c2.8,2.999,6.599,5.399,9.958,6.679c0.48,0.16,0.84,0.72,0.84,1.32
		c0,0.239-0.04,0.439-0.16,0.68c-0.28,0.64-0.8,0.92-1.36,0.92c-0.2,0-0.44-0.04-0.68-0.12c-3.799-1.52-8.159-4.919-10.398-8.199
		c0.12,0.92,0.24,2.28,0.24,3.64v5.56c0,0.72-0.6,1.079-1.44,1.079c-0.88,0-1.4-0.359-1.4-1.079v-5.52c0-1.399,0.08-2.68,0.2-3.64
		c-2.36,3.08-5.839,5.76-9.358,7.56c-0.28,0.119-0.56,0.199-0.8,0.199c-0.56,0-1-0.279-1.32-0.8c-0.12-0.279-0.2-0.56-0.2-0.84
		c0-0.479,0.28-0.96,0.84-1.199c3.24-1.48,6.279-3.479,8.999-6.239h-5.079c-2.2,0-3.159-0.8-3.159-2.92v-4.559
		c0-2.16,0.959-2.92,3.239-2.92h6.639v-3.079H203.998z M214.236,591.523h-5.839c-0.8,0-1.16,0.2-1.16,0.92v3.64
		c0,0.72,0.36,0.96,1.16,0.96h5.839V591.523z M223.234,597.043c0.8,0,1.12-0.24,1.12-0.96v-3.64c0-0.72-0.32-0.92-1.12-0.92h-6.159
		v5.52H223.234z"/>
	<path fill="#4B5666" d="M241.718,582.445c0,0.16-0.04,0.319-0.08,0.52c-1.44,5.319-2.2,11.639-2.2,17.478
		c0,3.959,0.36,8.198,1.04,11.918c0.04,0.2,0.04,0.399,0.04,0.6c0,0.92-0.52,1.399-1.36,1.6c-0.16,0.04-0.32,0.04-0.44,0.04
		c-0.76,0-1.36-0.439-1.56-1.52c-0.76-3.68-1.12-7.999-1.12-12.478c0-6.239,0.76-12.719,2.28-18.357c0.24-0.84,0.88-1.2,1.6-1.2
		c0.16,0,0.28,0,0.44,0.04C241.158,581.205,241.718,581.686,241.718,582.445z M250.876,599.322c0,0.4-0.2,0.76-0.52,1.08
		c-1.68,1.6-2.32,3.119-2.32,4.639c0,2.479,2.16,3.76,7.759,3.76c3.439,0,7.119-0.36,9.838-0.96c0.16-0.04,0.32-0.04,0.48-0.04
		c0.8,0,1.399,0.52,1.56,1.32c0.04,0.159,0.04,0.279,0.04,0.439c0,0.8-0.48,1.56-1.36,1.72c-2.959,0.6-6.479,0.88-10.158,0.88
		c-7.359,0-11.278-2.08-11.278-7.119c0-2.439,1-4.719,3.04-6.639c0.44-0.399,0.92-0.6,1.36-0.6c0.36,0,0.72,0.16,1.04,0.439
		C250.717,598.603,250.876,598.962,250.876,599.322z M264.514,585.364c1,0,1.52,0.561,1.64,1.48c0,0.04,0,0.08,0,0.12
		c0,0.919-0.4,1.68-1.56,1.799c-3.359,0.4-8.159,0.601-12.518,0.601c-1.479,0-2.919-0.04-4.239-0.08c-1.24-0.04-1.68-0.84-1.68-1.76
		c0.04-0.88,0.6-1.68,1.64-1.68c0.04,0,0.04,0,0.08,0c1.28,0.04,2.72,0.08,4.199,0.08c4.24,0,8.879-0.2,12.118-0.561
		C264.314,585.364,264.395,585.364,264.514,585.364z"/>
</g>
<g>
	<path fill="#4B5666" d="M94.596,652.762c2.8,4.438,8.479,7.318,15.278,8.318c0.68,0.08,1.2,0.68,1.2,1.439c0,0.12,0,0.28-0.04,0.4
		c-0.2,0.92-0.88,1.319-1.6,1.319c-0.12,0-0.2,0-0.28-0.04c-7.319-1.239-13.518-4.519-17.117-10.158
		c-0.56,1.2-1.28,2.319-2.08,3.319c-3.159,3.88-8.079,5.919-12.798,6.879c-0.2,0.04-0.36,0.04-0.52,0.04
		c-0.72,0-1.28-0.399-1.479-1.159c-0.08-0.16-0.08-0.36-0.08-0.521c0-0.72,0.4-1.319,1.12-1.439c4.399-0.88,8.959-2.6,11.398-5.52
		c0.76-0.96,1.399-1.919,1.879-2.879H76.279c-0.68,0-1.12-0.48-1.12-1.32c0-0.8,0.44-1.279,1.12-1.279h14.158
		c0.32-1.16,0.48-2.36,0.6-3.56H80.799c-0.68,0-1.08-0.521-1.08-1.28c0-0.8,0.4-1.239,1.08-1.239h10.438c0-0.28,0-0.561,0-0.84
		c0.04-0.8,0.08-1.6,0.08-2.399H80.439c-0.72,0-1.08-0.521-1.08-1.28c0-0.8,0.36-1.239,1.08-1.239h10.918
		c0.04-0.761,0.04-1.561,0.04-2.4c0-0.76,0.48-1.199,1.36-1.199c0.959,0,1.399,0.359,1.399,1.119c0,0.88,0,1.72-0.04,2.48h11.358
		c0.68,0,1.08,0.439,1.08,1.239c0,0.76-0.4,1.28-1.08,1.28H94.116c0,0.159,0,0.319,0,0.52c-0.04,0.88-0.04,1.8-0.12,2.72h10.958
		c0.68,0,1.08,0.439,1.08,1.239c0,0.76-0.4,1.28-1.08,1.28H93.836c-0.08,1.199-0.28,2.359-0.52,3.56h16.478
		c0.68,0,1.12,0.479,1.12,1.279c0,0.84-0.44,1.32-1.12,1.32H94.596z M106.834,631.165c2.359,0,3.439,1,3.439,3.279v3.88
		c0,0.84-0.56,1.239-1.52,1.239c-0.92,0-1.479-0.399-1.479-1.199v-3.439c0-0.8-0.4-1.04-1.24-1.04H79.959
		c-0.88,0-1.28,0.24-1.28,1.04v3.399c0,0.76-0.56,1.159-1.48,1.159c-0.96,0-1.52-0.399-1.52-1.199v-3.84
		c0-2.279,1.08-3.279,3.479-3.279h11.998v-2.6c0-0.84,0.48-1.319,1.52-1.319c1.08,0,1.52,0.479,1.52,1.319v2.6H106.834z"/>
	<path fill="#4B5666" d="M118.799,651.722c0,0.04,0,0.04,0,0.08c-0.16,2.919-0.88,6.599-1.8,9.198c-0.2,0.56-0.56,0.84-1,0.84
		c-0.16,0-0.28-0.04-0.44-0.08c-0.48-0.16-0.72-0.56-0.72-1c0-0.16,0.04-0.279,0.08-0.399c0.8-2.399,1.439-5.879,1.68-8.759
		c0.04-0.56,0.44-0.88,1.08-0.88c0.04,0,0.08,0,0.12,0C118.319,650.762,118.799,651.042,118.799,651.722z M128.277,646.603
		c2.08,0,3.04,0.8,3.04,2.919c0,4.56-0.56,9.119-1.399,11.918c-0.56,1.76-1.64,2.64-3.64,2.64c-0.88,0-2.16-0.119-3-0.319
		c-0.52-0.12-0.96-0.521-0.96-1.2c0-0.12,0-0.28,0.04-0.439c0.2-0.681,0.68-1.04,1.16-1.04c0.08,0,0.2,0,0.28,0.04
		c0.6,0.2,1.4,0.319,2,0.319c1.08,0,1.6-0.239,1.92-1.479c0.6-2.279,1-6.079,1-9.918c0-0.88-0.36-1.08-1.12-1.08h-7.719
		c-2.2,0-3.239-0.84-3.239-2.999v-14.638c0-2.16,1.04-3,3.239-3h10.479c0.68,0,1.04,0.521,1.04,1.24s-0.36,1.239-1.04,1.239h-4.279
		v3.6h3.159c0.64,0,1,0.48,1,1.12c0,0.68-0.36,1.199-1,1.199h-3.159v3.56h3.159c0.64,0,1,0.48,1,1.12c0,0.68-0.36,1.2-1,1.2h-3.159
		v3.999H128.277z M123.519,634.404v-3.6h-3.08c-0.76,0-1.16,0.2-1.16,1v2.6H123.519z M119.279,640.283h4.239v-3.56h-4.239V640.283z
		 M119.279,645.522c0,0.84,0.4,1.08,1.16,1.08h3.08v-3.999h-4.239V645.522z M120.639,650.842c0.52,0,0.92,0.24,1,0.76
		c0.2,1.64,0.28,3.359,0.28,4.999c0,1-0.04,1.92-0.12,2.8c-0.04,0.6-0.4,1-1,1c-0.04,0-0.08,0-0.08,0c-0.6-0.04-1.04-0.32-1.04-0.96
		c0-0.04,0-0.12,0-0.16c0.12-1.16,0.16-2.399,0.16-3.68c0-1.279-0.04-2.6-0.16-3.839c0-0.04,0-0.08,0-0.08
		c0-0.56,0.36-0.8,0.84-0.84C120.559,650.842,120.599,650.842,120.639,650.842z M123.358,650.722c0.4,0,0.72,0.2,0.84,0.68
		c0.4,1.6,0.88,4.359,1,6.119c0,0.04,0,0.04,0,0.08c0,0.64-0.4,0.96-0.84,1c-0.04,0-0.08,0-0.12,0c-0.48,0-0.88-0.2-0.92-0.84
		c-0.08-1.84-0.48-4.52-0.84-6.039c-0.04-0.08-0.04-0.16-0.04-0.24c0-0.399,0.28-0.68,0.72-0.76
		C123.238,650.722,123.278,650.722,123.358,650.722z M125.998,650.361c0.36,0,0.64,0.12,0.76,0.561c0.4,1.199,0.76,2.919,0.96,4.119
		c0,0.08,0,0.16,0,0.24c0,0.479-0.2,0.76-0.64,0.84c-0.08,0-0.16,0-0.24,0c-0.36,0-0.68-0.2-0.76-0.72c-0.2-1.2-0.6-3.04-0.92-4.08
		c-0.04-0.08-0.04-0.199-0.04-0.239c0-0.4,0.28-0.601,0.6-0.681C125.798,650.361,125.918,650.361,125.998,650.361z M153.033,636.204
		c0,0.28-0.08,0.56-0.2,0.8c-0.24,0.521-0.76,0.8-1.24,0.8c-0.2,0-0.4-0.04-0.6-0.16c-3.319-1.76-6.799-4.599-8.639-6.998
		c-0.2-0.24-0.4-0.4-0.64-0.4c-0.2,0-0.4,0.12-0.6,0.4c-1.959,2.52-5.319,5.438-8.398,7.318c-0.24,0.12-0.48,0.2-0.76,0.2
		c-0.4,0-0.84-0.24-1.16-0.64c-0.16-0.32-0.28-0.641-0.28-0.96c0-0.44,0.2-0.88,0.68-1.12c2.959-1.72,6.279-4.52,8.479-7.239
		c0.48-0.6,1.28-0.919,2.04-0.919s1.479,0.279,2,0.879c2,2.44,5.399,5.199,8.599,6.879
		C152.793,635.284,153.033,635.765,153.033,636.204z M143.635,652.642c1.88,3.879,4.799,6.599,8.399,8.479
		c0.52,0.28,0.8,0.84,0.8,1.399c0,0.28-0.08,0.561-0.2,0.8c-0.28,0.521-0.72,0.8-1.24,0.8c-0.28,0-0.6-0.08-0.88-0.239
		c-3.559-2.04-6.839-5.319-8.838-9.479c-1.56,4.039-4.679,7.438-8.639,9.519c-0.32,0.199-0.64,0.279-0.959,0.279
		c-0.44,0-0.84-0.16-1.16-0.6c-0.16-0.24-0.24-0.52-0.24-0.8c0-0.56,0.28-1.08,0.68-1.28c4.08-2.119,6.799-4.919,7.999-8.878h-3.799
		c-2.04,0-3-0.8-3-2.8v-5.319c0-2.039,0.96-2.839,3-2.839h4.879v-3.04h-3.439c-0.76,0-1.08-0.52-1.08-1.279s0.32-1.24,1.04-1.24
		h9.798c0.72,0,1.04,0.48,1.04,1.24s-0.32,1.279-1.08,1.279h-3.479v3.04h5.04c2.04,0,2.959,0.8,2.959,2.839v5.319
		c0,2-0.92,2.8-2.959,2.8H143.635z M139.916,650.242c0.32-2.04,0.44-4.08,0.48-6.119h-4c-0.72,0-1.04,0.2-1.04,1v4.159
		c0,0.76,0.32,0.96,1.04,0.96H139.916z M147.395,650.242c0.72,0,1.04-0.2,1.04-0.96v-4.159c0-0.8-0.32-1-1.04-1h-4.2
		c-0.08,2.039-0.2,4.079-0.52,6.119H147.395z"/>
	<path fill="#4B5666" d="M185.314,658.681c0.32,0.319,0.44,0.72,0.44,1.079c0,0.561-0.28,1.08-0.72,1.44
		c-0.4,0.279-0.919,0.479-1.399,0.479c-0.44,0-0.84-0.16-1.16-0.52l-3.359-3.64c-3,3.119-6.079,4.52-10.718,4.52
		c-5.759,0-9.998-3.72-9.998-8.959c0-4.559,2.439-7.038,7.559-9.438l-0.8-0.84c-1.72-1.84-2.879-3.559-2.879-6.119
		c0-2.479,1.12-4.438,3.199-5.719c1.32-0.84,3.08-1.279,5-1.279c5.199,0,8.238,2.759,8.238,6.679c0,2.64-1.2,4.479-2.959,5.799
		c-1.04,0.88-2.359,1.6-4.239,2.439l7.559,7.799c1.44-2.04,2.12-4.399,2.64-6.959c0.16-0.88,0.84-1.199,1.52-1.199
		c0.16,0,0.36,0.04,0.56,0.08c0.68,0.159,1.4,0.56,1.4,1.479c0,0.12,0,0.279-0.04,0.439c-0.68,3.2-2,6.319-3.759,8.559
		L185.314,658.681z M168.197,646.003c-4.319,1.959-6.039,3.599-6.039,6.958s2.8,5.84,6.599,5.84c3.119,0,5.679-1.16,8.079-3.72
		L168.197,646.003z M169.277,642.283c1.76-0.68,3.08-1.32,3.919-1.92c1.4-1.04,1.92-2.279,1.92-3.799c0-2.24-1.52-3.84-4.639-3.84
		c-2.76,0-4.6,1.8-4.6,4.199c0,1.92,1.16,3.04,2.4,4.359L169.277,642.283z"/>
	<path fill="#4B5666" d="M212.556,649.922h15.278c0.76,0,1.16,0.52,1.16,1.359s-0.4,1.44-1.16,1.44h-15.278v7.759
		c0,2.56-1.359,3.639-5.119,3.639c-1.359,0-2.959-0.159-4.159-0.479c-0.6-0.16-0.96-0.68-0.96-1.399c0-0.12,0-0.28,0.04-0.44
		c0.2-0.68,0.64-1.08,1.24-1.08c0.12,0,0.2,0,0.32,0.04c0.959,0.24,2.16,0.48,3.199,0.48c1.92,0,2.4-0.36,2.4-1.4v-7.118H194.12
		c-0.76,0-1.16-0.601-1.16-1.44s0.4-1.359,1.16-1.359h15.397v-2.359c0-0.76,0.64-1.12,1.52-1.12c0.16,0,0.36,0,0.48,0.04
		c2.399-0.96,4.639-2.159,6.399-3.319c0.2-0.12,0.32-0.24,0.32-0.32c0-0.12-0.2-0.199-0.52-0.199h-16.757
		c-0.76,0-1.16-0.641-1.16-1.4c0-0.84,0.4-1.399,1.16-1.399h19.396c1.32,0,2.08,0.88,2.08,1.92c0,0.68-0.36,1.439-1.08,1.999
		c-2.439,1.84-5.359,3.439-8.799,4.919V649.922z M224.634,633.564c2.36,0,3.56,1.04,3.56,3.239v5.039c0,0.761-0.56,1.2-1.52,1.2
		c-0.88,0-1.479-0.439-1.479-1.2v-4.519c0-0.84-0.44-1.08-1.24-1.08h-26.076c-0.8,0-1.2,0.24-1.2,1.08v4.519
		c0,0.761-0.6,1.2-1.52,1.2s-1.52-0.439-1.52-1.2v-5.039c0-2.199,1.2-3.239,3.52-3.239h3.919c-0.84-1.439-2-2.919-2.799-3.959
		c-0.16-0.2-0.24-0.4-0.24-0.64c0-0.44,0.32-0.92,0.919-1.12c0.24-0.12,0.48-0.16,0.72-0.16c0.48,0,0.88,0.24,1.2,0.64
		c1.12,1.4,2.28,3.12,3.439,5.239h5.679c-0.68-1.68-1.52-3.319-2.159-4.359c-0.16-0.199-0.2-0.439-0.2-0.64c0-0.52,0.36-0.92,1-1.12
		c0.24-0.04,0.44-0.08,0.64-0.08c0.56,0,0.96,0.24,1.32,0.8c0.76,1.24,1.48,2.92,2.399,5.399h4.399
		c1.48-1.76,2.68-3.759,3.399-5.239c0.24-0.52,0.68-0.76,1.2-0.76c0.24,0,0.56,0.04,0.84,0.16c0.64,0.24,0.96,0.64,0.96,1.12
		c0,0.199-0.08,0.439-0.2,0.64c-0.76,1.279-1.8,2.76-2.92,4.079H224.634z"/>
	<path fill="#4B5666" d="M247.677,628.485c2.4,0,3.359,0.88,3.359,3.159v9.999c0,2.239-1.6,3.079-3.959,3.079
		c-1.24,0-2.24-0.08-3.12-0.28c-0.56-0.119-1-0.6-1-1.239c0-0.12,0-0.28,0.04-0.4c0.16-0.6,0.6-0.96,1.16-0.96
		c0.08,0,0.2,0,0.28,0.04c0.72,0.16,1.36,0.28,2.279,0.28c1.16,0,1.44-0.12,1.44-1.12v-8.878c0-0.8-0.36-1-1.12-1h-11.758
		c-0.72,0-1.16-0.52-1.16-1.319c0-0.84,0.44-1.36,1.16-1.36H247.677z M245.518,637.084c0.44,0,0.8,0.2,1.04,0.56
		c0.16,0.28,0.24,0.561,0.24,0.84c0,0.4-0.2,0.8-0.64,1.08c-2.479,1.56-6.559,3.479-9.599,4.68c-0.32,0.12-0.6,0.159-0.84,0.159
		c-0.64,0-1.12-0.319-1.32-0.84c-0.08-0.199-0.12-0.399-0.12-0.6c0-0.56,0.36-1.12,1-1.319c2.959-1,7.039-2.88,9.239-4.239
		C244.838,637.204,245.198,637.084,245.518,637.084z M243.398,634.484c0.4,0.28,0.64,0.72,0.64,1.16c0,0.279-0.08,0.52-0.24,0.76
		c-0.32,0.399-0.8,0.6-1.24,0.6c-0.28,0-0.56-0.08-0.76-0.2c-1.44-0.88-3.16-1.72-4.559-2.319c-0.4-0.2-0.6-0.52-0.6-0.92
		c0-0.24,0.08-0.52,0.24-0.76c0.24-0.439,0.72-0.72,1.28-0.72c0.16,0,0.36,0.04,0.56,0.12
		C240.039,632.685,241.958,633.564,243.398,634.484z M261.715,647.242c2.56,0,3.6,0.92,3.6,3.08V660.4c0,2.239-1.04,3.119-3.6,3.119
		h-19.437c-2.52,0-3.6-0.88-3.6-3.119v-10.078c0-2.16,1.08-3.08,3.6-3.08h7.239c0.56-0.92,1-1.84,1.36-2.6
		c0.2-0.479,0.68-0.8,1.28-0.8c0.16,0,0.36,0.04,0.56,0.08c0.68,0.2,1.04,0.64,1.04,1.12c0,0.12-0.04,0.239-0.04,0.359
		c-0.24,0.48-0.6,1.2-1,1.84H261.715z M262.275,653.801v-2.919c0-0.8-0.36-1-1.16-1h-18.277c-0.8,0-1.12,0.2-1.12,1v2.919H262.275z
		 M241.718,659.8c0,0.8,0.32,1,1.12,1h18.277c0.8,0,1.16-0.2,1.16-1v-3.359h-20.557V659.8z M268.754,641.923
		c0,2.24-1.48,3.04-3.839,3.04c-1.44,0-2.959-0.12-3.759-0.36c-0.52-0.12-1-0.56-1-1.239c0-0.16,0-0.28,0.04-0.44
		c0.16-0.6,0.6-0.96,1.2-0.96c0.12,0,0.28,0,0.4,0.04c0.6,0.16,1.56,0.32,2.56,0.32c1.16,0,1.44-0.16,1.44-1.28v-8.878
		c0-0.8-0.36-1-1.12-1h-11.318c-0.68,0-1.12-0.52-1.12-1.319c0-0.84,0.44-1.36,1.12-1.36h11.998c2.439,0,3.399,0.88,3.399,3.159
		V641.923z M262.995,636.724c0.48,0,0.84,0.24,1.12,0.681c0.08,0.199,0.16,0.439,0.16,0.68c0,0.399-0.16,0.8-0.64,1.08
		c-2.32,1.399-5.999,3.159-8.878,3.999c-0.24,0.08-0.44,0.12-0.64,0.12c-0.56,0-1-0.28-1.2-0.8c-0.12-0.24-0.16-0.44-0.16-0.641
		c0-0.56,0.4-1.039,1-1.199c2.72-0.8,6.199-2.359,8.398-3.68C262.435,636.804,262.755,636.724,262.995,636.724z M260.515,634.444
		c0.4,0.28,0.64,0.68,0.64,1.12c0,0.2-0.04,0.439-0.16,0.64c-0.32,0.56-0.84,0.8-1.32,0.8c-0.24,0-0.48-0.08-0.68-0.2
		c-1.44-0.88-3.16-1.72-4.439-2.279c-0.48-0.2-0.72-0.56-0.72-0.96c0-0.28,0.08-0.52,0.24-0.76c0.24-0.439,0.72-0.72,1.28-0.72
		c0.16,0,0.36,0.04,0.56,0.12C257.236,632.685,259.115,633.604,260.515,634.444z"/>
	<path fill="#4B5666" d="M294.196,649.362c-1.04,3.479-3.479,4.639-6.639,4.639c-4.159,0-7.119-2.839-7.119-6.839
		c0-4.199,3.319-7.158,7.878-7.158c1.96,0,3.6,0.64,4.759,1.839c-0.04-1.439-0.04-3.479-0.04-5.358
		c-5.879,0.12-11.998,0.359-17.797,0.72c-0.04,0-0.12,0-0.16,0c-0.919,0-1.439-0.64-1.479-1.56c0-0.04,0-0.08,0-0.08
		c0-0.84,0.52-1.479,1.44-1.52c5.639-0.32,11.878-0.521,17.957-0.641c0-1.399-0.04-2.799-0.04-3.999c0-0.88,0.52-1.439,1.52-1.439
		c1.16,0,1.68,0.479,1.68,1.52c0,1.12,0,2.439,0,3.879c2.16-0.04,4.279-0.08,6.319-0.08c1.44,0,2.879,0,4.239,0.04
		c1.08,0,1.64,0.521,1.64,1.601c0,0.04,0,0.079,0,0.119c0,0.96-0.56,1.4-1.479,1.4c-2.36-0.04-4.839-0.08-7.439-0.08
		c-1.08,0-2.16,0-3.279,0.04c0,2.68,0,5.519,0,8.278c0.8,1.64,1.16,3.359,1.16,5.239c0,5.199-2.239,8.559-6.479,10.798
		c-1.8,0.96-3.959,1.68-6.359,2.12c-0.12,0.04-0.24,0.04-0.4,0.04c-0.8,0-1.439-0.44-1.6-1.32c-0.04-0.159-0.04-0.319-0.04-0.439
		c0-0.84,0.48-1.439,1.28-1.6c7.159-1.32,10.678-4.68,10.678-9.398v-0.76H294.196z M288.517,642.683c-2.72,0-4.799,1.8-4.799,4.319
		c0,2.68,1.84,4.08,4.359,4.08c2.799,0,4.719-1.96,4.719-4.8C292.796,644.123,291.077,642.683,288.517,642.683z"/>
	<path fill="#4B5666" d="M324.078,644.363c3.119-1.4,6.039-2.08,8.878-2.08c7.199,0,11.598,3.799,11.598,9.238
		c0,6.719-6.119,10.958-15.877,10.958c-5.919,0-9.758-2.479-9.758-6.198c0-3.12,2.6-5.399,6.519-5.399
		c4.319,0,7.879,2.6,8.559,7.879c4.08-0.96,7.119-3.479,7.119-7.199c0-3.799-3.12-6.559-8.799-6.559
		c-5.319,0-10.158,1.76-16.717,5.839c-0.36,0.2-0.72,0.28-1.08,0.28c-0.56,0-1.12-0.24-1.44-0.761c-0.2-0.279-0.28-0.56-0.28-0.879
		c0-0.601,0.32-1.2,0.92-1.521c6.599-4.039,15.478-10.558,20.517-14.997c-4.359,0.359-10.479,0.6-15.598,0.64
		c-0.84,0-1.479-0.6-1.479-1.56c0-0.92,0.48-1.64,1.4-1.64c5.399,0,12.238-0.2,17.557-0.56c0.12,0,0.24,0,0.36,0
		c0.919,0,1.6,0.319,2,0.999c0.2,0.36,0.32,0.72,0.32,1.16c0,0.56-0.24,1.12-0.76,1.64c-3.439,3.199-7.199,6.079-10.438,8.238
		c-1.12,0.761-2.479,1.68-3.599,2.32L324.078,644.363z M325.277,653.602c-2.08,0-3.279,1.079-3.279,2.56
		c0,1.84,2.399,3.359,5.959,3.399c0.959,0,1.959,0,2.919-0.08C330.556,655.561,328.037,653.602,325.277,653.602z"/>
</g>
<g>
	<path fill="#4B5666" d="M878.719,603.562c0,0.04,0,0.04,0,0.08c-0.199,3.159-1,7.479-1.879,10.318c-0.16,0.56-0.681,0.88-1.24,0.88
		c-0.16,0-0.32-0.04-0.479-0.08c-0.641-0.16-1-0.68-1-1.399c0-0.04,0-0.12,0-0.2c0.96-2.68,1.68-6.679,1.879-9.719
		c0.04-0.64,0.601-0.999,1.24-0.999c0.08,0,0.16,0,0.2,0C878.119,602.521,878.719,602.882,878.719,603.562z M880.519,600.242
		c-1.68,0.16-3.399,0.24-5.039,0.32c-0.8,0-1.279-0.4-1.319-1.32c0-0.08,0-0.12,0-0.199c0-0.761,0.479-1.2,1.159-1.24
		c0.561,0,1.16,0,1.76-0.04c0.92-1.12,1.8-2.279,2.68-3.479c-1.52-2.119-3.439-4.359-4.999-5.879c-0.2-0.28-0.32-0.6-0.32-0.92
		c0-0.359,0.12-0.68,0.4-0.96c0.28-0.359,0.64-0.52,1-0.52c0.279,0,0.56,0.12,0.76,0.359c0.319,0.32,0.64,0.681,1,1.04
		c1.319-2.119,2.52-4.52,3.359-6.438c0.239-0.48,0.64-0.72,1.119-0.72c0.24,0,0.48,0.04,0.681,0.159
		c0.56,0.2,0.919,0.641,0.919,1.12c0,0.2-0.039,0.4-0.159,0.6c-1.04,2.16-2.4,4.6-4.199,7.279c0.72,0.84,1.399,1.68,2.079,2.56
		c1.439-2.08,2.76-4.199,3.84-6.119c0.279-0.479,0.68-0.72,1.119-0.72c0.24,0,0.48,0.08,0.721,0.2c0.479,0.239,0.76,0.68,0.76,1.119
		c0,0.24-0.08,0.48-0.2,0.681c-2.12,3.599-4.879,7.358-7.438,10.518c0.319,0,0.6,0,0.88-0.04c1.479-0.08,2.919-0.16,4.358-0.359
		c-0.319-0.76-0.64-1.521-0.959-2.2c-0.12-0.2-0.16-0.439-0.16-0.64c0-0.4,0.239-0.76,0.72-1c0.24-0.12,0.439-0.16,0.64-0.16
		c0.48,0,0.84,0.32,1.08,0.8c0.84,1.601,1.84,4.08,2.439,5.919c0.04,0.2,0.08,0.4,0.08,0.561c0,0.6-0.36,0.96-0.84,1.08
		c-0.24,0.079-0.44,0.119-0.64,0.119c-0.521,0-0.92-0.239-1.08-0.88c-0.12-0.399-0.24-0.8-0.4-1.239
		c-0.319,0.04-0.64,0.08-0.959,0.12c-0.681,0.08-1.32,0.199-1.96,0.239v16.397c0,0.68-0.561,1.04-1.4,1.04s-1.479-0.36-1.479-1.04
		V600.242z M886.198,602.362c0.56,0,0.919,0.279,1.079,0.999c0.561,1.92,1.08,5.359,1.32,7.52c0,0.08,0,0.159,0,0.199
		c0,0.88-0.641,1.28-1.2,1.36c-0.08,0-0.12,0-0.2,0c-0.64,0-1.279-0.4-1.359-1.24c-0.2-2.119-0.52-4.919-1.08-7.278
		c-0.04-0.16-0.04-0.28-0.04-0.4c0-0.6,0.4-1,1.04-1.119C885.918,602.362,886.078,602.362,886.198,602.362z M889.877,582.405
		c0-0.76,0.601-1.2,1.44-1.2c0.919,0,1.439,0.44,1.439,1.2V612.2c0,0.84,0.399,1.12,1.199,1.12h16.518c0.76,0,1.16,0.6,1.16,1.399
		c0,0.84-0.4,1.4-1.12,1.4h-17.077c-2.52,0-3.56-0.88-3.56-3.36V582.405z M910.113,594.203c0.721,0,1.08,0.521,1.08,1.32
		s-0.359,1.319-1.08,1.319h-5.998c1.72,3.76,4.318,7.199,7.038,9.599c0.24,0.2,0.4,0.56,0.4,0.92c0,0.359-0.12,0.76-0.4,1.08
		c-0.279,0.359-0.68,0.52-1.04,0.52c-0.359,0-0.68-0.12-0.879-0.36c-2.76-2.52-5.159-6.679-6.319-9.998
		c0.2,1.479,0.439,3.52,0.439,4.959v7.079c0,0.72-0.479,1.12-1.359,1.12c-0.84,0-1.359-0.4-1.359-1.12v-7.079
		c0-1.399,0.239-3.159,0.439-4.839c-1.439,4.079-3.56,7.839-5.279,9.798c-0.359,0.36-0.72,0.561-1.079,0.561
		c-0.28,0-0.601-0.16-0.88-0.44c-0.32-0.359-0.48-0.72-0.48-1.079c0-0.4,0.16-0.761,0.44-1.04c2.279-2.439,4.398-5.72,5.919-9.679
		h-4.6c-0.72,0-1.12-0.52-1.12-1.319s0.4-1.32,1.12-1.32h5.56v-12.397c0-0.72,0.479-1.12,1.319-1.12c0.88,0,1.359,0.4,1.359,1.12
		v12.397H910.113z M899.155,591.044c0,0.56-0.359,0.96-0.88,1.12c-0.199,0.04-0.359,0.08-0.56,0.08c-0.56,0-1.04-0.32-1.24-1.08
		c-0.439-1.8-1.359-4.479-2.079-6.199c-0.12-0.2-0.16-0.439-0.16-0.6c0-0.521,0.32-0.88,0.8-1.08c0.24-0.08,0.48-0.12,0.68-0.12
		c0.44,0,0.84,0.2,1.04,0.68c0.96,2.08,1.84,4.72,2.359,6.879C899.155,590.844,899.155,590.924,899.155,591.044z M910.193,584.205
		c0,0.08,0,0.2-0.04,0.32c-0.56,2.279-1.68,5.198-2.52,6.958c-0.279,0.601-0.64,0.92-1.159,0.92c-0.2,0-0.44-0.04-0.68-0.159
		c-0.48-0.2-0.84-0.561-0.84-1.08c0-0.24,0.079-0.48,0.199-0.8c0.8-1.521,1.76-4.359,2.32-6.56c0.119-0.52,0.56-0.84,1.119-0.84
		c0.2,0,0.4,0.04,0.601,0.12C909.834,583.245,910.193,583.646,910.193,584.205z"/>
	<path fill="#4B5666" d="M921.639,600.162c-1.72,0.16-3.439,0.32-5.079,0.4c-0.04,0-0.08,0-0.08,0c-0.72,0-1.16-0.44-1.239-1.32
		c0-0.04,0-0.08,0-0.12c0-0.8,0.439-1.239,1.159-1.279c0.6,0,1.2-0.04,1.84-0.04c0.92-1.16,1.8-2.399,2.64-3.6
		c-1.6-2.119-3.479-4.359-5.079-5.879c-0.24-0.32-0.36-0.64-0.36-1c0-0.319,0.12-0.64,0.32-0.92c0.32-0.359,0.68-0.56,1.04-0.56
		c0.239,0,0.52,0.12,0.72,0.32c0.359,0.359,0.76,0.76,1.12,1.159c1.359-2.079,2.56-4.519,3.319-6.479
		c0.199-0.48,0.6-0.68,1.079-0.68c0.2,0,0.44,0.04,0.681,0.159c0.56,0.2,0.919,0.601,0.919,1.12c0,0.2-0.039,0.4-0.159,0.64
		c-0.96,2.24-2.4,4.8-4.04,7.199c0.721,0.8,1.4,1.64,2.04,2.52c1.399-2.159,2.64-4.319,3.6-6.159c0.24-0.439,0.64-0.68,1.119-0.68
		c0.2,0,0.44,0.04,0.681,0.16c0.52,0.28,0.8,0.68,0.8,1.159c0,0.24-0.08,0.48-0.2,0.761c-1.8,3.279-4.68,7.519-7.039,10.598
		c1.64-0.04,3.319-0.2,4.959-0.399c-0.319-0.92-0.72-1.84-1.079-2.64c-0.08-0.12-0.12-0.28-0.12-0.44c0-0.399,0.24-0.76,0.76-1
		c0.2-0.119,0.439-0.159,0.6-0.159c0.48,0,0.84,0.279,1.04,0.64c0.96,1.88,1.84,4.119,2.399,6.278c0.04,0.12,0.04,0.2,0.04,0.32
		c0,0.521-0.319,0.92-0.92,1.12c-0.16,0.04-0.359,0.08-0.52,0.08c-0.521,0-0.96-0.28-1.12-0.88c-0.08-0.32-0.2-0.68-0.319-1.04
		c-0.561,0.08-1.16,0.16-1.76,0.24c-0.32,0.04-0.601,0.08-0.88,0.12v16.437c0,0.68-0.601,1.08-1.48,1.08
		c-0.84,0-1.399-0.4-1.399-1.08V600.162z M919.759,603.842c0,0,0,0.04,0,0.08c-0.2,3.079-0.8,6.919-1.6,9.798
		c-0.16,0.601-0.72,0.88-1.319,0.88c-0.16,0-0.32-0.04-0.48-0.08c-0.6-0.159-1.04-0.6-1.04-1.159c0-0.12,0-0.24,0.04-0.4
		c0.92-2.8,1.44-6.278,1.64-9.078c0.04-0.84,0.44-1.24,1.4-1.24c0.04,0,0.08,0,0.12,0
		C919.319,602.682,919.759,603.082,919.759,603.842z M929.917,609.801c0,0.72-0.52,1.16-1.159,1.239c-0.08,0.04-0.16,0.04-0.24,0.04
		c-0.6,0-1.12-0.359-1.2-1.159c-0.239-1.92-0.72-4.279-1.199-5.999c-0.04-0.12-0.04-0.28-0.04-0.4c0-0.64,0.439-0.96,0.96-1.119
		c0.12-0.04,0.239-0.04,0.359-0.04c0.521,0,0.96,0.239,1.12,0.8c0.6,2.079,1.12,4.479,1.399,6.398
		C929.917,609.641,929.917,609.721,929.917,609.801z M938.636,601.922c0,7.759-2.72,12.518-8.238,14.878
		c-0.28,0.08-0.561,0.16-0.8,0.16c-0.561,0-1.04-0.28-1.28-0.84c-0.12-0.36-0.2-0.641-0.2-0.92c0-0.561,0.28-1,0.92-1.24
		c1.96-0.88,3.76-2.04,4.92-3.999c1.199-1.96,1.68-4.84,1.68-7.799c0-1.08,0.56-1.479,1.6-1.479
		C938.156,600.683,938.636,601.082,938.636,601.922z M949.594,590.524c0.68,0,1.04,0.52,1.04,1.239s-0.36,1.32-1.04,1.32h-17.477
		c-0.72,0-1.08-0.601-1.08-1.32s0.36-1.239,1.08-1.239h6.799v-3.92h-7.879c-0.68,0-1.08-0.56-1.08-1.319s0.4-1.28,1.08-1.28h7.879
		v-2.72c0-0.76,0.56-1.159,1.439-1.159c0.92,0,1.439,0.399,1.439,1.159v2.72h8.999c0.68,0,1.08,0.521,1.08,1.28
		s-0.4,1.319-1.08,1.319h-8.999v3.92H949.594z M948.354,595.883c2.399,0,3.359,0.84,3.359,3.16v3.319c0,0.8-0.601,1.199-1.48,1.199
		c-0.919,0-1.439-0.399-1.439-1.119v-3c0-0.8-0.479-1.04-1.199-1.04h-13.278c-0.72,0-1.16,0.24-1.16,1.04v3
		c0,0.68-0.479,1.079-1.359,1.079c-0.92,0-1.399-0.359-1.399-1.199v-3.279c0-2.32,0.92-3.16,3.319-3.16H948.354z M941.835,601.802
		c0-0.76,0.561-1.119,1.44-1.119c0.84,0,1.479,0.359,1.479,1.119v10.639c0,1.04,0.24,1.159,2.359,1.159
		c1.64,0,2.08-0.319,2.359-0.959c0.28-0.601,0.4-1.88,0.521-3.439c0.04-0.721,0.479-1.2,1.279-1.2c0.04,0,0.08,0,0.16,0
		c0.84,0.08,1.2,0.52,1.2,1.439c0,0.08,0,0.12,0,0.16c-0.08,2.08-0.521,4.199-1.08,5.159c-0.76,1.28-1.8,1.72-4.879,1.72
		c-3.76,0-4.84-0.56-4.84-3.319V601.802z"/>
	<path fill="#4B5666" d="M967.878,586.045c2.279,0,3.359,0.88,3.359,3.119V611.2c0,2.28-1.12,3.239-3.359,3.239h-6.919
		c-2.279,0-3.399-0.959-3.399-3.239v-22.036c0-2.239,1.08-3.119,3.399-3.119h1.359c0.641-1.64,1.12-3.399,1.48-4.88
		c0.159-0.6,0.64-0.919,1.319-0.919c0.16,0,0.36,0,0.52,0.04c0.84,0.159,1.2,0.56,1.2,1.199c0,0.12,0,0.24-0.04,0.32
		c-0.36,1.359-0.88,2.959-1.439,4.239H967.878z M968.197,598.203v-8.359c0-0.88-0.399-1.079-1.159-1.079h-5.239
		c-0.8,0-1.2,0.199-1.2,1.079v8.359H968.197z M960.599,610.561c0,0.92,0.4,1.12,1.2,1.12h5.239c0.76,0,1.159-0.2,1.159-1.12v-9.679
		h-7.599V610.561z M978.076,588.924c-1,2-2.12,3.88-3.279,5.279c-0.32,0.4-0.76,0.561-1.2,0.561c-0.399,0-0.84-0.16-1.12-0.4
		c-0.279-0.28-0.439-0.64-0.439-1.04c0-0.399,0.12-0.8,0.439-1.119c2.12-2.48,4.199-6.879,5.199-10.959
		c0.2-0.76,0.76-1.039,1.4-1.039c0.16,0,0.319,0,0.479,0.04c0.64,0.119,1.12,0.6,1.12,1.279c0,0.16,0,0.28-0.04,0.44
		c-0.36,1.319-0.8,2.639-1.28,3.999h9.639c2.479,0,3.56,1.08,3.56,3.56c0,0.279,0,0.56,0,0.8c0,11.518-0.84,18.757-2.12,22.796
		c-0.84,2.64-2.6,3.56-5.479,3.56c-1.72,0-3.6-0.24-4.959-0.6c-0.641-0.16-0.96-0.721-0.96-1.4c0-0.16,0.04-0.359,0.08-0.56
		c0.199-0.72,0.72-1.08,1.319-1.08c0.16,0,0.32,0.04,0.48,0.08c0.999,0.32,2.319,0.52,3.799,0.52c1.72,0,2.52-0.399,3-2.199
		c0.959-3.479,1.68-10.639,1.68-21.276c0-0.96-0.4-1.24-1.32-1.24H978.076z M978.036,594.243c0.359,0,0.72,0.12,1,0.48
		c1.999,2.399,3.919,5.799,5.119,8.358c0.12,0.24,0.16,0.479,0.16,0.72c0,0.56-0.28,1.08-0.84,1.359c-0.28,0.12-0.601,0.2-0.88,0.2
		c-0.521,0-1.04-0.28-1.32-0.92c-1-2.279-2.8-5.639-4.6-7.958c-0.199-0.28-0.319-0.561-0.319-0.88c0-0.4,0.2-0.801,0.6-1.04
		C977.276,594.363,977.676,594.243,978.036,594.243z"/>
	<path fill="#4B5666" d="M1004.718,583.445c0,0.16-0.04,0.319-0.08,0.52c-1.439,5.319-2.199,11.639-2.199,17.478
		c0,3.959,0.36,8.198,1.04,11.918c0.04,0.2,0.04,0.399,0.04,0.6c0,0.92-0.521,1.399-1.36,1.6c-0.159,0.04-0.319,0.04-0.439,0.04
		c-0.76,0-1.359-0.439-1.56-1.52c-0.76-3.68-1.12-7.999-1.12-12.478c0-6.239,0.76-12.719,2.279-18.357c0.24-0.84,0.88-1.2,1.6-1.2
		c0.16,0,0.28,0,0.44,0.04C1004.158,582.205,1004.718,582.686,1004.718,583.445z M1013.877,600.322c0,0.4-0.2,0.76-0.521,1.08
		c-1.68,1.6-2.319,3.119-2.319,4.639c0,2.479,2.159,3.76,7.759,3.76c3.439,0,7.119-0.36,9.838-0.96c0.16-0.04,0.32-0.04,0.48-0.04
		c0.8,0,1.399,0.52,1.56,1.32c0.04,0.159,0.04,0.279,0.04,0.439c0,0.8-0.48,1.56-1.359,1.72c-2.96,0.6-6.479,0.88-10.159,0.88
		c-7.358,0-11.277-2.08-11.277-7.119c0-2.439,0.999-4.719,3.039-6.639c0.44-0.399,0.92-0.6,1.359-0.6c0.36,0,0.721,0.16,1.04,0.439
		C1013.717,599.603,1013.877,599.962,1013.877,600.322z M1027.515,586.364c0.999,0,1.52,0.561,1.64,1.48c0,0.04,0,0.08,0,0.12
		c0,0.919-0.4,1.68-1.56,1.799c-3.359,0.4-8.159,0.601-12.519,0.601c-1.479,0-2.919-0.04-4.239-0.08
		c-1.239-0.04-1.68-0.84-1.68-1.76c0.04-0.88,0.6-1.68,1.64-1.68c0.04,0,0.04,0,0.08,0c1.28,0.04,2.72,0.08,4.199,0.08
		c4.239,0,8.879-0.2,12.118-0.561C1027.314,586.364,1027.395,586.364,1027.515,586.364z"/>
</g>
<g>
	<path fill="#4B5666" d="M840.039,647.883c0-1.561,0.12-3.24,0.36-4.84c-0.681,1.44-1.4,2.72-2.24,3.76
		c-0.359,0.439-0.76,0.68-1.159,0.68c-0.32,0-0.641-0.12-0.96-0.36c-0.44-0.279-0.64-0.68-0.64-1.079c0-0.32,0.119-0.641,0.319-0.96
		c3.239-4.159,5.919-9.958,7.438-15.758c0.16-0.68,0.601-1.039,1.32-1.039c0.16,0,0.359,0.039,0.56,0.079
		c0.72,0.2,1.16,0.641,1.16,1.24c0,0.12-0.04,0.28-0.08,0.439c-0.76,2.72-1.8,5.439-3.039,8.159v26.075
		c0,0.76-0.601,1.12-1.561,1.12c-0.88,0-1.479-0.36-1.479-1.12V647.883z M848.118,633.484c-0.76,0-1.16-0.56-1.16-1.439
		s0.4-1.399,1.16-1.399h24.436c0.72,0,1.12,0.52,1.12,1.359c0,0.92-0.4,1.479-1.12,1.479h-7.919v6.6h4.239
		c2.36,0,3.52,0.96,3.52,3.359v17.077c0,2.359-1.159,3.359-3.52,3.359h-18.557c-2.359,0-3.52-1-3.52-3.359v-17.077
		c0-2.399,1.16-3.359,3.52-3.359h4.039v-6.6H848.118z M851.037,642.843c-0.88,0-1.279,0.24-1.279,1.16v15.917
		c0,0.92,0.399,1.16,1.279,1.16h3.319v-18.237H851.037z M861.796,640.084v-6.6h-4.6v6.6H861.796z M861.796,661.08v-18.237h-4.6
		v18.237H861.796z M868.114,661.08c0.92,0,1.32-0.24,1.32-1.16v-15.917c0-0.92-0.4-1.16-1.32-1.16h-3.479v18.237H868.114z"/>
	<path fill="#4B5666" d="M881.319,647.922c0-1.6,0.16-3.399,0.439-5.079c-0.72,1.44-1.52,2.84-2.359,3.88
		c-0.32,0.439-0.8,0.64-1.24,0.64c-0.359,0-0.68-0.12-0.999-0.359c-0.32-0.28-0.521-0.721-0.521-1.16c0-0.32,0.08-0.68,0.32-0.96
		c3.52-4.439,5.999-9.519,7.519-15.558c0.2-0.72,0.6-1.079,1.28-1.079c0.159,0,0.359,0.04,0.56,0.079
		c0.76,0.12,1.199,0.601,1.199,1.28c0,0.16,0,0.28-0.039,0.439c-0.761,2.76-1.84,5.64-3.12,8.319v25.795
		c0,0.761-0.56,1.12-1.52,1.12c-0.88,0-1.52-0.359-1.52-1.12V647.922z M891.837,664.08c-2.319,0-3.679-1.12-3.679-3.52v-21.477
		c0-0.76,0.6-1.16,1.52-1.16c0.88,0,1.52,0.4,1.52,1.16V660c0,0.88,0.521,1.36,1.479,1.36h20.597c0.72,0,1.12,0.56,1.12,1.359
		s-0.4,1.36-1.12,1.36H891.837z M908.874,638.204c2.24,0,3.24,0.84,3.24,2.88v14.557c0,2.04-1,2.88-3.24,2.88h-10.758
		c-2.199,0-3.199-0.84-3.199-2.88v-14.557c0-2.04,1-2.88,3.199-2.88h1.319c0.32-1.08,0.561-2.2,0.761-3.319h-10.278
		c-0.721,0-1.08-0.561-1.08-1.36s0.359-1.319,1.08-1.319h10.758c0.12-0.92,0.24-1.84,0.32-2.68c0.08-0.88,0.56-1.239,1.399-1.239
		c0.08,0,0.16,0,0.24,0c0.92,0.079,1.359,0.52,1.359,1.239c0,0.08,0,0.16,0,0.24c-0.12,0.8-0.24,1.6-0.399,2.439h10.158
		c0.72,0,1.079,0.52,1.079,1.319s-0.359,1.36-1.079,1.36h-10.679c-0.239,1.119-0.52,2.239-0.8,3.319H908.874z M909.274,644.123
		v-2.52c0-0.72-0.36-0.96-1.2-0.96h-9.118c-0.84,0-1.2,0.24-1.2,0.96v2.52H909.274z M897.756,650.002h11.519v-3.479h-11.519V650.002
		z M897.756,655.121c0,0.72,0.36,0.96,1.2,0.96h9.118c0.84,0,1.2-0.24,1.2-0.96v-2.72h-11.519V655.121z"/>
	<path fill="#4B5666" d="M927.358,644.522c3.119-2.199,5.358-3.279,7.838-3.279c2.88,0,5,1.24,5.52,4.68
		c3.6-1.28,7.079-2.359,9.838-3.159c0.24-0.04,0.48-0.08,0.681-0.08c0.72,0,1.239,0.359,1.479,1.079c0.04,0.24,0.08,0.44,0.08,0.641
		c0,0.72-0.4,1.279-1.28,1.479c-2.919,0.76-6.679,1.76-10.518,3.159c0.08,1.44,0.12,2.84,0.12,4.279c0,0.76,0,1.52-0.04,2.28
		c-0.04,0.999-0.681,1.52-1.561,1.52c-0.92,0-1.479-0.521-1.479-1.52c0-1.08,0-2.4,0-3.68c0-0.64,0-1.32,0-1.92
		c-5.599,2.16-8.078,4.56-8.078,7.039c0,2.359,2.6,3.6,8.238,3.6c3.839,0,7.839-0.36,10.798-0.88c0.2-0.04,0.36-0.04,0.561-0.04
		c0.8,0,1.319,0.399,1.479,1.239c0.04,0.16,0.04,0.28,0.04,0.4c0,0.84-0.561,1.52-1.479,1.64c-3,0.52-6.879,0.84-11.158,0.84
		c-7.52,0-11.759-2.08-11.759-6.679c0-3.8,3.68-7.52,11.118-10.198c-0.239-2.44-1.439-3.12-3.199-3.12
		c-3.399,0-7.799,2.64-12.598,7.519c-0.36,0.4-0.84,0.601-1.28,0.601c-0.399,0-0.76-0.16-1.079-0.48
		c-0.36-0.319-0.521-0.76-0.521-1.199c0-0.48,0.2-0.92,0.561-1.28c3.439-3.199,6.879-7.358,9.479-11.478c-0.561,0-1.2,0-1.84,0
		c-2,0-4.279-0.04-6.079-0.12c-0.88-0.04-1.4-0.68-1.4-1.479c0-0.04,0-0.12,0-0.16c0.08-0.8,0.641-1.48,1.44-1.48
		c0.04,0,0.08,0,0.12,0c1.879,0.16,4.438,0.2,7.078,0.2c0.76,0,1.521,0,2.28,0c0.8-1.439,1.52-2.919,1.999-4.359
		c0.28-0.84,0.84-1.159,1.48-1.159c0.199,0,0.359,0.04,0.56,0.08c0.8,0.159,1.239,0.64,1.239,1.239c0,0.2-0.039,0.44-0.159,0.68
		c-0.48,1.16-1,2.24-1.6,3.439c3.399-0.12,8.158-0.6,12.558-1.239c0.12-0.04,0.24-0.04,0.359-0.04c0.8,0,1.32,0.439,1.44,1.279
		c0,0.08,0,0.16,0,0.28c0,0.76-0.48,1.319-1.36,1.479c-5.039,0.72-10.038,1.16-14.598,1.28c-1.56,2.64-3.399,5.039-5.479,6.839
		L927.358,644.522z"/>
	<path fill="#4B5666" d="M964.559,639.724c-0.04,10.238-1.24,17.997-4.239,23.836c-0.32,0.64-0.8,0.96-1.36,0.96
		c-0.279,0-0.6-0.08-0.959-0.28c-0.561-0.319-0.84-0.72-0.84-1.239c0-0.28,0.08-0.6,0.279-0.96c3.2-6.079,4.079-12.438,4.04-29.075
		c0-2.439,1.279-3.52,3.799-3.52h24.316c2.439,0,3.599,0.92,3.599,3.359v3.64c0,2.399-1.159,3.279-3.599,3.279H964.559z
		 M988.914,637.004c0.8,0,1.32-0.239,1.32-1.119v-2.52c0-0.84-0.521-1.12-1.32-1.12h-22.636c-1.24,0-1.68,0.319-1.68,1.359v3.399
		H988.914z M988.715,645.243c2.479,0,3.599,0.92,3.599,3.359v12.678c0,2.479-1.119,3.399-3.599,3.399h-18.197
		c-2.479,0-3.6-0.92-3.6-3.399v-12.678c0-2.439,1.12-3.359,3.6-3.359h7.398v-3.16c0-0.76,0.601-1.119,1.48-1.119
		c0.879,0,1.479,0.359,1.479,1.119v3.16H988.715z M971.277,647.883c-0.92,0-1.399,0.279-1.399,1.239v4.159h8.038v-5.398H971.277z
		 M969.878,655.841v4.919c0,1,0.479,1.24,1.399,1.24h6.639v-6.159H969.878z M980.876,653.281h8.479v-4.159
		c0-0.96-0.48-1.239-1.439-1.239h-7.039V653.281z M980.876,662h7.039c0.959,0,1.439-0.24,1.439-1.24v-4.919h-8.479V662z"/>
	<path fill="#4B5666" d="M1006.798,631.485c0,0.16-0.04,0.319-0.08,0.52c-1.159,5.399-1.919,10.998-1.919,15.397
		c0,4.319,0.52,9.039,1.479,13.078c0.08,0.24,0.12,0.479,0.12,0.72c0,0.76-0.44,1.239-1.16,1.439c-0.16,0.04-0.359,0.08-0.56,0.08
		c-0.72,0-1.4-0.399-1.68-1.319c-1.04-4.119-1.6-9.159-1.6-13.958c0-4.64,0.8-10.278,1.919-16.037c0.16-1,0.88-1.439,1.8-1.439
		c0.08,0,0.2,0,0.32,0C1006.318,630.085,1006.798,630.686,1006.798,631.485z M1026.955,645.243c0,5.919-1.04,10.038-2.72,12.758
		c-1.72,2.799-4.8,5.079-8.119,6.119c-0.279,0.079-0.52,0.119-0.76,0.119c-0.68,0-1.199-0.319-1.439-1.039
		c-0.12-0.32-0.16-0.561-0.16-0.8c0-0.681,0.36-1.16,1.08-1.4c2.56-0.88,5.279-2.52,6.679-4.799c1.32-2.12,2.199-5.68,2.199-11.118
		c0-1.04,0-2.08-0.039-3.159c-2.04,0.159-4.08,0.239-6.199,0.239c-2.2,0-4.84-0.04-6.319-0.16c-0.8-0.079-1.399-0.68-1.399-1.56
		c0,0,0-0.04,0-0.08c0.04-0.92,0.64-1.479,1.439-1.479c0.04,0,0.04,0,0.08,0c1.399,0.08,4.079,0.16,5.999,0.16
		c2.159,0,4.279-0.04,6.319-0.2c-0.08-2.8-0.24-5.599-0.4-7.639c0-0.08,0-0.12,0-0.2c0-0.96,0.56-1.399,1.56-1.479
		c0.04,0,0.08,0,0.12,0c0.92,0,1.479,0.48,1.56,1.479c0.16,2,0.32,4.68,0.4,7.479c1.64-0.16,3.319-0.44,4.679-0.721
		c0.16-0.04,0.28-0.04,0.4-0.04c0.8,0,1.319,0.521,1.399,1.28c0.04,0.12,0.04,0.24,0.04,0.36c0,0.76-0.479,1.359-1.239,1.479
		c-1.561,0.279-3.24,0.56-5.199,0.76C1026.955,642.843,1026.955,644.003,1026.955,645.243z"/>
	<path fill="#4B5666" d="M1048.077,645.363c3.12-1.4,6.039-2.08,8.879-2.08c7.198,0,11.598,3.799,11.598,9.238
		c0,6.719-6.118,10.958-15.877,10.958c-5.919,0-9.759-2.479-9.759-6.198c0-3.12,2.6-5.399,6.52-5.399c4.319,0,7.879,2.6,8.559,7.879
		c4.079-0.96,7.118-3.479,7.118-7.199c0-3.799-3.119-6.559-8.798-6.559c-5.319,0-10.158,1.76-16.718,5.839
		c-0.359,0.2-0.72,0.28-1.079,0.28c-0.561,0-1.12-0.24-1.44-0.761c-0.2-0.279-0.279-0.56-0.279-0.879c0-0.601,0.319-1.2,0.919-1.521
		c6.6-4.039,15.478-10.558,20.517-14.997c-4.358,0.359-10.478,0.6-15.597,0.64c-0.84,0-1.48-0.6-1.48-1.56
		c0-0.92,0.48-1.64,1.4-1.64c5.398,0,12.237-0.2,17.557-0.56c0.12,0,0.24,0,0.36,0c0.92,0,1.6,0.319,1.999,0.999
		c0.2,0.36,0.32,0.72,0.32,1.16c0,0.56-0.24,1.12-0.76,1.64c-3.439,3.199-7.199,6.079-10.438,8.238
		c-1.119,0.761-2.479,1.68-3.6,2.32L1048.077,645.363z M1049.277,654.602c-2.08,0-3.279,1.079-3.279,2.56
		c0,1.84,2.399,3.359,5.959,3.399c0.96,0,1.959,0,2.919-0.08C1054.557,656.561,1052.037,654.602,1049.277,654.602z"/>
</g>
<g>
	<path fill="#4B5666" d="M544.715,981.763c-0.56,1.64-1.08,3.239-1.879,4.759c-1.12,2.04-2.52,3.92-4.12,5.64
		c4.2,1.56,8.439,3.399,12.078,5.399c0.56,0.279,0.84,0.76,0.84,1.319c0,0.28-0.08,0.6-0.28,0.96c-0.32,0.56-0.8,0.88-1.36,0.88
		c-0.32,0-0.64-0.08-1-0.28c-3.799-2.199-8.238-4.279-12.758-6.079c-4.319,3.359-9.958,5.479-16.677,6.679c-0.08,0-0.16,0-0.2,0
		c-0.76,0-1.44-0.399-1.6-1.319c-0.04-0.16-0.04-0.28-0.04-0.4c0-0.8,0.52-1.359,1.24-1.439c5.399-0.92,10.078-2.359,13.877-4.799
		c-2.879-1-5.759-1.88-8.398-2.56c-1-0.24-1.56-1.04-1.56-1.92c0-0.56,0.2-1.12,0.64-1.64c1.28-1.56,2.52-3.319,3.719-5.199h-8.918
		c-0.72,0-1.12-0.64-1.12-1.439c0-0.84,0.4-1.44,1.12-1.44h10.558c0.92-1.76,1.72-3.559,2.32-5.278c0.24-0.681,0.64-1,1.28-1
		c0.2,0,0.4,0.04,0.64,0.12c0.76,0.239,1.2,0.68,1.2,1.319c0,0.2-0.04,0.44-0.16,0.72c-0.56,1.36-1.2,2.76-1.919,4.119h19.517
		c0.76,0,1.16,0.601,1.16,1.44c0,0.8-0.4,1.439-1.16,1.439H544.715z M548.714,968.325c2.399,0,3.479,1.04,3.479,3.399v3.799
		c0,0.8-0.64,1.2-1.6,1.2c-0.92,0-1.6-0.4-1.6-1.16v-3.239c0-0.88-0.44-1.16-1.28-1.16h-25.476c-0.84,0-1.28,0.28-1.28,1.16v3.239
		c0,0.76-0.68,1.16-1.6,1.16c-0.96,0-1.6-0.4-1.6-1.2v-3.799c0-2.359,1.08-3.399,3.479-3.399h11.958v-2.88
		c0-0.84,0.56-1.279,1.56-1.279c1.04,0,1.56,0.439,1.56,1.279v2.88H548.714z M530.637,981.763c-1.2,2-2.479,3.879-3.799,5.56
		c-0.2,0.279-0.32,0.479-0.32,0.6c0,0.2,0.2,0.359,0.72,0.479c2.52,0.72,5.359,1.6,8.319,2.6c1.76-1.52,3.199-3.399,4.279-5.438
		c0.64-1.2,1.08-2.48,1.56-3.8H530.637z"/>
	<path fill="#4B5666" d="M575.757,964.325c0.92,0,1.88,0.36,2.399,1.04c4.239,5.76,9.799,9.398,15.558,12.158
		c0.76,0.32,1.079,0.92,1.079,1.56c0,0.24-0.039,0.521-0.159,0.8c-0.24,0.601-0.84,1-1.48,1c-0.239,0-0.479-0.04-0.72-0.16
		c-6.198-2.999-12.478-7.958-16.117-12.878c-0.2-0.279-0.36-0.399-0.52-0.399c-0.16,0-0.36,0.12-0.52,0.359
		c-3.6,5.239-9.798,10.079-15.357,12.718c-0.4,0.2-0.8,0.32-1.2,0.32c-0.56,0-1.04-0.24-1.32-0.8c-0.12-0.28-0.2-0.56-0.2-0.84
		c0-0.6,0.36-1.2,1.2-1.6c5.039-2.399,10.519-6.079,14.958-12.238C573.917,964.686,574.837,964.325,575.757,964.325z
		 M592.794,996.76c0.72,0,1.12,0.561,1.12,1.44c0,0.84-0.4,1.479-1.12,1.479H559.08c-0.72,0-1.12-0.6-1.12-1.479
		c0-0.84,0.4-1.44,1.12-1.44h15.037v-7.118h-9.758c-0.72,0-1.12-0.601-1.12-1.44s0.4-1.359,1.12-1.359h9.758v-5.919h-8.198
		c-0.72,0-1.12-0.6-1.12-1.439s0.4-1.36,1.12-1.36h19.876c0.76,0,1.16,0.521,1.16,1.36s-0.4,1.439-1.16,1.439h-8.639v5.919h10.398
		c0.72,0,1.08,0.52,1.08,1.359s-0.36,1.44-1.08,1.44h-10.398v7.118H592.794z"/>
	<path fill="#4B5666" d="M607.358,980.522c3.119-2.199,5.358-3.279,7.838-3.279c2.88,0,5,1.24,5.52,4.68
		c3.6-1.28,7.079-2.359,9.838-3.159c0.24-0.04,0.48-0.08,0.681-0.08c0.72,0,1.239,0.359,1.479,1.079c0.04,0.24,0.08,0.44,0.08,0.641
		c0,0.72-0.4,1.279-1.28,1.479c-2.919,0.76-6.679,1.76-10.518,3.159c0.08,1.44,0.12,2.84,0.12,4.279c0,0.76,0,1.52-0.04,2.28
		c-0.04,0.999-0.681,1.52-1.561,1.52c-0.92,0-1.479-0.521-1.479-1.52c0-1.08,0-2.4,0-3.68c0-0.64,0-1.32,0-1.92
		c-5.599,2.16-8.078,4.56-8.078,7.039c0,2.359,2.6,3.6,8.238,3.6c3.839,0,7.839-0.36,10.798-0.88c0.2-0.04,0.36-0.04,0.561-0.04
		c0.8,0,1.319,0.399,1.479,1.239c0.04,0.16,0.04,0.28,0.04,0.4c0,0.84-0.561,1.52-1.479,1.64c-3,0.52-6.879,0.84-11.158,0.84
		c-7.52,0-11.759-2.08-11.759-6.679c0-3.8,3.68-7.52,11.118-10.198c-0.239-2.44-1.439-3.12-3.199-3.12
		c-3.399,0-7.799,2.64-12.598,7.519c-0.36,0.4-0.84,0.601-1.28,0.601c-0.399,0-0.76-0.16-1.079-0.48
		c-0.36-0.319-0.521-0.76-0.521-1.199c0-0.48,0.2-0.92,0.561-1.28c3.439-3.199,6.879-7.358,9.479-11.478c-0.561,0-1.2,0-1.84,0
		c-2,0-4.279-0.04-6.079-0.12c-0.88-0.04-1.4-0.68-1.4-1.479c0-0.04,0-0.12,0-0.16c0.08-0.8,0.641-1.48,1.44-1.48
		c0.04,0,0.08,0,0.12,0c1.879,0.16,4.438,0.2,7.078,0.2c0.76,0,1.521,0,2.28,0c0.8-1.439,1.52-2.919,1.999-4.359
		c0.28-0.84,0.84-1.159,1.48-1.159c0.199,0,0.359,0.04,0.56,0.08c0.8,0.159,1.239,0.64,1.239,1.239c0,0.2-0.039,0.44-0.159,0.68
		c-0.48,1.16-1,2.24-1.6,3.439c3.399-0.12,8.158-0.6,12.558-1.239c0.12-0.04,0.24-0.04,0.359-0.04c0.8,0,1.32,0.439,1.44,1.279
		c0,0.08,0,0.16,0,0.28c0,0.76-0.48,1.319-1.36,1.479c-5.039,0.72-10.038,1.16-14.598,1.28c-1.56,2.64-3.399,5.039-5.479,6.839
		L607.358,980.522z"/>
</g>
<g>
	<path fill="#4B5666" d="M500.036,1017.965c1.64-1.88,2.72-3.64,3.56-5.079c0.28-0.521,0.8-0.8,1.399-0.8c0.24,0,0.52,0.04,0.8,0.16
		c0.68,0.239,1.08,0.72,1.08,1.199c0,0.16-0.04,0.32-0.16,0.48c-0.88,1.319-1.919,2.719-3.159,4.039h10.598
		c0.72,0,1.08,0.56,1.08,1.359c0,0.84-0.36,1.4-1.08,1.4h-34.274c-0.72,0-1.08-0.561-1.08-1.4c0-0.8,0.36-1.359,1.08-1.359h10.558
		c-0.879-1.439-2-2.8-2.879-3.88c-0.16-0.199-0.24-0.399-0.24-0.64c0-0.439,0.32-0.88,0.92-1.12c0.32-0.119,0.64-0.199,0.92-0.199
		c0.52,0,0.879,0.199,1.16,0.52c1.32,1.52,2.479,3.319,3.599,5.319H500.036z M484.319,1048.199c0,0.721-0.68,1.12-1.52,1.12
		c-0.88,0-1.479-0.399-1.479-1.12v-21.276c0-2.159,1.04-3.119,3.239-3.119h8.039c2.2,0,3.28,0.96,3.28,3.119v18.638
		c0,2.279-1.4,3.359-4.04,3.359c-0.96,0-2.04,0-3-0.24c-0.52-0.12-0.92-0.6-0.92-1.24c0-0.12,0-0.239,0.04-0.359
		c0.12-0.76,0.68-1.08,1.16-1.08c0.04,0,0.08,0,0.16,0c0.68,0.16,1.64,0.24,2.12,0.24c1.24,0,1.56-0.28,1.56-1.36v-4.719h-8.639
		V1048.199z M492.958,1027.403c0-0.76-0.36-0.96-1.12-0.96h-6.439c-0.72,0-1.08,0.2-1.08,0.96v3.239h8.639V1027.403z
		 M484.319,1037.481h8.639v-4.159h-8.639V1037.481z M503.916,1040.161c0,0.72-0.76,1.12-1.56,1.12c-0.92,0-1.56-0.4-1.56-1.12
		v-14.838c0-0.68,0.64-1.079,1.56-1.079c0.8,0,1.56,0.399,1.56,1.079V1040.161z M512.554,1045.28c0,2.52-1.44,3.719-4.52,3.719
		c-1.399,0-2.879-0.079-3.839-0.279c-0.64-0.12-1.08-0.6-1.08-1.36c0-0.119,0-0.239,0.04-0.399c0.12-0.8,0.64-1.2,1.24-1.2
		c0.12,0,0.2,0,0.32,0.04c0.84,0.2,1.92,0.28,2.799,0.28c1.6,0,1.92-0.28,1.92-1.56v-20.197c0-0.76,0.56-1.199,1.479-1.199
		c0.92,0,1.64,0.439,1.64,1.199V1045.28z"/>
	<path fill="#4B5666" d="M531.158,1019.885c0.8,0,1.2,0.56,1.2,1.359s-0.4,1.399-1.2,1.399h-3.399v6.959
		c0.64-0.319,1.2-0.6,1.72-0.88c0.36-0.2,0.68-0.279,0.96-0.279c0.44,0,0.8,0.239,1.12,0.76c0.16,0.279,0.24,0.56,0.24,0.8
		c0,0.439-0.28,0.84-0.68,1.079c-1.04,0.561-2.16,1.16-3.359,1.72v12.599c0,2.56-1.28,3.56-3.959,3.56c-1.2,0-2.359-0.08-3.159-0.32
		c-0.56-0.16-0.96-0.6-0.96-1.28c0-0.119,0.04-0.319,0.08-0.479c0.16-0.8,0.6-1.08,1.12-1.08c0.08,0,0.16,0,0.28,0.04
		c0.6,0.12,1.36,0.24,2.08,0.24c1.28,0,1.56-0.2,1.56-1.32v-10.678c-1.16,0.439-2.399,0.92-3.64,1.319
		c-0.2,0.04-0.36,0.08-0.52,0.08c-0.52,0-0.96-0.319-1.16-1.039c-0.08-0.24-0.12-0.44-0.12-0.641c0-0.56,0.28-0.96,0.8-1.119
		c1.64-0.561,3.239-1.16,4.639-1.76v-8.279H520.6c-0.76,0-1.12-0.56-1.12-1.399c0-0.8,0.36-1.359,1.12-1.359h4.199v-6.6
		c0-0.76,0.6-1.159,1.52-1.159c0.92,0,1.44,0.399,1.44,1.159v6.6H531.158z M542.236,1032.763h-8.838c-0.72,0-1.16-0.601-1.16-1.4
		c0-0.76,0.44-1.359,1.16-1.359h21.596c0.72,0,1.08,0.6,1.08,1.359c0,0.8-0.36,1.4-1.08,1.4h-9.918v4.159h8.119
		c0.68,0,1.04,0.64,1.04,1.359c0,0.76-0.36,1.399-1.04,1.399h-8.119v5.359c0.96,0.16,1.96,0.24,3,0.28
		c0.88,0.04,1.72,0.04,2.56,0.04c1.56,0,3.04-0.04,4.479-0.12c0.04,0,0.08,0,0.12,0c0.84,0,1.28,0.479,1.32,1.399
		c0,1.04-0.56,1.52-1.4,1.56c-0.88,0.04-1.84,0.04-2.84,0.04c-1,0-2,0-3.079-0.04c-6.519-0.239-10.798-1.68-13.678-5.839
		c-1.08,2.399-2.32,4.52-3.68,6.159c-0.32,0.4-0.76,0.6-1.2,0.6c-0.36,0-0.72-0.12-1-0.359c-0.36-0.28-0.52-0.68-0.52-1.12
		c0-0.32,0.12-0.68,0.36-0.96c2.399-2.72,4.359-6.799,5.359-11.078c0.16-0.68,0.6-1,1.24-1c0.12,0,0.2,0,0.32,0.04
		c0.68,0.12,1.28,0.521,1.28,1.16c0,0.08,0,0.16-0.04,0.24c-0.28,1.239-0.64,2.439-1.04,3.639c1.36,2.08,3.2,3.8,5.599,4.68
		V1032.763z M550.234,1013.485c2.28,0,3.359,0.84,3.359,3.04v7.958c0,2.12-1.08,2.96-3.359,2.96h-12.877
		c-2.28,0-3.36-0.84-3.36-2.96v-7.958c0-2.2,1.08-3.04,3.36-3.04H550.234z M550.794,1016.845c0-0.72-0.36-0.92-1.04-0.92h-11.878
		c-0.72,0-1.08,0.2-1.08,0.92v2.399h13.998V1016.845z M536.797,1021.604v2.52c0,0.72,0.36,0.92,1.08,0.92h11.878
		c0.68,0,1.04-0.2,1.04-0.92v-2.52H536.797z"/>
	<path fill="#4B5666" d="M568.718,1015.445c0,0.16-0.04,0.319-0.08,0.52c-1.44,5.319-2.2,11.639-2.2,17.478
		c0,3.959,0.36,8.198,1.04,11.918c0.04,0.2,0.04,0.399,0.04,0.6c0,0.92-0.52,1.399-1.36,1.6c-0.16,0.04-0.32,0.04-0.44,0.04
		c-0.76,0-1.36-0.439-1.56-1.52c-0.76-3.68-1.12-7.999-1.12-12.478c0-6.239,0.76-12.719,2.28-18.357c0.24-0.84,0.88-1.2,1.6-1.2
		c0.16,0,0.28,0,0.44,0.04C568.158,1014.205,568.718,1014.686,568.718,1015.445z M577.877,1032.322c0,0.4-0.2,0.76-0.521,1.08
		c-1.68,1.6-2.319,3.119-2.319,4.639c0,2.479,2.159,3.76,7.759,3.76c3.439,0,7.119-0.36,9.838-0.96c0.16-0.04,0.32-0.04,0.48-0.04
		c0.8,0,1.399,0.52,1.56,1.32c0.04,0.159,0.04,0.279,0.04,0.439c0,0.8-0.48,1.56-1.359,1.72c-2.96,0.6-6.479,0.88-10.159,0.88
		c-7.358,0-11.278-2.08-11.278-7.119c0-2.439,1-4.719,3.04-6.639c0.44-0.399,0.92-0.6,1.359-0.6c0.36,0,0.721,0.16,1.04,0.439
		C577.717,1031.603,577.877,1031.962,577.877,1032.322z M591.515,1018.364c0.999,0,1.52,0.561,1.64,1.48c0,0.04,0,0.08,0,0.12
		c0,0.919-0.4,1.68-1.56,1.799c-3.359,0.4-8.159,0.601-12.519,0.601c-1.479,0-2.919-0.04-4.239-0.08c-1.24-0.04-1.68-0.84-1.68-1.76
		c0.04-0.88,0.6-1.68,1.64-1.68c0.04,0,0.04,0,0.08,0c1.28,0.04,2.72,0.08,4.199,0.08c4.239,0,8.879-0.2,12.118-0.561
		C591.314,1018.364,591.395,1018.364,591.515,1018.364z"/>
	<path fill="#4B5666" d="M620.196,1034.362c-1.04,3.479-3.479,4.639-6.639,4.639c-4.16,0-7.119-2.839-7.119-6.839
		c0-4.199,3.319-7.158,7.879-7.158c1.959,0,3.599,0.64,4.759,1.839c-0.04-1.439-0.04-3.479-0.04-5.358
		c-5.879,0.12-11.998,0.359-17.797,0.72c-0.04,0-0.12,0-0.16,0c-0.92,0-1.439-0.64-1.479-1.56c0-0.04,0-0.08,0-0.08
		c0-0.84,0.52-1.479,1.439-1.52c5.64-0.32,11.878-0.521,17.957-0.641c0-1.399-0.04-2.799-0.04-3.999c0-0.88,0.521-1.439,1.52-1.439
		c1.16,0,1.681,0.479,1.681,1.52c0,1.12,0,2.439,0,3.879c2.159-0.04,4.279-0.08,6.318-0.08c1.439,0,2.88,0,4.239,0.04
		c1.08,0,1.64,0.521,1.64,1.601c0,0.04,0,0.079,0,0.119c0,0.96-0.56,1.4-1.479,1.4c-2.359-0.04-4.839-0.08-7.438-0.08
		c-1.08,0-2.16,0-3.279,0.04c0,2.68,0,5.519,0,8.278c0.8,1.64,1.159,3.359,1.159,5.239c0,5.199-2.239,8.559-6.479,10.798
		c-1.8,0.96-3.96,1.68-6.359,2.12c-0.12,0.04-0.24,0.04-0.399,0.04c-0.8,0-1.44-0.44-1.6-1.32c-0.04-0.159-0.04-0.319-0.04-0.439
		c0-0.84,0.479-1.439,1.279-1.6c7.159-1.32,10.679-4.68,10.679-9.398v-0.76H620.196z M614.517,1027.683
		c-2.719,0-4.799,1.8-4.799,4.319c0,2.68,1.84,4.08,4.359,4.08c2.8,0,4.719-1.96,4.719-4.8
		C618.796,1029.123,617.076,1027.683,614.517,1027.683z"/>
	<path fill="#4B5666" d="M650.077,1029.363c3.12-1.4,6.039-2.08,8.879-2.08c7.198,0,11.598,3.799,11.598,9.238
		c0,6.719-6.118,10.958-15.877,10.958c-5.919,0-9.759-2.479-9.759-6.198c0-3.12,2.6-5.399,6.52-5.399c4.319,0,7.879,2.6,8.559,7.879
		c4.079-0.96,7.118-3.479,7.118-7.199c0-3.799-3.119-6.559-8.798-6.559c-5.319,0-10.158,1.76-16.718,5.839
		c-0.359,0.2-0.72,0.28-1.079,0.28c-0.561,0-1.12-0.24-1.44-0.761c-0.2-0.279-0.279-0.56-0.279-0.879c0-0.601,0.319-1.2,0.919-1.521
		c6.6-4.039,15.478-10.558,20.517-14.997c-4.358,0.359-10.478,0.6-15.597,0.64c-0.84,0-1.48-0.6-1.48-1.56
		c0-0.92,0.48-1.64,1.4-1.64c5.398,0,12.237-0.2,17.557-0.56c0.12,0,0.24,0,0.36,0c0.92,0,1.6,0.319,1.999,0.999
		c0.2,0.36,0.32,0.72,0.32,1.16c0,0.56-0.24,1.12-0.76,1.64c-3.439,3.199-7.199,6.079-10.438,8.238
		c-1.119,0.761-2.479,1.68-3.6,2.32L650.077,1029.363z M651.277,1038.602c-2.08,0-3.279,1.079-3.279,2.56
		c0,1.84,2.399,3.359,5.959,3.399c0.96,0,1.959,0,2.919-0.08C656.557,1040.561,654.037,1038.602,651.277,1038.602z"/>
</g>
</svg>
