<?xml version="1.0" encoding="utf-8"?>
<!-- Generator: Adobe Illustrator 15.0.2, SVG Export Plug-In . SVG Version: 6.00 Build 0)  -->
<!DOCTYPE svg PUBLIC "-//W3C//DTD SVG 1.1//EN" "http://www.w3.org/Graphics/SVG/1.1/DTD/svg11.dtd">
<svg version="1.1" id="Layer_1" xmlns="http://www.w3.org/2000/svg" xmlns:xlink="http://www.w3.org/1999/xlink" x="0px" y="0px"
	 width="1152px" height="1152.001px" viewBox="0 0 1152 1152.001" enable-background="new 0 0 1152 1152.001" xml:space="preserve">
<circle fill="#4B5666" cx="576" cy="576" r="576"/>
<g>
	<path fill="#FBD35C" d="M188.2964,188.29c214.2964-214.2959,561.1108-214.293,775.4106,0.0078L576.0049,575.999L188.2964,188.29z"
		/>
</g>
<g>
	<path fill="#A4D970" d="M963.71,188.293c214.2979,214.2979,214.293,561.1104-0.0068,775.4092L576.002,576.001L963.71,188.293z"/>
</g>
<g>
	<path fill="#9EBEED" d="M963.7031,963.709c-214.2959,214.2988-561.1104,214.293-775.4102-0.0068L575.9951,576.001L963.7031,963.709
		z"/>
</g>
<g>
	<path fill="#FA7977" d="M188.2896,963.707c-214.2959-214.2979-214.2925-561.1104,0.0068-775.4092L575.999,575.999L188.2896,963.707
		z"/>
</g>
<circle fill="#4B5666" cx="576" cy="576" r="180"/>
<g>
	<path fill="#FFFFFF" d="M466.7227,560.9141l-15.0771-39.3945h-0.2432c0.2842,3.1211,0.4258,6.8301,0.4258,11.126v28.2686h-4.7725
		v-44.4404h7.7822l14.0732,36.6592h0.2432l14.1953-36.6592h7.7207v44.4404h-5.167v-28.6338c0-3.2832,0.1416-6.8496,0.4258-10.6992
		h-0.2432l-15.1992,39.333H466.7227z"/>
	<path fill="#FFFFFF" d="M541.833,538.6328c0,7.1133-1.7988,12.7061-5.3955,16.7793c-3.5977,4.0732-8.5977,6.1104-15.001,6.1104
		c-6.5459,0-11.5967-2.001-15.1533-6.0039c-3.5557-4.002-5.334-9.6514-5.334-16.9463c0-7.2344,1.7832-12.8428,5.3496-16.8242
		c3.5664-3.9824,8.6328-5.9736,15.1982-5.9736c6.3838,0,11.3682,2.0273,14.9551,6.0801S541.833,531.5,541.833,538.6328z
		 M506.4209,538.6328c0,6.0186,1.2812,10.584,3.8447,13.6943s6.2871,4.666,11.1709,4.666c4.9238,0,8.6426-1.5508,11.1553-4.6514
		c2.5127-3.0996,3.7695-7.6699,3.7695-13.709c0-5.9775-1.252-10.5117-3.7539-13.6025c-2.5029-3.0898-6.2061-4.6348-11.1104-4.6348
		c-4.9238,0-8.668,1.5547-11.2314,4.666C507.7021,528.1719,506.4209,532.6963,506.4209,538.6328z"/>
	<path fill="#FFFFFF" d="M587.2158,538.2686c0,7.3359-1.9912,12.9443-5.9736,16.8242c-3.9814,3.8809-9.7109,5.8213-17.1885,5.8213
		h-12.3115v-44.4404h13.6182c6.9102,0,12.2803,1.915,16.1104,5.7451S587.2158,531.3984,587.2158,538.2686z M581.7441,538.4512
		c0-5.7959-1.4541-10.1631-4.3623-13.1016c-2.9082-2.9375-7.2295-4.4072-12.9639-4.4072h-7.5078v35.5029h6.292
		c6.1602,0,10.791-1.5146,13.8916-4.5439S581.7441,544.3887,581.7441,538.4512z"/>
	<path fill="#FFFFFF" d="M621.8975,560.9141H597.124v-44.4404h24.7734v4.5898H602.292v14.3174h18.4199v4.5596H602.292v16.3535
		h19.6055V560.9141z"/>
	<path fill="#FFFFFF" d="M636.9141,542.4326v18.4814h-5.168v-44.4404h12.1895c5.4512,0,9.4785,1.0439,12.083,3.1309
		c2.6035,2.0879,3.9053,5.2285,3.9053,9.4238c0,5.877-2.9785,9.8477-8.9365,11.915l12.0674,19.9707h-6.1094l-10.7607-18.4814
		H636.9141z M636.9141,537.9951h7.082c3.6475,0,6.3232-0.7246,8.0254-2.1738c1.7021-1.4482,2.5527-3.6221,2.5527-6.5195
		c0-2.9385-0.8662-5.0557-2.5986-6.3535c-1.7324-1.2959-4.5137-1.9453-8.3438-1.9453h-6.7178V537.9951z"/>
	<path fill="#FFFFFF" d="M704.9424,560.9141h-5.8975l-24.2871-37.2969h-0.2432c0.3242,4.377,0.4863,8.3896,0.4863,12.0371v25.2598
		h-4.7725v-44.4404h5.8369l24.2256,37.1455h0.2432c-0.041-0.5479-0.1318-2.3057-0.2734-5.2744
		c-0.1416-2.9678-0.1924-5.0908-0.1514-6.3682v-25.5029h4.833V560.9141z"/>
	<path fill="#FFFFFF" d="M525.54,635.6172l-5.5322-14.1348h-17.8125l-5.4707,14.1348h-5.2285l17.5693-44.6221h4.3467
		l17.4785,44.6221H525.54z M518.3975,616.832l-5.168-13.7695c-0.668-1.7432-1.3574-3.8809-2.0664-6.4141
		c-0.4463,1.9453-1.085,4.084-1.915,6.4141l-5.2285,13.7695H518.3975z"/>
	<path fill="#FFFFFF" d="M556.5459,612.333h15.1064v21.6123c-2.3506,0.75-4.7412,1.3174-7.1729,1.7021
		c-2.4326,0.3848-5.249,0.5781-8.4512,0.5781c-6.7275,0-11.9658-2.001-15.7148-6.0039c-3.749-4.002-5.623-9.6104-5.623-16.8242
		c0-4.6201,0.9268-8.668,2.7812-12.1436s4.5234-6.1299,8.0098-7.9639c3.4844-1.834,7.5684-2.751,12.249-2.751
		c4.7422,0,9.1602,0.8711,13.2539,2.6143l-2.0068,4.5596c-4.0117-1.7031-7.8721-2.5537-11.5811-2.5537
		c-5.4102,0-9.6357,1.6113-12.6758,4.833c-3.0391,3.2217-4.5586,7.6904-4.5586,13.4053c0,5.998,1.4629,10.5479,4.3916,13.6475
		c2.9287,3.1006,7.2295,4.6514,12.9033,4.6514c3.0801,0,6.0898-0.3545,9.0283-1.0645v-13.6787h-9.9395V612.333z"/>
	<path fill="#FFFFFF" d="M582.3213,635.6172v-44.4404h5.168v44.4404H582.3213z"/>
	<path fill="#FFFFFF" d="M599.6777,635.6172v-44.4404h5.168v39.7598h19.6055v4.6807H599.6777z"/>
	<path fill="#FFFFFF" d="M656.7627,635.6172h-24.7734v-44.4404h24.7734v4.5898h-19.6055v14.3174h18.4199v4.5596h-18.4199v16.3535
		h19.6055V635.6172z"/>
</g>
<g>
	<path fill="#4B5666" d="M512.9521,222.4385h2.207c1.8877-3.4502,3.4697-7.3242,4.7461-11.6211s2.0967-8.6064,2.4609-12.9297
		h14.7461v24.5508h3.6914v11.875h-4.4922v-7.8711h-18.8672v7.8711h-4.4922V222.4385z M526.2725,201.9307
		c-0.2861,2.9561-1.0156,6.3838-2.1875,10.2832s-2.5068,7.3076-4.0039,10.2246h12.3633v-20.5078H526.2725z"/>
	<path fill="#4B5666" d="M554.3584,226.833c-3.3594,0-5.9863-0.9795-7.8809-2.9395s-2.8418-4.6582-2.8418-8.0957
		c0-3.5283,0.8789-6.3018,2.6367-8.3203s4.1729-3.0273,7.2461-3.0273c2.8516,0,5.1045,0.8662,6.7578,2.5977
		s2.4805,4.1143,2.4805,7.1484v2.4805h-14.3945c0.0654,2.0967,0.6318,3.708,1.6992,4.834s2.5713,1.6895,4.5117,1.6895
		c1.2764,0,2.4639-0.1201,3.5645-0.3613s2.2822-0.6416,3.5449-1.2012v3.7305c-1.1201,0.5342-2.2529,0.9111-3.3984,1.1328
		S555.8301,226.833,554.3584,226.833z M553.5186,207.9268c-1.458,0-2.627,0.4619-3.5059,1.3867s-1.4033,2.2725-1.5723,4.043h9.8047
		c-0.0264-1.7842-0.4561-3.1348-1.2891-4.0527S554.9766,207.9268,553.5186,207.9268z"/>
	<path fill="#4B5666" d="M585.7256,226.4424h-4.6289v-18.0078h-5.957c-0.3643,4.6357-0.8564,8.2549-1.4746,10.8594
		s-1.4258,4.5049-2.4219,5.7031s-2.2881,1.7969-3.877,1.7969c-1.0029,0-1.8428-0.1436-2.5195-0.4297v-3.5938
		c0.4814,0.1826,0.9639,0.2734,1.4453,0.2734c1.3281,0,2.373-1.4941,3.1348-4.4824s1.3574-7.5615,1.7871-13.7207h14.5117V226.4424z"
		/>
	<path fill="#4B5666" d="M605.8037,226.4424l-0.918-3.0078h-0.1562c-1.042,1.3154-2.0898,2.21-3.1445,2.6855
		s-2.4092,0.7129-4.0625,0.7129c-2.1221,0-3.7793-0.5732-4.9707-1.7188s-1.7871-2.7666-1.7871-4.8633
		c0-2.2266,0.8271-3.9062,2.4805-5.0391s4.1729-1.751,7.5586-1.8555l3.7305-0.1172v-1.1523c0-1.3799-0.3223-2.4121-0.9668-3.0957
		s-1.6436-1.0254-2.998-1.0254c-1.1064,0-2.168,0.1631-3.1836,0.4883s-1.9922,0.71-2.9297,1.1523l-1.4844-3.2812
		c1.1719-0.6123,2.4541-1.0771,3.8477-1.3965s2.708-0.4785,3.9453-0.4785c2.7471,0,4.8213,0.5986,6.2207,1.7969
		s2.0996,3.0791,2.0996,5.6445v14.5508H605.8037z M598.9678,223.3174c1.667,0,3.0049-0.4658,4.0137-1.3965
		s1.5137-2.2363,1.5137-3.916v-1.875l-2.7734,0.1172c-2.1611,0.0781-3.7334,0.4395-4.7168,1.084s-1.4746,1.6309-1.4746,2.959
		c0,0.9639,0.2861,1.709,0.8594,2.2363S597.8223,223.3174,598.9678,223.3174z"/>
	<path fill="#4B5666" d="M619.8857,204.8408v11.0742c0,1.2891-0.1045,3.1836-0.3125,5.6836l10.8398-16.7578h5.6055v21.6016h-4.4141
		v-10.8789c0-0.5986,0.0361-1.5693,0.1074-2.9102s0.1338-2.3174,0.1855-2.9297l-10.8008,16.7188h-5.6055v-21.6016H619.8857z
		 M625.6084,202.2041c-2.7607,0-4.7822-0.498-6.0645-1.4941s-1.9951-2.6592-2.1387-4.9902h4.1602
		c0.0781,0.9375,0.2568,1.667,0.5371,2.1875s0.6836,0.8955,1.2109,1.123s1.3311,0.3418,2.4121,0.3418
		c1.2764,0,2.2461-0.2832,2.9102-0.8496s1.0674-1.501,1.2109-2.8027h4.2383c-0.1953,2.2393-0.9834,3.8799-2.3633,4.9219
		S628.3037,202.2041,625.6084,202.2041z"/>
	<path fill="#4B5666" d="M530.374,274.4424h-4.6289v-18.0078h-5.957c-0.3643,4.6357-0.8564,8.2549-1.4746,10.8594
		s-1.4258,4.5049-2.4219,5.7031s-2.2881,1.7969-3.877,1.7969c-1.0029,0-1.8428-0.1436-2.5195-0.4297v-3.5938
		c0.4814,0.1826,0.9639,0.2734,1.4453,0.2734c1.3281,0,2.373-1.4941,3.1348-4.4824s1.3574-7.5615,1.7871-13.7207h14.5117V274.4424z"
		/>
	<path fill="#4B5666" d="M565.7842,263.6025c0,3.542-0.8623,6.2988-2.5879,8.2715s-4.1309,2.959-7.2168,2.959
		c-2.8389,0-5.0947-0.8369-6.7676-2.5098s-2.6465-4.0723-2.9199-7.1973h-4.7656v9.3164h-4.5898v-21.6016h4.5898v8.6719h4.8047
		c0.3252-2.8643,1.3311-5.0908,3.0176-6.6797s3.9229-2.3828,6.709-2.3828c2.9951,0,5.3643,1.0059,7.1094,3.0176
		S565.7842,260.1914,565.7842,263.6025z M550.9795,263.6025c0,2.4609,0.3936,4.3232,1.1816,5.5859s2.0732,1.8945,3.8574,1.8945
		c1.7705,0,3.0537-0.6318,3.8477-1.8945s1.1914-3.125,1.1914-5.5859c0-2.4346-0.3975-4.2773-1.1914-5.5273
		s-2.0771-1.875-3.8477-1.875c-1.7842,0-3.0693,0.625-3.8574,1.875S550.9795,261.168,550.9795,263.6025z"/>
	<path fill="#4B5666" d="M591.8193,282.0791h-4.2773v-7.6367h-14.8047v7.6367h-4.2383v-11.1914h1.7578
		c1.5361-2.2002,2.7568-4.8604,3.6621-7.9785s1.4424-6.4746,1.6113-10.0684h13.125v18.0469h3.1641V282.0791z M584.1436,270.8877
		v-14.5312h-4.6484c-0.2471,2.6826-0.7646,5.3252-1.5527,7.9297s-1.748,4.8047-2.8809,6.6016H584.1436z"/>
	<path fill="#4B5666" d="M605.2568,274.833c-3.3594,0-5.9863-0.9795-7.8809-2.9395s-2.8418-4.6582-2.8418-8.0957
		c0-3.5283,0.8789-6.3018,2.6367-8.3203s4.1729-3.0273,7.2461-3.0273c2.8516,0,5.1045,0.8662,6.7578,2.5977
		s2.4805,4.1143,2.4805,7.1484v2.4805h-14.3945c0.0654,2.0967,0.6318,3.708,1.6992,4.834s2.5713,1.6895,4.5117,1.6895
		c1.2764,0,2.4639-0.1201,3.5645-0.3613s2.2822-0.6416,3.5449-1.2012v3.7305c-1.1201,0.5342-2.2529,0.9111-3.3984,1.1328
		S606.7285,274.833,605.2568,274.833z M604.417,255.9268c-1.458,0-2.627,0.4619-3.5059,1.3867s-1.4033,2.2725-1.5723,4.043h9.8047
		c-0.0264-1.7842-0.4561-3.1348-1.2891-4.0527S605.875,255.9268,604.417,255.9268z"/>
	<path fill="#4B5666" d="M623.2646,252.8408v11.0742c0,1.2891-0.1045,3.1836-0.3125,5.6836l10.8398-16.7578h5.6055v21.6016h-4.4141
		v-10.8789c0-0.5986,0.0361-1.5693,0.1074-2.9102s0.1338-2.3174,0.1855-2.9297l-10.8008,16.7188h-5.6055v-21.6016H623.2646z
		 M628.9873,250.2041c-2.7607,0-4.7822-0.498-6.0645-1.4941s-1.9951-2.6592-2.1387-4.9902h4.1602
		c0.0781,0.9375,0.2568,1.667,0.5371,2.1875s0.6836,0.8955,1.2109,1.123s1.3311,0.3418,2.4121,0.3418
		c1.2764,0,2.2461-0.2832,2.9102-0.8496s1.0674-1.501,1.2109-2.8027h4.2383c-0.1953,2.2393-0.9834,3.8799-2.3633,4.9219
		S631.6826,250.2041,628.9873,250.2041z"/>
	<path fill="#4B5666" d="M479.2607,300.8408h5.0391l-8.9258,10.4102l9.6875,11.1914h-5.2734l-9.3359-10.957v10.957h-4.5898v-21.6016
		h4.5898v10.4883L479.2607,300.8408z"/>
	<path fill="#4B5666" d="M506.3701,322.4424h-4.6289v-18.0078h-5.957c-0.3643,4.6357-0.8564,8.2549-1.4746,10.8594
		s-1.4258,4.5049-2.4219,5.7031s-2.2881,1.7969-3.877,1.7969c-1.0029,0-1.8428-0.1436-2.5195-0.4297v-3.5938
		c0.4814,0.1826,0.9639,0.2734,1.4453,0.2734c1.3281,0,2.373-1.4941,3.1348-4.4824s1.3574-7.5615,1.7871-13.7207h14.5117V322.4424z"
		/>
	<path fill="#4B5666" d="M526.4482,322.4424l-0.918-3.0078h-0.1562c-1.042,1.3154-2.0898,2.21-3.1445,2.6855
		s-2.4092,0.7129-4.0625,0.7129c-2.1221,0-3.7793-0.5732-4.9707-1.7188s-1.7871-2.7666-1.7871-4.8633
		c0-2.2266,0.8271-3.9062,2.4805-5.0391s4.1729-1.751,7.5586-1.8555l3.7305-0.1172v-1.1523c0-1.3799-0.3223-2.4121-0.9668-3.0957
		s-1.6436-1.0254-2.998-1.0254c-1.1064,0-2.168,0.1631-3.1836,0.4883s-1.9922,0.71-2.9297,1.1523l-1.4844-3.2812
		c1.1719-0.6123,2.4541-1.0771,3.8477-1.3965s2.708-0.4785,3.9453-0.4785c2.7471,0,4.8213,0.5986,6.2207,1.7969
		s2.0996,3.0791,2.0996,5.6445v14.5508H526.4482z M519.6123,319.3174c1.667,0,3.0049-0.4658,4.0137-1.3965
		s1.5137-2.2363,1.5137-3.916v-1.875l-2.7734,0.1172c-2.1611,0.0781-3.7334,0.4395-4.7168,1.084s-1.4746,1.6309-1.4746,2.959
		c0,0.9639,0.2861,1.709,0.8594,2.2363S518.4668,319.3174,519.6123,319.3174z"/>
	<path fill="#4B5666" d="M544.8467,322.833c-3.2686,0-5.752-0.9541-7.4512-2.8613s-2.5488-4.6455-2.5488-8.2129
		c0-3.6328,0.8887-6.4258,2.666-8.3789s4.3457-2.9297,7.7051-2.9297c2.2783,0,4.3291,0.4229,6.1523,1.2695l-1.3867,3.6914
		c-1.9404-0.7549-3.542-1.1328-4.8047-1.1328c-3.7373,0-5.6055,2.4805-5.6055,7.4414c0,2.4219,0.4658,4.2412,1.3965,5.459
		s2.2949,1.8262,4.0918,1.8262c2.0439,0,3.9775-0.5078,5.8008-1.5234v4.0039c-0.8203,0.4814-1.6963,0.8271-2.627,1.0352
		S546.1748,322.833,544.8467,322.833z"/>
	<path fill="#4B5666" d="M564.6514,322.833c-3.2686,0-5.752-0.9541-7.4512-2.8613s-2.5488-4.6455-2.5488-8.2129
		c0-3.6328,0.8887-6.4258,2.666-8.3789s4.3457-2.9297,7.7051-2.9297c2.2783,0,4.3291,0.4229,6.1523,1.2695l-1.3867,3.6914
		c-1.9404-0.7549-3.542-1.1328-4.8047-1.1328c-3.7373,0-5.6055,2.4805-5.6055,7.4414c0,2.4219,0.4658,4.2412,1.3965,5.459
		s2.2949,1.8262,4.0918,1.8262c2.0439,0,3.9775-0.5078,5.8008-1.5234v4.0039c-0.8203,0.4814-1.6963,0.8271-2.627,1.0352
		S565.9795,322.833,564.6514,322.833z"/>
	<path fill="#4B5666" d="M580.335,300.8408v8.6719h10.1758v-8.6719h4.5898v21.6016h-4.5898v-9.3164H580.335v9.3164h-4.5898v-21.6016
		H580.335z"/>
	<path fill="#4B5666" d="M606.2529,309.4736h4.375c3.0205,0,5.2539,0.5205,6.6992,1.5625s2.168,2.6045,2.168,4.6875
		c0,2.2266-0.752,3.9033-2.2559,5.0293s-3.708,1.6895-6.6113,1.6895h-8.9648v-21.6016h4.5898V309.4736z M614.9443,315.8408
		c0-1.0811-0.4004-1.8359-1.2012-2.2656s-1.9502-0.6445-3.4473-0.6445h-4.043v6.1133h3.457c1.8486,0,3.1836-0.2607,4.0039-0.7812
		S614.9443,316.9346,614.9443,315.8408z M627.5029,322.4424h-4.6094v-21.6016h4.6094V322.4424z"/>
	<path fill="#4B5666" d="M646.4678,318.0479l0.2539-0.9375c0.5342-1.9404,0.9961-3.4307,1.3867-4.4727l4.8438-11.7969h6.1133
		v21.6016h-4.2383V305.001l-0.3516,1.1719c-0.5859,2.0967-1.0811,3.6396-1.4844,4.6289l-4.7266,11.6406h-3.4766l-4.7266-11.7188
		c-0.6514-1.6924-1.25-3.6006-1.7969-5.7227v17.4414h-4.1992v-21.6016h6.0742l4.6875,11.4453
		C645.2441,313.3408,645.791,315.2617,646.4678,318.0479z"/>
	<path fill="#4B5666" d="M670.0225,300.8408v11.0742c0,1.2891-0.1045,3.1836-0.3125,5.6836l10.8398-16.7578h5.6055v21.6016h-4.4141
		v-10.8789c0-0.5986,0.0361-1.5693,0.1074-2.9102s0.1338-2.3174,0.1855-2.9297l-10.8008,16.7188h-5.6055v-21.6016H670.0225z"/>
</g>
<path fill="#4B5666" d="M596.1172,84.4746c-7.8867,0-18.1074,4.6484-20.1182,12.4736l-0.002-0.002v0.002
	c-2.0107-7.8252-12.2305-12.4736-20.1162-12.4736c-15.5508,0-28.1631,12.0703-28.1631,28.1641
	c0,18.9355,11.1963,30.5225,23.4023,39.9258c7.3213,5.6416,23.5713,18.4102,24.8574,18.4102c0.0078,0,0.0137-0.002,0.0195-0.002
	c0.0068,0,0.0146,0.002,0.0205,0.002c1.2871,0,17.5371-12.7686,24.8584-18.4102c12.2051-9.4033,23.4043-20.9902,23.4043-39.9258
	C624.2803,96.5449,611.668,84.4746,596.1172,84.4746z M544.957,97.2129c-4.8623,3.5967-7.6523,9.2188-7.6523,15.4258
	c0,1.0234-0.8281,1.8535-1.8525,1.8535c-1.0234,0-1.8535-0.8301-1.8535-1.8535c0-7.3945,3.3359-14.1025,9.1543-18.4053
	c0.8213-0.6094,1.9814-0.4355,2.5908,0.3877S545.7783,96.6055,544.957,97.2129z"/>
<g>
	<path fill="#4B5666" d="M518.0596,929.959c-2.6826,0-4.792,0.9502-6.3281,2.8516s-2.3047,4.5244-2.3047,7.8711
		c0,3.5029,0.7393,6.1523,2.2168,7.9492s3.6162,2.6953,6.416,2.6953c1.2109,0,2.3828-0.1201,3.5156-0.3613
		s2.3115-0.5498,3.5352-0.9277v4.0039c-2.2393,0.8467-4.7783,1.2695-7.6172,1.2695c-4.1797,0-7.3896-1.2666-9.6289-3.7988
		s-3.3594-6.1553-3.3594-10.8691c0-2.9688,0.5439-5.5664,1.6309-7.793s2.6592-3.9326,4.7168-5.1172s4.4727-1.7773,7.2461-1.7773
		c2.917,0,5.6123,0.6123,8.0859,1.8359l-1.6797,3.8867c-0.9639-0.4561-1.9824-0.8564-3.0566-1.2012
		S519.2441,929.959,518.0596,929.959z"/>
	<path fill="#4B5666" d="M551.4971,962.5566h-4.2773v-7.6367H532.415v7.6367h-4.2383v-11.1914h1.7578
		c1.5361-2.2002,2.7568-4.8604,3.6621-7.9785s1.4424-6.4746,1.6113-10.0684h13.125v18.0469h3.1641V962.5566z M543.8213,951.3652
		V936.834h-4.6484c-0.2471,2.6826-0.7646,5.3252-1.5527,7.9297s-1.748,4.8047-2.8809,6.6016H543.8213z"/>
	<path fill="#4B5666" d="M564.9346,955.3105c-3.3594,0-5.9863-0.9795-7.8809-2.9395s-2.8418-4.6582-2.8418-8.0957
		c0-3.5283,0.8789-6.3018,2.6367-8.3203s4.1729-3.0273,7.2461-3.0273c2.8516,0,5.1045,0.8662,6.7578,2.5977
		s2.4805,4.1143,2.4805,7.1484v2.4805h-14.3945c0.0654,2.0967,0.6318,3.708,1.6992,4.834s2.5713,1.6895,4.5117,1.6895
		c1.2764,0,2.4639-0.1201,3.5645-0.3613s2.2822-0.6416,3.5449-1.2012v3.7305c-1.1201,0.5342-2.2529,0.9111-3.3984,1.1328
		S566.4062,955.3105,564.9346,955.3105z M564.0947,936.4043c-1.458,0-2.627,0.4619-3.5059,1.3867s-1.4033,2.2725-1.5723,4.043
		h9.8047c-0.0264-1.7842-0.4561-3.1348-1.2891-4.0527S565.5527,936.4043,564.0947,936.4043z"/>
	<path fill="#4B5666" d="M596.3018,954.9199h-4.6289v-18.0078h-5.957c-0.3643,4.6357-0.8564,8.2549-1.4746,10.8594
		s-1.4258,4.5049-2.4219,5.7031s-2.2881,1.7969-3.877,1.7969c-1.0029,0-1.8428-0.1436-2.5195-0.4297v-3.5938
		c0.4814,0.1826,0.9639,0.2734,1.4453,0.2734c1.3281,0,2.373-1.4941,3.1348-4.4824s1.3574-7.5615,1.7871-13.7207h14.5117V954.9199z"
		/>
	<path fill="#4B5666" d="M616.3799,954.9199l-0.918-3.0078h-0.1562c-1.042,1.3154-2.0898,2.21-3.1445,2.6855
		s-2.4092,0.7129-4.0625,0.7129c-2.1221,0-3.7793-0.5732-4.9707-1.7188s-1.7871-2.7666-1.7871-4.8633
		c0-2.2266,0.8271-3.9062,2.4805-5.0391s4.1729-1.751,7.5586-1.8555l3.7305-0.1172v-1.1523c0-1.3799-0.3223-2.4121-0.9668-3.0957
		s-1.6436-1.0254-2.998-1.0254c-1.1064,0-2.168,0.1631-3.1836,0.4883s-1.9922,0.71-2.9297,1.1523l-1.4844-3.2812
		c1.1719-0.6123,2.4541-1.0771,3.8477-1.3965s2.708-0.4785,3.9453-0.4785c2.7471,0,4.8213,0.5986,6.2207,1.7969
		s2.0996,3.0791,2.0996,5.6445v14.5508H616.3799z M609.5439,951.7949c1.667,0,3.0049-0.4658,4.0137-1.3965
		s1.5137-2.2363,1.5137-3.916v-1.875l-2.7734,0.1172c-2.1611,0.0781-3.7334,0.4395-4.7168,1.084s-1.4746,1.6309-1.4746,2.959
		c0,0.9639,0.2861,1.709,0.8594,2.2363S608.3984,951.7949,609.5439,951.7949z"/>
	<path fill="#4B5666" d="M630.4619,933.3184v11.0742c0,1.2891-0.1045,3.1836-0.3125,5.6836l10.8398-16.7578h5.6055v21.6016h-4.4141
		V944.041c0-0.5986,0.0361-1.5693,0.1074-2.9102s0.1338-2.3174,0.1855-2.9297l-10.8008,16.7188h-5.6055v-21.6016H630.4619z
		 M636.1846,930.6816c-2.7607,0-4.7822-0.498-6.0645-1.4941s-1.9951-2.6592-2.1387-4.9902h4.1602
		c0.0781,0.9375,0.2568,1.667,0.5371,2.1875s0.6836,0.8955,1.2109,1.123s1.3311,0.3418,2.4121,0.3418
		c1.2764,0,2.2461-0.2832,2.9102-0.8496s1.0674-1.501,1.2109-2.8027h4.2383c-0.1953,2.2393-0.9834,3.8799-2.3633,4.9219
		S638.8799,930.6816,636.1846,930.6816z"/>
	<path fill="#4B5666" d="M440.1689,989.9512c0-4.8174,0.8174-8.5225,2.4512-11.1133s4.2354-4.2578,7.8027-5
		c2.6953-0.5469,5.8008-1.0811,9.3164-1.6016l0.6445,4.043c-4.2705,0.6514-7.3955,1.1592-9.375,1.5234
		c-2.0439,0.3779-3.5186,1.2178-4.4238,2.5195s-1.4287,3.2617-1.5723,5.8789h0.293c0.7422-1.0811,1.7119-1.917,2.9102-2.5098
		s2.4805-0.8887,3.8477-0.8887c2.6562,0,4.7266,0.8398,6.2109,2.5195s2.2266,4.0361,2.2266,7.0703
		c0,3.4766-0.9014,6.165-2.7051,8.0664s-4.2998,2.8516-7.4902,2.8516c-3.1641,0-5.6445-1.1719-7.4414-3.5156
		S440.1689,994.1699,440.1689,989.9512z M450.6182,999.5605c3.4111,0,5.1172-2.2393,5.1172-6.7188
		c0-4.3232-1.543-6.4844-4.6289-6.4844c-0.8467,0-1.667,0.1826-2.4609,0.5469s-1.5264,0.8467-2.1973,1.4453
		s-1.1885,1.2178-1.5527,1.8555c0,3.0732,0.4883,5.4004,1.4648,6.9824S448.7559,999.5605,450.6182,999.5605z"/>
	<path fill="#4B5666" d="M475.208,1003.3105c-3.3594,0-5.9863-0.9795-7.8809-2.9395s-2.8418-4.6582-2.8418-8.0957
		c0-3.5283,0.8789-6.3018,2.6367-8.3203s4.1729-3.0273,7.2461-3.0273c2.8516,0,5.1045,0.8662,6.7578,2.5977
		s2.4805,4.1143,2.4805,7.1484v2.4805h-14.3945c0.0654,2.0967,0.6318,3.708,1.6992,4.834s2.5713,1.6895,4.5117,1.6895
		c1.2764,0,2.4639-0.1201,3.5645-0.3613s2.2822-0.6416,3.5449-1.2012v3.7305c-1.1201,0.5342-2.2529,0.9111-3.3984,1.1328
		S476.6797,1003.3105,475.208,1003.3105z M474.3682,984.4043c-1.458,0-2.627,0.4619-3.5059,1.3867s-1.4033,2.2725-1.5723,4.043
		h9.8047c-0.0264-1.7842-0.4561-3.1348-1.2891-4.0527S475.8262,984.4043,474.3682,984.4043z"/>
	<path fill="#4B5666" d="M493.5869,989.9512c2.0967,0,3.6396-0.2314,4.6289-0.6934s1.4844-1.1748,1.4844-2.1387
		c0-1.7578-1.5625-2.6367-4.6875-2.6367c-2.083,0-4.2119,0.4688-6.3867,1.4062l-1.4844-3.418
		c2.5127-1.0283,5.2861-1.543,8.3203-1.543c2.6826,0,4.7656,0.4912,6.25,1.4746s2.2266,2.3926,2.2266,4.2285
		c0,2.4219-1.3867,4.0107-4.1602,4.7656v0.1562c1.7314,0.4688,2.9717,1.1396,3.7207,2.0117s1.123,1.9531,1.123,3.2422
		c0,1.9795-0.8691,3.5576-2.6074,4.7363s-4.1631,1.7676-7.2754,1.7676c-3.3984,0-5.9961-0.4492-7.793-1.3477v-3.9648
		c2.3828,1.1201,4.8506,1.6797,7.4023,1.6797c1.8359,0,3.252-0.2568,4.248-0.7715s1.4941-1.2988,1.4941-2.3535
		c0-1.0811-0.501-1.875-1.5039-2.3828s-2.5518-0.7617-4.6484-0.7617h-2.6367v-3.457H493.5869z"/>
	<path fill="#4B5666" d="M528.7432,992.0801c0,3.5283-0.9053,6.2822-2.7148,8.2617s-4.3291,2.9688-7.5586,2.9688
		c-2.0186,0-3.8018-0.4561-5.3516-1.3672s-2.7412-2.2197-3.5742-3.9258s-1.25-3.6846-1.25-5.9375
		c0-3.5029,0.8984-6.2373,2.6953-8.2031s4.3291-2.9492,7.5977-2.9492c3.125,0,5.5986,1.0059,7.4219,3.0176
		S528.7432,988.6689,528.7432,992.0801z M513.0205,992.0801c0,4.9873,1.8428,7.4805,5.5273,7.4805
		c3.6455,0,5.4688-2.4932,5.4688-7.4805c0-4.9346-1.8359-7.4023-5.5078-7.4023c-1.9268,0-3.3232,0.6377-4.1895,1.9141
		S513.0205,989.6973,513.0205,992.0801z"/>
	<path fill="#4B5666" d="M552.9033,981.3184v21.6016h-4.6094v-17.9688h-9.6875v17.9688h-4.5898v-21.6016H552.9033z"/>
	<path fill="#4B5666" d="M572.9814,1002.9199l-0.918-3.0078h-0.1562c-1.042,1.3154-2.0898,2.21-3.1445,2.6855
		s-2.4092,0.7129-4.0625,0.7129c-2.1221,0-3.7793-0.5732-4.9707-1.7188s-1.7871-2.7666-1.7871-4.8633
		c0-2.2266,0.8271-3.9062,2.4805-5.0391s4.1729-1.751,7.5586-1.8555l3.7305-0.1172v-1.1523c0-1.3799-0.3223-2.4121-0.9668-3.0957
		s-1.6436-1.0254-2.998-1.0254c-1.1064,0-2.168,0.1631-3.1836,0.4883s-1.9922,0.71-2.9297,1.1523l-1.4844-3.2812
		c1.1719-0.6123,2.4541-1.0771,3.8477-1.3965s2.708-0.4785,3.9453-0.4785c2.7471,0,4.8213,0.5986,6.2207,1.7969
		s2.0996,3.0791,2.0996,5.6445v14.5508H572.9814z M566.1455,999.7949c1.667,0,3.0049-0.4658,4.0137-1.3965
		s1.5137-2.2363,1.5137-3.916v-1.875l-2.7734,0.1172c-2.1611,0.0781-3.7334,0.4395-4.7168,1.084s-1.4746,1.6309-1.4746,2.959
		c0,0.9639,0.2861,1.709,0.8594,2.2363S565,999.7949,566.1455,999.7949z"/>
	<path fill="#4B5666" d="M591.3799,1003.3105c-3.2686,0-5.752-0.9541-7.4512-2.8613s-2.5488-4.6455-2.5488-8.2129
		c0-3.6328,0.8887-6.4258,2.666-8.3789s4.3457-2.9297,7.7051-2.9297c2.2783,0,4.3291,0.4229,6.1523,1.2695l-1.3867,3.6914
		c-1.9404-0.7549-3.542-1.1328-4.8047-1.1328c-3.7373,0-5.6055,2.4805-5.6055,7.4414c0,2.4219,0.4658,4.2412,1.3965,5.459
		s2.2949,1.8262,4.0918,1.8262c2.0439,0,3.9775-0.5078,5.8008-1.5234v4.0039c-0.8203,0.4814-1.6963,0.8271-2.627,1.0352
		S592.708,1003.3105,591.3799,1003.3105z"/>
	<path fill="#4B5666" d="M607.0635,981.3184v8.6719h10.1758v-8.6719h4.5898v21.6016h-4.5898v-9.3164h-10.1758v9.3164h-4.5898
		v-21.6016H607.0635z"/>
	<path fill="#4B5666" d="M647.5518,992.0801c0,3.5283-0.9053,6.2822-2.7148,8.2617s-4.3291,2.9688-7.5586,2.9688
		c-2.0186,0-3.8018-0.4561-5.3516-1.3672s-2.7412-2.2197-3.5742-3.9258s-1.25-3.6846-1.25-5.9375
		c0-3.5029,0.8984-6.2373,2.6953-8.2031s4.3291-2.9492,7.5977-2.9492c3.125,0,5.5986,1.0059,7.4219,3.0176
		S647.5518,988.6689,647.5518,992.0801z M631.8291,992.0801c0,4.9873,1.8428,7.4805,5.5273,7.4805
		c3.6455,0,5.4688-2.4932,5.4688-7.4805c0-4.9346-1.8359-7.4023-5.5078-7.4023c-1.9268,0-3.3232,0.6377-4.1895,1.9141
		S631.8291,989.6973,631.8291,992.0801z"/>
	<path fill="#4B5666" d="M661.5361,1003.3105c-3.2686,0-5.752-0.9541-7.4512-2.8613s-2.5488-4.6455-2.5488-8.2129
		c0-3.6328,0.8887-6.4258,2.666-8.3789s4.3457-2.9297,7.7051-2.9297c2.2783,0,4.3291,0.4229,6.1523,1.2695l-1.3867,3.6914
		c-1.9404-0.7549-3.542-1.1328-4.8047-1.1328c-3.7373,0-5.6055,2.4805-5.6055,7.4414c0,2.4219,0.4658,4.2412,1.3965,5.459
		s2.2949,1.8262,4.0918,1.8262c2.0439,0,3.9775-0.5078,5.8008-1.5234v4.0039c-0.8203,0.4814-1.6963,0.8271-2.627,1.0352
		S662.8643,1003.3105,661.5361,1003.3105z"/>
	<path fill="#4B5666" d="M688.8604,981.3184v3.5938h-7.0312v18.0078h-4.6094v-18.0078h-7.0312v-3.5938H688.8604z"/>
	<path fill="#4B5666" d="M697.6104,989.9512h5.4102c6.0283,0,9.043,2.083,9.043,6.25c0,2.2002-0.7686,3.8701-2.3047,5.0098
		s-3.7822,1.709-6.7383,1.709h-10v-21.6016h4.5898V989.9512z M707.4541,996.3184c0-1.0811-0.4102-1.8359-1.2305-2.2656
		s-1.9795-0.6445-3.4766-0.6445h-5.1367v6.1133h5.2148c1.5107,0,2.6592-0.2734,3.4473-0.8203S707.4541,997.3604,707.4541,996.3184z"
		/>
	<path fill="#4B5666" d="M451.1748,1029.3184v21.6016h-4.6094v-17.9688h-9.6875v17.9688h-4.5898v-21.6016H451.1748z"/>
	<path fill="#4B5666" d="M468.6943,1051.3105c-2.7344,0-4.8564-0.9834-6.3672-2.9492h-0.2734
		c0.1826,1.8232,0.2734,2.9297,0.2734,3.3203v8.8477h-4.5898v-31.2109h3.7109c0.1045,0.4033,0.3193,1.3672,0.6445,2.8906h0.2344
		c1.4326-2.1875,3.5811-3.2812,6.4453-3.2812c2.6953,0,4.7949,0.9766,6.2988,2.9297s2.2559,4.6943,2.2559,8.2227
		s-0.7646,6.2822-2.2949,8.2617S471.3896,1051.3105,468.6943,1051.3105z M467.5811,1032.6777c-1.8232,0-3.1543,0.5342-3.9941,1.6016
		s-1.2598,2.7734-1.2598,5.1172v0.6836c0,2.6299,0.417,4.5342,1.25,5.7129s2.1943,1.7676,4.082,1.7676
		c1.5889,0,2.8125-0.6514,3.6719-1.9531s1.2891-3.1572,1.2891-5.5664c0-2.4219-0.4268-4.2549-1.2793-5.498
		S469.2344,1032.6777,467.5811,1032.6777z"/>
	<path fill="#4B5666" d="M492.0928,1051.3105c-3.3594,0-5.9863-0.9795-7.8809-2.9395s-2.8418-4.6582-2.8418-8.0957
		c0-3.5283,0.8789-6.3018,2.6367-8.3203s4.1729-3.0273,7.2461-3.0273c2.8516,0,5.1045,0.8662,6.7578,2.5977
		s2.4805,4.1143,2.4805,7.1484v2.4805h-14.3945c0.0654,2.0967,0.6318,3.708,1.6992,4.834s2.5713,1.6895,4.5117,1.6895
		c1.2764,0,2.4639-0.1201,3.5645-0.3613s2.2822-0.6416,3.5449-1.2012v3.7305c-1.1201,0.5342-2.2529,0.9111-3.3984,1.1328
		S493.5645,1051.3105,492.0928,1051.3105z M491.2529,1032.4043c-1.458,0-2.627,0.4619-3.5059,1.3867s-1.4033,2.2725-1.5723,4.043
		h9.8047c-0.0264-1.7842-0.4561-3.1348-1.2891-4.0527S492.7109,1032.4043,491.2529,1032.4043z"/>
	<path fill="#4B5666" d="M526.4287,1058.5566h-4.2773v-7.6367h-14.8047v7.6367h-4.2383v-11.1914h1.7578
		c1.5361-2.2002,2.7568-4.8604,3.6621-7.9785s1.4424-6.4746,1.6113-10.0684h13.125v18.0469h3.1641V1058.5566z M518.7529,1047.3652
		v-14.5312h-4.6484c-0.2471,2.6826-0.7646,5.3252-1.5527,7.9297s-1.748,4.8047-2.8809,6.6016H518.7529z"/>
	<path fill="#4B5666" d="M527.1514,1029.3184h5l4.3945,12.2461c0.6641,1.7451,1.1064,3.3857,1.3281,4.9219h0.1562
		c0.1172-0.7158,0.332-1.585,0.6445-2.6074s1.9658-5.876,4.9609-14.5605h4.9609l-9.2383,24.4727
		c-1.6797,4.4922-4.4795,6.7383-8.3984,6.7383c-1.0156,0-2.0049-0.1104-2.9688-0.332v-3.6328
		c0.6904,0.1562,1.4775,0.2344,2.3633,0.2344c2.2139,0,3.7695-1.2822,4.668-3.8477l0.8008-2.0312L527.1514,1029.3184z"/>
	<path fill="#4B5666" d="M560.5889,1051.3105c-3.2686,0-5.752-0.9541-7.4512-2.8613s-2.5488-4.6455-2.5488-8.2129
		c0-3.6328,0.8887-6.4258,2.666-8.3789s4.3457-2.9297,7.7051-2.9297c2.2783,0,4.3291,0.4229,6.1523,1.2695l-1.3867,3.6914
		c-1.9404-0.7549-3.542-1.1328-4.8047-1.1328c-3.7373,0-5.6055,2.4805-5.6055,7.4414c0,2.4219,0.4658,4.2412,1.3965,5.459
		s2.2949,1.8262,4.0918,1.8262c2.0439,0,3.9775-0.5078,5.8008-1.5234v4.0039c-0.8203,0.4814-1.6963,0.8271-2.627,1.0352
		S561.917,1051.3105,560.5889,1051.3105z"/>
	<path fill="#4B5666" d="M589.4365,1050.9199h-4.6289v-18.0078h-5.957c-0.3643,4.6357-0.8564,8.2549-1.4746,10.8594
		s-1.4258,4.5049-2.4219,5.7031s-2.2881,1.7969-3.877,1.7969c-1.0029,0-1.8428-0.1436-2.5195-0.4297v-3.5938
		c0.4814,0.1826,0.9639,0.2734,1.4453,0.2734c1.3281,0,2.373-1.4941,3.1348-4.4824s1.3574-7.5615,1.7871-13.7207h14.5117V1050.9199z
		"/>
	<path fill="#4B5666" d="M615.1592,1040.0801c0,3.5283-0.9053,6.2822-2.7148,8.2617s-4.3291,2.9688-7.5586,2.9688
		c-2.0186,0-3.8018-0.4561-5.3516-1.3672s-2.7412-2.2197-3.5742-3.9258s-1.25-3.6846-1.25-5.9375
		c0-3.5029,0.8984-6.2373,2.6953-8.2031s4.3291-2.9492,7.5977-2.9492c3.125,0,5.5986,1.0059,7.4219,3.0176
		S615.1592,1036.6689,615.1592,1040.0801z M599.4365,1040.0801c0,4.9873,1.8428,7.4805,5.5273,7.4805
		c3.6455,0,5.4688-2.4932,5.4688-7.4805c0-4.9346-1.8359-7.4023-5.5078-7.4023c-1.9268,0-3.3232,0.6377-4.1895,1.9141
		S599.4365,1037.6973,599.4365,1040.0801z"/>
	<path fill="#4B5666" d="M639.1826,1034.8457c0,2.5518-1.4912,4.0947-4.4727,4.6289v0.1562c1.667,0.1953,2.9424,0.7227,3.8281,1.582
		s1.3281,1.9727,1.3281,3.3398c0,2.0439-0.7783,3.6162-2.334,4.7168s-3.8184,1.6504-6.7871,1.6504h-10.3125v-21.6016h10.2734
		C636.3574,1029.3184,639.1826,1031.1611,639.1826,1034.8457z M634.5928,1035.2363c0-0.8594-0.335-1.4814-1.0059-1.8652
		s-1.6699-0.5762-2.998-0.5762h-5.5664v5.1953h4.8828c1.5361,0,2.7021-0.1982,3.4961-0.5957S634.5928,1036.2783,634.5928,1035.2363z
		 M635.1592,1044.2793c0-1.042-0.4033-1.7803-1.2109-2.2168s-2.0186-0.6543-3.6328-0.6543h-5.293v6.1133h5.4102
		C633.584,1047.5215,635.1592,1046.4404,635.1592,1044.2793z"/>
	<path fill="#4B5666" d="M648.9873,1029.3184v11.0742c0,1.2891-0.1045,3.1836-0.3125,5.6836l10.8398-16.7578h5.6055v21.6016h-4.4141
		v-10.8789c0-0.5986,0.0361-1.5693,0.1074-2.9102s0.1338-2.3174,0.1855-2.9297l-10.8008,16.7188h-5.6055v-21.6016H648.9873z"/>
	<path fill="#4B5666" d="M681.0967,1051.3105c-3.3594,0-5.9863-0.9795-7.8809-2.9395s-2.8418-4.6582-2.8418-8.0957
		c0-3.5283,0.8789-6.3018,2.6367-8.3203s4.1729-3.0273,7.2461-3.0273c2.8516,0,5.1045,0.8662,6.7578,2.5977
		s2.4805,4.1143,2.4805,7.1484v2.4805h-14.3945c0.0654,2.0967,0.6318,3.708,1.6992,4.834s2.5713,1.6895,4.5117,1.6895
		c1.2764,0,2.4639-0.1201,3.5645-0.3613s2.2822-0.6416,3.5449-1.2012v3.7305c-1.1201,0.5342-2.2529,0.9111-3.3984,1.1328
		S682.5684,1051.3105,681.0967,1051.3105z M680.2568,1032.4043c-1.458,0-2.627,0.4619-3.5059,1.3867s-1.4033,2.2725-1.5723,4.043
		h9.8047c-0.0264-1.7842-0.4561-3.1348-1.2891-4.0527S681.7148,1032.4043,680.2568,1032.4043z"/>
	<path fill="#4B5666" d="M707.1123,1046.5254l0.2539-0.9375c0.5342-1.9404,0.9961-3.4307,1.3867-4.4727l4.8438-11.7969h6.1133
		v21.6016h-4.2383v-17.4414l-0.3516,1.1719c-0.5859,2.0967-1.0811,3.6396-1.4844,4.6289l-4.7266,11.6406h-3.4766l-4.7266-11.7188
		c-0.6514-1.6924-1.25-3.6006-1.7969-5.7227v17.4414H694.71v-21.6016h6.0742l4.6875,11.4453
		C705.8887,1041.8184,706.4355,1043.7393,707.1123,1046.5254z"/>
</g>
<path fill="#4B5666" d="M609.6885,812.8311h-67.3799c-1.5449,0-2.7998,1.252-2.7998,2.7969l0.0029,25.9648
	c0,0.002,0.001,0.0059,0.001,0.0098c0,7.7988,0,15.6211,0,18.2344c0,5.7969,1.9561,14.1484,9.4453,22.5391
	c10.7305,12.0176,27.0439,16.9551,27.0439,16.9551s16.3125-4.9375,27.043-16.9551c7.4893-8.3906,9.4453-16.7422,9.4453-22.5391
	c0-2.6133,0-10.4355,0-18.2344c0-0.0039,0.001-0.0078,0.001-0.0098l-0.0039-25.9648
	C612.4873,814.083,611.2334,812.8311,609.6885,812.8311z M556.3057,878.9092c-0.3535,0.3145-0.7949,0.4688-1.2334,0.4688
	c-0.5107,0-1.0176-0.209-1.3838-0.6191c-7.3506-8.2324-8.4473-16.0156-8.4473-19.9219c0-1.0234,0.8291-1.8535,1.8525-1.8535
	s1.8545,0.8301,1.8545,1.8535c0,3.3789,0.9746,10.1387,7.5059,17.4531C557.1357,877.0537,557.0674,878.2256,556.3057,878.9092z
	 M606.7119,841.5029c-0.001,0.0312-0.001,0.0664-0.001,0.0996v18.2344c0,3.6426-1.0371,10.916-7.9766,18.6895
	c-7.5762,8.4863-18.5674,13.1426-22.7324,14.6895l-0.0039-74.6074h30.7109L606.7119,841.5029z"/>
<g>
	<path fill="#4B5666" d="M169.188,565.6143c-2.6826,0-4.792,0.9502-6.3281,2.8516c-1.5366,1.9014-2.3047,4.5244-2.3047,7.8711
		c0,3.5029,0.7388,6.1523,2.2168,7.9492c1.4775,1.7969,3.6162,2.6953,6.416,2.6953c1.2109,0,2.3828-0.1201,3.5156-0.3613
		s2.311-0.5498,3.5352-0.9277v4.0039c-2.2397,0.8467-4.7788,1.2695-7.6172,1.2695c-4.1797,0-7.3896-1.2666-9.6289-3.7988
		c-2.2397-2.5322-3.3594-6.1553-3.3594-10.8691c0-2.9688,0.5435-5.5664,1.6309-7.793c1.0869-2.2266,2.6592-3.9326,4.7168-5.1172
		c2.0571-1.1846,4.4727-1.7773,7.2461-1.7773c2.9165,0,5.6118,0.6123,8.0859,1.8359l-1.6797,3.8867
		c-0.9639-0.4561-1.9824-0.8564-3.0566-1.2012S170.3726,565.6143,169.188,565.6143z"/>
	<path fill="#4B5666" d="M198.1333,568.9736v3.5938h-7.0312v18.0078h-4.6094v-18.0078h-7.0312v-3.5938H198.1333z"/>
	<path fill="#4B5666" d="M215.8091,590.5752l-0.918-3.0078h-0.1562c-1.042,1.3154-2.0898,2.21-3.1445,2.6855
		s-2.4092,0.7129-4.0625,0.7129c-2.1226,0-3.7793-0.5732-4.9707-1.7188s-1.7871-2.7666-1.7871-4.8633
		c0-2.2266,0.8267-3.9062,2.4805-5.0391c1.6533-1.1328,4.1729-1.751,7.5586-1.8555l3.7305-0.1172v-1.1523
		c0-1.3799-0.3223-2.4121-0.9668-3.0957s-1.644-1.0254-2.998-1.0254c-1.1069,0-2.168,0.1631-3.1836,0.4883
		s-1.9922,0.71-2.9297,1.1523l-1.4844-3.2812c1.1719-0.6123,2.4541-1.0771,3.8477-1.3965c1.3931-0.3193,2.708-0.4785,3.9453-0.4785
		c2.7471,0,4.8208,0.5986,6.2207,1.7969c1.3994,1.1982,2.0996,3.0791,2.0996,5.6445v14.5508H215.8091z M208.9731,587.4502
		c1.6665,0,3.0044-0.4658,4.0137-1.3965c1.0088-0.9307,1.5137-2.2363,1.5137-3.916v-1.875l-2.7734,0.1172
		c-2.1616,0.0781-3.7339,0.4395-4.7168,1.084c-0.9834,0.6445-1.4746,1.6309-1.4746,2.959c0,0.9639,0.2861,1.709,0.8594,2.2363
		C206.9678,587.1865,207.8271,587.4502,208.9731,587.4502z"/>
	<path fill="#4B5666" d="M244.2466,574.501c0,2.5518-1.4912,4.0947-4.4727,4.6289v0.1562c1.6665,0.1953,2.9424,0.7227,3.8281,1.582
		c0.8853,0.8594,1.3281,1.9727,1.3281,3.3398c0,2.0439-0.7783,3.6162-2.334,4.7168c-1.5562,1.1006-3.8184,1.6504-6.7871,1.6504
		h-10.3125v-21.6016H235.77C241.4209,568.9736,244.2466,570.8164,244.2466,574.501z M239.6567,574.8916
		c0-0.8594-0.3354-1.4814-1.0059-1.8652c-0.6709-0.3838-1.6699-0.5762-2.998-0.5762h-5.5664v5.1953h4.8828
		c1.5361,0,2.7017-0.1982,3.4961-0.5957C239.2593,576.6523,239.6567,575.9336,239.6567,574.8916z M240.2231,583.9346
		c0-1.042-0.4038-1.7803-1.2109-2.2168c-0.8076-0.4365-2.0186-0.6543-3.6328-0.6543h-5.293v6.1133h5.4102
		C238.6475,587.1768,240.2231,586.0957,240.2231,583.9346z"/>
	<path fill="#4B5666" d="M254.2466,577.6064h5.4102c6.0283,0,9.043,2.083,9.043,6.25c0,2.2002-0.7686,3.8701-2.3047,5.0098
		c-1.5366,1.1396-3.7827,1.709-6.7383,1.709h-10v-21.6016h4.5898V577.6064z M264.0903,583.9736
		c0-1.0811-0.4102-1.8359-1.2305-2.2656s-1.9795-0.6445-3.4766-0.6445h-5.1367v6.1133h5.2148c1.5103,0,2.6592-0.2734,3.4473-0.8203
		C263.6963,585.8096,264.0903,585.0156,264.0903,583.9736z"/>
	<path fill="#4B5666" d="M71.063,638.9658c-2.4092,0-4.4468-0.4102-6.1133-1.2305v-3.7695c2.0703,0.9111,4.082,1.3672,6.0352,1.3672
		c3.7236,0,5.7095-2.0381,5.957-6.1133h-9.5117v-3.3594h9.5117c-0.1562-1.9404-0.6836-3.3662-1.582-4.2773
		s-2.2007-1.3672-3.9062-1.3672c-1.2764,0-2.9561,0.3711-5.0391,1.1133l-1.2695-3.3984c0.8721-0.4033,1.8779-0.7295,3.0176-0.9766
		c1.1392-0.2471,2.2622-0.3711,3.3691-0.3711c3.3984,0,5.9438,0.9375,7.6367,2.8125c1.6924,1.875,2.5391,4.6289,2.5391,8.2617
		s-0.9082,6.4258-2.7246,8.3789S74.5264,638.9658,71.063,638.9658z"/>
	<path fill="#4B5666" d="M100.4185,616.9736h5.0391l-8.9258,10.4102l9.6875,11.1914h-5.2734l-9.3359-10.957v10.957H87.02v-21.6016
		h4.5898v10.4883L100.4185,616.9736z"/>
	<path fill="#4B5666" d="M118.4849,638.9658c-3.2686,0-5.752-0.9541-7.4512-2.8613s-2.5488-4.6455-2.5488-8.2129
		c0-3.6328,0.8887-6.4258,2.666-8.3789s4.3457-2.9297,7.7051-2.9297c2.2783,0,4.3291,0.4229,6.1523,1.2695l-1.3867,3.6914
		c-1.9404-0.7549-3.542-1.1328-4.8047-1.1328c-3.7373,0-5.6055,2.4805-5.6055,7.4414c0,2.4219,0.4653,4.2412,1.3965,5.459
		c0.9307,1.2178,2.2949,1.8262,4.0918,1.8262c2.0439,0,3.9775-0.5078,5.8008-1.5234v4.0039
		c-0.8203,0.4814-1.6963,0.8271-2.627,1.0352C120.9424,638.8613,119.813,638.9658,118.4849,638.9658z"/>
	<path fill="#4B5666" d="M148.4653,616.9736v21.6016h-4.6094v-17.9688h-9.6875v17.9688h-4.5898v-21.6016H148.4653z"/>
	<path fill="#4B5666" d="M164.4614,638.9658c-3.3594,0-5.9863-0.9795-7.8809-2.9395s-2.8418-4.6582-2.8418-8.0957
		c0-3.5283,0.8789-6.3018,2.6367-8.3203s4.1729-3.0273,7.2461-3.0273c2.8516,0,5.104,0.8662,6.7578,2.5977
		c1.6533,1.7314,2.4805,4.1143,2.4805,7.1484v2.4805h-14.3945c0.0649,2.0967,0.6313,3.708,1.6992,4.834
		c1.0674,1.126,2.5713,1.6895,4.5117,1.6895c1.2759,0,2.4639-0.1201,3.5645-0.3613c1.1001-0.2412,2.2817-0.6416,3.5449-1.2012
		v3.7305c-1.1201,0.5342-2.2529,0.9111-3.3984,1.1328C167.2412,638.8555,165.9326,638.9658,164.4614,638.9658z M163.6216,620.0596
		c-1.4585,0-2.627,0.4619-3.5059,1.3867s-1.4033,2.2725-1.5723,4.043h9.8047c-0.0264-1.7842-0.4561-3.1348-1.2891-4.0527
		C166.2256,620.5186,165.0796,620.0596,163.6216,620.0596z"/>
	<path fill="#4B5666" d="M189.0317,638.9658c-2.7344,0-4.8569-0.9834-6.3672-2.9492h-0.2734
		c0.1821,1.8232,0.2734,2.9297,0.2734,3.3203v8.8477h-4.5898v-31.2109h3.7109c0.104,0.4033,0.3188,1.3672,0.6445,2.8906h0.2344
		c1.4321-2.1875,3.5806-3.2812,6.4453-3.2812c2.6953,0,4.7949,0.9766,6.2988,2.9297s2.2559,4.6943,2.2559,8.2227
		s-0.7651,6.2822-2.2949,8.2617C193.8394,637.9766,191.7271,638.9658,189.0317,638.9658z M187.9185,620.333
		c-1.8232,0-3.1543,0.5342-3.9941,1.6016s-1.2598,2.7734-1.2598,5.1172v0.6836c0,2.6299,0.4165,4.5342,1.25,5.7129
		c0.833,1.1787,2.1938,1.7676,4.082,1.7676c1.5884,0,2.8125-0.6514,3.6719-1.9531s1.2891-3.1572,1.2891-5.5664
		c0-2.4219-0.4268-4.2549-1.2793-5.498C190.8252,620.9551,189.5718,620.333,187.9185,620.333z"/>
	<path fill="#4B5666" d="M207.3911,616.9736v11.0742c0,1.2891-0.1045,3.1836-0.3125,5.6836l10.8398-16.7578h5.6055v21.6016h-4.4141
		v-10.8789c0-0.5986,0.0356-1.5693,0.1074-2.9102c0.0713-1.3408,0.1333-2.3174,0.1855-2.9297l-10.8008,16.7188h-5.6055v-21.6016
		H207.3911z"/>
	<path fill="#4B5666" d="M242.4692,634.1807l0.2539-0.9375c0.5337-1.9404,0.9961-3.4307,1.3867-4.4727l4.8438-11.7969h6.1133
		v21.6016h-4.2383v-17.4414l-0.3516,1.1719c-0.5859,2.0967-1.0811,3.6396-1.4844,4.6289l-4.7266,11.6406h-3.4766l-4.7266-11.7188
		c-0.6514-1.6924-1.25-3.6006-1.7969-5.7227v17.4414h-4.1992v-21.6016h6.0742l4.6875,11.4453
		C241.2451,629.4736,241.792,631.3945,242.4692,634.1807z"/>
	<path fill="#4B5666" d="M271.063,638.9658c-3.3594,0-5.9863-0.9795-7.8809-2.9395s-2.8418-4.6582-2.8418-8.0957
		c0-3.5283,0.8789-6.3018,2.6367-8.3203s4.1729-3.0273,7.2461-3.0273c2.8516,0,5.104,0.8662,6.7578,2.5977
		c1.6533,1.7314,2.4805,4.1143,2.4805,7.1484v2.4805h-14.3945c0.0649,2.0967,0.6313,3.708,1.6992,4.834
		c1.0674,1.126,2.5713,1.6895,4.5117,1.6895c1.2759,0,2.4639-0.1201,3.5645-0.3613c1.1001-0.2412,2.2817-0.6416,3.5449-1.2012
		v3.7305c-1.1201,0.5342-2.2529,0.9111-3.3984,1.1328C273.8428,638.8555,272.5342,638.9658,271.063,638.9658z M270.2231,620.0596
		c-1.4585,0-2.627,0.4619-3.5059,1.3867s-1.4033,2.2725-1.5723,4.043h9.8047c-0.0264-1.7842-0.4561-3.1348-1.2891-4.0527
		C272.8271,620.5186,271.6812,620.0596,270.2231,620.0596z"/>
	<path fill="#4B5666" d="M289.2661,616.9736v8.6719h10.1758v-8.6719h4.5898v21.6016h-4.5898v-9.3164h-10.1758v9.3164h-4.5898
		v-21.6016H289.2661z"/>
	<path fill="#4B5666" d="M326.8247,616.9736v3.5938h-7.0312v18.0078h-4.6094v-18.0078h-7.0312v-3.5938H326.8247z"/>
	<path fill="#4B5666" d="M335.5747,625.6064h4.375c3.0205,0,5.2539,0.5205,6.6992,1.5625s2.168,2.6045,2.168,4.6875
		c0,2.2266-0.752,3.9033-2.2559,5.0293s-3.708,1.6895-6.6113,1.6895h-8.9648v-21.6016h4.5898V625.6064z M344.2661,631.9736
		c0-1.0811-0.4004-1.8359-1.2012-2.2656s-1.9502-0.6445-3.4473-0.6445h-4.043v6.1133h3.457c1.8486,0,3.1836-0.2607,4.0039-0.7812
		S344.2661,633.0674,344.2661,631.9736z M356.8247,638.5752h-4.6094v-21.6016h4.6094V638.5752z"/>
	<path fill="#4B5666" d="M63.6216,664.9736v11.0742c0,1.2891-0.1045,3.1836-0.3125,5.6836l10.8398-16.7578h5.6055v21.6016h-4.4141
		v-10.8789c0-0.5986,0.0356-1.5693,0.1074-2.9102c0.0713-1.3408,0.1333-2.3174,0.1855-2.9297l-10.8008,16.7188h-5.6055v-21.6016
		H63.6216z"/>
	<path fill="#4B5666" d="M95.438,673.6064c0-4.8174,0.8169-8.5225,2.4512-11.1133c1.6338-2.5908,4.2349-4.2578,7.8027-5
		c2.6953-0.5469,5.8008-1.0811,9.3164-1.6016l0.6445,4.043c-4.271,0.6514-7.396,1.1592-9.375,1.5234
		c-2.0444,0.3779-3.519,1.2178-4.4238,2.5195c-0.9053,1.3018-1.4292,3.2617-1.5723,5.8789h0.293
		c0.7422-1.0811,1.7119-1.917,2.9102-2.5098c1.1978-0.5928,2.4805-0.8887,3.8477-0.8887c2.6562,0,4.7266,0.8398,6.2109,2.5195
		s2.2266,4.0361,2.2266,7.0703c0,3.4766-0.9019,6.165-2.7051,8.0664c-1.8037,1.9014-4.3003,2.8516-7.4902,2.8516
		c-3.1641,0-5.6445-1.1719-7.4414-3.5156S95.438,677.8252,95.438,673.6064z M105.8872,683.2158
		c3.4111,0,5.1172-2.2393,5.1172-6.7188c0-4.3232-1.543-6.4844-4.6289-6.4844c-0.8467,0-1.667,0.1826-2.4609,0.5469
		c-0.7944,0.3643-1.5269,0.8467-2.1973,1.4453c-0.6709,0.5986-1.1885,1.2178-1.5527,1.8555c0,3.0732,0.4883,5.4004,1.4648,6.9824
		S104.0249,683.2158,105.8872,683.2158z"/>
	<path fill="#4B5666" d="M125.6333,673.6064h4.375c3.0205,0,5.2539,0.5205,6.6992,1.5625s2.168,2.6045,2.168,4.6875
		c0,2.2266-0.752,3.9033-2.2559,5.0293s-3.708,1.6895-6.6113,1.6895h-8.9648v-21.6016h4.5898V673.6064z M134.3247,679.9736
		c0-1.0811-0.4004-1.8359-1.2012-2.2656s-1.9502-0.6445-3.4473-0.6445h-4.043v6.1133h3.457c1.8486,0,3.1836-0.2607,4.0039-0.7812
		S134.3247,681.0674,134.3247,679.9736z M146.8833,686.5752h-4.6094v-21.6016h4.6094V686.5752z"/>
	<path fill="#4B5666" d="M162.1567,686.9658c-3.2686,0-5.752-0.9541-7.4512-2.8613s-2.5488-4.6455-2.5488-8.2129
		c0-3.6328,0.8887-6.4258,2.666-8.3789s4.3457-2.9297,7.7051-2.9297c2.2783,0,4.3291,0.4229,6.1523,1.2695l-1.3867,3.6914
		c-1.9404-0.7549-3.542-1.1328-4.8047-1.1328c-3.7373,0-5.6055,2.4805-5.6055,7.4414c0,2.4219,0.4653,4.2412,1.3965,5.459
		c0.9307,1.2178,2.2949,1.8262,4.0918,1.8262c2.0439,0,3.9775-0.5078,5.8008-1.5234v4.0039
		c-0.8203,0.4814-1.6963,0.8271-2.627,1.0352C164.6143,686.8613,163.4849,686.9658,162.1567,686.9658z"/>
	<path fill="#4B5666" d="M189.481,664.9736v3.5938h-7.0312v18.0078h-4.6094v-18.0078h-7.0312v-3.5938H189.481z"/>
	<path fill="#4B5666" d="M204.5981,686.9658c-2.7344,0-4.8569-0.9834-6.3672-2.9492h-0.2734
		c0.1821,1.8232,0.2734,2.9297,0.2734,3.3203v8.8477h-4.5898v-31.2109h3.7109c0.104,0.4033,0.3188,1.3672,0.6445,2.8906h0.2344
		c1.4321-2.1875,3.5806-3.2812,6.4453-3.2812c2.6953,0,4.7949,0.9766,6.2988,2.9297s2.2559,4.6943,2.2559,8.2227
		s-0.7651,6.2822-2.2949,8.2617C209.4058,685.9766,207.2935,686.9658,204.5981,686.9658z M203.4849,668.333
		c-1.8232,0-3.1543,0.5342-3.9941,1.6016s-1.2598,2.7734-1.2598,5.1172v0.6836c0,2.6299,0.4165,4.5342,1.25,5.7129
		c0.833,1.1787,2.1938,1.7676,4.082,1.7676c1.5884,0,2.8125-0.6514,3.6719-1.9531s1.2891-3.1572,1.2891-5.5664
		c0-2.4219-0.4268-4.2549-1.2793-5.498C206.3916,668.9551,205.1382,668.333,203.4849,668.333z"/>
	<path fill="#4B5666" d="M237.7231,675.7354c0,3.5283-0.9053,6.2822-2.7148,8.2617c-1.8101,1.9795-4.3296,2.9688-7.5586,2.9688
		c-2.0186,0-3.8022-0.4561-5.3516-1.3672c-1.5498-0.9111-2.7412-2.2197-3.5742-3.9258c-0.8335-1.7061-1.25-3.6846-1.25-5.9375
		c0-3.5029,0.8984-6.2373,2.6953-8.2031s4.3291-2.9492,7.5977-2.9492c3.125,0,5.5986,1.0059,7.4219,3.0176
		C236.8115,669.6123,237.7231,672.3242,237.7231,675.7354z M222.0005,675.7354c0,4.9873,1.8423,7.4805,5.5273,7.4805
		c3.6455,0,5.4688-2.4932,5.4688-7.4805c0-4.9346-1.8359-7.4023-5.5078-7.4023c-1.9272,0-3.3237,0.6377-4.1895,1.9141
		C222.4331,671.5234,222.0005,673.3525,222.0005,675.7354z"/>
	<path fill="#4B5666" d="M250.106,664.9736h5l4.3945,12.2461c0.6641,1.7451,1.1064,3.3857,1.3281,4.9219h0.1562
		c0.1172-0.7158,0.332-1.585,0.6445-2.6074s1.9658-5.876,4.9609-14.5605h4.9609l-9.2383,24.4727
		c-1.6797,4.4922-4.4795,6.7383-8.3984,6.7383c-1.0156,0-2.0054-0.1104-2.9688-0.332v-3.6328
		c0.6899,0.1562,1.4775,0.2344,2.3633,0.2344c2.2134,0,3.7695-1.2822,4.668-3.8477l0.8008-2.0312L250.106,664.9736z"/>
	<path fill="#4B5666" d="M278.8755,664.9736v7.8906c0,2.2139,1.1455,3.3203,3.4375,3.3203c1.1064,0,2.1875-0.1533,3.2422-0.459
		s2.1875-0.7979,3.3984-1.4746v-9.2773h4.5898v21.6016h-4.5898v-9.1602c-1.2632,0.7812-2.4839,1.3574-3.6621,1.7285
		c-1.1787,0.3711-2.4644,0.5566-3.8574,0.5566c-2.2529,0-4.0107-0.583-5.2734-1.748c-1.2632-1.165-1.8945-2.7959-1.8945-4.8926
		v-8.0859H278.8755z"/>
	<path fill="#4B5666" d="M304.5005,664.9736v11.0742c0,1.2891-0.1045,3.1836-0.3125,5.6836l10.8398-16.7578h5.6055v21.6016h-4.4141
		v-10.8789c0-0.5986,0.0356-1.5693,0.1074-2.9102c0.0713-1.3408,0.1333-2.3174,0.1855-2.9297l-10.8008,16.7188h-5.6055v-21.6016
		H304.5005z"/>
	<path fill="#4B5666" d="M335.8872,686.9658c-3.2686,0-5.752-0.9541-7.4512-2.8613s-2.5488-4.6455-2.5488-8.2129
		c0-3.6328,0.8887-6.4258,2.666-8.3789s4.3457-2.9297,7.7051-2.9297c2.2783,0,4.3291,0.4229,6.1523,1.2695l-1.3867,3.6914
		c-1.9404-0.7549-3.542-1.1328-4.8047-1.1328c-3.7373,0-5.6055,2.4805-5.6055,7.4414c0,2.4219,0.4653,4.2412,1.3965,5.459
		c0.9307,1.2178,2.2949,1.8262,4.0918,1.8262c2.0439,0,3.9775-0.5078,5.8008-1.5234v4.0039
		c-0.8203,0.4814-1.6963,0.8271-2.627,1.0352C338.3447,686.8613,337.2153,686.9658,335.8872,686.9658z"/>
	<path fill="#4B5666" d="M351.5708,673.6064h5.4102c6.0283,0,9.043,2.083,9.043,6.25c0,2.2002-0.7686,3.8701-2.3047,5.0098
		c-1.5366,1.1396-3.7827,1.709-6.7383,1.709h-10v-21.6016h4.5898V673.6064z M361.4146,679.9736
		c0-1.0811-0.4102-1.8359-1.2305-2.2656s-1.9795-0.6445-3.4766-0.6445h-5.1367v6.1133h5.2148c1.5103,0,2.6592-0.2734,3.4473-0.8203
		C361.0205,681.8096,361.4146,681.0156,361.4146,679.9736z"/>
</g>
<path fill-rule="evenodd" clip-rule="evenodd" fill="#4B5666" d="M243.4507,506.4004c0,11.8926-6.5791,22.2422-16.2925,27.623
	c0,0-1.1807,0.6758-2.7192,0.9424c-1.4961,0.2578-2.6011,0.3066-2.6011,0.3066h-9.9546h-9.9531c0,0-1.1064-0.0488-2.603-0.3066
	c-1.5381-0.2666-2.7188-0.9424-2.7188-0.9424c-9.7134-5.3809-16.2925-15.7305-16.2925-27.623
	c0-13.1309,8.019-24.3857,19.4258-29.1436v-17.9307c-1.5508,0-2.8081-1.2578-2.8081-2.8066v-4.9395
	c0-1.5508,1.2573-2.8076,2.8081-2.8076h24.2832c1.5508,0,2.8086,1.2568,2.8086,2.8076v4.9395c0,1.5488-1.2578,2.8066-2.8086,2.8066
	v17.9307C235.4316,482.0146,243.4507,493.2695,243.4507,506.4004z M220.0063,450.6797h-16.2451
	c-1.0239,0-1.8535,0.8311-1.8535,1.8545c0,1.0244,0.8296,1.8535,1.8535,1.8535h16.2451c1.0239,0,1.8545-0.8291,1.8545-1.8535
	C221.8608,451.5107,221.0303,450.6797,220.0063,450.6797z M221.8008,482.5908c-2.1523-0.8975-3.5557-3.002-3.5557-5.334v-17.9307
	h-12.7236v17.9307c0,2.332-1.4023,4.4365-3.5552,5.334c-9.6401,4.0215-15.8711,13.3682-15.8711,23.8096
	c0,9.3691,5.1001,18.0166,13.3096,22.5664c0.1255,0.0625,0.5244,0.2373,0.9072,0.3047c0.853,0.1465,1.54,0.2031,1.7881,0.2207
	h9.7832h9.7852c0.2339-0.0156,0.9263-0.0723,1.7881-0.2217c0.3828-0.0664,0.7793-0.2412,0.9053-0.3037
	c8.2095-4.5498,13.3096-13.1973,13.3096-22.5664C237.6714,495.959,231.4419,486.6123,221.8008,482.5908z M233.9639,506.4004
	c0,7.9629-4.3003,15.3135-11.2388,19.2344c-0.5337,0.0879-0.9756,0.1328-1.2031,0.1504h-19.2817
	c-0.2104-0.0176-0.6558-0.0615-1.1963-0.1504c-6.939-3.9199-11.2427-11.2715-11.2427-19.2344c0-2.8027,0.5332-5.4854,1.4907-7.9551
	h41.1841C233.4336,500.915,233.9639,503.5977,233.9639,506.4004z M205.1714,518.9609c-4.7559-3.0137-7.7012-8.3418-7.7012-13.9648
	c0-1.0234-0.8296-1.8525-1.854-1.8525c-1.0229,0-1.854,0.8291-1.854,1.8525c0,6.9775,3.7026,13.5859,9.6621,17.2441l0.3779,0.2197
	l0.5547,0.0596c0.0537,0.0049,0.1069,0.0068,0.1611,0.0068c0.9482,0,1.7227-0.7314,1.8062-1.6963
	C206.395,520.0107,205.8979,519.2676,205.1714,518.9609z"/>
<g>
	<path fill="#4B5666" d="M858.0283,590.5752h-4.6875v-24.5508h-12.5977v24.5508h-4.668v-28.5547h21.9531V590.5752z"/>
	<path fill="#4B5666" d="M884.2197,579.7354c0,3.5283-0.9053,6.2822-2.7148,8.2617s-4.3291,2.9688-7.5586,2.9688
		c-2.0186,0-3.8018-0.4561-5.3516-1.3672s-2.7412-2.2197-3.5742-3.9258s-1.25-3.6846-1.25-5.9375
		c0-3.5029,0.8984-6.2373,2.6953-8.2031s4.3291-2.9492,7.5977-2.9492c3.125,0,5.5986,1.0059,7.4219,3.0176
		S884.2197,576.3242,884.2197,579.7354z M868.4971,579.7354c0,4.9873,1.8428,7.4805,5.5273,7.4805
		c3.6455,0,5.4688-2.4932,5.4688-7.4805c0-4.9346-1.8359-7.4023-5.5078-7.4023c-1.9268,0-3.3232,0.6377-4.1895,1.9141
		S868.4971,577.3525,868.4971,579.7354z"/>
	<path fill="#4B5666" d="M898.2041,590.9658c-3.2686,0-5.752-0.9541-7.4512-2.8613s-2.5488-4.6455-2.5488-8.2129
		c0-3.6328,0.8887-6.4258,2.666-8.3789s4.3457-2.9297,7.7051-2.9297c2.2783,0,4.3291,0.4229,6.1523,1.2695l-1.3867,3.6914
		c-1.9404-0.7549-3.542-1.1328-4.8047-1.1328c-3.7373,0-5.6055,2.4805-5.6055,7.4414c0,2.4219,0.4658,4.2412,1.3965,5.459
		s2.2949,1.8262,4.0918,1.8262c2.0439,0,3.9775-0.5078,5.8008-1.5234v4.0039c-0.8203,0.4814-1.6963,0.8271-2.627,1.0352
		S899.5322,590.9658,898.2041,590.9658z"/>
	<path fill="#4B5666" d="M925.5283,568.9736v3.5938h-7.0312v18.0078h-4.6094v-18.0078h-7.0312v-3.5938H925.5283z"/>
	<path fill="#4B5666" d="M943.2041,590.5752l-0.918-3.0078h-0.1562c-1.042,1.3154-2.0898,2.21-3.1445,2.6855
		s-2.4092,0.7129-4.0625,0.7129c-2.1221,0-3.7793-0.5732-4.9707-1.7188s-1.7871-2.7666-1.7871-4.8633
		c0-2.2266,0.8271-3.9062,2.4805-5.0391s4.1729-1.751,7.5586-1.8555l3.7305-0.1172v-1.1523c0-1.3799-0.3223-2.4121-0.9668-3.0957
		s-1.6436-1.0254-2.998-1.0254c-1.1064,0-2.168,0.1631-3.1836,0.4883s-1.9922,0.71-2.9297,1.1523l-1.4844-3.2812
		c1.1719-0.6123,2.4541-1.0771,3.8477-1.3965s2.708-0.4785,3.9453-0.4785c2.7471,0,4.8213,0.5986,6.2207,1.7969
		s2.0996,3.0791,2.0996,5.6445v14.5508H943.2041z M936.3682,587.4502c1.667,0,3.0049-0.4658,4.0137-1.3965
		s1.5137-2.2363,1.5137-3.916v-1.875l-2.7734,0.1172c-2.1611,0.0781-3.7334,0.4395-4.7168,1.084s-1.4746,1.6309-1.4746,2.959
		c0,0.9639,0.2861,1.709,0.8594,2.2363S935.2227,587.4502,936.3682,587.4502z"/>
	<path fill="#4B5666" d="M971.6416,574.501c0,2.5518-1.4912,4.0947-4.4727,4.6289v0.1562c1.667,0.1953,2.9424,0.7227,3.8281,1.582
		s1.3281,1.9727,1.3281,3.3398c0,2.0439-0.7783,3.6162-2.334,4.7168s-3.8184,1.6504-6.7871,1.6504h-10.3125v-21.6016h10.2734
		C968.8164,568.9736,971.6416,570.8164,971.6416,574.501z M967.0518,574.8916c0-0.8594-0.335-1.4814-1.0059-1.8652
		s-1.6699-0.5762-2.998-0.5762h-5.5664v5.1953h4.8828c1.5361,0,2.7021-0.1982,3.4961-0.5957S967.0518,575.9336,967.0518,574.8916z
		 M967.6182,583.9346c0-1.042-0.4033-1.7803-1.2109-2.2168s-2.0186-0.6543-3.6328-0.6543h-5.293v6.1133h5.4102
		C966.043,587.1768,967.6182,586.0957,967.6182,583.9346z"/>
	<path fill="#4B5666" d="M994.8057,590.5752h-4.6289v-18.0078h-5.957c-0.3643,4.6357-0.8564,8.2549-1.4746,10.8594
		s-1.4258,4.5049-2.4219,5.7031s-2.2881,1.7969-3.877,1.7969c-1.0029,0-1.8428-0.1436-2.5195-0.4297v-3.5938
		c0.4814,0.1826,0.9639,0.2734,1.4453,0.2734c1.3281,0,2.373-1.4941,3.1348-4.4824s1.3574-7.5615,1.7871-13.7207h14.5117V590.5752z"
		/>
	<path fill="#4B5666" d="M1003.5752,590.5752h-5.1367l6.0156-8.8477c-1.458-0.417-2.6045-1.1621-3.4375-2.2363
		s-1.25-2.4053-1.25-3.9941c0-2.0439,0.7295-3.6426,2.1875-4.7949s3.4502-1.7285,5.9766-1.7285h9.8438v21.6016h-4.6094v-8.3203
		h-4.3555L1003.5752,590.5752z M1004.2393,575.5361c0,1.1064,0.4199,1.9365,1.2598,2.4902s1.9697,0.8301,3.3887,0.8301h4.2773
		v-6.4062h-5c-1.25,0-2.2168,0.2666-2.9004,0.8008S1004.2393,574.5469,1004.2393,575.5361z"/>
	<path fill="#4B5666" d="M1028.7314,568.9736v11.0742c0,1.2891-0.1045,3.1836-0.3125,5.6836l10.8398-16.7578h5.6055v21.6016h-4.4141
		v-10.8789c0-0.5986,0.0361-1.5693,0.1074-2.9102s0.1338-2.3174,0.1855-2.9297l-10.8008,16.7188h-5.6055v-21.6016H1028.7314z
		 M1034.4541,566.3369c-2.7607,0-4.7822-0.498-6.0645-1.4941s-1.9951-2.6592-2.1387-4.9902h4.1602
		c0.0781,0.9375,0.2568,1.667,0.5371,2.1875s0.6836,0.8955,1.2109,1.123s1.3311,0.3418,2.4121,0.3418
		c1.2764,0,2.2461-0.2832,2.9102-0.8496s1.0674-1.501,1.2109-2.8027h4.2383c-0.1953,2.2393-0.9834,3.8799-2.3633,4.9219
		S1037.1494,566.3369,1034.4541,566.3369z"/>
	<path fill="#4B5666" d="M867.7744,635.0205h3.125v11.1523h-4.3164v-7.5977h-18.0469v-21.6016h4.5898v17.9688h10.0586v-17.9688
		h4.5898V635.0205z"/>
	<path fill="#4B5666" d="M884.2588,638.9658c-3.3594,0-5.9863-0.9795-7.8809-2.9395s-2.8418-4.6582-2.8418-8.0957
		c0-3.5283,0.8789-6.3018,2.6367-8.3203s4.1729-3.0273,7.2461-3.0273c2.8516,0,5.1045,0.8662,6.7578,2.5977
		s2.4805,4.1143,2.4805,7.1484v2.4805h-14.3945c0.0654,2.0967,0.6318,3.708,1.6992,4.834s2.5713,1.6895,4.5117,1.6895
		c1.2764,0,2.4639-0.1201,3.5645-0.3613s2.2822-0.6416,3.5449-1.2012v3.7305c-1.1201,0.5342-2.2529,0.9111-3.3984,1.1328
		S885.7305,638.9658,884.2588,638.9658z M883.4189,620.0596c-1.458,0-2.627,0.4619-3.5059,1.3867s-1.4033,2.2725-1.5723,4.043
		h9.8047c-0.0264-1.7842-0.4561-3.1348-1.2891-4.0527S884.877,620.0596,883.4189,620.0596z"/>
	<path fill="#4B5666" d="M902.4619,616.9736v8.6719h10.1758v-8.6719h4.5898v21.6016h-4.5898v-9.3164h-10.1758v9.3164h-4.5898
		v-21.6016H902.4619z"/>
	<path fill="#4B5666" d="M928.3799,616.9736v8.6719h10.1758v-8.6719h4.5898v21.6016h-4.5898v-9.3164h-10.1758v9.3164H923.79
		v-21.6016H928.3799z"/>
	<path fill="#4B5666" d="M968.8682,627.7354c0,3.5283-0.9053,6.2822-2.7148,8.2617s-4.3291,2.9688-7.5586,2.9688
		c-2.0186,0-3.8018-0.4561-5.3516-1.3672s-2.7412-2.2197-3.5742-3.9258s-1.25-3.6846-1.25-5.9375
		c0-3.5029,0.8984-6.2373,2.6953-8.2031s4.3291-2.9492,7.5977-2.9492c3.125,0,5.5986,1.0059,7.4219,3.0176
		S968.8682,624.3242,968.8682,627.7354z M953.1455,627.7354c0,4.9873,1.8428,7.4805,5.5273,7.4805
		c3.6455,0,5.4688-2.4932,5.4688-7.4805c0-4.9346-1.8359-7.4023-5.5078-7.4023c-1.9268,0-3.3232,0.6377-4.1895,1.9141
		S953.1455,625.3525,953.1455,627.7354z"/>
	<path fill="#4B5666" d="M982.8525,638.9658c-3.2686,0-5.752-0.9541-7.4512-2.8613s-2.5488-4.6455-2.5488-8.2129
		c0-3.6328,0.8887-6.4258,2.666-8.3789s4.3457-2.9297,7.7051-2.9297c2.2783,0,4.3291,0.4229,6.1523,1.2695l-1.3867,3.6914
		c-1.9404-0.7549-3.542-1.1328-4.8047-1.1328c-3.7373,0-5.6055,2.4805-5.6055,7.4414c0,2.4219,0.4658,4.2412,1.3965,5.459
		s2.2949,1.8262,4.0918,1.8262c2.0439,0,3.9775-0.5078,5.8008-1.5234v4.0039c-0.8203,0.4814-1.6963,0.8271-2.627,1.0352
		S984.1807,638.9658,982.8525,638.9658z"/>
	<path fill="#4B5666" d="M1010.1768,616.9736v3.5938h-7.0312v18.0078h-4.6094v-18.0078h-7.0312v-3.5938H1010.1768z"/>
	<path fill="#4B5666" d="M1018.9268,625.6064h5.4102c6.0283,0,9.043,2.083,9.043,6.25c0,2.2002-0.7686,3.8701-2.3047,5.0098
		s-3.7822,1.709-6.7383,1.709h-10v-21.6016h4.5898V625.6064z M1028.7705,631.9736c0-1.0811-0.4102-1.8359-1.2305-2.2656
		s-1.9795-0.6445-3.4766-0.6445h-5.1367v6.1133h5.2148c1.5107,0,2.6592-0.2734,3.4473-0.8203S1028.7705,633.0156,1028.7705,631.9736
		z"/>
	<path fill="#4B5666" d="M855.5088,664.9736v21.6016h-4.6094v-17.9688h-9.6875v17.9688h-4.5898v-21.6016H855.5088z"/>
	<path fill="#4B5666" d="M881.2314,675.7354c0,3.5283-0.9053,6.2822-2.7148,8.2617s-4.3291,2.9688-7.5586,2.9688
		c-2.0186,0-3.8018-0.4561-5.3516-1.3672s-2.7412-2.2197-3.5742-3.9258s-1.25-3.6846-1.25-5.9375
		c0-3.5029,0.8984-6.2373,2.6953-8.2031s4.3291-2.9492,7.5977-2.9492c3.125,0,5.5986,1.0059,7.4219,3.0176
		S881.2314,672.3242,881.2314,675.7354z M865.5088,675.7354c0,4.9873,1.8428,7.4805,5.5273,7.4805
		c3.6455,0,5.4688-2.4932,5.4688-7.4805c0-4.9346-1.8359-7.4023-5.5078-7.4023c-1.9268,0-3.3232,0.6377-4.1895,1.9141
		S865.5088,673.3525,865.5088,675.7354z"/>
	<path fill="#4B5666" d="M895.2158,686.9658c-3.2686,0-5.752-0.9541-7.4512-2.8613s-2.5488-4.6455-2.5488-8.2129
		c0-3.6328,0.8887-6.4258,2.666-8.3789s4.3457-2.9297,7.7051-2.9297c2.2783,0,4.3291,0.4229,6.1523,1.2695l-1.3867,3.6914
		c-1.9404-0.7549-3.542-1.1328-4.8047-1.1328c-3.7373,0-5.6055,2.4805-5.6055,7.4414c0,2.4219,0.4658,4.2412,1.3965,5.459
		s2.2949,1.8262,4.0918,1.8262c2.0439,0,3.9775-0.5078,5.8008-1.5234v4.0039c-0.8203,0.4814-1.6963,0.8271-2.627,1.0352
		S896.5439,686.9658,895.2158,686.9658z"/>
	<path fill="#4B5666" d="M922.54,664.9736v3.5938h-7.0312v18.0078h-4.6094v-18.0078h-7.0312v-3.5938H922.54z"/>
	<path fill="#4B5666" d="M945.8604,675.7354c0,3.5283-0.9053,6.2822-2.7148,8.2617s-4.3291,2.9688-7.5586,2.9688
		c-2.0186,0-3.8018-0.4561-5.3516-1.3672s-2.7412-2.2197-3.5742-3.9258s-1.25-3.6846-1.25-5.9375
		c0-3.5029,0.8984-6.2373,2.6953-8.2031s4.3291-2.9492,7.5977-2.9492c3.125,0,5.5986,1.0059,7.4219,3.0176
		S945.8604,672.3242,945.8604,675.7354z M930.1377,675.7354c0,4.9873,1.8428,7.4805,5.5273,7.4805
		c3.6455,0,5.4688-2.4932,5.4688-7.4805c0-4.9346-1.8359-7.4023-5.5078-7.4023c-1.9268,0-3.3232,0.6377-4.1895,1.9141
		S930.1377,673.3525,930.1377,675.7354z"/>
	<path fill="#4B5666" d="M953.3408,686.5752h-5.1367l6.0156-8.8477c-1.458-0.417-2.6045-1.1621-3.4375-2.2363
		s-1.25-2.4053-1.25-3.9941c0-2.0439,0.7295-3.6426,2.1875-4.7949s3.4502-1.7285,5.9766-1.7285h9.8438v21.6016h-4.6094v-8.3203
		h-4.3555L953.3408,686.5752z M954.0049,671.5361c0,1.1064,0.4199,1.9365,1.2598,2.4902s1.9697,0.8301,3.3887,0.8301h4.2773v-6.4062
		h-5c-1.25,0-2.2168,0.2666-2.9004,0.8008S954.0049,670.5469,954.0049,671.5361z"/>
	<path fill="#4B5666" d="M978.6924,664.9736v8.6719h10.1758v-8.6719h4.5898v21.6016h-4.5898v-9.3164h-10.1758v9.3164h-4.5898
		v-21.6016H978.6924z"/>
	<path fill="#4B5666" d="M1004.6104,664.9736v8.6719h10.1758v-8.6719h4.5898v21.6016h-4.5898v-9.3164h-10.1758v9.3164h-4.5898
		v-21.6016H1004.6104z"/>
	<path fill="#4B5666" d="M1045.0986,675.7354c0,3.5283-0.9053,6.2822-2.7148,8.2617s-4.3291,2.9688-7.5586,2.9688
		c-2.0186,0-3.8018-0.4561-5.3516-1.3672s-2.7412-2.2197-3.5742-3.9258s-1.25-3.6846-1.25-5.9375
		c0-3.5029,0.8984-6.2373,2.6953-8.2031s4.3291-2.9492,7.5977-2.9492c3.125,0,5.5986,1.0059,7.4219,3.0176
		S1045.0986,672.3242,1045.0986,675.7354z M1029.376,675.7354c0,4.9873,1.8428,7.4805,5.5273,7.4805
		c3.6455,0,5.4688-2.4932,5.4688-7.4805c0-4.9346-1.8359-7.4023-5.5078-7.4023c-1.9268,0-3.3232,0.6377-4.1895,1.9141
		S1029.376,673.3525,1029.376,675.7354z"/>
</g>
<path fill-rule="evenodd" clip-rule="evenodd" fill="#4B5666" d="M991.1162,481.8281c-0.127,0-0.2627-0.0088-0.4053-0.0303
	l-5.4014-0.7549l-0.001,39.4395c0,1.5439-1.2178,3.1426-2.7061,3.5537l-39.6816,10.9277c-0.7441,0.2041-1.7266,0.3086-2.707,0.3086
	c-0.9814,0-1.9619-0.1045-2.707-0.3086l-39.6797-10.9277c-1.4902-0.4111-2.707-2.0098-2.707-3.5537l0.001-39.4395l-5.4033,0.7549
	c-0.1426,0.0215-0.2773,0.0303-0.4043,0.0303c-1.2461,0-1.7881-0.918-1.2031-2.1904l7.5938-16.5352
	c0.6445-1.4033,2.3887-2.8887,3.8789-3.2979l39.6797-10.9307c0.249-0.0684,0.4795-0.1016,0.6904-0.1016
	c0.0938,0,0.1777,0.0137,0.2617,0.0273c0.085-0.0137,0.168-0.0273,0.2607-0.0273c0.2119,0,0.4424,0.0332,0.6904,0.1016
	l39.6807,10.9307c1.4902,0.4092,3.2354,1.8945,3.8799,3.2979l7.5938,16.5352C992.9053,480.9102,992.3643,481.8281,991.1162,481.8281
	z M901.1406,515.9834c0,1.0234,0.8301,1.8525,1.8535,1.8525c1.0244,0,1.8535-0.8291,1.8535-1.8525v-17.6865
	c0-1.0244-0.8291-1.8535-1.8535-1.8535c-1.0234,0-1.8535,0.8291-1.8535,1.8535V515.9834z M900.5654,463.3779
	c-0.4375,0.1221-1.3037,0.8594-1.4941,1.2715l-5.9365,12.9268l37.0947-5.2021c0.1895-0.0635,0.5186-0.3457,0.6094-0.5234
	l5.6143-18.3594L900.5654,463.3779z M940.5273,474.6533l-0.3125-1.0225v54.7773c0.6484,0,1.0752-0.0752,1.1729-0.1006
	l38.1426-10.5049v-31.7363l-30.6758-4.3037C945.1318,481.2412,941.6289,478.251,940.5273,474.6533z M981.3584,464.6494
	c-0.1904-0.4121-1.0566-1.1494-1.4951-1.2715l-35.8877-9.8867l5.6152,18.3594c0.0898,0.1777,0.4199,0.46,0.6104,0.5234
	l37.0928,5.2021L981.3584,464.6494z"/>
</svg>
