<?xml version="1.0" encoding="utf-8"?>
<!-- Generator: Adobe Illustrator 15.0.0, SVG Export Plug-In . SVG Version: 6.00 Build 0)  -->
<!DOCTYPE svg PUBLIC "-//W3C//DTD SVG 1.1//EN" "http://www.w3.org/Graphics/SVG/1.1/DTD/svg11.dtd">
<svg version="1.1" id="Layer_1" xmlns="http://www.w3.org/2000/svg" xmlns:xlink="http://www.w3.org/1999/xlink" x="0px" y="0px"
	 width="1152px" height="1152.001px" viewBox="0 0 1152 1152.001" enable-background="new 0 0 1152 1152.001" xml:space="preserve">
<circle fill="#4B5666" cx="576" cy="576" r="576"/>
<g>
	<path fill="#FBD35C" d="M188.2964,188.29c214.2964-214.2959,561.1108-214.293,775.4106,0.0078L576.0049,575.999L188.2964,188.29z"
		/>
</g>
<g>
	<path fill="#A4D970" d="M963.71,188.293c214.2979,214.2979,214.293,561.1104-0.0068,775.4092L576.002,576.001L963.71,188.293z"/>
</g>
<g>
	<path fill="#9EBEED" d="M963.7031,963.709c-214.2959,214.2988-561.1104,214.293-775.4102-0.0068L575.9951,576.001L963.7031,963.709
		z"/>
</g>
<g>
	<path fill="#FA7977" d="M188.2896,963.707c-214.2959-214.2979-214.2925-561.1104,0.0068-775.4092L575.999,575.999L188.2896,963.707
		z"/>
</g>
<circle fill="#4B5666" cx="576" cy="576" r="194.6777"/>
<g>
	<path fill="#FFFFFF" d="M466.7227,560.9141l-15.0771-39.3945h-0.2432c0.2842,3.1211,0.4258,6.8301,0.4258,11.127v28.2676h-4.7725
		v-44.4395h7.7822l14.0732,36.6582h0.2432l14.1953-36.6582h7.7207v44.4395h-5.167v-28.6328c0-3.2832,0.1416-6.8496,0.4258-10.6992
		h-0.2432l-15.1992,39.332H466.7227z"/>
	<path fill="#FFFFFF" d="M541.833,538.6328c0,7.1133-1.7988,12.707-5.3955,16.7793c-3.5977,4.0742-8.5977,6.1113-15.001,6.1113
		c-6.5459,0-11.5967-2.002-15.1533-6.0039c-3.5557-4.002-5.334-9.6523-5.334-16.9473c0-7.2344,1.7832-12.8418,5.3496-16.8242
		s8.6328-5.9727,15.1982-5.9727c6.3838,0,11.3682,2.0273,14.9551,6.0801S541.833,531.5,541.833,538.6328z M506.4209,538.6328
		c0,6.0195,1.2812,10.584,3.8447,13.6953c2.5635,3.1094,6.2871,4.666,11.1709,4.666c4.9238,0,8.6426-1.5508,11.1553-4.6523
		c2.5127-3.0996,3.7695-7.6699,3.7695-13.709c0-5.9766-1.252-10.5117-3.7539-13.6016c-2.5029-3.0898-6.2061-4.6348-11.1104-4.6348
		c-4.9238,0-8.668,1.5547-11.2314,4.666C507.7021,528.1719,506.4209,532.6973,506.4209,538.6328z"/>
	<path fill="#FFFFFF" d="M587.2148,538.2695c0,7.3359-1.9912,12.9434-5.9736,16.8242c-3.9814,3.8809-9.7109,5.8203-17.1885,5.8203
		h-12.3115v-44.4395h13.6182c6.9102,0,12.2803,1.9141,16.1104,5.7441S587.2148,531.3984,587.2148,538.2695z M581.7432,538.4512
		c0-5.7949-1.4541-10.1621-4.3623-13.1016c-2.9082-2.9375-7.2295-4.4062-12.9639-4.4062h-7.5078v35.502h6.292
		c6.1602,0,10.791-1.5137,13.8916-4.543S581.7432,544.3887,581.7432,538.4512z"/>
	<path fill="#FFFFFF" d="M621.8975,560.9141H597.124v-44.4395h24.7734v4.5898H602.292v14.3164h18.4199v4.5605H602.292v16.3535
		h19.6055V560.9141z"/>
	<path fill="#FFFFFF" d="M636.9141,542.4336v18.4805h-5.168v-44.4395h12.1895c5.4512,0,9.4785,1.043,12.083,3.1309
		c2.6035,2.0879,3.9053,5.2285,3.9053,9.4238c0,5.877-2.9785,9.8477-8.9365,11.9141l12.0674,19.9707h-6.1094l-10.7607-18.4805
		H636.9141z M636.9141,537.9961h7.082c3.6475,0,6.3232-0.7246,8.0254-2.1738s2.5527-3.623,2.5527-6.5195
		c0-2.9395-0.8662-5.0566-2.5986-6.3535s-4.5137-1.9453-8.3438-1.9453h-6.7178V537.9961z"/>
	<path fill="#FFFFFF" d="M704.9424,560.9141h-5.8975l-24.2871-37.2969h-0.2432c0.3242,4.377,0.4863,8.3906,0.4863,12.0371v25.2598
		h-4.7725v-44.4395h5.8369l24.2256,37.1445h0.2432c-0.041-0.5469-0.1318-2.3047-0.2734-5.2734s-0.1924-5.0918-0.1514-6.3691v-25.502
		h4.833V560.9141z"/>
	<path fill="#FFFFFF" d="M525.54,635.6172l-5.5322-14.1348h-17.8125l-5.4707,14.1348h-5.2285l17.5693-44.6211h4.3467
		l17.4785,44.6211H525.54z M518.3975,616.832l-5.168-13.7695c-0.668-1.7422-1.3574-3.8809-2.0664-6.4141
		c-0.4463,1.9453-1.085,4.084-1.915,6.4141l-5.2285,13.7695H518.3975z"/>
	<path fill="#FFFFFF" d="M556.5459,612.334h15.1064v21.6113c-2.3506,0.75-4.7412,1.3184-7.1729,1.7031
		c-2.4326,0.3848-5.249,0.5781-8.4512,0.5781c-6.7275,0-11.9658-2.002-15.7148-6.0039s-5.623-9.6113-5.623-16.8242
		c0-4.6211,0.9268-8.668,2.7812-12.1445c1.8545-3.4746,4.5234-6.1289,8.0098-7.9629c3.4844-1.834,7.5684-2.752,12.249-2.752
		c4.7422,0,9.1602,0.8711,13.2539,2.6152l-2.0068,4.5586c-4.0117-1.7031-7.8721-2.5527-11.5811-2.5527
		c-5.4102,0-9.6357,1.6113-12.6758,4.832c-3.0391,3.2227-4.5586,7.6914-4.5586,13.4062c0,5.998,1.4629,10.5469,4.3916,13.6465
		c2.9287,3.1016,7.2295,4.6523,12.9033,4.6523c3.0801,0,6.0898-0.3555,9.0283-1.0645v-13.6797h-9.9395V612.334z"/>
	<path fill="#FFFFFF" d="M582.3213,635.6172v-44.4395h5.168v44.4395H582.3213z"/>
	<path fill="#FFFFFF" d="M599.6777,635.6172v-44.4395h5.168v39.7598h19.6055v4.6797H599.6777z"/>
	<path fill="#FFFFFF" d="M656.7627,635.6172h-24.7734v-44.4395h24.7734v4.5898h-19.6055v14.3164h18.4199v4.5605h-18.4199v16.3535
		h19.6055V635.6172z"/>
</g>
<g>
	<path fill="#4B5666" d="M401.0986,251.6055h-5.332l-5.0859-17.8828c-0.2188-0.7793-0.4922-1.9033-0.8203-3.373
		s-0.5273-2.4922-0.5957-3.0664c-0.1367,0.875-0.3574,2.0098-0.666,3.4043c-0.3066,1.3945-0.5645,2.4336-0.7695,3.1172
		l-4.9629,17.8008h-5.3315l-3.876-15.0117l-3.9375-14.9707h5.0039l4.2861,17.4727c0.6694,2.8027,1.1479,5.2773,1.4351,7.4238
		c0.1504-1.1621,0.377-2.4609,0.6777-3.8965s0.5742-2.5977,0.8203-3.4863l4.8809-17.5137h4.8594l5.0039,17.5957
		c0.4785,1.627,0.9844,4.0605,1.5176,7.3008c0.2051-1.9551,0.6973-4.4434,1.4766-7.4648l4.2656-17.4316h4.9629L401.0986,251.6055z"
		/>
	<path fill="#4B5666" d="M409.1982,228.9238h5.25l4.6143,12.8584c0.6973,1.832,1.1621,3.5547,1.3945,5.168h0.1641
		c0.123-0.752,0.3486-1.6641,0.6768-2.7373s2.0645-6.1699,5.209-15.2891h5.209l-9.7002,25.6963
		c-1.7637,4.7168-4.7031,7.0752-8.8184,7.0752c-1.0664,0-2.1055-0.1162-3.1172-0.3486v-3.8145
		c0.7246,0.1641,1.5518,0.2461,2.4814,0.2461c2.3242,0,3.958-1.3467,4.9014-4.04l0.8408-2.1328L409.1982,228.9238z"/>
	<path fill="#4B5666" d="M450.3164,251.6055h-17.2061v-2.9736l11.4639-16.0166h-10.7666v-3.6914h16.1807v3.3633l-11.2178,15.627
		h11.5459V251.6055z"/>
	<path fill="#4B5666" d="M473.8398,251.6055l-2.9326-10.582c-0.3555-1.1211-0.998-3.7256-1.9277-7.8135h-0.1846
		c-0.793,3.6914-1.4219,6.3096-1.8867,7.8545l-3.0146,10.541h-5.332l-6.3574-22.6816h4.9219l2.8916,11.1768
		c0.6562,2.7617,1.1211,5.127,1.3945,7.0957h0.123c0.1367-0.998,0.3447-2.1436,0.626-3.4346
		c0.2793-1.293,0.5225-2.2598,0.7275-2.9023l3.4453-11.9355h5.291l3.3428,11.9355c0.2051,0.6699,0.4609,1.6953,0.7695,3.0762
		c0.3066,1.3809,0.4883,2.4541,0.543,3.2197h0.1641c0.2051-1.6816,0.6836-4.0332,1.4355-7.0547l2.9326-11.1768h4.8398
		l-6.3984,22.6816H473.8398z"/>
	<path fill="#4B5666" d="M503.7393,251.6055l-0.9639-3.1582h-0.1641c-1.0938,1.3809-2.1943,2.3213-3.3018,2.8203
		c-1.1074,0.498-2.5293,0.748-4.2656,0.748c-2.2285,0-3.9688-0.6016-5.2188-1.8047c-1.252-1.2031-1.877-2.9053-1.877-5.1064
		c0-2.3379,0.8682-4.1016,2.6045-5.291s4.3818-1.8389,7.9365-1.9482l3.917-0.123v-1.21c0-1.4492-0.3389-2.5322-1.0146-3.251
		c-0.6777-0.7168-1.7266-1.0762-3.1484-1.0762c-1.1621,0-2.2764,0.1709-3.3428,0.5127s-2.0918,0.7451-3.0762,1.21l-1.5586-3.4453
		c1.2305-0.6426,2.5771-1.1309,4.04-1.4668c1.4629-0.334,2.8438-0.502,4.1426-0.502c2.8848,0,5.0615,0.6289,6.5312,1.8867
		s2.2051,3.2334,2.2051,5.9268v15.2783H503.7393z M496.5615,248.3242c1.75,0,3.1543-0.4883,4.2148-1.4668
		c1.0586-0.9766,1.5889-2.3477,1.5889-4.1113v-1.9688l-2.9121,0.123c-2.2695,0.082-3.9209,0.4609-4.9521,1.1387
		c-1.0332,0.6758-1.5488,1.7119-1.5488,3.1064c0,1.0117,0.3008,1.7939,0.9023,2.3486
		C494.4561,248.0469,495.3584,248.3242,496.5615,248.3242z"/>
	<path fill="#4B5666" d="M518.7305,251.6055h-4.8193v-31.9102h4.8193V251.6055z"/>
	<path fill="#4B5666" d="M539.8135,251.6055l-0.9639-3.1582h-0.1641c-1.0938,1.3809-2.1943,2.3213-3.3018,2.8203
		c-1.1074,0.498-2.5293,0.748-4.2656,0.748c-2.2285,0-3.9688-0.6016-5.2188-1.8047c-1.252-1.2031-1.877-2.9053-1.877-5.1064
		c0-2.3379,0.8682-4.1016,2.6045-5.291s4.3818-1.8389,7.9365-1.9482l3.917-0.123v-1.21c0-1.4492-0.3389-2.5322-1.0146-3.251
		c-0.6777-0.7168-1.7266-1.0762-3.1484-1.0762c-1.1621,0-2.2764,0.1709-3.3428,0.5127s-2.0918,0.7451-3.0762,1.21l-1.5586-3.4453
		c1.2305-0.6426,2.5771-1.1309,4.04-1.4668c1.4629-0.334,2.8438-0.502,4.1426-0.502c2.8848,0,5.0615,0.6289,6.5312,1.8867
		s2.2051,3.2334,2.2051,5.9268v15.2783H539.8135z M532.6357,248.3242c1.75,0,3.1543-0.4883,4.2148-1.4668
		c1.0586-0.9766,1.5889-2.3477,1.5889-4.1113v-1.9688l-2.9121,0.123c-2.2695,0.082-3.9209,0.4609-4.9521,1.1387
		c-1.0332,0.6758-1.5488,1.7119-1.5488,3.1064c0,1.0117,0.3008,1.7939,0.9023,2.3486
		C530.5303,248.0469,531.4326,248.3242,532.6357,248.3242z"/>
	<path fill="#4B5666" d="M547.668,261.6953c-1.4492,0-2.6523-0.1709-3.6094-0.5127v-3.8145
		c0.9297,0.2461,1.8799,0.3691,2.8506,0.3691c2.0508,0,3.0762-1.1621,3.0762-3.4863v-25.3271h4.8193v25.6553
		c0,2.3379-0.6123,4.1084-1.835,5.3115C551.7451,261.0938,549.9785,261.6953,547.668,261.6953z M549.6982,222.915
		c0-0.8613,0.2363-1.5244,0.707-1.9893c0.4727-0.4648,1.1455-0.6973,2.0205-0.6973c0.8477,0,1.5068,0.2324,1.9795,0.6973
		c0.4707,0.4648,0.707,1.1279,0.707,1.9893c0,0.8203-0.2363,1.4658-0.707,1.9385c-0.4727,0.4707-1.1318,0.707-1.9795,0.707
		c-0.875,0-1.5479-0.2363-2.0205-0.707C549.9346,224.3809,549.6982,223.7354,549.6982,222.915z"/>
	<path fill="#4B5666" d="M591.2051,251.6055l-2.9326-10.582c-0.3555-1.1211-0.998-3.7256-1.9277-7.8135h-0.1846
		c-0.793,3.6914-1.4219,6.3096-1.8867,7.8545l-3.0146,10.541h-5.332l-6.3574-22.6816h4.9219l2.8916,11.1768
		c0.6562,2.7617,1.1211,5.127,1.3945,7.0957h0.123c0.1367-0.998,0.3447-2.1436,0.626-3.4346
		c0.2793-1.293,0.5225-2.2598,0.7275-2.9023l3.4453-11.9355h5.291l3.3428,11.9355c0.2051,0.6699,0.4609,1.6953,0.7695,3.0762
		c0.3066,1.3809,0.4883,2.4541,0.543,3.2197h0.1641c0.2051-1.6816,0.6836-4.0332,1.4355-7.0547l2.9326-11.1768h4.8398
		l-6.3984,22.6816H591.2051z"/>
	<path fill="#4B5666" d="M622.6445,251.6055h-4.8193v-31.9102h4.8193V251.6055z"/>
	<path fill="#4B5666" d="M645.5303,251.6055l-0.6768-2.9736h-0.2461c-0.6699,1.0527-1.624,1.8799-2.8604,2.4814
		c-1.2383,0.6016-2.6494,0.9023-4.2354,0.9023c-2.748,0-4.7988-0.6836-6.1523-2.0508s-2.0303-3.4385-2.0303-6.2139v-14.8271h4.8604
		v13.9863c0,1.7363,0.3555,3.0391,1.0664,3.9062c0.7109,0.8691,1.8252,1.3027,3.3428,1.3027c2.0234,0,3.5098-0.6055,4.4609-1.8145
		c0.9492-1.2109,1.4248-3.2373,1.4248-6.0811v-11.2998h4.8398v22.6816H645.5303z"/>
	<path fill="#4B5666" d="M663.8438,252.0156c-2.8301,0-5.0381-1.0254-6.624-3.0762s-2.3789-4.9287-2.3789-8.6338
		c0-3.7188,0.8027-6.6143,2.4102-8.6846c1.6055-2.0723,3.8311-3.1074,6.6748-3.1074c2.9805,0,5.25,1.1006,6.8086,3.3018h0.2461
		c-0.2324-1.627-0.3486-2.9121-0.3486-3.8555v-8.2646h4.8398v31.9102h-3.7734l-0.8408-2.9736h-0.2256
		C669.0869,250.8877,666.8242,252.0156,663.8438,252.0156z M665.1357,248.1191c1.9824,0,3.4248-0.5566,4.3271-1.6719
		c0.9023-1.1133,1.3672-2.9219,1.3945-5.4238v-0.6768c0-2.8574-0.4648-4.8877-1.3945-6.0908s-2.3857-1.8047-4.3682-1.8047
		c-1.6953,0-3.001,0.6875-3.917,2.0605c-0.916,1.375-1.374,3.333-1.374,5.876c0,2.5156,0.4443,4.4336,1.333,5.7529
		S663.3584,248.1191,665.1357,248.1191z"/>
	<path fill="#4B5666" d="M697.5176,251.6055h-17.2061v-2.9736l11.4639-16.0166h-10.7666v-3.6914h16.1807v3.3633l-11.2178,15.627
		h11.5459V251.6055z"/>
	<path fill="#4B5666" d="M702.1533,222.915c0-0.8613,0.2363-1.5244,0.707-1.9893c0.4727-0.4648,1.1455-0.6973,2.0205-0.6973
		c0.8477,0,1.5068,0.2324,1.9795,0.6973c0.4707,0.4648,0.707,1.1279,0.707,1.9893c0,0.8203-0.2363,1.4658-0.707,1.9385
		c-0.4727,0.4707-1.1318,0.707-1.9795,0.707c-0.875,0-1.5479-0.2363-2.0205-0.707
		C702.3896,224.3809,702.1533,223.7354,702.1533,222.915z M707.2598,251.6055h-4.8193v-22.6816h4.8193V251.6055z"/>
	<path fill="#4B5666" d="M728.3408,251.6055l-0.9639-3.1582h-0.1641c-1.0938,1.3809-2.1943,2.3213-3.3018,2.8203
		c-1.1074,0.498-2.5293,0.748-4.2656,0.748c-2.2285,0-3.9688-0.6016-5.2188-1.8047c-1.252-1.2031-1.877-2.9053-1.877-5.1064
		c0-2.3379,0.8682-4.1016,2.6045-5.291s4.3818-1.8389,7.9365-1.9482l3.917-0.123v-1.21c0-1.4492-0.3389-2.5322-1.0146-3.251
		c-0.6777-0.7168-1.7266-1.0762-3.1484-1.0762c-1.1621,0-2.2764,0.1709-3.3428,0.5127s-2.0918,0.7451-3.0762,1.21l-1.5586-3.4453
		c1.2305-0.6426,2.5771-1.1309,4.04-1.4668c1.4629-0.334,2.8438-0.502,4.1426-0.502c2.8848,0,5.0615,0.6289,6.5312,1.8867
		s2.2051,3.2334,2.2051,5.9268v15.2783H728.3408z M721.1631,248.3242c1.75,0,3.1543-0.4883,4.2148-1.4668
		c1.0586-0.9766,1.5889-2.3477,1.5889-4.1113v-1.9688l-2.9121,0.123c-2.2695,0.082-3.9209,0.4609-4.9521,1.1387
		c-1.0332,0.6758-1.5488,1.7119-1.5488,3.1064c0,1.0117,0.3008,1.7939,0.9023,2.3486
		C719.0576,248.0469,719.96,248.3242,721.1631,248.3242z"/>
	<path fill="#4B5666" d="M747.6592,252.0156c-3.4316,0-6.0391-1.001-7.8242-3.0039c-1.7832-2.0029-2.6758-4.8779-2.6758-8.624
		c0-3.8145,0.9336-6.7471,2.7988-8.7979c1.8672-2.0508,4.5635-3.0762,8.0908-3.0762c2.3926,0,4.5459,0.4443,6.46,1.333
		l-1.4561,3.876c-2.0371-0.793-3.7188-1.1895-5.0449-1.1895c-3.9238,0-5.8857,2.6045-5.8857,7.8135
		c0,2.543,0.4883,4.4541,1.4668,5.7314c0.9766,1.2793,2.4092,1.918,4.2959,1.918c2.1465,0,4.1768-0.5332,6.0908-1.5996v4.2041
		c-0.8613,0.5059-1.7812,0.8682-2.7578,1.0869C750.2393,251.9062,749.0537,252.0156,747.6592,252.0156z"/>
	<path fill="#4B5666" d="M779.2617,251.6055h-4.8398v-13.9453c0-1.75-0.3525-3.0557-1.0557-3.917
		c-0.7051-0.8613-1.8223-1.292-3.3535-1.292c-2.0234,0-3.5107,0.6055-4.4609,1.8145c-0.9502,1.2109-1.4248,3.2373-1.4248,6.0811
		v11.2588h-4.8193v-31.9102h4.8193v8.1006c0,1.2988-0.082,2.6865-0.2461,4.1631h0.3076c0.6562-1.0938,1.5684-1.9414,2.7383-2.543
		c1.168-0.6016,2.5322-0.9023,4.0908-0.9023c5.4961,0,8.2441,2.7686,8.2441,8.3057V251.6055z"/>
	<path fill="#4B5666" d="M474.3926,302.0059l-2.9326-10.582c-0.3555-1.1211-0.998-3.7256-1.9277-7.8135h-0.1846
		c-0.793,3.6914-1.4219,6.3096-1.8867,7.8545l-3.0146,10.541h-5.332l-6.3574-22.6816h4.9219l2.8916,11.1768
		c0.6562,2.7617,1.1211,5.127,1.3945,7.0957h0.123c0.1367-0.998,0.3447-2.1436,0.626-3.4346
		c0.2793-1.293,0.5225-2.2598,0.7275-2.9023l3.4453-11.9355h5.291l3.3428,11.9355c0.2051,0.6699,0.4609,1.6953,0.7695,3.0762
		c0.3066,1.3809,0.4883,2.4541,0.543,3.2197h0.1641c0.2051-1.6816,0.6836-4.0332,1.4355-7.0547l2.9326-11.1768h4.8398
		l-6.3984,22.6816H474.3926z"/>
	<path fill="#4B5666" d="M505.3389,295.5459c0,2.2148-0.8066,3.9141-2.4199,5.0967s-3.9238,1.7734-6.9316,1.7734
		c-3.0215,0-5.4482-0.458-7.2803-1.374v-4.1631c2.666,1.2305,5.1475,1.8457,7.4443,1.8457c2.9668,0,4.4502-0.8955,4.4502-2.6865
		c0-0.5742-0.1641-1.0527-0.4922-1.4355s-0.8682-0.7793-1.6201-1.1895s-1.7979-0.875-3.1377-1.3945
		c-2.6113-1.0117-4.3789-2.0234-5.3008-3.0352c-0.9238-1.0117-1.3848-2.3242-1.3848-3.9375c0-1.9414,0.7822-3.4482,2.3477-4.5225
		c1.5654-1.0723,3.6953-1.6094,6.3887-1.6094c2.666,0,5.1885,0.54,7.5674,1.6201l-1.5586,3.6299
		c-2.4473-1.0117-4.5049-1.5176-6.1729-1.5176c-2.543,0-3.8145,0.7246-3.8145,2.1738c0,0.7109,0.3311,1.3125,0.9941,1.8047
		s2.1094,1.1689,4.3379,2.0303c1.873,0.7246,3.2334,1.3877,4.0811,1.9893s1.4766,1.2959,1.8867,2.082
		S505.3389,294.4521,505.3389,295.5459z"/>
	<path fill="#4B5666" d="M522.0527,302.416c-2.8711,0-5.0996-1.0322-6.6855-3.0967h-0.2871
		c0.1914,1.9141,0.2871,3.0762,0.2871,3.4863v9.29h-4.8193v-32.7715h3.8965c0.1094,0.4238,0.335,1.4355,0.6768,3.0352h0.2461
		c1.5039-2.2969,3.7598-3.4453,6.7676-3.4453c2.8301,0,5.0342,1.0254,6.6143,3.0762c1.5781,2.0508,2.3682,4.9287,2.3682,8.6338
		s-0.8037,6.5967-2.4092,8.6748C527.1006,301.377,524.8828,302.416,522.0527,302.416z M520.8838,282.8516
		c-1.9141,0-3.3125,0.5605-4.1934,1.6816c-0.8828,1.1211-1.3232,2.9121-1.3232,5.373v0.7178c0,2.7617,0.4375,4.7617,1.3125,5.999
		s2.3037,1.8555,4.2861,1.8555c1.668,0,2.9531-0.6836,3.8555-2.0508s1.3535-3.3154,1.3535-5.8447
		c0-2.543-0.4482-4.4668-1.3438-5.7725S522.6201,282.8516,520.8838,282.8516z"/>
	<path fill="#4B5666" d="M550.9072,302.0059l-0.9639-3.1582h-0.1641c-1.0938,1.3809-2.1943,2.3213-3.3018,2.8203
		c-1.1074,0.498-2.5293,0.748-4.2656,0.748c-2.2285,0-3.9688-0.6016-5.2188-1.8047c-1.252-1.2031-1.877-2.9053-1.877-5.1064
		c0-2.3379,0.8682-4.1016,2.6045-5.291s4.3818-1.8389,7.9365-1.9482l3.917-0.123v-1.21c0-1.4492-0.3389-2.5322-1.0146-3.251
		c-0.6777-0.7168-1.7266-1.0762-3.1484-1.0762c-1.1621,0-2.2764,0.1709-3.3428,0.5127s-2.0918,0.7451-3.0762,1.21l-1.5586-3.4453
		c1.2305-0.6426,2.5771-1.1309,4.04-1.4668c1.4629-0.334,2.8438-0.502,4.1426-0.502c2.8848,0,5.0615,0.6289,6.5312,1.8867
		s2.2051,3.2334,2.2051,5.9268v15.2783H550.9072z M543.7295,298.7246c1.75,0,3.1543-0.4883,4.2148-1.4668
		c1.0586-0.9766,1.5889-2.3477,1.5889-4.1113v-1.9688l-2.9121,0.123c-2.2695,0.082-3.9209,0.4609-4.9521,1.1387
		c-1.0332,0.6758-1.5488,1.7119-1.5488,3.1064c0,1.0117,0.3008,1.7939,0.9023,2.3486
		C541.624,298.4473,542.5264,298.7246,543.7295,298.7246z"/>
	<path fill="#4B5666" d="M581.0332,302.0059h-4.8398v-13.9453c0-1.75-0.3525-3.0557-1.0557-3.917
		c-0.7051-0.8613-1.8223-1.292-3.3535-1.292c-2.0371,0-3.5273,0.6016-4.4707,1.8047s-1.415,3.2197-1.415,6.0498v11.2998h-4.8193
		v-22.6816h3.7734l0.6768,2.9736h0.2461c0.6836-1.0801,1.6543-1.9141,2.9121-2.502s2.6523-0.8818,4.1836-0.8818
		c5.4414,0,8.1621,2.7686,8.1621,8.3057V302.0059z"/>
	<path fill="#4B5666" d="M587.4521,273.3154c0-0.8613,0.2363-1.5244,0.707-1.9893c0.4727-0.4648,1.1455-0.6973,2.0205-0.6973
		c0.8477,0,1.5068,0.2324,1.9795,0.6973c0.4707,0.4648,0.707,1.1279,0.707,1.9893c0,0.8203-0.2363,1.4658-0.707,1.9385
		c-0.4727,0.4707-1.1318,0.707-1.9795,0.707c-0.875,0-1.5479-0.2363-2.0205-0.707
		C587.6885,274.7812,587.4521,274.1357,587.4521,273.3154z M592.5586,302.0059h-4.8193v-22.6816h4.8193V302.0059z"/>
	<path fill="#4B5666" d="M613.6406,302.0059l-0.9639-3.1582h-0.1641c-1.0938,1.3809-2.1943,2.3213-3.3018,2.8203
		c-1.1074,0.498-2.5293,0.748-4.2656,0.748c-2.2285,0-3.9688-0.6016-5.2188-1.8047c-1.252-1.2031-1.877-2.9053-1.877-5.1064
		c0-2.3379,0.8682-4.1016,2.6045-5.291s4.3818-1.8389,7.9365-1.9482l3.917-0.123v-1.21c0-1.4492-0.3389-2.5322-1.0146-3.251
		c-0.6777-0.7168-1.7266-1.0762-3.1484-1.0762c-1.1621,0-2.2764,0.1709-3.3428,0.5127s-2.0918,0.7451-3.0762,1.21l-1.5586-3.4453
		c1.2305-0.6426,2.5771-1.1309,4.04-1.4668c1.4629-0.334,2.8438-0.502,4.1426-0.502c2.8848,0,5.0615,0.6289,6.5312,1.8867
		s2.2051,3.2334,2.2051,5.9268v15.2783H613.6406z M606.4629,298.7246c1.75,0,3.1543-0.4883,4.2148-1.4668
		c1.0586-0.9766,1.5889-2.3477,1.5889-4.1113v-1.9688l-2.9121,0.123c-2.2695,0.082-3.9209,0.4609-4.9521,1.1387
		c-1.0332,0.6758-1.5488,1.7119-1.5488,3.1064c0,1.0117,0.3008,1.7939,0.9023,2.3486
		C604.3574,298.4473,605.2598,298.7246,606.4629,298.7246z"/>
	<path fill="#4B5666" d="M628.8984,283.6104l2.0918-1.3945l1.9277,3.1582l-4.0195,2.6045v14.0273h-4.8398v-11.0127l-1.8867,1.1895
		l-1.8457-3.1582l3.7324-2.3994v-16.5293h4.8398V283.6104z"/>
	<path fill="#4B5666" d="M656.3174,290.624c0,3.7051-0.9502,6.5967-2.8506,8.6748s-4.5459,3.1172-7.9365,3.1172
		c-2.1191,0-3.9922-0.4785-5.6191-1.4355s-2.8779-2.3311-3.7529-4.1221s-1.3125-3.8691-1.3125-6.2344
		c0-3.6777,0.9434-6.5488,2.8301-8.6133s4.5459-3.0967,7.9775-3.0967c3.2812,0,5.8789,1.0566,7.793,3.168
		C655.3604,284.1953,656.3174,287.042,656.3174,290.624z M639.8086,290.624c0,5.2363,1.9346,7.8545,5.8037,7.8545
		c3.8281,0,5.7422-2.6182,5.7422-7.8545c0-5.1816-1.9277-7.7725-5.7832-7.7725c-2.0234,0-3.4902,0.6699-4.3994,2.0098
		S639.8086,288.1221,639.8086,290.624z"/>
	<path fill="#4B5666" d="M677.0918,295.5459c0,2.2148-0.8066,3.9141-2.4199,5.0967s-3.9238,1.7734-6.9316,1.7734
		c-3.0215,0-5.4482-0.458-7.2803-1.374v-4.1631c2.666,1.2305,5.1475,1.8457,7.4443,1.8457c2.9668,0,4.4502-0.8955,4.4502-2.6865
		c0-0.5742-0.1641-1.0527-0.4922-1.4355s-0.8682-0.7793-1.6201-1.1895s-1.7979-0.875-3.1377-1.3945
		c-2.6113-1.0117-4.3789-2.0234-5.3008-3.0352c-0.9238-1.0117-1.3848-2.3242-1.3848-3.9375c0-1.9414,0.7822-3.4482,2.3477-4.5225
		c1.5654-1.0723,3.6953-1.6094,6.3887-1.6094c2.666,0,5.1885,0.54,7.5674,1.6201l-1.5586,3.6299
		c-2.4473-1.0117-4.5049-1.5176-6.1729-1.5176c-2.543,0-3.8145,0.7246-3.8145,2.1738c0,0.7109,0.3311,1.3125,0.9941,1.8047
		s2.1094,1.1689,4.3379,2.0303c1.873,0.7246,3.2334,1.3877,4.0811,1.9893s1.4766,1.2959,1.8867,2.082
		S677.0918,294.4521,677.0918,295.5459z M665.7305,276.5557v-0.5127c0.7793-0.957,1.582-2.0234,2.4092-3.1992
		s1.4805-2.1807,1.959-3.0146h5.5986v0.4307c-0.7109,0.834-1.7744,1.9111-3.1885,3.2305c-1.416,1.3193-2.6084,2.3408-3.5791,3.0654
		H665.7305z"/>
	<path fill="#4B5666" d="M691.4473,302.416c-3.4316,0-6.0391-1.001-7.8242-3.0039c-1.7832-2.0029-2.6758-4.8779-2.6758-8.624
		c0-3.8145,0.9336-6.7471,2.7988-8.7979c1.8672-2.0508,4.5635-3.0762,8.0908-3.0762c2.3926,0,4.5459,0.4443,6.46,1.333
		l-1.4561,3.876c-2.0371-0.793-3.7188-1.1895-5.0449-1.1895c-3.9238,0-5.8857,2.6045-5.8857,7.8135
		c0,2.543,0.4883,4.4541,1.4668,5.7314c0.9766,1.2793,2.4092,1.918,4.2959,1.918c2.1465,0,4.1768-0.5332,6.0908-1.5996v4.2041
		c-0.8613,0.5059-1.7812,0.8682-2.7578,1.0869C694.0273,302.3066,692.8418,302.416,691.4473,302.416z M688.084,276.5557v-0.5127
		c0.7793-0.957,1.582-2.0234,2.4102-3.1992c0.8262-1.1758,1.4795-2.1807,1.958-3.0146h5.5986v0.4307
		c-0.7109,0.834-1.7734,1.9111-3.1895,3.2305c-1.4141,1.3193-2.6074,2.3408-3.5781,3.0654H688.084z"/>
</g>
<g>
	<path fill="#4B5666" d="M418.1504,994.7217h-6.0088l-14.7451-23.8916h-0.1641l0.1025,1.333
		c0.1914,2.543,0.2871,4.8672,0.2871,6.9727v15.5859h-4.4502v-29.9824h5.9473l14.7041,23.7686h0.123
		c-0.0273-0.3145-0.082-1.459-0.1641-3.4346s-0.123-3.5176-0.123-4.625v-15.709h4.4912V994.7217z"/>
	<path fill="#4B5666" d="M439.7451,994.7217l-0.9639-3.1582h-0.1641c-1.0938,1.3809-2.1943,2.3213-3.3018,2.8203
		c-1.1074,0.498-2.5293,0.748-4.2656,0.748c-2.2285,0-3.9688-0.6016-5.2188-1.8047c-1.252-1.2031-1.877-2.9053-1.877-5.1064
		c0-2.3379,0.8682-4.1016,2.6045-5.291s4.3818-1.8389,7.9365-1.9482l3.917-0.123v-1.21c0-1.4492-0.3389-2.5322-1.0146-3.251
		c-0.6777-0.7168-1.7266-1.0762-3.1484-1.0762c-1.1621,0-2.2764,0.1709-3.3428,0.5127s-2.0918,0.7451-3.0762,1.21l-1.5586-3.4453
		c1.2305-0.6426,2.5771-1.1309,4.04-1.4668c1.4629-0.334,2.8438-0.502,4.1426-0.502c2.8848,0,5.0615,0.6289,6.5312,1.8867
		s2.2051,3.2334,2.2051,5.9268v15.2783H439.7451z M432.5674,991.4404c1.75,0,3.1543-0.4883,4.2148-1.4668
		c1.0586-0.9766,1.5889-2.3477,1.5889-4.1113v-1.9688l-2.9121,0.123c-2.2695,0.082-3.9209,0.4609-4.9521,1.1387
		c-1.0332,0.6758-1.5488,1.7119-1.5488,3.1064c0,1.0117,0.3008,1.7939,0.9023,2.3486
		C430.4619,991.1631,431.3643,991.4404,432.5674,991.4404z"/>
	<path fill="#4B5666" d="M447.5996,1004.8115c-1.4492,0-2.6523-0.1709-3.6094-0.5127v-3.8145
		c0.9297,0.2461,1.8799,0.3691,2.8506,0.3691c2.0508,0,3.0762-1.1621,3.0762-3.4863V972.04h4.8193v25.6553
		c0,2.3379-0.6123,4.1084-1.835,5.3115C451.6768,1004.21,449.9102,1004.8115,447.5996,1004.8115z M449.6299,966.0312
		c0-0.8613,0.2363-1.5244,0.707-1.9893c0.4727-0.4648,1.1455-0.6973,2.0205-0.6973c0.8477,0,1.5068,0.2324,1.9795,0.6973
		c0.4707,0.4648,0.707,1.1279,0.707,1.9893c0,0.8203-0.2363,1.4658-0.707,1.9385c-0.4727,0.4707-1.1318,0.707-1.9795,0.707
		c-0.875,0-1.5479-0.2363-2.0205-0.707C449.8662,967.4971,449.6299,966.8516,449.6299,966.0312z"/>
	<path fill="#4B5666" d="M473.1318,995.1318c-2.8711,0-5.0996-1.0322-6.6855-3.0967h-0.2871
		c0.1914,1.9141,0.2871,3.0762,0.2871,3.4863v9.29h-4.8193V972.04h3.8965c0.1094,0.4238,0.335,1.4355,0.6768,3.0352h0.2461
		c1.5039-2.2969,3.7598-3.4453,6.7676-3.4453c2.8301,0,5.0342,1.0254,6.6143,3.0762c1.5781,2.0508,2.3682,4.9287,2.3682,8.6338
		s-0.8037,6.5967-2.4092,8.6748C478.1797,994.0928,475.9619,995.1318,473.1318,995.1318z M471.9629,975.5674
		c-1.9141,0-3.3125,0.5605-4.1934,1.6816c-0.8828,1.1211-1.3232,2.9121-1.3232,5.373v0.7178c0,2.7617,0.4375,4.7617,1.3125,5.999
		s2.3037,1.8555,4.2861,1.8555c1.668,0,2.9531-0.6836,3.8555-2.0508s1.3535-3.3154,1.3535-5.8447
		c0-2.543-0.4482-4.4668-1.3438-5.7725S473.6992,975.5674,471.9629,975.5674z"/>
	<path fill="#4B5666" d="M487.5078,966.0312c0-0.8613,0.2363-1.5244,0.707-1.9893c0.4727-0.4648,1.1455-0.6973,2.0205-0.6973
		c0.8477,0,1.5068,0.2324,1.9795,0.6973c0.4707,0.4648,0.707,1.1279,0.707,1.9893c0,0.8203-0.2363,1.4658-0.707,1.9385
		c-0.4727,0.4707-1.1318,0.707-1.9795,0.707c-0.875,0-1.5479-0.2363-2.0205-0.707
		C487.7441,967.4971,487.5078,966.8516,487.5078,966.0312z M492.6143,994.7217h-4.8193V972.04h4.8193V994.7217z"/>
	<path fill="#4B5666" d="M509.4102,995.1318c-3.5273,0-6.2861-1.0283-8.2744-3.0859c-1.9902-2.0576-2.9844-4.8916-2.9844-8.501
		c0-3.7051,0.9229-6.6172,2.7686-8.7363s4.3818-3.1787,7.6084-3.1787c2.9941,0,5.3594,0.9092,7.0957,2.7275
		s2.6045,4.3203,2.6045,7.5059v2.6045h-15.1143c0.0684,2.2012,0.6631,3.8936,1.7842,5.0762s2.7002,1.7734,4.7373,1.7734
		c1.3398,0,2.5869-0.126,3.7422-0.3789s2.3965-0.6738,3.7227-1.2617v3.917c-1.1758,0.5605-2.3652,0.957-3.5684,1.1895
		S510.9551,995.1318,509.4102,995.1318z M508.5283,975.2803c-1.5312,0-2.7578,0.4854-3.6816,1.4561
		c-0.9219,0.9707-1.4727,2.3857-1.6504,4.2451h10.2949c-0.0273-1.873-0.4785-3.291-1.3535-4.2559
		C511.2627,975.7627,510.0596,975.2803,508.5283,975.2803z"/>
	<path fill="#4B5666" d="M535.209,971.6299c0.9707,0,1.7705,0.0684,2.3994,0.2051l-0.4717,4.4912
		c-0.6836-0.1641-1.3945-0.2461-2.1328-0.2461c-1.9277,0-3.4902,0.6289-4.6865,1.8867s-1.7939,2.8916-1.7939,4.9014v11.8535h-4.8193
		V972.04h3.7734l0.6357,3.999h0.2461c0.752-1.3535,1.7334-2.4268,2.9424-3.2197
		C532.5127,972.0264,533.8145,971.6299,535.209,971.6299z"/>
	<path fill="#4B5666" d="M560.4131,994.7217l-2.9326-10.582c-0.3555-1.1211-0.998-3.7256-1.9277-7.8135h-0.1846
		c-0.793,3.6914-1.4219,6.3096-1.8867,7.8545l-3.0146,10.541h-5.332l-6.3574-22.6816h4.9219l2.8916,11.1768
		c0.6562,2.7617,1.1211,5.127,1.3945,7.0957h0.123c0.1367-0.998,0.3447-2.1436,0.626-3.4346
		c0.2793-1.293,0.5225-2.2598,0.7275-2.9023l3.4453-11.9355h5.291l3.3428,11.9355c0.2051,0.6699,0.4609,1.6953,0.7695,3.0762
		c0.3066,1.3809,0.4883,2.4541,0.543,3.2197h0.1641c0.2051-1.6816,0.6836-4.0332,1.4355-7.0547l2.9326-11.1768h4.8398
		l-6.3984,22.6816H560.4131z"/>
	<path fill="#4B5666" d="M602.1875,994.7217h-17.2061v-2.9736l11.4639-16.0166h-10.7666V972.04h16.1807v3.3633l-11.2178,15.627
		h11.5459V994.7217z"/>
	<path fill="#4B5666" d="M621.3008,994.7217l-0.9639-3.1582h-0.1641c-1.0938,1.3809-2.1943,2.3213-3.3018,2.8203
		c-1.1074,0.498-2.5293,0.748-4.2656,0.748c-2.2285,0-3.9688-0.6016-5.2188-1.8047c-1.252-1.2031-1.877-2.9053-1.877-5.1064
		c0-2.3379,0.8682-4.1016,2.6045-5.291s4.3818-1.8389,7.9365-1.9482l3.917-0.123v-1.21c0-1.4492-0.3389-2.5322-1.0146-3.251
		c-0.6777-0.7168-1.7266-1.0762-3.1484-1.0762c-1.1621,0-2.2764,0.1709-3.3428,0.5127s-2.0918,0.7451-3.0762,1.21l-1.5586-3.4453
		c1.2305-0.6426,2.5771-1.1309,4.04-1.4668c1.4629-0.334,2.8438-0.502,4.1426-0.502c2.8848,0,5.0615,0.6289,6.5312,1.8867
		s2.2051,3.2334,2.2051,5.9268v15.2783H621.3008z M614.123,991.4404c1.75,0,3.1543-0.4883,4.2148-1.4668
		c1.0586-0.9766,1.5889-2.3477,1.5889-4.1113v-1.9688l-2.9121,0.123c-2.2695,0.082-3.9209,0.4609-4.9521,1.1387
		c-1.0332,0.6758-1.5488,1.7119-1.5488,3.1064c0,1.0117,0.3008,1.7939,0.9023,2.3486
		C612.0176,991.1631,612.9199,991.4404,614.123,991.4404z"/>
	<path fill="#4B5666" d="M642.9775,995.1318c-2.8711,0-5.0996-1.0322-6.6855-3.0967h-0.2871
		c0.1914,1.9141,0.2871,3.0762,0.2871,3.4863v9.29h-4.8193V972.04h3.8965c0.1094,0.4238,0.335,1.4355,0.6768,3.0352h0.2461
		c1.5039-2.2969,3.7598-3.4453,6.7676-3.4453c2.8301,0,5.0342,1.0254,6.6143,3.0762c1.5781,2.0508,2.3682,4.9287,2.3682,8.6338
		s-0.8037,6.5967-2.4092,8.6748C648.0254,994.0928,645.8076,995.1318,642.9775,995.1318z M641.8086,975.5674
		c-1.9141,0-3.3125,0.5605-4.1934,1.6816c-0.8828,1.1211-1.3232,2.9121-1.3232,5.373v0.7178c0,2.7617,0.4375,4.7617,1.3125,5.999
		s2.3037,1.8555,4.2861,1.8555c1.668,0,2.9531-0.6836,3.8555-2.0508s1.3535-3.3154,1.3535-5.8447
		c0-2.543-0.4482-4.4668-1.3438-5.7725S643.5449,975.5674,641.8086,975.5674z"/>
	<path fill="#4B5666" d="M667.5459,995.1318c-3.5273,0-6.2861-1.0283-8.2744-3.0859c-1.9902-2.0576-2.9844-4.8916-2.9844-8.501
		c0-3.7051,0.9229-6.6172,2.7686-8.7363s4.3818-3.1787,7.6084-3.1787c2.9941,0,5.3594,0.9092,7.0957,2.7275
		s2.6045,4.3203,2.6045,7.5059v2.6045H661.25c0.0684,2.2012,0.6631,3.8936,1.7842,5.0762s2.7002,1.7734,4.7373,1.7734
		c1.3398,0,2.5869-0.126,3.7422-0.3789s2.3965-0.6738,3.7227-1.2617v3.917c-1.1758,0.5605-2.3652,0.957-3.5684,1.1895
		S669.0908,995.1318,667.5459,995.1318z M666.6641,975.2803c-1.5312,0-2.7578,0.4854-3.6816,1.4561
		c-0.9219,0.9707-1.4727,2.3857-1.6504,4.2451h10.2949c-0.0273-1.873-0.4785-3.291-1.3535-4.2559
		C669.3984,975.7627,668.1953,975.2803,666.6641,975.2803z"/>
	<path fill="#4B5666" d="M700.4404,994.7217l-2.9326-10.582c-0.3555-1.1211-0.998-3.7256-1.9277-7.8135h-0.1846
		c-0.793,3.6914-1.4219,6.3096-1.8867,7.8545l-3.0146,10.541h-5.332l-6.3574-22.6816h4.9219l2.8916,11.1768
		c0.6562,2.7617,1.1211,5.127,1.3945,7.0957h0.123c0.1367-0.998,0.3447-2.1436,0.626-3.4346
		c0.2793-1.293,0.5225-2.2598,0.7275-2.9023l3.4453-11.9355h5.291l3.3428,11.9355c0.2051,0.6699,0.4609,1.6953,0.7695,3.0762
		c0.3066,1.3809,0.4883,2.4541,0.543,3.2197h0.1641c0.2051-1.6816,0.6836-4.0332,1.4355-7.0547l2.9326-11.1768h4.8398
		l-6.3984,22.6816H700.4404z"/>
	<path fill="#4B5666" d="M736.1035,994.7217h-4.8398v-13.9453c0-1.75-0.3525-3.0557-1.0557-3.917
		c-0.7051-0.8613-1.8223-1.292-3.3535-1.292c-2.0371,0-3.5273,0.6016-4.4707,1.8047s-1.415,3.2197-1.415,6.0498v11.2998h-4.8193
		V972.04h3.7734l0.6768,2.9736h0.2461c0.6836-1.0801,1.6543-1.9141,2.9121-2.502s2.6523-0.8818,4.1836-0.8818
		c5.4414,0,8.1621,2.7686,8.1621,8.3057V994.7217z"/>
	<path fill="#4B5666" d="M742.5225,966.0312c0-0.8613,0.2363-1.5244,0.707-1.9893c0.4727-0.4648,1.1455-0.6973,2.0205-0.6973
		c0.8477,0,1.5068,0.2324,1.9795,0.6973c0.4707,0.4648,0.707,1.1279,0.707,1.9893c0,0.8203-0.2363,1.4658-0.707,1.9385
		c-0.4727,0.4707-1.1318,0.707-1.9795,0.707c-0.875,0-1.5479-0.2363-2.0205-0.707
		C742.7588,967.4971,742.5225,966.8516,742.5225,966.0312z M747.6289,994.7217h-4.8193V972.04h4.8193V994.7217z"/>
	<path fill="#4B5666" d="M752.2021,1004.8115c-1.4492,0-2.6523-0.1709-3.6094-0.5127v-3.8145
		c0.9297,0.2461,1.8799,0.3691,2.8506,0.3691c2.0508,0,3.0762-1.1621,3.0762-3.4863V972.04h4.8193v25.6553
		c0,2.3379-0.6123,4.1084-1.835,5.3115C756.2793,1004.21,754.5127,1004.8115,752.2021,1004.8115z M754.2324,966.0312
		c0-0.8613,0.2363-1.5244,0.707-1.9893c0.4727-0.4648,1.1455-0.6973,2.0205-0.6973c0.8477,0,1.5068,0.2324,1.9795,0.6973
		c0.4707,0.4648,0.707,1.1279,0.707,1.9893c0,0.8203-0.2363,1.4658-0.707,1.9385c-0.4727,0.4707-1.1318,0.707-1.9795,0.707
		c-0.875,0-1.5479-0.2363-2.0205-0.707C754.4688,967.4971,754.2324,966.8516,754.2324,966.0312z"/>
	<path fill="#4B5666" d="M430.4453,1022.0303c2.8301,0,5.0342,1.0254,6.6143,3.0762c1.5781,2.0508,2.3682,4.9287,2.3682,8.6338
		c0,3.7188-0.7998,6.6143-2.3994,8.6846c-1.5996,2.0723-3.8213,3.1074-6.665,3.1074c-2.8711,0-5.0996-1.0322-6.6855-3.0967h-0.3281
		l-0.8818,2.6865h-3.6094v-31.9102h4.8193v7.5879c0,0.5605-0.0273,1.3945-0.082,2.502s-0.0957,1.8115-0.123,2.1123h0.2051
		C425.209,1023.1582,427.4648,1022.0303,430.4453,1022.0303z M429.1943,1025.9678c-1.9414,0-3.3398,0.5713-4.1934,1.7129
		c-0.8555,1.1416-1.2959,3.0518-1.3232,5.7314v0.3281c0,2.7617,0.4375,4.7617,1.3125,5.999s2.3037,1.8555,4.2861,1.8555
		c1.709,0,3.0039-0.6768,3.8867-2.0303c0.8809-1.3535,1.3223-3.3086,1.3223-5.8652
		C434.4854,1028.5449,432.7217,1025.9678,429.1943,1025.9678z"/>
	<path fill="#4B5666" d="M454.9316,1045.5322c-3.5273,0-6.2861-1.0283-8.2744-3.0859c-1.9902-2.0576-2.9844-4.8916-2.9844-8.501
		c0-3.7051,0.9229-6.6172,2.7686-8.7363s4.3818-3.1787,7.6084-3.1787c2.9941,0,5.3594,0.9092,7.0957,2.7275
		s2.6045,4.3203,2.6045,7.5059v2.6045h-15.1143c0.0684,2.2012,0.6631,3.8936,1.7842,5.0762s2.7002,1.7734,4.7373,1.7734
		c1.3398,0,2.5869-0.126,3.7422-0.3789s2.3965-0.6738,3.7227-1.2617v3.917c-1.1758,0.5605-2.3652,0.957-3.5684,1.1895
		S456.4766,1045.5322,454.9316,1045.5322z M454.0498,1025.6807c-1.5312,0-2.7578,0.4854-3.6816,1.4561
		c-0.9219,0.9707-1.4727,2.3857-1.6504,4.2451h10.2949c-0.0273-1.873-0.4785-3.291-1.3535-4.2559
		C456.7842,1026.1631,455.5811,1025.6807,454.0498,1025.6807z"/>
	<path fill="#4B5666" d="M484.3809,1045.1221h-17.2061v-2.9736l11.4639-16.0166h-10.7666v-3.6914h16.1807v3.3633l-11.2178,15.627
		h11.5459V1045.1221z"/>
	<path fill="#4B5666" d="M500.8076,1045.5322c-2.8711,0-5.0996-1.0322-6.6855-3.0967h-0.2871
		c0.1914,1.9141,0.2871,3.0762,0.2871,3.4863v9.29h-4.8193v-32.7715h3.8965c0.1094,0.4238,0.335,1.4355,0.6768,3.0352h0.2461
		c1.5039-2.2969,3.7598-3.4453,6.7676-3.4453c2.8301,0,5.0342,1.0254,6.6143,3.0762c1.5781,2.0508,2.3682,4.9287,2.3682,8.6338
		s-0.8037,6.5967-2.4092,8.6748C505.8555,1044.4932,503.6377,1045.5322,500.8076,1045.5322z M499.6387,1025.9678
		c-1.9141,0-3.3125,0.5605-4.1934,1.6816c-0.8828,1.1211-1.3232,2.9121-1.3232,5.373v0.7178c0,2.7617,0.4375,4.7617,1.3125,5.999
		s2.3037,1.8555,4.2861,1.8555c1.668,0,2.9531-0.6836,3.8555-2.0508s1.3535-3.3154,1.3535-5.8447
		c0-2.543-0.4482-4.4668-1.3438-5.7725S501.375,1025.9678,499.6387,1025.9678z"/>
	<path fill="#4B5666" d="M515.1836,1016.4316c0-0.8613,0.2363-1.5244,0.707-1.9893c0.4727-0.4648,1.1455-0.6973,2.0205-0.6973
		c0.8477,0,1.5068,0.2324,1.9795,0.6973c0.4707,0.4648,0.707,1.1279,0.707,1.9893c0,0.8203-0.2363,1.4658-0.707,1.9385
		c-0.4727,0.4707-1.1318,0.707-1.9795,0.707c-0.875,0-1.5479-0.2363-2.0205-0.707
		C515.4199,1017.8975,515.1836,1017.252,515.1836,1016.4316z M520.29,1045.1221h-4.8193v-22.6816h4.8193V1045.1221z"/>
	<path fill="#4B5666" d="M537.0859,1045.5322c-3.5273,0-6.2861-1.0283-8.2744-3.0859c-1.9902-2.0576-2.9844-4.8916-2.9844-8.501
		c0-3.7051,0.9229-6.6172,2.7686-8.7363s4.3818-3.1787,7.6084-3.1787c2.9941,0,5.3594,0.9092,7.0957,2.7275
		s2.6045,4.3203,2.6045,7.5059v2.6045H530.79c0.0684,2.2012,0.6631,3.8936,1.7842,5.0762s2.7002,1.7734,4.7373,1.7734
		c1.3398,0,2.5869-0.126,3.7422-0.3789s2.3965-0.6738,3.7227-1.2617v3.917c-1.1758,0.5605-2.3652,0.957-3.5684,1.1895
		S538.6309,1045.5322,537.0859,1045.5322z M536.2041,1025.6807c-1.5312,0-2.7578,0.4854-3.6816,1.4561
		c-0.9219,0.9707-1.4727,2.3857-1.6504,4.2451h10.2949c-0.0273-1.873-0.4785-3.291-1.3535-4.2559
		C538.9385,1026.1631,537.7354,1025.6807,536.2041,1025.6807z"/>
	<path fill="#4B5666" d="M560.5264,1045.5322c-3.4316,0-6.0391-1.001-7.8242-3.0039c-1.7832-2.0029-2.6758-4.8779-2.6758-8.624
		c0-3.8145,0.9336-6.7471,2.7988-8.7979c1.8672-2.0508,4.5635-3.0762,8.0908-3.0762c2.3926,0,4.5459,0.4443,6.46,1.333
		l-1.4561,3.876c-2.0371-0.793-3.7188-1.1895-5.0449-1.1895c-3.9238,0-5.8857,2.6045-5.8857,7.8135
		c0,2.543,0.4883,4.4541,1.4668,5.7314c0.9766,1.2793,2.4092,1.918,4.2959,1.918c2.1465,0,4.1768-0.5332,6.0908-1.5996v4.2041
		c-0.8613,0.5059-1.7812,0.8682-2.7578,1.0869C563.1064,1045.4229,561.9209,1045.5322,560.5264,1045.5322z"/>
	<path fill="#4B5666" d="M587.3301,1045.1221H570.124v-2.9736l11.4639-16.0166h-10.7666v-3.6914h16.1807v3.3633l-11.2178,15.627
		h11.5459V1045.1221z"/>
	<path fill="#4B5666" d="M602.1572,1045.5322c-3.5273,0-6.2861-1.0283-8.2744-3.0859c-1.9902-2.0576-2.9844-4.8916-2.9844-8.501
		c0-3.7051,0.9229-6.6172,2.7686-8.7363s4.3818-3.1787,7.6084-3.1787c2.9941,0,5.3594,0.9092,7.0957,2.7275
		s2.6045,4.3203,2.6045,7.5059v2.6045h-15.1143c0.0684,2.2012,0.6631,3.8936,1.7842,5.0762s2.7002,1.7734,4.7373,1.7734
		c1.3398,0,2.5869-0.126,3.7422-0.3789s2.3965-0.6738,3.7227-1.2617v3.917c-1.1758,0.5605-2.3652,0.957-3.5684,1.1895
		S603.7021,1045.5322,602.1572,1045.5322z M601.2754,1025.6807c-1.5312,0-2.7578,0.4854-3.6816,1.4561
		c-0.9219,0.9707-1.4727,2.3857-1.6504,4.2451h10.2949c-0.0273-1.873-0.4785-3.291-1.3535-4.2559
		C604.0098,1026.1631,602.8066,1025.6807,601.2754,1025.6807z"/>
	<path fill="#4B5666" d="M636.4053,1045.1221h-4.8398v-13.9453c0-1.75-0.3525-3.0557-1.0557-3.917
		c-0.7051-0.8613-1.8223-1.292-3.3535-1.292c-2.0371,0-3.5273,0.6016-4.4707,1.8047s-1.415,3.2197-1.415,6.0498v11.2998h-4.8193
		v-22.6816h3.7734l0.6768,2.9736h0.2461c0.6836-1.0801,1.6543-1.9141,2.9121-2.502s2.6523-0.8818,4.1836-0.8818
		c5.4414,0,8.1621,2.7686,8.1621,8.3057V1045.1221z M623.4033,1019.6719v-0.5127c0.7793-0.957,1.582-2.0234,2.4092-3.1992
		s1.4805-2.1807,1.959-3.0146h5.5986v0.4307c-0.7109,0.834-1.7744,1.9111-3.1885,3.2305c-1.416,1.3193-2.6084,2.3408-3.5791,3.0654
		H623.4033z"/>
	<path fill="#4B5666" d="M658.3486,1038.6621c0,2.2148-0.8066,3.9141-2.4199,5.0967s-3.9238,1.7734-6.9316,1.7734
		c-3.0215,0-5.4482-0.458-7.2803-1.374v-4.1631c2.666,1.2305,5.1475,1.8457,7.4443,1.8457c2.9668,0,4.4502-0.8955,4.4502-2.6865
		c0-0.5742-0.1641-1.0527-0.4922-1.4355s-0.8682-0.7793-1.6201-1.1895s-1.7979-0.875-3.1377-1.3945
		c-2.6113-1.0117-4.3789-2.0234-5.3008-3.0352c-0.9238-1.0117-1.3848-2.3242-1.3848-3.9375c0-1.9414,0.7822-3.4482,2.3477-4.5225
		c1.5654-1.0723,3.6953-1.6094,6.3887-1.6094c2.666,0,5.1885,0.54,7.5674,1.6201l-1.5586,3.6299
		c-2.4473-1.0117-4.5049-1.5176-6.1729-1.5176c-2.543,0-3.8145,0.7246-3.8145,2.1738c0,0.7109,0.3311,1.3125,0.9941,1.8047
		s2.1094,1.1689,4.3379,2.0303c1.873,0.7246,3.2334,1.3877,4.0811,1.9893s1.4766,1.2959,1.8867,2.082
		S658.3486,1037.5684,658.3486,1038.6621z"/>
	<path fill="#4B5666" d="M672.0068,1041.6357c1.1758,0,2.3516-0.1846,3.5273-0.5537v3.6299
		c-0.5332,0.2324-1.2207,0.4268-2.0605,0.584c-0.8418,0.1572-1.7129,0.2363-2.6152,0.2363c-4.5664,0-6.8496-2.4062-6.8496-7.2188
		v-12.2227h-3.0967v-2.1328l3.3223-1.7637l1.6406-4.7988h2.9736v5.0449h6.46v3.6504h-6.46v12.1406
		c0,1.1621,0.29,2.0195,0.8711,2.5742C670.3008,1041.3584,671.0635,1041.6357,672.0068,1041.6357z"/>
	<path fill="#4B5666" d="M698.667,1045.1221l-2.9326-10.582c-0.3555-1.1211-0.998-3.7256-1.9277-7.8135h-0.1846
		c-0.793,3.6914-1.4219,6.3096-1.8867,7.8545l-3.0146,10.541h-5.332l-6.3574-22.6816h4.9219l2.8916,11.1768
		c0.6562,2.7617,1.1211,5.127,1.3945,7.0957h0.123c0.1367-0.998,0.3447-2.1436,0.626-3.4346
		c0.2793-1.293,0.5225-2.2598,0.7275-2.9023l3.4453-11.9355h5.291l3.3428,11.9355c0.2051,0.6699,0.4609,1.6953,0.7695,3.0762
		c0.3066,1.3809,0.4883,2.4541,0.543,3.2197h0.1641c0.2051-1.6816,0.6836-4.0332,1.4355-7.0547l2.9326-11.1768h4.8398
		l-6.3984,22.6816H698.667z"/>
	<path fill="#4B5666" d="M734.4941,1033.7402c0,3.7051-0.9502,6.5967-2.8506,8.6748s-4.5459,3.1172-7.9365,3.1172
		c-2.1191,0-3.9922-0.4785-5.6191-1.4355s-2.8779-2.3311-3.7529-4.1221s-1.3125-3.8691-1.3125-6.2344
		c0-3.6777,0.9434-6.5488,2.8301-8.6133s4.5459-3.0967,7.9775-3.0967c3.2812,0,5.8789,1.0566,7.793,3.168
		C733.5371,1027.3115,734.4941,1030.1582,734.4941,1033.7402z M717.9854,1033.7402c0,5.2363,1.9346,7.8545,5.8037,7.8545
		c3.8281,0,5.7422-2.6182,5.7422-7.8545c0-5.1816-1.9277-7.7725-5.7832-7.7725c-2.0234,0-3.4902,0.6699-4.3994,2.0098
		S717.9854,1031.2383,717.9854,1033.7402z"/>
</g>
<g>
	<path fill="#4B5666" d="M809.3115,601.1943c0,2.666-0.9629,4.7578-2.8906,6.2754s-4.5879,2.2764-7.9785,2.2764
		s-6.166-0.5264-8.3262-1.5791v-4.6348c1.3672,0.6426,2.8203,1.1484,4.3574,1.5176c1.5391,0.3691,2.9707,0.5537,4.2969,0.5537
		c1.9414,0,3.373-0.3691,4.2969-1.1074c0.9219-0.7383,1.3848-1.7295,1.3848-2.9736c0-1.1211-0.4238-2.0713-1.2715-2.8506
		s-2.5977-1.7021-5.25-2.7686c-2.7344-1.1074-4.6621-2.3721-5.7832-3.7939s-1.6816-3.1309-1.6816-5.127
		c0-2.502,0.8887-4.4707,2.666-5.9062s4.1621-2.1533,7.1562-2.1533c2.8711,0,5.7285,0.6289,8.5723,1.8867l-1.5586,3.999
		c-2.666-1.1211-5.0449-1.6816-7.1367-1.6816c-1.5859,0-2.7891,0.3457-3.6094,1.0352c-0.8203,0.6914-1.2305,1.6035-1.2305,2.7383
		c0,0.7793,0.1641,1.4453,0.4922,2c0.3281,0.5527,0.8691,1.0762,1.6211,1.5684s2.1055,1.1416,4.0605,1.9482
		c2.2012,0.916,3.8145,1.7705,4.8398,2.5635s1.7773,1.6885,2.2559,2.6865S809.3115,599.8408,809.3115,601.1943z"/>
	<path fill="#4B5666" d="M823.0518,605.8496c1.1758,0,2.3516-0.1846,3.5273-0.5537v3.6299
		c-0.5332,0.2324-1.2207,0.4268-2.0605,0.584c-0.8418,0.1572-1.7129,0.2363-2.6152,0.2363c-4.5664,0-6.8496-2.4062-6.8496-7.2188
		v-12.2227h-3.0957v-2.1328l3.3223-1.7637l1.6406-4.7988h2.9727v5.0449h6.4609v3.6504h-6.4609v12.1406
		c0,1.1621,0.291,2.0195,0.8711,2.5742C821.3467,605.5723,822.1084,605.8496,823.0518,605.8496z"/>
	<path fill="#4B5666" d="M845.3037,609.3359l-0.9648-3.1582h-0.1641c-1.0938,1.3809-2.1934,2.3213-3.3008,2.8203
		c-1.1074,0.498-2.5293,0.748-4.2656,0.748c-2.2285,0-3.9688-0.6016-5.2188-1.8047c-1.252-1.2031-1.877-2.9053-1.877-5.1064
		c0-2.3379,0.8672-4.1016,2.6035-5.291s4.3828-1.8389,7.9375-1.9482l3.916-0.123v-1.21c0-1.4492-0.3379-2.5322-1.0137-3.251
		c-0.6777-0.7168-1.7266-1.0762-3.1484-1.0762c-1.1621,0-2.2773,0.1709-3.3438,0.5127s-2.0918,0.7451-3.0762,1.21l-1.5586-3.4453
		c1.2305-0.6426,2.5781-1.1309,4.041-1.4668c1.4629-0.334,2.8438-0.502,4.1426-0.502c2.8848,0,5.0605,0.6289,6.5312,1.8867
		c1.4688,1.2578,2.2051,3.2334,2.2051,5.9268v15.2783H845.3037z M838.126,606.0547c1.75,0,3.1543-0.4883,4.2148-1.4668
		c1.0586-0.9766,1.5879-2.3477,1.5879-4.1113v-1.9688l-2.9121,0.123c-2.2695,0.082-3.9199,0.4609-4.9512,1.1387
		c-1.0332,0.6758-1.5488,1.7119-1.5488,3.1064c0,1.0117,0.3008,1.7939,0.9023,2.3486
		C836.0205,605.7773,836.9229,606.0547,838.126,606.0547z"/>
	<path fill="#4B5666" d="M860.2939,609.3359h-4.8184v-31.9102h4.8184V609.3359z"/>
	<path fill="#4B5666" d="M877.0908,609.7461c-3.5273,0-6.2871-1.0283-8.2754-3.0859c-1.9902-2.0576-2.9844-4.8916-2.9844-8.501
		c0-3.7051,0.9238-6.6172,2.7695-8.7363s4.3809-3.1787,7.6074-3.1787c2.9941,0,5.3594,0.9092,7.0957,2.7275
		s2.6055,4.3203,2.6055,7.5059v2.6045h-15.1152c0.0684,2.2012,0.6641,3.8936,1.7852,5.0762s2.6992,1.7734,4.7363,1.7734
		c1.3398,0,2.5879-0.126,3.7422-0.3789c1.1562-0.2529,2.3965-0.6738,3.7227-1.2617v3.917c-1.1758,0.5605-2.3652,0.957-3.5684,1.1895
		S878.6357,609.7461,877.0908,609.7461z M876.208,589.8945c-1.5312,0-2.7578,0.4854-3.6816,1.4561
		c-0.9219,0.9707-1.4727,2.3857-1.6504,4.2451h10.2949c-0.0273-1.873-0.4785-3.291-1.3535-4.2559
		C878.9424,590.377,877.7393,589.8945,876.208,589.8945z"/>
	<path fill="#4B5666" d="M909.9443,609.7461c-2.8301,0-5.0391-1.0254-6.625-3.0762s-2.3789-4.9287-2.3789-8.6338
		c0-3.7188,0.8027-6.6143,2.4102-8.6846c1.6055-2.0723,3.832-3.1074,6.6758-3.1074c2.9805,0,5.25,1.1006,6.8086,3.3018h0.2461
		c-0.2324-1.627-0.3496-2.9121-0.3496-3.8555v-8.2646h4.8398v31.9102h-3.7734l-0.8398-2.9736h-0.2266
		C915.1865,608.6182,912.9248,609.7461,909.9443,609.7461z M911.2354,605.8496c1.9824,0,3.4258-0.5566,4.3281-1.6719
		c0.9023-1.1133,1.3672-2.9219,1.3945-5.4238v-0.6768c0-2.8574-0.4648-4.8877-1.3945-6.0908s-2.3867-1.8047-4.3691-1.8047
		c-1.6953,0-3,0.6875-3.916,2.0605c-0.916,1.375-1.375,3.333-1.375,5.876c0,2.5156,0.4453,4.4336,1.334,5.7529
		S909.458,605.8496,911.2354,605.8496z"/>
	<path fill="#4B5666" d="M948.5811,597.9541c0,3.7051-0.9512,6.5967-2.8516,8.6748s-4.5449,3.1172-7.9355,3.1172
		c-2.1191,0-3.9922-0.4785-5.6191-1.4355s-2.8789-2.3311-3.7539-4.1221s-1.3125-3.8691-1.3125-6.2344
		c0-3.6777,0.9434-6.5488,2.8301-8.6133s4.5469-3.0967,7.9785-3.0967c3.2812,0,5.8789,1.0566,7.793,3.168
		C947.624,591.5254,948.5811,594.3721,948.5811,597.9541z M932.0713,597.9541c0,5.2363,1.9355,7.8545,5.8047,7.8545
		c3.8281,0,5.7422-2.6182,5.7422-7.8545c0-5.1816-1.9277-7.7725-5.7832-7.7725c-2.0234,0-3.4902,0.6699-4.4004,2.0098
		C932.5264,593.5312,932.0713,595.4521,932.0713,597.9541z"/>
	<path fill="#4B5666" d="M969.3545,602.876c0,2.2148-0.8066,3.9141-2.4199,5.0967s-3.9238,1.7734-6.9316,1.7734
		c-3.0215,0-5.4473-0.458-7.2793-1.374v-4.1631c2.666,1.2305,5.1465,1.8457,7.4434,1.8457c2.9668,0,4.4512-0.8955,4.4512-2.6865
		c0-0.5742-0.1641-1.0527-0.4922-1.4355s-0.8691-0.7793-1.6211-1.1895s-1.7969-0.875-3.1367-1.3945
		c-2.6113-1.0117-4.3789-2.0234-5.3008-3.0352c-0.9238-1.0117-1.3848-2.3242-1.3848-3.9375c0-1.9414,0.7812-3.4482,2.3477-4.5225
		c1.5645-1.0723,3.6953-1.6094,6.3887-1.6094c2.666,0,5.1875,0.54,7.5664,1.6201l-1.5586,3.6299
		c-2.4473-1.0117-4.5039-1.5176-6.1719-1.5176c-2.543,0-3.8145,0.7246-3.8145,2.1738c0,0.7109,0.3301,1.3125,0.9941,1.8047
		c0.6621,0.4922,2.1094,1.1689,4.3379,2.0303c1.873,0.7246,3.2324,1.3877,4.0801,1.9893s1.4766,1.2959,1.8867,2.082
		S969.3545,601.7822,969.3545,602.876z"/>
	<path fill="#4B5666" d="M983.0127,605.8496c1.1758,0,2.3516-0.1846,3.5273-0.5537v3.6299
		c-0.5332,0.2324-1.2207,0.4268-2.0605,0.584c-0.8418,0.1572-1.7129,0.2363-2.6152,0.2363c-4.5664,0-6.8496-2.4062-6.8496-7.2188
		v-12.2227h-3.0957v-2.1328l3.3223-1.7637l1.6406-4.7988h2.9727v5.0449h6.4609v3.6504h-6.4609v12.1406
		c0,1.1621,0.291,2.0195,0.8711,2.5742C981.3076,605.5723,982.0693,605.8496,983.0127,605.8496z"/>
	<path fill="#4B5666" d="M1005.2646,609.3359l-0.9648-3.1582h-0.1641c-1.0938,1.3809-2.1934,2.3213-3.3008,2.8203
		c-1.1074,0.498-2.5293,0.748-4.2656,0.748c-2.2285,0-3.9688-0.6016-5.2188-1.8047c-1.252-1.2031-1.877-2.9053-1.877-5.1064
		c0-2.3379,0.8672-4.1016,2.6035-5.291s4.3828-1.8389,7.9375-1.9482l3.916-0.123v-1.21c0-1.4492-0.3379-2.5322-1.0137-3.251
		c-0.6777-0.7168-1.7266-1.0762-3.1484-1.0762c-1.1621,0-2.2773,0.1709-3.3438,0.5127s-2.0918,0.7451-3.0762,1.21l-1.5586-3.4453
		c1.2305-0.6426,2.5781-1.1309,4.041-1.4668c1.4629-0.334,2.8438-0.502,4.1426-0.502c2.8848,0,5.0605,0.6289,6.5312,1.8867
		c1.4688,1.2578,2.2051,3.2334,2.2051,5.9268v15.2783H1005.2646z M998.0869,606.0547c1.75,0,3.1543-0.4883,4.2148-1.4668
		c1.0586-0.9766,1.5879-2.3477,1.5879-4.1113v-1.9688l-2.9121,0.123c-2.2695,0.082-3.9199,0.4609-4.9512,1.1387
		c-1.0332,0.6758-1.5488,1.7119-1.5488,3.1064c0,1.0117,0.3008,1.7939,0.9023,2.3486
		C995.9814,605.7773,996.8838,606.0547,998.0869,606.0547z"/>
	<path fill="#4B5666" d="M1026.9404,586.2441c0.9707,0,1.7715,0.0684,2.4004,0.2051l-0.4727,4.4912
		c-0.6836-0.1641-1.3945-0.2461-2.1328-0.2461c-1.9277,0-3.4902,0.6289-4.6855,1.8867c-1.1973,1.2578-1.7949,2.8916-1.7949,4.9014
		v11.8535h-4.8184v-22.6816h3.7734l0.6348,3.999h0.2461c0.752-1.3535,1.7344-2.4268,2.9434-3.2197
		C1024.2451,586.6406,1025.5459,586.2441,1026.9404,586.2441z"/>
	<path fill="#4B5666" d="M1042.6904,609.7461c-3.4316,0-6.0391-1.001-7.8242-3.0039c-1.7832-2.0029-2.6758-4.8779-2.6758-8.624
		c0-3.8145,0.9336-6.7471,2.7988-8.7979c1.8672-2.0508,4.5645-3.0762,8.0918-3.0762c2.3926,0,4.5449,0.4443,6.459,1.333
		l-1.4551,3.876c-2.0371-0.793-3.7188-1.1895-5.0449-1.1895c-3.9238,0-5.8867,2.6045-5.8867,7.8135
		c0,2.543,0.4883,4.4541,1.4668,5.7314c0.9766,1.2793,2.4102,1.918,4.2969,1.918c2.1465,0,4.1758-0.5332,6.0898-1.5996v4.2041
		c-0.8613,0.5059-1.7812,0.8682-2.7578,1.0869C1045.2705,609.6367,1044.085,609.7461,1042.6904,609.7461z"/>
	<path fill="#4B5666" d="M1069.4951,609.3359h-17.207v-2.9736l11.4648-16.0166h-10.7676v-3.6914h16.1816v3.3633l-11.2188,15.627
		h11.5469V609.3359z"/>
	<path fill="#4B5666" d="M1088.6084,609.3359l-0.9648-3.1582h-0.1641c-1.0938,1.3809-2.1934,2.3213-3.3008,2.8203
		c-1.1074,0.498-2.5293,0.748-4.2656,0.748c-2.2285,0-3.9688-0.6016-5.2188-1.8047c-1.252-1.2031-1.877-2.9053-1.877-5.1064
		c0-2.3379,0.8672-4.1016,2.6035-5.291s4.3828-1.8389,7.9375-1.9482l3.916-0.123v-1.21c0-1.4492-0.3379-2.5322-1.0137-3.251
		c-0.6777-0.7168-1.7266-1.0762-3.1484-1.0762c-1.1621,0-2.2773,0.1709-3.3438,0.5127s-2.0918,0.7451-3.0762,1.21l-1.5586-3.4453
		c1.2305-0.6426,2.5781-1.1309,4.041-1.4668c1.4629-0.334,2.8438-0.502,4.1426-0.502c2.8848,0,5.0605,0.6289,6.5312,1.8867
		c1.4688,1.2578,2.2051,3.2334,2.2051,5.9268v15.2783H1088.6084z M1081.4307,606.0547c1.75,0,3.1543-0.4883,4.2148-1.4668
		c1.0586-0.9766,1.5879-2.3477,1.5879-4.1113v-1.9688l-2.9121,0.123c-2.2695,0.082-3.9199,0.4609-4.9512,1.1387
		c-1.0332,0.6758-1.5488,1.7119-1.5488,3.1064c0,1.0117,0.3008,1.7939,0.9023,2.3486
		C1079.3252,605.7773,1080.2275,606.0547,1081.4307,606.0547z"/>
	<path fill="#4B5666" d="M1096.4619,619.4258c-1.4492,0-2.6523-0.1709-3.6094-0.5127v-3.8145
		c0.9297,0.2461,1.8809,0.3691,2.8516,0.3691c2.0508,0,3.0762-1.1621,3.0762-3.4863v-25.3271h4.8184v25.6553
		c0,2.3379-0.6113,4.1084-1.834,5.3115C1100.54,618.8242,1098.7725,619.4258,1096.4619,619.4258z M1098.4932,580.6455
		c0-0.8613,0.2363-1.5244,0.707-1.9893c0.4727-0.4648,1.1445-0.6973,2.0195-0.6973c0.8477,0,1.5078,0.2324,1.9805,0.6973
		c0.4707,0.4648,0.707,1.1279,0.707,1.9893c0,0.8203-0.2363,1.4658-0.707,1.9385c-0.4727,0.4707-1.1328,0.707-1.9805,0.707
		c-0.875,0-1.5469-0.2363-2.0195-0.707C1098.7295,582.1113,1098.4932,581.4658,1098.4932,580.6455z"/>
	<path fill="#4B5666" d="M889.5068,659.7363l-2.9316-10.582c-0.3555-1.1211-0.998-3.7256-1.9277-7.8135h-0.1855
		c-0.793,3.6914-1.4219,6.3096-1.8867,7.8545l-3.0137,10.541h-5.332l-6.3574-22.6816h4.9219l2.8906,11.1768
		c0.6562,2.7617,1.1211,5.127,1.3945,7.0957h0.123c0.1367-0.998,0.3457-2.1436,0.627-3.4346
		c0.2793-1.293,0.5215-2.2598,0.7266-2.9023l3.4453-11.9355h5.291l3.3438,11.9355c0.2051,0.6699,0.4609,1.6953,0.7695,3.0762
		c0.3066,1.3809,0.4883,2.4541,0.543,3.2197h0.1641c0.2051-1.6816,0.6836-4.0332,1.4355-7.0547l2.9316-11.1768h4.8398
		l-6.3984,22.6816H889.5068z"/>
	<path fill="#4B5666" d="M919.4072,659.7363l-0.9629-3.1582h-0.1641c-1.0938,1.3809-2.1953,2.3213-3.3027,2.8203
		c-1.1074,0.498-2.5293,0.748-4.2656,0.748c-2.2285,0-3.9688-0.6016-5.2188-1.8047c-1.252-1.2031-1.877-2.9053-1.877-5.1064
		c0-2.3379,0.8691-4.1016,2.6055-5.291s4.3809-1.8389,7.9355-1.9482l3.918-0.123v-1.21c0-1.4492-0.3398-2.5322-1.0156-3.251
		c-0.6777-0.7168-1.7266-1.0762-3.1484-1.0762c-1.1621,0-2.2754,0.1709-3.3418,0.5127s-2.0918,0.7451-3.0762,1.21l-1.5586-3.4453
		c1.2305-0.6426,2.5762-1.1309,4.0391-1.4668c1.4629-0.334,2.8438-0.502,4.1426-0.502c2.8848,0,5.0625,0.6289,6.5312,1.8867
		c1.4707,1.2578,2.2051,3.2334,2.2051,5.9268v15.2783H919.4072z M912.2295,656.4551c1.75,0,3.1543-0.4883,4.2148-1.4668
		c1.0586-0.9766,1.5898-2.3477,1.5898-4.1113v-1.9688l-2.9121,0.123c-2.2695,0.082-3.9219,0.4609-4.9531,1.1387
		c-1.0332,0.6758-1.5488,1.7119-1.5488,3.1064c0,1.0117,0.3008,1.7939,0.9023,2.3486
		C910.124,656.1777,911.0264,656.4551,912.2295,656.4551z"/>
	<path fill="#4B5666" d="M941.085,636.6445c0.9707,0,1.7695,0.0684,2.3984,0.2051l-0.4707,4.4912
		c-0.6836-0.1641-1.3945-0.2461-2.1328-0.2461c-1.9277,0-3.4902,0.6289-4.6875,1.8867c-1.1953,1.2578-1.793,2.8916-1.793,4.9014
		v11.8535h-4.8203v-22.6816h3.7734l0.6367,3.999h0.2461c0.752-1.3535,1.7324-2.4268,2.9414-3.2197
		C938.3877,637.041,939.6904,636.6445,941.085,636.6445z"/>
	<path fill="#4B5666" d="M956.1377,656.25c1.1758,0,2.3516-0.1846,3.5273-0.5537v3.6299c-0.5332,0.2324-1.2207,0.4268-2.0605,0.584
		c-0.8418,0.1572-1.7129,0.2363-2.6152,0.2363c-4.5664,0-6.8496-2.4062-6.8496-7.2188v-12.2227h-3.0977v-2.1328l3.3223-1.7637
		l1.6406-4.7988h2.9746v5.0449h6.459v3.6504h-6.459v12.1406c0,1.1621,0.2891,2.0195,0.8711,2.5742
		C954.4307,655.9727,955.1943,656.25,956.1377,656.25z"/>
	<path fill="#4B5666" d="M984.3154,648.3545c0,3.7051-0.9512,6.5967-2.8516,8.6748s-4.5449,3.1172-7.9355,3.1172
		c-2.1191,0-3.9922-0.4785-5.6191-1.4355s-2.8789-2.3311-3.7539-4.1221s-1.3125-3.8691-1.3125-6.2344
		c0-3.6777,0.9434-6.5488,2.8301-8.6133s4.5469-3.0967,7.9785-3.0967c3.2812,0,5.8789,1.0566,7.793,3.168
		C983.3584,641.9258,984.3154,644.7725,984.3154,648.3545z M967.8057,648.3545c0,5.2363,1.9355,7.8545,5.8047,7.8545
		c3.8281,0,5.7422-2.6182,5.7422-7.8545c0-5.1816-1.9277-7.7725-5.7832-7.7725c-2.0234,0-3.4902,0.6699-4.4004,2.0098
		C968.2607,643.9316,967.8057,645.8525,967.8057,648.3545z"/>
	<path fill="#4B5666" d="M1005.0889,653.2764c0,2.2148-0.8066,3.9141-2.4199,5.0967s-3.9238,1.7734-6.9316,1.7734
		c-3.0215,0-5.4473-0.458-7.2793-1.374v-4.1631c2.666,1.2305,5.1465,1.8457,7.4434,1.8457c2.9668,0,4.4512-0.8955,4.4512-2.6865
		c0-0.5742-0.1641-1.0527-0.4922-1.4355s-0.8691-0.7793-1.6211-1.1895s-1.7969-0.875-3.1367-1.3945
		c-2.6113-1.0117-4.3789-2.0234-5.3008-3.0352c-0.9238-1.0117-1.3848-2.3242-1.3848-3.9375c0-1.9414,0.7812-3.4482,2.3477-4.5225
		c1.5645-1.0723,3.6953-1.6094,6.3887-1.6094c2.666,0,5.1875,0.54,7.5664,1.6201l-1.5586,3.6299
		c-2.4473-1.0117-4.5039-1.5176-6.1719-1.5176c-2.543,0-3.8145,0.7246-3.8145,2.1738c0,0.7109,0.3301,1.3125,0.9941,1.8047
		c0.6621,0.4922,2.1094,1.1689,4.3379,2.0303c1.873,0.7246,3.2324,1.3877,4.0801,1.9893s1.4766,1.2959,1.8867,2.082
		S1005.0889,652.1826,1005.0889,653.2764z M993.7275,634.2861v-0.5127c0.7793-0.957,1.582-2.0234,2.4102-3.1992
		c0.8262-1.1758,1.4805-2.1807,1.959-3.0146h5.5977v0.4307c-0.7109,0.834-1.7734,1.9111-3.1875,3.2305
		c-1.416,1.3193-2.6094,2.3408-3.5801,3.0654H993.7275z"/>
	<path fill="#4B5666" d="M1019.4443,660.1465c-3.4316,0-6.0391-1.001-7.8242-3.0039c-1.7832-2.0029-2.6758-4.8779-2.6758-8.624
		c0-3.8145,0.9336-6.7471,2.7988-8.7979c1.8672-2.0508,4.5645-3.0762,8.0918-3.0762c2.3926,0,4.5449,0.4443,6.459,1.333
		l-1.4551,3.876c-2.0371-0.793-3.7188-1.1895-5.0449-1.1895c-3.9238,0-5.8867,2.6045-5.8867,7.8135
		c0,2.543,0.4883,4.4541,1.4668,5.7314c0.9766,1.2793,2.4102,1.918,4.2969,1.918c2.1465,0,4.1758-0.5332,6.0898-1.5996v4.2041
		c-0.8613,0.5059-1.7812,0.8682-2.7578,1.0869C1022.0244,660.0371,1020.8389,660.1465,1019.4443,660.1465z M1016.0811,634.2861
		v-0.5127c0.7793-0.957,1.582-2.0234,2.4102-3.1992c0.8262-1.1758,1.4805-2.1807,1.959-3.0146h5.5977v0.4307
		c-0.7109,0.834-1.7734,1.9111-3.1895,3.2305c-1.4141,1.3193-2.6074,2.3408-3.5781,3.0654H1016.0811z"/>
</g>
<g>
	<path fill="#4B5666" d="M72.9692,609.3359h-16.96v-29.9824h16.96v4.1426H60.9106v8.1621h11.2998v4.1016H60.9106v9.4131h12.0586
		V609.3359z"/>
	<path fill="#4B5666" d="M83.5923,597.3594l2.7275-3.4043l6.8496-7.3008h5.5576l-9.126,9.7412l9.7002,12.9404h-5.6602
		l-7.2803-9.9463l-2.6455,2.1738v7.7725H78.937v-31.9102h4.7783v15.5654l-0.2461,4.3682H83.5923z"/>
	<path fill="#4B5666" d="M118.189,602.876c0,2.2148-0.8066,3.9141-2.4199,5.0967s-3.9238,1.7734-6.9316,1.7734
		c-3.0215,0-5.4482-0.458-7.2803-1.374v-4.1631c2.666,1.2305,5.1475,1.8457,7.4443,1.8457c2.9668,0,4.4502-0.8955,4.4502-2.6865
		c0-0.5742-0.1641-1.0527-0.4922-1.4355s-0.8682-0.7793-1.6201-1.1895s-1.7979-0.875-3.1377-1.3945
		c-2.6113-1.0117-4.3784-2.0234-5.3013-3.0352s-1.3843-2.3242-1.3843-3.9375c0-1.9414,0.7827-3.4482,2.3481-4.5225
		c1.5654-1.0723,3.6948-1.6094,6.3882-1.6094c2.666,0,5.1885,0.54,7.5674,1.6201l-1.5586,3.6299
		c-2.4473-1.0117-4.5049-1.5176-6.1729-1.5176c-2.543,0-3.8145,0.7246-3.8145,2.1738c0,0.7109,0.3315,1.3125,0.9946,1.8047
		s2.1089,1.1689,4.3374,2.0303c1.873,0.7246,3.2334,1.3877,4.0811,1.9893s1.4766,1.2959,1.8867,2.082
		S118.189,601.7822,118.189,602.876z"/>
	<path fill="#4B5666" d="M134.9028,609.7461c-2.8711,0-5.0996-1.0322-6.6855-3.0967h-0.2871
		c0.1914,1.9141,0.2871,3.0762,0.2871,3.4863v9.29h-4.8193v-32.7715h3.8965c0.1094,0.4238,0.335,1.4355,0.6768,3.0352h0.2461
		c1.5039-2.2969,3.7598-3.4453,6.7676-3.4453c2.8301,0,5.0347,1.0254,6.6138,3.0762s2.3687,4.9287,2.3687,8.6338
		s-0.8032,6.5967-2.4097,8.6748S137.7329,609.7461,134.9028,609.7461z M133.7339,590.1816c-1.9141,0-3.312,0.5605-4.1938,1.6816
		s-1.3228,2.9121-1.3228,5.373v0.7178c0,2.7617,0.4375,4.7617,1.3125,5.999s2.3037,1.8555,4.2861,1.8555
		c1.668,0,2.9531-0.6836,3.8555-2.0508s1.3535-3.3154,1.3535-5.8447c0-2.543-0.4478-4.4668-1.3433-5.7725
		S135.4702,590.1816,133.7339,590.1816z"/>
	<path fill="#4B5666" d="M159.4712,609.7461c-3.5273,0-6.2856-1.0283-8.2749-3.0859s-2.9839-4.8916-2.9839-8.501
		c0-3.7051,0.9229-6.6172,2.7686-8.7363s4.3818-3.1787,7.6084-3.1787c2.9941,0,5.3594,0.9092,7.0957,2.7275
		s2.6045,4.3203,2.6045,7.5059v2.6045h-15.1143c0.0684,2.2012,0.6631,3.8936,1.7842,5.0762s2.7002,1.7734,4.7373,1.7734
		c1.3398,0,2.5874-0.126,3.7427-0.3789s2.396-0.6738,3.7222-1.2617v3.917c-1.1758,0.5605-2.3652,0.957-3.5684,1.1895
		S161.0161,609.7461,159.4712,609.7461z M158.5894,589.8945c-1.5312,0-2.7583,0.4854-3.6812,1.4561s-1.4731,2.3857-1.6509,4.2451
		h10.2949c-0.0273-1.873-0.4785-3.291-1.3535-4.2559C161.3237,590.377,160.1206,589.8945,158.5894,589.8945z"/>
	<path fill="#4B5666" d="M185.27,586.2441c0.9707,0,1.7705,0.0684,2.3994,0.2051l-0.4717,4.4912
		c-0.6836-0.1641-1.3945-0.2461-2.1328-0.2461c-1.9277,0-3.4897,0.6289-4.686,1.8867s-1.7944,2.8916-1.7944,4.9014v11.8535h-4.8193
		v-22.6816h3.7734l0.6357,3.999h0.2461c0.752-1.3535,1.7329-2.4268,2.9429-3.2197S183.8755,586.2441,185.27,586.2441z"/>
	<path fill="#4B5666" d="M188.4282,586.6543h5.25l4.6143,12.8584c0.6973,1.832,1.1621,3.5547,1.3945,5.168h0.1641
		c0.123-0.752,0.3486-1.6641,0.6768-2.7373s2.0645-6.1699,5.209-15.2891h5.209l-9.7002,25.6963
		c-1.7637,4.7168-4.7031,7.0752-8.8184,7.0752c-1.0664,0-2.1055-0.1162-3.1172-0.3486v-3.8145
		c0.7246,0.1641,1.5518,0.2461,2.4814,0.2461c2.3242,0,3.958-1.3467,4.9014-4.04l0.8408-2.1328L188.4282,586.6543z"/>
	<path fill="#4B5666" d="M233.5044,609.3359h-4.8398v-13.9863c0-1.7363-0.3281-3.0312-0.9844-3.8867
		c-0.6562-0.8535-1.6816-1.2812-3.0762-1.2812c-1.8594,0-3.2231,0.6055-4.0913,1.8145c-0.8682,1.2109-1.3022,3.2236-1.3022,6.04
		v11.2998h-4.8193v-22.6816h3.7734l0.6768,2.9736h0.2461c0.6289-1.0801,1.5415-1.9141,2.7378-2.502s2.5122-0.8818,3.9478-0.8818
		c3.4863,0,5.7969,1.1895,6.9316,3.5684h0.3281c0.6699-1.1211,1.6133-1.9961,2.8301-2.625s2.6113-0.9434,4.1836-0.9434
		c2.707,0,4.6792,0.6836,5.9165,2.0508s1.856,3.4521,1.856,6.2549v14.7861h-4.8193v-13.9863c0-1.7363-0.3315-3.0312-0.9946-3.8867
		c-0.6631-0.8535-1.6919-1.2812-3.0864-1.2812c-1.873,0-3.2437,0.584-4.1118,1.7539c-0.8682,1.168-1.3022,2.9629-1.3022,5.3828
		V609.3359z"/>
	<path fill="#4B5666" d="M264.4507,609.7461c-3.5273,0-6.2856-1.0283-8.2749-3.0859s-2.9839-4.8916-2.9839-8.501
		c0-3.7051,0.9229-6.6172,2.7686-8.7363s4.3818-3.1787,7.6084-3.1787c2.9941,0,5.3594,0.9092,7.0957,2.7275
		s2.6045,4.3203,2.6045,7.5059v2.6045h-15.1143c0.0684,2.2012,0.6631,3.8936,1.7842,5.0762s2.7002,1.7734,4.7373,1.7734
		c1.3398,0,2.5874-0.126,3.7427-0.3789s2.396-0.6738,3.7222-1.2617v3.917c-1.1758,0.5605-2.3652,0.957-3.5684,1.1895
		S265.9956,609.7461,264.4507,609.7461z M263.5688,589.8945c-1.5312,0-2.7583,0.4854-3.6812,1.4561s-1.4731,2.3857-1.6509,4.2451
		h10.2949c-0.0273-1.873-0.4785-3.291-1.3535-4.2559C266.3032,590.377,265.1001,589.8945,263.5688,589.8945z"/>
	<path fill="#4B5666" d="M298.6987,609.3359h-4.8398v-13.9453c0-1.75-0.3521-3.0557-1.0562-3.917s-1.8218-1.292-3.353-1.292
		c-2.0371,0-3.5273,0.6016-4.4707,1.8047s-1.415,3.2197-1.415,6.0498v11.2998h-4.8193v-22.6816h3.7734l0.6768,2.9736h0.2461
		c0.6836-1.0801,1.6543-1.9141,2.9121-2.502s2.6523-0.8818,4.1836-0.8818c5.4414,0,8.1621,2.7686,8.1621,8.3057V609.3359z"/>
	<path fill="#4B5666" d="M313.854,605.8496c1.1758,0,2.3516-0.1846,3.5273-0.5537v3.6299c-0.5332,0.2324-1.2202,0.4268-2.061,0.584
		s-1.7124,0.2363-2.6147,0.2363c-4.5664,0-6.8496-2.4062-6.8496-7.2188v-12.2227h-3.0967v-2.1328l3.3223-1.7637l1.6406-4.7988
		h2.9736v5.0449h6.46v3.6504h-6.46v12.1406c0,1.1621,0.2905,2.0195,0.8716,2.5742
		C312.1484,605.5723,312.9106,605.8496,313.854,605.8496z"/>
	<path fill="#4B5666" d="M337.9097,609.3359l-0.6768-2.9736h-0.2461c-0.6699,1.0527-1.6235,1.8799-2.8608,2.4814
		s-2.6489,0.9023-4.2349,0.9023c-2.748,0-4.7988-0.6836-6.1523-2.0508s-2.0303-3.4385-2.0303-6.2139v-14.8271h4.8604v13.9863
		c0,1.7363,0.3555,3.0391,1.0664,3.9062c0.7109,0.8691,1.8252,1.3027,3.3428,1.3027c2.0234,0,3.5103-0.6055,4.4604-1.8145
		c0.9502-1.2109,1.4253-3.2373,1.4253-6.0811v-11.2998h4.8398v22.6816H337.9097z"/>
	<path fill="#4B5666" d="M346.2563,619.4258c-1.4492,0-2.6523-0.1709-3.6094-0.5127v-3.8145
		c0.9297,0.2461,1.8799,0.3691,2.8506,0.3691c2.0508,0,3.0762-1.1621,3.0762-3.4863v-25.3271h4.8193v25.6553
		c0,2.3379-0.6118,4.1084-1.8354,5.3115S348.5669,619.4258,346.2563,619.4258z M348.2866,580.6455
		c0-0.8613,0.2358-1.5244,0.7075-1.9893s1.145-0.6973,2.02-0.6973c0.8477,0,1.5073,0.2324,1.979,0.6973s0.7075,1.1279,0.7075,1.9893
		c0,0.8203-0.2358,1.4658-0.7075,1.9385c-0.4717,0.4707-1.1313,0.707-1.979,0.707c-0.875,0-1.5483-0.2363-2.02-0.707
		C348.5225,582.1113,348.2866,581.4658,348.2866,580.6455z"/>
	<path fill="#4B5666" d="M53.9995,631.0459c0-0.8613,0.2358-1.5244,0.7075-1.9893s1.145-0.6973,2.02-0.6973
		c0.8477,0,1.5073,0.2324,1.979,0.6973s0.7075,1.1279,0.7075,1.9893c0,0.8203-0.2358,1.4658-0.7075,1.9385
		c-0.4717,0.4707-1.1313,0.707-1.979,0.707c-0.875,0-1.5483-0.2363-2.02-0.707C54.2354,632.5117,53.9995,631.8662,53.9995,631.0459z
		 M59.106,659.7363h-4.8193v-22.6816h4.8193V659.7363z"/>
	<path fill="#4B5666" d="M92.9028,659.7363l-0.6768-2.9736H91.98c-0.6699,1.0527-1.6235,1.8799-2.8608,2.4814
		s-2.6489,0.9023-4.2349,0.9023c-2.748,0-4.7988-0.6836-6.1523-2.0508s-2.0303-3.4385-2.0303-6.2139v-14.8271h4.8604v13.9863
		c0,1.7363,0.3555,3.0391,1.0664,3.9062c0.7109,0.8691,1.8252,1.3027,3.3428,1.3027c2.0234,0,3.5103-0.6055,4.4604-1.8145
		c0.9502-1.2109,1.4253-3.2373,1.4253-6.0811v-11.2998h4.8398v22.6816H92.9028z"/>
	<path fill="#4B5666" d="M112.7134,660.1465c-3.4316,0-6.0396-1.001-7.8237-3.0039s-2.6763-4.8779-2.6763-8.624
		c0-3.8145,0.9331-6.7471,2.7993-8.7979s4.563-3.0762,8.0903-3.0762c2.3926,0,4.5459,0.4443,6.46,1.333l-1.4561,3.876
		c-2.0371-0.793-3.7188-1.1895-5.0449-1.1895c-3.9238,0-5.8857,2.6045-5.8857,7.8135c0,2.543,0.4888,4.4541,1.4663,5.7314
		c0.9775,1.2793,2.4097,1.918,4.2964,1.918c2.1465,0,4.1768-0.5332,6.0908-1.5996v4.2041
		c-0.8613,0.5059-1.7808,0.8682-2.7583,1.0869S114.1079,660.1465,112.7134,660.1465z"/>
	<path fill="#4B5666" d="M139.5171,659.7363H122.311v-2.9736l11.4639-16.0166h-10.7666v-3.6914h16.1807v3.3633l-11.2178,15.627
		h11.5459V659.7363z"/>
	<path fill="#4B5666" d="M170.5864,653.2764c0,2.2148-0.8066,3.9141-2.4199,5.0967s-3.9238,1.7734-6.9316,1.7734
		c-3.0215,0-5.4482-0.458-7.2803-1.374v-4.1631c2.666,1.2305,5.1475,1.8457,7.4443,1.8457c2.9668,0,4.4502-0.8955,4.4502-2.6865
		c0-0.5742-0.1641-1.0527-0.4922-1.4355s-0.8682-0.7793-1.6201-1.1895s-1.7979-0.875-3.1377-1.3945
		c-2.6113-1.0117-4.3784-2.0234-5.3013-3.0352s-1.3843-2.3242-1.3843-3.9375c0-1.9414,0.7827-3.4482,2.3481-4.5225
		c1.5654-1.0723,3.6948-1.6094,6.3882-1.6094c2.666,0,5.1885,0.54,7.5674,1.6201l-1.5586,3.6299
		c-2.4473-1.0117-4.5049-1.5176-6.1729-1.5176c-2.543,0-3.8145,0.7246-3.8145,2.1738c0,0.7109,0.3315,1.3125,0.9946,1.8047
		s2.1089,1.1689,4.3374,2.0303c1.873,0.7246,3.2334,1.3877,4.0811,1.9893s1.4766,1.2959,1.8867,2.082
		S170.5864,652.1826,170.5864,653.2764z"/>
	<path fill="#4B5666" d="M175.5083,631.0459c0-0.8613,0.2358-1.5244,0.7075-1.9893s1.145-0.6973,2.02-0.6973
		c0.8477,0,1.5073,0.2324,1.979,0.6973s0.7075,1.1279,0.7075,1.9893c0,0.8203-0.2358,1.4658-0.7075,1.9385
		c-0.4717,0.4707-1.1313,0.707-1.979,0.707c-0.875,0-1.5483-0.2363-2.02-0.707
		C175.7441,632.5117,175.5083,631.8662,175.5083,631.0459z M180.6147,659.7363h-4.8193v-22.6816h4.8193V659.7363z"/>
	<path fill="#4B5666" d="M197.4106,660.1465c-3.5273,0-6.2856-1.0283-8.2749-3.0859s-2.9839-4.8916-2.9839-8.501
		c0-3.7051,0.9229-6.6172,2.7686-8.7363s4.3818-3.1787,7.6084-3.1787c2.9941,0,5.3594,0.9092,7.0957,2.7275
		s2.6045,4.3203,2.6045,7.5059v2.6045h-15.1143c0.0684,2.2012,0.6631,3.8936,1.7842,5.0762s2.7002,1.7734,4.7373,1.7734
		c1.3398,0,2.5874-0.126,3.7427-0.3789s2.396-0.6738,3.7222-1.2617v3.917c-1.1758,0.5605-2.3652,0.957-3.5684,1.1895
		S198.9556,660.1465,197.4106,660.1465z M196.5288,640.2949c-1.5312,0-2.7583,0.4854-3.6812,1.4561s-1.4731,2.3857-1.6509,4.2451
		h10.2949c-0.0273-1.873-0.4785-3.291-1.3535-4.2559C199.2632,640.7773,198.0601,640.2949,196.5288,640.2949z M200.3228,664.002
		c0,1.2168,0.6016,1.8252,1.8047,1.8252c0.5879,0,1.2988-0.1162,2.1328-0.3486v2.9531c-0.9434,0.2734-1.8936,0.4102-2.8506,0.4102
		c-1.5449,0-2.7139-0.3867-3.5068-1.1582c-0.793-0.7734-1.1895-1.8154-1.1895-3.1279c0-0.8887,0.2598-1.7568,0.7793-2.6045
		s1.4219-1.7568,2.707-2.7275h3.0557c-0.9434,0.9023-1.668,1.7256-2.1738,2.4717
		C200.5757,662.4395,200.3228,663.209,200.3228,664.002z"/>
	<path fill="#4B5666" d="M237.8521,653.2764c0,2.2148-0.8066,3.9141-2.4199,5.0967s-3.9238,1.7734-6.9316,1.7734
		c-3.0215,0-5.4482-0.458-7.2803-1.374v-4.1631c2.666,1.2305,5.1475,1.8457,7.4443,1.8457c2.9668,0,4.4502-0.8955,4.4502-2.6865
		c0-0.5742-0.1641-1.0527-0.4922-1.4355s-0.8682-0.7793-1.6201-1.1895s-1.7979-0.875-3.1377-1.3945
		c-2.6113-1.0117-4.3784-2.0234-5.3013-3.0352s-1.3843-2.3242-1.3843-3.9375c0-1.9414,0.7827-3.4482,2.3481-4.5225
		c1.5654-1.0723,3.6948-1.6094,6.3882-1.6094c2.666,0,5.1885,0.54,7.5674,1.6201l-1.5586,3.6299
		c-2.4473-1.0117-4.5049-1.5176-6.1729-1.5176c-2.543,0-3.8145,0.7246-3.8145,2.1738c0,0.7109,0.3315,1.3125,0.9946,1.8047
		s2.1089,1.1689,4.3374,2.0303c1.873,0.7246,3.2334,1.3877,4.0811,1.9893s1.4766,1.2959,1.8867,2.082
		S237.8521,652.1826,237.8521,653.2764z"/>
	<path fill="#4B5666" d="M258.2163,659.7363h-17.2061v-2.9736l11.4639-16.0166h-10.7666v-3.6914h16.1807v3.3633l-11.2178,15.627
		h11.5459V659.7363z"/>
	<path fill="#4B5666" d="M259.6929,637.0547h5.25l4.6143,12.8584c0.6973,1.832,1.1621,3.5547,1.3945,5.168h0.1641
		c0.123-0.752,0.3486-1.6641,0.6768-2.7373s2.0645-6.1699,5.209-15.2891h5.209l-9.7002,25.6963
		c-1.7637,4.7168-4.7031,7.0752-8.8184,7.0752c-1.0664,0-2.1055-0.1162-3.1172-0.3486v-3.8145
		c0.7246,0.1641,1.5518,0.2461,2.4814,0.2461c2.3242,0,3.958-1.3467,4.9014-4.04l0.8408-2.1328L259.6929,637.0547z"/>
	<path fill="#4B5666" d="M297.2427,636.6445c2.8301,0,5.0347,1.0254,6.6138,3.0762s2.3687,4.9287,2.3687,8.6338
		c0,3.7188-0.7998,6.6143-2.3994,8.6846c-1.5996,2.0723-3.8213,3.1074-6.665,3.1074c-2.8711,0-5.0996-1.0322-6.6855-3.0967h-0.3281
		l-0.8818,2.6865h-3.6094v-31.9102h4.8193v7.5879c0,0.5605-0.0273,1.3945-0.082,2.502s-0.0957,1.8115-0.123,2.1123h0.2051
		C292.0063,637.7725,294.2622,636.6445,297.2427,636.6445z M295.9917,640.582c-1.9414,0-3.3394,0.5713-4.1938,1.7129
		s-1.2954,3.0518-1.3228,5.7314v0.3281c0,2.7617,0.4375,4.7617,1.3125,5.999s2.3037,1.8555,4.2861,1.8555
		c1.709,0,3.0044-0.6768,3.8862-2.0303s1.3228-3.3086,1.3228-5.8652C301.2827,643.1592,299.519,640.582,295.9917,640.582z"/>
	<path fill="#4B5666" d="M316.479,647.7598l2.7275-3.4043l6.8496-7.3008h5.5576l-9.126,9.7412l9.7002,12.9404h-5.6602
		l-7.2803-9.9463l-2.6455,2.1738v7.7725h-4.7783v-31.9102h4.7783v15.5654l-0.2461,4.3682H316.479z"/>
	<path fill="#4B5666" d="M355.9565,648.3545c0,3.7051-0.9502,6.5967-2.8506,8.6748s-4.5459,3.1172-7.9365,3.1172
		c-2.1191,0-3.9922-0.4785-5.6191-1.4355s-2.8779-2.3311-3.7529-4.1221s-1.3125-3.8691-1.3125-6.2344
		c0-3.6777,0.9434-6.5488,2.8301-8.6133s4.5459-3.0967,7.9775-3.0967c3.2812,0,5.8789,1.0566,7.793,3.168
		C354.9995,641.9258,355.9565,644.7725,355.9565,648.3545z M339.4478,648.3545c0,5.2363,1.9346,7.8545,5.8037,7.8545
		c3.8281,0,5.7422-2.6182,5.7422-7.8545c0-5.1816-1.9277-7.7725-5.7832-7.7725c-2.0234,0-3.4897,0.6699-4.3989,2.0098
		S339.4478,645.8525,339.4478,648.3545z"/>
</g>
<path fill="#4B5666" d="M601.2812,88.3311c-9.9111,0-22.7549,5.8418-25.2822,15.6758l-0.002-0.002v0.002
	c-2.5273-9.834-15.3711-15.6758-25.2803-15.6758c-19.543,0-35.3936,15.1689-35.3936,35.3936
	c0,23.7969,14.0713,38.3584,29.4102,50.1758c9.2012,7.0898,29.6221,23.1357,31.2383,23.1357c0.0098,0,0.0176-0.002,0.0254-0.002
	s0.0176,0.002,0.0254,0.002c1.6172,0,22.0391-16.0459,31.2402-23.1357c15.3379-11.8174,29.4121-26.3789,29.4121-50.1758
	C636.6748,103.5,620.8242,88.3311,601.2812,88.3311z M536.9883,104.3398c-6.1104,4.5195-9.6162,11.585-9.6162,19.3848
	c0,1.2871-1.041,2.3301-2.3281,2.3301s-2.3301-1.043-2.3301-2.3301c0-9.293,4.1924-17.7227,11.5039-23.1299
	c1.0332-0.7656,2.4902-0.5469,3.2568,0.4873C538.2402,102.1162,538.0205,103.5762,536.9883,104.3398z"/>
<path fill-rule="evenodd" clip-rule="evenodd" fill="#4B5666" d="M244.1167,518.4824c0,14.9453-8.2681,27.9512-20.4751,34.7139
	c0,0-1.4834,0.8496-3.417,1.1836c-1.8804,0.3242-3.2686,0.3857-3.2686,0.3857h-12.5103h-12.5083c0,0-1.3901-0.0615-3.271-0.3857
	c-1.9331-0.334-3.4165-1.1836-3.4165-1.1836c-12.207-6.7627-20.4751-19.7686-20.4751-34.7139
	c0-16.502,10.0776-30.6465,24.4126-36.625v-22.5342c-1.9492,0-3.5293-1.5801-3.5293-3.5273v-6.207
	c0-1.9492,1.5801-3.5283,3.5293-3.5283h30.5166c1.9492,0,3.5298,1.5791,3.5298,3.5283v6.207c0,1.9473-1.5806,3.5273-3.5298,3.5273
	v22.5342C234.0391,487.8359,244.1167,501.9805,244.1167,518.4824z M214.6543,448.458h-20.4155
	c-1.2866,0-2.3296,1.0439-2.3296,2.3301c0,1.2871,1.043,2.3291,2.3296,2.3291h20.4155c1.2866,0,2.3306-1.042,2.3306-2.3291
	C216.9849,449.502,215.9409,448.458,214.6543,448.458z M216.9092,488.5605c-2.7051-1.1279-4.4683-3.7725-4.4683-6.7031v-22.5342
	h-15.9902v22.5342c0,2.9307-1.7622,5.5752-4.4678,6.7031c-12.1147,5.0537-19.9453,16.7998-19.9453,29.9219
	c0,11.7744,6.4092,22.6406,16.7266,28.3584c0.1572,0.0791,0.6587,0.2988,1.1396,0.3828c1.0723,0.1846,1.9355,0.2559,2.2476,0.2783
	h12.2944h12.2974c0.2939-0.0205,1.1636-0.0918,2.2471-0.2793c0.481-0.083,0.979-0.3027,1.1372-0.3818
	c10.3169-5.7178,16.7266-16.584,16.7266-28.3584C236.854,505.3604,229.0254,493.6143,216.9092,488.5605z M232.1948,518.4824
	c0,10.0059-5.4043,19.2441-14.124,24.1709c-0.6709,0.1104-1.2261,0.167-1.5117,0.1895h-24.2319
	c-0.2642-0.0215-0.8242-0.0771-1.5029-0.1895c-8.7207-4.9258-14.1289-14.165-14.1289-24.1709c0-3.5225,0.6699-6.8936,1.873-9.998
	h51.7563C231.5283,511.5889,232.1948,514.96,232.1948,518.4824z M196.0107,534.2666c-5.9766-3.7871-9.6782-10.4834-9.6782-17.5488
	c0-1.2871-1.0425-2.3291-2.3296-2.3291c-1.2856,0-2.3301,1.042-2.3301,2.3291c0,8.7676,4.6533,17.0723,12.1426,21.6699
	l0.4751,0.2764l0.6968,0.0752c0.0674,0.0059,0.1348,0.0088,0.2026,0.0088c1.1914,0,2.1646-0.9199,2.2695-2.1318
	C197.5488,535.5859,196.9238,534.6523,196.0107,534.2666z"/>
<path fill="#4B5666" d="M618.3379,831.3232h-84.6797c-1.9414,0-3.5186,1.5752-3.5186,3.5166l0.0039,32.6309
	c0,0.0029,0.002,0.0078,0.002,0.0117c0,9.8008,0,19.6309,0,22.917c0,7.2842,2.458,17.7812,11.8701,28.3242
	c13.4854,15.1035,33.9863,21.3076,33.9863,21.3076s20.501-6.2041,33.9863-21.3076c9.4121-10.543,11.8701-21.04,11.8701-28.3242
	c0-3.2861,0-13.1162,0-22.917c0-0.0039,0.002-0.0088,0.002-0.0117l-0.0049-32.6309
	C621.8555,832.8984,620.2793,831.3232,618.3379,831.3232z M551.249,914.3662c-0.4443,0.3955-0.999,0.5898-1.5498,0.5898
	c-0.6416,0-1.2793-0.2627-1.7393-0.7783c-9.2373-10.3447-10.6162-20.126-10.6162-25.0361c0-1.2861,1.042-2.3301,2.3281-2.3301
	c1.2871,0,2.3311,1.0439,2.3311,2.3301c0,4.2461,1.2246,12.7412,9.4326,21.9346C552.292,912.0352,552.207,913.5078,551.249,914.3662
	z M614.5967,867.3564c-0.001,0.041-0.001,0.084-0.001,0.126v22.917c0,4.5781-1.3037,13.7168-10.0244,23.4863
	c-9.5215,10.665-23.334,16.5176-28.5693,18.4619l-0.0039-93.7617h38.5947L614.5967,867.3564z"/>
<path fill-rule="evenodd" clip-rule="evenodd" fill="#4B5666" d="M1011.5254,487.6035c-0.1602,0-0.3301-0.0117-0.5098-0.0381
	l-6.7881-0.9492l-0.001,49.5664c0,1.9404-1.5312,3.9492-3.4014,4.4658l-49.8701,13.7334c-0.9346,0.2568-2.1689,0.3877-3.4014,0.3877
	c-1.2344,0-2.4658-0.1309-3.4023-0.3877l-49.8672-13.7334c-1.873-0.5166-3.4023-2.5254-3.4023-4.4658l0.001-49.5664l-6.791,0.9492
	c-0.1787,0.0264-0.3477,0.0381-0.5078,0.0381c-1.5664,0-2.2471-1.1543-1.5117-2.7529l9.543-20.7812
	c0.8105-1.7627,3.002-3.6299,4.875-4.1445l49.8682-13.7363c0.3125-0.0859,0.6025-0.1279,0.8672-0.1279
	c0.1182,0,0.2236,0.0176,0.3291,0.0342c0.1064-0.0166,0.2109-0.0342,0.3281-0.0342c0.2656,0,0.5557,0.042,0.8672,0.1279
	l49.8691,13.7363c1.8721,0.5146,4.0654,2.3818,4.876,4.1445l9.543,20.7812
	C1013.7734,486.4492,1013.0928,487.6035,1011.5254,487.6035z M898.4482,530.5283c0,1.2861,1.043,2.3281,2.3291,2.3281
	c1.2871,0,2.3291-1.042,2.3291-2.3281v-22.2285c0-1.2871-1.042-2.3291-2.3291-2.3291c-1.2861,0-2.3291,1.042-2.3291,2.3291V530.5283
	z M897.7256,464.416c-0.5508,0.1533-1.6387,1.0801-1.8779,1.5977l-7.4609,16.2461l46.6182-6.5381
	c0.2393-0.0791,0.6523-0.4346,0.7666-0.6572l7.0557-23.0732L897.7256,464.416z M947.9473,478.5869l-0.3926-1.2852v68.8408
	c0.8145,0,1.3506-0.0938,1.4736-0.126l47.9365-13.2021v-39.8848l-38.5527-5.4092
	C953.7344,486.8652,949.332,483.1074,947.9473,478.5869z M999.2617,466.0137c-0.2393-0.5176-1.3281-1.4443-1.8789-1.5977
	l-45.1016-12.4248l7.0566,23.0732c0.1133,0.2227,0.5273,0.5781,0.7666,0.6572l46.6172,6.5381L999.2617,466.0137z"/>
</svg>
