<?xml version="1.0" encoding="UTF-8"?>
<svg xmlns="http://www.w3.org/2000/svg" xmlns:xlink="http://www.w3.org/1999/xlink" width="1152pt" height="1152pt" viewBox="0 0 1152 1152" version="1.1">
<g id="surface1">
<path style=" stroke:none;fill-rule:nonzero;fill:rgb(29.411316%,33.724976%,39.99939%);fill-opacity:1;" d="M 1152 576 C 1152 894.121094 894.121094 1152 576 1152 C 257.878906 1152 0 894.121094 0 576 C 0 257.878906 257.878906 0 576 0 C 894.121094 0 1152 257.878906 1152 576 Z M 1152 576 "/>
<path style=" stroke:none;fill-rule:nonzero;fill:rgb(98.429871%,82.743835%,36.077881%);fill-opacity:1;" d="M 188.300781 188.289062 C 402.589844 -26.011719 749.410156 -26 963.710938 188.300781 L 576 576 Z M 188.300781 188.289062 "/>
<path style=" stroke:none;fill-rule:nonzero;fill:rgb(64.312744%,85.096741%,43.920898%);fill-opacity:1;" d="M 963.710938 188.289062 C 1178.011719 402.589844 1178 749.398438 963.699219 963.699219 L 576 576 Z M 963.710938 188.289062 "/>
<path style=" stroke:none;fill-rule:nonzero;fill:rgb(61.959839%,74.508667%,92.939758%);fill-opacity:1;" d="M 963.699219 963.710938 C 749.410156 1178.011719 402.589844 1178 188.289062 963.699219 L 576 576 Z M 963.699219 963.710938 "/>
<path style=" stroke:none;fill-rule:nonzero;fill:rgb(98.03772%,47.450256%,46.665955%);fill-opacity:1;" d="M 188.289062 963.710938 C -26.011719 749.410156 -26 402.601562 188.300781 188.300781 L 576 576 Z M 188.289062 963.710938 "/>
<path style=" stroke:none;fill-rule:nonzero;fill:rgb(29.411316%,33.724976%,39.99939%);fill-opacity:1;" d="M 756 576 C 756 675.410156 675.410156 756 576 756 C 476.589844 756 396 675.410156 396 576 C 396 476.589844 476.589844 396 576 396 C 675.410156 396 756 476.589844 756 576 Z M 756 576 "/>
<path style=" stroke:none;fill-rule:nonzero;fill:rgb(100%,100%,100%);fill-opacity:1;" d="M 466.71875 560.910156 L 451.648438 521.519531 L 451.398438 521.519531 C 451.691406 524.640625 451.828125 528.351562 451.828125 532.648438 L 451.828125 560.910156 L 447.058594 560.910156 L 447.058594 516.46875 L 454.839844 516.46875 L 468.910156 553.128906 L 469.148438 553.128906 L 483.351562 516.46875 L 491.070312 516.46875 L 491.070312 560.910156 L 485.898438 560.910156 L 485.898438 532.28125 C 485.898438 529 486.039062 525.429688 486.328125 521.578125 L 486.089844 521.578125 L 470.890625 560.910156 Z M 466.71875 560.910156 "/>
<path style=" stroke:none;fill-rule:nonzero;fill:rgb(100%,100%,100%);fill-opacity:1;" d="M 541.828125 538.628906 C 541.828125 545.75 540.03125 551.339844 536.441406 555.410156 C 532.839844 559.480469 527.839844 561.519531 521.441406 561.519531 C 514.890625 561.519531 509.839844 559.519531 506.28125 555.519531 C 502.730469 551.519531 500.949219 545.871094 500.949219 538.570312 C 500.949219 531.339844 502.730469 525.730469 506.300781 521.75 C 509.871094 517.769531 514.929688 515.769531 521.5 515.769531 C 527.878906 515.769531 532.871094 517.800781 536.449219 521.851562 C 540.039062 525.910156 541.828125 531.5 541.828125 538.628906 Z M 506.421875 538.628906 C 506.421875 544.648438 507.699219 549.21875 510.269531 552.328125 C 512.828125 555.441406 516.550781 556.988281 521.441406 556.988281 C 526.359375 556.988281 530.078125 555.441406 532.589844 552.339844 C 535.101562 549.238281 536.359375 544.671875 536.359375 538.628906 C 536.359375 532.648438 535.109375 528.121094 532.609375 525.03125 C 530.101562 521.941406 526.398438 520.390625 521.5 520.390625 C 516.570312 520.390625 512.828125 521.949219 510.269531 525.058594 C 507.699219 528.171875 506.421875 532.699219 506.421875 538.628906 Z M 506.421875 538.628906 "/>
<path style=" stroke:none;fill-rule:nonzero;fill:rgb(100%,100%,100%);fill-opacity:1;" d="M 587.21875 538.269531 C 587.21875 545.601562 585.21875 551.210938 581.238281 555.089844 C 577.261719 558.96875 571.53125 560.910156 564.050781 560.910156 L 551.738281 560.910156 L 551.738281 516.46875 L 565.359375 516.46875 C 572.269531 516.46875 577.640625 518.390625 581.46875 522.21875 C 585.300781 526.050781 587.21875 531.398438 587.21875 538.269531 Z M 581.738281 538.449219 C 581.738281 532.648438 580.289062 528.289062 577.378906 525.351562 C 574.46875 522.410156 570.148438 520.941406 564.421875 520.941406 L 556.910156 520.941406 L 556.910156 556.441406 L 563.199219 556.441406 C 569.359375 556.441406 573.988281 554.929688 577.089844 551.898438 C 580.191406 548.871094 581.738281 544.390625 581.738281 538.449219 Z M 581.738281 538.449219 "/>
<path style=" stroke:none;fill-rule:nonzero;fill:rgb(100%,100%,100%);fill-opacity:1;" d="M 621.898438 560.910156 L 597.121094 560.910156 L 597.121094 516.46875 L 621.898438 516.46875 L 621.898438 521.058594 L 602.289062 521.058594 L 602.289062 535.378906 L 620.710938 535.378906 L 620.710938 539.941406 L 602.289062 539.941406 L 602.289062 556.289062 L 621.898438 556.289062 Z M 621.898438 560.910156 "/>
<path style=" stroke:none;fill-rule:nonzero;fill:rgb(100%,100%,100%);fill-opacity:1;" d="M 636.910156 542.429688 L 636.910156 560.910156 L 631.75 560.910156 L 631.75 516.46875 L 643.941406 516.46875 C 649.390625 516.46875 653.410156 517.519531 656.019531 519.601562 C 658.621094 521.691406 659.921875 524.828125 659.921875 529.03125 C 659.921875 534.898438 656.949219 538.878906 650.988281 540.941406 L 663.050781 560.910156 L 656.949219 560.910156 L 646.179688 542.429688 Z M 636.910156 537.988281 L 644 537.988281 C 647.640625 537.988281 650.320312 537.269531 652.019531 535.820312 C 653.71875 534.371094 654.570312 532.199219 654.570312 529.300781 C 654.570312 526.359375 653.710938 524.25 651.980469 522.949219 C 650.238281 521.648438 647.460938 521 643.628906 521 L 636.910156 521 Z M 636.910156 537.988281 "/>
<path style=" stroke:none;fill-rule:nonzero;fill:rgb(100%,100%,100%);fill-opacity:1;" d="M 704.941406 560.910156 L 699.039062 560.910156 L 674.761719 523.621094 L 674.511719 523.621094 C 674.839844 527.988281 675 532.011719 675 535.648438 L 675 560.910156 L 670.230469 560.910156 L 670.230469 516.46875 L 676.070312 516.46875 L 700.289062 553.621094 L 700.53125 553.621094 C 700.488281 553.070312 700.398438 551.308594 700.261719 548.339844 C 700.121094 545.378906 700.070312 543.25 700.109375 541.980469 L 700.109375 516.46875 L 704.941406 516.46875 Z M 704.941406 560.910156 "/>
<path style=" stroke:none;fill-rule:nonzero;fill:rgb(100%,100%,100%);fill-opacity:1;" d="M 525.539062 635.621094 L 520.011719 621.480469 L 502.199219 621.480469 L 496.71875 635.621094 L 491.5 635.621094 L 509.070312 590.988281 L 513.410156 590.988281 L 530.890625 635.621094 Z M 518.398438 616.828125 L 513.230469 603.058594 C 512.558594 601.320312 511.871094 599.179688 511.160156 596.648438 C 510.71875 598.589844 510.078125 600.730469 509.25 603.058594 L 504.019531 616.828125 Z M 518.398438 616.828125 "/>
<path style=" stroke:none;fill-rule:nonzero;fill:rgb(100%,100%,100%);fill-opacity:1;" d="M 556.550781 612.328125 L 571.648438 612.328125 L 571.648438 633.941406 C 569.300781 634.691406 566.910156 635.261719 564.480469 635.648438 C 562.050781 636.03125 559.230469 636.21875 556.03125 636.21875 C 549.300781 636.21875 544.058594 634.21875 540.308594 630.21875 C 536.558594 626.21875 534.691406 620.609375 534.691406 613.398438 C 534.691406 608.78125 535.621094 604.730469 537.46875 601.25 C 539.328125 597.78125 541.988281 595.121094 545.480469 593.289062 C 548.96875 591.460938 553.050781 590.539062 557.730469 590.539062 C 562.46875 590.539062 566.890625 591.410156 570.980469 593.148438 L 568.980469 597.710938 C 564.96875 596.011719 561.109375 595.160156 557.398438 595.160156 C 551.988281 595.160156 547.761719 596.769531 544.71875 599.988281 C 541.679688 603.210938 540.160156 607.679688 540.160156 613.398438 C 540.160156 619.390625 541.628906 623.941406 544.550781 627.039062 C 547.480469 630.140625 551.78125 631.699219 557.460938 631.699219 C 560.539062 631.699219 563.550781 631.339844 566.488281 630.628906 L 566.488281 616.949219 L 556.550781 616.949219 Z M 556.550781 612.328125 "/>
<path style=" stroke:none;fill-rule:nonzero;fill:rgb(100%,100%,100%);fill-opacity:1;" d="M 582.320312 635.621094 L 582.320312 591.179688 L 587.488281 591.179688 L 587.488281 635.621094 Z M 582.320312 635.621094 "/>
<path style=" stroke:none;fill-rule:nonzero;fill:rgb(100%,100%,100%);fill-opacity:1;" d="M 599.679688 635.621094 L 599.679688 591.179688 L 604.851562 591.179688 L 604.851562 630.941406 L 624.449219 630.941406 L 624.449219 635.621094 Z M 599.679688 635.621094 "/>
<path style=" stroke:none;fill-rule:nonzero;fill:rgb(100%,100%,100%);fill-opacity:1;" d="M 656.761719 635.621094 L 631.988281 635.621094 L 631.988281 591.179688 L 656.761719 591.179688 L 656.761719 595.769531 L 637.160156 595.769531 L 637.160156 610.078125 L 655.578125 610.078125 L 655.578125 614.640625 L 637.160156 614.640625 L 637.160156 631 L 656.761719 631 Z M 656.761719 635.621094 "/>
<path style=" stroke:none;fill-rule:nonzero;fill:rgb(29.411316%,33.724976%,39.99939%);fill-opacity:1;" d="M 596.121094 84.46875 C 588.230469 84.46875 578.011719 89.121094 576 96.949219 C 573.988281 89.121094 563.769531 84.46875 555.878906 84.46875 C 540.328125 84.46875 527.71875 96.539062 527.71875 112.640625 C 527.71875 131.570312 538.910156 143.160156 551.121094 152.558594 C 558.441406 158.210938 574.691406 170.96875 575.980469 170.96875 C 575.988281 170.96875 575.988281 170.96875 576 170.96875 C 576 170.96875 576.011719 170.96875 576.019531 170.96875 C 577.300781 170.96875 593.550781 158.210938 600.878906 152.558594 C 613.078125 143.160156 624.28125 131.570312 624.28125 112.640625 C 624.28125 96.539062 611.671875 84.46875 596.121094 84.46875 Z M 544.960938 97.210938 C 540.089844 100.808594 537.300781 106.429688 537.300781 112.640625 C 537.300781 113.660156 536.480469 114.488281 535.449219 114.488281 C 534.429688 114.488281 533.601562 113.660156 533.601562 112.640625 C 533.601562 105.238281 536.929688 98.539062 542.75 94.230469 C 543.570312 93.621094 544.730469 93.800781 545.339844 94.621094 C 545.949219 95.441406 545.78125 96.609375 544.960938 97.210938 Z M 544.960938 97.210938 "/>
<path style=" stroke:none;fill-rule:nonzero;fill:rgb(29.411316%,33.724976%,39.99939%);fill-opacity:1;" d="M 609.691406 812.828125 L 542.308594 812.828125 C 540.761719 812.828125 539.511719 814.078125 539.511719 815.628906 L 539.511719 841.589844 C 539.511719 841.589844 539.511719 841.601562 539.511719 841.601562 C 539.511719 849.398438 539.511719 857.21875 539.511719 859.839844 C 539.511719 865.628906 541.46875 873.980469 548.960938 882.378906 C 559.691406 894.390625 576 899.328125 576 899.328125 C 576 899.328125 592.308594 894.390625 603.039062 882.378906 C 610.53125 873.980469 612.488281 865.628906 612.488281 859.839844 C 612.488281 857.21875 612.488281 849.398438 612.488281 841.601562 C 612.488281 841.601562 612.488281 841.589844 612.488281 841.589844 L 612.488281 815.628906 C 612.488281 814.078125 611.230469 812.828125 609.691406 812.828125 Z M 556.308594 878.910156 C 555.949219 879.21875 555.511719 879.378906 555.070312 879.378906 C 554.558594 879.378906 554.050781 879.171875 553.691406 878.761719 C 546.339844 870.53125 545.238281 862.738281 545.238281 858.839844 C 545.238281 857.808594 546.070312 856.980469 547.089844 856.980469 C 548.121094 856.980469 548.949219 857.808594 548.949219 858.839844 C 548.949219 862.21875 549.921875 868.96875 556.449219 876.289062 C 557.140625 877.050781 557.070312 878.21875 556.308594 878.910156 Z M 606.710938 841.5 C 606.710938 841.53125 606.710938 841.570312 606.710938 841.601562 L 606.710938 859.839844 C 606.710938 863.480469 605.671875 870.75 598.730469 878.53125 C 591.160156 887.011719 580.171875 891.671875 576 893.21875 L 576 818.609375 L 606.710938 818.609375 Z M 606.710938 841.5 "/>
<path style=" stroke:none;fill-rule:nonzero;fill:rgb(29.411316%,33.724976%,39.99939%);fill-opacity:1;" d="M 243.449219 506.398438 C 243.449219 518.289062 236.871094 528.640625 227.160156 534.019531 C 227.160156 534.019531 225.980469 534.699219 224.441406 534.96875 C 222.941406 535.21875 221.839844 535.269531 221.839844 535.269531 L 201.929688 535.269531 C 201.929688 535.269531 200.820312 535.21875 199.328125 534.96875 C 197.789062 534.699219 196.609375 534.019531 196.609375 534.019531 C 186.898438 528.640625 180.320312 518.289062 180.320312 506.398438 C 180.320312 493.269531 188.328125 482.011719 199.738281 477.261719 L 199.738281 459.328125 C 198.191406 459.328125 196.929688 458.070312 196.929688 456.519531 L 196.929688 451.578125 C 196.929688 450.03125 198.191406 448.769531 199.738281 448.769531 L 224.019531 448.769531 C 225.578125 448.769531 226.828125 450.03125 226.828125 451.578125 L 226.828125 456.519531 C 226.828125 458.070312 225.578125 459.328125 224.019531 459.328125 L 224.019531 477.261719 C 235.429688 482.011719 243.449219 493.269531 243.449219 506.398438 Z M 220.011719 450.679688 L 203.761719 450.679688 C 202.738281 450.679688 201.910156 451.511719 201.910156 452.53125 C 201.910156 453.558594 202.738281 454.390625 203.761719 454.390625 L 220.011719 454.390625 C 221.03125 454.390625 221.859375 453.558594 221.859375 452.53125 C 221.859375 451.511719 221.03125 450.679688 220.011719 450.679688 Z M 221.800781 482.589844 C 219.648438 481.691406 218.25 479.589844 218.25 477.261719 L 218.25 459.328125 L 205.519531 459.328125 L 205.519531 477.261719 C 205.519531 479.589844 204.121094 481.691406 201.96875 482.589844 C 192.328125 486.609375 186.101562 495.960938 186.101562 506.398438 C 186.101562 515.769531 191.199219 524.421875 199.398438 528.96875 C 199.53125 529.03125 199.929688 529.199219 200.308594 529.269531 C 201.160156 529.421875 201.851562 529.46875 202.101562 529.488281 L 221.671875 529.488281 C 221.898438 529.480469 222.589844 529.421875 223.460938 529.269531 C 223.839844 529.199219 224.238281 529.03125 224.359375 528.96875 C 232.570312 524.421875 237.671875 515.769531 237.671875 506.398438 C 237.671875 495.960938 231.441406 486.609375 221.800781 482.589844 Z M 233.960938 506.398438 C 233.960938 514.359375 229.660156 521.710938 222.730469 525.628906 C 222.191406 525.71875 221.75 525.769531 221.519531 525.78125 L 202.238281 525.78125 C 202.03125 525.769531 201.578125 525.71875 201.039062 525.628906 C 194.101562 521.710938 189.800781 514.359375 189.800781 506.398438 C 189.800781 503.601562 190.328125 500.910156 191.289062 498.441406 L 232.480469 498.441406 C 233.429688 500.910156 233.960938 503.601562 233.960938 506.398438 Z M 205.171875 518.960938 C 200.421875 515.949219 197.46875 510.621094 197.46875 505 C 197.46875 503.96875 196.640625 503.140625 195.621094 503.140625 C 194.589844 503.140625 193.761719 503.96875 193.761719 505 C 193.761719 511.96875 197.460938 518.578125 203.421875 522.238281 L 203.800781 522.460938 L 204.359375 522.519531 C 204.410156 522.519531 204.460938 522.53125 204.519531 522.53125 C 205.46875 522.53125 206.238281 521.789062 206.320312 520.828125 C 206.398438 520.011719 205.898438 519.269531 205.171875 518.960938 Z M 205.171875 518.960938 "/>
<path style=" stroke:none;fill-rule:nonzero;fill:rgb(29.411316%,33.724976%,39.99939%);fill-opacity:1;" d="M 991.121094 481.828125 C 990.988281 481.828125 990.851562 481.820312 990.710938 481.800781 L 985.308594 481.039062 L 985.308594 520.480469 C 985.308594 522.03125 984.089844 523.621094 982.601562 524.039062 L 942.921875 534.960938 C 942.179688 535.171875 941.191406 535.269531 940.210938 535.269531 C 939.230469 535.269531 938.25 535.171875 937.511719 534.960938 L 897.828125 524.039062 C 896.339844 523.621094 895.121094 522.03125 895.121094 520.480469 L 895.121094 481.039062 L 889.71875 481.800781 C 889.578125 481.820312 889.441406 481.828125 889.308594 481.828125 C 888.070312 481.828125 887.53125 480.910156 888.109375 479.640625 L 895.699219 463.101562 C 896.351562 461.699219 898.089844 460.210938 899.578125 459.800781 L 939.261719 448.871094 C 939.511719 448.808594 939.738281 448.769531 939.949219 448.769531 C 940.050781 448.769531 940.128906 448.789062 940.21875 448.800781 C 940.300781 448.789062 940.378906 448.769531 940.480469 448.769531 C 940.691406 448.769531 940.921875 448.808594 941.171875 448.871094 L 980.851562 459.800781 C 982.339844 460.210938 984.078125 461.699219 984.730469 463.101562 L 992.320312 479.640625 C 992.910156 480.910156 992.359375 481.828125 991.121094 481.828125 Z M 901.140625 515.980469 C 901.140625 517.011719 901.96875 517.839844 902.988281 517.839844 C 904.019531 517.839844 904.851562 517.011719 904.851562 515.980469 L 904.851562 498.300781 C 904.851562 497.269531 904.019531 496.441406 902.988281 496.441406 C 901.96875 496.441406 901.140625 497.269531 901.140625 498.300781 Z M 900.570312 463.378906 C 900.128906 463.5 899.261719 464.238281 899.070312 464.648438 L 893.128906 477.578125 L 930.230469 472.371094 C 930.421875 472.308594 930.75 472.03125 930.839844 471.851562 L 936.449219 453.488281 Z M 940.53125 474.648438 L 940.210938 473.628906 L 940.210938 528.410156 C 940.859375 528.410156 941.289062 528.328125 941.390625 528.308594 L 979.53125 517.800781 L 979.53125 486.070312 L 948.851562 481.761719 C 945.128906 481.238281 941.628906 478.25 940.53125 474.648438 Z M 981.359375 464.648438 C 981.171875 464.238281 980.300781 463.5 979.859375 463.378906 L 943.980469 453.488281 L 949.589844 471.851562 C 949.679688 472.03125 950.011719 472.308594 950.199219 472.371094 L 987.289062 477.578125 Z M 981.359375 464.648438 "/>
<path style=" stroke:none;fill-rule:nonzero;fill:rgb(29.411316%,33.724976%,39.99939%);fill-opacity:1;" d="M 488.730469 223 L 488.730469 194.089844 L 496.601562 194.089844 C 496.601562 194.089844 501.839844 194.089844 504.121094 195.859375 C 504.121094 195.859375 506.410156 197.628906 506.410156 201.671875 C 506.410156 201.671875 506.410156 206.28125 503.28125 208.898438 C 503.28125 208.898438 500.160156 211.519531 494.609375 211.519531 L 492.789062 211.519531 L 492.789062 223 Z M 492.789062 208.410156 L 494.449219 208.410156 C 494.449219 208.410156 498.109375 208.410156 500.101562 206.730469 C 500.101562 206.730469 502.089844 205.050781 502.089844 201.980469 C 502.089844 201.980469 502.089844 199.390625 500.53125 198.269531 C 500.53125 198.269531 498.960938 197.160156 495.308594 197.160156 L 492.789062 197.160156 Z M 521.789062 220.300781 C 521.789062 220.300781 518.328125 223.488281 515.128906 223.488281 C 515.128906 223.488281 512.488281 223.488281 510.75 221.839844 C 510.75 221.839844 509.011719 220.191406 509.011719 217.671875 C 509.011719 217.671875 509.011719 214.191406 511.929688 212.328125 C 511.929688 212.328125 514.851562 210.460938 520.300781 210.460938 L 521.21875 210.460938 L 521.21875 207.898438 C 521.21875 207.898438 521.21875 204.210938 517.429688 204.210938 C 517.429688 204.210938 514.378906 204.210938 510.851562 206.089844 L 510.851562 202.898438 C 510.851562 202.898438 514.730469 201.320312 518.128906 201.320312 C 518.128906 201.320312 521.691406 201.320312 523.378906 202.921875 C 523.378906 202.921875 525.070312 204.519531 525.070312 207.898438 L 525.070312 217.511719 C 525.070312 217.511719 525.070312 220.808594 527.101562 220.808594 C 527.101562 220.808594 527.351562 220.808594 527.839844 220.730469 L 528.109375 222.859375 C 528.109375 222.859375 526.800781 223.488281 525.21875 223.488281 C 525.21875 223.488281 522.53125 223.488281 521.789062 220.300781 Z M 521.21875 218.210938 L 521.21875 212.730469 L 519.929688 212.691406 C 519.929688 212.691406 516.769531 212.691406 514.808594 213.890625 C 514.808594 213.890625 512.859375 215.089844 512.859375 217.039062 C 512.859375 217.039062 512.859375 218.429688 513.839844 219.390625 C 513.839844 219.390625 514.808594 220.339844 516.21875 220.339844 C 516.21875 220.339844 518.621094 220.339844 521.21875 218.210938 Z M 546.460938 223 L 546.460938 219.019531 C 546.460938 219.019531 544.121094 223.488281 539.390625 223.488281 C 539.390625 223.488281 535.558594 223.488281 533.371094 220.699219 C 533.371094 220.699219 531.171875 217.898438 531.171875 213.058594 C 531.171875 213.058594 531.171875 207.769531 533.660156 204.539062 C 533.660156 204.539062 536.148438 201.320312 540.210938 201.320312 C 540.210938 201.320312 543.980469 201.320312 546.460938 204.210938 L 546.460938 192.160156 L 550.328125 192.160156 L 550.328125 223 Z M 546.460938 206.851562 C 546.460938 206.851562 543.46875 204.210938 540.800781 204.210938 C 540.800781 204.210938 535.269531 204.210938 535.269531 212.671875 C 535.269531 212.671875 535.269531 220.109375 540.191406 220.109375 C 540.191406 220.109375 543.390625 220.109375 546.460938 216.609375 Z M 573.390625 222.320312 C 573.390625 222.320312 569.53125 223.488281 566.769531 223.488281 C 566.769531 223.488281 562.089844 223.488281 559.128906 220.371094 C 559.128906 220.371094 556.171875 217.261719 556.171875 212.300781 C 556.171875 212.300781 556.171875 207.46875 558.78125 204.390625 C 558.78125 204.390625 561.378906 201.300781 565.449219 201.300781 C 565.449219 201.300781 569.289062 201.300781 571.390625 204.039062 C 571.390625 204.039062 573.488281 206.769531 573.488281 211.808594 L 573.46875 213 L 560.089844 213 C 560.089844 213 560.929688 220.558594 567.5 220.558594 C 567.5 220.558594 569.898438 220.558594 573.390625 219.269531 Z M 560.269531 210.109375 L 569.628906 210.109375 C 569.628906 210.109375 569.628906 204.191406 565.210938 204.191406 C 565.210938 204.191406 560.78125 204.191406 560.269531 210.109375 Z M 563.46875 197.941406 L 563.46875 194.089844 L 567.320312 194.089844 L 567.320312 197.941406 Z M 579.851562 223 L 579.851562 192.160156 L 583.699219 192.160156 L 583.699219 212.078125 L 592.679688 201.789062 L 596.820312 201.789062 L 588.25 211.691406 L 598.601562 223 L 593.679688 223 L 583.699219 212.121094 L 583.699219 223 Z M 602.851562 223 L 602.851562 201.789062 L 606.699219 201.789062 L 606.699219 223 Z M 602.851562 197.941406 L 602.851562 194.089844 L 606.699219 194.089844 L 606.699219 197.941406 Z M 614.851562 223 L 614.851562 201.789062 L 618.699219 201.789062 L 618.699219 205.769531 C 618.699219 205.769531 621.511719 201.320312 625.921875 201.320312 C 625.921875 201.320312 630.179688 201.320312 631.71875 205.769531 C 631.71875 205.769531 634.460938 201.300781 638.828125 201.300781 C 638.828125 201.300781 641.640625 201.300781 643.191406 202.949219 C 643.191406 202.949219 644.730469 204.601562 644.730469 207.570312 L 644.730469 223 L 640.859375 223 L 640.859375 208.179688 C 640.859375 208.179688 640.859375 204.539062 637.988281 204.539062 C 637.988281 204.539062 635 204.539062 631.71875 208.78125 L 631.71875 223 L 627.859375 223 L 627.859375 208.179688 C 627.859375 208.179688 627.859375 204.519531 624.929688 204.519531 C 624.929688 204.519531 622.019531 204.519531 618.699219 208.78125 L 618.699219 223 Z M 667.390625 222.320312 C 667.390625 222.320312 663.53125 223.488281 660.769531 223.488281 C 660.769531 223.488281 656.089844 223.488281 653.128906 220.371094 C 653.128906 220.371094 650.171875 217.261719 650.171875 212.300781 C 650.171875 212.300781 650.171875 207.46875 652.78125 204.390625 C 652.78125 204.390625 655.378906 201.300781 659.449219 201.300781 C 659.449219 201.300781 663.289062 201.300781 665.390625 204.039062 C 665.390625 204.039062 667.488281 206.769531 667.488281 211.808594 L 667.46875 213 L 654.089844 213 C 654.089844 213 654.929688 220.558594 661.5 220.558594 C 661.5 220.558594 663.898438 220.558594 667.390625 219.269531 Z M 654.269531 210.109375 L 663.628906 210.109375 C 663.628906 210.109375 663.628906 204.191406 659.210938 204.191406 C 659.210938 204.191406 654.78125 204.191406 654.269531 210.109375 Z M 654.269531 210.109375 "/>
<path style=" stroke:none;fill-rule:nonzero;fill:rgb(29.411316%,33.724976%,39.99939%);fill-opacity:1;" d="M 440.398438 271 L 440.398438 268.109375 L 453.53125 252.679688 L 441.011719 252.679688 L 441.011719 249.789062 L 458.269531 249.789062 L 458.269531 252.679688 L 445.148438 268.109375 L 458.53125 268.109375 L 458.53125 271 Z M 456.339844 239.671875 L 451.628906 245.941406 L 447.378906 245.941406 L 442.671875 239.671875 L 445.558594 239.671875 L 449.480469 243.621094 L 449.519531 243.621094 L 453.449219 239.671875 Z M 464.851562 271 L 464.851562 249.789062 L 468.699219 249.789062 L 468.699219 253.769531 C 468.699219 253.769531 471.511719 249.320312 475.921875 249.320312 C 475.921875 249.320312 480.179688 249.320312 481.71875 253.769531 C 481.71875 253.769531 484.460938 249.300781 488.828125 249.300781 C 488.828125 249.300781 491.640625 249.300781 493.191406 250.949219 C 493.191406 250.949219 494.730469 252.601562 494.730469 255.570312 L 494.730469 271 L 490.859375 271 L 490.859375 256.179688 C 490.859375 256.179688 490.859375 252.539062 487.988281 252.539062 C 487.988281 252.539062 485 252.539062 481.71875 256.78125 L 481.71875 271 L 477.859375 271 L 477.859375 256.179688 C 477.859375 256.179688 477.859375 252.519531 474.929688 252.519531 C 474.929688 252.519531 472.019531 252.519531 468.699219 256.78125 L 468.699219 271 Z M 510.148438 271.488281 C 510.148438 271.488281 505.601562 271.488281 502.878906 268.46875 C 502.878906 268.46875 500.171875 265.449219 500.171875 260.390625 C 500.171875 260.390625 500.171875 255.28125 502.890625 252.300781 C 502.890625 252.300781 505.621094 249.320312 510.289062 249.320312 C 510.289062 249.320312 514.949219 249.320312 517.679688 252.300781 C 517.679688 252.300781 520.398438 255.28125 520.398438 260.359375 C 520.398438 260.359375 520.398438 265.550781 517.671875 268.519531 C 517.671875 268.519531 514.929688 271.488281 510.148438 271.488281 Z M 510.210938 268.601562 C 510.210938 268.601562 516.320312 268.601562 516.320312 260.359375 C 516.320312 260.359375 516.320312 252.210938 510.289062 252.210938 C 510.289062 252.210938 504.269531 252.210938 504.269531 260.390625 C 504.269531 260.390625 504.269531 268.601562 510.210938 268.601562 Z M 526.851562 271 L 526.851562 249.789062 L 530.699219 249.789062 L 530.699219 253.769531 C 530.699219 253.769531 533.738281 249.320312 538.160156 249.320312 C 538.160156 249.320312 540.910156 249.320312 542.550781 251.070312 C 542.550781 251.070312 544.191406 252.820312 544.191406 255.769531 L 544.191406 271 L 540.339844 271 L 540.339844 257.019531 C 540.339844 257.019531 540.339844 254.648438 539.648438 253.648438 C 539.648438 253.648438 538.960938 252.640625 537.359375 252.640625 C 537.359375 252.640625 533.820312 252.640625 530.699219 257.269531 L 530.699219 271 Z M 567.390625 270.320312 C 567.390625 270.320312 563.53125 271.488281 560.769531 271.488281 C 560.769531 271.488281 556.089844 271.488281 553.128906 268.371094 C 553.128906 268.371094 550.171875 265.261719 550.171875 260.300781 C 550.171875 260.300781 550.171875 255.46875 552.78125 252.390625 C 552.78125 252.390625 555.378906 249.300781 559.449219 249.300781 C 559.449219 249.300781 563.289062 249.300781 565.390625 252.039062 C 565.390625 252.039062 567.488281 254.769531 567.488281 259.808594 L 567.46875 261 L 554.089844 261 C 554.089844 261 554.929688 268.558594 561.5 268.558594 C 561.5 268.558594 563.898438 268.558594 567.390625 267.269531 Z M 554.269531 258.109375 L 563.628906 258.109375 C 563.628906 258.109375 563.628906 252.191406 559.210938 252.191406 C 559.210938 252.191406 554.78125 252.191406 554.269531 258.109375 Z M 557.46875 245.941406 L 557.46875 242.089844 L 561.320312 242.089844 L 561.320312 245.941406 Z M 573.851562 271 L 573.851562 249.789062 L 577.699219 249.789062 L 577.699219 253.769531 C 577.699219 253.769531 580.511719 249.320312 584.921875 249.320312 C 584.921875 249.320312 589.179688 249.320312 590.71875 253.769531 C 590.71875 253.769531 593.460938 249.300781 597.828125 249.300781 C 597.828125 249.300781 600.640625 249.300781 602.191406 250.949219 C 602.191406 250.949219 603.730469 252.601562 603.730469 255.570312 L 603.730469 271 L 599.859375 271 L 599.859375 256.179688 C 599.859375 256.179688 599.859375 252.539062 596.988281 252.539062 C 596.988281 252.539062 594 252.539062 590.71875 256.78125 L 590.71875 271 L 586.859375 271 L 586.859375 256.179688 C 586.859375 256.179688 586.859375 252.519531 583.929688 252.519531 C 583.929688 252.519531 581.019531 252.519531 577.699219 256.78125 L 577.699219 271 Z M 616.46875 271.488281 C 616.46875 271.488281 613.839844 271.488281 610.070312 270.261719 L 610.070312 266.71875 C 610.070312 266.71875 613.839844 268.601562 616.628906 268.601562 C 616.628906 268.601562 618.289062 268.601562 619.378906 267.699219 C 619.378906 267.699219 620.480469 266.800781 620.480469 265.449219 C 620.480469 265.449219 620.480469 263.480469 617.410156 262.191406 L 615.160156 261.230469 C 615.160156 261.230469 610.179688 259.160156 610.179688 255.28125 C 610.179688 255.28125 610.179688 252.5 612.148438 250.910156 C 612.148438 250.910156 614.109375 249.320312 617.53125 249.320312 C 617.53125 249.320312 619.300781 249.320312 621.921875 249.808594 L 622.71875 249.960938 L 622.71875 253.171875 C 622.71875 253.171875 619.5 252.210938 617.609375 252.210938 C 617.609375 252.210938 613.890625 252.210938 613.890625 254.910156 C 613.890625 254.910156 613.890625 256.640625 616.710938 257.839844 L 618.558594 258.621094 C 618.558594 258.621094 621.710938 259.949219 623.019531 261.421875 C 623.019531 261.421875 624.320312 262.890625 624.320312 265.101562 C 624.320312 265.101562 624.320312 267.890625 622.121094 269.691406 C 622.121094 269.691406 619.910156 271.488281 616.46875 271.488281 Z M 643.851562 271.230469 L 643.851562 240.160156 L 647.699219 240.160156 L 647.699219 253.769531 C 647.699219 253.769531 650.058594 249.320312 654.789062 249.320312 C 654.789062 249.320312 658.609375 249.320312 660.808594 252.109375 C 660.808594 252.109375 663.011719 254.910156 663.011719 259.75 C 663.011719 259.75 663.011719 265.019531 660.519531 268.261719 C 660.519531 268.261719 658.03125 271.488281 653.960938 271.488281 C 653.960938 271.488281 650.199219 271.488281 647.699219 268.601562 L 647.230469 271.230469 Z M 647.699219 265.941406 C 647.699219 265.941406 650.660156 268.601562 653.359375 268.601562 C 653.359375 268.601562 658.910156 268.601562 658.910156 260.140625 C 658.910156 260.140625 658.910156 252.679688 653.980469 252.679688 C 653.980469 252.679688 650.761719 252.679688 647.699219 256.179688 Z M 682.109375 271 L 682.109375 267.019531 C 682.109375 267.019531 679.039062 271.488281 674.671875 271.488281 C 674.671875 271.488281 671.890625 271.488281 670.25 269.738281 C 670.25 269.738281 668.609375 267.988281 668.609375 265.019531 L 668.609375 249.789062 L 672.460938 249.789062 L 672.460938 263.769531 C 672.460938 263.769531 672.460938 266.160156 673.148438 267.160156 C 673.148438 267.160156 673.851562 268.171875 675.46875 268.171875 C 675.46875 268.171875 678.980469 268.171875 682.109375 263.539062 L 682.109375 249.789062 L 685.960938 249.789062 L 685.960938 271 Z M 671.019531 245.941406 L 671.019531 243.050781 L 683.550781 243.050781 L 683.550781 245.941406 Z M 700.210938 271.488281 C 700.210938 271.488281 697.289062 271.488281 695.640625 269.808594 C 695.640625 269.808594 694 268.128906 694 265.140625 L 694 252.679688 L 691.351562 252.679688 L 691.351562 249.789062 L 694 249.789062 L 694 245.941406 L 697.851562 245.570312 L 697.851562 249.789062 L 703.398438 249.789062 L 703.398438 252.679688 L 697.851562 252.679688 L 697.851562 264.441406 C 697.851562 264.441406 697.851562 268.601562 701.449219 268.601562 C 701.449219 268.601562 702.210938 268.601562 703.300781 268.339844 L 703.300781 271 C 703.300781 271 701.519531 271.488281 700.210938 271.488281 Z M 708.851562 271 L 708.851562 249.789062 L 712.699219 249.789062 L 712.699219 271 Z M 708.851562 245.941406 L 708.851562 242.089844 L 712.699219 242.089844 L 712.699219 245.941406 Z M 708.851562 245.941406 "/>
<path style=" stroke:none;fill-rule:nonzero;fill:rgb(29.411316%,33.724976%,39.99939%);fill-opacity:1;" d="M 469.851562 319 L 469.851562 297.789062 L 473.699219 297.789062 L 473.699219 301.769531 C 473.699219 301.769531 476.738281 297.320312 481.160156 297.320312 C 481.160156 297.320312 483.910156 297.320312 485.550781 299.070312 C 485.550781 299.070312 487.191406 300.820312 487.191406 303.769531 L 487.191406 319 L 483.339844 319 L 483.339844 305.019531 C 483.339844 305.019531 483.339844 302.648438 482.648438 301.648438 C 482.648438 301.648438 481.960938 300.640625 480.359375 300.640625 C 480.359375 300.640625 476.820312 300.640625 473.699219 305.269531 L 473.699219 319 Z M 508.109375 319 L 508.109375 315.019531 C 508.109375 315.019531 505.039062 319.488281 500.671875 319.488281 C 500.671875 319.488281 497.890625 319.488281 496.25 317.738281 C 496.25 317.738281 494.609375 315.988281 494.609375 313.019531 L 494.609375 297.789062 L 498.460938 297.789062 L 498.460938 311.769531 C 498.460938 311.769531 498.460938 314.160156 499.148438 315.160156 C 499.148438 315.160156 499.851562 316.171875 501.46875 316.171875 C 501.46875 316.171875 504.980469 316.171875 508.109375 311.539062 L 508.109375 297.789062 L 511.960938 297.789062 L 511.960938 319 Z M 528.148438 319.488281 C 528.148438 319.488281 523.601562 319.488281 520.878906 316.46875 C 520.878906 316.46875 518.171875 313.449219 518.171875 308.390625 C 518.171875 308.390625 518.171875 303.28125 520.890625 300.300781 C 520.890625 300.300781 523.621094 297.320312 528.289062 297.320312 C 528.289062 297.320312 532.949219 297.320312 535.679688 300.300781 C 535.679688 300.300781 538.398438 303.28125 538.398438 308.359375 C 538.398438 308.359375 538.398438 313.550781 535.671875 316.519531 C 535.671875 316.519531 532.929688 319.488281 528.148438 319.488281 Z M 528.210938 316.601562 C 528.210938 316.601562 534.320312 316.601562 534.320312 308.359375 C 534.320312 308.359375 534.320312 300.210938 528.289062 300.210938 C 528.289062 300.210938 522.269531 300.210938 522.269531 308.390625 C 522.269531 308.390625 522.269531 316.601562 528.210938 316.601562 Z M 550.46875 319.488281 C 550.46875 319.488281 547.839844 319.488281 544.070312 318.261719 L 544.070312 314.71875 C 544.070312 314.71875 547.839844 316.601562 550.628906 316.601562 C 550.628906 316.601562 552.289062 316.601562 553.378906 315.699219 C 553.378906 315.699219 554.480469 314.800781 554.480469 313.449219 C 554.480469 313.449219 554.480469 311.480469 551.410156 310.191406 L 549.160156 309.230469 C 549.160156 309.230469 544.179688 307.160156 544.179688 303.28125 C 544.179688 303.28125 544.179688 300.5 546.148438 298.910156 C 546.148438 298.910156 548.109375 297.320312 551.53125 297.320312 C 551.53125 297.320312 553.300781 297.320312 555.921875 297.808594 L 556.71875 297.960938 L 556.71875 301.171875 C 556.71875 301.171875 553.5 300.210938 551.609375 300.210938 C 551.609375 300.210938 547.890625 300.210938 547.890625 302.910156 C 547.890625 302.910156 547.890625 304.640625 550.710938 305.839844 L 552.558594 306.621094 C 552.558594 306.621094 555.710938 307.949219 557.019531 309.421875 C 557.019531 309.421875 558.320312 310.890625 558.320312 313.101562 C 558.320312 313.101562 558.320312 315.890625 556.121094 317.691406 C 556.121094 317.691406 553.910156 319.488281 550.46875 319.488281 Z M 571.210938 319.488281 C 571.210938 319.488281 568.289062 319.488281 566.640625 317.808594 C 566.640625 317.808594 565 316.128906 565 313.140625 L 565 300.679688 L 562.351562 300.679688 L 562.351562 297.789062 L 565 297.789062 L 565 293.941406 L 568.851562 293.570312 L 568.851562 297.789062 L 574.398438 297.789062 L 574.398438 300.679688 L 568.851562 300.679688 L 568.851562 312.441406 C 568.851562 312.441406 568.851562 316.601562 572.449219 316.601562 C 572.449219 316.601562 573.210938 316.601562 574.300781 316.339844 L 574.300781 319 C 574.300781 319 572.519531 319.488281 571.210938 319.488281 Z M 590.789062 316.300781 C 590.789062 316.300781 587.328125 319.488281 584.128906 319.488281 C 584.128906 319.488281 581.488281 319.488281 579.75 317.839844 C 579.75 317.839844 578.011719 316.191406 578.011719 313.671875 C 578.011719 313.671875 578.011719 310.191406 580.929688 308.328125 C 580.929688 308.328125 583.851562 306.460938 589.300781 306.460938 L 590.21875 306.460938 L 590.21875 303.898438 C 590.21875 303.898438 590.21875 300.210938 586.429688 300.210938 C 586.429688 300.210938 583.378906 300.210938 579.851562 302.089844 L 579.851562 298.898438 C 579.851562 298.898438 583.730469 297.320312 587.128906 297.320312 C 587.128906 297.320312 590.691406 297.320312 592.378906 298.921875 C 592.378906 298.921875 594.070312 300.519531 594.070312 303.898438 L 594.070312 313.511719 C 594.070312 313.511719 594.070312 316.808594 596.101562 316.808594 C 596.101562 316.808594 596.351562 316.808594 596.839844 316.730469 L 597.109375 318.859375 C 597.109375 318.859375 595.800781 319.488281 594.21875 319.488281 C 594.21875 319.488281 591.53125 319.488281 590.789062 316.300781 Z M 590.21875 314.210938 L 590.21875 308.730469 L 588.929688 308.691406 C 588.929688 308.691406 585.769531 308.691406 583.808594 309.890625 C 583.808594 309.890625 581.859375 311.089844 581.859375 313.039062 C 581.859375 313.039062 581.859375 314.429688 582.839844 315.390625 C 582.839844 315.390625 583.808594 316.339844 585.21875 316.339844 C 585.21875 316.339844 587.621094 316.339844 590.21875 314.210938 Z M 601.851562 319.230469 L 601.851562 288.160156 L 605.699219 288.160156 L 605.699219 301.769531 C 605.699219 301.769531 608.058594 297.320312 612.789062 297.320312 C 612.789062 297.320312 616.609375 297.320312 618.808594 300.109375 C 618.808594 300.109375 621.011719 302.910156 621.011719 307.75 C 621.011719 307.75 621.011719 313.019531 618.519531 316.261719 C 618.519531 316.261719 616.03125 319.488281 611.960938 319.488281 C 611.960938 319.488281 608.199219 319.488281 605.699219 316.601562 L 605.230469 319.230469 Z M 605.699219 313.941406 C 605.699219 313.941406 608.660156 316.601562 611.359375 316.601562 C 611.359375 316.601562 616.910156 316.601562 616.910156 308.140625 C 616.910156 308.140625 616.910156 300.679688 611.980469 300.679688 C 611.980469 300.679688 608.761719 300.679688 605.699219 304.179688 Z M 626.851562 319 L 626.851562 297.789062 L 630.699219 297.789062 L 630.699219 319 Z M 626.851562 293.941406 L 626.851562 290.089844 L 630.699219 290.089844 L 630.699219 293.941406 Z M 649.789062 316.300781 C 649.789062 316.300781 646.328125 319.488281 643.128906 319.488281 C 643.128906 319.488281 640.488281 319.488281 638.75 317.839844 C 638.75 317.839844 637.011719 316.191406 637.011719 313.671875 C 637.011719 313.671875 637.011719 310.191406 639.929688 308.328125 C 639.929688 308.328125 642.851562 306.460938 648.300781 306.460938 L 649.21875 306.460938 L 649.21875 303.898438 C 649.21875 303.898438 649.21875 300.210938 645.429688 300.210938 C 645.429688 300.210938 642.378906 300.210938 638.851562 302.089844 L 638.851562 298.898438 C 638.851562 298.898438 642.730469 297.320312 646.128906 297.320312 C 646.128906 297.320312 649.691406 297.320312 651.378906 298.921875 C 651.378906 298.921875 653.070312 300.519531 653.070312 303.898438 L 653.070312 313.511719 C 653.070312 313.511719 653.070312 316.808594 655.101562 316.808594 C 655.101562 316.808594 655.351562 316.808594 655.839844 316.730469 L 656.109375 318.859375 C 656.109375 318.859375 654.800781 319.488281 653.21875 319.488281 C 653.21875 319.488281 650.53125 319.488281 649.789062 316.300781 Z M 649.21875 314.210938 L 649.21875 308.730469 L 647.929688 308.691406 C 647.929688 308.691406 644.769531 308.691406 642.808594 309.890625 C 642.808594 309.890625 640.859375 311.089844 640.859375 313.039062 C 640.859375 313.039062 640.859375 314.429688 641.839844 315.390625 C 641.839844 315.390625 642.808594 316.339844 644.21875 316.339844 C 644.21875 316.339844 646.621094 316.339844 649.21875 314.210938 Z M 660.851562 319 L 660.851562 297.789062 L 664.699219 297.789062 L 664.699219 319 Z M 660.851562 293.941406 L 660.851562 290.089844 L 664.699219 290.089844 L 664.699219 293.941406 Z M 678.46875 319.488281 C 678.46875 319.488281 675.839844 319.488281 672.070312 318.261719 L 672.070312 314.71875 C 672.070312 314.71875 675.839844 316.601562 678.628906 316.601562 C 678.628906 316.601562 680.289062 316.601562 681.378906 315.699219 C 681.378906 315.699219 682.480469 314.800781 682.480469 313.449219 C 682.480469 313.449219 682.480469 311.480469 679.410156 310.191406 L 677.160156 309.230469 C 677.160156 309.230469 672.179688 307.160156 672.179688 303.28125 C 672.179688 303.28125 672.179688 300.5 674.148438 298.910156 C 674.148438 298.910156 676.109375 297.320312 679.53125 297.320312 C 679.53125 297.320312 681.300781 297.320312 683.921875 297.808594 L 684.71875 297.960938 L 684.71875 301.171875 C 684.71875 301.171875 681.5 300.210938 679.609375 300.210938 C 679.609375 300.210938 675.890625 300.210938 675.890625 302.910156 C 675.890625 302.910156 675.890625 304.640625 678.710938 305.839844 L 680.558594 306.621094 C 680.558594 306.621094 683.710938 307.949219 685.019531 309.421875 C 685.019531 309.421875 686.320312 310.890625 686.320312 313.101562 C 686.320312 313.101562 686.320312 315.890625 684.121094 317.691406 C 684.121094 317.691406 681.910156 319.488281 678.46875 319.488281 Z M 678.46875 319.488281 "/>
<path style=" stroke:none;fill-rule:nonzero;fill:rgb(29.411316%,33.724976%,39.99939%);fill-opacity:1;" d="M 456.5 923.089844 L 460.601562 923.089844 L 460.601562 941.339844 C 460.601562 941.339844 460.601562 945.691406 462.210938 947.671875 C 462.210938 947.671875 463.820312 949.660156 467.339844 949.660156 C 467.339844 949.660156 470.769531 949.660156 472.210938 947.789062 C 472.210938 947.789062 473.640625 945.929688 473.640625 941.46875 L 473.640625 923.089844 L 477.238281 923.089844 L 477.238281 941.410156 C 477.238281 941.410156 477.238281 947.328125 474.808594 950.03125 C 474.808594 950.03125 472.378906 952.71875 467.058594 952.71875 C 467.058594 952.71875 461.648438 952.71875 459.070312 949.929688 C 459.070312 949.929688 456.5 947.140625 456.5 941.300781 Z M 483.398438 952 L 483.398438 949.109375 L 496.53125 933.679688 L 484.011719 933.679688 L 484.011719 930.789062 L 501.269531 930.789062 L 501.269531 933.679688 L 488.148438 949.109375 L 501.53125 949.109375 L 501.53125 952 Z M 499.339844 920.671875 L 494.628906 926.941406 L 490.378906 926.941406 L 485.671875 920.671875 L 488.558594 920.671875 L 492.480469 924.621094 L 492.519531 924.621094 L 496.449219 920.671875 Z M 514.210938 952.488281 C 514.210938 952.488281 511.289062 952.488281 509.640625 950.808594 C 509.640625 950.808594 508 949.128906 508 946.140625 L 508 933.679688 L 505.351562 933.679688 L 505.351562 930.789062 L 508 930.789062 L 508 926.941406 L 511.851562 926.570312 L 511.851562 930.789062 L 517.398438 930.789062 L 517.398438 933.679688 L 511.851562 933.679688 L 511.851562 945.441406 C 511.851562 945.441406 511.851562 949.601562 515.449219 949.601562 C 515.449219 949.601562 516.210938 949.601562 517.300781 949.339844 L 517.300781 952 C 517.300781 952 515.519531 952.488281 514.210938 952.488281 Z M 522.851562 952 L 522.851562 930.789062 L 526.699219 930.789062 L 526.699219 952 Z M 522.851562 926.941406 L 522.851562 923.089844 L 526.699219 923.089844 L 526.699219 926.941406 Z M 534.851562 952 L 534.851562 921.160156 L 538.699219 921.160156 L 538.699219 941.078125 L 547.679688 930.789062 L 551.820312 930.789062 L 543.25 940.691406 L 553.601562 952 L 548.679688 952 L 538.699219 941.121094 L 538.699219 952 Z M 557.851562 952 L 557.851562 930.789062 L 561.699219 930.789062 L 561.699219 934.769531 C 561.699219 934.769531 563.980469 930.320312 568.339844 930.320312 C 568.339844 930.320312 568.921875 930.320312 569.570312 930.421875 L 569.570312 934.011719 C 569.570312 934.011719 568.570312 933.679688 567.808594 933.679688 C 567.808594 933.679688 564.160156 933.679688 561.699219 938.019531 L 561.699219 952 Z M 573.851562 952 L 573.851562 930.789062 L 577.699219 930.789062 L 577.699219 952 Z M 573.851562 926.941406 L 573.851562 923.089844 L 577.699219 923.089844 L 577.699219 926.941406 Z M 585.851562 952 L 585.851562 930.789062 L 589.699219 930.789062 L 589.699219 934.769531 C 589.699219 934.769531 592.738281 930.320312 597.160156 930.320312 C 597.160156 930.320312 599.910156 930.320312 601.550781 932.070312 C 601.550781 932.070312 603.191406 933.820312 603.191406 936.769531 L 603.191406 952 L 599.339844 952 L 599.339844 938.019531 C 599.339844 938.019531 599.339844 935.648438 598.648438 934.648438 C 598.648438 934.648438 597.960938 933.640625 596.359375 933.640625 C 596.359375 933.640625 592.820312 933.640625 589.699219 938.269531 L 589.699219 952 Z M 610.851562 952 L 610.851562 921.160156 L 614.699219 921.160156 L 614.699219 941.078125 L 623.679688 930.789062 L 627.820312 930.789062 L 619.25 940.691406 L 629.601562 952 L 624.679688 952 L 614.699219 941.121094 L 614.699219 952 Z M 633.851562 952 L 633.851562 930.789062 L 637.699219 930.789062 L 637.699219 952 Z M 633.851562 926.941406 L 633.851562 923.089844 L 637.699219 923.089844 L 637.699219 926.941406 Z M 645.851562 952 L 645.851562 930.789062 L 649.699219 930.789062 L 649.699219 934.769531 C 649.699219 934.769531 652.511719 930.320312 656.921875 930.320312 C 656.921875 930.320312 661.179688 930.320312 662.71875 934.769531 C 662.71875 934.769531 665.460938 930.300781 669.828125 930.300781 C 669.828125 930.300781 672.640625 930.300781 674.191406 931.949219 C 674.191406 931.949219 675.730469 933.601562 675.730469 936.570312 L 675.730469 952 L 671.859375 952 L 671.859375 937.179688 C 671.859375 937.179688 671.859375 933.539062 668.988281 933.539062 C 668.988281 933.539062 666 933.539062 662.71875 937.78125 L 662.71875 952 L 658.859375 952 L 658.859375 937.179688 C 658.859375 937.179688 658.859375 933.519531 655.929688 933.519531 C 655.929688 933.519531 653.019531 933.519531 649.699219 937.78125 L 649.699219 952 Z M 698.390625 951.320312 C 698.390625 951.320312 694.53125 952.488281 691.769531 952.488281 C 691.769531 952.488281 687.089844 952.488281 684.128906 949.371094 C 684.128906 949.371094 681.171875 946.261719 681.171875 941.300781 C 681.171875 941.300781 681.171875 936.46875 683.78125 933.390625 C 683.78125 933.390625 686.378906 930.300781 690.449219 930.300781 C 690.449219 930.300781 694.289062 930.300781 696.390625 933.039062 C 696.390625 933.039062 698.488281 935.769531 698.488281 940.808594 L 698.46875 942 L 685.089844 942 C 685.089844 942 685.929688 949.558594 692.5 949.558594 C 692.5 949.558594 694.898438 949.558594 698.390625 948.269531 Z M 685.269531 939.109375 L 694.628906 939.109375 C 694.628906 939.109375 694.628906 933.191406 690.210938 933.191406 C 690.210938 933.191406 685.78125 933.191406 685.269531 939.109375 Z M 685.269531 939.109375 "/>
<path style=" stroke:none;fill-rule:nonzero;fill:rgb(29.411316%,33.724976%,39.99939%);fill-opacity:1;" d="M 478.851562 1007.710938 L 478.851562 978.789062 L 482.699219 978.789062 L 482.699219 982.769531 C 482.699219 982.769531 485.058594 978.320312 489.789062 978.320312 C 489.789062 978.320312 493.609375 978.320312 495.808594 981.109375 C 495.808594 981.109375 498.011719 983.910156 498.011719 988.75 C 498.011719 988.75 498.011719 994.019531 495.519531 997.261719 C 495.519531 997.261719 493.03125 1000.488281 488.960938 1000.488281 C 488.960938 1000.488281 485.199219 1000.488281 482.699219 997.601562 L 482.699219 1007.710938 Z M 482.699219 994.941406 C 482.699219 994.941406 485.660156 997.601562 488.359375 997.601562 C 488.359375 997.601562 493.910156 997.601562 493.910156 989.140625 C 493.910156 989.140625 493.910156 981.679688 488.980469 981.679688 C 488.980469 981.679688 485.761719 981.679688 482.699219 985.179688 Z M 503.851562 1000 L 503.851562 978.789062 L 507.699219 978.789062 L 507.699219 1000 Z M 503.851562 974.941406 L 503.851562 971.089844 L 507.699219 971.089844 L 507.699219 974.941406 Z M 515.851562 1000 L 515.851562 978.789062 L 519.699219 978.789062 L 519.699219 982.769531 C 519.699219 982.769531 521.980469 978.320312 526.339844 978.320312 C 526.339844 978.320312 526.921875 978.320312 527.570312 978.421875 L 527.570312 982.011719 C 527.570312 982.011719 526.570312 981.679688 525.808594 981.679688 C 525.808594 981.679688 522.160156 981.679688 519.699219 986.019531 L 519.699219 1000 Z M 531.851562 1000 L 531.851562 978.789062 L 535.699219 978.789062 L 535.699219 982.769531 C 535.699219 982.769531 538.511719 978.320312 542.921875 978.320312 C 542.921875 978.320312 547.179688 978.320312 548.71875 982.769531 C 548.71875 982.769531 551.460938 978.300781 555.828125 978.300781 C 555.828125 978.300781 558.640625 978.300781 560.191406 979.949219 C 560.191406 979.949219 561.730469 981.601562 561.730469 984.570312 L 561.730469 1000 L 557.859375 1000 L 557.859375 985.179688 C 557.859375 985.179688 557.859375 981.539062 554.988281 981.539062 C 554.988281 981.539062 552 981.539062 548.71875 985.78125 L 548.71875 1000 L 544.859375 1000 L 544.859375 985.179688 C 544.859375 985.179688 544.859375 981.519531 541.929688 981.519531 C 541.929688 981.519531 539.019531 981.519531 535.699219 985.78125 L 535.699219 1000 Z M 584.390625 999.320312 C 584.390625 999.320312 580.53125 1000.488281 577.769531 1000.488281 C 577.769531 1000.488281 573.089844 1000.488281 570.128906 997.371094 C 570.128906 997.371094 567.171875 994.261719 567.171875 989.300781 C 567.171875 989.300781 567.171875 984.46875 569.78125 981.390625 C 569.78125 981.390625 572.378906 978.300781 576.449219 978.300781 C 576.449219 978.300781 580.289062 978.300781 582.390625 981.039062 C 582.390625 981.039062 584.488281 983.769531 584.488281 988.808594 L 584.46875 990 L 571.089844 990 C 571.089844 990 571.929688 997.558594 578.5 997.558594 C 578.5 997.558594 580.898438 997.558594 584.390625 996.269531 Z M 571.269531 987.109375 L 580.628906 987.109375 C 580.628906 987.109375 580.628906 981.191406 576.210938 981.191406 C 576.210938 981.191406 571.78125 981.191406 571.269531 987.109375 Z M 590.851562 1000 L 590.851562 978.789062 L 594.699219 978.789062 L 594.699219 982.769531 C 594.699219 982.769531 597.738281 978.320312 602.160156 978.320312 C 602.160156 978.320312 604.910156 978.320312 606.550781 980.070312 C 606.550781 980.070312 608.191406 981.820312 608.191406 984.769531 L 608.191406 1000 L 604.339844 1000 L 604.339844 986.019531 C 604.339844 986.019531 604.339844 983.648438 603.648438 982.648438 C 603.648438 982.648438 602.960938 981.640625 601.359375 981.640625 C 601.359375 981.640625 597.820312 981.640625 594.699219 986.269531 L 594.699219 1000 Z M 617.078125 1007.710938 L 620.519531 1000 L 612.308594 978.789062 L 616.46875 978.789062 L 622.550781 994.769531 L 629.03125 978.789062 L 632.660156 978.789062 L 621.078125 1007.710938 Z M 636.851562 1000.230469 L 636.851562 969.160156 L 640.699219 969.160156 L 640.699219 982.769531 C 640.699219 982.769531 643.058594 978.320312 647.789062 978.320312 C 647.789062 978.320312 651.609375 978.320312 653.808594 981.109375 C 653.808594 981.109375 656.011719 983.910156 656.011719 988.75 C 656.011719 988.75 656.011719 994.019531 653.519531 997.261719 C 653.519531 997.261719 651.03125 1000.488281 646.960938 1000.488281 C 646.960938 1000.488281 643.199219 1000.488281 640.699219 997.601562 L 640.230469 1000.230469 Z M 640.699219 994.941406 C 640.699219 994.941406 643.660156 997.601562 646.359375 997.601562 C 646.359375 997.601562 651.910156 997.601562 651.910156 989.140625 C 651.910156 989.140625 651.910156 981.679688 646.980469 981.679688 C 646.980469 981.679688 643.761719 981.679688 640.699219 985.179688 Z M 677.390625 999.320312 C 677.390625 999.320312 673.53125 1000.488281 670.769531 1000.488281 C 670.769531 1000.488281 666.089844 1000.488281 663.128906 997.371094 C 663.128906 997.371094 660.171875 994.261719 660.171875 989.300781 C 660.171875 989.300781 660.171875 984.46875 662.78125 981.390625 C 662.78125 981.390625 665.378906 978.300781 669.449219 978.300781 C 669.449219 978.300781 673.289062 978.300781 675.390625 981.039062 C 675.390625 981.039062 677.488281 983.769531 677.488281 988.808594 L 677.46875 990 L 664.089844 990 C 664.089844 990 664.929688 997.558594 671.5 997.558594 C 671.5 997.558594 673.898438 997.558594 677.390625 996.269531 Z M 664.269531 987.109375 L 673.628906 987.109375 C 673.628906 987.109375 673.628906 981.191406 669.210938 981.191406 C 669.210938 981.191406 664.78125 981.191406 664.269531 987.109375 Z M 671.539062 1000 L 673.628906 1000 C 673.628906 1000 672.359375 1000.738281 671.730469 1001.621094 C 671.730469 1001.621094 671.109375 1002.5 671.109375 1003.519531 C 671.109375 1003.519531 671.109375 1004.429688 671.660156 1004.898438 C 671.660156 1004.898438 672.21875 1005.371094 673.351562 1005.371094 C 673.351562 1005.371094 674.449219 1005.371094 675.128906 1005.078125 L 675.128906 1006.660156 C 675.128906 1006.660156 673.960938 1007.230469 672.429688 1007.230469 C 672.429688 1007.230469 670.441406 1007.230469 669.449219 1006.449219 C 669.449219 1006.449219 668.449219 1005.660156 668.449219 1004.121094 C 668.449219 1004.121094 668.449219 1002.890625 669.21875 1001.871094 C 669.21875 1001.871094 669.988281 1000.839844 671.539062 1000 Z M 671.539062 1000 "/>
<path style=" stroke:none;fill-rule:nonzero;fill:rgb(29.411316%,33.724976%,39.99939%);fill-opacity:1;" d="M 491.46875 1048.488281 C 491.46875 1048.488281 488.839844 1048.488281 485.070312 1047.261719 L 485.070312 1043.71875 C 485.070312 1043.71875 488.839844 1045.601562 491.628906 1045.601562 C 491.628906 1045.601562 493.289062 1045.601562 494.378906 1044.699219 C 494.378906 1044.699219 495.480469 1043.800781 495.480469 1042.449219 C 495.480469 1042.449219 495.480469 1040.480469 492.410156 1039.191406 L 490.160156 1038.230469 C 490.160156 1038.230469 485.179688 1036.160156 485.179688 1032.28125 C 485.179688 1032.28125 485.179688 1029.5 487.148438 1027.910156 C 487.148438 1027.910156 489.109375 1026.320312 492.53125 1026.320312 C 492.53125 1026.320312 494.300781 1026.320312 496.921875 1026.808594 L 497.71875 1026.960938 L 497.71875 1030.171875 C 497.71875 1030.171875 494.5 1029.210938 492.609375 1029.210938 C 492.609375 1029.210938 488.890625 1029.210938 488.890625 1031.910156 C 488.890625 1031.910156 488.890625 1033.640625 491.710938 1034.839844 L 493.558594 1035.621094 C 493.558594 1035.621094 496.710938 1036.949219 498.019531 1038.421875 C 498.019531 1038.421875 499.320312 1039.890625 499.320312 1042.101562 C 499.320312 1042.101562 499.320312 1044.890625 497.121094 1046.691406 C 497.121094 1046.691406 494.910156 1048.488281 491.46875 1048.488281 Z M 516.789062 1045.300781 C 516.789062 1045.300781 513.328125 1048.488281 510.128906 1048.488281 C 510.128906 1048.488281 507.488281 1048.488281 505.75 1046.839844 C 505.75 1046.839844 504.011719 1045.191406 504.011719 1042.671875 C 504.011719 1042.671875 504.011719 1039.191406 506.929688 1037.328125 C 506.929688 1037.328125 509.851562 1035.460938 515.300781 1035.460938 L 516.21875 1035.460938 L 516.21875 1032.898438 C 516.21875 1032.898438 516.21875 1029.210938 512.429688 1029.210938 C 512.429688 1029.210938 509.378906 1029.210938 505.851562 1031.089844 L 505.851562 1027.898438 C 505.851562 1027.898438 509.730469 1026.320312 513.128906 1026.320312 C 513.128906 1026.320312 516.691406 1026.320312 518.378906 1027.921875 C 518.378906 1027.921875 520.070312 1029.519531 520.070312 1032.898438 L 520.070312 1042.511719 C 520.070312 1042.511719 520.070312 1045.808594 522.101562 1045.808594 C 522.101562 1045.808594 522.351562 1045.808594 522.839844 1045.730469 L 523.109375 1047.859375 C 523.109375 1047.859375 521.800781 1048.488281 520.21875 1048.488281 C 520.21875 1048.488281 517.53125 1048.488281 516.789062 1045.300781 Z M 516.21875 1043.210938 L 516.21875 1037.730469 L 514.929688 1037.691406 C 514.929688 1037.691406 511.769531 1037.691406 509.808594 1038.890625 C 509.808594 1038.890625 507.859375 1040.089844 507.859375 1042.039062 C 507.859375 1042.039062 507.859375 1043.429688 508.839844 1044.390625 C 508.839844 1044.390625 509.808594 1045.339844 511.21875 1045.339844 C 511.21875 1045.339844 513.621094 1045.339844 516.21875 1043.210938 Z M 541.109375 1048 L 541.109375 1044.019531 C 541.109375 1044.019531 538.039062 1048.488281 533.671875 1048.488281 C 533.671875 1048.488281 530.890625 1048.488281 529.25 1046.738281 C 529.25 1046.738281 527.609375 1044.988281 527.609375 1042.019531 L 527.609375 1026.789062 L 531.460938 1026.789062 L 531.460938 1040.769531 C 531.460938 1040.769531 531.460938 1043.160156 532.148438 1044.160156 C 532.148438 1044.160156 532.851562 1045.171875 534.46875 1045.171875 C 534.46875 1045.171875 537.980469 1045.171875 541.109375 1040.539062 L 541.109375 1026.789062 L 544.960938 1026.789062 L 544.960938 1048 Z M 552.929688 1055.050781 L 553.378906 1051.710938 C 553.378906 1051.710938 556.710938 1053.289062 559.960938 1053.289062 C 559.960938 1053.289062 566.460938 1053.289062 566.460938 1046.398438 L 566.460938 1043.058594 C 566.460938 1043.058594 564.328125 1047.511719 559.46875 1047.511719 C 559.46875 1047.511719 555.660156 1047.511719 553.410156 1044.738281 C 553.410156 1044.738281 551.171875 1041.960938 551.171875 1037.261719 C 551.171875 1037.261719 551.171875 1032.410156 553.730469 1029.371094 C 553.730469 1029.371094 556.289062 1026.320312 560.351562 1026.320312 C 560.351562 1026.320312 563.898438 1026.320312 566.460938 1029.210938 L 566.460938 1026.789062 L 570.328125 1026.789062 L 570.328125 1042.21875 C 570.328125 1042.21875 570.328125 1047.199219 569.808594 1049.589844 C 569.808594 1049.589844 569.289062 1051.980469 567.871094 1053.511719 C 567.871094 1053.511719 565.351562 1056.179688 560.039062 1056.179688 C 560.039062 1056.179688 556.320312 1056.179688 552.929688 1055.050781 Z M 566.460938 1040.660156 L 566.460938 1031.851562 C 566.460938 1031.851562 563.921875 1029.210938 560.929688 1029.210938 C 560.929688 1029.210938 558.28125 1029.210938 556.769531 1031.339844 C 556.769531 1031.339844 555.269531 1033.46875 555.269531 1037.179688 C 555.269531 1037.179688 555.269531 1044.148438 560.171875 1044.148438 C 560.171875 1044.148438 563.511719 1044.148438 566.460938 1040.660156 Z M 591.109375 1048 L 591.109375 1044.019531 C 591.109375 1044.019531 588.039062 1048.488281 583.671875 1048.488281 C 583.671875 1048.488281 580.890625 1048.488281 579.25 1046.738281 C 579.25 1046.738281 577.609375 1044.988281 577.609375 1042.019531 L 577.609375 1026.789062 L 581.460938 1026.789062 L 581.460938 1040.769531 C 581.460938 1040.769531 581.460938 1043.160156 582.148438 1044.160156 C 582.148438 1044.160156 582.851562 1045.171875 584.46875 1045.171875 C 584.46875 1045.171875 587.980469 1045.171875 591.109375 1040.539062 L 591.109375 1026.789062 L 594.960938 1026.789062 L 594.960938 1048 Z M 602.851562 1048 L 602.851562 1026.789062 L 606.699219 1026.789062 L 606.699219 1030.769531 C 606.699219 1030.769531 609.511719 1026.320312 613.921875 1026.320312 C 613.921875 1026.320312 618.179688 1026.320312 619.71875 1030.769531 C 619.71875 1030.769531 622.460938 1026.300781 626.828125 1026.300781 C 626.828125 1026.300781 629.640625 1026.300781 631.191406 1027.949219 C 631.191406 1027.949219 632.730469 1029.601562 632.730469 1032.570312 L 632.730469 1048 L 628.859375 1048 L 628.859375 1033.179688 C 628.859375 1033.179688 628.859375 1029.539062 625.988281 1029.539062 C 625.988281 1029.539062 623 1029.539062 619.71875 1033.78125 L 619.71875 1048 L 615.859375 1048 L 615.859375 1033.179688 C 615.859375 1033.179688 615.859375 1029.519531 612.929688 1029.519531 C 612.929688 1029.519531 610.019531 1029.519531 606.699219 1033.78125 L 606.699219 1048 Z M 653.109375 1048 L 653.109375 1044.019531 C 653.109375 1044.019531 650.039062 1048.488281 645.671875 1048.488281 C 645.671875 1048.488281 642.890625 1048.488281 641.25 1046.738281 C 641.25 1046.738281 639.609375 1044.988281 639.609375 1042.019531 L 639.609375 1026.789062 L 643.460938 1026.789062 L 643.460938 1040.769531 C 643.460938 1040.769531 643.460938 1043.160156 644.148438 1044.160156 C 644.148438 1044.160156 644.851562 1045.171875 646.46875 1045.171875 C 646.46875 1045.171875 649.980469 1045.171875 653.109375 1040.539062 L 653.109375 1026.789062 L 656.960938 1026.789062 L 656.960938 1048 Z M 664.851562 1048 L 664.851562 1026.789062 L 668.699219 1026.789062 L 668.699219 1048 Z M 664.851562 1022.941406 L 664.851562 1019.089844 L 668.699219 1019.089844 L 668.699219 1022.941406 Z M 664.851562 1022.941406 "/>
<path style=" stroke:none;fill-rule:nonzero;fill:rgb(29.411316%,33.724976%,39.99939%);fill-opacity:1;" d="M 94.609375 587 L 94.609375 561.160156 L 84.351562 561.160156 L 84.351562 558.089844 L 108.960938 558.089844 L 108.960938 561.160156 L 98.710938 561.160156 L 98.710938 587 Z M 114.078125 594.710938 L 117.519531 587 L 109.308594 565.789062 L 113.46875 565.789062 L 119.550781 581.769531 L 126.03125 565.789062 L 129.660156 565.789062 L 118.078125 594.710938 Z M 133.851562 587 L 133.851562 565.789062 L 137.699219 565.789062 L 137.699219 569.769531 C 137.699219 569.769531 139.980469 565.320312 144.339844 565.320312 C 144.339844 565.320312 144.921875 565.320312 145.570312 565.421875 L 145.570312 569.011719 C 145.570312 569.011719 144.570312 568.679688 143.808594 568.679688 C 143.808594 568.679688 140.160156 568.679688 137.699219 573.019531 L 137.699219 587 Z M 149.851562 587 L 149.851562 565.789062 L 153.699219 565.789062 L 153.699219 587 Z M 149.851562 561.941406 L 149.851562 558.089844 L 153.699219 558.089844 L 153.699219 561.941406 Z M 161.851562 587 L 161.851562 565.789062 L 165.699219 565.789062 L 165.699219 569.769531 C 165.699219 569.769531 168.738281 565.320312 173.160156 565.320312 C 173.160156 565.320312 175.910156 565.320312 177.550781 567.070312 C 177.550781 567.070312 179.191406 568.820312 179.191406 571.769531 L 179.191406 587 L 175.339844 587 L 175.339844 573.019531 C 175.339844 573.019531 175.339844 570.648438 174.648438 569.648438 C 174.648438 569.648438 173.960938 568.640625 172.359375 568.640625 C 172.359375 568.640625 168.820312 568.640625 165.699219 573.269531 L 165.699219 587 Z M 202.390625 586.320312 C 202.390625 586.320312 198.53125 587.488281 195.769531 587.488281 C 195.769531 587.488281 191.089844 587.488281 188.128906 584.371094 C 188.128906 584.371094 185.171875 581.261719 185.171875 576.300781 C 185.171875 576.300781 185.171875 571.46875 187.78125 568.390625 C 187.78125 568.390625 190.378906 565.300781 194.449219 565.300781 C 194.449219 565.300781 198.289062 565.300781 200.390625 568.039062 C 200.390625 568.039062 202.488281 570.769531 202.488281 575.808594 L 202.46875 577 L 189.089844 577 C 189.089844 577 189.929688 584.558594 196.5 584.558594 C 196.5 584.558594 198.898438 584.558594 202.390625 583.269531 Z M 189.269531 574.109375 L 198.628906 574.109375 C 198.628906 574.109375 198.628906 568.191406 194.210938 568.191406 C 194.210938 568.191406 189.78125 568.191406 189.269531 574.109375 Z M 192.46875 561.941406 L 192.46875 558.089844 L 196.320312 558.089844 L 196.320312 561.941406 Z M 208.851562 587 L 208.851562 556.160156 L 212.699219 556.160156 L 212.699219 576.078125 L 221.679688 565.789062 L 225.820312 565.789062 L 217.25 575.691406 L 227.601562 587 L 222.679688 587 L 212.699219 576.121094 L 212.699219 587 Z M 231.851562 587 L 231.851562 565.789062 L 235.699219 565.789062 L 235.699219 587 Z M 231.851562 561.941406 L 231.851562 558.089844 L 235.699219 558.089844 L 235.699219 561.941406 Z M 243.851562 587 L 243.851562 565.789062 L 247.699219 565.789062 L 247.699219 569.769531 C 247.699219 569.769531 250.511719 565.320312 254.921875 565.320312 C 254.921875 565.320312 259.179688 565.320312 260.71875 569.769531 C 260.71875 569.769531 263.460938 565.300781 267.828125 565.300781 C 267.828125 565.300781 270.640625 565.300781 272.191406 566.949219 C 272.191406 566.949219 273.730469 568.601562 273.730469 571.570312 L 273.730469 587 L 269.859375 587 L 269.859375 572.179688 C 269.859375 572.179688 269.859375 568.539062 266.988281 568.539062 C 266.988281 568.539062 264 568.539062 260.71875 572.78125 L 260.71875 587 L 256.859375 587 L 256.859375 572.179688 C 256.859375 572.179688 256.859375 568.519531 253.929688 568.519531 C 253.929688 568.519531 251.019531 568.519531 247.699219 572.78125 L 247.699219 587 Z M 296.390625 586.320312 C 296.390625 586.320312 292.53125 587.488281 289.769531 587.488281 C 289.769531 587.488281 285.089844 587.488281 282.128906 584.371094 C 282.128906 584.371094 279.171875 581.261719 279.171875 576.300781 C 279.171875 576.300781 279.171875 571.46875 281.78125 568.390625 C 281.78125 568.390625 284.378906 565.300781 288.449219 565.300781 C 288.449219 565.300781 292.289062 565.300781 294.390625 568.039062 C 294.390625 568.039062 296.488281 570.769531 296.488281 575.808594 L 296.46875 577 L 283.089844 577 C 283.089844 577 283.929688 584.558594 290.5 584.558594 C 290.5 584.558594 292.898438 584.558594 296.390625 583.269531 Z M 283.269531 574.109375 L 292.628906 574.109375 C 292.628906 574.109375 292.628906 568.191406 288.210938 568.191406 C 288.210938 568.191406 283.78125 568.191406 283.269531 574.109375 Z M 315.851562 587 L 315.851562 565.789062 L 319.699219 565.789062 L 319.699219 587 Z M 315.851562 561.941406 L 315.851562 558.089844 L 319.699219 558.089844 L 319.699219 561.941406 Z M 327.851562 587 L 327.851562 565.789062 L 331.699219 565.789062 L 331.699219 569.769531 C 331.699219 569.769531 333.980469 565.320312 338.339844 565.320312 C 338.339844 565.320312 338.921875 565.320312 339.570312 565.421875 L 339.570312 569.011719 C 339.570312 569.011719 338.570312 568.679688 337.808594 568.679688 C 337.808594 568.679688 334.160156 568.679688 331.699219 573.019531 L 331.699219 587 Z M 327.851562 587 "/>
<path style=" stroke:none;fill-rule:nonzero;fill:rgb(29.411316%,33.724976%,39.99939%);fill-opacity:1;" d="M 105.851562 635 L 105.851562 613.789062 L 109.699219 613.789062 L 109.699219 617.769531 C 109.699219 617.769531 112.511719 613.320312 116.921875 613.320312 C 116.921875 613.320312 121.179688 613.320312 122.71875 617.769531 C 122.71875 617.769531 125.460938 613.300781 129.828125 613.300781 C 129.828125 613.300781 132.640625 613.300781 134.191406 614.949219 C 134.191406 614.949219 135.730469 616.601562 135.730469 619.570312 L 135.730469 635 L 131.859375 635 L 131.859375 620.179688 C 131.859375 620.179688 131.859375 616.539062 128.988281 616.539062 C 128.988281 616.539062 126 616.539062 122.71875 620.78125 L 122.71875 635 L 118.859375 635 L 118.859375 620.179688 C 118.859375 620.179688 118.859375 616.519531 115.929688 616.519531 C 115.929688 616.519531 113.019531 616.519531 109.699219 620.78125 L 109.699219 635 Z M 151.148438 635.488281 C 151.148438 635.488281 146.601562 635.488281 143.878906 632.46875 C 143.878906 632.46875 141.171875 629.449219 141.171875 624.390625 C 141.171875 624.390625 141.171875 619.28125 143.890625 616.300781 C 143.890625 616.300781 146.621094 613.320312 151.289062 613.320312 C 151.289062 613.320312 155.949219 613.320312 158.679688 616.300781 C 158.679688 616.300781 161.398438 619.28125 161.398438 624.359375 C 161.398438 624.359375 161.398438 629.550781 158.671875 632.519531 C 158.671875 632.519531 155.929688 635.488281 151.148438 635.488281 Z M 151.210938 632.601562 C 151.210938 632.601562 157.320312 632.601562 157.320312 624.359375 C 157.320312 624.359375 157.320312 616.210938 151.289062 616.210938 C 151.289062 616.210938 145.269531 616.210938 145.269531 624.390625 C 145.269531 624.390625 145.269531 632.601562 151.210938 632.601562 Z M 167.851562 635 L 167.851562 604.160156 L 171.699219 604.160156 L 171.699219 624.078125 L 180.679688 613.789062 L 184.820312 613.789062 L 176.25 623.691406 L 186.601562 635 L 181.679688 635 L 171.699219 624.121094 L 171.699219 635 Z M 192.078125 642.710938 L 195.519531 635 L 187.308594 613.789062 L 191.46875 613.789062 L 197.550781 629.769531 L 204.03125 613.789062 L 207.660156 613.789062 L 196.078125 642.710938 Z M 211.851562 635 L 211.851562 604.160156 L 215.699219 604.160156 L 215.699219 624.078125 L 224.679688 613.789062 L 228.820312 613.789062 L 220.25 623.691406 L 230.601562 635 L 225.679688 635 L 215.699219 624.121094 L 215.699219 635 Z M 234.851562 635 L 234.851562 613.789062 L 238.699219 613.789062 L 238.699219 635 Z M 234.851562 609.941406 L 234.851562 606.089844 L 238.699219 606.089844 L 238.699219 609.941406 Z M 246.851562 635 L 246.851562 613.789062 L 250.699219 613.789062 L 250.699219 617.769531 C 250.699219 617.769531 253.511719 613.320312 257.921875 613.320312 C 257.921875 613.320312 262.179688 613.320312 263.71875 617.769531 C 263.71875 617.769531 266.460938 613.300781 270.828125 613.300781 C 270.828125 613.300781 273.640625 613.300781 275.191406 614.949219 C 275.191406 614.949219 276.730469 616.601562 276.730469 619.570312 L 276.730469 635 L 272.859375 635 L 272.859375 620.179688 C 272.859375 620.179688 272.859375 616.539062 269.988281 616.539062 C 269.988281 616.539062 267 616.539062 263.71875 620.78125 L 263.71875 635 L 259.859375 635 L 259.859375 620.179688 C 259.859375 620.179688 259.859375 616.519531 256.929688 616.519531 C 256.929688 616.519531 254.019531 616.519531 250.699219 620.78125 L 250.699219 635 Z M 299.390625 634.320312 C 299.390625 634.320312 295.53125 635.488281 292.769531 635.488281 C 292.769531 635.488281 288.089844 635.488281 285.128906 632.371094 C 285.128906 632.371094 282.171875 629.261719 282.171875 624.300781 C 282.171875 624.300781 282.171875 619.46875 284.78125 616.390625 C 284.78125 616.390625 287.378906 613.300781 291.449219 613.300781 C 291.449219 613.300781 295.289062 613.300781 297.390625 616.039062 C 297.390625 616.039062 299.488281 618.769531 299.488281 623.808594 L 299.46875 625 L 286.089844 625 C 286.089844 625 286.929688 632.558594 293.5 632.558594 C 293.5 632.558594 295.898438 632.558594 299.390625 631.269531 Z M 286.269531 622.109375 L 295.628906 622.109375 C 295.628906 622.109375 295.628906 616.191406 291.210938 616.191406 C 291.210938 616.191406 286.78125 616.191406 286.269531 622.109375 Z M 289.46875 609.941406 L 289.46875 606.089844 L 293.320312 606.089844 L 293.320312 609.941406 Z M 311.46875 635.488281 C 311.46875 635.488281 308.839844 635.488281 305.070312 634.261719 L 305.070312 630.71875 C 305.070312 630.71875 308.839844 632.601562 311.628906 632.601562 C 311.628906 632.601562 313.289062 632.601562 314.378906 631.699219 C 314.378906 631.699219 315.480469 630.800781 315.480469 629.449219 C 315.480469 629.449219 315.480469 627.480469 312.410156 626.191406 L 310.160156 625.230469 C 310.160156 625.230469 305.179688 623.160156 305.179688 619.28125 C 305.179688 619.28125 305.179688 616.5 307.148438 614.910156 C 307.148438 614.910156 309.109375 613.320312 312.53125 613.320312 C 312.53125 613.320312 314.300781 613.320312 316.921875 613.808594 L 317.71875 613.960938 L 317.71875 617.171875 C 317.71875 617.171875 314.5 616.210938 312.609375 616.210938 C 312.609375 616.210938 308.890625 616.210938 308.890625 618.910156 C 308.890625 618.910156 308.890625 620.640625 311.710938 621.839844 L 313.558594 622.621094 C 313.558594 622.621094 316.710938 623.949219 318.019531 625.421875 C 318.019531 625.421875 319.320312 626.890625 319.320312 629.101562 C 319.320312 629.101562 319.320312 631.890625 317.121094 633.691406 C 317.121094 633.691406 314.910156 635.488281 311.46875 635.488281 Z M 311.46875 635.488281 "/>
<path style=" stroke:none;fill-rule:nonzero;fill:rgb(29.411316%,33.724976%,39.99939%);fill-opacity:1;" d="M 83.46875 683.488281 C 83.46875 683.488281 80.839844 683.488281 77.070312 682.261719 L 77.070312 678.71875 C 77.070312 678.71875 80.839844 680.601562 83.628906 680.601562 C 83.628906 680.601562 85.289062 680.601562 86.378906 679.699219 C 86.378906 679.699219 87.480469 678.800781 87.480469 677.449219 C 87.480469 677.449219 87.480469 675.480469 84.410156 674.191406 L 82.160156 673.230469 C 82.160156 673.230469 77.179688 671.160156 77.179688 667.28125 C 77.179688 667.28125 77.179688 664.5 79.148438 662.910156 C 79.148438 662.910156 81.109375 661.320312 84.53125 661.320312 C 84.53125 661.320312 86.300781 661.320312 88.921875 661.808594 L 89.71875 661.960938 L 89.71875 665.171875 C 89.71875 665.171875 86.5 664.210938 84.609375 664.210938 C 84.609375 664.210938 80.890625 664.210938 80.890625 666.910156 C 80.890625 666.910156 80.890625 668.640625 83.710938 669.839844 L 85.558594 670.621094 C 85.558594 670.621094 88.710938 671.949219 90.019531 673.421875 C 90.019531 673.421875 91.320312 674.890625 91.320312 677.101562 C 91.320312 677.101562 91.320312 679.890625 89.121094 681.691406 C 89.121094 681.691406 86.910156 683.488281 83.46875 683.488281 Z M 97.851562 690.710938 L 97.851562 661.789062 L 101.699219 661.789062 L 101.699219 665.769531 C 101.699219 665.769531 104.058594 661.320312 108.789062 661.320312 C 108.789062 661.320312 112.609375 661.320312 114.808594 664.109375 C 114.808594 664.109375 117.011719 666.910156 117.011719 671.75 C 117.011719 671.75 117.011719 677.019531 114.519531 680.261719 C 114.519531 680.261719 112.03125 683.488281 107.960938 683.488281 C 107.960938 683.488281 104.199219 683.488281 101.699219 680.601562 L 101.699219 690.710938 Z M 101.699219 677.941406 C 101.699219 677.941406 104.660156 680.601562 107.359375 680.601562 C 107.359375 680.601562 112.910156 680.601562 112.910156 672.140625 C 112.910156 672.140625 112.910156 664.679688 107.980469 664.679688 C 107.980469 664.679688 104.761719 664.679688 101.699219 668.179688 Z M 133.789062 680.300781 C 133.789062 680.300781 130.328125 683.488281 127.128906 683.488281 C 127.128906 683.488281 124.488281 683.488281 122.75 681.839844 C 122.75 681.839844 121.011719 680.191406 121.011719 677.671875 C 121.011719 677.671875 121.011719 674.191406 123.929688 672.328125 C 123.929688 672.328125 126.851562 670.460938 132.300781 670.460938 L 133.21875 670.460938 L 133.21875 667.898438 C 133.21875 667.898438 133.21875 664.210938 129.429688 664.210938 C 129.429688 664.210938 126.378906 664.210938 122.851562 666.089844 L 122.851562 662.898438 C 122.851562 662.898438 126.730469 661.320312 130.128906 661.320312 C 130.128906 661.320312 133.691406 661.320312 135.378906 662.921875 C 135.378906 662.921875 137.070312 664.519531 137.070312 667.898438 L 137.070312 677.511719 C 137.070312 677.511719 137.070312 680.808594 139.101562 680.808594 C 139.101562 680.808594 139.351562 680.808594 139.839844 680.730469 L 140.109375 682.859375 C 140.109375 682.859375 138.800781 683.488281 137.21875 683.488281 C 137.21875 683.488281 134.53125 683.488281 133.789062 680.300781 Z M 133.21875 678.210938 L 133.21875 672.730469 L 131.929688 672.691406 C 131.929688 672.691406 128.769531 672.691406 126.808594 673.890625 C 126.808594 673.890625 124.859375 675.089844 124.859375 677.039062 C 124.859375 677.039062 124.859375 678.429688 125.839844 679.390625 C 125.839844 679.390625 126.808594 680.339844 128.21875 680.339844 C 128.21875 680.339844 130.621094 680.339844 133.21875 678.210938 Z M 144.851562 683 L 144.851562 661.789062 L 148.699219 661.789062 L 148.699219 665.769531 C 148.699219 665.769531 150.980469 661.320312 155.339844 661.320312 C 155.339844 661.320312 155.921875 661.320312 156.570312 661.421875 L 156.570312 665.011719 C 156.570312 665.011719 155.570312 664.679688 154.808594 664.679688 C 154.808594 664.679688 151.160156 664.679688 148.699219 669.019531 L 148.699219 683 Z M 169.128906 683.488281 C 169.128906 683.488281 164.828125 683.488281 162 680.300781 C 162 680.300781 159.171875 677.121094 159.171875 672.28125 C 159.171875 672.28125 159.171875 667.101562 161.96875 664.210938 C 161.96875 664.210938 164.769531 661.320312 169.789062 661.320312 C 169.789062 661.320312 172.269531 661.320312 175.339844 662 L 175.339844 665.230469 C 175.339844 665.230469 172.078125 664.269531 170.03125 664.269531 C 170.03125 664.269531 167.078125 664.269531 165.289062 666.488281 C 165.289062 666.488281 163.5 668.699219 163.5 672.390625 C 163.5 672.390625 163.5 675.96875 165.339844 678.179688 C 165.339844 678.179688 167.179688 680.378906 170.140625 680.378906 C 170.140625 680.378906 172.78125 680.378906 175.570312 679.039062 L 175.570312 682.359375 C 175.570312 682.359375 171.839844 683.488281 169.128906 683.488281 Z M 175.949219 651.671875 L 171.238281 657.941406 L 166.980469 657.941406 L 162.269531 651.671875 L 165.160156 651.671875 L 169.089844 655.621094 L 169.128906 655.621094 L 173.050781 651.671875 Z M 180.851562 683 L 180.851562 661.789062 L 184.699219 661.789062 L 184.699219 683 Z M 180.851562 657.941406 L 180.851562 654.089844 L 184.699219 654.089844 L 184.699219 657.941406 Z M 206.109375 683 L 206.109375 679.019531 C 206.109375 679.019531 203.039062 683.488281 198.671875 683.488281 C 198.671875 683.488281 195.890625 683.488281 194.25 681.738281 C 194.25 681.738281 192.609375 679.988281 192.609375 677.019531 L 192.609375 661.789062 L 196.460938 661.789062 L 196.460938 675.769531 C 196.460938 675.769531 196.460938 678.160156 197.148438 679.160156 C 197.148438 679.160156 197.851562 680.171875 199.46875 680.171875 C 199.46875 680.171875 202.980469 680.171875 206.109375 675.539062 L 206.109375 661.789062 L 209.960938 661.789062 L 209.960938 683 Z M 237.210938 683.488281 C 237.210938 683.488281 234.289062 683.488281 232.640625 681.808594 C 232.640625 681.808594 231 680.128906 231 677.140625 L 231 664.679688 L 228.351562 664.679688 L 228.351562 661.789062 L 231 661.789062 L 231 657.941406 L 234.851562 657.570312 L 234.851562 661.789062 L 240.398438 661.789062 L 240.398438 664.679688 L 234.851562 664.679688 L 234.851562 676.441406 C 234.851562 676.441406 234.851562 680.601562 238.449219 680.601562 C 238.449219 680.601562 239.210938 680.601562 240.300781 680.339844 L 240.300781 683 C 240.300781 683 238.519531 683.488281 237.210938 683.488281 Z M 261.390625 682.320312 C 261.390625 682.320312 257.53125 683.488281 254.769531 683.488281 C 254.769531 683.488281 250.089844 683.488281 247.128906 680.371094 C 247.128906 680.371094 244.171875 677.261719 244.171875 672.300781 C 244.171875 672.300781 244.171875 667.46875 246.78125 664.390625 C 246.78125 664.390625 249.378906 661.300781 253.449219 661.300781 C 253.449219 661.300781 257.289062 661.300781 259.390625 664.039062 C 259.390625 664.039062 261.488281 666.769531 261.488281 671.808594 L 261.46875 673 L 248.089844 673 C 248.089844 673 248.929688 680.558594 255.5 680.558594 C 255.5 680.558594 257.898438 680.558594 261.390625 679.269531 Z M 248.269531 670.109375 L 257.628906 670.109375 C 257.628906 670.109375 257.628906 664.191406 253.210938 664.191406 C 253.210938 664.191406 248.78125 664.191406 248.269531 670.109375 Z M 267.851562 683 L 267.851562 661.789062 L 271.699219 661.789062 L 271.699219 665.769531 C 271.699219 665.769531 274.511719 661.320312 278.921875 661.320312 C 278.921875 661.320312 283.179688 661.320312 284.71875 665.769531 C 284.71875 665.769531 287.460938 661.300781 291.828125 661.300781 C 291.828125 661.300781 294.640625 661.300781 296.191406 662.949219 C 296.191406 662.949219 297.730469 664.601562 297.730469 667.570312 L 297.730469 683 L 293.859375 683 L 293.859375 668.179688 C 293.859375 668.179688 293.859375 664.539062 290.988281 664.539062 C 290.988281 664.539062 288 664.539062 284.71875 668.78125 L 284.71875 683 L 280.859375 683 L 280.859375 668.179688 C 280.859375 668.179688 280.859375 664.519531 277.929688 664.519531 C 277.929688 664.519531 275.019531 664.519531 271.699219 668.78125 L 271.699219 683 Z M 304.851562 690.710938 L 304.851562 661.789062 L 308.699219 661.789062 L 308.699219 665.769531 C 308.699219 665.769531 311.058594 661.320312 315.789062 661.320312 C 315.789062 661.320312 319.609375 661.320312 321.808594 664.109375 C 321.808594 664.109375 324.011719 666.910156 324.011719 671.75 C 324.011719 671.75 324.011719 677.019531 321.519531 680.261719 C 321.519531 680.261719 319.03125 683.488281 314.960938 683.488281 C 314.960938 683.488281 311.199219 683.488281 308.699219 680.601562 L 308.699219 690.710938 Z M 308.699219 677.941406 C 308.699219 677.941406 311.660156 680.601562 314.359375 680.601562 C 314.359375 680.601562 319.910156 680.601562 319.910156 672.140625 C 319.910156 672.140625 319.910156 664.679688 314.980469 664.679688 C 314.980469 664.679688 311.761719 664.679688 308.699219 668.179688 Z M 343.109375 683 L 343.109375 679.019531 C 343.109375 679.019531 340.039062 683.488281 335.671875 683.488281 C 335.671875 683.488281 332.890625 683.488281 331.25 681.738281 C 331.25 681.738281 329.609375 679.988281 329.609375 677.019531 L 329.609375 661.789062 L 333.460938 661.789062 L 333.460938 675.769531 C 333.460938 675.769531 333.460938 678.160156 334.148438 679.160156 C 334.148438 679.160156 334.851562 680.171875 336.46875 680.171875 C 336.46875 680.171875 339.980469 680.171875 343.109375 675.539062 L 343.109375 661.789062 L 346.960938 661.789062 L 346.960938 683 Z M 343.109375 683 "/>
<path style=" stroke:none;fill-rule:nonzero;fill:rgb(29.411316%,33.724976%,39.99939%);fill-opacity:1;" d="M 873.390625 587.71875 C 873.390625 587.71875 870.480469 587.71875 865.949219 586.449219 L 865.949219 582.390625 C 865.949219 582.390625 870.839844 584.660156 873.980469 584.660156 C 873.980469 584.660156 876.398438 584.660156 877.878906 583.390625 C 877.878906 583.390625 879.351562 582.121094 879.351562 580.050781 C 879.351562 580.050781 879.351562 578.351562 878.378906 577.160156 C 878.378906 577.160156 877.421875 575.960938 874.820312 574.5 L 872.828125 573.351562 C 872.828125 573.351562 869.140625 571.238281 867.621094 569.371094 C 867.621094 569.371094 866.109375 567.511719 866.109375 565.03125 C 866.109375 565.03125 866.109375 561.691406 868.53125 559.53125 C 868.53125 559.53125 870.949219 557.371094 874.699219 557.371094 C 874.699219 557.371094 878.039062 557.371094 881.75 558.480469 L 881.75 562.230469 C 881.75 562.230469 877.179688 560.441406 874.941406 560.441406 C 874.941406 560.441406 872.808594 560.441406 871.421875 561.570312 C 871.421875 561.570312 870.039062 562.699219 870.039062 564.421875 C 870.039062 564.421875 870.039062 565.871094 871.050781 566.980469 C 871.050781 566.980469 872.070312 568.089844 874.761719 569.640625 L 876.828125 570.808594 C 876.828125 570.808594 880.578125 572.941406 882.070312 574.828125 C 882.070312 574.828125 883.550781 576.730469 883.550781 579.378906 C 883.550781 579.378906 883.550781 583.148438 880.769531 585.441406 C 880.769531 585.441406 877.980469 587.71875 873.390625 587.71875 Z M 889.851562 587 L 889.851562 565.789062 L 893.699219 565.789062 L 893.699219 587 Z M 889.851562 561.941406 L 889.851562 558.089844 L 893.699219 558.089844 L 893.699219 561.941406 Z M 917.390625 586.320312 C 917.390625 586.320312 913.53125 587.488281 910.769531 587.488281 C 910.769531 587.488281 906.089844 587.488281 903.128906 584.371094 C 903.128906 584.371094 900.171875 581.261719 900.171875 576.300781 C 900.171875 576.300781 900.171875 571.46875 902.78125 568.390625 C 902.78125 568.390625 905.378906 565.300781 909.449219 565.300781 C 909.449219 565.300781 913.289062 565.300781 915.390625 568.039062 C 915.390625 568.039062 917.488281 570.769531 917.488281 575.808594 L 917.46875 577 L 904.089844 577 C 904.089844 577 904.929688 584.558594 911.5 584.558594 C 911.5 584.558594 913.898438 584.558594 917.390625 583.269531 Z M 904.269531 574.109375 L 913.628906 574.109375 C 913.628906 574.109375 913.628906 568.191406 909.210938 568.191406 C 909.210938 568.191406 904.78125 568.191406 904.269531 574.109375 Z M 923.851562 587 L 923.851562 556.160156 L 927.699219 556.160156 L 927.699219 576.078125 L 936.679688 565.789062 L 940.820312 565.789062 L 932.25 575.691406 L 942.601562 587 L 937.679688 587 L 927.699219 576.121094 L 927.699219 587 Z M 946.851562 587 L 946.851562 565.789062 L 950.699219 565.789062 L 950.699219 587 Z M 946.851562 561.941406 L 946.851562 558.089844 L 950.699219 558.089844 L 950.699219 561.941406 Z M 958.851562 587 L 958.851562 565.789062 L 962.699219 565.789062 L 962.699219 569.769531 C 962.699219 569.769531 965.511719 565.320312 969.921875 565.320312 C 969.921875 565.320312 974.179688 565.320312 975.71875 569.769531 C 975.71875 569.769531 978.460938 565.300781 982.828125 565.300781 C 982.828125 565.300781 985.640625 565.300781 987.191406 566.949219 C 987.191406 566.949219 988.730469 568.601562 988.730469 571.570312 L 988.730469 587 L 984.859375 587 L 984.859375 572.179688 C 984.859375 572.179688 984.859375 568.539062 981.988281 568.539062 C 981.988281 568.539062 979 568.539062 975.71875 572.78125 L 975.71875 587 L 971.859375 587 L 971.859375 572.179688 C 971.859375 572.179688 971.859375 568.519531 968.929688 568.519531 C 968.929688 568.519531 966.019531 568.519531 962.699219 572.78125 L 962.699219 587 Z M 1011.390625 586.320312 C 1011.390625 586.320312 1007.53125 587.488281 1004.769531 587.488281 C 1004.769531 587.488281 1000.089844 587.488281 997.128906 584.371094 C 997.128906 584.371094 994.171875 581.261719 994.171875 576.300781 C 994.171875 576.300781 994.171875 571.46875 996.78125 568.390625 C 996.78125 568.390625 999.378906 565.300781 1003.449219 565.300781 C 1003.449219 565.300781 1007.289062 565.300781 1009.390625 568.039062 C 1009.390625 568.039062 1011.488281 570.769531 1011.488281 575.808594 L 1011.46875 577 L 998.089844 577 C 998.089844 577 998.929688 584.558594 1005.5 584.558594 C 1005.5 584.558594 1007.898438 584.558594 1011.390625 583.269531 Z M 998.269531 574.109375 L 1007.628906 574.109375 C 1007.628906 574.109375 1007.628906 568.191406 1003.210938 568.191406 C 1003.210938 568.191406 998.78125 568.191406 998.269531 574.109375 Z M 998.269531 574.109375 "/>
<path style=" stroke:none;fill-rule:nonzero;fill:rgb(29.411316%,33.724976%,39.99939%);fill-opacity:1;" d="M 828.851562 635 L 828.851562 613.789062 L 832.699219 613.789062 L 832.699219 617.769531 C 832.699219 617.769531 835.738281 613.320312 840.160156 613.320312 C 840.160156 613.320312 842.910156 613.320312 844.550781 615.070312 C 844.550781 615.070312 846.191406 616.820312 846.191406 619.769531 L 846.191406 635 L 842.339844 635 L 842.339844 621.019531 C 842.339844 621.019531 842.339844 618.648438 841.648438 617.648438 C 841.648438 617.648438 840.960938 616.640625 839.359375 616.640625 C 839.359375 616.640625 835.820312 616.640625 832.699219 621.269531 L 832.699219 635 Z M 867.109375 635 L 867.109375 631.019531 C 867.109375 631.019531 864.039062 635.488281 859.671875 635.488281 C 859.671875 635.488281 856.890625 635.488281 855.25 633.738281 C 855.25 633.738281 853.609375 631.988281 853.609375 629.019531 L 853.609375 613.789062 L 857.460938 613.789062 L 857.460938 627.769531 C 857.460938 627.769531 857.460938 630.160156 858.148438 631.160156 C 858.148438 631.160156 858.851562 632.171875 860.46875 632.171875 C 860.46875 632.171875 863.980469 632.171875 867.109375 627.539062 L 867.109375 613.789062 L 870.960938 613.789062 L 870.960938 635 Z M 887.148438 635.488281 C 887.148438 635.488281 882.601562 635.488281 879.878906 632.46875 C 879.878906 632.46875 877.171875 629.449219 877.171875 624.390625 C 877.171875 624.390625 877.171875 619.28125 879.890625 616.300781 C 879.890625 616.300781 882.621094 613.320312 887.289062 613.320312 C 887.289062 613.320312 891.949219 613.320312 894.679688 616.300781 C 894.679688 616.300781 897.398438 619.28125 897.398438 624.359375 C 897.398438 624.359375 897.398438 629.550781 894.671875 632.519531 C 894.671875 632.519531 891.929688 635.488281 887.148438 635.488281 Z M 887.210938 632.601562 C 887.210938 632.601562 893.320312 632.601562 893.320312 624.359375 C 893.320312 624.359375 893.320312 616.210938 887.289062 616.210938 C 887.289062 616.210938 881.269531 616.210938 881.269531 624.390625 C 881.269531 624.390625 881.269531 632.601562 887.210938 632.601562 Z M 903.851562 635 L 903.851562 604.160156 L 907.699219 604.160156 L 907.699219 635 Z M 926.789062 632.300781 C 926.789062 632.300781 923.328125 635.488281 920.128906 635.488281 C 920.128906 635.488281 917.488281 635.488281 915.75 633.839844 C 915.75 633.839844 914.011719 632.191406 914.011719 629.671875 C 914.011719 629.671875 914.011719 626.191406 916.929688 624.328125 C 916.929688 624.328125 919.851562 622.460938 925.300781 622.460938 L 926.21875 622.460938 L 926.21875 619.898438 C 926.21875 619.898438 926.21875 616.210938 922.429688 616.210938 C 922.429688 616.210938 919.378906 616.210938 915.851562 618.089844 L 915.851562 614.898438 C 915.851562 614.898438 919.730469 613.320312 923.128906 613.320312 C 923.128906 613.320312 926.691406 613.320312 928.378906 614.921875 C 928.378906 614.921875 930.070312 616.519531 930.070312 619.898438 L 930.070312 629.511719 C 930.070312 629.511719 930.070312 632.808594 932.101562 632.808594 C 932.101562 632.808594 932.351562 632.808594 932.839844 632.730469 L 933.109375 634.859375 C 933.109375 634.859375 931.800781 635.488281 930.21875 635.488281 C 930.21875 635.488281 927.53125 635.488281 926.789062 632.300781 Z M 926.21875 630.210938 L 926.21875 624.730469 L 924.929688 624.691406 C 924.929688 624.691406 921.769531 624.691406 919.808594 625.890625 C 919.808594 625.890625 917.859375 627.089844 917.859375 629.039062 C 917.859375 629.039062 917.859375 630.429688 918.839844 631.390625 C 918.839844 631.390625 919.808594 632.339844 921.21875 632.339844 C 921.21875 632.339844 923.621094 632.339844 926.21875 630.210938 Z M 944.210938 635.488281 C 944.210938 635.488281 941.289062 635.488281 939.640625 633.808594 C 939.640625 633.808594 938 632.128906 938 629.140625 L 938 616.679688 L 935.351562 616.679688 L 935.351562 613.789062 L 938 613.789062 L 938 609.941406 L 941.851562 609.570312 L 941.851562 613.789062 L 947.398438 613.789062 L 947.398438 616.679688 L 941.851562 616.679688 L 941.851562 628.441406 C 941.851562 628.441406 941.851562 632.601562 945.449219 632.601562 C 945.449219 632.601562 946.210938 632.601562 947.300781 632.339844 L 947.300781 635 C 947.300781 635 945.519531 635.488281 944.210938 635.488281 Z M 965.851562 635 L 965.851562 604.160156 L 969.699219 604.160156 L 969.699219 624.078125 L 978.679688 613.789062 L 982.820312 613.789062 L 974.25 623.691406 L 984.601562 635 L 979.679688 635 L 969.699219 624.121094 L 969.699219 635 Z M 1002.109375 635 L 1002.109375 631.019531 C 1002.109375 631.019531 999.039062 635.488281 994.671875 635.488281 C 994.671875 635.488281 991.890625 635.488281 990.25 633.738281 C 990.25 633.738281 988.609375 631.988281 988.609375 629.019531 L 988.609375 613.789062 L 992.460938 613.789062 L 992.460938 627.769531 C 992.460938 627.769531 992.460938 630.160156 993.148438 631.160156 C 993.148438 631.160156 993.851562 632.171875 995.46875 632.171875 C 995.46875 632.171875 998.980469 632.171875 1002.109375 627.539062 L 1002.109375 613.789062 L 1005.960938 613.789062 L 1005.960938 635 Z M 1013.851562 635 L 1013.851562 613.789062 L 1017.699219 613.789062 L 1017.699219 617.769531 C 1017.699219 617.769531 1019.980469 613.320312 1024.339844 613.320312 C 1024.339844 613.320312 1024.921875 613.320312 1025.570312 613.421875 L 1025.570312 617.011719 C 1025.570312 617.011719 1024.570312 616.679688 1023.808594 616.679688 C 1023.808594 616.679688 1020.160156 616.679688 1017.699219 621.019531 L 1017.699219 635 Z M 1036.210938 635.488281 C 1036.210938 635.488281 1033.289062 635.488281 1031.640625 633.808594 C 1031.640625 633.808594 1030 632.128906 1030 629.140625 L 1030 616.679688 L 1027.351562 616.679688 L 1027.351562 613.789062 L 1030 613.789062 L 1030 609.941406 L 1033.851562 609.570312 L 1033.851562 613.789062 L 1039.398438 613.789062 L 1039.398438 616.679688 L 1033.851562 616.679688 L 1033.851562 628.441406 C 1033.851562 628.441406 1033.851562 632.601562 1037.449219 632.601562 C 1037.449219 632.601562 1038.210938 632.601562 1039.300781 632.339844 L 1039.300781 635 C 1039.300781 635 1037.519531 635.488281 1036.210938 635.488281 Z M 1044.851562 635 L 1044.851562 613.789062 L 1048.699219 613.789062 L 1048.699219 635 Z M 1044.851562 609.941406 L 1044.851562 606.089844 L 1048.699219 606.089844 L 1048.699219 609.941406 Z M 1044.851562 609.941406 "/>
<path style=" stroke:none;fill-rule:nonzero;fill:rgb(29.411316%,33.724976%,39.99939%);fill-opacity:1;" d="M 883.851562 683 L 883.851562 661.789062 L 887.699219 661.789062 L 887.699219 665.769531 C 887.699219 665.769531 890.738281 661.320312 895.160156 661.320312 C 895.160156 661.320312 897.910156 661.320312 899.550781 663.070312 C 899.550781 663.070312 901.191406 664.820312 901.191406 667.769531 L 901.191406 683 L 897.339844 683 L 897.339844 669.019531 C 897.339844 669.019531 897.339844 666.648438 896.648438 665.648438 C 896.648438 665.648438 895.960938 664.640625 894.359375 664.640625 C 894.359375 664.640625 890.820312 664.640625 887.699219 669.269531 L 887.699219 683 Z M 919.789062 680.300781 C 919.789062 680.300781 916.328125 683.488281 913.128906 683.488281 C 913.128906 683.488281 910.488281 683.488281 908.75 681.839844 C 908.75 681.839844 907.011719 680.191406 907.011719 677.671875 C 907.011719 677.671875 907.011719 674.191406 909.929688 672.328125 C 909.929688 672.328125 912.851562 670.460938 918.300781 670.460938 L 919.21875 670.460938 L 919.21875 667.898438 C 919.21875 667.898438 919.21875 664.210938 915.429688 664.210938 C 915.429688 664.210938 912.378906 664.210938 908.851562 666.089844 L 908.851562 662.898438 C 908.851562 662.898438 912.730469 661.320312 916.128906 661.320312 C 916.128906 661.320312 919.691406 661.320312 921.378906 662.921875 C 921.378906 662.921875 923.070312 664.519531 923.070312 667.898438 L 923.070312 677.511719 C 923.070312 677.511719 923.070312 680.808594 925.101562 680.808594 C 925.101562 680.808594 925.351562 680.808594 925.839844 680.730469 L 926.109375 682.859375 C 926.109375 682.859375 924.800781 683.488281 923.21875 683.488281 C 923.21875 683.488281 920.53125 683.488281 919.789062 680.300781 Z M 919.21875 678.210938 L 919.21875 672.730469 L 917.929688 672.691406 C 917.929688 672.691406 914.769531 672.691406 912.808594 673.890625 C 912.808594 673.890625 910.859375 675.089844 910.859375 677.039062 C 910.859375 677.039062 910.859375 678.429688 911.839844 679.390625 C 911.839844 679.390625 912.808594 680.339844 914.21875 680.339844 C 914.21875 680.339844 916.621094 680.339844 919.21875 678.210938 Z M 944.109375 683 L 944.109375 679.019531 C 944.109375 679.019531 941.039062 683.488281 936.671875 683.488281 C 936.671875 683.488281 933.890625 683.488281 932.25 681.738281 C 932.25 681.738281 930.609375 679.988281 930.609375 677.019531 L 930.609375 661.789062 L 934.460938 661.789062 L 934.460938 675.769531 C 934.460938 675.769531 934.460938 678.160156 935.148438 679.160156 C 935.148438 679.160156 935.851562 680.171875 937.46875 680.171875 C 937.46875 680.171875 940.980469 680.171875 944.109375 675.539062 L 944.109375 661.789062 L 947.960938 661.789062 L 947.960938 683 Z M 969.460938 683 L 969.460938 679.019531 C 969.460938 679.019531 967.121094 683.488281 962.390625 683.488281 C 962.390625 683.488281 958.558594 683.488281 956.371094 680.699219 C 956.371094 680.699219 954.171875 677.898438 954.171875 673.058594 C 954.171875 673.058594 954.171875 667.769531 956.660156 664.539062 C 956.660156 664.539062 959.148438 661.320312 963.210938 661.320312 C 963.210938 661.320312 966.980469 661.320312 969.460938 664.210938 L 969.460938 652.160156 L 973.328125 652.160156 L 973.328125 683 Z M 969.460938 666.851562 C 969.460938 666.851562 966.46875 664.210938 963.800781 664.210938 C 963.800781 664.210938 958.269531 664.210938 958.269531 672.671875 C 958.269531 672.671875 958.269531 680.109375 963.191406 680.109375 C 963.191406 680.109375 966.390625 680.109375 969.460938 676.609375 Z M 991.789062 680.300781 C 991.789062 680.300781 988.328125 683.488281 985.128906 683.488281 C 985.128906 683.488281 982.488281 683.488281 980.75 681.839844 C 980.75 681.839844 979.011719 680.191406 979.011719 677.671875 C 979.011719 677.671875 979.011719 674.191406 981.929688 672.328125 C 981.929688 672.328125 984.851562 670.460938 990.300781 670.460938 L 991.21875 670.460938 L 991.21875 667.898438 C 991.21875 667.898438 991.21875 664.210938 987.429688 664.210938 C 987.429688 664.210938 984.378906 664.210938 980.851562 666.089844 L 980.851562 662.898438 C 980.851562 662.898438 984.730469 661.320312 988.128906 661.320312 C 988.128906 661.320312 991.691406 661.320312 993.378906 662.921875 C 993.378906 662.921875 995.070312 664.519531 995.070312 667.898438 L 995.070312 677.511719 C 995.070312 677.511719 995.070312 680.808594 997.101562 680.808594 C 997.101562 680.808594 997.351562 680.808594 997.839844 680.730469 L 998.109375 682.859375 C 998.109375 682.859375 996.800781 683.488281 995.21875 683.488281 C 995.21875 683.488281 992.53125 683.488281 991.789062 680.300781 Z M 991.21875 678.210938 L 991.21875 672.730469 L 989.929688 672.691406 C 989.929688 672.691406 986.769531 672.691406 984.808594 673.890625 C 984.808594 673.890625 982.859375 675.089844 982.859375 677.039062 C 982.859375 677.039062 982.859375 678.429688 983.839844 679.390625 C 983.839844 679.390625 984.808594 680.339844 986.21875 680.339844 C 986.21875 680.339844 988.621094 680.339844 991.21875 678.210938 Z M 993.878906 683 L 995.960938 683 C 995.960938 683 994.699219 683.738281 994.070312 684.621094 C 994.070312 684.621094 993.449219 685.5 993.449219 686.519531 C 993.449219 686.519531 993.449219 687.429688 994 687.898438 C 994 687.898438 994.558594 688.371094 995.691406 688.371094 C 995.691406 688.371094 996.789062 688.371094 997.46875 688.078125 L 997.46875 689.660156 C 997.46875 689.660156 996.300781 690.230469 994.769531 690.230469 C 994.769531 690.230469 992.78125 690.230469 991.789062 689.449219 C 991.789062 689.449219 990.789062 688.660156 990.789062 687.121094 C 990.789062 687.121094 990.789062 685.890625 991.558594 684.871094 C 991.558594 684.871094 992.328125 683.839844 993.878906 683 Z M 993.878906 683 "/>
</g>
</svg>
