<?xml version="1.0" encoding="utf-8"?>
<!-- Generator: Adobe Illustrator 15.0.0, SVG Export Plug-In . SVG Version: 6.00 Build 0)  -->
<!DOCTYPE svg PUBLIC "-//W3C//DTD SVG 1.1//EN" "http://www.w3.org/Graphics/SVG/1.1/DTD/svg11.dtd">
<svg version="1.1" id="Layer_1" xmlns="http://www.w3.org/2000/svg" xmlns:xlink="http://www.w3.org/1999/xlink" x="0px" y="0px"
	 width="1152px" height="1152.001px" viewBox="0 0 1152 1152.001" enable-background="new 0 0 1152 1152.001" xml:space="preserve">
<circle fill="#4B5666" cx="576" cy="576" r="576"/>
<g>
	<path fill="#FBD35C" d="M188.2964,188.29c214.2964-214.2959,561.1108-214.293,775.4106,0.0078L576.0049,575.999L188.2964,188.29z"
		/>
</g>
<g>
	<path fill="#A4D970" d="M963.71,188.293c214.2979,214.2979,214.293,561.1104-0.0068,775.4092L576.002,576.001L963.71,188.293z"/>
</g>
<g>
	<path fill="#9EBEED" d="M963.7031,963.709c-214.2959,214.2988-561.1104,214.293-775.4102-0.0068L575.9951,576.001L963.7031,963.709
		z"/>
</g>
<g>
	<path fill="#FA7977" d="M188.2896,963.707c-214.2959-214.2979-214.2925-561.1104,0.0068-775.4092L575.999,575.999L188.2896,963.707
		z"/>
</g>
<circle fill="#4B5666" cx="576" cy="576" r="194.6777"/>
<g>
	<path fill="#FFFFFF" d="M466.7227,560.9141l-15.0771-39.3945h-0.2432c0.2842,3.1211,0.4258,6.8301,0.4258,11.127v28.2676h-4.7725
		v-44.4395h7.7822l14.0732,36.6582h0.2432l14.1953-36.6582h7.7207v44.4395h-5.167v-28.6328c0-3.2832,0.1416-6.8496,0.4258-10.6992
		h-0.2432l-15.1992,39.332H466.7227z"/>
	<path fill="#FFFFFF" d="M541.833,538.6328c0,7.1133-1.7988,12.707-5.3955,16.7793c-3.5977,4.0742-8.5977,6.1113-15.001,6.1113
		c-6.5459,0-11.5967-2.002-15.1533-6.0039c-3.5557-4.002-5.334-9.6523-5.334-16.9473c0-7.2344,1.7832-12.8418,5.3496-16.8242
		s8.6328-5.9727,15.1982-5.9727c6.3838,0,11.3682,2.0273,14.9551,6.0801S541.833,531.5,541.833,538.6328z M506.4209,538.6328
		c0,6.0195,1.2812,10.584,3.8447,13.6953c2.5635,3.1094,6.2871,4.666,11.1709,4.666c4.9238,0,8.6426-1.5508,11.1553-4.6523
		c2.5127-3.0996,3.7695-7.6699,3.7695-13.709c0-5.9766-1.252-10.5117-3.7539-13.6016c-2.5029-3.0898-6.2061-4.6348-11.1104-4.6348
		c-4.9238,0-8.668,1.5547-11.2314,4.666C507.7021,528.1719,506.4209,532.6973,506.4209,538.6328z"/>
	<path fill="#FFFFFF" d="M587.2148,538.2695c0,7.3359-1.9912,12.9434-5.9736,16.8242c-3.9814,3.8809-9.7109,5.8203-17.1885,5.8203
		h-12.3115v-44.4395h13.6182c6.9102,0,12.2803,1.9141,16.1104,5.7441S587.2148,531.3984,587.2148,538.2695z M581.7432,538.4512
		c0-5.7949-1.4541-10.1621-4.3623-13.1016c-2.9082-2.9375-7.2295-4.4062-12.9639-4.4062h-7.5078v35.502h6.292
		c6.1602,0,10.791-1.5137,13.8916-4.543S581.7432,544.3887,581.7432,538.4512z"/>
	<path fill="#FFFFFF" d="M621.8975,560.9141H597.124v-44.4395h24.7734v4.5898H602.292v14.3164h18.4199v4.5605H602.292v16.3535
		h19.6055V560.9141z"/>
	<path fill="#FFFFFF" d="M636.9141,542.4336v18.4805h-5.168v-44.4395h12.1895c5.4512,0,9.4785,1.043,12.083,3.1309
		c2.6035,2.0879,3.9053,5.2285,3.9053,9.4238c0,5.877-2.9785,9.8477-8.9365,11.9141l12.0674,19.9707h-6.1094l-10.7607-18.4805
		H636.9141z M636.9141,537.9961h7.082c3.6475,0,6.3232-0.7246,8.0254-2.1738s2.5527-3.623,2.5527-6.5195
		c0-2.9395-0.8662-5.0566-2.5986-6.3535s-4.5137-1.9453-8.3438-1.9453h-6.7178V537.9961z"/>
	<path fill="#FFFFFF" d="M704.9424,560.9141h-5.8975l-24.2871-37.2969h-0.2432c0.3242,4.377,0.4863,8.3906,0.4863,12.0371v25.2598
		h-4.7725v-44.4395h5.8369l24.2256,37.1445h0.2432c-0.041-0.5469-0.1318-2.3047-0.2734-5.2734s-0.1924-5.0918-0.1514-6.3691v-25.502
		h4.833V560.9141z"/>
	<path fill="#FFFFFF" d="M525.54,635.6172l-5.5322-14.1348h-17.8125l-5.4707,14.1348h-5.2285l17.5693-44.6211h4.3467
		l17.4785,44.6211H525.54z M518.3975,616.832l-5.168-13.7695c-0.668-1.7422-1.3574-3.8809-2.0664-6.4141
		c-0.4463,1.9453-1.085,4.084-1.915,6.4141l-5.2285,13.7695H518.3975z"/>
	<path fill="#FFFFFF" d="M556.5459,612.334h15.1064v21.6113c-2.3506,0.75-4.7412,1.3184-7.1729,1.7031
		c-2.4326,0.3848-5.249,0.5781-8.4512,0.5781c-6.7275,0-11.9658-2.002-15.7148-6.0039s-5.623-9.6113-5.623-16.8242
		c0-4.6211,0.9268-8.668,2.7812-12.1445c1.8545-3.4746,4.5234-6.1289,8.0098-7.9629c3.4844-1.834,7.5684-2.752,12.249-2.752
		c4.7422,0,9.1602,0.8711,13.2539,2.6152l-2.0068,4.5586c-4.0117-1.7031-7.8721-2.5527-11.5811-2.5527
		c-5.4102,0-9.6357,1.6113-12.6758,4.832c-3.0391,3.2227-4.5586,7.6914-4.5586,13.4062c0,5.998,1.4629,10.5469,4.3916,13.6465
		c2.9287,3.1016,7.2295,4.6523,12.9033,4.6523c3.0801,0,6.0898-0.3555,9.0283-1.0645v-13.6797h-9.9395V612.334z"/>
	<path fill="#FFFFFF" d="M582.3213,635.6172v-44.4395h5.168v44.4395H582.3213z"/>
	<path fill="#FFFFFF" d="M599.6777,635.6172v-44.4395h5.168v39.7598h19.6055v4.6797H599.6777z"/>
	<path fill="#FFFFFF" d="M656.7627,635.6172h-24.7734v-44.4395h24.7734v4.5898h-19.6055v14.3164h18.4199v4.5605h-18.4199v16.3535
		h19.6055V635.6172z"/>
</g>
<g>
	<path fill="#4B5666" d="M462.9082,251.6055l-8.6953-25.04h-0.1641c0.2324,3.7188,0.3486,7.2051,0.3486,10.459v14.5811h-4.4502
		V221.623h6.9111l8.3262,23.8506h0.123l8.5723-23.8506h6.9316v29.9824h-4.7168v-14.8271c0-1.4902,0.0371-3.4316,0.1133-5.8242
		c0.0742-2.3926,0.1396-3.8418,0.1943-4.3477h-0.1641l-9.0029,24.999H462.9082z"/>
	<path fill="#4B5666" d="M502.3857,251.6055l-0.9639-3.1582h-0.1641c-1.0938,1.3809-2.1943,2.3213-3.3018,2.8203
		c-1.1074,0.498-2.5293,0.748-4.2656,0.748c-2.2285,0-3.9688-0.6016-5.2188-1.8047c-1.252-1.2031-1.877-2.9053-1.877-5.1064
		c0-2.3379,0.8682-4.1016,2.6045-5.291s4.3818-1.8389,7.9365-1.9482l3.917-0.123v-1.21c0-1.4492-0.3389-2.5322-1.0146-3.251
		c-0.6777-0.7168-1.7266-1.0762-3.1484-1.0762c-1.1621,0-2.2764,0.1709-3.3428,0.5127s-2.0918,0.7451-3.0762,1.21l-1.5586-3.4453
		c1.2305-0.6426,2.5771-1.1309,4.04-1.4668c1.4629-0.334,2.8438-0.502,4.1426-0.502c2.8848,0,5.0615,0.6289,6.5312,1.8867
		s2.2051,3.2334,2.2051,5.9268v15.2783H502.3857z M495.208,248.3242c1.75,0,3.1543-0.4883,4.2148-1.4668
		c1.0586-0.9766,1.5889-2.3477,1.5889-4.1113v-1.9688l-2.9121,0.123c-2.2695,0.082-3.9209,0.4609-4.9521,1.1387
		c-1.0332,0.6758-1.5488,1.7119-1.5488,3.1064c0,1.0117,0.3008,1.7939,0.9023,2.3486
		C493.1025,248.0469,494.0049,248.3242,495.208,248.3242z"/>
	<path fill="#4B5666" d="M517.2129,239.6289l2.7275-3.4043l6.8496-7.3008h5.5576l-9.126,9.7412l9.7002,12.9404h-5.6602
		l-7.2803-9.9463l-2.6455,2.1738v7.7725h-4.7783v-31.9102h4.7783v15.5654l-0.2461,4.3682H517.2129z"/>
	<path fill="#4B5666" d="M546.4775,252.0156c-3.5273,0-6.2861-1.0283-8.2744-3.0859c-1.9902-2.0576-2.9844-4.8916-2.9844-8.501
		c0-3.7051,0.9229-6.6172,2.7686-8.7363s4.3818-3.1787,7.6084-3.1787c2.9941,0,5.3594,0.9092,7.0957,2.7275
		s2.6045,4.3203,2.6045,7.5059v2.6045h-15.1143c0.0684,2.2012,0.6631,3.8936,1.7842,5.0762s2.7002,1.7734,4.7373,1.7734
		c1.3398,0,2.5869-0.126,3.7422-0.3789s2.3965-0.6738,3.7227-1.2617v3.917c-1.1758,0.5605-2.3652,0.957-3.5684,1.1895
		S548.0225,252.0156,546.4775,252.0156z M545.5957,232.1641c-1.5312,0-2.7578,0.4854-3.6816,1.4561
		c-0.9219,0.9707-1.4727,2.3857-1.6504,4.2451h10.2949c-0.0273-1.873-0.4785-3.291-1.3535-4.2559
		C548.3301,232.6465,547.127,232.1641,545.5957,232.1641z"/>
	<path fill="#4B5666" d="M592.0459,230.6875c0,3.1309-1.0254,5.5303-3.0762,7.1982s-4.9697,2.502-8.7568,2.502h-3.1172v11.2178
		h-4.9014V221.623h8.6338c3.7461,0,6.5527,0.7656,8.418,2.2969C591.1133,225.4512,592.0459,227.707,592.0459,230.6875z
		 M577.0957,236.2656h2.6045c2.5156,0,4.3613-0.4375,5.5371-1.3125s1.7637-2.2422,1.7637-4.1016
		c0-1.7227-0.5264-3.0078-1.5791-3.8555s-2.6934-1.2715-4.9219-1.2715h-3.4043V236.2656z"/>
	<path fill="#4B5666" d="M607.4268,252.0156c-3.5273,0-6.2861-1.0283-8.2744-3.0859c-1.9902-2.0576-2.9844-4.8916-2.9844-8.501
		c0-3.7051,0.9229-6.6172,2.7686-8.7363s4.3818-3.1787,7.6084-3.1787c2.9941,0,5.3594,0.9092,7.0957,2.7275
		s2.6045,4.3203,2.6045,7.5059v2.6045h-15.1143c0.0684,2.2012,0.6631,3.8936,1.7842,5.0762s2.7002,1.7734,4.7373,1.7734
		c1.3398,0,2.5869-0.126,3.7422-0.3789s2.3965-0.6738,3.7227-1.2617v3.917c-1.1758,0.5605-2.3652,0.957-3.5684,1.1895
		S608.9717,252.0156,607.4268,252.0156z M606.5449,232.1641c-1.5312,0-2.7578,0.4854-3.6816,1.4561
		c-0.9219,0.9707-1.4727,2.3857-1.6504,4.2451h10.2949c-0.0273-1.873-0.4785-3.291-1.3535-4.2559
		C609.2793,232.6465,608.0762,232.1641,606.5449,232.1641z"/>
	<path fill="#4B5666" d="M641.8389,240.2236c0,3.7051-0.9502,6.5967-2.8506,8.6748s-4.5459,3.1172-7.9365,3.1172
		c-2.1191,0-3.9922-0.4785-5.6191-1.4355s-2.8779-2.3311-3.7529-4.1221s-1.3125-3.8691-1.3125-6.2344
		c0-3.6777,0.9434-6.5488,2.8301-8.6133s4.5459-3.0967,7.9775-3.0967c3.2812,0,5.8789,1.0566,7.793,3.168
		C640.8818,233.7949,641.8389,236.6416,641.8389,240.2236z M625.3301,240.2236c0,5.2363,1.9346,7.8545,5.8037,7.8545
		c3.8281,0,5.7422-2.6182,5.7422-7.8545c0-5.1816-1.9277-7.7725-5.7832-7.7725c-2.0234,0-3.4902,0.6699-4.3994,2.0098
		S625.3301,237.7217,625.3301,240.2236z"/>
	<path fill="#4B5666" d="M658.8809,252.0156c-2.8711,0-5.0996-1.0322-6.6855-3.0967h-0.2871
		c0.1914,1.9141,0.2871,3.0762,0.2871,3.4863v9.29h-4.8193v-32.7715h3.8965c0.1094,0.4238,0.335,1.4355,0.6768,3.0352h0.2461
		c1.5039-2.2969,3.7598-3.4453,6.7676-3.4453c2.8301,0,5.0342,1.0254,6.6143,3.0762c1.5781,2.0508,2.3682,4.9287,2.3682,8.6338
		s-0.8037,6.5967-2.4092,8.6748C663.9287,250.9766,661.7109,252.0156,658.8809,252.0156z M657.7119,232.4512
		c-1.9141,0-3.3125,0.5605-4.1934,1.6816c-0.8828,1.1211-1.3232,2.9121-1.3232,5.373v0.7178c0,2.7617,0.4375,4.7617,1.3125,5.999
		s2.3037,1.8555,4.2861,1.8555c1.668,0,2.9531-0.6836,3.8555-2.0508s1.3535-3.3154,1.3535-5.8447
		c0-2.543-0.4482-4.4668-1.3438-5.7725S659.4482,232.4512,657.7119,232.4512z"/>
	<path fill="#4B5666" d="M678.3633,251.6055h-4.8193v-31.9102h4.8193V251.6055z"/>
	<path fill="#4B5666" d="M695.1592,252.0156c-3.5273,0-6.2861-1.0283-8.2744-3.0859c-1.9902-2.0576-2.9844-4.8916-2.9844-8.501
		c0-3.7051,0.9229-6.6172,2.7686-8.7363s4.3818-3.1787,7.6084-3.1787c2.9941,0,5.3594,0.9092,7.0957,2.7275
		s2.6045,4.3203,2.6045,7.5059v2.6045h-15.1143c0.0684,2.2012,0.6631,3.8936,1.7842,5.0762s2.7002,1.7734,4.7373,1.7734
		c1.3398,0,2.5869-0.126,3.7422-0.3789s2.3965-0.6738,3.7227-1.2617v3.917c-1.1758,0.5605-2.3652,0.957-3.5684,1.1895
		S696.7041,252.0156,695.1592,252.0156z M694.2773,232.1641c-1.5312,0-2.7578,0.4854-3.6816,1.4561
		c-0.9219,0.9707-1.4727,2.3857-1.6504,4.2451h10.2949c-0.0273-1.873-0.4785-3.291-1.3535-4.2559
		C697.0117,232.6465,695.8086,232.1641,694.2773,232.1641z"/>
	<path fill="#4B5666" d="M500.1924,302.0059l-2.9941-8.3262h-11.4639l-2.9326,8.3262h-5.168l11.2178-30.1055h5.332l11.2178,30.1055
		H500.1924z M495.9062,289.4551l-2.8096-8.1621c-0.2051-0.5469-0.4893-1.4082-0.8516-2.584s-0.6113-2.0371-0.748-2.584
		c-0.3691,1.6816-0.9092,3.5205-1.6201,5.5166l-2.707,7.8135H495.9062z"/>
	<path fill="#4B5666" d="M527.4473,302.0059l-2.9326-10.582c-0.3555-1.1211-0.998-3.7256-1.9277-7.8135h-0.1846
		c-0.793,3.6914-1.4219,6.3096-1.8867,7.8545l-3.0146,10.541h-5.332l-6.3574-22.6816h4.9219l2.8916,11.1768
		c0.6562,2.7617,1.1211,5.127,1.3945,7.0957h0.123c0.1367-0.998,0.3447-2.1436,0.626-3.4346
		c0.2793-1.293,0.5225-2.2598,0.7275-2.9023l3.4453-11.9355h5.291l3.3428,11.9355c0.2051,0.6699,0.4609,1.6953,0.7695,3.0762
		c0.3066,1.3809,0.4883,2.4541,0.543,3.2197h0.1641c0.2051-1.6816,0.6836-4.0332,1.4355-7.0547l2.9326-11.1768h4.8398
		l-6.3984,22.6816H527.4473z"/>
	<path fill="#4B5666" d="M553.0615,302.416c-3.5273,0-6.2861-1.0283-8.2744-3.0859c-1.9902-2.0576-2.9844-4.8916-2.9844-8.501
		c0-3.7051,0.9229-6.6172,2.7686-8.7363s4.3818-3.1787,7.6084-3.1787c2.9941,0,5.3594,0.9092,7.0957,2.7275
		s2.6045,4.3203,2.6045,7.5059v2.6045h-15.1143c0.0684,2.2012,0.6631,3.8936,1.7842,5.0762s2.7002,1.7734,4.7373,1.7734
		c1.3398,0,2.5869-0.126,3.7422-0.3789s2.3965-0.6738,3.7227-1.2617v3.917c-1.1758,0.5605-2.3652,0.957-3.5684,1.1895
		S554.6064,302.416,553.0615,302.416z M552.1797,282.5645c-1.5312,0-2.7578,0.4854-3.6816,1.4561
		c-0.9219,0.9707-1.4727,2.3857-1.6504,4.2451h10.2949c-0.0273-1.873-0.4785-3.291-1.3535-4.2559
		C554.9141,283.0469,553.7109,282.5645,552.1797,282.5645z"/>
	<path fill="#4B5666" d="M582.5928,295.5459c0,2.2148-0.8066,3.9141-2.4199,5.0967s-3.9238,1.7734-6.9316,1.7734
		c-3.0215,0-5.4482-0.458-7.2803-1.374v-4.1631c2.666,1.2305,5.1475,1.8457,7.4443,1.8457c2.9668,0,4.4502-0.8955,4.4502-2.6865
		c0-0.5742-0.1641-1.0527-0.4922-1.4355s-0.8682-0.7793-1.6201-1.1895s-1.7979-0.875-3.1377-1.3945
		c-2.6113-1.0117-4.3789-2.0234-5.3008-3.0352c-0.9238-1.0117-1.3848-2.3242-1.3848-3.9375c0-1.9414,0.7822-3.4482,2.3477-4.5225
		c1.5654-1.0723,3.6953-1.6094,6.3887-1.6094c2.666,0,5.1885,0.54,7.5674,1.6201l-1.5586,3.6299
		c-2.4473-1.0117-4.5049-1.5176-6.1729-1.5176c-2.543,0-3.8145,0.7246-3.8145,2.1738c0,0.7109,0.3311,1.3125,0.9941,1.8047
		s2.1094,1.1689,4.3379,2.0303c1.873,0.7246,3.2334,1.3877,4.0811,1.9893s1.4766,1.2959,1.8867,2.082
		S582.5928,294.4521,582.5928,295.5459z"/>
	<path fill="#4B5666" d="M607.9199,290.624c0,3.7051-0.9502,6.5967-2.8506,8.6748s-4.5459,3.1172-7.9365,3.1172
		c-2.1191,0-3.9922-0.4785-5.6191-1.4355s-2.8779-2.3311-3.7529-4.1221s-1.3125-3.8691-1.3125-6.2344
		c0-3.6777,0.9434-6.5488,2.8301-8.6133s4.5459-3.0967,7.9775-3.0967c3.2812,0,5.8789,1.0566,7.793,3.168
		C606.9629,284.1953,607.9199,287.042,607.9199,290.624z M591.4111,290.624c0,5.2363,1.9346,7.8545,5.8037,7.8545
		c3.8281,0,5.7422-2.6182,5.7422-7.8545c0-5.1816-1.9277-7.7725-5.7832-7.7725c-2.0234,0-3.4902,0.6699-4.3994,2.0098
		S591.4111,288.1221,591.4111,290.624z"/>
	<path fill="#4B5666" d="M632.5703,302.0059h-4.8398v-13.9863c0-1.7363-0.3281-3.0312-0.9844-3.8867
		c-0.6562-0.8535-1.6816-1.2812-3.0762-1.2812c-1.8594,0-3.2236,0.6055-4.0918,1.8145c-0.8682,1.2109-1.3018,3.2236-1.3018,6.04
		v11.2998h-4.8193v-22.6816h3.7734l0.6768,2.9736h0.2461c0.6289-1.0801,1.541-1.9141,2.7373-2.502s2.5127-0.8818,3.9482-0.8818
		c3.4863,0,5.7969,1.1895,6.9316,3.5684h0.3281c0.6699-1.1211,1.6133-1.9961,2.8301-2.625s2.6113-0.9434,4.1836-0.9434
		c2.707,0,4.6787,0.6836,5.917,2.0508c1.2363,1.3672,1.8555,3.4521,1.8555,6.2549v14.7861h-4.8193v-13.9863
		c0-1.7363-0.332-3.0312-0.9951-3.8867c-0.6631-0.8535-1.6914-1.2812-3.0859-1.2812c-1.873,0-3.2441,0.584-4.1113,1.7539
		c-0.8691,1.168-1.3027,2.9629-1.3027,5.3828V302.0059z"/>
	<path fill="#4B5666" d="M663.5166,302.416c-3.5273,0-6.2861-1.0283-8.2744-3.0859c-1.9902-2.0576-2.9844-4.8916-2.9844-8.501
		c0-3.7051,0.9229-6.6172,2.7686-8.7363s4.3818-3.1787,7.6084-3.1787c2.9941,0,5.3594,0.9092,7.0957,2.7275
		s2.6045,4.3203,2.6045,7.5059v2.6045h-15.1143c0.0684,2.2012,0.6631,3.8936,1.7842,5.0762s2.7002,1.7734,4.7373,1.7734
		c1.3398,0,2.5869-0.126,3.7422-0.3789s2.3965-0.6738,3.7227-1.2617v3.917c-1.1758,0.5605-2.3652,0.957-3.5684,1.1895
		S665.0615,302.416,663.5166,302.416z M662.6348,282.5645c-1.5312,0-2.7578,0.4854-3.6816,1.4561
		c-0.9219,0.9707-1.4727,2.3857-1.6504,4.2451h10.2949c-0.0273-1.873-0.4785-3.291-1.3535-4.2559
		C665.3691,283.0469,664.166,282.5645,662.6348,282.5645z"/>
</g>
<g>
	<path fill="#4B5666" d="M468.8359,994.7217l-8.6953-25.04h-0.1641c0.2324,3.7188,0.3486,7.2051,0.3486,10.459v14.5811h-4.4502
		v-29.9824h6.9111l8.3262,23.8506h0.123l8.5723-23.8506h6.9316v29.9824h-4.7168v-14.8271c0-1.4902,0.0371-3.4316,0.1133-5.8242
		c0.0742-2.3926,0.1396-3.8418,0.1943-4.3477h-0.1641l-9.0029,24.999H468.8359z"/>
	<path fill="#4B5666" d="M508.3135,994.7217l-0.9639-3.1582h-0.1641c-1.0938,1.3809-2.1943,2.3213-3.3018,2.8203
		c-1.1074,0.498-2.5293,0.748-4.2656,0.748c-2.2285,0-3.9688-0.6016-5.2188-1.8047c-1.252-1.2031-1.877-2.9053-1.877-5.1064
		c0-2.3379,0.8682-4.1016,2.6045-5.291s4.3818-1.8389,7.9365-1.9482l3.917-0.123v-1.21c0-1.4492-0.3389-2.5322-1.0146-3.251
		c-0.6777-0.7168-1.7266-1.0762-3.1484-1.0762c-1.1621,0-2.2764,0.1709-3.3428,0.5127s-2.0918,0.7451-3.0762,1.21l-1.5586-3.4453
		c1.2305-0.6426,2.5771-1.1309,4.04-1.4668c1.4629-0.334,2.8438-0.502,4.1426-0.502c2.8848,0,5.0615,0.6289,6.5312,1.8867
		s2.2051,3.2334,2.2051,5.9268v15.2783H508.3135z M501.1357,991.4404c1.75,0,3.1543-0.4883,4.2148-1.4668
		c1.0586-0.9766,1.5889-2.3477,1.5889-4.1113v-1.9688l-2.9121,0.123c-2.2695,0.082-3.9209,0.4609-4.9521,1.1387
		c-1.0332,0.6758-1.5488,1.7119-1.5488,3.1064c0,1.0117,0.3008,1.7939,0.9023,2.3486
		C499.0303,991.1631,499.9326,991.4404,501.1357,991.4404z"/>
	<path fill="#4B5666" d="M523.1406,982.7451l2.7275-3.4043l6.8496-7.3008h5.5576l-9.126,9.7412l9.7002,12.9404h-5.6602
		l-7.2803-9.9463l-2.6455,2.1738v7.7725h-4.7783v-31.9102h4.7783v15.5654l-0.2461,4.3682H523.1406z"/>
	<path fill="#4B5666" d="M552.4053,995.1318c-3.5273,0-6.2861-1.0283-8.2744-3.0859c-1.9902-2.0576-2.9844-4.8916-2.9844-8.501
		c0-3.7051,0.9229-6.6172,2.7686-8.7363s4.3818-3.1787,7.6084-3.1787c2.9941,0,5.3594,0.9092,7.0957,2.7275
		s2.6045,4.3203,2.6045,7.5059v2.6045h-15.1143c0.0684,2.2012,0.6631,3.8936,1.7842,5.0762s2.7002,1.7734,4.7373,1.7734
		c1.3398,0,2.5869-0.126,3.7422-0.3789s2.3965-0.6738,3.7227-1.2617v3.917c-1.1758,0.5605-2.3652,0.957-3.5684,1.1895
		S553.9502,995.1318,552.4053,995.1318z M551.5234,975.2803c-1.5312,0-2.7578,0.4854-3.6816,1.4561
		c-0.9219,0.9707-1.4727,2.3857-1.6504,4.2451h10.2949c-0.0273-1.873-0.4785-3.291-1.3535-4.2559
		C554.2578,975.7627,553.0547,975.2803,551.5234,975.2803z"/>
	<path fill="#4B5666" d="M595.4102,986.5801c0,2.666-0.9639,4.7578-2.8916,6.2754s-4.5869,2.2764-7.9775,2.2764
		s-6.166-0.5264-8.3262-1.5791v-4.6348c1.3672,0.6426,2.8203,1.1484,4.3574,1.5176c1.5391,0.3691,2.9707,0.5537,4.2969,0.5537
		c1.9414,0,3.373-0.3691,4.2969-1.1074c0.9219-0.7383,1.3838-1.7295,1.3838-2.9736c0-1.1211-0.4238-2.0713-1.2715-2.8506
		s-2.5977-1.7021-5.25-2.7686c-2.7344-1.1074-4.6621-2.3721-5.7832-3.7939s-1.6816-3.1309-1.6816-5.127
		c0-2.502,0.8887-4.4707,2.666-5.9062s4.1631-2.1533,7.1572-2.1533c2.8711,0,5.7285,0.6289,8.5723,1.8867l-1.5586,3.999
		c-2.666-1.1211-5.0449-1.6816-7.1367-1.6816c-1.5859,0-2.7891,0.3457-3.6094,1.0352c-0.8203,0.6914-1.2305,1.6035-1.2305,2.7383
		c0,0.7793,0.1641,1.4453,0.4922,2c0.3281,0.5527,0.8682,1.0762,1.6201,1.5684s2.1055,1.1416,4.0605,1.9482
		c2.2012,0.916,3.8145,1.7705,4.8398,2.5635s1.7773,1.6885,2.2559,2.6865S595.4102,985.2266,595.4102,986.5801z"/>
	<path fill="#4B5666" d="M614.8926,994.7217l-0.9639-3.1582h-0.1641c-1.0938,1.3809-2.1943,2.3213-3.3018,2.8203
		c-1.1074,0.498-2.5293,0.748-4.2656,0.748c-2.2285,0-3.9688-0.6016-5.2188-1.8047c-1.252-1.2031-1.877-2.9053-1.877-5.1064
		c0-2.3379,0.8682-4.1016,2.6045-5.291s4.3818-1.8389,7.9365-1.9482l3.917-0.123v-1.21c0-1.4492-0.3389-2.5322-1.0146-3.251
		c-0.6777-0.7168-1.7266-1.0762-3.1484-1.0762c-1.1621,0-2.2764,0.1709-3.3428,0.5127s-2.0918,0.7451-3.0762,1.21l-1.5586-3.4453
		c1.2305-0.6426,2.5771-1.1309,4.04-1.4668c1.4629-0.334,2.8438-0.502,4.1426-0.502c2.8848,0,5.0615,0.6289,6.5312,1.8867
		s2.2051,3.2334,2.2051,5.9268v15.2783H614.8926z M607.7148,991.4404c1.75,0,3.1543-0.4883,4.2148-1.4668
		c1.0586-0.9766,1.5889-2.3477,1.5889-4.1113v-1.9688l-2.9121,0.123c-2.2695,0.082-3.9209,0.4609-4.9521,1.1387
		c-1.0332,0.6758-1.5488,1.7119-1.5488,3.1064c0,1.0117,0.3008,1.7939,0.9023,2.3486
		C605.6094,991.1631,606.5117,991.4404,607.7148,991.4404z"/>
	<path fill="#4B5666" d="M636.4463,975.6904h-5.5371v19.0312h-4.8398v-19.0312h-3.7324v-2.2559l3.7324-1.4766v-1.4766
		c0-2.6797,0.6289-4.666,1.8867-5.957c1.2578-1.293,3.1787-1.9385,5.7627-1.9385c1.6953,0,3.3633,0.2803,5.0039,0.8408
		l-1.2715,3.6504c-1.1895-0.3828-2.3242-0.5742-3.4043-0.5742c-1.0938,0-1.8906,0.3379-2.3887,1.0156
		c-0.5,0.6758-0.749,1.6914-0.749,3.0449v1.4766h5.5371V975.6904z"/>
	<path fill="#4B5666" d="M650.207,995.1318c-3.5273,0-6.2861-1.0283-8.2744-3.0859c-1.9902-2.0576-2.9844-4.8916-2.9844-8.501
		c0-3.7051,0.9229-6.6172,2.7686-8.7363s4.3818-3.1787,7.6084-3.1787c2.9941,0,5.3594,0.9092,7.0957,2.7275
		s2.6045,4.3203,2.6045,7.5059v2.6045h-15.1143c0.0684,2.2012,0.6631,3.8936,1.7842,5.0762s2.7002,1.7734,4.7373,1.7734
		c1.3398,0,2.5869-0.126,3.7422-0.3789s2.3965-0.6738,3.7227-1.2617v3.917c-1.1758,0.5605-2.3652,0.957-3.5684,1.1895
		S651.752,995.1318,650.207,995.1318z M649.3252,975.2803c-1.5312,0-2.7578,0.4854-3.6816,1.4561
		c-0.9219,0.9707-1.4727,2.3857-1.6504,4.2451h10.2949c-0.0273-1.873-0.4785-3.291-1.3535-4.2559
		C652.0596,975.7627,650.8564,975.2803,649.3252,975.2803z"/>
	<path fill="#4B5666" d="M672.9502,991.2354c1.1758,0,2.3516-0.1846,3.5273-0.5537v3.6299
		c-0.5332,0.2324-1.2207,0.4268-2.0605,0.584c-0.8418,0.1572-1.7129,0.2363-2.6152,0.2363c-4.5664,0-6.8496-2.4062-6.8496-7.2188
		v-12.2227h-3.0967v-2.1328l3.3223-1.7637l1.6406-4.7988h2.9736v5.0449h6.46v3.6504h-6.46v12.1406
		c0,1.1621,0.29,2.0195,0.8711,2.5742C671.2441,990.958,672.0068,991.2354,672.9502,991.2354z"/>
	<path fill="#4B5666" d="M677.5645,972.04h5.25l4.6143,12.8584c0.6973,1.832,1.1621,3.5547,1.3945,5.168h0.1641
		c0.123-0.752,0.3486-1.6641,0.6768-2.7373s2.0645-6.1699,5.209-15.2891h5.209l-9.7002,25.6963
		c-1.7637,4.7168-4.7031,7.0752-8.8184,7.0752c-1.0664,0-2.1055-0.1162-3.1172-0.3486v-3.8145
		c0.7246,0.1641,1.5518,0.2461,2.4814,0.2461c2.3242,0,3.958-1.3467,4.9014-4.04l0.8408-2.1328L677.5645,972.04z"/>
	<path fill="#4B5666" d="M452.0703,1045.1221l-0.9639-3.1582h-0.1641c-1.0938,1.3809-2.1943,2.3213-3.3018,2.8203
		c-1.1074,0.498-2.5293,0.748-4.2656,0.748c-2.2285,0-3.9688-0.6016-5.2188-1.8047c-1.252-1.2031-1.877-2.9053-1.877-5.1064
		c0-2.3379,0.8682-4.1016,2.6045-5.291s4.3818-1.8389,7.9365-1.9482l3.917-0.123v-1.21c0-1.4492-0.3389-2.5322-1.0146-3.251
		c-0.6777-0.7168-1.7266-1.0762-3.1484-1.0762c-1.1621,0-2.2764,0.1709-3.3428,0.5127s-2.0918,0.7451-3.0762,1.21l-1.5586-3.4453
		c1.2305-0.6426,2.5771-1.1309,4.04-1.4668c1.4629-0.334,2.8438-0.502,4.1426-0.502c2.8848,0,5.0615,0.6289,6.5312,1.8867
		s2.2051,3.2334,2.2051,5.9268v15.2783H452.0703z M444.8926,1041.8408c1.75,0,3.1543-0.4883,4.2148-1.4668
		c1.0586-0.9766,1.5889-2.3477,1.5889-4.1113v-1.9688l-2.9121,0.123c-2.2695,0.082-3.9209,0.4609-4.9521,1.1387
		c-1.0332,0.6758-1.5488,1.7119-1.5488,3.1064c0,1.0117,0.3008,1.7939,0.9023,2.3486
		C442.7871,1041.5635,443.6895,1041.8408,444.8926,1041.8408z"/>
	<path fill="#4B5666" d="M493.5166,1024.2041c0,3.1309-1.0254,5.5303-3.0762,7.1982s-4.9697,2.502-8.7568,2.502h-3.1172v11.2178
		h-4.9014v-29.9824h8.6338c3.7461,0,6.5527,0.7656,8.418,2.2969C492.584,1018.9678,493.5166,1021.2236,493.5166,1024.2041z
		 M478.5664,1029.7822h2.6045c2.5156,0,4.3613-0.4375,5.5371-1.3125s1.7637-2.2422,1.7637-4.1016
		c0-1.7227-0.5264-3.0078-1.5791-3.8555s-2.6934-1.2715-4.9219-1.2715h-3.4043V1029.7822z"/>
	<path fill="#4B5666" d="M510.4971,1022.0303c0.9707,0,1.7705,0.0684,2.3994,0.2051l-0.4717,4.4912
		c-0.6836-0.1641-1.3945-0.2461-2.1328-0.2461c-1.9277,0-3.4902,0.6289-4.6865,1.8867s-1.7939,2.8916-1.7939,4.9014v11.8535h-4.8193
		v-22.6816h3.7734l0.6357,3.999h0.2461c0.752-1.3535,1.7334-2.4268,2.9424-3.2197
		C507.8008,1022.4268,509.1025,1022.0303,510.4971,1022.0303z"/>
	<path fill="#4B5666" d="M527.0059,1045.5322c-3.5273,0-6.2861-1.0283-8.2744-3.0859c-1.9902-2.0576-2.9844-4.8916-2.9844-8.501
		c0-3.7051,0.9229-6.6172,2.7686-8.7363s4.3818-3.1787,7.6084-3.1787c2.9941,0,5.3594,0.9092,7.0957,2.7275
		s2.6045,4.3203,2.6045,7.5059v2.6045H520.71c0.0684,2.2012,0.6631,3.8936,1.7842,5.0762s2.7002,1.7734,4.7373,1.7734
		c1.3398,0,2.5869-0.126,3.7422-0.3789s2.3965-0.6738,3.7227-1.2617v3.917c-1.1758,0.5605-2.3652,0.957-3.5684,1.1895
		S528.5508,1045.5322,527.0059,1045.5322z M526.124,1025.6807c-1.5312,0-2.7578,0.4854-3.6816,1.4561
		c-0.9219,0.9707-1.4727,2.3857-1.6504,4.2451h10.2949c-0.0273-1.873-0.4785-3.291-1.3535-4.2559
		C528.8584,1026.1631,527.6553,1025.6807,526.124,1025.6807z"/>
	<path fill="#4B5666" d="M552.8047,1022.0303c0.9707,0,1.7705,0.0684,2.3994,0.2051l-0.4717,4.4912
		c-0.6836-0.1641-1.3945-0.2461-2.1328-0.2461c-1.9277,0-3.4902,0.6289-4.6865,1.8867s-1.7939,2.8916-1.7939,4.9014v11.8535h-4.8193
		v-22.6816h3.7734l0.6357,3.999h0.2461c0.752-1.3535,1.7334-2.4268,2.9424-3.2197
		C550.1084,1022.4268,551.4102,1022.0303,552.8047,1022.0303z"/>
	<path fill="#4B5666" d="M569.3135,1045.5322c-3.5273,0-6.2861-1.0283-8.2744-3.0859c-1.9902-2.0576-2.9844-4.8916-2.9844-8.501
		c0-3.7051,0.9229-6.6172,2.7686-8.7363s4.3818-3.1787,7.6084-3.1787c2.9941,0,5.3594,0.9092,7.0957,2.7275
		s2.6045,4.3203,2.6045,7.5059v2.6045h-15.1143c0.0684,2.2012,0.6631,3.8936,1.7842,5.0762s2.7002,1.7734,4.7373,1.7734
		c1.3398,0,2.5869-0.126,3.7422-0.3789s2.3965-0.6738,3.7227-1.2617v3.917c-1.1758,0.5605-2.3652,0.957-3.5684,1.1895
		S570.8584,1045.5322,569.3135,1045.5322z M568.4316,1025.6807c-1.5312,0-2.7578,0.4854-3.6816,1.4561
		c-0.9219,0.9707-1.4727,2.3857-1.6504,4.2451h10.2949c-0.0273-1.873-0.4785-3.291-1.3535-4.2559
		C571.166,1026.1631,569.9629,1025.6807,568.4316,1025.6807z"/>
	<path fill="#4B5666" d="M591.2158,1045.5322c-2.8027,0-4.9971-1.0283-6.583-3.0859s-2.3789-4.9326-2.3789-8.624
		s0.8066-6.5791,2.4199-8.665c1.6133-2.084,3.835-3.127,6.665-3.127c1.4219,0,2.6963,0.2637,3.8252,0.7891
		c1.127,0.5273,2.1357,1.3916,3.0244,2.5947h0.1641l0.5332-2.9736h3.999v32.7715h-4.8398v-9.6182
		c0-0.6016,0.0273-1.2373,0.082-1.9072s0.1025-1.1826,0.1436-1.5381h-0.2666
		C596.582,1044.4043,594.3193,1045.5322,591.2158,1045.5322z M592.5898,1041.6768c2.0234,0,3.4766-0.584,4.3574-1.7539
		c0.8828-1.168,1.3232-2.9355,1.3232-5.3008v-0.7588c0-2.8027-0.4551-4.8193-1.3643-6.0498s-2.375-1.8457-4.3984-1.8457
		c-1.7227,0-3.0352,0.6836-3.9375,2.0508s-1.3535,3.3291-1.3535,5.8857C587.2168,1039.0859,589.0078,1041.6768,592.5898,1041.6768z"
		/>
	<path fill="#4B5666" d="M625.7715,1045.1221l-0.6768-2.9736h-0.2461c-0.6699,1.0527-1.624,1.8799-2.8604,2.4814
		c-1.2383,0.6016-2.6494,0.9023-4.2354,0.9023c-2.748,0-4.7988-0.6836-6.1523-2.0508s-2.0303-3.4385-2.0303-6.2139v-14.8271h4.8604
		v13.9863c0,1.7363,0.3555,3.0391,1.0664,3.9062c0.7109,0.8691,1.8252,1.3027,3.3428,1.3027c2.0234,0,3.5098-0.6055,4.4609-1.8145
		c0.9492-1.2109,1.4248-3.2373,1.4248-6.0811v-11.2998h4.8398v22.6816H625.7715z"/>
	<path fill="#4B5666" d="M636.1484,1016.4316c0-0.8613,0.2363-1.5244,0.707-1.9893c0.4727-0.4648,1.1455-0.6973,2.0205-0.6973
		c0.8477,0,1.5068,0.2324,1.9795,0.6973c0.4707,0.4648,0.707,1.1279,0.707,1.9893c0,0.8203-0.2363,1.4658-0.707,1.9385
		c-0.4727,0.4707-1.1318,0.707-1.9795,0.707c-0.875,0-1.5479-0.2363-2.0205-0.707
		C636.3848,1017.8975,636.1484,1017.252,636.1484,1016.4316z M641.2549,1045.1221h-4.8193v-22.6816h4.8193V1045.1221z"/>
	<path fill="#4B5666" d="M663.3828,1038.6621c0,2.2148-0.8066,3.9141-2.4199,5.0967s-3.9238,1.7734-6.9316,1.7734
		c-3.0215,0-5.4482-0.458-7.2803-1.374v-4.1631c2.666,1.2305,5.1475,1.8457,7.4443,1.8457c2.9668,0,4.4502-0.8955,4.4502-2.6865
		c0-0.5742-0.1641-1.0527-0.4922-1.4355s-0.8682-0.7793-1.6201-1.1895s-1.7979-0.875-3.1377-1.3945
		c-2.6113-1.0117-4.3789-2.0234-5.3008-3.0352c-0.9238-1.0117-1.3848-2.3242-1.3848-3.9375c0-1.9414,0.7822-3.4482,2.3477-4.5225
		c1.5654-1.0723,3.6953-1.6094,6.3887-1.6094c2.666,0,5.1885,0.54,7.5674,1.6201l-1.5586,3.6299
		c-2.4473-1.0117-4.5049-1.5176-6.1729-1.5176c-2.543,0-3.8145,0.7246-3.8145,2.1738c0,0.7109,0.3311,1.3125,0.9941,1.8047
		s2.1094,1.1689,4.3379,2.0303c1.873,0.7246,3.2334,1.3877,4.0811,1.9893s1.4766,1.2959,1.8867,2.082
		S663.3828,1037.5684,663.3828,1038.6621z"/>
	<path fill="#4B5666" d="M668.3047,1016.4316c0-0.8613,0.2363-1.5244,0.707-1.9893c0.4727-0.4648,1.1455-0.6973,2.0205-0.6973
		c0.8477,0,1.5068,0.2324,1.9795,0.6973c0.4707,0.4648,0.707,1.1279,0.707,1.9893c0,0.8203-0.2363,1.4658-0.707,1.9385
		c-0.4727,0.4707-1.1318,0.707-1.9795,0.707c-0.875,0-1.5479-0.2363-2.0205-0.707
		C668.541,1017.8975,668.3047,1017.252,668.3047,1016.4316z M673.4111,1045.1221h-4.8193v-22.6816h4.8193V1045.1221z"/>
	<path fill="#4B5666" d="M688.751,1041.6357c1.1758,0,2.3516-0.1846,3.5273-0.5537v3.6299
		c-0.5332,0.2324-1.2207,0.4268-2.0605,0.584c-0.8418,0.1572-1.7129,0.2363-2.6152,0.2363c-4.5664,0-6.8496-2.4062-6.8496-7.2188
		v-12.2227h-3.0967v-2.1328l3.3223-1.7637l1.6406-4.7988h2.9736v5.0449h6.46v3.6504h-6.46v12.1406
		c0,1.1621,0.29,2.0195,0.8711,2.5742C687.0449,1041.3584,687.8076,1041.6357,688.751,1041.6357z"/>
	<path fill="#4B5666" d="M706.7158,1045.5322c-3.5273,0-6.2861-1.0283-8.2744-3.0859c-1.9902-2.0576-2.9844-4.8916-2.9844-8.501
		c0-3.7051,0.9229-6.6172,2.7686-8.7363s4.3818-3.1787,7.6084-3.1787c2.9941,0,5.3594,0.9092,7.0957,2.7275
		s2.6045,4.3203,2.6045,7.5059v2.6045h-15.1143c0.0684,2.2012,0.6631,3.8936,1.7842,5.0762s2.7002,1.7734,4.7373,1.7734
		c1.3398,0,2.5869-0.126,3.7422-0.3789s2.3965-0.6738,3.7227-1.2617v3.917c-1.1758,0.5605-2.3652,0.957-3.5684,1.1895
		S708.2607,1045.5322,706.7158,1045.5322z M705.834,1025.6807c-1.5312,0-2.7578,0.4854-3.6816,1.4561
		c-0.9219,0.9707-1.4727,2.3857-1.6504,4.2451h10.2949c-0.0273-1.873-0.4785-3.291-1.3535-4.2559
		C708.5684,1026.1631,707.3652,1025.6807,705.834,1025.6807z"/>
</g>
<g>
	<path fill="#4B5666" d="M842.2998,594.0576c0,4.9492-1.375,8.7334-4.123,11.3506c-2.748,2.6191-6.7051,3.9277-11.873,3.9277
		h-8.3887v-29.9824h9.2695c4.7715,0,8.4844,1.2852,11.1367,3.8555S842.2998,589.3955,842.2998,594.0576z M837.1318,594.2217
		c0-7.1777-3.3574-10.7666-10.0703-10.7666h-4.2441v21.7588h3.4863C833.5225,605.2139,837.1318,601.5498,837.1318,594.2217z"/>
	<path fill="#4B5666" d="M858.1318,609.7461c-3.5273,0-6.2871-1.0283-8.2754-3.0859c-1.9902-2.0576-2.9844-4.8916-2.9844-8.501
		c0-3.7051,0.9238-6.6172,2.7695-8.7363s4.3809-3.1787,7.6074-3.1787c2.9941,0,5.3594,0.9092,7.0957,2.7275
		s2.6055,4.3203,2.6055,7.5059v2.6045H851.835c0.0684,2.2012,0.6641,3.8936,1.7852,5.0762s2.6992,1.7734,4.7363,1.7734
		c1.3398,0,2.5879-0.126,3.7422-0.3789c1.1562-0.2529,2.3965-0.6738,3.7227-1.2617v3.917c-1.1758,0.5605-2.3652,0.957-3.5684,1.1895
		S859.6768,609.7461,858.1318,609.7461z M857.249,589.8945c-1.5312,0-2.7578,0.4854-3.6816,1.4561
		c-0.9219,0.9707-1.4727,2.3857-1.6504,4.2451h10.2949c-0.0273-1.873-0.4785-3.291-1.3535-4.2559
		C859.9834,590.377,858.7803,589.8945,857.249,589.8945z"/>
	<path fill="#4B5666" d="M877.2451,609.3359h-4.8203v-31.9102h4.8203V609.3359z"/>
	<path fill="#4B5666" d="M883.8486,580.6455c0-0.8613,0.2363-1.5244,0.707-1.9893c0.4727-0.4648,1.1445-0.6973,2.0195-0.6973
		c0.8477,0,1.5078,0.2324,1.9805,0.6973c0.4707,0.4648,0.707,1.1279,0.707,1.9893c0,0.8203-0.2363,1.4658-0.707,1.9385
		c-0.4727,0.4707-1.1328,0.707-1.9805,0.707c-0.875,0-1.5469-0.2363-2.0195-0.707
		C884.085,582.1113,883.8486,581.4658,883.8486,580.6455z M888.9541,609.3359h-4.8184v-22.6816h4.8184V609.3359z"/>
	<path fill="#4B5666" d="M901.0127,609.3359l-8.6133-22.6816h5.0859l4.6152,13.1865c0.793,2.2148,1.2715,4.0059,1.4355,5.373h0.1641
		c0.123-0.9844,0.6016-2.7754,1.4355-5.373l4.6133-13.1865h5.127l-8.6543,22.6816H901.0127z"/>
	<path fill="#4B5666" d="M928.2275,609.7461c-3.5273,0-6.2871-1.0283-8.2754-3.0859c-1.9902-2.0576-2.9844-4.8916-2.9844-8.501
		c0-3.7051,0.9238-6.6172,2.7695-8.7363s4.3809-3.1787,7.6074-3.1787c2.9941,0,5.3594,0.9092,7.0957,2.7275
		s2.6055,4.3203,2.6055,7.5059v2.6045h-15.1152c0.0684,2.2012,0.6641,3.8936,1.7852,5.0762s2.6992,1.7734,4.7363,1.7734
		c1.3398,0,2.5879-0.126,3.7422-0.3789c1.1562-0.2529,2.3965-0.6738,3.7227-1.2617v3.917c-1.1758,0.5605-2.3652,0.957-3.5684,1.1895
		S929.7725,609.7461,928.2275,609.7461z M927.3447,589.8945c-1.5312,0-2.7578,0.4854-3.6816,1.4561
		c-0.9219,0.9707-1.4727,2.3857-1.6504,4.2451h10.2949c-0.0273-1.873-0.4785-3.291-1.3535-4.2559
		C930.0791,590.377,928.876,589.8945,927.3447,589.8945z"/>
	<path fill="#4B5666" d="M954.0264,586.2441c0.9707,0,1.7695,0.0684,2.3984,0.2051l-0.4707,4.4912
		c-0.6836-0.1641-1.3945-0.2461-2.1328-0.2461c-1.9277,0-3.4902,0.6289-4.6875,1.8867c-1.1953,1.2578-1.793,2.8916-1.793,4.9014
		v11.8535h-4.8203v-22.6816h3.7734l0.6367,3.999h0.2461c0.752-1.3535,1.7324-2.4268,2.9414-3.2197
		C951.3291,586.6406,952.6318,586.2441,954.0264,586.2441z"/>
	<path fill="#4B5666" d="M989.1357,579.3535h5.0859l-10.5,29.9824h-5.168l-10.459-29.9824h5.0449l6.2539,18.6416
		c0.3281,0.8887,0.6777,2.0342,1.0469,3.4346c0.3691,1.4023,0.6074,2.4443,0.7168,3.1279c0.1777-1.0391,0.4512-2.2422,0.8203-3.6094
		s0.6699-2.3789,0.9023-3.0352L989.1357,579.3535z"/>
	<path fill="#4B5666" d="M1011.8584,609.3359l-0.9648-3.1582h-0.1641c-1.0938,1.3809-2.1934,2.3213-3.3008,2.8203
		c-1.1074,0.498-2.5293,0.748-4.2656,0.748c-2.2285,0-3.9688-0.6016-5.2188-1.8047c-1.252-1.2031-1.877-2.9053-1.877-5.1064
		c0-2.3379,0.8672-4.1016,2.6035-5.291s4.3828-1.8389,7.9375-1.9482l3.916-0.123v-1.21c0-1.4492-0.3379-2.5322-1.0137-3.251
		c-0.6777-0.7168-1.7266-1.0762-3.1484-1.0762c-1.1621,0-2.2773,0.1709-3.3438,0.5127s-2.0918,0.7451-3.0762,1.21l-1.5586-3.4453
		c1.2305-0.6426,2.5781-1.1309,4.041-1.4668c1.4629-0.334,2.8438-0.502,4.1426-0.502c2.8848,0,5.0605,0.6289,6.5312,1.8867
		c1.4688,1.2578,2.2051,3.2334,2.2051,5.9268v15.2783H1011.8584z M1004.6807,606.0547c1.75,0,3.1543-0.4883,4.2148-1.4668
		c1.0586-0.9766,1.5879-2.3477,1.5879-4.1113v-1.9688l-2.9121,0.123c-2.2695,0.082-3.9199,0.4609-4.9512,1.1387
		c-1.0332,0.6758-1.5488,1.7119-1.5488,3.1064c0,1.0117,0.3008,1.7939,0.9023,2.3486
		C1002.5752,605.7773,1003.4775,606.0547,1004.6807,606.0547z"/>
	<path fill="#4B5666" d="M1026.8486,609.3359h-4.8184v-31.9102h4.8184V609.3359z"/>
	<path fill="#4B5666" d="M1049.7354,609.3359l-0.6758-2.9736h-0.2461c-0.6699,1.0527-1.625,1.8799-2.8613,2.4814
		c-1.2383,0.6016-2.6484,0.9023-4.2344,0.9023c-2.748,0-4.7988-0.6836-6.1523-2.0508s-2.0312-3.4385-2.0312-6.2139v-14.8271h4.8613
		v13.9863c0,1.7363,0.3555,3.0391,1.0664,3.9062c0.7109,0.8691,1.8242,1.3027,3.3418,1.3027c2.0234,0,3.5098-0.6055,4.4609-1.8145
		c0.9492-1.2109,1.4258-3.2373,1.4258-6.0811v-11.2998h4.8398v22.6816H1049.7354z"/>
	<path fill="#4B5666" d="M1070.3057,609.7461c-3.5273,0-6.2871-1.0283-8.2754-3.0859c-1.9902-2.0576-2.9844-4.8916-2.9844-8.501
		c0-3.7051,0.9238-6.6172,2.7695-8.7363s4.3809-3.1787,7.6074-3.1787c2.9941,0,5.3594,0.9092,7.0957,2.7275
		s2.6055,4.3203,2.6055,7.5059v2.6045h-15.1152c0.0684,2.2012,0.6641,3.8936,1.7852,5.0762s2.6992,1.7734,4.7363,1.7734
		c1.3398,0,2.5879-0.126,3.7422-0.3789c1.1562-0.2529,2.3965-0.6738,3.7227-1.2617v3.917c-1.1758,0.5605-2.3652,0.957-3.5684,1.1895
		S1071.8506,609.7461,1070.3057,609.7461z M1069.4229,589.8945c-1.5312,0-2.7578,0.4854-3.6816,1.4561
		c-0.9219,0.9707-1.4727,2.3857-1.6504,4.2451h10.2949c-0.0273-1.873-0.4785-3.291-1.3535-4.2559
		C1072.1572,590.377,1070.9541,589.8945,1069.4229,589.8945z"/>
	<path fill="#4B5666" d="M830.5381,633.5273c-2.8164,0-5.0312,0.998-6.6445,2.9941s-2.4199,4.751-2.4199,8.2646
		c0,3.6777,0.7754,6.46,2.3262,8.3467c1.5527,1.8867,3.7988,2.8301,6.7383,2.8301c1.2715,0,2.502-0.126,3.6914-0.3789
		s2.4258-0.5781,3.7109-0.9746v4.2041c-2.3516,0.8887-5.0176,1.333-7.998,1.333c-4.3887,0-7.7578-1.3291-10.1094-3.9883
		s-3.5273-6.4639-3.5273-11.4131c0-3.1172,0.5703-5.8447,1.7109-8.1826c1.1426-2.3379,2.793-4.1289,4.9531-5.373
		s4.6973-1.8662,7.6094-1.8662c3.0625,0,5.8926,0.6426,8.4902,1.9277l-1.7637,4.0811c-1.0117-0.4785-2.082-0.8984-3.2109-1.2617
		C832.9678,633.709,831.7822,633.5273,830.5381,633.5273z"/>
	<path fill="#4B5666" d="M864.0068,648.3545c0,3.7051-0.9512,6.5967-2.8516,8.6748s-4.5449,3.1172-7.9355,3.1172
		c-2.1191,0-3.9922-0.4785-5.6191-1.4355s-2.8789-2.3311-3.7539-4.1221s-1.3125-3.8691-1.3125-6.2344
		c0-3.6777,0.9434-6.5488,2.8301-8.6133s4.5469-3.0967,7.9785-3.0967c3.2812,0,5.8789,1.0566,7.793,3.168
		C863.0498,641.9258,864.0068,644.7725,864.0068,648.3545z M847.4971,648.3545c0,5.2363,1.9355,7.8545,5.8047,7.8545
		c3.8281,0,5.7422-2.6182,5.7422-7.8545c0-5.1816-1.9277-7.7725-5.7832-7.7725c-2.0234,0-3.4902,0.6699-4.4004,2.0098
		C847.9521,643.9316,847.4971,645.8525,847.4971,648.3545z"/>
	<path fill="#4B5666" d="M889.4971,659.7363h-4.8398V645.791c0-1.75-0.3516-3.0557-1.0547-3.917
		c-0.7051-0.8613-1.8223-1.292-3.3535-1.292c-2.0371,0-3.5273,0.6016-4.4707,1.8047s-1.416,3.2197-1.416,6.0498v11.2998h-4.8184
		v-22.6816h3.7734l0.6758,2.9736h0.2461c0.6836-1.0801,1.6543-1.9141,2.9121-2.502s2.6523-0.8818,4.1836-0.8818
		c5.4414,0,8.1621,2.7686,8.1621,8.3057V659.7363z"/>
	<path fill="#4B5666" d="M904.6533,656.25c1.1758,0,2.3516-0.1846,3.5273-0.5537v3.6299c-0.5332,0.2324-1.2207,0.4268-2.0605,0.584
		c-0.8418,0.1572-1.7129,0.2363-2.6152,0.2363c-4.5664,0-6.8496-2.4062-6.8496-7.2188v-12.2227h-3.0977v-2.1328l3.3223-1.7637
		l1.6406-4.7988h2.9746v5.0449h6.459v3.6504h-6.459v12.1406c0,1.1621,0.2891,2.0195,0.8711,2.5742
		C902.9463,655.9727,903.71,656.25,904.6533,656.25z"/>
	<path fill="#4B5666" d="M912.4248,631.0459c0-0.8613,0.2363-1.5244,0.707-1.9893c0.4727-0.4648,1.1465-0.6973,2.0215-0.6973
		c0.8477,0,1.5059,0.2324,1.9785,0.6973c0.4707,0.4648,0.707,1.1279,0.707,1.9893c0,0.8203-0.2363,1.4658-0.707,1.9385
		c-0.4727,0.4707-1.1309,0.707-1.9785,0.707c-0.875,0-1.5488-0.2363-2.0215-0.707
		C912.6611,632.5117,912.4248,631.8662,912.4248,631.0459z M917.5322,659.7363h-4.8203v-22.6816h4.8203V659.7363z"/>
	<path fill="#4B5666" d="M944.376,659.7363h-4.8398V645.791c0-1.75-0.3516-3.0557-1.0547-3.917
		c-0.7051-0.8613-1.8223-1.292-3.3535-1.292c-2.0371,0-3.5273,0.6016-4.4707,1.8047s-1.416,3.2197-1.416,6.0498v11.2998h-4.8184
		v-22.6816h3.7734l0.6758,2.9736h0.2461c0.6836-1.0801,1.6543-1.9141,2.9121-2.502s2.6523-0.8818,4.1836-0.8818
		c5.4414,0,8.1621,2.7686,8.1621,8.3057V659.7363z"/>
	<path fill="#4B5666" d="M967.0791,659.7363l-0.6777-2.9736h-0.2461c-0.6699,1.0527-1.623,1.8799-2.8594,2.4814
		c-1.2383,0.6016-2.6504,0.9023-4.2363,0.9023c-2.748,0-4.7988-0.6836-6.1523-2.0508s-2.0293-3.4385-2.0293-6.2139v-14.8271h4.8594
		v13.9863c0,1.7363,0.3555,3.0391,1.0664,3.9062c0.7109,0.8691,1.8262,1.3027,3.3438,1.3027c2.0234,0,3.5098-0.6055,4.4609-1.8145
		c0.9492-1.2109,1.4238-3.2373,1.4238-6.0811v-11.2998h4.8398v22.6816H967.0791z"/>
	<path fill="#4B5666" d="M997.8604,648.3545c0,3.7051-0.9492,6.5967-2.8496,8.6748s-4.5469,3.1172-7.9375,3.1172
		c-2.1191,0-3.9922-0.4785-5.6191-1.4355s-2.877-2.3311-3.752-4.1221s-1.3125-3.8691-1.3125-6.2344
		c0-3.6777,0.9434-6.5488,2.8301-8.6133s4.5449-3.0967,7.9766-3.0967c3.2812,0,5.8789,1.0566,7.793,3.168
		C996.9033,641.9258,997.8604,644.7725,997.8604,648.3545z M981.3525,648.3545c0,5.2363,1.9336,7.8545,5.8027,7.8545
		c3.8281,0,5.7422-2.6182,5.7422-7.8545c0-5.1816-1.9277-7.7725-5.7832-7.7725c-2.0234,0-3.4902,0.6699-4.3984,2.0098
		C981.8057,643.9316,981.3525,645.8525,981.3525,648.3545z"/>
	<path fill="#4B5666" d="M1019.3936,659.7363l-0.6758-2.9736h-0.2461c-0.6699,1.0527-1.625,1.8799-2.8613,2.4814
		c-1.2383,0.6016-2.6484,0.9023-4.2344,0.9023c-2.748,0-4.7988-0.6836-6.1523-2.0508s-2.0312-3.4385-2.0312-6.2139v-14.8271h4.8613
		v13.9863c0,1.7363,0.3555,3.0391,1.0664,3.9062c0.7109,0.8691,1.8242,1.3027,3.3418,1.3027c2.0234,0,3.5098-0.6055,4.4609-1.8145
		c0.9492-1.2109,1.4258-3.2373,1.4258-6.0811v-11.2998h4.8398v22.6816H1019.3936z"/>
	<path fill="#4B5666" d="M1045.2959,653.2764c0,2.2148-0.8066,3.9141-2.4199,5.0967s-3.9238,1.7734-6.9316,1.7734
		c-3.0215,0-5.4492-0.458-7.2812-1.374v-4.1631c2.666,1.2305,5.1484,1.8457,7.4453,1.8457c2.9668,0,4.4492-0.8955,4.4492-2.6865
		c0-0.5742-0.1641-1.0527-0.4922-1.4355s-0.8672-0.7793-1.6191-1.1895s-1.7988-0.875-3.1387-1.3945
		c-2.6113-1.0117-4.3789-2.0234-5.3008-3.0352c-0.9238-1.0117-1.3848-2.3242-1.3848-3.9375c0-1.9414,0.7832-3.4482,2.3477-4.5225
		c1.5664-1.0723,3.6953-1.6094,6.3887-1.6094c2.666,0,5.1895,0.54,7.5684,1.6201l-1.5586,3.6299
		c-2.4473-1.0117-4.5059-1.5176-6.1738-1.5176c-2.543,0-3.8145,0.7246-3.8145,2.1738c0,0.7109,0.332,1.3125,0.9941,1.8047
		c0.6641,0.4922,2.1094,1.1689,4.3379,2.0303c1.873,0.7246,3.2344,1.3877,4.082,1.9893s1.4766,1.2959,1.8867,2.082
		S1045.2959,652.1826,1045.2959,653.2764z"/>
	<path fill="#4B5666" d="M1055.3232,659.7363h-4.8184v-31.9102h4.8184V659.7363z"/>
	<path fill="#4B5666" d="M1058.7686,637.0547h5.25l4.6152,12.8584c0.6973,1.832,1.1621,3.5547,1.3945,5.168h0.1641
		c0.123-0.752,0.3477-1.6641,0.6758-2.7373s2.0645-6.1699,5.209-15.2891h5.209l-9.6992,25.6963
		c-1.7637,4.7168-4.7031,7.0752-8.8184,7.0752c-1.0664,0-2.1055-0.1162-3.1172-0.3486v-3.8145
		c0.7246,0.1641,1.5508,0.2461,2.4805,0.2461c2.3242,0,3.959-1.3467,4.9023-4.04l0.8398-2.1328L1058.7686,637.0547z"/>
</g>
<g>
	<path fill="#4B5666" d="M87.2222,609.3359h-16.96v-29.9824h16.96v4.1426H75.1636v8.1621h11.2998v4.1016H75.1636v9.4131h12.0586
		V609.3359z"/>
	<path fill="#4B5666" d="M98.2349,597.749l-7.6084-11.0947h5.4961l5.168,7.9365l5.209-7.9365h5.4551l-7.6289,11.0947l8.0186,11.5869
		h-5.4551l-5.5986-8.4902l-5.5781,8.4902h-5.4551L98.2349,597.749z"/>
	<path fill="#4B5666" d="M127.8276,609.7461c-2.8711,0-5.0996-1.0322-6.6855-3.0967h-0.2871
		c0.1914,1.9141,0.2871,3.0762,0.2871,3.4863v9.29h-4.8193v-32.7715h3.8965c0.1094,0.4238,0.335,1.4355,0.6768,3.0352h0.2461
		c1.5039-2.2969,3.7598-3.4453,6.7676-3.4453c2.8301,0,5.0347,1.0254,6.6138,3.0762s2.3687,4.9287,2.3687,8.6338
		s-0.8032,6.5967-2.4097,8.6748S130.6577,609.7461,127.8276,609.7461z M126.6587,590.1816c-1.9141,0-3.312,0.5605-4.1938,1.6816
		s-1.3228,2.9121-1.3228,5.373v0.7178c0,2.7617,0.4375,4.7617,1.3125,5.999s2.3037,1.8555,4.2861,1.8555
		c1.668,0,2.9531-0.6836,3.8555-2.0508s1.3535-3.3154,1.3535-5.8447c0-2.543-0.4478-4.4668-1.3433-5.7725
		S128.395,590.1816,126.6587,590.1816z"/>
	<path fill="#4B5666" d="M152.396,609.7461c-3.5273,0-6.2856-1.0283-8.2749-3.0859s-2.9839-4.8916-2.9839-8.501
		c0-3.7051,0.9229-6.6172,2.7686-8.7363s4.3818-3.1787,7.6084-3.1787c2.9941,0,5.3594,0.9092,7.0957,2.7275
		s2.6045,4.3203,2.6045,7.5059v2.6045h-15.1143c0.0684,2.2012,0.6631,3.8936,1.7842,5.0762s2.7002,1.7734,4.7373,1.7734
		c1.3398,0,2.5874-0.126,3.7427-0.3789s2.396-0.6738,3.7222-1.2617v3.917c-1.1758,0.5605-2.3652,0.957-3.5684,1.1895
		S153.9409,609.7461,152.396,609.7461z M151.5142,589.8945c-1.5312,0-2.7583,0.4854-3.6812,1.4561s-1.4731,2.3857-1.6509,4.2451
		h10.2949c-0.0273-1.873-0.4785-3.291-1.3535-4.2559C154.2485,590.377,153.0454,589.8945,151.5142,589.8945z"/>
	<path fill="#4B5666" d="M178.1948,586.2441c0.9707,0,1.7705,0.0684,2.3994,0.2051l-0.4717,4.4912
		c-0.6836-0.1641-1.3945-0.2461-2.1328-0.2461c-1.9277,0-3.4897,0.6289-4.686,1.8867s-1.7944,2.8916-1.7944,4.9014v11.8535h-4.8193
		v-22.6816h3.7734l0.6357,3.999h0.2461c0.752-1.3535,1.7329-2.4268,2.9429-3.2197S176.8003,586.2441,178.1948,586.2441z"/>
	<path fill="#4B5666" d="M184.5112,580.6455c0-0.8613,0.2358-1.5244,0.7075-1.9893s1.145-0.6973,2.02-0.6973
		c0.8477,0,1.5073,0.2324,1.979,0.6973s0.7075,1.1279,0.7075,1.9893c0,0.8203-0.2358,1.4658-0.7075,1.9385
		c-0.4717,0.4707-1.1313,0.707-1.979,0.707c-0.875,0-1.5483-0.2363-2.02-0.707
		C184.7471,582.1113,184.5112,581.4658,184.5112,580.6455z M189.6177,609.3359h-4.8193v-22.6816h4.8193V609.3359z"/>
	<path fill="#4B5666" d="M215.6216,609.3359h-4.8398v-13.9863c0-1.7363-0.3281-3.0312-0.9844-3.8867
		c-0.6562-0.8535-1.6816-1.2812-3.0762-1.2812c-1.8594,0-3.2231,0.6055-4.0913,1.8145c-0.8682,1.2109-1.3022,3.2236-1.3022,6.04
		v11.2998h-4.8193v-22.6816h3.7734l0.6768,2.9736h0.2461c0.6289-1.0801,1.5415-1.9141,2.7378-2.502s2.5122-0.8818,3.9478-0.8818
		c3.4863,0,5.7969,1.1895,6.9316,3.5684h0.3281c0.6699-1.1211,1.6133-1.9961,2.8301-2.625s2.6113-0.9434,4.1836-0.9434
		c2.707,0,4.6792,0.6836,5.9165,2.0508s1.856,3.4521,1.856,6.2549v14.7861h-4.8193v-13.9863c0-1.7363-0.3315-3.0312-0.9946-3.8867
		c-0.6631-0.8535-1.6919-1.2812-3.0864-1.2812c-1.873,0-3.2437,0.584-4.1118,1.7539c-0.8682,1.168-1.3022,2.9629-1.3022,5.3828
		V609.3359z"/>
	<path fill="#4B5666" d="M246.5679,609.7461c-3.5273,0-6.2856-1.0283-8.2749-3.0859s-2.9839-4.8916-2.9839-8.501
		c0-3.7051,0.9229-6.6172,2.7686-8.7363s4.3818-3.1787,7.6084-3.1787c2.9941,0,5.3594,0.9092,7.0957,2.7275
		s2.6045,4.3203,2.6045,7.5059v2.6045H240.272c0.0684,2.2012,0.6631,3.8936,1.7842,5.0762s2.7002,1.7734,4.7373,1.7734
		c1.3398,0,2.5874-0.126,3.7427-0.3789s2.396-0.6738,3.7222-1.2617v3.917c-1.1758,0.5605-2.3652,0.957-3.5684,1.1895
		S248.1128,609.7461,246.5679,609.7461z M245.686,589.8945c-1.5312,0-2.7583,0.4854-3.6812,1.4561s-1.4731,2.3857-1.6509,4.2451
		h10.2949c-0.0273-1.873-0.4785-3.291-1.3535-4.2559C248.4204,590.377,247.2173,589.8945,245.686,589.8945z"/>
	<path fill="#4B5666" d="M280.8159,609.3359h-4.8398v-13.9453c0-1.75-0.3521-3.0557-1.0562-3.917s-1.8218-1.292-3.353-1.292
		c-2.0371,0-3.5273,0.6016-4.4707,1.8047s-1.415,3.2197-1.415,6.0498v11.2998h-4.8193v-22.6816h3.7734l0.6768,2.9736h0.2461
		c0.6836-1.0801,1.6543-1.9141,2.9121-2.502s2.6523-0.8818,4.1836-0.8818c5.4414,0,8.1621,2.7686,8.1621,8.3057V609.3359z"/>
	<path fill="#4B5666" d="M295.9712,605.8496c1.1758,0,2.3516-0.1846,3.5273-0.5537v3.6299c-0.5332,0.2324-1.2202,0.4268-2.061,0.584
		s-1.7124,0.2363-2.6147,0.2363c-4.5664,0-6.8496-2.4062-6.8496-7.2188v-12.2227h-3.0967v-2.1328l3.3223-1.7637l1.6406-4.7988
		h2.9736v5.0449h6.46v3.6504h-6.46v12.1406c0,1.1621,0.2905,2.0195,0.8716,2.5742
		C294.2656,605.5723,295.0278,605.8496,295.9712,605.8496z"/>
	<path fill="#4B5666" d="M313.4644,601.3994c0-1.791,0.4375-3.3525,1.3125-4.6865c0.875-1.332,2.4541-2.6553,4.7373-3.9678
		c-1.2988-1.5176-2.1841-2.7998-2.6558-3.8447c-0.4717-1.0469-0.7075-2.1299-0.7075-3.251c0-2.0781,0.7417-3.7188,2.2251-4.9219
		s3.4761-1.8047,5.978-1.8047c2.4199,0,4.3203,0.585,5.7012,1.7529c1.3809,1.1699,2.0713,2.7451,2.0713,4.7275
		c0,1.5586-0.4614,2.9736-1.3843,4.2451s-2.4644,2.543-4.6245,3.8145l7.0957,6.8496c1.1074-1.4629,2.0303-3.6094,2.7686-6.4395
		h4.9629c-0.957,3.8828-2.4883,7.0479-4.5938,9.4951l6.1729,5.9678h-6.2139l-3.0557-2.9736
		c-1.3945,1.1211-2.8813,1.9658-4.4604,2.5322c-1.5791,0.5674-3.3257,0.8516-5.2397,0.8516c-3.1445,0-5.6123-0.7451-7.4033-2.2354
		S313.4644,603.9834,313.4644,601.3994z M323.8003,605.6035c2.502,0,4.6416-0.7314,6.4189-2.1943l-7.8545-7.7314
		c-1.4492,0.9297-2.4473,1.8018-2.9941,2.6152s-0.8203,1.7393-0.8203,2.7783c0,1.3398,0.4751,2.4307,1.4253,3.2705
		C320.9258,605.1836,322.2007,605.6035,323.8003,605.6035z M320.7446,585.8135c0,0.8613,0.229,1.6748,0.687,2.4404
		s1.0972,1.5791,1.9175,2.4404c1.5449-0.875,2.6284-1.6924,3.2505-2.4502c0.6221-0.7598,0.9331-1.6104,0.9331-2.5537
		c0-0.8887-0.2974-1.5996-0.8921-2.1328s-1.3843-0.7998-2.3687-0.7998c-1.0801,0-1.938,0.2773-2.5737,0.8301
		C321.0625,584.1426,320.7446,584.8838,320.7446,585.8135z"/>
	<path fill="#4B5666" d="M70.1597,659.7363v-29.9824h4.9014v25.7783h12.6943v4.2041H70.1597z"/>
	<path fill="#4B5666" d="M102.3159,660.1465c-3.5273,0-6.2856-1.0283-8.2749-3.0859s-2.9839-4.8916-2.9839-8.501
		c0-3.7051,0.9229-6.6172,2.7686-8.7363s4.3818-3.1787,7.6084-3.1787c2.9941,0,5.3594,0.9092,7.0957,2.7275
		s2.6045,4.3203,2.6045,7.5059v2.6045H96.02c0.0684,2.2012,0.6631,3.8936,1.7842,5.0762s2.7002,1.7734,4.7373,1.7734
		c1.3398,0,2.5874-0.126,3.7427-0.3789s2.396-0.6738,3.7222-1.2617v3.917c-1.1758,0.5605-2.3652,0.957-3.5684,1.1895
		S103.8608,660.1465,102.3159,660.1465z M101.4341,640.2949c-1.5312,0-2.7583,0.4854-3.6812,1.4561s-1.4731,2.3857-1.6509,4.2451
		h10.2949c-0.0273-1.873-0.4785-3.291-1.3535-4.2559C104.1685,640.7773,102.9653,640.2949,101.4341,640.2949z"/>
	<path fill="#4B5666" d="M130.8013,659.7363l-0.9639-3.1582h-0.1641c-1.0938,1.3809-2.1943,2.3213-3.3018,2.8203
		c-1.1074,0.498-2.5293,0.748-4.2656,0.748c-2.2285,0-3.9683-0.6016-5.2192-1.8047s-1.8765-2.9053-1.8765-5.1064
		c0-2.3379,0.8682-4.1016,2.6045-5.291s4.3818-1.8389,7.9365-1.9482l3.917-0.123v-1.21c0-1.4492-0.3384-2.5322-1.0151-3.251
		c-0.6768-0.7168-1.7261-1.0762-3.1479-1.0762c-1.1621,0-2.2764,0.1709-3.3428,0.5127s-2.0918,0.7451-3.0762,1.21l-1.5586-3.4453
		c1.2305-0.6426,2.5771-1.1309,4.04-1.4668c1.4629-0.334,2.8438-0.502,4.1426-0.502c2.8848,0,5.062,0.6289,6.5317,1.8867
		s2.2046,3.2334,2.2046,5.9268v15.2783H130.8013z M123.6235,656.4551c1.75,0,3.1548-0.4883,4.2144-1.4668
		c1.0596-0.9766,1.5894-2.3477,1.5894-4.1113v-1.9688l-2.9121,0.123c-2.2695,0.082-3.9204,0.4609-4.9526,1.1387
		c-1.0322,0.6758-1.5483,1.7119-1.5483,3.1064c0,1.0117,0.3008,1.7939,0.9023,2.3486
		C121.5181,656.1777,122.4204,656.4551,123.6235,656.4551z"/>
	<path fill="#4B5666" d="M152.478,636.6445c0.9707,0,1.7705,0.0684,2.3994,0.2051l-0.4717,4.4912
		c-0.6836-0.1641-1.3945-0.2461-2.1328-0.2461c-1.9277,0-3.4897,0.6289-4.686,1.8867s-1.7944,2.8916-1.7944,4.9014v11.8535h-4.8193
		v-22.6816h3.7734l0.6357,3.999h0.2461c0.752-1.3535,1.7329-2.4268,2.9429-3.2197S151.0835,636.6445,152.478,636.6445z"/>
	<path fill="#4B5666" d="M179.0356,659.7363h-4.8398V645.791c0-1.75-0.3521-3.0557-1.0562-3.917s-1.8218-1.292-3.353-1.292
		c-2.0371,0-3.5273,0.6016-4.4707,1.8047s-1.415,3.2197-1.415,6.0498v11.2998h-4.8193v-22.6816h3.7734l0.6768,2.9736h0.2461
		c0.6836-1.0801,1.6543-1.9141,2.9121-2.502s2.6523-0.8818,4.1836-0.8818c5.4414,0,8.1621,2.7686,8.1621,8.3057V659.7363z"/>
	<path fill="#4B5666" d="M202.0659,647.7598v11.9766h-4.9014v-29.9824h8.4697c3.8691,0,6.7334,0.7246,8.5928,2.1738
		s2.7891,3.6367,2.7891,6.5625c0,3.7324-1.9414,6.3916-5.8242,7.9775l8.4697,13.2686h-5.5781l-7.1777-11.9766H202.0659z
		 M202.0659,643.6992h3.4043c2.2832,0,3.9375-0.4238,4.9629-1.2715s1.5381-2.1055,1.5381-3.7734
		c0-1.6953-0.5537-2.9121-1.6611-3.6504s-2.7754-1.1074-5.0039-1.1074h-3.2402V643.6992z"/>
	<path fill="#4B5666" d="M237.688,659.7363l-0.9639-3.1582h-0.1641c-1.0938,1.3809-2.1943,2.3213-3.3018,2.8203
		c-1.1074,0.498-2.5293,0.748-4.2656,0.748c-2.2285,0-3.9683-0.6016-5.2192-1.8047s-1.8765-2.9053-1.8765-5.1064
		c0-2.3379,0.8682-4.1016,2.6045-5.291s4.3818-1.8389,7.9365-1.9482l3.917-0.123v-1.21c0-1.4492-0.3384-2.5322-1.0151-3.251
		c-0.6768-0.7168-1.7261-1.0762-3.1479-1.0762c-1.1621,0-2.2764,0.1709-3.3428,0.5127s-2.0918,0.7451-3.0762,1.21l-1.5586-3.4453
		c1.2305-0.6426,2.5771-1.1309,4.04-1.4668c1.4629-0.334,2.8438-0.502,4.1426-0.502c2.8848,0,5.062,0.6289,6.5317,1.8867
		s2.2046,3.2334,2.2046,5.9268v15.2783H237.688z M230.5103,656.4551c1.75,0,3.1548-0.4883,4.2144-1.4668
		c1.0596-0.9766,1.5894-2.3477,1.5894-4.1113v-1.9688l-2.9121,0.123c-2.2695,0.082-3.9204,0.4609-4.9526,1.1387
		c-1.0322,0.6758-1.5483,1.7119-1.5483,3.1064c0,1.0117,0.3008,1.7939,0.9023,2.3486
		C228.4048,656.1777,229.3071,656.4551,230.5103,656.4551z"/>
	<path fill="#4B5666" d="M259.3647,660.1465c-2.8711,0-5.0996-1.0322-6.6855-3.0967h-0.2871
		c0.1914,1.9141,0.2871,3.0762,0.2871,3.4863v9.29h-4.8193v-32.7715h3.8965c0.1094,0.4238,0.335,1.4355,0.6768,3.0352h0.2461
		c1.5039-2.2969,3.7598-3.4453,6.7676-3.4453c2.8301,0,5.0347,1.0254,6.6138,3.0762s2.3687,4.9287,2.3687,8.6338
		s-0.8032,6.5967-2.4097,8.6748S262.1948,660.1465,259.3647,660.1465z M258.1958,640.582c-1.9141,0-3.312,0.5605-4.1938,1.6816
		s-1.3228,2.9121-1.3228,5.373v0.7178c0,2.7617,0.4375,4.7617,1.3125,5.999s2.3037,1.8555,4.2861,1.8555
		c1.668,0,2.9531-0.6836,3.8555-2.0508s1.3535-3.3154,1.3535-5.8447c0-2.543-0.4478-4.4668-1.3433-5.7725
		S259.9321,640.582,258.1958,640.582z"/>
	<path fill="#4B5666" d="M273.7407,631.0459c0-0.8613,0.2358-1.5244,0.7075-1.9893s1.145-0.6973,2.02-0.6973
		c0.8477,0,1.5073,0.2324,1.979,0.6973s0.7075,1.1279,0.7075,1.9893c0,0.8203-0.2358,1.4658-0.7075,1.9385
		c-0.4717,0.4707-1.1313,0.707-1.979,0.707c-0.875,0-1.5483-0.2363-2.02-0.707
		C273.9766,632.5117,273.7407,631.8662,273.7407,631.0459z M278.8472,659.7363h-4.8193v-22.6816h4.8193V659.7363z"/>
	<path fill="#4B5666" d="M293.3872,660.1465c-2.8301,0-5.0381-1.0254-6.624-3.0762s-2.3789-4.9287-2.3789-8.6338
		c0-3.7188,0.8032-6.6143,2.4097-8.6846c1.6064-2.0723,3.8315-3.1074,6.6753-3.1074c2.9805,0,5.25,1.1006,6.8086,3.3018h0.2461
		c-0.2324-1.627-0.3486-2.9121-0.3486-3.8555v-8.2646h4.8398v31.9102h-3.7734l-0.8408-2.9736h-0.2256
		C298.6304,659.0186,296.3677,660.1465,293.3872,660.1465z M294.6792,656.25c1.9824,0,3.4248-0.5566,4.3271-1.6719
		c0.9023-1.1133,1.3672-2.9219,1.3945-5.4238v-0.6768c0-2.8574-0.4648-4.8877-1.3945-6.0908s-2.3857-1.8047-4.3682-1.8047
		c-1.6953,0-3.001,0.6875-3.917,2.0605c-0.916,1.375-1.374,3.333-1.374,5.876c0,2.5156,0.4443,4.4336,1.333,5.7529
		S292.9019,656.25,294.6792,656.25z"/>
	<path fill="#4B5666" d="M316.7251,659.7363h-4.8193v-31.9102h4.8193V659.7363z"/>
	<path fill="#4B5666" d="M320.1704,637.0547h5.25l4.6143,12.8584c0.6973,1.832,1.1621,3.5547,1.3945,5.168h0.1641
		c0.123-0.752,0.3486-1.6641,0.6768-2.7373s2.0645-6.1699,5.209-15.2891h5.209l-9.7002,25.6963
		c-1.7637,4.7168-4.7031,7.0752-8.8184,7.0752c-1.0664,0-2.1055-0.1162-3.1172-0.3486v-3.8145
		c0.7246,0.1641,1.5518,0.2461,2.4814,0.2461c2.3242,0,3.958-1.3467,4.9014-4.04l0.8408-2.1328L320.1704,637.0547z"/>
</g>
<path fill="#4B5666" d="M601.2812,88.3311c-9.9111,0-22.7549,5.8418-25.2822,15.6758l-0.002-0.002v0.002
	c-2.5273-9.834-15.3711-15.6758-25.2803-15.6758c-19.543,0-35.3936,15.1689-35.3936,35.3936
	c0,23.7969,14.0713,38.3584,29.4102,50.1758c9.2012,7.0898,29.6221,23.1357,31.2383,23.1357c0.0098,0,0.0176-0.002,0.0254-0.002
	s0.0176,0.002,0.0254,0.002c1.6172,0,22.0391-16.0459,31.2402-23.1357c15.3379-11.8174,29.4121-26.3789,29.4121-50.1758
	C636.6748,103.5,620.8242,88.3311,601.2812,88.3311z M536.9883,104.3398c-6.1104,4.5195-9.6162,11.585-9.6162,19.3848
	c0,1.2871-1.041,2.3301-2.3281,2.3301s-2.3301-1.043-2.3301-2.3301c0-9.293,4.1924-17.7227,11.5039-23.1299
	c1.0332-0.7656,2.4902-0.5469,3.2568,0.4873C538.2402,102.1162,538.0205,103.5762,536.9883,104.3398z"/>
<path fill-rule="evenodd" clip-rule="evenodd" fill="#4B5666" d="M244.1167,518.4824c0,14.9453-8.2681,27.9512-20.4751,34.7139
	c0,0-1.4834,0.8496-3.417,1.1836c-1.8804,0.3242-3.2686,0.3857-3.2686,0.3857h-12.5103h-12.5083c0,0-1.3901-0.0615-3.271-0.3857
	c-1.9331-0.334-3.4165-1.1836-3.4165-1.1836c-12.207-6.7627-20.4751-19.7686-20.4751-34.7139
	c0-16.502,10.0776-30.6465,24.4126-36.625v-22.5342c-1.9492,0-3.5293-1.5801-3.5293-3.5273v-6.207
	c0-1.9492,1.5801-3.5283,3.5293-3.5283h30.5166c1.9492,0,3.5298,1.5791,3.5298,3.5283v6.207c0,1.9473-1.5806,3.5273-3.5298,3.5273
	v22.5342C234.0391,487.8359,244.1167,501.9805,244.1167,518.4824z M214.6543,448.458h-20.4155
	c-1.2866,0-2.3296,1.0439-2.3296,2.3301c0,1.2871,1.043,2.3291,2.3296,2.3291h20.4155c1.2866,0,2.3306-1.042,2.3306-2.3291
	C216.9849,449.502,215.9409,448.458,214.6543,448.458z M216.9092,488.5605c-2.7051-1.1279-4.4683-3.7725-4.4683-6.7031v-22.5342
	h-15.9902v22.5342c0,2.9307-1.7622,5.5752-4.4678,6.7031c-12.1147,5.0537-19.9453,16.7998-19.9453,29.9219
	c0,11.7744,6.4092,22.6406,16.7266,28.3584c0.1572,0.0791,0.6587,0.2988,1.1396,0.3828c1.0723,0.1846,1.9355,0.2559,2.2476,0.2783
	h12.2944h12.2974c0.2939-0.0205,1.1636-0.0918,2.2471-0.2793c0.481-0.083,0.979-0.3027,1.1372-0.3818
	c10.3169-5.7178,16.7266-16.584,16.7266-28.3584C236.854,505.3604,229.0254,493.6143,216.9092,488.5605z M232.1948,518.4824
	c0,10.0059-5.4043,19.2441-14.124,24.1709c-0.6709,0.1104-1.2261,0.167-1.5117,0.1895h-24.2319
	c-0.2642-0.0215-0.8242-0.0771-1.5029-0.1895c-8.7207-4.9258-14.1289-14.165-14.1289-24.1709c0-3.5225,0.6699-6.8936,1.873-9.998
	h51.7563C231.5283,511.5889,232.1948,514.96,232.1948,518.4824z M196.0107,534.2666c-5.9766-3.7871-9.6782-10.4834-9.6782-17.5488
	c0-1.2871-1.0425-2.3291-2.3296-2.3291c-1.2856,0-2.3301,1.042-2.3301,2.3291c0,8.7676,4.6533,17.0723,12.1426,21.6699
	l0.4751,0.2764l0.6968,0.0752c0.0674,0.0059,0.1348,0.0088,0.2026,0.0088c1.1914,0,2.1646-0.9199,2.2695-2.1318
	C197.5488,535.5859,196.9238,534.6523,196.0107,534.2666z"/>
<path fill="#4B5666" d="M618.3379,831.3232h-84.6797c-1.9414,0-3.5186,1.5752-3.5186,3.5166l0.0039,32.6309
	c0,0.0029,0.002,0.0078,0.002,0.0117c0,9.8008,0,19.6309,0,22.917c0,7.2842,2.458,17.7812,11.8701,28.3242
	c13.4854,15.1035,33.9863,21.3076,33.9863,21.3076s20.501-6.2041,33.9863-21.3076c9.4121-10.543,11.8701-21.04,11.8701-28.3242
	c0-3.2861,0-13.1162,0-22.917c0-0.0039,0.002-0.0088,0.002-0.0117l-0.0049-32.6309
	C621.8555,832.8984,620.2793,831.3232,618.3379,831.3232z M551.249,914.3662c-0.4443,0.3955-0.999,0.5898-1.5498,0.5898
	c-0.6416,0-1.2793-0.2627-1.7393-0.7783c-9.2373-10.3447-10.6162-20.126-10.6162-25.0361c0-1.2861,1.042-2.3301,2.3281-2.3301
	c1.2871,0,2.3311,1.0439,2.3311,2.3301c0,4.2461,1.2246,12.7412,9.4326,21.9346C552.292,912.0352,552.207,913.5078,551.249,914.3662
	z M614.5967,867.3564c-0.001,0.041-0.001,0.084-0.001,0.126v22.917c0,4.5781-1.3037,13.7168-10.0244,23.4863
	c-9.5215,10.665-23.334,16.5176-28.5693,18.4619l-0.0039-93.7617h38.5947L614.5967,867.3564z"/>
<path fill-rule="evenodd" clip-rule="evenodd" fill="#4B5666" d="M1011.5254,487.6035c-0.1602,0-0.3301-0.0117-0.5098-0.0381
	l-6.7881-0.9492l-0.001,49.5664c0,1.9404-1.5312,3.9492-3.4014,4.4658l-49.8701,13.7334c-0.9346,0.2568-2.1689,0.3877-3.4014,0.3877
	c-1.2344,0-2.4658-0.1309-3.4023-0.3877l-49.8672-13.7334c-1.873-0.5166-3.4023-2.5254-3.4023-4.4658l0.001-49.5664l-6.791,0.9492
	c-0.1787,0.0264-0.3477,0.0381-0.5078,0.0381c-1.5664,0-2.2471-1.1543-1.5117-2.7529l9.543-20.7812
	c0.8105-1.7627,3.002-3.6299,4.875-4.1445l49.8682-13.7363c0.3125-0.0859,0.6025-0.1279,0.8672-0.1279
	c0.1182,0,0.2236,0.0176,0.3291,0.0342c0.1064-0.0166,0.2109-0.0342,0.3281-0.0342c0.2656,0,0.5557,0.042,0.8672,0.1279
	l49.8691,13.7363c1.8721,0.5146,4.0654,2.3818,4.876,4.1445l9.543,20.7812
	C1013.7734,486.4492,1013.0928,487.6035,1011.5254,487.6035z M898.4482,530.5283c0,1.2861,1.043,2.3281,2.3291,2.3281
	c1.2871,0,2.3291-1.042,2.3291-2.3281v-22.2285c0-1.2871-1.042-2.3291-2.3291-2.3291c-1.2861,0-2.3291,1.042-2.3291,2.3291V530.5283
	z M897.7256,464.416c-0.5508,0.1533-1.6387,1.0801-1.8779,1.5977l-7.4609,16.2461l46.6182-6.5381
	c0.2393-0.0791,0.6523-0.4346,0.7666-0.6572l7.0557-23.0732L897.7256,464.416z M947.9473,478.5869l-0.3926-1.2852v68.8408
	c0.8145,0,1.3506-0.0938,1.4736-0.126l47.9365-13.2021v-39.8848l-38.5527-5.4092
	C953.7344,486.8652,949.332,483.1074,947.9473,478.5869z M999.2617,466.0137c-0.2393-0.5176-1.3281-1.4443-1.8789-1.5977
	l-45.1016-12.4248l7.0566,23.0732c0.1133,0.2227,0.5273,0.5781,0.7666,0.6572l46.6172,6.5381L999.2617,466.0137z"/>
</svg>
