<?xml version="1.0" encoding="utf-8"?>
<!-- Generator: Adobe Illustrator 15.0.0, SVG Export Plug-In . SVG Version: 6.00 Build 0)  -->
<!DOCTYPE svg PUBLIC "-//W3C//DTD SVG 1.1//EN" "http://www.w3.org/Graphics/SVG/1.1/DTD/svg11.dtd">
<svg version="1.1" id="Layer_1" xmlns="http://www.w3.org/2000/svg" xmlns:xlink="http://www.w3.org/1999/xlink" x="0px" y="0px"
	 width="1152px" height="1152.001px" viewBox="0 0 1152 1152.001" enable-background="new 0 0 1152 1152.001" xml:space="preserve">
<circle fill="#4B5666" cx="576" cy="576" r="576"/>
<g>
	<path fill="#FBD35C" d="M188.2964,188.29c214.2964-214.2959,561.1108-214.293,775.4106,0.0078L576.0049,575.999L188.2964,188.29z"
		/>
</g>
<g>
	<path fill="#A4D970" d="M963.71,188.293c214.2979,214.2979,214.293,561.1104-0.0068,775.4092L576.002,576.001L963.71,188.293z"/>
</g>
<g>
	<path fill="#9EBEED" d="M963.7031,963.709c-214.2959,214.2988-561.1104,214.293-775.4102-0.0068L575.9951,576.001L963.7031,963.709
		z"/>
</g>
<g>
	<path fill="#FA7977" d="M188.2896,963.707c-214.2959-214.2979-214.2925-561.1104,0.0068-775.4092L575.999,575.999L188.2896,963.707
		z"/>
</g>
<circle fill="#4B5666" cx="576" cy="576" r="194.6777"/>
<g>
	<path fill="#FFFFFF" d="M466.7227,560.9141l-15.0771-39.3945h-0.2432c0.2842,3.1211,0.4258,6.8301,0.4258,11.127v28.2676h-4.7725
		v-44.4395h7.7822l14.0732,36.6582h0.2432l14.1953-36.6582h7.7207v44.4395h-5.167v-28.6328c0-3.2832,0.1416-6.8496,0.4258-10.6992
		h-0.2432l-15.1992,39.332H466.7227z"/>
	<path fill="#FFFFFF" d="M541.833,538.6328c0,7.1133-1.7988,12.707-5.3955,16.7793c-3.5977,4.0742-8.5977,6.1113-15.001,6.1113
		c-6.5459,0-11.5967-2.002-15.1533-6.0039c-3.5557-4.002-5.334-9.6523-5.334-16.9473c0-7.2344,1.7832-12.8418,5.3496-16.8242
		s8.6328-5.9727,15.1982-5.9727c6.3838,0,11.3682,2.0273,14.9551,6.0801S541.833,531.5,541.833,538.6328z M506.4209,538.6328
		c0,6.0195,1.2812,10.584,3.8447,13.6953c2.5635,3.1094,6.2871,4.666,11.1709,4.666c4.9238,0,8.6426-1.5508,11.1553-4.6523
		c2.5127-3.0996,3.7695-7.6699,3.7695-13.709c0-5.9766-1.252-10.5117-3.7539-13.6016c-2.5029-3.0898-6.2061-4.6348-11.1104-4.6348
		c-4.9238,0-8.668,1.5547-11.2314,4.666C507.7021,528.1719,506.4209,532.6973,506.4209,538.6328z"/>
	<path fill="#FFFFFF" d="M587.2148,538.2695c0,7.3359-1.9912,12.9434-5.9736,16.8242c-3.9814,3.8809-9.7109,5.8203-17.1885,5.8203
		h-12.3115v-44.4395h13.6182c6.9102,0,12.2803,1.9141,16.1104,5.7441S587.2148,531.3984,587.2148,538.2695z M581.7432,538.4512
		c0-5.7949-1.4541-10.1621-4.3623-13.1016c-2.9082-2.9375-7.2295-4.4062-12.9639-4.4062h-7.5078v35.502h6.292
		c6.1602,0,10.791-1.5137,13.8916-4.543S581.7432,544.3887,581.7432,538.4512z"/>
	<path fill="#FFFFFF" d="M621.8975,560.9141H597.124v-44.4395h24.7734v4.5898H602.292v14.3164h18.4199v4.5605H602.292v16.3535
		h19.6055V560.9141z"/>
	<path fill="#FFFFFF" d="M636.9141,542.4336v18.4805h-5.168v-44.4395h12.1895c5.4512,0,9.4785,1.043,12.083,3.1309
		c2.6035,2.0879,3.9053,5.2285,3.9053,9.4238c0,5.877-2.9785,9.8477-8.9365,11.9141l12.0674,19.9707h-6.1094l-10.7607-18.4805
		H636.9141z M636.9141,537.9961h7.082c3.6475,0,6.3232-0.7246,8.0254-2.1738s2.5527-3.623,2.5527-6.5195
		c0-2.9395-0.8662-5.0566-2.5986-6.3535s-4.5137-1.9453-8.3438-1.9453h-6.7178V537.9961z"/>
	<path fill="#FFFFFF" d="M704.9424,560.9141h-5.8975l-24.2871-37.2969h-0.2432c0.3242,4.377,0.4863,8.3906,0.4863,12.0371v25.2598
		h-4.7725v-44.4395h5.8369l24.2256,37.1445h0.2432c-0.041-0.5469-0.1318-2.3047-0.2734-5.2734s-0.1924-5.0918-0.1514-6.3691v-25.502
		h4.833V560.9141z"/>
	<path fill="#FFFFFF" d="M525.54,635.6172l-5.5322-14.1348h-17.8125l-5.4707,14.1348h-5.2285l17.5693-44.6211h4.3467
		l17.4785,44.6211H525.54z M518.3975,616.832l-5.168-13.7695c-0.668-1.7422-1.3574-3.8809-2.0664-6.4141
		c-0.4463,1.9453-1.085,4.084-1.915,6.4141l-5.2285,13.7695H518.3975z"/>
	<path fill="#FFFFFF" d="M556.5459,612.334h15.1064v21.6113c-2.3506,0.75-4.7412,1.3184-7.1729,1.7031
		c-2.4326,0.3848-5.249,0.5781-8.4512,0.5781c-6.7275,0-11.9658-2.002-15.7148-6.0039s-5.623-9.6113-5.623-16.8242
		c0-4.6211,0.9268-8.668,2.7812-12.1445c1.8545-3.4746,4.5234-6.1289,8.0098-7.9629c3.4844-1.834,7.5684-2.752,12.249-2.752
		c4.7422,0,9.1602,0.8711,13.2539,2.6152l-2.0068,4.5586c-4.0117-1.7031-7.8721-2.5527-11.5811-2.5527
		c-5.4102,0-9.6357,1.6113-12.6758,4.832c-3.0391,3.2227-4.5586,7.6914-4.5586,13.4062c0,5.998,1.4629,10.5469,4.3916,13.6465
		c2.9287,3.1016,7.2295,4.6523,12.9033,4.6523c3.0801,0,6.0898-0.3555,9.0283-1.0645v-13.6797h-9.9395V612.334z"/>
	<path fill="#FFFFFF" d="M582.3213,635.6172v-44.4395h5.168v44.4395H582.3213z"/>
	<path fill="#FFFFFF" d="M599.6777,635.6172v-44.4395h5.168v39.7598h19.6055v4.6797H599.6777z"/>
	<path fill="#FFFFFF" d="M656.7627,635.6172h-24.7734v-44.4395h24.7734v4.5898h-19.6055v14.3164h18.4199v4.5605h-18.4199v16.3535
		h19.6055V635.6172z"/>
</g>
<g>
	<path fill="#4B5666" d="M472.0752,251.6055l-2.9941-8.3262h-11.4639l-2.9326,8.3262h-5.168L460.7344,221.5h5.332l11.2178,30.1055
		H472.0752z M467.7891,239.0547l-2.8096-8.1621c-0.2051-0.5469-0.4893-1.4082-0.8516-2.584s-0.6113-2.0371-0.748-2.584
		c-0.3691,1.6816-0.9092,3.5205-1.6201,5.5166l-2.707,7.8135H467.7891z"/>
	<path fill="#4B5666" d="M496.7256,251.6055l-0.6768-2.9736h-0.2461c-0.6699,1.0527-1.624,1.8799-2.8604,2.4814
		c-1.2383,0.6016-2.6494,0.9023-4.2354,0.9023c-2.748,0-4.7988-0.6836-6.1523-2.0508s-2.0303-3.4385-2.0303-6.2139v-14.8271h4.8604
		v13.9863c0,1.7363,0.3555,3.0391,1.0664,3.9062c0.7109,0.8691,1.8252,1.3027,3.3428,1.3027c2.0234,0,3.5098-0.6055,4.4609-1.8145
		c0.9492-1.2109,1.4248-3.2373,1.4248-6.0811v-11.2998h4.8398v22.6816H496.7256z"/>
	<path fill="#4B5666" d="M515.8389,248.1191c1.1758,0,2.3516-0.1846,3.5273-0.5537v3.6299
		c-0.5332,0.2324-1.2207,0.4268-2.0605,0.584c-0.8418,0.1572-1.7129,0.2363-2.6152,0.2363c-4.5664,0-6.8496-2.4062-6.8496-7.2188
		v-12.2227h-3.0967v-2.1328l3.3223-1.7637l1.6406-4.7988h2.9736v5.0449h6.46v3.6504h-6.46v12.1406
		c0,1.1621,0.29,2.0195,0.8711,2.5742C514.1328,247.8418,514.8955,248.1191,515.8389,248.1191z"/>
	<path fill="#4B5666" d="M538.0898,251.6055l-0.9639-3.1582h-0.1641c-1.0938,1.3809-2.1943,2.3213-3.3018,2.8203
		c-1.1074,0.498-2.5293,0.748-4.2656,0.748c-2.2285,0-3.9688-0.6016-5.2188-1.8047c-1.252-1.2031-1.877-2.9053-1.877-5.1064
		c0-2.3379,0.8682-4.1016,2.6045-5.291s4.3818-1.8389,7.9365-1.9482l3.917-0.123v-1.21c0-1.4492-0.3389-2.5322-1.0146-3.251
		c-0.6777-0.7168-1.7266-1.0762-3.1484-1.0762c-1.1621,0-2.2764,0.1709-3.3428,0.5127s-2.0918,0.7451-3.0762,1.21l-1.5586-3.4453
		c1.2305-0.6426,2.5771-1.1309,4.04-1.4668c1.4629-0.334,2.8438-0.502,4.1426-0.502c2.8848,0,5.0615,0.6289,6.5312,1.8867
		s2.2051,3.2334,2.2051,5.9268v15.2783H538.0898z M530.9121,248.3242c1.75,0,3.1543-0.4883,4.2148-1.4668
		c1.0586-0.9766,1.5889-2.3477,1.5889-4.1113v-1.9688l-2.9121,0.123c-2.2695,0.082-3.9209,0.4609-4.9521,1.1387
		c-1.0332,0.6758-1.5488,1.7119-1.5488,3.1064c0,1.0117,0.3008,1.7939,0.9023,2.3486
		C528.8066,248.0469,529.709,248.3242,530.9121,248.3242z"/>
	<path fill="#4B5666" d="M558.8848,222.915c0-0.8613,0.2363-1.5244,0.707-1.9893c0.4727-0.4648,1.1455-0.6973,2.0205-0.6973
		c0.8477,0,1.5068,0.2324,1.9795,0.6973c0.4707,0.4648,0.707,1.1279,0.707,1.9893c0,0.8203-0.2363,1.4658-0.707,1.9385
		c-0.4727,0.4707-1.1318,0.707-1.9795,0.707c-0.875,0-1.5479-0.2363-2.0205-0.707
		C559.1211,224.3809,558.8848,223.7354,558.8848,222.915z M563.9912,251.6055h-4.8193v-22.6816h4.8193V251.6055z"/>
	<path fill="#4B5666" d="M590.8359,251.6055h-4.8398v-13.9453c0-1.75-0.3525-3.0557-1.0557-3.917
		c-0.7051-0.8613-1.8223-1.292-3.3535-1.292c-2.0234,0-3.5107,0.6055-4.4609,1.8145c-0.9502,1.2109-1.4248,3.2373-1.4248,6.0811
		v11.2588h-4.8193v-31.9102h4.8193v8.1006c0,1.2988-0.082,2.6865-0.2461,4.1631h0.3076c0.6562-1.0938,1.5684-1.9414,2.7383-2.543
		c1.168-0.6016,2.5322-0.9023,4.0908-0.9023c5.4961,0,8.2441,2.7686,8.2441,8.3057V251.6055z"/>
	<path fill="#4B5666" d="M616.6553,251.6055h-4.8398v-13.9863c0-1.7363-0.3281-3.0312-0.9844-3.8867
		c-0.6562-0.8535-1.6816-1.2812-3.0762-1.2812c-1.8594,0-3.2236,0.6055-4.0918,1.8145c-0.8682,1.2109-1.3018,3.2236-1.3018,6.04
		v11.2998h-4.8193v-22.6816h3.7734l0.6768,2.9736h0.2461c0.6289-1.0801,1.541-1.9141,2.7373-2.502s2.5127-0.8818,3.9482-0.8818
		c3.4863,0,5.7969,1.1895,6.9316,3.5684h0.3281c0.6699-1.1211,1.6133-1.9961,2.8301-2.625s2.6113-0.9434,4.1836-0.9434
		c2.707,0,4.6787,0.6836,5.917,2.0508c1.2363,1.3672,1.8555,3.4521,1.8555,6.2549v14.7861h-4.8193v-13.9863
		c0-1.7363-0.332-3.0312-0.9951-3.8867c-0.6631-0.8535-1.6914-1.2812-3.0859-1.2812c-1.873,0-3.2441,0.584-4.1113,1.7539
		c-0.8691,1.168-1.3027,2.9629-1.3027,5.3828V251.6055z"/>
	<path fill="#4B5666" d="M637.4092,222.915c0-0.8613,0.2363-1.5244,0.707-1.9893c0.4727-0.4648,1.1455-0.6973,2.0205-0.6973
		c0.8477,0,1.5068,0.2324,1.9795,0.6973c0.4707,0.4648,0.707,1.1279,0.707,1.9893c0,0.8203-0.2363,1.4658-0.707,1.9385
		c-0.4727,0.4707-1.1318,0.707-1.9795,0.707c-0.875,0-1.5479-0.2363-2.0205-0.707
		C637.6455,224.3809,637.4092,223.7354,637.4092,222.915z M642.5156,251.6055h-4.8193v-22.6816h4.8193V251.6055z"/>
	<path fill="#4B5666" d="M664.6436,245.1455c0,2.2148-0.8066,3.9141-2.4199,5.0967s-3.9238,1.7734-6.9316,1.7734
		c-3.0215,0-5.4482-0.458-7.2803-1.374v-4.1631c2.666,1.2305,5.1475,1.8457,7.4443,1.8457c2.9668,0,4.4502-0.8955,4.4502-2.6865
		c0-0.5742-0.1641-1.0527-0.4922-1.4355s-0.8682-0.7793-1.6201-1.1895s-1.7979-0.875-3.1377-1.3945
		c-2.6113-1.0117-4.3789-2.0234-5.3008-3.0352c-0.9238-1.0117-1.3848-2.3242-1.3848-3.9375c0-1.9414,0.7822-3.4482,2.3477-4.5225
		c1.5654-1.0723,3.6953-1.6094,6.3887-1.6094c2.666,0,5.1885,0.54,7.5674,1.6201l-1.5586,3.6299
		c-2.4473-1.0117-4.5049-1.5176-6.1729-1.5176c-2.543,0-3.8145,0.7246-3.8145,2.1738c0,0.7109,0.3311,1.3125,0.9941,1.8047
		s2.1094,1.1689,4.3379,2.0303c1.873,0.7246,3.2334,1.3877,4.0811,1.9893s1.4766,1.2959,1.8867,2.082
		S664.6436,244.0518,664.6436,245.1455z"/>
	<path fill="#4B5666" d="M669.5654,222.915c0-0.8613,0.2363-1.5244,0.707-1.9893c0.4727-0.4648,1.1455-0.6973,2.0205-0.6973
		c0.8477,0,1.5068,0.2324,1.9795,0.6973c0.4707,0.4648,0.707,1.1279,0.707,1.9893c0,0.8203-0.2363,1.4658-0.707,1.9385
		c-0.4727,0.4707-1.1318,0.707-1.9795,0.707c-0.875,0-1.5479-0.2363-2.0205-0.707
		C669.8018,224.3809,669.5654,223.7354,669.5654,222.915z M674.6719,251.6055h-4.8193v-22.6816h4.8193V251.6055z"/>
	<path fill="#4B5666" d="M695.7539,251.6055l-0.9639-3.1582h-0.1641c-1.0938,1.3809-2.1943,2.3213-3.3018,2.8203
		c-1.1074,0.498-2.5293,0.748-4.2656,0.748c-2.2285,0-3.9688-0.6016-5.2188-1.8047c-1.252-1.2031-1.877-2.9053-1.877-5.1064
		c0-2.3379,0.8682-4.1016,2.6045-5.291s4.3818-1.8389,7.9365-1.9482l3.917-0.123v-1.21c0-1.4492-0.3389-2.5322-1.0146-3.251
		c-0.6777-0.7168-1.7266-1.0762-3.1484-1.0762c-1.1621,0-2.2764,0.1709-3.3428,0.5127s-2.0918,0.7451-3.0762,1.21l-1.5586-3.4453
		c1.2305-0.6426,2.5771-1.1309,4.04-1.4668c1.4629-0.334,2.8438-0.502,4.1426-0.502c2.8848,0,5.0615,0.6289,6.5312,1.8867
		s2.2051,3.2334,2.2051,5.9268v15.2783H695.7539z M683.9004,222.915c0-0.8477,0.2285-1.459,0.6875-1.835
		c0.457-0.376,1.0146-0.5645,1.6709-0.5645c0.7246,0,1.3018,0.2119,1.7334,0.6357c0.4297,0.4238,0.6455,1.0117,0.6455,1.7637
		c0,0.7246-0.2188,1.3057-0.6562,1.7432s-1.0117,0.6562-1.7227,0.6562c-0.6562,0-1.2139-0.1982-1.6709-0.5947
		C684.1289,224.3232,683.9004,223.7217,683.9004,222.915z M688.5762,248.3242c1.75,0,3.1543-0.4883,4.2148-1.4668
		c1.0586-0.9766,1.5889-2.3477,1.5889-4.1113v-1.9688l-2.9121,0.123c-2.2695,0.082-3.9209,0.4609-4.9521,1.1387
		c-1.0332,0.6758-1.5488,1.7119-1.5488,3.1064c0,1.0117,0.3008,1.7939,0.9023,2.3486
		C686.4707,248.0469,687.373,248.3242,688.5762,248.3242z M691.96,222.915c0-0.8477,0.2285-1.459,0.6865-1.835
		s1.0156-0.5645,1.6719-0.5645c0.7246,0,1.3057,0.2119,1.7432,0.6357s0.6562,1.0117,0.6562,1.7637
		c0,0.7383-0.2256,1.3232-0.6768,1.7529c-0.4512,0.4316-1.0254,0.6465-1.7227,0.6465c-0.6562,0-1.2139-0.1982-1.6719-0.5947
		S691.96,223.7217,691.96,222.915z"/>
	<path fill="#4B5666" d="M471.2969,302.0059h-4.8193v-31.9102h4.8193V302.0059z"/>
	<path fill="#4B5666" d="M498.3057,290.624c0,3.7051-0.9502,6.5967-2.8506,8.6748s-4.5459,3.1172-7.9365,3.1172
		c-2.1191,0-3.9922-0.4785-5.6191-1.4355s-2.8779-2.3311-3.7529-4.1221s-1.3125-3.8691-1.3125-6.2344
		c0-3.6777,0.9434-6.5488,2.8301-8.6133s4.5459-3.0967,7.9775-3.0967c3.2812,0,5.8789,1.0566,7.793,3.168
		C497.3486,284.1953,498.3057,287.042,498.3057,290.624z M481.7969,290.624c0,5.2363,1.9346,7.8545,5.8037,7.8545
		c3.8281,0,5.7422-2.6182,5.7422-7.8545c0-5.1816-1.9277-7.7725-5.7832-7.7725c-2.0234,0-3.4902,0.6699-4.3994,2.0098
		S481.7969,288.1221,481.7969,290.624z"/>
	<path fill="#4B5666" d="M503.5557,273.3154c0-0.8613,0.2363-1.5244,0.707-1.9893c0.4727-0.4648,1.1455-0.6973,2.0205-0.6973
		c0.8477,0,1.5068,0.2324,1.9795,0.6973c0.4707,0.4648,0.707,1.1279,0.707,1.9893c0,0.8203-0.2363,1.4658-0.707,1.9385
		c-0.4727,0.4707-1.1318,0.707-1.9795,0.707c-0.875,0-1.5479-0.2363-2.0205-0.707
		C503.792,274.7812,503.5557,274.1357,503.5557,273.3154z M508.6621,302.0059h-4.8193v-22.6816h4.8193V302.0059z"/>
	<path fill="#4B5666" d="M530.79,295.5459c0,2.2148-0.8066,3.9141-2.4199,5.0967s-3.9238,1.7734-6.9316,1.7734
		c-3.0215,0-5.4482-0.458-7.2803-1.374v-4.1631c2.666,1.2305,5.1475,1.8457,7.4443,1.8457c2.9668,0,4.4502-0.8955,4.4502-2.6865
		c0-0.5742-0.1641-1.0527-0.4922-1.4355s-0.8682-0.7793-1.6201-1.1895s-1.7979-0.875-3.1377-1.3945
		c-2.6113-1.0117-4.3789-2.0234-5.3008-3.0352c-0.9238-1.0117-1.3848-2.3242-1.3848-3.9375c0-1.9414,0.7822-3.4482,2.3477-4.5225
		c1.5654-1.0723,3.6953-1.6094,6.3887-1.6094c2.666,0,5.1885,0.54,7.5674,1.6201l-1.5586,3.6299
		c-2.4473-1.0117-4.5049-1.5176-6.1729-1.5176c-2.543,0-3.8145,0.7246-3.8145,2.1738c0,0.7109,0.3311,1.3125,0.9941,1.8047
		s2.1094,1.1689,4.3379,2.0303c1.873,0.7246,3.2334,1.3877,4.0811,1.9893s1.4766,1.2959,1.8867,2.082
		S530.79,294.4521,530.79,295.5459z"/>
	<path fill="#4B5666" d="M544.4482,298.5195c1.1758,0,2.3516-0.1846,3.5273-0.5537v3.6299
		c-0.5332,0.2324-1.2207,0.4268-2.0605,0.584c-0.8418,0.1572-1.7129,0.2363-2.6152,0.2363c-4.5664,0-6.8496-2.4062-6.8496-7.2188
		v-12.2227h-3.0967v-2.1328l3.3223-1.7637l1.6406-4.7988h2.9736v5.0449h6.46v3.6504h-6.46v12.1406
		c0,1.1621,0.29,2.0195,0.8711,2.5742C542.7422,298.2422,543.5049,298.5195,544.4482,298.5195z"/>
	<path fill="#4B5666" d="M566.6992,302.0059l-0.9639-3.1582h-0.1641c-1.0938,1.3809-2.1943,2.3213-3.3018,2.8203
		c-1.1074,0.498-2.5293,0.748-4.2656,0.748c-2.2285,0-3.9688-0.6016-5.2188-1.8047c-1.252-1.2031-1.877-2.9053-1.877-5.1064
		c0-2.3379,0.8682-4.1016,2.6045-5.291s4.3818-1.8389,7.9365-1.9482l3.917-0.123v-1.21c0-1.4492-0.3389-2.5322-1.0146-3.251
		c-0.6777-0.7168-1.7266-1.0762-3.1484-1.0762c-1.1621,0-2.2764,0.1709-3.3428,0.5127s-2.0918,0.7451-3.0762,1.21l-1.5586-3.4453
		c1.2305-0.6426,2.5771-1.1309,4.04-1.4668c1.4629-0.334,2.8438-0.502,4.1426-0.502c2.8848,0,5.0615,0.6289,6.5312,1.8867
		s2.2051,3.2334,2.2051,5.9268v15.2783H566.6992z M559.5215,298.7246c1.75,0,3.1543-0.4883,4.2148-1.4668
		c1.0586-0.9766,1.5889-2.3477,1.5889-4.1113v-1.9688l-2.9121,0.123c-2.2695,0.082-3.9209,0.4609-4.9521,1.1387
		c-1.0332,0.6758-1.5488,1.7119-1.5488,3.1064c0,1.0117,0.3008,1.7939,0.9023,2.3486
		C557.416,298.4473,558.3184,298.7246,559.5215,298.7246z"/>
	<path fill="#4B5666" d="M595.9844,302.0059h-4.8398v-13.9863c0-1.7363-0.3281-3.0312-0.9844-3.8867
		c-0.6562-0.8535-1.6816-1.2812-3.0762-1.2812c-1.8594,0-3.2236,0.6055-4.0918,1.8145c-0.8682,1.2109-1.3018,3.2236-1.3018,6.04
		v11.2998h-4.8193v-22.6816h3.7734l0.6768,2.9736h0.2461c0.6289-1.0801,1.541-1.9141,2.7373-2.502s2.5127-0.8818,3.9482-0.8818
		c3.4863,0,5.7969,1.1895,6.9316,3.5684h0.3281c0.6699-1.1211,1.6133-1.9961,2.8301-2.625s2.6113-0.9434,4.1836-0.9434
		c2.707,0,4.6787,0.6836,5.917,2.0508c1.2363,1.3672,1.8555,3.4521,1.8555,6.2549v14.7861h-4.8193v-13.9863
		c0-1.7363-0.332-3.0312-0.9951-3.8867c-0.6631-0.8535-1.6914-1.2812-3.0859-1.2812c-1.873,0-3.2441,0.584-4.1113,1.7539
		c-0.8691,1.168-1.3027,2.9629-1.3027,5.3828V302.0059z"/>
	<path fill="#4B5666" d="M631.2168,302.0059l-0.9639-3.1582h-0.1641c-1.0938,1.3809-2.1943,2.3213-3.3018,2.8203
		c-1.1074,0.498-2.5293,0.748-4.2656,0.748c-2.2285,0-3.9688-0.6016-5.2188-1.8047c-1.252-1.2031-1.877-2.9053-1.877-5.1064
		c0-2.3379,0.8682-4.1016,2.6045-5.291s4.3818-1.8389,7.9365-1.9482l3.917-0.123v-1.21c0-1.4492-0.3389-2.5322-1.0146-3.251
		c-0.6777-0.7168-1.7266-1.0762-3.1484-1.0762c-1.1621,0-2.2764,0.1709-3.3428,0.5127s-2.0918,0.7451-3.0762,1.21l-1.5586-3.4453
		c1.2305-0.6426,2.5771-1.1309,4.04-1.4668c1.4629-0.334,2.8438-0.502,4.1426-0.502c2.8848,0,5.0615,0.6289,6.5312,1.8867
		s2.2051,3.2334,2.2051,5.9268v15.2783H631.2168z M624.0391,298.7246c1.75,0,3.1543-0.4883,4.2148-1.4668
		c1.0586-0.9766,1.5889-2.3477,1.5889-4.1113v-1.9688l-2.9121,0.123c-2.2695,0.082-3.9209,0.4609-4.9521,1.1387
		c-1.0332,0.6758-1.5488,1.7119-1.5488,3.1064c0,1.0117,0.3008,1.7939,0.9023,2.3486
		C621.9336,298.4473,622.8359,298.7246,624.0391,298.7246z"/>
	<path fill="#4B5666" d="M655.5801,302.0059l-0.9639-3.1582h-0.1641c-1.0938,1.3809-2.1943,2.3213-3.3018,2.8203
		c-1.1074,0.498-2.5293,0.748-4.2656,0.748c-2.2285,0-3.9688-0.6016-5.2188-1.8047c-1.252-1.2031-1.877-2.9053-1.877-5.1064
		c0-2.3379,0.8682-4.1016,2.6045-5.291s4.3818-1.8389,7.9365-1.9482l3.917-0.123v-1.21c0-1.4492-0.3389-2.5322-1.0146-3.251
		c-0.6777-0.7168-1.7266-1.0762-3.1484-1.0762c-1.1621,0-2.2764,0.1709-3.3428,0.5127s-2.0918,0.7451-3.0762,1.21l-1.5586-3.4453
		c1.2305-0.6426,2.5771-1.1309,4.04-1.4668c1.4629-0.334,2.8438-0.502,4.1426-0.502c2.8848,0,5.0615,0.6289,6.5312,1.8867
		s2.2051,3.2334,2.2051,5.9268v15.2783H655.5801z M648.4023,298.7246c1.75,0,3.1543-0.4883,4.2148-1.4668
		c1.0586-0.9766,1.5889-2.3477,1.5889-4.1113v-1.9688l-2.9121,0.123c-2.2695,0.082-3.9209,0.4609-4.9521,1.1387
		c-1.0332,0.6758-1.5488,1.7119-1.5488,3.1064c0,1.0117,0.3008,1.7939,0.9023,2.3486
		C646.2969,298.4473,647.1992,298.7246,648.4023,298.7246z"/>
	<path fill="#4B5666" d="M685.7061,302.0059h-4.8398v-13.9453c0-1.75-0.3525-3.0557-1.0557-3.917
		c-0.7051-0.8613-1.8223-1.292-3.3535-1.292c-2.0371,0-3.5273,0.6016-4.4707,1.8047s-1.415,3.2197-1.415,6.0498v11.2998h-4.8193
		v-22.6816h3.7734l0.6768,2.9736h0.2461c0.6836-1.0801,1.6543-1.9141,2.9121-2.502s2.6523-0.8818,4.1836-0.8818
		c5.4414,0,8.1621,2.7686,8.1621,8.3057V302.0059z"/>
</g>
<g>
	<path fill="#4B5666" d="M384.4248,994.7217h-4.9004v-25.7783h-8.8188v-4.2041h22.5376v4.2041h-8.8184V994.7217z"/>
	<path fill="#4B5666" d="M407.2305,995.1318c-3.5273,0-6.2861-1.0283-8.2744-3.0859c-1.9902-2.0576-2.9844-4.8916-2.9844-8.501
		c0-3.7051,0.9229-6.6172,2.7686-8.7363s4.3818-3.1787,7.6084-3.1787c2.9941,0,5.3594,0.9092,7.0957,2.7275
		s2.6045,4.3203,2.6045,7.5059v2.6045h-15.1143c0.0684,2.2012,0.6631,3.8936,1.7842,5.0762s2.7002,1.7734,4.7373,1.7734
		c1.3398,0,2.5869-0.126,3.7422-0.3789s2.3965-0.6738,3.7227-1.2617v3.917c-1.1758,0.5605-2.3652,0.957-3.5684,1.1895
		S408.7754,995.1318,407.2305,995.1318z M406.3486,975.2803c-1.5312,0-2.7578,0.4854-3.6816,1.4561
		c-0.9219,0.9707-1.4727,2.3857-1.6504,4.2451h10.2949c-0.0273-1.873-0.4785-3.291-1.3535-4.2559
		C409.083,975.7627,407.8799,975.2803,406.3486,975.2803z"/>
	<path fill="#4B5666" d="M431.4297,995.1318c-3.5273,0-6.2861-1.0283-8.2744-3.0859c-1.9902-2.0576-2.9844-4.8916-2.9844-8.501
		c0-3.7051,0.9229-6.6172,2.7686-8.7363s4.3818-3.1787,7.6084-3.1787c2.9941,0,5.3594,0.9092,7.0957,2.7275
		s2.6045,4.3203,2.6045,7.5059v2.6045h-15.1143c0.0684,2.2012,0.6631,3.8936,1.7842,5.0762s2.7002,1.7734,4.7373,1.7734
		c1.3398,0,2.5869-0.126,3.7422-0.3789s2.3965-0.6738,3.7227-1.2617v3.917c-1.1758,0.5605-2.3652,0.957-3.5684,1.1895
		S432.9746,995.1318,431.4297,995.1318z M430.5479,975.2803c-1.5312,0-2.7578,0.4854-3.6816,1.4561
		c-0.9219,0.9707-1.4727,2.3857-1.6504,4.2451h10.2949c-0.0273-1.873-0.4785-3.291-1.3535-4.2559
		C433.2822,975.7627,432.0791,975.2803,430.5479,975.2803z"/>
	<path fill="#4B5666" d="M465.083,991.2354c1.1758,0,2.3516-0.1846,3.5273-0.5537v3.6299c-0.5332,0.2324-1.2207,0.4268-2.0605,0.584
		c-0.8418,0.1572-1.7129,0.2363-2.6152,0.2363c-4.5664,0-6.8496-2.4062-6.8496-7.2188v-12.2227h-3.0967v-2.1328l3.3223-1.7637
		l1.6406-4.7988h2.9736v5.0449h6.46v3.6504h-6.46v12.1406c0,1.1621,0.29,2.0195,0.8711,2.5742
		C463.377,990.958,464.1396,991.2354,465.083,991.2354z"/>
	<path fill="#4B5666" d="M489.1377,994.7217l-0.6768-2.9736h-0.2461c-0.6699,1.0527-1.624,1.8799-2.8604,2.4814
		c-1.2383,0.6016-2.6494,0.9023-4.2354,0.9023c-2.748,0-4.7988-0.6836-6.1523-2.0508s-2.0303-3.4385-2.0303-6.2139V972.04h4.8604
		v13.9863c0,1.7363,0.3555,3.0391,1.0664,3.9062c0.7109,0.8691,1.8252,1.3027,3.3428,1.3027c2.0234,0,3.5098-0.6055,4.4609-1.8145
		c0.9492-1.2109,1.4248-3.2373,1.4248-6.0811V972.04h4.8398v22.6816H489.1377z"/>
	<path fill="#4B5666" d="M511.3066,971.6299c0.9707,0,1.7705,0.0684,2.3994,0.2051l-0.4717,4.4912
		c-0.6836-0.1641-1.3945-0.2461-2.1328-0.2461c-1.9277,0-3.4902,0.6289-4.6865,1.8867s-1.7939,2.8916-1.7939,4.9014v11.8535h-4.8193
		V972.04h3.7734l0.6357,3.999h0.2461c0.752-1.3535,1.7334-2.4268,2.9424-3.2197
		C508.6104,972.0264,509.9121,971.6299,511.3066,971.6299z"/>
	<path fill="#4B5666" d="M523.0791,994.7217l-8.6133-22.6816h5.0859l4.6143,13.1865c0.793,2.2148,1.2715,4.0059,1.4355,5.373h0.1641
		c0.123-0.9844,0.6016-2.7754,1.4355-5.373l4.6143-13.1865h5.127l-8.6543,22.6816H523.0791z"/>
	<path fill="#4B5666" d="M554.5791,994.7217l-0.9639-3.1582h-0.1641c-1.0938,1.3809-2.1943,2.3213-3.3018,2.8203
		c-1.1074,0.498-2.5293,0.748-4.2656,0.748c-2.2285,0-3.9688-0.6016-5.2188-1.8047c-1.252-1.2031-1.877-2.9053-1.877-5.1064
		c0-2.3379,0.8682-4.1016,2.6045-5.291s4.3818-1.8389,7.9365-1.9482l3.917-0.123v-1.21c0-1.4492-0.3389-2.5322-1.0146-3.251
		c-0.6777-0.7168-1.7266-1.0762-3.1484-1.0762c-1.1621,0-2.2764,0.1709-3.3428,0.5127s-2.0918,0.7451-3.0762,1.21l-1.5586-3.4453
		c1.2305-0.6426,2.5771-1.1309,4.04-1.4668c1.4629-0.334,2.8438-0.502,4.1426-0.502c2.8848,0,5.0615,0.6289,6.5312,1.8867
		s2.2051,3.2334,2.2051,5.9268v15.2783H554.5791z M547.4014,991.4404c1.75,0,3.1543-0.4883,4.2148-1.4668
		c1.0586-0.9766,1.5889-2.3477,1.5889-4.1113v-1.9688l-2.9121,0.123c-2.2695,0.082-3.9209,0.4609-4.9521,1.1387
		c-1.0332,0.6758-1.5488,1.7119-1.5488,3.1064c0,1.0117,0.3008,1.7939,0.9023,2.3486
		C545.2959,991.1631,546.1982,991.4404,547.4014,991.4404z"/>
	<path fill="#4B5666" d="M569.5703,994.7217h-4.8193v-31.9102h4.8193V994.7217z"/>
	<path fill="#4B5666" d="M581.2793,994.7217H576.46v-31.9102h4.8193V994.7217z"/>
	<path fill="#4B5666" d="M587.8838,966.0312c0-0.8613,0.2363-1.5244,0.707-1.9893c0.4727-0.4648,1.1455-0.6973,2.0205-0.6973
		c0.8477,0,1.5068,0.2324,1.9795,0.6973c0.4707,0.4648,0.707,1.1279,0.707,1.9893c0,0.8203-0.2363,1.4658-0.707,1.9385
		c-0.4727,0.4707-1.1318,0.707-1.9795,0.707c-0.875,0-1.5479-0.2363-2.0205-0.707
		C588.1201,967.4971,587.8838,966.8516,587.8838,966.0312z M592.9902,994.7217h-4.8193V972.04h4.8193V994.7217z"/>
	<path fill="#4B5666" d="M615.1172,988.2617c0,2.2148-0.8066,3.9141-2.4199,5.0967s-3.9238,1.7734-6.9316,1.7734
		c-3.0215,0-5.4482-0.458-7.2803-1.374v-4.1631c2.666,1.2305,5.1475,1.8457,7.4443,1.8457c2.9668,0,4.4502-0.8955,4.4502-2.6865
		c0-0.5742-0.1641-1.0527-0.4922-1.4355s-0.8682-0.7793-1.6201-1.1895s-1.7979-0.875-3.1377-1.3945
		c-2.6113-1.0117-4.3789-2.0234-5.3008-3.0352c-0.9238-1.0117-1.3848-2.3242-1.3848-3.9375c0-1.9414,0.7822-3.4482,2.3477-4.5225
		c1.5654-1.0723,3.6953-1.6094,6.3887-1.6094c2.666,0,5.1885,0.54,7.5674,1.6201l-1.5586,3.6299
		c-2.4473-1.0117-4.5049-1.5176-6.1729-1.5176c-2.543,0-3.8145,0.7246-3.8145,2.1738c0,0.7109,0.3311,1.3125,0.9941,1.8047
		s2.1094,1.1689,4.3379,2.0303c1.873,0.7246,3.2334,1.3877,4.0811,1.9893s1.4766,1.2959,1.8867,2.082
		S615.1172,987.168,615.1172,988.2617z"/>
	<path fill="#4B5666" d="M636.3232,994.7217l-0.6768-2.9736h-0.2461c-0.6699,1.0527-1.624,1.8799-2.8604,2.4814
		c-1.2383,0.6016-2.6494,0.9023-4.2354,0.9023c-2.748,0-4.7988-0.6836-6.1523-2.0508s-2.0303-3.4385-2.0303-6.2139V972.04h4.8604
		v13.9863c0,1.7363,0.3555,3.0391,1.0664,3.9062c0.7109,0.8691,1.8252,1.3027,3.3428,1.3027c2.0234,0,3.5098-0.6055,4.4609-1.8145
		c0.9492-1.2109,1.4248-3.2373,1.4248-6.0811V972.04h4.8398v22.6816H636.3232z"/>
	<path fill="#4B5666" d="M662.9834,994.7217l-0.6768-2.9736h-0.2461c-0.6699,1.0527-1.624,1.8799-2.8604,2.4814
		c-1.2383,0.6016-2.6494,0.9023-4.2354,0.9023c-2.748,0-4.7988-0.6836-6.1523-2.0508s-2.0303-3.4385-2.0303-6.2139V972.04h4.8604
		v13.9863c0,1.7363,0.3555,3.0391,1.0664,3.9062c0.7109,0.8691,1.8252,1.3027,3.3428,1.3027c2.0234,0,3.5098-0.6055,4.4609-1.8145
		c0.9492-1.2109,1.4248-3.2373,1.4248-6.0811V972.04h4.8398v22.6816H662.9834z"/>
	<path fill="#4B5666" d="M681.2969,995.1318c-2.8301,0-5.0381-1.0254-6.624-3.0762s-2.3789-4.9287-2.3789-8.6338
		c0-3.7188,0.8027-6.6143,2.4102-8.6846c1.6055-2.0723,3.8311-3.1074,6.6748-3.1074c2.9805,0,5.25,1.1006,6.8086,3.3018h0.2461
		c-0.2324-1.627-0.3486-2.9121-0.3486-3.8555v-8.2646h4.8398v31.9102h-3.7734l-0.8408-2.9736h-0.2256
		C686.54,994.0039,684.2773,995.1318,681.2969,995.1318z M682.5889,991.2354c1.9824,0,3.4248-0.5566,4.3271-1.6719
		c0.9023-1.1133,1.3672-2.9219,1.3945-5.4238v-0.6768c0-2.8574-0.4648-4.8877-1.3945-6.0908s-2.3857-1.8047-4.3682-1.8047
		c-1.6953,0-3.001,0.6875-3.917,2.0605c-0.916,1.375-1.374,3.333-1.374,5.876c0,2.5156,0.4443,4.4336,1.333,5.7529
		S680.8115,991.2354,682.5889,991.2354z"/>
	<path fill="#4B5666" d="M709.7207,995.1318c-3.5273,0-6.2861-1.0283-8.2744-3.0859c-1.9902-2.0576-2.9844-4.8916-2.9844-8.501
		c0-3.7051,0.9229-6.6172,2.7686-8.7363s4.3818-3.1787,7.6084-3.1787c2.9941,0,5.3594,0.9092,7.0957,2.7275
		s2.6045,4.3203,2.6045,7.5059v2.6045h-15.1143c0.0684,2.2012,0.6631,3.8936,1.7842,5.0762s2.7002,1.7734,4.7373,1.7734
		c1.3398,0,2.5869-0.126,3.7422-0.3789s2.3965-0.6738,3.7227-1.2617v3.917c-1.1758,0.5605-2.3652,0.957-3.5684,1.1895
		S711.2656,995.1318,709.7207,995.1318z M708.8389,975.2803c-1.5312,0-2.7578,0.4854-3.6816,1.4561
		c-0.9219,0.9707-1.4727,2.3857-1.6504,4.2451h10.2949c-0.0273-1.873-0.4785-3.291-1.3535-4.2559
		C711.5732,975.7627,710.3701,975.2803,708.8389,975.2803z"/>
	<path fill="#4B5666" d="M739.252,988.2617c0,2.2148-0.8066,3.9141-2.4199,5.0967s-3.9238,1.7734-6.9316,1.7734
		c-3.0215,0-5.4482-0.458-7.2803-1.374v-4.1631c2.666,1.2305,5.1475,1.8457,7.4443,1.8457c2.9668,0,4.4502-0.8955,4.4502-2.6865
		c0-0.5742-0.1641-1.0527-0.4922-1.4355s-0.8682-0.7793-1.6201-1.1895s-1.7979-0.875-3.1377-1.3945
		c-2.6113-1.0117-4.3789-2.0234-5.3008-3.0352c-0.9238-1.0117-1.3848-2.3242-1.3848-3.9375c0-1.9414,0.7822-3.4482,2.3477-4.5225
		c1.5654-1.0723,3.6953-1.6094,6.3887-1.6094c2.666,0,5.1885,0.54,7.5674,1.6201l-1.5586,3.6299
		c-2.4473-1.0117-4.5049-1.5176-6.1729-1.5176c-2.543,0-3.8145,0.7246-3.8145,2.1738c0,0.7109,0.3311,1.3125,0.9941,1.8047
		s2.1094,1.1689,4.3379,2.0303c1.873,0.7246,3.2334,1.3877,4.0811,1.9893s1.4766,1.2959,1.8867,2.082
		S739.252,987.168,739.252,988.2617z"/>
	<path fill="#4B5666" d="M752.9092,991.2354c1.1758,0,2.3516-0.1846,3.5273-0.5537v3.6299
		c-0.5332,0.2324-1.2207,0.4268-2.0605,0.584c-0.8418,0.1572-1.7129,0.2363-2.6152,0.2363c-4.5664,0-6.8496-2.4062-6.8496-7.2188
		v-12.2227h-3.0967v-2.1328l3.3223-1.7637l1.6406-4.7988h2.9736v5.0449h6.46v3.6504h-6.46v12.1406
		c0,1.1621,0.29,2.0195,0.8711,2.5742C751.2031,990.958,751.9658,991.2354,752.9092,991.2354z"/>
	<path fill="#4B5666" d="M775.1611,994.7217l-0.9639-3.1582h-0.1641c-1.0938,1.3809-2.1943,2.3213-3.3018,2.8203
		c-1.1074,0.498-2.5293,0.748-4.2656,0.748c-2.2285,0-3.9688-0.6016-5.2188-1.8047c-1.252-1.2031-1.877-2.9053-1.877-5.1064
		c0-2.3379,0.8682-4.1016,2.6045-5.291s4.3818-1.8389,7.9365-1.9482l3.917-0.123v-1.21c0-1.4492-0.3389-2.5322-1.0146-3.251
		c-0.6777-0.7168-1.7266-1.0762-3.1484-1.0762c-1.1621,0-2.2764,0.1709-3.3428,0.5127s-2.0918,0.7451-3.0762,1.21l-1.5586-3.4453
		c1.2305-0.6426,2.5771-1.1309,4.04-1.4668c1.4629-0.334,2.8438-0.502,4.1426-0.502c2.8848,0,5.0615,0.6289,6.5312,1.8867
		s2.2051,3.2334,2.2051,5.9268v15.2783H775.1611z M767.9834,991.4404c1.75,0,3.1543-0.4883,4.2148-1.4668
		c1.0586-0.9766,1.5889-2.3477,1.5889-4.1113v-1.9688l-2.9121,0.123c-2.2695,0.082-3.9209,0.4609-4.9521,1.1387
		c-1.0332,0.6758-1.5488,1.7119-1.5488,3.1064c0,1.0117,0.3008,1.7939,0.9023,2.3486
		C765.8779,991.1631,766.7803,991.4404,767.9834,991.4404z"/>
	<path fill="#4B5666" d="M473.2139,1045.1221h-4.8193v-31.9102h4.8193V1045.1221z"/>
	<path fill="#4B5666" d="M494.2959,1045.1221l-0.9639-3.1582h-0.1641c-1.0938,1.3809-2.1943,2.3213-3.3018,2.8203
		c-1.1074,0.498-2.5293,0.748-4.2656,0.748c-2.2285,0-3.9688-0.6016-5.2188-1.8047c-1.252-1.2031-1.877-2.9053-1.877-5.1064
		c0-2.3379,0.8682-4.1016,2.6045-5.291s4.3818-1.8389,7.9365-1.9482l3.917-0.123v-1.21c0-1.4492-0.3389-2.5322-1.0146-3.251
		c-0.6777-0.7168-1.7266-1.0762-3.1484-1.0762c-1.1621,0-2.2764,0.1709-3.3428,0.5127s-2.0918,0.7451-3.0762,1.21l-1.5586-3.4453
		c1.2305-0.6426,2.5771-1.1309,4.04-1.4668c1.4629-0.334,2.8438-0.502,4.1426-0.502c2.8848,0,5.0615,0.6289,6.5312,1.8867
		s2.2051,3.2334,2.2051,5.9268v15.2783H494.2959z M482.4424,1016.4316c0-0.8477,0.2285-1.459,0.6875-1.835
		c0.457-0.376,1.0146-0.5645,1.6709-0.5645c0.7246,0,1.3018,0.2119,1.7334,0.6357c0.4297,0.4238,0.6455,1.0117,0.6455,1.7637
		c0,0.7246-0.2188,1.3057-0.6562,1.7432s-1.0117,0.6562-1.7227,0.6562c-0.6562,0-1.2139-0.1982-1.6709-0.5947
		C482.6709,1017.8398,482.4424,1017.2383,482.4424,1016.4316z M487.1182,1041.8408c1.75,0,3.1543-0.4883,4.2148-1.4668
		c1.0586-0.9766,1.5889-2.3477,1.5889-4.1113v-1.9688l-2.9121,0.123c-2.2695,0.082-3.9209,0.4609-4.9521,1.1387
		c-1.0332,0.6758-1.5488,1.7119-1.5488,3.1064c0,1.0117,0.3008,1.7939,0.9023,2.3486
		C485.0127,1041.5635,485.915,1041.8408,487.1182,1041.8408z M490.502,1016.4316c0-0.8477,0.2285-1.459,0.6865-1.835
		s1.0156-0.5645,1.6719-0.5645c0.7246,0,1.3057,0.2119,1.7432,0.6357s0.6562,1.0117,0.6562,1.7637
		c0,0.7383-0.2256,1.3232-0.6768,1.7529c-0.4512,0.4316-1.0254,0.6465-1.7227,0.6465c-0.6562,0-1.2139-0.1982-1.6719-0.5947
		S490.502,1017.2383,490.502,1016.4316z"/>
	<path fill="#4B5666" d="M524.4219,1045.1221h-4.8398v-13.9453c0-1.75-0.3525-3.0557-1.0557-3.917
		c-0.7051-0.8613-1.8223-1.292-3.3535-1.292c-2.0234,0-3.5107,0.6055-4.4609,1.8145c-0.9502,1.2109-1.4248,3.2373-1.4248,6.0811
		v11.2588h-4.8193v-31.9102h4.8193v8.1006c0,1.2988-0.082,2.6865-0.2461,4.1631h0.3076c0.6562-1.0938,1.5684-1.9414,2.7383-2.543
		c1.168-0.6016,2.5322-0.9023,4.0908-0.9023c5.4961,0,8.2441,2.7686,8.2441,8.3057V1045.1221z"/>
	<path fill="#4B5666" d="M539.5771,1041.6357c1.1758,0,2.3516-0.1846,3.5273-0.5537v3.6299
		c-0.5332,0.2324-1.2207,0.4268-2.0605,0.584c-0.8418,0.1572-1.7129,0.2363-2.6152,0.2363c-4.5664,0-6.8496-2.4062-6.8496-7.2188
		v-12.2227h-3.0967v-2.1328l3.3223-1.7637l1.6406-4.7988h2.9736v5.0449h6.46v3.6504h-6.46v12.1406
		c0,1.1621,0.29,2.0195,0.8711,2.5742C537.8711,1041.3584,538.6338,1041.6357,539.5771,1041.6357z"/>
	<path fill="#4B5666" d="M567.7549,1033.7402c0,3.7051-0.9502,6.5967-2.8506,8.6748s-4.5459,3.1172-7.9365,3.1172
		c-2.1191,0-3.9922-0.4785-5.6191-1.4355s-2.8779-2.3311-3.7529-4.1221s-1.3125-3.8691-1.3125-6.2344
		c0-3.6777,0.9434-6.5488,2.8301-8.6133s4.5459-3.0967,7.9775-3.0967c3.2812,0,5.8789,1.0566,7.793,3.168
		C566.7979,1027.3115,567.7549,1030.1582,567.7549,1033.7402z M550.5693,1016.4316c0-0.8477,0.2285-1.459,0.6865-1.835
		s1.0156-0.5645,1.6719-0.5645c0.7246,0,1.3027,0.2119,1.7324,0.6357c0.4316,0.4238,0.6465,1.0117,0.6465,1.7637
		c0,0.7246-0.2188,1.3057-0.6562,1.7432s-1.0117,0.6562-1.7227,0.6562c-0.6562,0-1.2139-0.1982-1.6719-0.5947
		S550.5693,1017.2383,550.5693,1016.4316z M551.2461,1033.7402c0,5.2363,1.9346,7.8545,5.8037,7.8545
		c3.8281,0,5.7422-2.6182,5.7422-7.8545c0-5.1816-1.9277-7.7725-5.7832-7.7725c-2.0234,0-3.4902,0.6699-4.3994,2.0098
		S551.2461,1031.2383,551.2461,1033.7402z M558.6289,1016.4316c0-0.8477,0.2285-1.459,0.6875-1.835
		c0.457-0.376,1.0146-0.5645,1.6709-0.5645c0.7246,0,1.3057,0.2119,1.7432,0.6357s0.6562,1.0117,0.6562,1.7637
		c0,0.7383-0.2256,1.3232-0.6768,1.7529c-0.4512,0.4316-1.0254,0.6465-1.7227,0.6465c-0.6562,0-1.2139-0.1982-1.6709-0.5947
		C558.8574,1017.8398,558.6289,1017.2383,558.6289,1016.4316z"/>
	<path fill="#4B5666" d="M577.9473,1033.1455l2.7275-3.4043l6.8496-7.3008h5.5576l-9.126,9.7412l9.7002,12.9404h-5.6602
		l-7.2803-9.9463l-2.6455,2.1738v7.7725h-4.7783v-31.9102h4.7783v15.5654l-0.2461,4.3682H577.9473z"/>
	<path fill="#4B5666" d="M617.4248,1033.7402c0,3.7051-0.9502,6.5967-2.8506,8.6748s-4.5459,3.1172-7.9365,3.1172
		c-2.1191,0-3.9922-0.4785-5.6191-1.4355s-2.8779-2.3311-3.7529-4.1221s-1.3125-3.8691-1.3125-6.2344
		c0-3.6777,0.9434-6.5488,2.8301-8.6133s4.5459-3.0967,7.9775-3.0967c3.2812,0,5.8789,1.0566,7.793,3.168
		C616.4678,1027.3115,617.4248,1030.1582,617.4248,1033.7402z M600.916,1033.7402c0,5.2363,1.9346,7.8545,5.8037,7.8545
		c3.8281,0,5.7422-2.6182,5.7422-7.8545c0-5.1816-1.9277-7.7725-5.7832-7.7725c-2.0234,0-3.4902,0.6699-4.3994,2.0098
		S600.916,1031.2383,600.916,1033.7402z"/>
	<path fill="#4B5666" d="M642.916,1045.1221h-4.8398v-13.9453c0-1.75-0.3525-3.0557-1.0557-3.917
		c-0.7051-0.8613-1.8223-1.292-3.3535-1.292c-2.0234,0-3.5107,0.6055-4.4609,1.8145c-0.9502,1.2109-1.4248,3.2373-1.4248,6.0811
		v11.2588h-4.8193v-31.9102h4.8193v8.1006c0,1.2988-0.082,2.6865-0.2461,4.1631h0.3076c0.6562-1.0938,1.5684-1.9414,2.7383-2.543
		c1.168-0.6016,2.5322-0.9023,4.0908-0.9023c5.4961,0,8.2441,2.7686,8.2441,8.3057V1045.1221z"/>
	<path fill="#4B5666" d="M658.0713,1041.6357c1.1758,0,2.3516-0.1846,3.5273-0.5537v3.6299
		c-0.5332,0.2324-1.2207,0.4268-2.0605,0.584c-0.8418,0.1572-1.7129,0.2363-2.6152,0.2363c-4.5664,0-6.8496-2.4062-6.8496-7.2188
		v-12.2227h-3.0967v-2.1328l3.3223-1.7637l1.6406-4.7988h2.9736v5.0449h6.46v3.6504h-6.46v12.1406
		c0,1.1621,0.29,2.0195,0.8711,2.5742C656.3652,1041.3584,657.1279,1041.6357,658.0713,1041.6357z"/>
	<path fill="#4B5666" d="M680.3223,1045.1221l-0.9639-3.1582h-0.1641c-1.0938,1.3809-2.1943,2.3213-3.3018,2.8203
		c-1.1074,0.498-2.5293,0.748-4.2656,0.748c-2.2285,0-3.9688-0.6016-5.2188-1.8047c-1.252-1.2031-1.877-2.9053-1.877-5.1064
		c0-2.3379,0.8682-4.1016,2.6045-5.291s4.3818-1.8389,7.9365-1.9482l3.917-0.123v-1.21c0-1.4492-0.3389-2.5322-1.0146-3.251
		c-0.6777-0.7168-1.7266-1.0762-3.1484-1.0762c-1.1621,0-2.2764,0.1709-3.3428,0.5127s-2.0918,0.7451-3.0762,1.21l-1.5586-3.4453
		c1.2305-0.6426,2.5771-1.1309,4.04-1.4668c1.4629-0.334,2.8438-0.502,4.1426-0.502c2.8848,0,5.0615,0.6289,6.5312,1.8867
		s2.2051,3.2334,2.2051,5.9268v15.2783H680.3223z M673.1445,1041.8408c1.75,0,3.1543-0.4883,4.2148-1.4668
		c1.0586-0.9766,1.5889-2.3477,1.5889-4.1113v-1.9688l-2.9121,0.123c-2.2695,0.082-3.9209,0.4609-4.9521,1.1387
		c-1.0332,0.6758-1.5488,1.7119-1.5488,3.1064c0,1.0117,0.3008,1.7939,0.9023,2.3486
		C671.0391,1041.5635,671.9414,1041.8408,673.1445,1041.8408z"/>
</g>
<g>
	<path fill="#4B5666" d="M821.9971,609.3359h-4.9023v-25.7783h-8.8184v-4.2041h22.5391v4.2041h-8.8184V609.3359z"/>
	<path fill="#4B5666" d="M855.0146,597.9541c0,3.7051-0.9512,6.5967-2.8516,8.6748s-4.5449,3.1172-7.9355,3.1172
		c-2.1191,0-3.9922-0.4785-5.6191-1.4355s-2.8789-2.3311-3.7539-4.1221s-1.3125-3.8691-1.3125-6.2344
		c0-3.6777,0.9434-6.5488,2.8301-8.6133s4.5469-3.0967,7.9785-3.0967c3.2812,0,5.8789,1.0566,7.793,3.168
		C854.0576,591.5254,855.0146,594.3721,855.0146,597.9541z M838.5049,597.9541c0,5.2363,1.9355,7.8545,5.8047,7.8545
		c3.8281,0,5.7422-2.6182,5.7422-7.8545c0-5.1816-1.9277-7.7725-5.7832-7.7725c-2.0234,0-3.4902,0.6699-4.4004,2.0098
		C838.96,593.5312,838.5049,595.4521,838.5049,597.9541z"/>
	<path fill="#4B5666" d="M860.2646,580.6455c0-0.8613,0.2363-1.5244,0.707-1.9893c0.4727-0.4648,1.1445-0.6973,2.0195-0.6973
		c0.8477,0,1.5078,0.2324,1.9805,0.6973c0.4707,0.4648,0.707,1.1279,0.707,1.9893c0,0.8203-0.2363,1.4658-0.707,1.9385
		c-0.4727,0.4707-1.1328,0.707-1.9805,0.707c-0.875,0-1.5469-0.2363-2.0195-0.707
		C860.501,582.1113,860.2646,581.4658,860.2646,580.6455z M865.3701,609.3359h-4.8184v-22.6816h4.8184V609.3359z"/>
	<path fill="#4B5666" d="M891.374,609.3359h-4.8398v-13.9863c0-1.7363-0.3281-3.0312-0.9844-3.8867
		c-0.6562-0.8535-1.6816-1.2812-3.0762-1.2812c-1.8594,0-3.2227,0.6055-4.0918,1.8145c-0.8672,1.2109-1.3008,3.2236-1.3008,6.04
		v11.2998h-4.8203v-22.6816h3.7734l0.6777,2.9736h0.2461c0.6289-1.0801,1.541-1.9141,2.7363-2.502
		c1.1973-0.5879,2.5137-0.8818,3.9492-0.8818c3.4863,0,5.7969,1.1895,6.9316,3.5684h0.3281
		c0.6699-1.1211,1.6133-1.9961,2.8301-2.625s2.6113-0.9434,4.1836-0.9434c2.707,0,4.6777,0.6836,5.916,2.0508
		c1.2363,1.3672,1.8555,3.4521,1.8555,6.2549v14.7861h-4.8184v-13.9863c0-1.7363-0.332-3.0312-0.9961-3.8867
		c-0.6621-0.8535-1.6914-1.2812-3.0859-1.2812c-1.873,0-3.2441,0.584-4.1113,1.7539c-0.8691,1.168-1.3027,2.9629-1.3027,5.3828
		V609.3359z"/>
	<path fill="#4B5666" d="M912.1279,580.6455c0-0.8613,0.2363-1.5244,0.707-1.9893c0.4727-0.4648,1.1465-0.6973,2.0215-0.6973
		c0.8477,0,1.5059,0.2324,1.9785,0.6973c0.4707,0.4648,0.707,1.1279,0.707,1.9893c0,0.8203-0.2363,1.4658-0.707,1.9385
		c-0.4727,0.4707-1.1309,0.707-1.9785,0.707c-0.875,0-1.5488-0.2363-2.0215-0.707
		C912.3643,582.1113,912.1279,581.4658,912.1279,580.6455z M917.2354,609.3359h-4.8203v-22.6816h4.8203V609.3359z"/>
	<path fill="#4B5666" d="M932.5752,605.8496c1.1758,0,2.3516-0.1846,3.5273-0.5537v3.6299
		c-0.5332,0.2324-1.2207,0.4268-2.0605,0.584c-0.8418,0.1572-1.7129,0.2363-2.6152,0.2363c-4.5664,0-6.8496-2.4062-6.8496-7.2188
		v-12.2227h-3.0977v-2.1328l3.3223-1.7637l1.6406-4.7988h2.9746v5.0449h6.459v3.6504h-6.459v12.1406
		c0,1.1621,0.2891,2.0195,0.8711,2.5742C930.8682,605.5723,931.6318,605.8496,932.5752,605.8496z"/>
	<path fill="#4B5666" d="M954.8252,609.3359l-0.9629-3.1582h-0.1641c-1.0938,1.3809-2.1953,2.3213-3.3027,2.8203
		c-1.1074,0.498-2.5293,0.748-4.2656,0.748c-2.2285,0-3.9688-0.6016-5.2188-1.8047c-1.252-1.2031-1.877-2.9053-1.877-5.1064
		c0-2.3379,0.8691-4.1016,2.6055-5.291s4.3809-1.8389,7.9355-1.9482l3.918-0.123v-1.21c0-1.4492-0.3398-2.5322-1.0156-3.251
		c-0.6777-0.7168-1.7266-1.0762-3.1484-1.0762c-1.1621,0-2.2754,0.1709-3.3418,0.5127s-2.0918,0.7451-3.0762,1.21l-1.5586-3.4453
		c1.2305-0.6426,2.5762-1.1309,4.0391-1.4668c1.4629-0.334,2.8438-0.502,4.1426-0.502c2.8848,0,5.0625,0.6289,6.5312,1.8867
		c1.4707,1.2578,2.2051,3.2334,2.2051,5.9268v15.2783H954.8252z M947.6475,606.0547c1.75,0,3.1543-0.4883,4.2148-1.4668
		c1.0586-0.9766,1.5898-2.3477,1.5898-4.1113v-1.9688l-2.9121,0.123c-2.2695,0.082-3.9219,0.4609-4.9531,1.1387
		c-1.0332,0.6758-1.5488,1.7119-1.5488,3.1064c0,1.0117,0.3008,1.7939,0.9023,2.3486
		C945.542,605.7773,946.4443,606.0547,947.6475,606.0547z"/>
	<path fill="#4B5666" d="M990.0986,609.3359l-0.9629-3.1582h-0.1641c-1.0938,1.3809-2.1953,2.3213-3.3027,2.8203
		c-1.1074,0.498-2.5293,0.748-4.2656,0.748c-2.2285,0-3.9688-0.6016-5.2188-1.8047c-1.252-1.2031-1.877-2.9053-1.877-5.1064
		c0-2.3379,0.8691-4.1016,2.6055-5.291s4.3809-1.8389,7.9355-1.9482l3.918-0.123v-1.21c0-1.4492-0.3398-2.5322-1.0156-3.251
		c-0.6777-0.7168-1.7266-1.0762-3.1484-1.0762c-1.1621,0-2.2754,0.1709-3.3418,0.5127s-2.0918,0.7451-3.0762,1.21l-1.5586-3.4453
		c1.2305-0.6426,2.5762-1.1309,4.0391-1.4668c1.4629-0.334,2.8438-0.502,4.1426-0.502c2.8848,0,5.0625,0.6289,6.5312,1.8867
		c1.4707,1.2578,2.2051,3.2334,2.2051,5.9268v15.2783H990.0986z M982.9209,606.0547c1.75,0,3.1543-0.4883,4.2148-1.4668
		c1.0586-0.9766,1.5898-2.3477,1.5898-4.1113v-1.9688l-2.9121,0.123c-2.2695,0.082-3.9219,0.4609-4.9531,1.1387
		c-1.0332,0.6758-1.5488,1.7119-1.5488,3.1064c0,1.0117,0.3008,1.7939,0.9023,2.3486
		C980.8154,605.7773,981.7178,606.0547,982.9209,606.0547z"/>
	<path fill="#4B5666" d="M1011.7764,586.2441c0.9707,0,1.7695,0.0684,2.3984,0.2051l-0.4707,4.4912
		c-0.6836-0.1641-1.3945-0.2461-2.1328-0.2461c-1.9277,0-3.4902,0.6289-4.6875,1.8867c-1.1953,1.2578-1.793,2.8916-1.793,4.9014
		v11.8535h-4.8203v-22.6816h3.7734l0.6367,3.999h0.2461c0.752-1.3535,1.7324-2.4268,2.9414-3.2197
		C1009.0791,586.6406,1010.3818,586.2441,1011.7764,586.2441z"/>
	<path fill="#4B5666" d="M1023.5479,609.3359l-8.6133-22.6816h5.0859l4.6133,13.1865c0.793,2.2148,1.2715,4.0059,1.4355,5.373
		h0.1641c0.123-0.9844,0.6016-2.7754,1.4355-5.373l4.6152-13.1865h5.127l-8.6543,22.6816H1023.5479z"/>
	<path fill="#4B5666" d="M1060.9736,597.9541c0,3.7051-0.9492,6.5967-2.8496,8.6748s-4.5469,3.1172-7.9375,3.1172
		c-2.1191,0-3.9922-0.4785-5.6191-1.4355s-2.877-2.3311-3.752-4.1221s-1.3125-3.8691-1.3125-6.2344
		c0-3.6777,0.9434-6.5488,2.8301-8.6133s4.5449-3.0967,7.9766-3.0967c3.2812,0,5.8789,1.0566,7.793,3.168
		C1060.0166,591.5254,1060.9736,594.3721,1060.9736,597.9541z M1044.4658,597.9541c0,5.2363,1.9336,7.8545,5.8027,7.8545
		c3.8281,0,5.7422-2.6182,5.7422-7.8545c0-5.1816-1.9277-7.7725-5.7832-7.7725c-2.0234,0-3.4902,0.6699-4.3984,2.0098
		C1044.9189,593.5312,1044.4658,595.4521,1044.4658,597.9541z"/>
	<path fill="#4B5666" d="M1080.7021,609.3359l-0.9629-3.1582h-0.1641c-1.0938,1.3809-2.1953,2.3213-3.3027,2.8203
		c-1.1074,0.498-2.5293,0.748-4.2656,0.748c-2.2285,0-3.9688-0.6016-5.2188-1.8047c-1.252-1.2031-1.877-2.9053-1.877-5.1064
		c0-2.3379,0.8691-4.1016,2.6055-5.291s4.3809-1.8389,7.9355-1.9482l3.918-0.123v-1.21c0-1.4492-0.3398-2.5322-1.0156-3.251
		c-0.6777-0.7168-1.7266-1.0762-3.1484-1.0762c-1.1621,0-2.2754,0.1709-3.3418,0.5127s-2.0918,0.7451-3.0762,1.21l-1.5586-3.4453
		c1.2305-0.6426,2.5762-1.1309,4.0391-1.4668c1.4629-0.334,2.8438-0.502,4.1426-0.502c2.8848,0,5.0625,0.6289,6.5312,1.8867
		c1.4707,1.2578,2.2051,3.2334,2.2051,5.9268v15.2783H1080.7021z M1073.5244,606.0547c1.75,0,3.1543-0.4883,4.2148-1.4668
		c1.0586-0.9766,1.5898-2.3477,1.5898-4.1113v-1.9688l-2.9121,0.123c-2.2695,0.082-3.9219,0.4609-4.9531,1.1387
		c-1.0332,0.6758-1.5488,1.7119-1.5488,3.1064c0,1.0117,0.3008,1.7939,0.9023,2.3486
		C1071.4189,605.7773,1072.3213,606.0547,1073.5244,606.0547z"/>
	<path fill="#4B5666" d="M849.3018,669.8262c-1.4492,0-2.6523-0.1709-3.6094-0.5127v-3.8145
		c0.9297,0.2461,1.8809,0.3691,2.8516,0.3691c2.0508,0,3.0762-1.1621,3.0762-3.4863v-25.3271h4.8184V662.71
		c0,2.3379-0.6113,4.1084-1.834,5.3115C853.3799,669.2246,851.6123,669.8262,849.3018,669.8262z M851.333,631.0459
		c0-0.8613,0.2363-1.5244,0.707-1.9893c0.4727-0.4648,1.1445-0.6973,2.0195-0.6973c0.8477,0,1.5078,0.2324,1.9805,0.6973
		c0.4707,0.4648,0.707,1.1279,0.707,1.9893c0,0.8203-0.2363,1.4658-0.707,1.9385c-0.4727,0.4707-1.1328,0.707-1.9805,0.707
		c-0.875,0-1.5469-0.2363-2.0195-0.707C851.5693,632.5117,851.333,631.8662,851.333,631.0459z"/>
	<path fill="#4B5666" d="M877.5205,659.7363l-0.9629-3.1582h-0.1641c-1.0938,1.3809-2.1953,2.3213-3.3027,2.8203
		c-1.1074,0.498-2.5293,0.748-4.2656,0.748c-2.2285,0-3.9688-0.6016-5.2188-1.8047c-1.252-1.2031-1.877-2.9053-1.877-5.1064
		c0-2.3379,0.8691-4.1016,2.6055-5.291s4.3809-1.8389,7.9355-1.9482l3.918-0.123v-1.21c0-1.4492-0.3398-2.5322-1.0156-3.251
		c-0.6777-0.7168-1.7266-1.0762-3.1484-1.0762c-1.1621,0-2.2754,0.1709-3.3418,0.5127s-2.0918,0.7451-3.0762,1.21l-1.5586-3.4453
		c1.2305-0.6426,2.5762-1.1309,4.0391-1.4668c1.4629-0.334,2.8438-0.502,4.1426-0.502c2.8848,0,5.0625,0.6289,6.5312,1.8867
		c1.4707,1.2578,2.2051,3.2334,2.2051,5.9268v15.2783H877.5205z M870.3428,656.4551c1.75,0,3.1543-0.4883,4.2148-1.4668
		c1.0586-0.9766,1.5898-2.3477,1.5898-4.1113v-1.9688l-2.9121,0.123c-2.2695,0.082-3.9219,0.4609-4.9531,1.1387
		c-1.0332,0.6758-1.5488,1.7119-1.5488,3.1064c0,1.0117,0.3008,1.7939,0.9023,2.3486
		C868.2373,656.1777,869.1396,656.4551,870.3428,656.4551z"/>
	<path fill="#4B5666" d="M896.1416,656.25c1.1758,0,2.3516-0.1846,3.5273-0.5537v3.6299c-0.5332,0.2324-1.2207,0.4268-2.0605,0.584
		c-0.8418,0.1572-1.7129,0.2363-2.6152,0.2363c-4.5664,0-6.8496-2.4062-6.8496-7.2188v-12.2227h-3.0957v-2.1328l3.3223-1.7637
		l1.6406-4.7988h2.9727v5.0449h6.4609v3.6504h-6.4609v12.1406c0,1.1621,0.291,2.0195,0.8711,2.5742
		C894.4365,655.9727,895.1982,656.25,896.1416,656.25z"/>
	<path fill="#4B5666" d="M908.8564,647.7598l2.7285-3.4043l6.8496-7.3008h5.5566l-9.125,9.7412l9.6992,12.9404h-5.6602
		l-7.2793-9.9463l-2.6465,2.1738v7.7725h-4.7773v-31.9102h4.7773v15.5654l-0.2461,4.3682H908.8564z"/>
	<path fill="#4B5666" d="M944.2119,659.7363l-0.6758-2.9736H943.29c-0.6699,1.0527-1.625,1.8799-2.8613,2.4814
		c-1.2383,0.6016-2.6484,0.9023-4.2344,0.9023c-2.748,0-4.7988-0.6836-6.1523-2.0508s-2.0312-3.4385-2.0312-6.2139v-14.8271h4.8613
		v13.9863c0,1.7363,0.3555,3.0391,1.0664,3.9062c0.7109,0.8691,1.8242,1.3027,3.3418,1.3027c2.0234,0,3.5098-0.6055,4.4609-1.8145
		c0.9492-1.2109,1.4258-3.2373,1.4258-6.0811v-11.2998h4.8398v22.6816H944.2119z"/>
	<path fill="#4B5666" d="M960.0439,659.7363l-8.6133-22.6816h5.0859l4.6152,13.1865c0.793,2.2148,1.2715,4.0059,1.4355,5.373h0.1641
		c0.123-0.9844,0.6016-2.7754,1.4355-5.373l4.6133-13.1865h5.127l-8.6543,22.6816H960.0439z"/>
	<path fill="#4B5666" d="M991.5439,659.7363l-0.9629-3.1582h-0.1641c-1.0938,1.3809-2.1953,2.3213-3.3027,2.8203
		c-1.1074,0.498-2.5293,0.748-4.2656,0.748c-2.2285,0-3.9688-0.6016-5.2188-1.8047c-1.252-1.2031-1.877-2.9053-1.877-5.1064
		c0-2.3379,0.8691-4.1016,2.6055-5.291s4.3809-1.8389,7.9355-1.9482l3.918-0.123v-1.21c0-1.4492-0.3398-2.5322-1.0156-3.251
		c-0.6777-0.7168-1.7266-1.0762-3.1484-1.0762c-1.1621,0-2.2754,0.1709-3.3418,0.5127s-2.0918,0.7451-3.0762,1.21l-1.5586-3.4453
		c1.2305-0.6426,2.5762-1.1309,4.0391-1.4668c1.4629-0.334,2.8438-0.502,4.1426-0.502c2.8848,0,5.0625,0.6289,6.5312,1.8867
		c1.4707,1.2578,2.2051,3.2334,2.2051,5.9268v15.2783H991.5439z M984.3662,656.4551c1.75,0,3.1543-0.4883,4.2148-1.4668
		c1.0586-0.9766,1.5898-2.3477,1.5898-4.1113v-1.9688l-2.9121,0.123c-2.2695,0.082-3.9219,0.4609-4.9531,1.1387
		c-1.0332,0.6758-1.5488,1.7119-1.5488,3.1064c0,1.0117,0.3008,1.7939,0.9023,2.3486
		C982.2607,656.1777,983.1631,656.4551,984.3662,656.4551z"/>
	<path fill="#4B5666" d="M1016.9541,653.2764c0,2.2148-0.8066,3.9141-2.4199,5.0967s-3.9238,1.7734-6.9316,1.7734
		c-3.0215,0-5.4492-0.458-7.2812-1.374v-4.1631c2.666,1.2305,5.1484,1.8457,7.4453,1.8457c2.9668,0,4.4492-0.8955,4.4492-2.6865
		c0-0.5742-0.1641-1.0527-0.4922-1.4355s-0.8672-0.7793-1.6191-1.1895s-1.7988-0.875-3.1387-1.3945
		c-2.6113-1.0117-4.3789-2.0234-5.3008-3.0352c-0.9238-1.0117-1.3848-2.3242-1.3848-3.9375c0-1.9414,0.7832-3.4482,2.3477-4.5225
		c1.5664-1.0723,3.6953-1.6094,6.3887-1.6094c2.666,0,5.1895,0.54,7.5684,1.6201l-1.5586,3.6299
		c-2.4473-1.0117-4.5059-1.5176-6.1738-1.5176c-2.543,0-3.8145,0.7246-3.8145,2.1738c0,0.7109,0.332,1.3125,0.9941,1.8047
		c0.6641,0.4922,2.1094,1.1689,4.3379,2.0303c1.873,0.7246,3.2344,1.3877,4.082,1.9893s1.4766,1.2959,1.8867,2.082
		S1016.9541,652.1826,1016.9541,653.2764z"/>
	<path fill="#4B5666" d="M1030.6123,656.25c1.1758,0,2.3516-0.1846,3.5273-0.5537v3.6299c-0.5332,0.2324-1.2207,0.4268-2.0605,0.584
		c-0.8418,0.1572-1.7129,0.2363-2.6152,0.2363c-4.5664,0-6.8496-2.4062-6.8496-7.2188v-12.2227h-3.0977v-2.1328l3.3223-1.7637
		l1.6406-4.7988h2.9746v5.0449h6.459v3.6504h-6.459v12.1406c0,1.1621,0.2891,2.0195,0.8711,2.5742
		C1028.9053,655.9727,1029.6689,656.25,1030.6123,656.25z"/>
	<path fill="#4B5666" d="M1038.3838,631.0459c0-0.8613,0.2363-1.5244,0.707-1.9893c0.4727-0.4648,1.1465-0.6973,2.0215-0.6973
		c0.8477,0,1.5059,0.2324,1.9785,0.6973c0.4707,0.4648,0.707,1.1279,0.707,1.9893c0,0.8203-0.2363,1.4658-0.707,1.9385
		c-0.4727,0.4707-1.1309,0.707-1.9785,0.707c-0.875,0-1.5488-0.2363-2.0215-0.707
		C1038.6201,632.5117,1038.3838,631.8662,1038.3838,631.0459z M1043.4912,659.7363h-4.8203v-22.6816h4.8203V659.7363z"/>
</g>
<g>
	<path fill="#4B5666" d="M133.6313,609.3359h-5.6807l-9.4131-13.5762l-2.8916,2.3584v11.2178h-4.9014v-29.9824h4.9014v14.3145
		c1.3398-1.6406,2.6729-3.2197,3.999-4.7373l8.1006-9.5771h5.5781c-5.2363,6.1523-8.9893,10.5342-11.2588,13.1455L133.6313,609.3359
		z"/>
	<path fill="#4B5666" d="M157.1948,597.9541c0,3.7051-0.9502,6.5967-2.8506,8.6748s-4.5459,3.1172-7.9365,3.1172
		c-2.1191,0-3.9922-0.4785-5.6191-1.4355s-2.8779-2.3311-3.7529-4.1221s-1.3125-3.8691-1.3125-6.2344
		c0-3.6777,0.9434-6.5488,2.8301-8.6133s4.5459-3.0967,7.9775-3.0967c3.2812,0,5.8789,1.0566,7.793,3.168
		C156.2378,591.5254,157.1948,594.3721,157.1948,597.9541z M140.686,597.9541c0,5.2363,1.9346,7.8545,5.8037,7.8545
		c3.8281,0,5.7422-2.6182,5.7422-7.8545c0-5.1816-1.9277-7.7725-5.7832-7.7725c-2.0234,0-3.4897,0.6699-4.3989,2.0098
		S140.686,595.4521,140.686,597.9541z"/>
	<path fill="#4B5666" d="M167.3872,597.3594l2.7275-3.4043l6.8496-7.3008h5.5576l-9.126,9.7412l9.7002,12.9404h-5.6602
		l-7.2803-9.9463l-2.6455,2.1738v7.7725h-4.7783v-31.9102h4.7783v15.5654l-0.2461,4.3682H167.3872z"/>
	<path fill="#4B5666" d="M196.6519,609.7461c-3.5273,0-6.2856-1.0283-8.2749-3.0859s-2.9839-4.8916-2.9839-8.501
		c0-3.7051,0.9229-6.6172,2.7686-8.7363s4.3818-3.1787,7.6084-3.1787c2.9941,0,5.3594,0.9092,7.0957,2.7275
		s2.6045,4.3203,2.6045,7.5059v2.6045H190.356c0.0684,2.2012,0.6631,3.8936,1.7842,5.0762s2.7002,1.7734,4.7373,1.7734
		c1.3398,0,2.5874-0.126,3.7427-0.3789s2.396-0.6738,3.7222-1.2617v3.917c-1.1758,0.5605-2.3652,0.957-3.5684,1.1895
		S198.1968,609.7461,196.6519,609.7461z M195.77,589.8945c-1.5312,0-2.7583,0.4854-3.6812,1.4561s-1.4731,2.3857-1.6509,4.2451
		h10.2949c-0.0273-1.873-0.4785-3.291-1.3535-4.2559C198.5044,590.377,197.3013,589.8945,195.77,589.8945z"/>
	<path fill="#4B5666" d="M210.6587,580.6455c0-0.8613,0.2358-1.5244,0.7075-1.9893s1.145-0.6973,2.02-0.6973
		c0.8477,0,1.5073,0.2324,1.979,0.6973s0.7075,1.1279,0.7075,1.9893c0,0.8203-0.2358,1.4658-0.7075,1.9385
		c-0.4717,0.4707-1.1313,0.707-1.979,0.707c-0.875,0-1.5483-0.2363-2.02-0.707
		C210.8945,582.1113,210.6587,581.4658,210.6587,580.6455z M215.7651,609.3359h-4.8193v-22.6816h4.8193V609.3359z"/>
	<path fill="#4B5666" d="M227.4751,609.3359h-4.8193v-31.9102h4.8193V609.3359z"/>
	<path fill="#4B5666" d="M244.271,609.7461c-3.5273,0-6.2856-1.0283-8.2749-3.0859s-2.9839-4.8916-2.9839-8.501
		c0-3.7051,0.9229-6.6172,2.7686-8.7363s4.3818-3.1787,7.6084-3.1787c2.9941,0,5.3594,0.9092,7.0957,2.7275
		s2.6045,4.3203,2.6045,7.5059v2.6045h-15.1143c0.0684,2.2012,0.6631,3.8936,1.7842,5.0762s2.7002,1.7734,4.7373,1.7734
		c1.3398,0,2.5874-0.126,3.7427-0.3789s2.396-0.6738,3.7222-1.2617v3.917c-1.1758,0.5605-2.3652,0.957-3.5684,1.1895
		S245.8159,609.7461,244.271,609.7461z M243.3892,589.8945c-1.5312,0-2.7583,0.4854-3.6812,1.4561s-1.4731,2.3857-1.6509,4.2451
		h10.2949c-0.0273-1.873-0.4785-3.291-1.3535-4.2559C246.1235,590.377,244.9204,589.8945,243.3892,589.8945z"/>
	<path fill="#4B5666" d="M267.1577,619.4258c-1.4492,0-2.6523-0.1709-3.6094-0.5127v-3.8145
		c0.9297,0.2461,1.8799,0.3691,2.8506,0.3691c2.0508,0,3.0762-1.1621,3.0762-3.4863v-25.3271h4.8193v25.6553
		c0,2.3379-0.6118,4.1084-1.8354,5.3115S269.4683,619.4258,267.1577,619.4258z M269.188,580.6455
		c0-0.8613,0.2358-1.5244,0.7075-1.9893s1.145-0.6973,2.02-0.6973c0.8477,0,1.5073,0.2324,1.979,0.6973s0.7075,1.1279,0.7075,1.9893
		c0,0.8203-0.2358,1.4658-0.7075,1.9385c-0.4717,0.4707-1.1313,0.707-1.979,0.707c-0.875,0-1.5483-0.2363-2.02-0.707
		C269.4238,582.1113,269.188,581.4658,269.188,580.6455z"/>
	<path fill="#4B5666" d="M295.3765,609.3359l-0.9639-3.1582h-0.1641c-1.0938,1.3809-2.1943,2.3213-3.3018,2.8203
		c-1.1074,0.498-2.5293,0.748-4.2656,0.748c-2.2285,0-3.9683-0.6016-5.2192-1.8047s-1.8765-2.9053-1.8765-5.1064
		c0-2.3379,0.8682-4.1016,2.6045-5.291s4.3818-1.8389,7.9365-1.9482l3.917-0.123v-1.21c0-1.4492-0.3384-2.5322-1.0151-3.251
		c-0.6768-0.7168-1.7261-1.0762-3.1479-1.0762c-1.1621,0-2.2764,0.1709-3.3428,0.5127s-2.0918,0.7451-3.0762,1.21l-1.5586-3.4453
		c1.2305-0.6426,2.5771-1.1309,4.04-1.4668c1.4629-0.334,2.8438-0.502,4.1426-0.502c2.8848,0,5.062,0.6289,6.5317,1.8867
		s2.2046,3.2334,2.2046,5.9268v15.2783H295.3765z M288.1987,606.0547c1.75,0,3.1548-0.4883,4.2144-1.4668
		c1.0596-0.9766,1.5894-2.3477,1.5894-4.1113v-1.9688l-2.9121,0.123c-2.2695,0.082-3.9204,0.4609-4.9526,1.1387
		c-1.0322,0.6758-1.5483,1.7119-1.5483,3.1064c0,1.0117,0.3008,1.7939,0.9023,2.3486
		C286.0933,605.7773,286.9956,606.0547,288.1987,606.0547z"/>
	<path fill="#4B5666" d="M102.9312,648.3545c0,3.7051-0.9502,6.5967-2.8506,8.6748s-4.5459,3.1172-7.9365,3.1172
		c-2.1191,0-3.9922-0.4785-5.6191-1.4355s-2.8779-2.3311-3.7529-4.1221s-1.3125-3.8691-1.3125-6.2344
		c0-3.6777,0.9434-6.5488,2.8301-8.6133s4.5459-3.0967,7.9775-3.0967c3.2812,0,5.8789,1.0566,7.793,3.168
		C101.9741,641.9258,102.9312,644.7725,102.9312,648.3545z M86.4224,648.3545c0,5.2363,1.9346,7.8545,5.8037,7.8545
		c3.8281,0,5.7422-2.6182,5.7422-7.8545c0-5.1816-1.9277-7.7725-5.7832-7.7725c-2.0234,0-3.4897,0.6699-4.3989,2.0098
		S86.4224,645.8525,86.4224,648.3545z"/>
	<path fill="#4B5666" d="M119.9731,660.1465c-2.8711,0-5.0996-1.0322-6.6855-3.0967h-0.2871
		c0.1914,1.9141,0.2871,3.0762,0.2871,3.4863v9.29h-4.8193v-32.7715h3.8965c0.1094,0.4238,0.335,1.4355,0.6768,3.0352h0.2461
		c1.5039-2.2969,3.7598-3.4453,6.7676-3.4453c2.8301,0,5.0347,1.0254,6.6138,3.0762s2.3687,4.9287,2.3687,8.6338
		s-0.8032,6.5967-2.4097,8.6748S122.8032,660.1465,119.9731,660.1465z M118.8042,640.582c-1.9141,0-3.312,0.5605-4.1938,1.6816
		s-1.3228,2.9121-1.3228,5.373v0.7178c0,2.7617,0.4375,4.7617,1.3125,5.999s2.3037,1.8555,4.2861,1.8555
		c1.668,0,2.9531-0.6836,3.8555-2.0508s1.3535-3.3154,1.3535-5.8447c0-2.543-0.4478-4.4668-1.3433-5.7725
		S120.5405,640.582,118.8042,640.582z"/>
	<path fill="#4B5666" d="M134.3491,631.0459c0-0.8613,0.2358-1.5244,0.7075-1.9893s1.145-0.6973,2.02-0.6973
		c0.8477,0,1.5073,0.2324,1.979,0.6973s0.7075,1.1279,0.7075,1.9893c0,0.8203-0.2358,1.4658-0.7075,1.9385
		c-0.4717,0.4707-1.1313,0.707-1.979,0.707c-0.875,0-1.5483-0.2363-2.02-0.707
		C134.585,632.5117,134.3491,631.8662,134.3491,631.0459z M139.4556,659.7363h-4.8193v-22.6816h4.8193V659.7363z"/>
	<path fill="#4B5666" d="M177.2104,659.7363h-4.8398V645.791c0-1.75-0.3521-3.0557-1.0562-3.917s-1.8218-1.292-3.353-1.292
		c-2.0371,0-3.5273,0.6016-4.4707,1.8047s-1.415,3.2197-1.415,6.0498v11.2998h-4.8193v-22.6816h3.7734l0.6768,2.9736h0.2461
		c0.6836-1.0801,1.6543-1.9141,2.9121-2.502s2.6523-0.8818,4.1836-0.8818c5.4414,0,8.1621,2.7686,8.1621,8.3057V659.7363z"/>
	<path fill="#4B5666" d="M204.0347,648.3545c0,3.7051-0.9502,6.5967-2.8506,8.6748s-4.5459,3.1172-7.9365,3.1172
		c-2.1191,0-3.9922-0.4785-5.6191-1.4355s-2.8779-2.3311-3.7529-4.1221s-1.3125-3.8691-1.3125-6.2344
		c0-3.6777,0.9434-6.5488,2.8301-8.6133s4.5459-3.0967,7.9775-3.0967c3.2812,0,5.8789,1.0566,7.793,3.168
		C203.0776,641.9258,204.0347,644.7725,204.0347,648.3545z M187.5259,648.3545c0,5.2363,1.9346,7.8545,5.8037,7.8545
		c3.8281,0,5.7422-2.6182,5.7422-7.8545c0-5.1816-1.9277-7.7725-5.7832-7.7725c-2.0234,0-3.4897,0.6699-4.3989,2.0098
		S187.5259,645.8525,187.5259,648.3545z"/>
	<path fill="#4B5666" d="M221.0767,660.1465c-2.8711,0-5.0996-1.0322-6.6855-3.0967h-0.2871
		c0.1914,1.9141,0.2871,3.0762,0.2871,3.4863v9.29h-4.8193v-32.7715h3.8965c0.1094,0.4238,0.335,1.4355,0.6768,3.0352h0.2461
		c1.5039-2.2969,3.7598-3.4453,6.7676-3.4453c2.8301,0,5.0347,1.0254,6.6138,3.0762s2.3687,4.9287,2.3687,8.6338
		s-0.8032,6.5967-2.4097,8.6748S223.9067,660.1465,221.0767,660.1465z M219.9077,640.582c-1.9141,0-3.312,0.5605-4.1938,1.6816
		s-1.3228,2.9121-1.3228,5.373v0.7178c0,2.7617,0.4375,4.7617,1.3125,5.999s2.3037,1.8555,4.2861,1.8555
		c1.668,0,2.9531-0.6836,3.8555-2.0508s1.3535-3.3154,1.3535-5.8447c0-2.543-0.4478-4.4668-1.3433-5.7725
		S221.644,640.582,219.9077,640.582z"/>
	<path fill="#4B5666" d="M245.645,660.1465c-3.5273,0-6.2856-1.0283-8.2749-3.0859s-2.9839-4.8916-2.9839-8.501
		c0-3.7051,0.9229-6.6172,2.7686-8.7363s4.3818-3.1787,7.6084-3.1787c2.9941,0,5.3594,0.9092,7.0957,2.7275
		s2.6045,4.3203,2.6045,7.5059v2.6045h-15.1143c0.0684,2.2012,0.6631,3.8936,1.7842,5.0762s2.7002,1.7734,4.7373,1.7734
		c1.3398,0,2.5874-0.126,3.7427-0.3789s2.396-0.6738,3.7222-1.2617v3.917c-1.1758,0.5605-2.3652,0.957-3.5684,1.1895
		S247.1899,660.1465,245.645,660.1465z M244.7632,640.2949c-1.5312,0-2.7583,0.4854-3.6812,1.4561s-1.4731,2.3857-1.6509,4.2451
		h10.2949c-0.0273-1.873-0.4785-3.291-1.3535-4.2559C247.4976,640.7773,246.2944,640.2949,244.7632,640.2949z"/>
	<path fill="#4B5666" d="M274.1304,659.7363l-0.9639-3.1582h-0.1641c-1.0938,1.3809-2.1943,2.3213-3.3018,2.8203
		c-1.1074,0.498-2.5293,0.748-4.2656,0.748c-2.2285,0-3.9683-0.6016-5.2192-1.8047s-1.8765-2.9053-1.8765-5.1064
		c0-2.3379,0.8682-4.1016,2.6045-5.291s4.3818-1.8389,7.9365-1.9482l3.917-0.123v-1.21c0-1.4492-0.3384-2.5322-1.0151-3.251
		c-0.6768-0.7168-1.7261-1.0762-3.1479-1.0762c-1.1621,0-2.2764,0.1709-3.3428,0.5127s-2.0918,0.7451-3.0762,1.21l-1.5586-3.4453
		c1.2305-0.6426,2.5771-1.1309,4.04-1.4668c1.4629-0.334,2.8438-0.502,4.1426-0.502c2.8848,0,5.062,0.6289,6.5317,1.8867
		s2.2046,3.2334,2.2046,5.9268v15.2783H274.1304z M266.9526,656.4551c1.75,0,3.1548-0.4883,4.2144-1.4668
		c1.0596-0.9766,1.5894-2.3477,1.5894-4.1113v-1.9688l-2.9121,0.123c-2.2695,0.082-3.9204,0.4609-4.9526,1.1387
		c-1.0322,0.6758-1.5483,1.7119-1.5483,3.1064c0,1.0117,0.3008,1.7939,0.9023,2.3486
		C264.8472,656.1777,265.7495,656.4551,266.9526,656.4551z"/>
	<path fill="#4B5666" d="M299.5396,653.2764c0,2.2148-0.8066,3.9141-2.4199,5.0967s-3.9238,1.7734-6.9316,1.7734
		c-3.0215,0-5.4482-0.458-7.2803-1.374v-4.1631c2.666,1.2305,5.1475,1.8457,7.4443,1.8457c2.9668,0,4.4502-0.8955,4.4502-2.6865
		c0-0.5742-0.1641-1.0527-0.4922-1.4355s-0.8682-0.7793-1.6201-1.1895s-1.7979-0.875-3.1377-1.3945
		c-2.6113-1.0117-4.3784-2.0234-5.3013-3.0352s-1.3843-2.3242-1.3843-3.9375c0-1.9414,0.7827-3.4482,2.3481-4.5225
		c1.5654-1.0723,3.6948-1.6094,6.3882-1.6094c2.666,0,5.1885,0.54,7.5674,1.6201l-1.5586,3.6299
		c-2.4473-1.0117-4.5049-1.5176-6.1729-1.5176c-2.543,0-3.8145,0.7246-3.8145,2.1738c0,0.7109,0.3315,1.3125,0.9946,1.8047
		s2.1089,1.1689,4.3374,2.0303c1.873,0.7246,3.2334,1.3877,4.0811,1.9893s1.4766,1.2959,1.8867,2.082
		S299.5396,652.1826,299.5396,653.2764z"/>
	<path fill="#4B5666" d="M313.1978,656.25c1.1758,0,2.3516-0.1846,3.5273-0.5537v3.6299c-0.5332,0.2324-1.2202,0.4268-2.061,0.584
		s-1.7124,0.2363-2.6147,0.2363c-4.5664,0-6.8496-2.4062-6.8496-7.2188v-12.2227h-3.0967v-2.1328l3.3223-1.7637l1.6406-4.7988
		h2.9736v5.0449h6.46v3.6504h-6.46v12.1406c0,1.1621,0.2905,2.0195,0.8716,2.5742
		C311.4922,655.9727,312.2544,656.25,313.1978,656.25z"/>
	<path fill="#4B5666" d="M320.9702,631.0459c0-0.8613,0.2358-1.5244,0.7075-1.9893s1.145-0.6973,2.02-0.6973
		c0.8477,0,1.5073,0.2324,1.979,0.6973s0.7075,1.1279,0.7075,1.9893c0,0.8203-0.2358,1.4658-0.7075,1.9385
		c-0.4717,0.4707-1.1313,0.707-1.979,0.707c-0.875,0-1.5483-0.2363-2.02-0.707
		C321.2061,632.5117,320.9702,631.8662,320.9702,631.0459z M326.0767,659.7363h-4.8193v-22.6816h4.8193V659.7363z"/>
</g>
<path fill="#4B5666" d="M601.2812,88.3311c-9.9111,0-22.7549,5.8418-25.2822,15.6758l-0.002-0.002v0.002
	c-2.5273-9.834-15.3711-15.6758-25.2803-15.6758c-19.543,0-35.3936,15.1689-35.3936,35.3936
	c0,23.7969,14.0713,38.3584,29.4102,50.1758c9.2012,7.0898,29.6221,23.1357,31.2383,23.1357c0.0098,0,0.0176-0.002,0.0254-0.002
	s0.0176,0.002,0.0254,0.002c1.6172,0,22.0391-16.0459,31.2402-23.1357c15.3379-11.8174,29.4121-26.3789,29.4121-50.1758
	C636.6748,103.5,620.8242,88.3311,601.2812,88.3311z M536.9883,104.3398c-6.1104,4.5195-9.6162,11.585-9.6162,19.3848
	c0,1.2871-1.041,2.3301-2.3281,2.3301s-2.3301-1.043-2.3301-2.3301c0-9.293,4.1924-17.7227,11.5039-23.1299
	c1.0332-0.7656,2.4902-0.5469,3.2568,0.4873C538.2402,102.1162,538.0205,103.5762,536.9883,104.3398z"/>
<path fill-rule="evenodd" clip-rule="evenodd" fill="#4B5666" d="M244.1167,518.4824c0,14.9453-8.2681,27.9512-20.4751,34.7139
	c0,0-1.4834,0.8496-3.417,1.1836c-1.8804,0.3242-3.2686,0.3857-3.2686,0.3857h-12.5103h-12.5083c0,0-1.3901-0.0615-3.271-0.3857
	c-1.9331-0.334-3.4165-1.1836-3.4165-1.1836c-12.207-6.7627-20.4751-19.7686-20.4751-34.7139
	c0-16.502,10.0776-30.6465,24.4126-36.625v-22.5342c-1.9492,0-3.5293-1.5801-3.5293-3.5273v-6.207
	c0-1.9492,1.5801-3.5283,3.5293-3.5283h30.5166c1.9492,0,3.5298,1.5791,3.5298,3.5283v6.207c0,1.9473-1.5806,3.5273-3.5298,3.5273
	v22.5342C234.0391,487.8359,244.1167,501.9805,244.1167,518.4824z M214.6543,448.458h-20.4155
	c-1.2866,0-2.3296,1.0439-2.3296,2.3301c0,1.2871,1.043,2.3291,2.3296,2.3291h20.4155c1.2866,0,2.3306-1.042,2.3306-2.3291
	C216.9849,449.502,215.9409,448.458,214.6543,448.458z M216.9092,488.5605c-2.7051-1.1279-4.4683-3.7725-4.4683-6.7031v-22.5342
	h-15.9902v22.5342c0,2.9307-1.7622,5.5752-4.4678,6.7031c-12.1147,5.0537-19.9453,16.7998-19.9453,29.9219
	c0,11.7744,6.4092,22.6406,16.7266,28.3584c0.1572,0.0791,0.6587,0.2988,1.1396,0.3828c1.0723,0.1846,1.9355,0.2559,2.2476,0.2783
	h12.2944h12.2974c0.2939-0.0205,1.1636-0.0918,2.2471-0.2793c0.481-0.083,0.979-0.3027,1.1372-0.3818
	c10.3169-5.7178,16.7266-16.584,16.7266-28.3584C236.854,505.3604,229.0254,493.6143,216.9092,488.5605z M232.1948,518.4824
	c0,10.0059-5.4043,19.2441-14.124,24.1709c-0.6709,0.1104-1.2261,0.167-1.5117,0.1895h-24.2319
	c-0.2642-0.0215-0.8242-0.0771-1.5029-0.1895c-8.7207-4.9258-14.1289-14.165-14.1289-24.1709c0-3.5225,0.6699-6.8936,1.873-9.998
	h51.7563C231.5283,511.5889,232.1948,514.96,232.1948,518.4824z M196.0107,534.2666c-5.9766-3.7871-9.6782-10.4834-9.6782-17.5488
	c0-1.2871-1.0425-2.3291-2.3296-2.3291c-1.2856,0-2.3301,1.042-2.3301,2.3291c0,8.7676,4.6533,17.0723,12.1426,21.6699
	l0.4751,0.2764l0.6968,0.0752c0.0674,0.0059,0.1348,0.0088,0.2026,0.0088c1.1914,0,2.1646-0.9199,2.2695-2.1318
	C197.5488,535.5859,196.9238,534.6523,196.0107,534.2666z"/>
<path fill="#4B5666" d="M618.3379,831.3232h-84.6797c-1.9414,0-3.5186,1.5752-3.5186,3.5166l0.0039,32.6309
	c0,0.0029,0.002,0.0078,0.002,0.0117c0,9.8008,0,19.6309,0,22.917c0,7.2842,2.458,17.7812,11.8701,28.3242
	c13.4854,15.1035,33.9863,21.3076,33.9863,21.3076s20.501-6.2041,33.9863-21.3076c9.4121-10.543,11.8701-21.04,11.8701-28.3242
	c0-3.2861,0-13.1162,0-22.917c0-0.0039,0.002-0.0088,0.002-0.0117l-0.0049-32.6309
	C621.8555,832.8984,620.2793,831.3232,618.3379,831.3232z M551.249,914.3662c-0.4443,0.3955-0.999,0.5898-1.5498,0.5898
	c-0.6416,0-1.2793-0.2627-1.7393-0.7783c-9.2373-10.3447-10.6162-20.126-10.6162-25.0361c0-1.2861,1.042-2.3301,2.3281-2.3301
	c1.2871,0,2.3311,1.0439,2.3311,2.3301c0,4.2461,1.2246,12.7412,9.4326,21.9346C552.292,912.0352,552.207,913.5078,551.249,914.3662
	z M614.5967,867.3564c-0.001,0.041-0.001,0.084-0.001,0.126v22.917c0,4.5781-1.3037,13.7168-10.0244,23.4863
	c-9.5215,10.665-23.334,16.5176-28.5693,18.4619l-0.0039-93.7617h38.5947L614.5967,867.3564z"/>
<path fill-rule="evenodd" clip-rule="evenodd" fill="#4B5666" d="M1011.5254,487.6035c-0.1602,0-0.3301-0.0117-0.5098-0.0381
	l-6.7881-0.9492l-0.001,49.5664c0,1.9404-1.5312,3.9492-3.4014,4.4658l-49.8701,13.7334c-0.9346,0.2568-2.1689,0.3877-3.4014,0.3877
	c-1.2344,0-2.4658-0.1309-3.4023-0.3877l-49.8672-13.7334c-1.873-0.5166-3.4023-2.5254-3.4023-4.4658l0.001-49.5664l-6.791,0.9492
	c-0.1787,0.0264-0.3477,0.0381-0.5078,0.0381c-1.5664,0-2.2471-1.1543-1.5117-2.7529l9.543-20.7812
	c0.8105-1.7627,3.002-3.6299,4.875-4.1445l49.8682-13.7363c0.3125-0.0859,0.6025-0.1279,0.8672-0.1279
	c0.1182,0,0.2236,0.0176,0.3291,0.0342c0.1064-0.0166,0.2109-0.0342,0.3281-0.0342c0.2656,0,0.5557,0.042,0.8672,0.1279
	l49.8691,13.7363c1.8721,0.5146,4.0654,2.3818,4.876,4.1445l9.543,20.7812
	C1013.7734,486.4492,1013.0928,487.6035,1011.5254,487.6035z M898.4482,530.5283c0,1.2861,1.043,2.3281,2.3291,2.3281
	c1.2871,0,2.3291-1.042,2.3291-2.3281v-22.2285c0-1.2871-1.042-2.3291-2.3291-2.3291c-1.2861,0-2.3291,1.042-2.3291,2.3291V530.5283
	z M897.7256,464.416c-0.5508,0.1533-1.6387,1.0801-1.8779,1.5977l-7.4609,16.2461l46.6182-6.5381
	c0.2393-0.0791,0.6523-0.4346,0.7666-0.6572l7.0557-23.0732L897.7256,464.416z M947.9473,478.5869l-0.3926-1.2852v68.8408
	c0.8145,0,1.3506-0.0938,1.4736-0.126l47.9365-13.2021v-39.8848l-38.5527-5.4092
	C953.7344,486.8652,949.332,483.1074,947.9473,478.5869z M999.2617,466.0137c-0.2393-0.5176-1.3281-1.4443-1.8789-1.5977
	l-45.1016-12.4248l7.0566,23.0732c0.1133,0.2227,0.5273,0.5781,0.7666,0.6572l46.6172,6.5381L999.2617,466.0137z"/>
</svg>
