<?xml version="1.0" encoding="utf-8"?>
<!-- Generator: Adobe Illustrator 15.0.2, SVG Export Plug-In . SVG Version: 6.00 Build 0)  -->
<!DOCTYPE svg PUBLIC "-//W3C//DTD SVG 1.1//EN" "http://www.w3.org/Graphics/SVG/1.1/DTD/svg11.dtd">
<svg version="1.1" id="Layer_1" xmlns="http://www.w3.org/2000/svg" xmlns:xlink="http://www.w3.org/1999/xlink" x="0px" y="0px"
	 width="1152px" height="1152.001px" viewBox="0 0 1152 1152.001" enable-background="new 0 0 1152 1152.001" xml:space="preserve">
  <circle fill="#4B5666" cx="576" cy="576" r="576"/>
  <path class="cls-2" d="M181.6,181.6C388.1-24.9,722.4-24.9,929,181.6L555.3,555.3Z" transform="translate(-0.1 -0.1)"/>
  <path class="cls-3" d="M929,181.6c206.5,206.5,206.5,540.8,0,747.4L555.3,555.3Z" transform="translate(-0.1 -0.1)"/>
  <path class="cls-4" d="M929,929c-206.5,206.5-540.8,206.5-747.4,0L555.3,555.3Z" transform="translate(-0.1 -0.1)"/>
  <path class="cls-5" d="M181.6,929c-206.5-206.5-206.5-540.8,0-747.4L555.3,555.3Z" transform="translate(-0.1 -0.1)"/>
  <circle fill="#4B5666" cx="576" cy="576" r="194.6777"/>
  <path class="cls-1" d="M579.7,85.3c-9.6,0-21.9,5.6-24.4,15.1h0c-2.4-9.5-14.8-15.1-24.4-15.1a33.7,33.7,0,0,0-34.1,34.1c0,22.9,13.6,37,28.3,48.4,8.9,6.8,28.6,22.3,30.1,22.3h0c1.6,0,21.2-15.5,30.1-22.3,14.8-11.4,28.3-25.4,28.3-48.4C613.8,99.9,598.5,85.3,579.7,85.3Zm-62,15.4a23.07,23.07,0,0,0-9.3,18.7,2.2,2.2,0,0,1-4.4,0,27.2,27.2,0,0,1,11.1-22.3,2.22,2.22,0,0,1,2.6,3.6Z" transform="translate(-0.1 -0.1)"/>
  <path class="cls-1" d="M235.4,499.9a38.48,38.48,0,0,1-19.7,33.5,10.7,10.7,0,0,1-3.3,1.1c-1.8.3-3.1.4-3.1.4H185.1s-1.3-.1-3.2-.4a10.7,10.7,0,0,1-3.3-1.1,38.3,38.3,0,0,1,3.8-68.8V442.9a3.37,3.37,0,0,1-3.4-3.4v-6a3.37,3.37,0,0,1,3.4-3.4h29.4a3.37,3.37,0,0,1,3.4,3.4v6a3.37,3.37,0,0,1-3.4,3.4v21.7A38.12,38.12,0,0,1,235.4,499.9ZM207,432.4H187.3a2.2,2.2,0,1,0,0,4.4H207a2.22,2.22,0,0,0,2.2-2.2A2.1,2.1,0,0,0,207,432.4Zm2.2,38.6a7,7,0,0,1-4.3-6.5V442.8H189.5v21.7a7.1,7.1,0,0,1-4.3,6.5,31.2,31.2,0,0,0-3.1,56.1,4.33,4.33,0,0,0,1.1.4c1,.2,1.9.2,2.2.3h23.8a16.87,16.87,0,0,0,2.2-.3,4.33,4.33,0,0,0,1.1-.4,31.13,31.13,0,0,0-3.3-56.1ZM224,499.9a26.89,26.89,0,0,1-13.6,23.3,12.54,12.54,0,0,1-1.5.2H185.5a11.48,11.48,0,0,1-1.4-.2,26.77,26.77,0,0,1-13.6-23.3,25.61,25.61,0,0,1,1.8-9.6h49.9A27.31,27.31,0,0,1,224,499.9Zm-34.9,15.2a20,20,0,0,1-9.3-16.9,2.2,2.2,0,1,0-4.4,0,24.63,24.63,0,0,0,11.7,20.9l.5.3.7.1h.2a2.27,2.27,0,0,0,2.2-2.1A2.81,2.81,0,0,0,189.1,515.1Z" transform="translate(-0.1 -0.1)"/>
  <path class="cls-1" d="M596.1,801.4H514.5a3.37,3.37,0,0,0-3.4,3.4v31.5h0v22.1c0,7,2.4,17.1,11.4,27.3,13,14.6,32.8,20.5,32.8,20.5s19.8-6,32.8-20.5c9.1-10.2,11.4-20.3,11.4-27.3V836.3h0V804.8A3.37,3.37,0,0,0,596.1,801.4Zm-64.6,80a2.2,2.2,0,0,1-1.5.6,2.46,2.46,0,0,1-1.7-.8c-8.9-10-10.2-19.4-10.2-24.1a2.2,2.2,0,0,1,4.4,0c0,4.1,1.2,12.3,9.1,21.1A2.23,2.23,0,0,1,531.5,881.4Zm61-45.3v22.2c0,4.4-1.3,13.2-9.7,22.6-9.2,10.3-22.5,15.9-27.5,17.8V808.3h37.2Z" transform="translate(-0.1 -0.1)"/>
  <g>
    <path class="cls-6" d="M457,541.7l-13.6-35.4h-.2a96.56,96.56,0,0,1,.4,10v25.4h-4.3v-40h7l12.7,33h.2l12.8-33h6.9v40h-4.6V516c0-3,.1-6.2.4-9.6h-.2l-13.7,35.4H457Z" transform="translate(-0.1 -0.1)"/>
    <path class="cls-6" d="M524.6,521.7c0,6.4-1.6,11.4-4.9,15.1s-7.7,5.5-13.5,5.5-10.4-1.8-13.6-5.4-4.8-8.7-4.8-15.2,1.6-11.6,4.8-15.1,7.8-5.4,13.7-5.4c5.7,0,10.2,1.8,13.5,5.5C523,510.2,524.6,515.3,524.6,521.7Zm-31.9,0c0,5.4,1.2,9.5,3.5,12.3s5.7,4.2,10,4.2,7.8-1.4,10-4.2,3.4-6.9,3.4-12.3-1.1-9.5-3.4-12.2-5.6-4.2-10-4.2-7.8,1.4-10.1,4.2S492.7,516.4,492.7,521.7Z" transform="translate(-0.1 -0.1)"/>
    <path class="cls-6" d="M565.4,521.4c0,6.6-1.8,11.6-5.4,15.1s-8.7,5.2-15.5,5.2H533.4v-40h12.3c6.2,0,11,1.7,14.5,5.2S565.4,515.2,565.4,521.4Zm-4.9.1c0-5.2-1.3-9.1-3.9-11.8s-6.5-4-11.7-4h-6.8v31.9h5.7c5.5,0,9.7-1.4,12.5-4.1S560.5,526.9,560.5,521.5Z" transform="translate(-0.1 -0.1)"/>
    <path class="cls-6" d="M596.6,541.7H574.3v-40h22.3v4.1H579v12.9h16.6v4.1H579v14.7h17.6v4.2Z" transform="translate(-0.1 -0.1)"/>
    <path class="cls-6" d="M610.1,525.1v16.6h-4.6v-40h11c4.9,0,8.5.9,10.9,2.8s3.5,4.7,3.5,8.5c0,5.3-2.7,8.9-8,10.7l10.9,18h-5.5l-9.7-16.6Zm0-4h6.4c3.3,0,5.7-.7,7.2-2a7.46,7.46,0,0,0,2.3-5.9c0-2.6-.8-4.5-2.3-5.7s-4.1-1.8-7.5-1.8h-6l-.1,15.4Z" transform="translate(-0.1 -0.1)"/>
    <path class="cls-6" d="M671.3,541.7H666l-21.8-33.6H644c.3,3.9.4,7.5.4,10.8v22.7h-4.3v-40h5.3L667.2,535h.2c0-.5-.1-2.1-.2-4.7s-.2-4.6-.1-5.7V501.7h4.3l-.1,40Z" transform="translate(-0.1 -0.1)"/>
    <path class="cls-6" d="M509.9,608.9l-5-12.7h-16L484,608.9h-4.7l15.8-40.1H499l15.7,40.1ZM503.5,592l-4.6-12.4c-.6-1.6-1.2-3.5-1.9-5.8a59.75,59.75,0,0,1-1.7,5.8L490.6,592Z" transform="translate(-0.1 -0.1)"/>
    <path class="cls-6" d="M537.8,588h13.6v19.4a36.06,36.06,0,0,1-6.5,1.5,55.82,55.82,0,0,1-7.6.5q-9.15,0-14.1-5.4c-3.4-3.6-5.1-8.6-5.1-15.1a22.22,22.22,0,0,1,2.5-10.9,17.83,17.83,0,0,1,7.2-7.2,23.8,23.8,0,0,1,11-2.5,29.43,29.43,0,0,1,11.9,2.4l-1.8,4.1a27.23,27.23,0,0,0-10.4-2.3c-4.9,0-8.7,1.4-11.4,4.3s-4.1,6.9-4.1,12.1c0,5.4,1.3,9.5,4,12.3s6.5,4.2,11.6,4.2a31,31,0,0,0,8.1-1V592.1h-8.9V588Z" transform="translate(-0.1 -0.1)"/>
    <path class="cls-6" d="M561,608.9v-40h4.6v40Z" transform="translate(-0.1 -0.1)"/>
    <path class="cls-6" d="M576.6,608.9v-40h4.6v35.8h17.6v4.2Z" transform="translate(-0.1 -0.1)"/>
    <path class="cls-6" d="M628,608.9H605.7v-40H628V573H610.4v13H627v4.1H610.4v14.7H628Z" transform="translate(-0.1 -0.1)"/>
  </g>
  <path class="cls-1" d="M975.1,470.1h-.5l-6.5-.9V517a4.72,4.72,0,0,1-3.3,4.3l-48.1,13.2a15.68,15.68,0,0,1-3.3.4,11.06,11.06,0,0,1-3.3-.4L862,521.3a4.72,4.72,0,0,1-3.3-4.3V469.2l-6.5.9h-.5c-1.5,0-2.2-1.1-1.5-2.7l9.2-20a8.42,8.42,0,0,1,4.7-4l48.1-13.2a2.49,2.49,0,0,1,.8-.1h.6a2.2,2.2,0,0,1,.8.1l48.1,13.2a8.42,8.42,0,0,1,4.7,4l9.2,20C977.3,469,976.6,470.1,975.1,470.1Zm-109,41.4a2.2,2.2,0,1,0,4.4,0V490.1a2.2,2.2,0,1,0-4.4,0Zm-.7-63.7a3.76,3.76,0,0,0-1.8,1.5L856.4,465l44.9-6.3a2,2,0,0,0,.7-.6l6.8-22.2Zm48.4,13.6-.4-1.2v66.4a11.34,11.34,0,0,0,1.4-.1L961,513.8V475.4l-37.2-5.2A13.34,13.34,0,0,1,913.8,461.4Zm49.5-12.1a3.76,3.76,0,0,0-1.8-1.5l-43.5-12,6.8,22.2c.1.2.5.6.7.6l44.9,6.3Z" transform="translate(-0.1 -0.1)"/>
  <g class="cls-7">
    <text class="cls-8" transform="translate(495.26 235.9)">Rendre<tspan class="cls-9" x="114.75" y="0"> </tspan></text>
    <text class="cls-8" transform="translate(493.46 274.3)">les gens</text>
    <text class="cls-8" transform="translate(443.46 312.7)">extraordinaires</text>
  </g>
  <g class="cls-7">
    <text class="cls-8" transform="translate(864.32 585.13)">Livrer </text>
    <text class="cls-8" transform="translate(823.32 623.53)">de la valeur</text>
    <text class="cls-8" transform="translate(785.92 661.93)">continuellement</text>
  </g>
  <g class="cls-7">
    <text class="cls-8" transform="translate(90.88 582.13)">Expérimenter </text>
    <text class="cls-10" transform="translate(94.98 620.53)">et apprendre<tspan class="cls-11" x="209.09" y="0"> </tspan></text>
    <text class="cls-10" transform="translate(109.68 658.93)">rapidement</text>
  </g>
  <text x="-0.1" y="-0.1"></text>
  <text x="-0.1" y="-0.1"></text>
  <text class="cls-10" transform="translate(482.74 958.63)">Créer un<tspan x="-55.41" y="38.4">environnement</tspan><tspan x="33.63" y="76.8">sûre</tspan></text>
</svg>
