<?xml version="1.0" encoding="utf-8"?>
<!-- Generator: Adobe Illustrator 15.0.2, SVG Export Plug-In . SVG Version: 6.00 Build 0)  -->
<!DOCTYPE svg PUBLIC "-//W3C//DTD SVG 1.1//EN" "http://www.w3.org/Graphics/SVG/1.1/DTD/svg11.dtd">
<svg version="1.1" id="Layer_1" xmlns="http://www.w3.org/2000/svg" xmlns:xlink="http://www.w3.org/1999/xlink" x="0px" y="0px"
	 width="1152px" height="1152.001px" viewBox="0 0 1152 1152.001" enable-background="new 0 0 1152 1152.001" xml:space="preserve">
<circle fill="#4B5666" cx="576" cy="576" r="576"/>
<g>
	<path fill="#FBD35C" d="M188.2964,188.29c214.2964-214.2959,561.1108-214.293,775.4106,0.0078L576.0049,575.999L188.2964,188.29z"
		/>
</g>
<g>
	<path fill="#A4D970" d="M963.71,188.293c214.2979,214.2979,214.293,561.1104-0.0068,775.4092L576.002,576.001L963.71,188.293z"/>
</g>
<g>
	<path fill="#9EBEED" d="M963.7031,963.709c-214.2959,214.2988-561.1104,214.293-775.4102-0.0068L575.9951,576.001L963.7031,963.709
		z"/>
</g>
<g>
	<path fill="#FA7977" d="M188.2896,963.707c-214.2959-214.2979-214.2925-561.1104,0.0068-775.4092L575.999,575.999L188.2896,963.707
		z"/>
</g>
<circle fill="#4B5666" cx="576" cy="576" r="180"/>
<g>
	<path fill="#FFFFFF" d="M466.7227,560.9141l-15.0771-39.3945h-0.2432c0.2842,3.1211,0.4258,6.8301,0.4258,11.126v28.2686h-4.7725
		v-44.4404h7.7822l14.0732,36.6592h0.2432l14.1953-36.6592h7.7207v44.4404h-5.167v-28.6338c0-3.2832,0.1416-6.8496,0.4258-10.6992
		h-0.2432l-15.1992,39.333H466.7227z"/>
	<path fill="#FFFFFF" d="M541.833,538.6328c0,7.1133-1.7988,12.7061-5.3955,16.7793c-3.5977,4.0732-8.5977,6.1104-15.001,6.1104
		c-6.5459,0-11.5967-2.001-15.1533-6.0039c-3.5557-4.002-5.334-9.6514-5.334-16.9463c0-7.2344,1.7832-12.8428,5.3496-16.8242
		c3.5664-3.9824,8.6328-5.9736,15.1982-5.9736c6.3838,0,11.3682,2.0273,14.9551,6.0801S541.833,531.5,541.833,538.6328z
		 M506.4209,538.6328c0,6.0186,1.2812,10.584,3.8447,13.6943s6.2871,4.666,11.1709,4.666c4.9238,0,8.6426-1.5508,11.1553-4.6514
		c2.5127-3.0996,3.7695-7.6699,3.7695-13.709c0-5.9775-1.252-10.5117-3.7539-13.6025c-2.5029-3.0898-6.2061-4.6348-11.1104-4.6348
		c-4.9238,0-8.668,1.5547-11.2314,4.666C507.7021,528.1719,506.4209,532.6963,506.4209,538.6328z"/>
	<path fill="#FFFFFF" d="M587.2158,538.2686c0,7.3359-1.9912,12.9443-5.9736,16.8242c-3.9814,3.8809-9.7109,5.8213-17.1885,5.8213
		h-12.3115v-44.4404h13.6182c6.9102,0,12.2803,1.915,16.1104,5.7451S587.2158,531.3984,587.2158,538.2686z M581.7441,538.4512
		c0-5.7959-1.4541-10.1631-4.3623-13.1016c-2.9082-2.9375-7.2295-4.4072-12.9639-4.4072h-7.5078v35.5029h6.292
		c6.1602,0,10.791-1.5146,13.8916-4.5439S581.7441,544.3887,581.7441,538.4512z"/>
	<path fill="#FFFFFF" d="M621.8975,560.9141H597.124v-44.4404h24.7734v4.5898H602.292v14.3174h18.4199v4.5596H602.292v16.3535
		h19.6055V560.9141z"/>
	<path fill="#FFFFFF" d="M636.9141,542.4326v18.4814h-5.168v-44.4404h12.1895c5.4512,0,9.4785,1.0439,12.083,3.1309
		c2.6035,2.0879,3.9053,5.2285,3.9053,9.4238c0,5.877-2.9785,9.8477-8.9365,11.915l12.0674,19.9707h-6.1094l-10.7607-18.4814
		H636.9141z M636.9141,537.9951h7.082c3.6475,0,6.3232-0.7246,8.0254-2.1738c1.7021-1.4482,2.5527-3.6221,2.5527-6.5195
		c0-2.9385-0.8662-5.0557-2.5986-6.3535c-1.7324-1.2959-4.5137-1.9453-8.3438-1.9453h-6.7178V537.9951z"/>
	<path fill="#FFFFFF" d="M704.9424,560.9141h-5.8975l-24.2871-37.2969h-0.2432c0.3242,4.377,0.4863,8.3896,0.4863,12.0371v25.2598
		h-4.7725v-44.4404h5.8369l24.2256,37.1455h0.2432c-0.041-0.5479-0.1318-2.3057-0.2734-5.2744
		c-0.1416-2.9678-0.1924-5.0908-0.1514-6.3682v-25.5029h4.833V560.9141z"/>
	<path fill="#FFFFFF" d="M525.54,635.6172l-5.5322-14.1348h-17.8125l-5.4707,14.1348h-5.2285l17.5693-44.6221h4.3467
		l17.4785,44.6221H525.54z M518.3975,616.832l-5.168-13.7695c-0.668-1.7432-1.3574-3.8809-2.0664-6.4141
		c-0.4463,1.9453-1.085,4.084-1.915,6.4141l-5.2285,13.7695H518.3975z"/>
	<path fill="#FFFFFF" d="M556.5459,612.333h15.1064v21.6123c-2.3506,0.75-4.7412,1.3174-7.1729,1.7021
		c-2.4326,0.3848-5.249,0.5781-8.4512,0.5781c-6.7275,0-11.9658-2.001-15.7148-6.0039c-3.749-4.002-5.623-9.6104-5.623-16.8242
		c0-4.6201,0.9268-8.668,2.7812-12.1436s4.5234-6.1299,8.0098-7.9639c3.4844-1.834,7.5684-2.751,12.249-2.751
		c4.7422,0,9.1602,0.8711,13.2539,2.6143l-2.0068,4.5596c-4.0117-1.7031-7.8721-2.5537-11.5811-2.5537
		c-5.4102,0-9.6357,1.6113-12.6758,4.833c-3.0391,3.2217-4.5586,7.6904-4.5586,13.4053c0,5.998,1.4629,10.5479,4.3916,13.6475
		c2.9287,3.1006,7.2295,4.6514,12.9033,4.6514c3.0801,0,6.0898-0.3545,9.0283-1.0645v-13.6787h-9.9395V612.333z"/>
	<path fill="#FFFFFF" d="M582.3213,635.6172v-44.4404h5.168v44.4404H582.3213z"/>
	<path fill="#FFFFFF" d="M599.6777,635.6172v-44.4404h5.168v39.7598h19.6055v4.6807H599.6777z"/>
	<path fill="#FFFFFF" d="M656.7627,635.6172h-24.7734v-44.4404h24.7734v4.5898h-19.6055v14.3174h18.4199v4.5596h-18.4199v16.3535
		h19.6055V635.6172z"/>
</g>
<g>
	<path fill="#4B5666" d="M534.1436,206.5205c0,2.9814-0.9766,5.2666-2.9297,6.8555s-4.7334,2.3828-8.3398,2.3828h-2.9688v10.6836
		h-4.668v-28.5547h8.2227c3.5674,0,6.2402,0.7295,8.0176,2.1875S534.1436,203.6816,534.1436,206.5205z M519.9053,211.833h2.4805
		c2.3955,0,4.1533-0.417,5.2734-1.25s1.6797-2.1357,1.6797-3.9062c0-1.6406-0.501-2.8643-1.5039-3.6719
		s-2.5654-1.2109-4.6875-1.2109h-3.2422V211.833z"/>
	<path fill="#4B5666" d="M558.5186,215.6025c0,3.5283-0.9053,6.2822-2.7148,8.2617s-4.3291,2.9688-7.5586,2.9688
		c-2.0186,0-3.8018-0.4561-5.3516-1.3672s-2.7412-2.2197-3.5742-3.9258s-1.25-3.6846-1.25-5.9375
		c0-3.5029,0.8984-6.2373,2.6953-8.2031s4.3291-2.9492,7.5977-2.9492c3.125,0,5.5986,1.0059,7.4219,3.0176
		S558.5186,212.1914,558.5186,215.6025z M542.7959,215.6025c0,4.9873,1.8428,7.4805,5.5273,7.4805
		c3.6455,0,5.4688-2.4932,5.4688-7.4805c0-4.9346-1.8359-7.4023-5.5078-7.4023c-1.9268,0-3.3232,0.6377-4.1895,1.9141
		S542.7959,213.2197,542.7959,215.6025z"/>
	<path fill="#4B5666" d="M562.542,213.4736c0-4.8174,0.8174-8.5225,2.4512-11.1133s4.2354-4.2578,7.8027-5
		c2.6953-0.5469,5.8008-1.0811,9.3164-1.6016l0.6445,4.043c-4.2705,0.6514-7.3955,1.1592-9.375,1.5234
		c-2.0439,0.3779-3.5186,1.2178-4.4238,2.5195s-1.4287,3.2617-1.5723,5.8789h0.293c0.7422-1.0811,1.7119-1.917,2.9102-2.5098
		s2.4805-0.8887,3.8477-0.8887c2.6562,0,4.7266,0.8398,6.2109,2.5195s2.2266,4.0361,2.2266,7.0703
		c0,3.4766-0.9014,6.165-2.7051,8.0664s-4.2998,2.8516-7.4902,2.8516c-3.1641,0-5.6445-1.1719-7.4414-3.5156
		S562.542,217.6924,562.542,213.4736z M572.9912,223.083c3.4111,0,5.1172-2.2393,5.1172-6.7188c0-4.3232-1.543-6.4844-4.6289-6.4844
		c-0.8467,0-1.667,0.1826-2.4609,0.5469s-1.5264,0.8467-2.1973,1.4453s-1.1885,1.2178-1.5527,1.8555
		c0,3.0732,0.4883,5.4004,1.4648,6.9824S571.1289,223.083,572.9912,223.083z"/>
	<path fill="#4B5666" d="M587.874,199.1182c0-0.8203,0.2246-1.4521,0.6738-1.8945s1.0908-0.6641,1.9238-0.6641
		c0.8076,0,1.4355,0.2217,1.8848,0.6641s0.6738,1.0742,0.6738,1.8945c0,0.7812-0.2246,1.3965-0.6738,1.8457
		s-1.0771,0.6738-1.8848,0.6738c-0.833,0-1.4746-0.2246-1.9238-0.6738S587.874,199.8994,587.874,199.1182z M592.7373,226.4424
		h-4.5898v-21.6016h4.5898V226.4424z"/>
	<path fill="#4B5666" d="M615.5303,204.8408v3.5938h-7.0312v18.0078h-4.6094v-18.0078h-7.0312v-3.5938H615.5303z"/>
	<path fill="#4B5666" d="M624.2803,213.4736h5.4102c6.0283,0,9.043,2.083,9.043,6.25c0,2.2002-0.7686,3.8701-2.3047,5.0098
		s-3.7822,1.709-6.7383,1.709h-10v-21.6016h4.5898V213.4736z M634.124,219.8408c0-1.0811-0.4102-1.8359-1.2305-2.2656
		s-1.9795-0.6445-3.4766-0.6445h-5.1367v6.1133h5.2148c1.5107,0,2.6592-0.2734,3.4473-0.8203S634.124,220.8828,634.124,219.8408z"/>
	<path fill="#4B5666" d="M530.374,274.4424h-4.6289v-18.0078h-5.957c-0.3643,4.6357-0.8564,8.2549-1.4746,10.8594
		s-1.4258,4.5049-2.4219,5.7031s-2.2881,1.7969-3.877,1.7969c-1.0029,0-1.8428-0.1436-2.5195-0.4297v-3.5938
		c0.4814,0.1826,0.9639,0.2734,1.4453,0.2734c1.3281,0,2.373-1.4941,3.1348-4.4824s1.3574-7.5615,1.7871-13.7207h14.5117V274.4424z"
		/>
	<path fill="#4B5666" d="M565.7842,263.6025c0,3.542-0.8623,6.2988-2.5879,8.2715s-4.1309,2.959-7.2168,2.959
		c-2.8389,0-5.0947-0.8369-6.7676-2.5098s-2.6465-4.0723-2.9199-7.1973h-4.7656v9.3164h-4.5898v-21.6016h4.5898v8.6719h4.8047
		c0.3252-2.8643,1.3311-5.0908,3.0176-6.6797s3.9229-2.3828,6.709-2.3828c2.9951,0,5.3643,1.0059,7.1094,3.0176
		S565.7842,260.1914,565.7842,263.6025z M550.9795,263.6025c0,2.4609,0.3936,4.3232,1.1816,5.5859s2.0732,1.8945,3.8574,1.8945
		c1.7705,0,3.0537-0.6318,3.8477-1.8945s1.1914-3.125,1.1914-5.5859c0-2.4346-0.3975-4.2773-1.1914-5.5273
		s-2.0771-1.875-3.8477-1.875c-1.7842,0-3.0693,0.625-3.8574,1.875S550.9795,261.168,550.9795,263.6025z"/>
	<path fill="#4B5666" d="M591.8193,282.0791h-4.2773v-7.6367h-14.8047v7.6367h-4.2383v-11.1914h1.7578
		c1.5361-2.2002,2.7568-4.8604,3.6621-7.9785s1.4424-6.4746,1.6113-10.0684h13.125v18.0469h3.1641V282.0791z M584.1436,270.8877
		v-14.5312h-4.6484c-0.2471,2.6826-0.7646,5.3252-1.5527,7.9297s-1.748,4.8047-2.8809,6.6016H584.1436z"/>
	<path fill="#4B5666" d="M605.2568,274.833c-3.3594,0-5.9863-0.9795-7.8809-2.9395s-2.8418-4.6582-2.8418-8.0957
		c0-3.5283,0.8789-6.3018,2.6367-8.3203s4.1729-3.0273,7.2461-3.0273c2.8516,0,5.1045,0.8662,6.7578,2.5977
		s2.4805,4.1143,2.4805,7.1484v2.4805h-14.3945c0.0654,2.0967,0.6318,3.708,1.6992,4.834s2.5713,1.6895,4.5117,1.6895
		c1.2764,0,2.4639-0.1201,3.5645-0.3613s2.2822-0.6416,3.5449-1.2012v3.7305c-1.1201,0.5342-2.2529,0.9111-3.3984,1.1328
		S606.7285,274.833,605.2568,274.833z M604.417,255.9268c-1.458,0-2.627,0.4619-3.5059,1.3867s-1.4033,2.2725-1.5723,4.043h9.8047
		c-0.0264-1.7842-0.4561-3.1348-1.2891-4.0527S605.875,255.9268,604.417,255.9268z"/>
	<path fill="#4B5666" d="M623.2646,252.8408v11.0742c0,1.2891-0.1045,3.1836-0.3125,5.6836l10.8398-16.7578h5.6055v21.6016h-4.4141
		v-10.8789c0-0.5986,0.0361-1.5693,0.1074-2.9102s0.1338-2.3174,0.1855-2.9297l-10.8008,16.7188h-5.6055v-21.6016H623.2646z
		 M628.9873,250.2041c-2.7607,0-4.7822-0.498-6.0645-1.4941s-1.9951-2.6592-2.1387-4.9902h4.1602
		c0.0781,0.9375,0.2568,1.667,0.5371,2.1875s0.6836,0.8955,1.2109,1.123s1.3311,0.3418,2.4121,0.3418
		c1.2764,0,2.2461-0.2832,2.9102-0.8496s1.0674-1.501,1.2109-2.8027h4.2383c-0.1953,2.2393-0.9834,3.8799-2.3633,4.9219
		S631.6826,250.2041,628.9873,250.2041z"/>
	<path fill="#4B5666" d="M505.0713,300.8408h5.0391l-8.9258,10.4102l9.6875,11.1914h-5.2734l-9.3359-10.957v10.957h-4.5898v-21.6016
		h4.5898v10.4883L505.0713,300.8408z"/>
	<path fill="#4B5666" d="M525.3838,322.833c-2.7344,0-4.8564-0.9834-6.3672-2.9492h-0.2734
		c0.1826,1.8232,0.2734,2.9297,0.2734,3.3203v8.8477h-4.5898v-31.2109h3.7109c0.1045,0.4033,0.3193,1.3672,0.6445,2.8906h0.2344
		c1.4326-2.1875,3.5811-3.2812,6.4453-3.2812c2.6953,0,4.7949,0.9766,6.2988,2.9297s2.2559,4.6943,2.2559,8.2227
		s-0.7646,6.2822-2.2949,8.2617S528.0791,322.833,525.3838,322.833z M524.2705,304.2002c-1.8232,0-3.1543,0.5342-3.9941,1.6016
		s-1.2598,2.7734-1.2598,5.1172v0.6836c0,2.6299,0.417,4.5342,1.25,5.7129s2.1943,1.7676,4.082,1.7676
		c1.5889,0,2.8125-0.6514,3.6719-1.9531s1.2891-3.1572,1.2891-5.5664c0-2.4219-0.4268-4.2549-1.2793-5.498
		S525.9238,304.2002,524.2705,304.2002z"/>
	<path fill="#4B5666" d="M536.0674,300.8408h5l4.3945,12.2461c0.6641,1.7451,1.1064,3.3857,1.3281,4.9219h0.1562
		c0.1172-0.7158,0.332-1.585,0.6445-2.6074s1.9658-5.876,4.9609-14.5605h4.9609l-9.2383,24.4727
		c-1.6797,4.4922-4.4795,6.7383-8.3984,6.7383c-1.0156,0-2.0049-0.1104-2.9688-0.332v-3.6328
		c0.6904,0.1562,1.4775,0.2344,2.3633,0.2344c2.2139,0,3.7695-1.2822,4.668-3.8477l0.8008-2.0312L536.0674,300.8408z"/>
	<path fill="#4B5666" d="M577.0244,300.8408v3.5938h-7.0312v18.0078h-4.6094v-18.0078h-7.0312v-3.5938H577.0244z"/>
	<path fill="#4B5666" d="M585.5791,300.8408v11.0742c0,1.2891-0.1045,3.1836-0.3125,5.6836l10.8398-16.7578h5.6055v21.6016h-4.4141
		v-10.8789c0-0.5986,0.0361-1.5693,0.1074-2.9102s0.1338-2.3174,0.1855-2.9297L586.79,322.4424h-5.6055v-21.6016H585.5791z"/>
	<path fill="#4B5666" d="M620.6572,318.0479l0.2539-0.9375c0.5342-1.9404,0.9961-3.4307,1.3867-4.4727l4.8438-11.7969h6.1133
		v21.6016h-4.2383V305.001l-0.3516,1.1719c-0.5859,2.0967-1.0811,3.6396-1.4844,4.6289l-4.7266,11.6406h-3.4766l-4.7266-11.7188
		c-0.6514-1.6924-1.25-3.6006-1.7969-5.7227v17.4414h-4.1992v-21.6016h6.0742l4.6875,11.4453
		C619.4336,313.3408,619.9805,315.2617,620.6572,318.0479z"/>
	<path fill="#4B5666" d="M644.2119,300.8408v11.0742c0,1.2891-0.1045,3.1836-0.3125,5.6836l10.8398-16.7578h5.6055v21.6016h-4.4141
		v-10.8789c0-0.5986,0.0361-1.5693,0.1074-2.9102s0.1338-2.3174,0.1855-2.9297l-10.8008,16.7188h-5.6055v-21.6016H644.2119z"/>
</g>
<path fill="#4B5666" d="M596.1172,84.4746c-7.8867,0-18.1074,4.6484-20.1182,12.4736l-0.002-0.002v0.002
	c-2.0107-7.8252-12.2305-12.4736-20.1162-12.4736c-15.5508,0-28.1631,12.0703-28.1631,28.1641
	c0,18.9355,11.1963,30.5225,23.4023,39.9258c7.3213,5.6416,23.5713,18.4102,24.8574,18.4102c0.0078,0,0.0137-0.002,0.0195-0.002
	c0.0068,0,0.0146,0.002,0.0205,0.002c1.2871,0,17.5371-12.7686,24.8584-18.4102c12.2051-9.4033,23.4043-20.9902,23.4043-39.9258
	C624.2803,96.5449,611.668,84.4746,596.1172,84.4746z M544.957,97.2129c-4.8623,3.5967-7.6523,9.2188-7.6523,15.4258
	c0,1.0234-0.8281,1.8535-1.8525,1.8535c-1.0234,0-1.8535-0.8301-1.8535-1.8535c0-7.3945,3.3359-14.1025,9.1543-18.4053
	c0.8213-0.6094,1.9814-0.4355,2.5908,0.3877S545.7783,96.6055,544.957,97.2129z"/>
<g>
	<path fill="#4B5666" d="M520.9111,933.0449c0,1.8623-0.6152,3.3857-1.8457,4.5703s-2.9326,1.9404-5.1074,2.2656v0.1172
		c2.5,0.2998,4.4043,1.0381,5.7129,2.2168s1.9629,2.7178,1.9629,4.6191c0,2.6562-1.0381,4.7334-3.1152,6.2305
		s-4.9443,2.2461-8.6035,2.2461c-3.8018,0-6.8428-0.5146-9.1211-1.543v-4.082c1.2627,0.5986,2.6787,1.0615,4.248,1.3867
		s3.0049,0.4883,4.3066,0.4883c5.0127,0,7.5195-1.6406,7.5195-4.9219c0-1.5107-0.752-2.6631-2.2559-3.457
		s-3.7334-1.1914-6.6895-1.1914h-3.4375v-3.75h3.2227c5.6904,0,8.5352-1.5166,8.5352-4.5508c0-1.2109-0.4854-2.168-1.4551-2.8711
		s-2.3271-1.0547-4.0723-1.0547c-1.3799,0-2.6953,0.1826-3.9453,0.5469s-2.5459,0.9834-3.8867,1.8555l-2.1289-3.1641
		c2.9297-2.0312,6.3799-3.0469,10.3516-3.0469c3.0205,0,5.4102,0.6445,7.168,1.9336S520.9111,930.8965,520.9111,933.0449z"/>
	<path fill="#4B5666" d="M537.8252,955.3105c-2.7344,0-4.8564-0.9834-6.3672-2.9492h-0.2734
		c0.1826,1.8232,0.2734,2.9297,0.2734,3.3203v8.8477h-4.5898v-31.2109h3.7109c0.1045,0.4033,0.3193,1.3672,0.6445,2.8906h0.2344
		c1.4326-2.1875,3.5811-3.2812,6.4453-3.2812c2.6953,0,4.7949,0.9766,6.2988,2.9297s2.2559,4.6943,2.2559,8.2227
		s-0.7646,6.2822-2.2949,8.2617S540.5205,955.3105,537.8252,955.3105z M536.7119,936.6777c-1.8232,0-3.1543,0.5342-3.9941,1.6016
		s-1.2598,2.7734-1.2598,5.1172v0.6836c0,2.6299,0.417,4.5342,1.25,5.7129s2.1943,1.7676,4.082,1.7676
		c1.5889,0,2.8125-0.6514,3.6719-1.9531s1.2891-3.1572,1.2891-5.5664c0-2.4219-0.4268-4.2549-1.2793-5.498
		S538.3652,936.6777,536.7119,936.6777z"/>
	<path fill="#4B5666" d="M570.9502,944.0801c0,3.5283-0.9053,6.2822-2.7148,8.2617s-4.3291,2.9688-7.5586,2.9688
		c-2.0186,0-3.8018-0.4561-5.3516-1.3672s-2.7412-2.2197-3.5742-3.9258s-1.25-3.6846-1.25-5.9375
		c0-3.5029,0.8984-6.2373,2.6953-8.2031s4.3291-2.9492,7.5977-2.9492c3.125,0,5.5986,1.0059,7.4219,3.0176
		S570.9502,940.6689,570.9502,944.0801z M555.2275,944.0801c0,4.9873,1.8428,7.4805,5.5273,7.4805
		c3.6455,0,5.4688-2.4932,5.4688-7.4805c0-4.9346-1.8359-7.4023-5.5078-7.4023c-1.9268,0-3.3232,0.6377-4.1895,1.9141
		S555.2275,941.6973,555.2275,944.0801z"/>
	<path fill="#4B5666" d="M574.9736,941.9512c0-4.8174,0.8174-8.5225,2.4512-11.1133s4.2354-4.2578,7.8027-5
		c2.6953-0.5469,5.8008-1.0811,9.3164-1.6016l0.6445,4.043c-4.2705,0.6514-7.3955,1.1592-9.375,1.5234
		c-2.0439,0.3779-3.5186,1.2178-4.4238,2.5195s-1.4287,3.2617-1.5723,5.8789h0.293c0.7422-1.0811,1.7119-1.917,2.9102-2.5098
		s2.4805-0.8887,3.8477-0.8887c2.6562,0,4.7266,0.8398,6.2109,2.5195s2.2266,4.0361,2.2266,7.0703
		c0,3.4766-0.9014,6.165-2.7051,8.0664s-4.2998,2.8516-7.4902,2.8516c-3.1641,0-5.6445-1.1719-7.4414-3.5156
		S574.9736,946.1699,574.9736,941.9512z M585.4229,951.5605c3.4111,0,5.1172-2.2393,5.1172-6.7188
		c0-4.3232-1.543-6.4844-4.6289-6.4844c-0.8467,0-1.667,0.1826-2.4609,0.5469s-1.5264,0.8467-2.1973,1.4453
		s-1.1885,1.2178-1.5527,1.8555c0,3.0732,0.4883,5.4004,1.4648,6.9824S583.5605,951.5605,585.4229,951.5605z"/>
	<path fill="#4B5666" d="M600.3057,927.5957c0-0.8203,0.2246-1.4521,0.6738-1.8945s1.0908-0.6641,1.9238-0.6641
		c0.8076,0,1.4355,0.2217,1.8848,0.6641s0.6738,1.0742,0.6738,1.8945c0,0.7812-0.2246,1.3965-0.6738,1.8457
		s-1.0771,0.6738-1.8848,0.6738c-0.833,0-1.4746-0.2246-1.9238-0.6738S600.3057,928.377,600.3057,927.5957z M605.1689,954.9199
		h-4.5898v-21.6016h4.5898V954.9199z"/>
	<path fill="#4B5666" d="M627.9619,933.3184v3.5938h-7.0312v18.0078h-4.6094v-18.0078H609.29v-3.5938H627.9619z"/>
	<path fill="#4B5666" d="M636.7119,941.9512h5.4102c6.0283,0,9.043,2.083,9.043,6.25c0,2.2002-0.7686,3.8701-2.3047,5.0098
		s-3.7822,1.709-6.7383,1.709h-10v-21.6016h4.5898V941.9512z M646.5557,948.3184c0-1.0811-0.4102-1.8359-1.2305-2.2656
		s-1.9795-0.6445-3.4766-0.6445h-5.1367v6.1133h5.2148c1.5107,0,2.6592-0.2734,3.4473-0.8203S646.5557,949.3604,646.5557,948.3184z"
		/>
	<path fill="#4B5666" d="M497.6006,989.9512c0-4.8174,0.8174-8.5225,2.4512-11.1133s4.2354-4.2578,7.8027-5
		c2.6953-0.5469,5.8008-1.0811,9.3164-1.6016l0.6445,4.043c-4.2705,0.6514-7.3955,1.1592-9.375,1.5234
		c-2.0439,0.3779-3.5186,1.2178-4.4238,2.5195s-1.4287,3.2617-1.5723,5.8789h0.293c0.7422-1.0811,1.7119-1.917,2.9102-2.5098
		s2.4805-0.8887,3.8477-0.8887c2.6562,0,4.7266,0.8398,6.2109,2.5195s2.2266,4.0361,2.2266,7.0703
		c0,3.4766-0.9014,6.165-2.7051,8.0664s-4.2998,2.8516-7.4902,2.8516c-3.1641,0-5.6445-1.1719-7.4414-3.5156
		S497.6006,994.1699,497.6006,989.9512z M508.0498,999.5605c3.4111,0,5.1172-2.2393,5.1172-6.7188
		c0-4.3232-1.543-6.4844-4.6289-6.4844c-0.8467,0-1.667,0.1826-2.4609,0.5469s-1.5264,0.8467-2.1973,1.4453
		s-1.1885,1.2178-1.5527,1.8555c0,3.0732,0.4883,5.4004,1.4648,6.9824S506.1875,999.5605,508.0498,999.5605z"/>
	<path fill="#4B5666" d="M532.6396,1003.3105c-3.3594,0-5.9863-0.9795-7.8809-2.9395s-2.8418-4.6582-2.8418-8.0957
		c0-3.5283,0.8789-6.3018,2.6367-8.3203s4.1729-3.0273,7.2461-3.0273c2.8516,0,5.1045,0.8662,6.7578,2.5977
		s2.4805,4.1143,2.4805,7.1484v2.4805h-14.3945c0.0654,2.0967,0.6318,3.708,1.6992,4.834s2.5713,1.6895,4.5117,1.6895
		c1.2764,0,2.4639-0.1201,3.5645-0.3613s2.2822-0.6416,3.5449-1.2012v3.7305c-1.1201,0.5342-2.2529,0.9111-3.3984,1.1328
		S534.1113,1003.3105,532.6396,1003.3105z M531.7998,984.4043c-1.458,0-2.627,0.4619-3.5059,1.3867s-1.4033,2.2725-1.5723,4.043
		h9.8047c-0.0264-1.7842-0.4561-3.1348-1.2891-4.0527S533.2578,984.4043,531.7998,984.4043z"/>
	<path fill="#4B5666" d="M551.0186,989.9512c2.0967,0,3.6396-0.2314,4.6289-0.6934s1.4844-1.1748,1.4844-2.1387
		c0-1.7578-1.5625-2.6367-4.6875-2.6367c-2.083,0-4.2119,0.4688-6.3867,1.4062l-1.4844-3.418
		c2.5127-1.0283,5.2861-1.543,8.3203-1.543c2.6826,0,4.7656,0.4912,6.25,1.4746s2.2266,2.3926,2.2266,4.2285
		c0,2.4219-1.3867,4.0107-4.1602,4.7656v0.1562c1.7314,0.4688,2.9717,1.1396,3.7207,2.0117s1.123,1.9531,1.123,3.2422
		c0,1.9795-0.8691,3.5576-2.6074,4.7363s-4.1631,1.7676-7.2754,1.7676c-3.3984,0-5.9961-0.4492-7.793-1.3477v-3.9648
		c2.3828,1.1201,4.8506,1.6797,7.4023,1.6797c1.8359,0,3.252-0.2568,4.248-0.7715s1.4941-1.2988,1.4941-2.3535
		c0-1.0811-0.501-1.875-1.5039-2.3828s-2.5518-0.7617-4.6484-0.7617h-2.6367v-3.457H551.0186z"/>
	<path fill="#4B5666" d="M585.9014,981.3184v21.6016h-4.6094v-17.9688h-9.6875v17.9688h-4.5898v-21.6016H585.9014z"/>
	<path fill="#4B5666" d="M601.8975,1003.3105c-3.3594,0-5.9863-0.9795-7.8809-2.9395s-2.8418-4.6582-2.8418-8.0957
		c0-3.5283,0.8789-6.3018,2.6367-8.3203s4.1729-3.0273,7.2461-3.0273c2.8516,0,5.1045,0.8662,6.7578,2.5977
		s2.4805,4.1143,2.4805,7.1484v2.4805h-14.3945c0.0654,2.0967,0.6318,3.708,1.6992,4.834s2.5713,1.6895,4.5117,1.6895
		c1.2764,0,2.4639-0.1201,3.5645-0.3613s2.2822-0.6416,3.5449-1.2012v3.7305c-1.1201,0.5342-2.2529,0.9111-3.3984,1.1328
		S603.3691,1003.3105,601.8975,1003.3105z M601.0576,984.4043c-1.458,0-2.627,0.4619-3.5059,1.3867s-1.4033,2.2725-1.5723,4.043
		h9.8047c-0.0264-1.7842-0.4561-3.1348-1.2891-4.0527S602.5156,984.4043,601.0576,984.4043z"/>
	<path fill="#4B5666" d="M628.9092,981.3184h5.0391l-8.9258,10.4102l9.6875,11.1914h-5.2734l-9.3359-10.957v10.957h-4.5898v-21.6016
		h4.5898v10.4883L628.9092,981.3184z"/>
	<path fill="#4B5666" d="M634.9834,981.3184h5l4.3945,12.2461c0.6641,1.7451,1.1064,3.3857,1.3281,4.9219h0.1562
		c0.1172-0.7158,0.332-1.585,0.6445-2.6074s1.9658-5.876,4.9609-14.5605h4.9609l-9.2383,24.4727
		c-1.6797,4.4922-4.4795,6.7383-8.3984,6.7383c-1.0156,0-2.0049-0.1104-2.9688-0.332v-3.6328
		c0.6904,0.1562,1.4775,0.2344,2.3633,0.2344c2.2139,0,3.7695-1.2822,4.668-3.8477l0.8008-2.0312L634.9834,981.3184z"/>
	<path fill="#4B5666" d="M457.4736,1029.3184v21.6016h-4.6094v-17.9688h-9.6875v17.9688h-4.5898v-21.6016H457.4736z"/>
	<path fill="#4B5666" d="M473.4697,1051.3105c-3.3594,0-5.9863-0.9795-7.8809-2.9395s-2.8418-4.6582-2.8418-8.0957
		c0-3.5283,0.8789-6.3018,2.6367-8.3203s4.1729-3.0273,7.2461-3.0273c2.8516,0,5.1045,0.8662,6.7578,2.5977
		s2.4805,4.1143,2.4805,7.1484v2.4805h-14.3945c0.0654,2.0967,0.6318,3.708,1.6992,4.834s2.5713,1.6895,4.5117,1.6895
		c1.2764,0,2.4639-0.1201,3.5645-0.3613s2.2822-0.6416,3.5449-1.2012v3.7305c-1.1201,0.5342-2.2529,0.9111-3.3984,1.1328
		S474.9414,1051.3105,473.4697,1051.3105z M472.6299,1032.4043c-1.458,0-2.627,0.4619-3.5059,1.3867s-1.4033,2.2725-1.5723,4.043
		h9.8047c-0.0264-1.7842-0.4561-3.1348-1.2891-4.0527S474.0879,1032.4043,472.6299,1032.4043z"/>
	<path fill="#4B5666" d="M498.04,1051.3105c-2.7344,0-4.8564-0.9834-6.3672-2.9492h-0.2734
		c0.1826,1.8232,0.2734,2.9297,0.2734,3.3203v8.8477h-4.5898v-31.2109h3.7109c0.1045,0.4033,0.3193,1.3672,0.6445,2.8906h0.2344
		c1.4326-2.1875,3.5811-3.2812,6.4453-3.2812c2.6953,0,4.7949,0.9766,6.2988,2.9297s2.2559,4.6943,2.2559,8.2227
		s-0.7646,6.2822-2.2949,8.2617S500.7354,1051.3105,498.04,1051.3105z M496.9268,1032.6777c-1.8232,0-3.1543,0.5342-3.9941,1.6016
		s-1.2598,2.7734-1.2598,5.1172v0.6836c0,2.6299,0.417,4.5342,1.25,5.7129s2.1943,1.7676,4.082,1.7676
		c1.5889,0,2.8125-0.6514,3.6719-1.9531s1.2891-3.1572,1.2891-5.5664c0-2.4219-0.4268-4.2549-1.2793-5.498
		S498.5801,1032.6777,496.9268,1032.6777z"/>
	<path fill="#4B5666" d="M521.4385,1051.3105c-3.3594,0-5.9863-0.9795-7.8809-2.9395s-2.8418-4.6582-2.8418-8.0957
		c0-3.5283,0.8789-6.3018,2.6367-8.3203s4.1729-3.0273,7.2461-3.0273c2.8516,0,5.1045,0.8662,6.7578,2.5977
		s2.4805,4.1143,2.4805,7.1484v2.4805h-14.3945c0.0654,2.0967,0.6318,3.708,1.6992,4.834s2.5713,1.6895,4.5117,1.6895
		c1.2764,0,2.4639-0.1201,3.5645-0.3613s2.2822-0.6416,3.5449-1.2012v3.7305c-1.1201,0.5342-2.2529,0.9111-3.3984,1.1328
		S522.9102,1051.3105,521.4385,1051.3105z M520.5986,1032.4043c-1.458,0-2.627,0.4619-3.5059,1.3867s-1.4033,2.2725-1.5723,4.043
		h9.8047c-0.0264-1.7842-0.4561-3.1348-1.2891-4.0527S522.0566,1032.4043,520.5986,1032.4043z"/>
	<path fill="#4B5666" d="M555.7744,1058.5566h-4.2773v-7.6367h-14.8047v7.6367h-4.2383v-11.1914h1.7578
		c1.5361-2.2002,2.7568-4.8604,3.6621-7.9785s1.4424-6.4746,1.6113-10.0684h13.125v18.0469h3.1641V1058.5566z M548.0986,1047.3652
		v-14.5312h-4.6484c-0.2471,2.6826-0.7646,5.3252-1.5527,7.9297s-1.748,4.8047-2.8809,6.6016H548.0986z"/>
	<path fill="#4B5666" d="M556.4971,1029.3184h5l4.3945,12.2461c0.6641,1.7451,1.1064,3.3857,1.3281,4.9219h0.1562
		c0.1172-0.7158,0.332-1.585,0.6445-2.6074s1.9658-5.876,4.9609-14.5605h4.9609l-9.2383,24.4727
		c-1.6797,4.4922-4.4795,6.7383-8.3984,6.7383c-1.0156,0-2.0049-0.1104-2.9688-0.332v-3.6328
		c0.6904,0.1562,1.4775,0.2344,2.3633,0.2344c2.2139,0,3.7695-1.2822,4.668-3.8477l0.8008-2.0312L556.4971,1029.3184z"/>
	<path fill="#4B5666" d="M593.626,1046.5254l0.2539-0.9375c0.5342-1.9404,0.9961-3.4307,1.3867-4.4727l4.8438-11.7969h6.1133
		v21.6016h-4.2383v-17.4414l-0.3516,1.1719c-0.5859,2.0967-1.0811,3.6396-1.4844,4.6289l-4.7266,11.6406h-3.4766l-4.7266-11.7188
		c-0.6514-1.6924-1.25-3.6006-1.7969-5.7227v17.4414h-4.1992v-21.6016h6.0742l4.6875,11.4453
		C592.4023,1041.8184,592.9492,1043.7393,593.626,1046.5254z"/>
	<path fill="#4B5666" d="M631.9463,1040.0801c0,3.5283-0.9053,6.2822-2.7148,8.2617s-4.3291,2.9688-7.5586,2.9688
		c-2.0186,0-3.8018-0.4561-5.3516-1.3672s-2.7412-2.2197-3.5742-3.9258s-1.25-3.6846-1.25-5.9375
		c0-3.5029,0.8984-6.2373,2.6953-8.2031s4.3291-2.9492,7.5977-2.9492c3.125,0,5.5986,1.0059,7.4219,3.0176
		S631.9463,1036.6689,631.9463,1040.0801z M616.2236,1040.0801c0,4.9873,1.8428,7.4805,5.5273,7.4805
		c3.6455,0,5.4688-2.4932,5.4688-7.4805c0-4.9346-1.8359-7.4023-5.5078-7.4023c-1.9268,0-3.3232,0.6377-4.1895,1.9141
		S616.2236,1037.6973,616.2236,1040.0801z"/>
	<path fill="#4B5666" d="M655.9697,1034.8457c0,2.5518-1.4912,4.0947-4.4727,4.6289v0.1562c1.667,0.1953,2.9424,0.7227,3.8281,1.582
		s1.3281,1.9727,1.3281,3.3398c0,2.0439-0.7783,3.6162-2.334,4.7168s-3.8184,1.6504-6.7871,1.6504h-10.3125v-21.6016h10.2734
		C653.1445,1029.3184,655.9697,1031.1611,655.9697,1034.8457z M651.3799,1035.2363c0-0.8594-0.335-1.4814-1.0059-1.8652
		s-1.6699-0.5762-2.998-0.5762h-5.5664v5.1953h4.8828c1.5361,0,2.7021-0.1982,3.4961-0.5957S651.3799,1036.2783,651.3799,1035.2363z
		 M651.9463,1044.2793c0-1.042-0.4033-1.7803-1.2109-2.2168s-2.0186-0.6543-3.6328-0.6543h-5.293v6.1133h5.4102
		C650.3711,1047.5215,651.9463,1046.4404,651.9463,1044.2793z"/>
	<path fill="#4B5666" d="M680.54,1040.0801c0,3.5283-0.9053,6.2822-2.7148,8.2617s-4.3291,2.9688-7.5586,2.9688
		c-2.0186,0-3.8018-0.4561-5.3516-1.3672s-2.7412-2.2197-3.5742-3.9258s-1.25-3.6846-1.25-5.9375
		c0-3.5029,0.8984-6.2373,2.6953-8.2031s4.3291-2.9492,7.5977-2.9492c3.125,0,5.5986,1.0059,7.4219,3.0176
		S680.54,1036.6689,680.54,1040.0801z M664.8174,1040.0801c0,4.9873,1.8428,7.4805,5.5273,7.4805
		c3.6455,0,5.4688-2.4932,5.4688-7.4805c0-4.9346-1.8359-7.4023-5.5078-7.4023c-1.9268,0-3.3232,0.6377-4.1895,1.9141
		S664.8174,1037.6973,664.8174,1040.0801z"/>
	<path fill="#4B5666" d="M714.6611,1040.0801c0,3.542-0.8623,6.2988-2.5879,8.2715s-4.1309,2.959-7.2168,2.959
		c-2.8389,0-5.0947-0.8369-6.7676-2.5098s-2.6465-4.0723-2.9199-7.1973h-4.7656v9.3164h-4.5898v-21.6016h4.5898v8.6719h4.8047
		c0.3252-2.8643,1.3311-5.0908,3.0176-6.6797s3.9229-2.3828,6.709-2.3828c2.9951,0,5.3643,1.0059,7.1094,3.0176
		S714.6611,1036.6689,714.6611,1040.0801z M699.8564,1040.0801c0,2.4609,0.3936,4.3232,1.1816,5.5859s2.0732,1.8945,3.8574,1.8945
		c1.7705,0,3.0537-0.6318,3.8477-1.8945s1.1914-3.125,1.1914-5.5859c0-2.4346-0.3975-4.2773-1.1914-5.5273
		s-2.0771-1.875-3.8477-1.875c-1.7842,0-3.0693,0.625-3.8574,1.875S699.8564,1037.6455,699.8564,1040.0801z"/>
</g>
<path fill="#4B5666" d="M609.6885,812.8311h-67.3799c-1.5449,0-2.7998,1.252-2.7998,2.7969l0.0029,25.9648
	c0,0.002,0.001,0.0059,0.001,0.0098c0,7.7988,0,15.6211,0,18.2344c0,5.7969,1.9561,14.1484,9.4453,22.5391
	c10.7305,12.0176,27.0439,16.9551,27.0439,16.9551s16.3125-4.9375,27.043-16.9551c7.4893-8.3906,9.4453-16.7422,9.4453-22.5391
	c0-2.6133,0-10.4355,0-18.2344c0-0.0039,0.001-0.0078,0.001-0.0098l-0.0039-25.9648
	C612.4873,814.083,611.2334,812.8311,609.6885,812.8311z M556.3057,878.9092c-0.3535,0.3145-0.7949,0.4688-1.2334,0.4688
	c-0.5107,0-1.0176-0.209-1.3838-0.6191c-7.3506-8.2324-8.4473-16.0156-8.4473-19.9219c0-1.0234,0.8291-1.8535,1.8525-1.8535
	s1.8545,0.8301,1.8545,1.8535c0,3.3789,0.9746,10.1387,7.5059,17.4531C557.1357,877.0537,557.0674,878.2256,556.3057,878.9092z
	 M606.7119,841.5029c-0.001,0.0312-0.001,0.0664-0.001,0.0996v18.2344c0,3.6426-1.0371,10.916-7.9766,18.6895
	c-7.5762,8.4863-18.5674,13.1426-22.7324,14.6895l-0.0039-74.6074h30.7109L606.7119,841.5029z"/>
<g>
	<path fill="#4B5666" d="M52.6841,590.5752H36.5317v-28.5547h16.1523v3.9453H41.1997v7.7734h10.7617v3.9062H41.1997v8.9648h11.4844
		V590.5752z"/>
	<path fill="#4B5666" d="M71.7661,568.9736h5.0391l-8.9258,10.4102l9.6875,11.1914h-5.2734l-9.3359-10.957v10.957h-4.5898v-21.6016
		h4.5898v10.4883L71.7661,568.9736z"/>
	<path fill="#4B5666" d="M89.8325,590.9658c-3.2686,0-5.752-0.9541-7.4512-2.8613s-2.5488-4.6455-2.5488-8.2129
		c0-3.6328,0.8887-6.4258,2.666-8.3789s4.3457-2.9297,7.7051-2.9297c2.2783,0,4.3291,0.4229,6.1523,1.2695l-1.3867,3.6914
		c-1.9404-0.7549-3.542-1.1328-4.8047-1.1328c-3.7373,0-5.6055,2.4805-5.6055,7.4414c0,2.4219,0.4653,4.2412,1.3965,5.459
		c0.9307,1.2178,2.2949,1.8262,4.0918,1.8262c2.0439,0,3.9775-0.5078,5.8008-1.5234v4.0039
		c-0.8203,0.4814-1.6963,0.8271-2.627,1.0352C92.29,590.8613,91.1606,590.9658,89.8325,590.9658z"/>
	<path fill="#4B5666" d="M119.813,568.9736v21.6016h-4.6094v-17.9688h-9.6875v17.9688h-4.5898v-21.6016H119.813z"/>
	<path fill="#4B5666" d="M135.8091,590.9658c-3.3594,0-5.9863-0.9795-7.8809-2.9395s-2.8418-4.6582-2.8418-8.0957
		c0-3.5283,0.8789-6.3018,2.6367-8.3203s4.1729-3.0273,7.2461-3.0273c2.8516,0,5.104,0.8662,6.7578,2.5977
		c1.6533,1.7314,2.4805,4.1143,2.4805,7.1484v2.4805H129.813c0.0649,2.0967,0.6313,3.708,1.6992,4.834
		c1.0674,1.126,2.5713,1.6895,4.5117,1.6895c1.2759,0,2.4639-0.1201,3.5645-0.3613c1.1001-0.2412,2.2817-0.6416,3.5449-1.2012
		v3.7305c-1.1201,0.5342-2.2529,0.9111-3.3984,1.1328C138.5889,590.8555,137.2803,590.9658,135.8091,590.9658z M134.9692,572.0596
		c-1.4585,0-2.627,0.4619-3.5059,1.3867s-1.4033,2.2725-1.5723,4.043h9.8047c-0.0264-1.7842-0.4561-3.1348-1.2891-4.0527
		C137.5732,572.5186,136.4272,572.0596,134.9692,572.0596z"/>
	<path fill="#4B5666" d="M160.3794,590.9658c-2.7344,0-4.8569-0.9834-6.3672-2.9492h-0.2734
		c0.1821,1.8232,0.2734,2.9297,0.2734,3.3203v8.8477h-4.5898v-31.2109h3.7109c0.104,0.4033,0.3188,1.3672,0.6445,2.8906h0.2344
		c1.4321-2.1875,3.5806-3.2812,6.4453-3.2812c2.6953,0,4.7949,0.9766,6.2988,2.9297s2.2559,4.6943,2.2559,8.2227
		s-0.7651,6.2822-2.2949,8.2617C165.187,589.9766,163.0747,590.9658,160.3794,590.9658z M159.2661,572.333
		c-1.8232,0-3.1543,0.5342-3.9941,1.6016s-1.2598,2.7734-1.2598,5.1172v0.6836c0,2.6299,0.4165,4.5342,1.25,5.7129
		c0.833,1.1787,2.1938,1.7676,4.082,1.7676c1.5884,0,2.8125-0.6514,3.6719-1.9531s1.2891-3.1572,1.2891-5.5664
		c0-2.4219-0.4268-4.2549-1.2793-5.498C162.1729,572.9551,160.9194,572.333,159.2661,572.333z"/>
	<path fill="#4B5666" d="M178.7388,568.9736v11.0742c0,1.2891-0.1045,3.1836-0.3125,5.6836l10.8398-16.7578h5.6055v21.6016h-4.4141
		v-10.8789c0-0.5986,0.0356-1.5693,0.1074-2.9102c0.0713-1.3408,0.1333-2.3174,0.1855-2.9297l-10.8008,16.7188h-5.6055v-21.6016
		H178.7388z"/>
	<path fill="#4B5666" d="M213.8169,586.1807l0.2539-0.9375c0.5337-1.9404,0.9961-3.4307,1.3867-4.4727l4.8438-11.7969h6.1133
		v21.6016h-4.2383v-17.4414l-0.3516,1.1719c-0.5859,2.0967-1.0811,3.6396-1.4844,4.6289l-4.7266,11.6406h-3.4766l-4.7266-11.7188
		c-0.6514-1.6924-1.25-3.6006-1.7969-5.7227v17.4414h-4.1992v-21.6016h6.0742l4.6875,11.4453
		C212.5928,581.4736,213.1396,583.3945,213.8169,586.1807z"/>
	<path fill="#4B5666" d="M242.4106,590.9658c-3.3594,0-5.9863-0.9795-7.8809-2.9395s-2.8418-4.6582-2.8418-8.0957
		c0-3.5283,0.8789-6.3018,2.6367-8.3203s4.1729-3.0273,7.2461-3.0273c2.8516,0,5.104,0.8662,6.7578,2.5977
		c1.6533,1.7314,2.4805,4.1143,2.4805,7.1484v2.4805h-14.3945c0.0649,2.0967,0.6313,3.708,1.6992,4.834
		c1.0674,1.126,2.5713,1.6895,4.5117,1.6895c1.2759,0,2.4639-0.1201,3.5645-0.3613c1.1001-0.2412,2.2817-0.6416,3.5449-1.2012
		v3.7305c-1.1201,0.5342-2.2529,0.9111-3.3984,1.1328C245.1904,590.8555,243.8818,590.9658,242.4106,590.9658z M241.5708,572.0596
		c-1.4585,0-2.627,0.4619-3.5059,1.3867s-1.4033,2.2725-1.5723,4.043h9.8047c-0.0264-1.7842-0.4561-3.1348-1.2891-4.0527
		C244.1748,572.5186,243.0288,572.0596,241.5708,572.0596z"/>
	<path fill="#4B5666" d="M260.6138,568.9736v8.6719h10.1758v-8.6719h4.5898v21.6016h-4.5898v-9.3164h-10.1758v9.3164h-4.5898
		v-21.6016H260.6138z"/>
	<path fill="#4B5666" d="M298.1724,568.9736v3.5938h-7.0312v18.0078h-4.6094v-18.0078h-7.0312v-3.5938H298.1724z"/>
	<path fill="#4B5666" d="M299.0513,568.9736h5l4.3945,12.2461c0.6641,1.7451,1.1064,3.3857,1.3281,4.9219h0.1562
		c0.1172-0.7158,0.332-1.585,0.6445-2.6074s1.9658-5.876,4.9609-14.5605h4.9609l-9.2383,24.4727
		c-1.6797,4.4922-4.4795,6.7383-8.3984,6.7383c-1.0156,0-2.0054-0.1104-2.9688-0.332v-3.6328
		c0.6899,0.1562,1.4775,0.2344,2.3633,0.2344c2.2134,0,3.7695-1.2822,4.668-3.8477l0.8008-2.0312L299.0513,568.9736z"/>
	<path fill="#4B5666" d="M328.1724,568.9736v11.0742c0,1.2891-0.1045,3.1836-0.3125,5.6836l10.8398-16.7578h5.6055v21.6016h-4.4141
		v-10.8789c0-0.5986,0.0356-1.5693,0.1074-2.9102c0.0713-1.3408,0.1333-2.3174,0.1855-2.9297l-10.8008,16.7188h-5.6055v-21.6016
		H328.1724z M333.895,566.3369c-2.7607,0-4.7822-0.498-6.0645-1.4941c-1.2827-0.9961-1.9956-2.6592-2.1387-4.9902h4.1602
		c0.0781,0.9375,0.2568,1.667,0.5371,2.1875c0.2798,0.5205,0.6836,0.8955,1.2109,1.123s1.3311,0.3418,2.4121,0.3418
		c1.2759,0,2.2461-0.2832,2.9102-0.8496s1.0674-1.501,1.2109-2.8027h4.2383c-0.1953,2.2393-0.9834,3.8799-2.3633,4.9219
		C338.6279,565.8164,336.5903,566.3369,333.895,566.3369z"/>
	<path fill="#4B5666" d="M367.0786,568.9736v3.5938h-7.0312v18.0078h-4.6094v-18.0078h-7.0312v-3.5938H367.0786z"/>
	<path fill="#4B5666" d="M380.6729,590.9658c-3.3599,0-5.9868-0.9795-7.8813-2.9395s-2.8418-4.6582-2.8418-8.0957
		c0-3.5283,0.8789-6.3018,2.6367-8.3203s4.1729-3.0273,7.2466-3.0273c2.8516,0,5.1035,0.8662,6.7578,2.5977
		c1.6533,1.7314,2.4795,4.1143,2.4795,7.1484v2.4805h-14.394c0.0649,2.0967,0.6313,3.708,1.6992,4.834
		c1.0674,1.126,2.5713,1.6895,4.5122,1.6895c1.2754,0,2.4629-0.1201,3.5645-0.3613c1.0996-0.2412,2.2812-0.6416,3.5439-1.2012
		v3.7305c-1.1191,0.5342-2.2529,0.9111-3.3975,1.1328C383.4521,590.8555,382.1436,590.9658,380.6729,590.9658z M379.833,572.0596
		c-1.459,0-2.6274,0.4619-3.5063,1.3867s-1.4033,2.2725-1.5723,4.043h9.8052c-0.0273-1.7842-0.457-3.1348-1.2891-4.0527
		C382.4365,572.5186,381.29,572.0596,379.833,572.0596z"/>
	<path fill="#4B5666" d="M130.1841,611.251c0-0.8203,0.2246-1.4521,0.6738-1.8945s1.0903-0.6641,1.9238-0.6641
		c0.8071,0,1.4355,0.2217,1.8848,0.6641s0.6738,1.0742,0.6738,1.8945c0,0.7812-0.2246,1.3965-0.6738,1.8457
		s-1.0776,0.6738-1.8848,0.6738c-0.8335,0-1.4746-0.2246-1.9238-0.6738S130.1841,612.0322,130.1841,611.251z M135.0474,638.5752
		h-4.5898v-21.6016h4.5898V638.5752z"/>
	<path fill="#4B5666" d="M170.7505,622.501c0,2.5518-1.4912,4.0947-4.4727,4.6289v0.1562c1.6665,0.1953,2.9424,0.7227,3.8281,1.582
		c0.8853,0.8594,1.3281,1.9727,1.3281,3.3398c0,2.0439-0.7783,3.6162-2.334,4.7168c-1.5562,1.1006-3.8184,1.6504-6.7871,1.6504
		h-10.3125v-21.6016h10.2734C167.9248,616.9736,170.7505,618.8164,170.7505,622.501z M166.1606,622.8916
		c0-0.8594-0.3354-1.4814-1.0059-1.8652c-0.6709-0.3838-1.6699-0.5762-2.998-0.5762h-5.5664v5.1953h4.8828
		c1.5361,0,2.7017-0.1982,3.4961-0.5957C165.7632,624.6523,166.1606,623.9336,166.1606,622.8916z M166.7271,631.9346
		c0-1.042-0.4038-1.7803-1.2109-2.2168c-0.8076-0.4365-2.0186-0.6543-3.6328-0.6543h-5.293v6.1133h5.4102
		C165.1514,635.1768,166.7271,634.0957,166.7271,631.9346z"/>
	<path fill="#4B5666" d="M180.2036,616.9736v7.8906c0,2.2139,1.1455,3.3203,3.4375,3.3203c1.1064,0,2.1875-0.1533,3.2422-0.459
		s2.1875-0.7979,3.3984-1.4746v-9.2773h4.5898v21.6016h-4.5898v-9.1602c-1.2632,0.7812-2.4839,1.3574-3.6621,1.7285
		c-1.1787,0.3711-2.4644,0.5566-3.8574,0.5566c-2.2529,0-4.0107-0.583-5.2734-1.748c-1.2632-1.165-1.8945-2.7959-1.8945-4.8926
		v-8.0859H180.2036z"/>
	<path fill="#4B5666" d="M201.1606,611.251c0-0.8203,0.2246-1.4521,0.6738-1.8945s1.0903-0.6641,1.9238-0.6641
		c0.8071,0,1.4355,0.2217,1.8848,0.6641s0.6738,1.0742,0.6738,1.8945c0,0.7812-0.2246,1.3965-0.6738,1.8457
		s-1.0776,0.6738-1.8848,0.6738c-0.8335,0-1.4746-0.2246-1.9238-0.6738S201.1606,612.0322,201.1606,611.251z M206.0239,638.5752
		h-4.5898v-21.6016h4.5898V638.5752z"/>
	<path fill="#4B5666" d="M228.8169,616.9736v3.5938h-7.0312v18.0078h-4.6094v-18.0078h-7.0312v-3.5938H228.8169z"/>
	<path fill="#4B5666" d="M237.5669,625.6064h5.4102c6.0283,0,9.043,2.083,9.043,6.25c0,2.2002-0.7686,3.8701-2.3047,5.0098
		c-1.5366,1.1396-3.7827,1.709-6.7383,1.709h-10v-21.6016h4.5898V625.6064z M247.4106,631.9736
		c0-1.0811-0.4102-1.8359-1.2305-2.2656s-1.9795-0.6445-3.4766-0.6445h-5.1367v6.1133h5.2148c1.5103,0,2.6592-0.2734,3.4473-0.8203
		C247.0166,633.8096,247.4106,633.0156,247.4106,631.9736z"/>
	<path fill="#4B5666" d="M265.8091,638.9658c-3.2686,0-5.752-0.9541-7.4512-2.8613s-2.5488-4.6455-2.5488-8.2129
		c0-3.6328,0.8887-6.4258,2.666-8.3789s4.3457-2.9297,7.7051-2.9297c2.2783,0,4.3291,0.4229,6.1523,1.2695l-1.3867,3.6914
		c-1.9404-0.7549-3.542-1.1328-4.8047-1.1328c-3.7373,0-5.6055,2.4805-5.6055,7.4414c0,2.4219,0.4653,4.2412,1.3965,5.459
		c0.9307,1.2178,2.2949,1.8262,4.0918,1.8262c2.0439,0,3.9775-0.5078,5.8008-1.5234v4.0039
		c-0.8203,0.4814-1.6963,0.8271-2.627,1.0352C268.2666,638.8613,267.1372,638.9658,265.8091,638.9658z"/>
	<path fill="#4B5666" d="M279.1099,638.5752h-5.1367l6.0156-8.8477c-1.4585-0.417-2.6045-1.1621-3.4375-2.2363
		c-0.8335-1.0742-1.25-2.4053-1.25-3.9941c0-2.0439,0.729-3.6426,2.1875-4.7949c1.458-1.1523,3.4502-1.7285,5.9766-1.7285h9.8438
		v21.6016h-4.6094v-8.3203h-4.3555L279.1099,638.5752z M279.7739,623.5361c0,1.1064,0.4199,1.9365,1.2598,2.4902
		s1.9692,0.8301,3.3887,0.8301h4.2773v-6.4062h-5c-1.25,0-2.2168,0.2666-2.9004,0.8008S279.7739,622.5469,279.7739,623.5361z"/>
	<path fill="#4B5666" d="M143.4067,682.1807l0.2539-0.9375c0.5337-1.9404,0.9961-3.4307,1.3867-4.4727l4.8438-11.7969h6.1133
		v21.6016h-4.2383v-17.4414l-0.3516,1.1719c-0.5859,2.0967-1.0811,3.6396-1.4844,4.6289l-4.7266,11.6406h-3.4766l-4.7266-11.7188
		c-0.6514-1.6924-1.25-3.6006-1.7969-5.7227v17.4414h-4.1992v-21.6016h6.0742l4.6875,11.4453
		C142.1826,677.4736,142.7295,679.3945,143.4067,682.1807z"/>
	<path fill="#4B5666" d="M166.9614,664.9736v11.0742c0,1.2891-0.1045,3.1836-0.3125,5.6836l10.8398-16.7578h5.6055v21.6016h-4.4141
		v-10.8789c0-0.5986,0.0356-1.5693,0.1074-2.9102c0.0713-1.3408,0.1333-2.3174,0.1855-2.9297l-10.8008,16.7188h-5.6055v-21.6016
		H166.9614z"/>
	<path fill="#4B5666" d="M205.8677,664.9736v3.5938h-7.0312v18.0078h-4.6094v-18.0078h-7.0312v-3.5938H205.8677z"/>
	<path fill="#4B5666" d="M226.2583,664.9736v3.5938h-7.0312v18.0078h-4.6094v-18.0078h-7.0312v-3.5938H226.2583z"/>
	<path fill="#4B5666" d="M239.6958,686.9658c-3.4375,0-6.0581-0.9443-7.8613-2.832c-1.8037-1.8877-2.7051-4.6357-2.7051-8.2422
		c0-3.7109,0.8818-6.5234,2.6465-8.4375c1.7642-1.9141,4.417-2.8711,7.959-2.8711c2.3828,0,4.5181,0.4229,6.4062,1.2695
		l-1.3672,3.4766c-2.0054-0.7422-3.7241-1.1133-5.1562-1.1133c-1.7451,0-3.0796,0.4619-4.0039,1.3867
		c-0.9248,0.9248-1.4976,2.3438-1.7188,4.2578h9.5312v3.3594h-9.5312c0.1431,2.0967,0.6704,3.6396,1.582,4.6289
		c0.9111,0.9893,2.2524,1.4844,4.0234,1.4844c1.979,0,4.0298-0.4561,6.1523-1.3672v3.7305
		C243.9341,686.543,241.9482,686.9658,239.6958,686.9658z"/>
	<path fill="#4B5666" d="M269.481,670.501c0,2.5518-1.4912,4.0947-4.4727,4.6289v0.1562c1.6665,0.1953,2.9424,0.7227,3.8281,1.582
		c0.8853,0.8594,1.3281,1.9727,1.3281,3.3398c0,2.0439-0.7783,3.6162-2.334,4.7168c-1.5562,1.1006-3.8184,1.6504-6.7871,1.6504
		H250.731v-21.6016h10.2734C266.6553,664.9736,269.481,666.8164,269.481,670.501z M264.8911,670.8916
		c0-0.8594-0.3354-1.4814-1.0059-1.8652c-0.6709-0.3838-1.6699-0.5762-2.998-0.5762h-5.5664v5.1953h4.8828
		c1.5361,0,2.7017-0.1982,3.4961-0.5957C264.4937,672.6523,264.8911,671.9336,264.8911,670.8916z M265.4575,679.9346
		c0-1.042-0.4038-1.7803-1.2109-2.2168c-0.8076-0.4365-2.0186-0.6543-3.6328-0.6543h-5.293v6.1133h5.4102
		C263.8818,683.1768,265.4575,682.0957,265.4575,679.9346z"/>
	<path fill="#4B5666" d="M294.0513,675.7354c0,3.5283-0.9053,6.2822-2.7148,8.2617c-1.8101,1.9795-4.3296,2.9688-7.5586,2.9688
		c-2.0186,0-3.8022-0.4561-5.3516-1.3672c-1.5498-0.9111-2.7412-2.2197-3.5742-3.9258c-0.8335-1.7061-1.25-3.6846-1.25-5.9375
		c0-3.5029,0.8984-6.2373,2.6953-8.2031s4.3291-2.9492,7.5977-2.9492c3.125,0,5.5986,1.0059,7.4219,3.0176
		C293.1396,669.6123,294.0513,672.3242,294.0513,675.7354z M278.3286,675.7354c0,4.9873,1.8423,7.4805,5.5273,7.4805
		c3.6455,0,5.4688-2.4932,5.4688-7.4805c0-4.9346-1.8359-7.4023-5.5078-7.4023c-1.9272,0-3.3237,0.6377-4.1895,1.9141
		C278.7612,671.5234,278.3286,673.3525,278.3286,675.7354z"/>
</g>
<path fill-rule="evenodd" clip-rule="evenodd" fill="#4B5666" d="M243.4507,506.4004c0,11.8926-6.5791,22.2422-16.2925,27.623
	c0,0-1.1807,0.6758-2.7192,0.9424c-1.4961,0.2578-2.6011,0.3066-2.6011,0.3066h-9.9546h-9.9531c0,0-1.1064-0.0488-2.603-0.3066
	c-1.5381-0.2666-2.7188-0.9424-2.7188-0.9424c-9.7134-5.3809-16.2925-15.7305-16.2925-27.623
	c0-13.1309,8.019-24.3857,19.4258-29.1436v-17.9307c-1.5508,0-2.8081-1.2578-2.8081-2.8066v-4.9395
	c0-1.5508,1.2573-2.8076,2.8081-2.8076h24.2832c1.5508,0,2.8086,1.2568,2.8086,2.8076v4.9395c0,1.5488-1.2578,2.8066-2.8086,2.8066
	v17.9307C235.4316,482.0146,243.4507,493.2695,243.4507,506.4004z M220.0063,450.6797h-16.2451
	c-1.0239,0-1.8535,0.8311-1.8535,1.8545c0,1.0244,0.8296,1.8535,1.8535,1.8535h16.2451c1.0239,0,1.8545-0.8291,1.8545-1.8535
	C221.8608,451.5107,221.0303,450.6797,220.0063,450.6797z M221.8008,482.5908c-2.1523-0.8975-3.5557-3.002-3.5557-5.334v-17.9307
	h-12.7236v17.9307c0,2.332-1.4023,4.4365-3.5552,5.334c-9.6401,4.0215-15.8711,13.3682-15.8711,23.8096
	c0,9.3691,5.1001,18.0166,13.3096,22.5664c0.1255,0.0625,0.5244,0.2373,0.9072,0.3047c0.853,0.1465,1.54,0.2031,1.7881,0.2207
	h9.7832h9.7852c0.2339-0.0156,0.9263-0.0723,1.7881-0.2217c0.3828-0.0664,0.7793-0.2412,0.9053-0.3037
	c8.2095-4.5498,13.3096-13.1973,13.3096-22.5664C237.6714,495.959,231.4419,486.6123,221.8008,482.5908z M233.9639,506.4004
	c0,7.9629-4.3003,15.3135-11.2388,19.2344c-0.5337,0.0879-0.9756,0.1328-1.2031,0.1504h-19.2817
	c-0.2104-0.0176-0.6558-0.0615-1.1963-0.1504c-6.939-3.9199-11.2427-11.2715-11.2427-19.2344c0-2.8027,0.5332-5.4854,1.4907-7.9551
	h41.1841C233.4336,500.915,233.9639,503.5977,233.9639,506.4004z M205.1714,518.9609c-4.7559-3.0137-7.7012-8.3418-7.7012-13.9648
	c0-1.0234-0.8296-1.8525-1.854-1.8525c-1.0229,0-1.854,0.8291-1.854,1.8525c0,6.9775,3.7026,13.5859,9.6621,17.2441l0.3779,0.2197
	l0.5547,0.0596c0.0537,0.0049,0.1069,0.0068,0.1611,0.0068c0.9482,0,1.7227-0.7314,1.8062-1.6963
	C206.395,520.0107,205.8979,519.2676,205.1714,518.9609z"/>
<g>
	<path fill="#4B5666" d="M847.7939,590.5752h-4.6875v-24.5508h-12.5977v24.5508h-4.668v-28.5547h21.9531V590.5752z"/>
	<path fill="#4B5666" d="M873.9854,579.7354c0,3.5283-0.9053,6.2822-2.7148,8.2617s-4.3291,2.9688-7.5586,2.9688
		c-2.0186,0-3.8018-0.4561-5.3516-1.3672s-2.7412-2.2197-3.5742-3.9258s-1.25-3.6846-1.25-5.9375
		c0-3.5029,0.8984-6.2373,2.6953-8.2031s4.3291-2.9492,7.5977-2.9492c3.125,0,5.5986,1.0059,7.4219,3.0176
		S873.9854,576.3242,873.9854,579.7354z M858.2627,579.7354c0,4.9873,1.8428,7.4805,5.5273,7.4805
		c3.6455,0,5.4688-2.4932,5.4688-7.4805c0-4.9346-1.8359-7.4023-5.5078-7.4023c-1.9268,0-3.3232,0.6377-4.1895,1.9141
		S858.2627,577.3525,858.2627,579.7354z"/>
	<path fill="#4B5666" d="M887.9697,590.9658c-3.2686,0-5.752-0.9541-7.4512-2.8613s-2.5488-4.6455-2.5488-8.2129
		c0-3.6328,0.8887-6.4258,2.666-8.3789s4.3457-2.9297,7.7051-2.9297c2.2783,0,4.3291,0.4229,6.1523,1.2695l-1.3867,3.6914
		c-1.9404-0.7549-3.542-1.1328-4.8047-1.1328c-3.7373,0-5.6055,2.4805-5.6055,7.4414c0,2.4219,0.4658,4.2412,1.3965,5.459
		s2.2949,1.8262,4.0918,1.8262c2.0439,0,3.9775-0.5078,5.8008-1.5234v4.0039c-0.8203,0.4814-1.6963,0.8271-2.627,1.0352
		S889.2979,590.9658,887.9697,590.9658z"/>
	<path fill="#4B5666" d="M915.2939,568.9736v3.5938h-7.0312v18.0078h-4.6094v-18.0078h-7.0312v-3.5938H915.2939z"/>
	<path fill="#4B5666" d="M932.9697,590.5752l-0.918-3.0078h-0.1562c-1.042,1.3154-2.0898,2.21-3.1445,2.6855
		s-2.4092,0.7129-4.0625,0.7129c-2.1221,0-3.7793-0.5732-4.9707-1.7188s-1.7871-2.7666-1.7871-4.8633
		c0-2.2266,0.8271-3.9062,2.4805-5.0391s4.1729-1.751,7.5586-1.8555l3.7305-0.1172v-1.1523c0-1.3799-0.3223-2.4121-0.9668-3.0957
		s-1.6436-1.0254-2.998-1.0254c-1.1064,0-2.168,0.1631-3.1836,0.4883s-1.9922,0.71-2.9297,1.1523l-1.4844-3.2812
		c1.1719-0.6123,2.4541-1.0771,3.8477-1.3965s2.708-0.4785,3.9453-0.4785c2.7471,0,4.8213,0.5986,6.2207,1.7969
		s2.0996,3.0791,2.0996,5.6445v14.5508H932.9697z M926.1338,587.4502c1.667,0,3.0049-0.4658,4.0137-1.3965
		s1.5137-2.2363,1.5137-3.916v-1.875l-2.7734,0.1172c-2.1611,0.0781-3.7334,0.4395-4.7168,1.084s-1.4746,1.6309-1.4746,2.959
		c0,0.9639,0.2861,1.709,0.8594,2.2363S924.9883,587.4502,926.1338,587.4502z"/>
	<path fill="#4B5666" d="M946.7002,568.9736v7.8906c0,2.2139,1.1455,3.3203,3.4375,3.3203c1.1064,0,2.1875-0.1533,3.2422-0.459
		s2.1875-0.7979,3.3984-1.4746v-9.2773h4.5898v21.6016h-4.5898v-9.1602c-1.2627,0.7812-2.4834,1.3574-3.6621,1.7285
		s-2.4639,0.5566-3.8574,0.5566c-2.2529,0-4.0107-0.583-5.2734-1.748s-1.8945-2.7959-1.8945-4.8926v-8.0859H946.7002z"/>
	<path fill="#4B5666" d="M981.4463,590.5752l-0.918-3.0078h-0.1562c-1.042,1.3154-2.0898,2.21-3.1445,2.6855
		s-2.4092,0.7129-4.0625,0.7129c-2.1221,0-3.7793-0.5732-4.9707-1.7188s-1.7871-2.7666-1.7871-4.8633
		c0-2.2266,0.8271-3.9062,2.4805-5.0391s4.1729-1.751,7.5586-1.8555l3.7305-0.1172v-1.1523c0-1.3799-0.3223-2.4121-0.9668-3.0957
		s-1.6436-1.0254-2.998-1.0254c-1.1064,0-2.168,0.1631-3.1836,0.4883s-1.9922,0.71-2.9297,1.1523l-1.4844-3.2812
		c1.1719-0.6123,2.4541-1.0771,3.8477-1.3965s2.708-0.4785,3.9453-0.4785c2.7471,0,4.8213,0.5986,6.2207,1.7969
		s2.0996,3.0791,2.0996,5.6445v14.5508H981.4463z M974.6104,587.4502c1.667,0,3.0049-0.4658,4.0137-1.3965
		s1.5137-2.2363,1.5137-3.916v-1.875l-2.7734,0.1172c-2.1611,0.0781-3.7334,0.4395-4.7168,1.084s-1.4746,1.6309-1.4746,2.959
		c0,0.9639,0.2861,1.709,0.8594,2.2363S973.4648,587.4502,974.6104,587.4502z"/>
	<path fill="#4B5666" d="M995.5283,568.9736v11.0742c0,1.2891-0.1045,3.1836-0.3125,5.6836l10.8398-16.7578h5.6055v21.6016h-4.4141
		v-10.8789c0-0.5986,0.0361-1.5693,0.1074-2.9102s0.1338-2.3174,0.1855-2.9297l-10.8008,16.7188h-5.6055v-21.6016H995.5283z
		 M1001.251,566.3369c-2.7607,0-4.7822-0.498-6.0645-1.4941s-1.9951-2.6592-2.1387-4.9902h4.1602
		c0.0781,0.9375,0.2568,1.667,0.5371,2.1875s0.6836,0.8955,1.2109,1.123s1.3311,0.3418,2.4121,0.3418
		c1.2764,0,2.2461-0.2832,2.9102-0.8496s1.0674-1.501,1.2109-2.8027h4.2383c-0.1953,2.2393-0.9834,3.8799-2.3633,4.9219
		S1003.9463,566.3369,1001.251,566.3369z"/>
	<path fill="#4B5666" d="M1034.4346,568.9736v3.5938h-7.0312v18.0078h-4.6094v-18.0078h-7.0312v-3.5938H1034.4346z"/>
	<path fill="#4B5666" d="M1048.0283,590.9658c-3.3594,0-5.9863-0.9795-7.8809-2.9395s-2.8418-4.6582-2.8418-8.0957
		c0-3.5283,0.8789-6.3018,2.6367-8.3203s4.1729-3.0273,7.2461-3.0273c2.8516,0,5.1045,0.8662,6.7578,2.5977
		s2.4805,4.1143,2.4805,7.1484v2.4805h-14.3945c0.0654,2.0967,0.6318,3.708,1.6992,4.834s2.5713,1.6895,4.5117,1.6895
		c1.2764,0,2.4639-0.1201,3.5645-0.3613s2.2822-0.6416,3.5449-1.2012v3.7305c-1.1201,0.5342-2.2529,0.9111-3.3984,1.1328
		S1049.5,590.9658,1048.0283,590.9658z M1047.1885,572.0596c-1.458,0-2.627,0.4619-3.5059,1.3867s-1.4033,2.2725-1.5723,4.043
		h9.8047c-0.0264-1.7842-0.4561-3.1348-1.2891-4.0527S1048.6465,572.0596,1047.1885,572.0596z"/>
	<path fill="#4B5666" d="M880.3623,635.0205h3.125v11.1523h-4.3164v-7.5977H861.124v-21.6016h4.5898v17.9688h10.0586v-17.9688
		h4.5898V635.0205z"/>
	<path fill="#4B5666" d="M887.1396,611.251c0-0.8203,0.2246-1.4521,0.6738-1.8945s1.0908-0.6641,1.9238-0.6641
		c0.8076,0,1.4355,0.2217,1.8848,0.6641s0.6738,1.0742,0.6738,1.8945c0,0.7812-0.2246,1.3965-0.6738,1.8457
		s-1.0771,0.6738-1.8848,0.6738c-0.833,0-1.4746-0.2246-1.9238-0.6738S887.1396,612.0322,887.1396,611.251z M892.0029,638.5752
		h-4.5898v-21.6016h4.5898V638.5752z"/>
	<path fill="#4B5666" d="M903.1553,616.9736v8.6719h10.1758v-8.6719h4.5898v21.6016h-4.5898v-9.3164h-10.1758v9.3164h-4.5898
		v-21.6016H903.1553z"/>
	<path fill="#4B5666" d="M929.0732,616.9736v8.6719h10.1758v-8.6719h4.5898v21.6016h-4.5898v-9.3164h-10.1758v9.3164h-4.5898
		v-21.6016H929.0732z"/>
	<path fill="#4B5666" d="M950.1279,611.251c0-0.8203,0.2246-1.4521,0.6738-1.8945s1.0908-0.6641,1.9238-0.6641
		c0.8076,0,1.4355,0.2217,1.8848,0.6641s0.6738,1.0742,0.6738,1.8945c0,0.7812-0.2246,1.3965-0.6738,1.8457
		s-1.0771,0.6738-1.8848,0.6738c-0.833,0-1.4746-0.2246-1.9238-0.6738S950.1279,612.0322,950.1279,611.251z M954.9912,638.5752
		h-4.5898v-21.6016h4.5898V638.5752z"/>
	<path fill="#4B5666" d="M970.2646,638.9658c-3.2686,0-5.752-0.9541-7.4512-2.8613s-2.5488-4.6455-2.5488-8.2129
		c0-3.6328,0.8887-6.4258,2.666-8.3789s4.3457-2.9297,7.7051-2.9297c2.2783,0,4.3291,0.4229,6.1523,1.2695l-1.3867,3.6914
		c-1.9404-0.7549-3.542-1.1328-4.8047-1.1328c-3.7373,0-5.6055,2.4805-5.6055,7.4414c0,2.4219,0.4658,4.2412,1.3965,5.459
		s2.2949,1.8262,4.0918,1.8262c2.0439,0,3.9775-0.5078,5.8008-1.5234v4.0039c-0.8203,0.4814-1.6963,0.8271-2.627,1.0352
		S971.5928,638.9658,970.2646,638.9658z"/>
	<path fill="#4B5666" d="M997.5889,616.9736v3.5938h-7.0312v18.0078h-4.6094v-18.0078h-7.0312v-3.5938H997.5889z"/>
	<path fill="#4B5666" d="M1006.3389,625.6064h5.4102c6.0283,0,9.043,2.083,9.043,6.25c0,2.2002-0.7686,3.8701-2.3047,5.0098
		s-3.7822,1.709-6.7383,1.709h-10v-21.6016h4.5898V625.6064z M1016.1826,631.9736c0-1.0811-0.4102-1.8359-1.2305-2.2656
		s-1.9795-0.6445-3.4766-0.6445h-5.1367v6.1133h5.2148c1.5107,0,2.6592-0.2734,3.4473-0.8203S1016.1826,633.0156,1016.1826,631.9736
		z"/>
	<path fill="#4B5666" d="M873.0576,664.9736v21.6016h-4.6094v-17.9688h-9.6875v17.9688h-4.5898v-21.6016H873.0576z"/>
	<path fill="#4B5666" d="M898.7803,675.7354c0,3.5283-0.9053,6.2822-2.7148,8.2617s-4.3291,2.9688-7.5586,2.9688
		c-2.0186,0-3.8018-0.4561-5.3516-1.3672s-2.7412-2.2197-3.5742-3.9258s-1.25-3.6846-1.25-5.9375
		c0-3.5029,0.8984-6.2373,2.6953-8.2031s4.3291-2.9492,7.5977-2.9492c3.125,0,5.5986,1.0059,7.4219,3.0176
		S898.7803,672.3242,898.7803,675.7354z M883.0576,675.7354c0,4.9873,1.8428,7.4805,5.5273,7.4805
		c3.6455,0,5.4688-2.4932,5.4688-7.4805c0-4.9346-1.8359-7.4023-5.5078-7.4023c-1.9268,0-3.3232,0.6377-4.1895,1.9141
		S883.0576,673.3525,883.0576,675.7354z"/>
	<path fill="#4B5666" d="M912.7646,686.9658c-3.2686,0-5.752-0.9541-7.4512-2.8613s-2.5488-4.6455-2.5488-8.2129
		c0-3.6328,0.8887-6.4258,2.666-8.3789s4.3457-2.9297,7.7051-2.9297c2.2783,0,4.3291,0.4229,6.1523,1.2695l-1.3867,3.6914
		c-1.9404-0.7549-3.542-1.1328-4.8047-1.1328c-3.7373,0-5.6055,2.4805-5.6055,7.4414c0,2.4219,0.4658,4.2412,1.3965,5.459
		s2.2949,1.8262,4.0918,1.8262c2.0439,0,3.9775-0.5078,5.8008-1.5234v4.0039c-0.8203,0.4814-1.6963,0.8271-2.627,1.0352
		S914.0928,686.9658,912.7646,686.9658z"/>
	<path fill="#4B5666" d="M940.0889,664.9736v3.5938h-7.0312v18.0078h-4.6094v-18.0078h-7.0312v-3.5938H940.0889z"/>
	<path fill="#4B5666" d="M943.9756,659.251c0-0.8203,0.2246-1.4521,0.6738-1.8945s1.0908-0.6641,1.9238-0.6641
		c0.8076,0,1.4355,0.2217,1.8848,0.6641s0.6738,1.0742,0.6738,1.8945c0,0.7812-0.2246,1.3965-0.6738,1.8457
		s-1.0771,0.6738-1.8848,0.6738c-0.833,0-1.4746-0.2246-1.9238-0.6738S943.9756,660.0322,943.9756,659.251z M948.8389,686.5752
		h-4.5898v-21.6016h4.5898V686.5752z"/>
	<path fill="#4B5666" d="M959.7959,664.9736v11.0742c0,1.2891-0.1045,3.1836-0.3125,5.6836l10.8398-16.7578h5.6055v21.6016h-4.4141
		v-10.8789c0-0.5986,0.0361-1.5693,0.1074-2.9102s0.1338-2.3174,0.1855-2.9297l-10.8008,16.7188h-5.6055v-21.6016H959.7959z
		 M965.5186,662.3369c-2.7607,0-4.7822-0.498-6.0645-1.4941s-1.9951-2.6592-2.1387-4.9902h4.1602
		c0.0781,0.9375,0.2568,1.667,0.5371,2.1875s0.6836,0.8955,1.2109,1.123s1.3311,0.3418,2.4121,0.3418
		c1.2764,0,2.2461-0.2832,2.9102-0.8496s1.0674-1.501,1.2109-2.8027h4.2383c-0.1953,2.2393-0.9834,3.8799-2.3633,4.9219
		S968.2139,662.3369,965.5186,662.3369z"/>
	<path fill="#4B5666" d="M987.0615,664.9736v8.6719h10.1758v-8.6719h4.5898v21.6016h-4.5898v-9.3164h-10.1758v9.3164h-4.5898
		v-21.6016H987.0615z"/>
	<path fill="#4B5666" d="M1027.5498,675.7354c0,3.5283-0.9053,6.2822-2.7148,8.2617s-4.3291,2.9688-7.5586,2.9688
		c-2.0186,0-3.8018-0.4561-5.3516-1.3672s-2.7412-2.2197-3.5742-3.9258s-1.25-3.6846-1.25-5.9375
		c0-3.5029,0.8984-6.2373,2.6953-8.2031s4.3291-2.9492,7.5977-2.9492c3.125,0,5.5986,1.0059,7.4219,3.0176
		S1027.5498,672.3242,1027.5498,675.7354z M1011.8271,675.7354c0,4.9873,1.8428,7.4805,5.5273,7.4805
		c3.6455,0,5.4688-2.4932,5.4688-7.4805c0-4.9346-1.8359-7.4023-5.5078-7.4023c-1.9268,0-3.3232,0.6377-4.1895,1.9141
		S1011.8271,673.3525,1011.8271,675.7354z"/>
</g>
<path fill-rule="evenodd" clip-rule="evenodd" fill="#4B5666" d="M991.1162,481.8281c-0.127,0-0.2627-0.0088-0.4053-0.0303
	l-5.4014-0.7549l-0.001,39.4395c0,1.5439-1.2178,3.1426-2.7061,3.5537l-39.6816,10.9277c-0.7441,0.2041-1.7266,0.3086-2.707,0.3086
	c-0.9814,0-1.9619-0.1045-2.707-0.3086l-39.6797-10.9277c-1.4902-0.4111-2.707-2.0098-2.707-3.5537l0.001-39.4395l-5.4033,0.7549
	c-0.1426,0.0215-0.2773,0.0303-0.4043,0.0303c-1.2461,0-1.7881-0.918-1.2031-2.1904l7.5938-16.5352
	c0.6445-1.4033,2.3887-2.8887,3.8789-3.2979l39.6797-10.9307c0.249-0.0684,0.4795-0.1016,0.6904-0.1016
	c0.0938,0,0.1777,0.0137,0.2617,0.0273c0.085-0.0137,0.168-0.0273,0.2607-0.0273c0.2119,0,0.4424,0.0332,0.6904,0.1016
	l39.6807,10.9307c1.4902,0.4092,3.2354,1.8945,3.8799,3.2979l7.5938,16.5352C992.9053,480.9102,992.3643,481.8281,991.1162,481.8281
	z M901.1406,515.9834c0,1.0234,0.8301,1.8525,1.8535,1.8525c1.0244,0,1.8535-0.8291,1.8535-1.8525v-17.6865
	c0-1.0244-0.8291-1.8535-1.8535-1.8535c-1.0234,0-1.8535,0.8291-1.8535,1.8535V515.9834z M900.5654,463.3779
	c-0.4375,0.1221-1.3037,0.8594-1.4941,1.2715l-5.9365,12.9268l37.0947-5.2021c0.1895-0.0635,0.5186-0.3457,0.6094-0.5234
	l5.6143-18.3594L900.5654,463.3779z M940.5273,474.6533l-0.3125-1.0225v54.7773c0.6484,0,1.0752-0.0752,1.1729-0.1006
	l38.1426-10.5049v-31.7363l-30.6758-4.3037C945.1318,481.2412,941.6289,478.251,940.5273,474.6533z M981.3584,464.6494
	c-0.1904-0.4121-1.0566-1.1494-1.4951-1.2715l-35.8877-9.8867l5.6152,18.3594c0.0898,0.1777,0.4199,0.46,0.6104,0.5234
	l37.0928,5.2021L981.3584,464.6494z"/>
</svg>
