<?xml version="1.0" encoding="utf-8"?>
<!-- Generator: Adobe Illustrator 15.0.0, SVG Export Plug-In . SVG Version: 6.00 Build 0)  -->
<!DOCTYPE svg PUBLIC "-//W3C//DTD SVG 1.1//EN" "http://www.w3.org/Graphics/SVG/1.1/DTD/svg11.dtd">
<svg version="1.1" id="Layer_1" xmlns="http://www.w3.org/2000/svg" xmlns:xlink="http://www.w3.org/1999/xlink" x="0px" y="0px"
	 width="1152px" height="1152.001px" viewBox="0 0 1152 1152.001" enable-background="new 0 0 1152 1152.001" xml:space="preserve">
<circle fill="#4B5666" cx="576" cy="576" r="576"/>
<g>
	<path fill="#FBD35C" d="M188.2964,188.29c214.2964-214.2959,561.1108-214.293,775.4106,0.0078L576.0049,575.999L188.2964,188.29z"
		/>
</g>
<g>
	<path fill="#A4D970" d="M963.71,188.293c214.2979,214.2979,214.293,561.1104-0.0068,775.4092L576.002,576.001L963.71,188.293z"/>
</g>
<g>
	<path fill="#9EBEED" d="M963.7031,963.709c-214.2959,214.2988-561.1104,214.293-775.4102-0.0068L575.9951,576.001L963.7031,963.709
		z"/>
</g>
<g>
	<path fill="#FA7977" d="M188.2896,963.707c-214.2959-214.2979-214.2925-561.1104,0.0068-775.4092L575.999,575.999L188.2896,963.707
		z"/>
</g>
<circle fill="#4B5666" cx="576" cy="576" r="180"/>
<g>
	<path fill="#FFFFFF" d="M466.7227,560.9141l-15.0771-39.3945h-0.2432c0.2842,3.1211,0.4258,6.8301,0.4258,11.126v28.2686h-4.7725
		v-44.4404h7.7822l14.0732,36.6592h0.2432l14.1953-36.6592h7.7207v44.4404h-5.167v-28.6338c0-3.2832,0.1416-6.8496,0.4258-10.6992
		h-0.2432l-15.1992,39.333H466.7227z"/>
	<path fill="#FFFFFF" d="M541.833,538.6328c0,7.1133-1.7988,12.7061-5.3955,16.7793c-3.5977,4.0732-8.5977,6.1104-15.001,6.1104
		c-6.5459,0-11.5967-2.001-15.1533-6.0039c-3.5557-4.002-5.334-9.6514-5.334-16.9463c0-7.2344,1.7832-12.8428,5.3496-16.8242
		c3.5664-3.9824,8.6328-5.9736,15.1982-5.9736c6.3838,0,11.3682,2.0273,14.9551,6.0801S541.833,531.5,541.833,538.6328z
		 M506.4209,538.6328c0,6.0186,1.2812,10.584,3.8447,13.6943s6.2871,4.666,11.1709,4.666c4.9238,0,8.6426-1.5508,11.1553-4.6514
		c2.5127-3.0996,3.7695-7.6699,3.7695-13.709c0-5.9775-1.252-10.5117-3.7539-13.6025c-2.5029-3.0898-6.2061-4.6348-11.1104-4.6348
		c-4.9238,0-8.668,1.5547-11.2314,4.666C507.7021,528.1719,506.4209,532.6963,506.4209,538.6328z"/>
	<path fill="#FFFFFF" d="M587.2158,538.2686c0,7.3359-1.9912,12.9443-5.9736,16.8242c-3.9814,3.8809-9.7109,5.8213-17.1885,5.8213
		h-12.3115v-44.4404h13.6182c6.9102,0,12.2803,1.915,16.1104,5.7451S587.2158,531.3984,587.2158,538.2686z M581.7441,538.4512
		c0-5.7959-1.4541-10.1631-4.3623-13.1016c-2.9082-2.9375-7.2295-4.4072-12.9639-4.4072h-7.5078v35.5029h6.292
		c6.1602,0,10.791-1.5146,13.8916-4.5439S581.7441,544.3887,581.7441,538.4512z"/>
	<path fill="#FFFFFF" d="M621.8975,560.9141H597.124v-44.4404h24.7734v4.5898H602.292v14.3174h18.4199v4.5596H602.292v16.3535
		h19.6055V560.9141z"/>
	<path fill="#FFFFFF" d="M636.9141,542.4326v18.4814h-5.168v-44.4404h12.1895c5.4512,0,9.4785,1.0439,12.083,3.1309
		c2.6035,2.0879,3.9053,5.2285,3.9053,9.4238c0,5.877-2.9785,9.8477-8.9365,11.915l12.0674,19.9707h-6.1094l-10.7607-18.4814
		H636.9141z M636.9141,537.9951h7.082c3.6475,0,6.3232-0.7246,8.0254-2.1738c1.7021-1.4482,2.5527-3.6221,2.5527-6.5195
		c0-2.9385-0.8662-5.0557-2.5986-6.3535c-1.7324-1.2959-4.5137-1.9453-8.3438-1.9453h-6.7178V537.9951z"/>
	<path fill="#FFFFFF" d="M704.9424,560.9141h-5.8975l-24.2871-37.2969h-0.2432c0.3242,4.377,0.4863,8.3896,0.4863,12.0371v25.2598
		h-4.7725v-44.4404h5.8369l24.2256,37.1455h0.2432c-0.041-0.5479-0.1318-2.3057-0.2734-5.2744
		c-0.1416-2.9678-0.1924-5.0908-0.1514-6.3682v-25.5029h4.833V560.9141z"/>
	<path fill="#FFFFFF" d="M525.54,635.6172l-5.5322-14.1348h-17.8125l-5.4707,14.1348h-5.2285l17.5693-44.6221h4.3467
		l17.4785,44.6221H525.54z M518.3975,616.832l-5.168-13.7695c-0.668-1.7432-1.3574-3.8809-2.0664-6.4141
		c-0.4463,1.9453-1.085,4.084-1.915,6.4141l-5.2285,13.7695H518.3975z"/>
	<path fill="#FFFFFF" d="M556.5459,612.333h15.1064v21.6123c-2.3506,0.75-4.7412,1.3174-7.1729,1.7021
		c-2.4326,0.3848-5.249,0.5781-8.4512,0.5781c-6.7275,0-11.9658-2.001-15.7148-6.0039c-3.749-4.002-5.623-9.6104-5.623-16.8242
		c0-4.6201,0.9268-8.668,2.7812-12.1436s4.5234-6.1299,8.0098-7.9639c3.4844-1.834,7.5684-2.751,12.249-2.751
		c4.7422,0,9.1602,0.8711,13.2539,2.6143l-2.0068,4.5596c-4.0117-1.7031-7.8721-2.5537-11.5811-2.5537
		c-5.4102,0-9.6357,1.6113-12.6758,4.833c-3.0391,3.2217-4.5586,7.6904-4.5586,13.4053c0,5.998,1.4629,10.5479,4.3916,13.6475
		c2.9287,3.1006,7.2295,4.6514,12.9033,4.6514c3.0801,0,6.0898-0.3545,9.0283-1.0645v-13.6787h-9.9395V612.333z"/>
	<path fill="#FFFFFF" d="M582.3213,635.6172v-44.4404h5.168v44.4404H582.3213z"/>
	<path fill="#FFFFFF" d="M599.6777,635.6172v-44.4404h5.168v39.7598h19.6055v4.6807H599.6777z"/>
	<path fill="#FFFFFF" d="M656.7627,635.6172h-24.7734v-44.4404h24.7734v4.5898h-19.6055v14.3174h18.4199v4.5596h-18.4199v16.3535
		h19.6055V635.6172z"/>
</g>
<g>
	<path fill="#4B5666" d="M458.8115,226.4424h-4.6289v-28.5547h16.1133v3.9453h-11.4844v8.9258h10.7617v3.9648h-10.7617V226.4424z"/>
	<path fill="#4B5666" d="M488.499,226.4424l-0.918-3.0078h-0.1562c-1.042,1.3154-2.0898,2.21-3.1445,2.6855
		s-2.4092,0.7129-4.0625,0.7129c-2.1221,0-3.7793-0.5732-4.9707-1.7188s-1.7871-2.7666-1.7871-4.8633
		c0-2.2266,0.8271-3.9062,2.4805-5.0391s4.1729-1.751,7.5586-1.8555l3.7305-0.1172v-1.1523c0-1.3799-0.3223-2.4121-0.9668-3.0957
		s-1.6436-1.0254-2.998-1.0254c-1.1064,0-2.168,0.1631-3.1836,0.4883s-1.9922,0.71-2.9297,1.1523l-1.4844-3.2812
		c1.1719-0.6123,2.4541-1.0771,3.8477-1.3965s2.708-0.4785,3.9453-0.4785c2.7471,0,4.8213,0.5986,6.2207,1.7969
		s2.0996,3.0791,2.0996,5.6445v14.5508H488.499z M481.6631,223.3174c1.667,0,3.0049-0.4658,4.0137-1.3965
		s1.5137-2.2363,1.5137-3.916v-1.875l-2.7734,0.1172c-2.1611,0.0781-3.7334,0.4395-4.7168,1.084s-1.4746,1.6309-1.4746,2.959
		c0,0.9639,0.2861,1.709,0.8594,2.2363S480.5176,223.3174,481.6631,223.3174z"/>
	<path fill="#4B5666" d="M497.9131,199.1182c0-0.8203,0.2246-1.4521,0.6738-1.8945s1.0908-0.6641,1.9238-0.6641
		c0.8076,0,1.4355,0.2217,1.8848,0.6641s0.6738,1.0742,0.6738,1.8945c0,0.7812-0.2246,1.3965-0.6738,1.8457
		s-1.0771,0.6738-1.8848,0.6738c-0.833,0-1.4746-0.2246-1.9238-0.6738S497.9131,199.8994,497.9131,199.1182z M502.7764,226.4424
		h-4.5898v-21.6016h4.5898V226.4424z"/>
	<path fill="#4B5666" d="M527.0146,226.833c-2.6953,0-4.7979-0.9766-6.3086-2.9297s-2.2656-4.6943-2.2656-8.2227
		c0-3.542,0.7646-6.2988,2.2949-8.2715s3.6494-2.959,6.3574-2.959c2.8389,0,5,1.0479,6.4844,3.1445h0.2344
		c-0.2217-1.5498-0.332-2.7734-0.332-3.6719v-7.8711h4.6094v30.3906h-3.5938l-0.8008-2.832h-0.2148
		C532.0078,225.7588,529.8535,226.833,527.0146,226.833z M528.2451,223.1221c1.8877,0,3.2617-0.5303,4.1211-1.5918
		s1.3018-2.7832,1.3281-5.166v-0.6445c0-2.7217-0.4424-4.6553-1.3281-5.8008s-2.2725-1.7188-4.1602-1.7188
		c-1.6143,0-2.8584,0.6543-3.7305,1.9629s-1.3086,3.1738-1.3086,5.5957c0,2.3955,0.4229,4.2217,1.2695,5.4785
		S526.5527,223.1221,528.2451,223.1221z"/>
	<path fill="#4B5666" d="M544.3779,199.1182c0-0.8203,0.2246-1.4521,0.6738-1.8945s1.0908-0.6641,1.9238-0.6641
		c0.8076,0,1.4355,0.2217,1.8848,0.6641s0.6738,1.0742,0.6738,1.8945c0,0.7812-0.2246,1.3965-0.6738,1.8457
		s-1.0771,0.6738-1.8848,0.6738c-0.833,0-1.4746-0.2246-1.9238-0.6738S544.3779,199.8994,544.3779,199.1182z M549.2412,226.4424
		h-4.5898v-21.6016h4.5898V226.4424z"/>
	<path fill="#4B5666" d="M560.7256,226.4424l-8.2031-21.6016h4.8438l4.3945,12.5586c0.7549,2.1094,1.2109,3.8154,1.3672,5.1172
		h0.1562c0.1172-0.9375,0.5732-2.6436,1.3672-5.1172l4.3945-12.5586h4.8828l-8.2422,21.6016H560.7256z"/>
	<path fill="#4B5666" d="M586.6436,226.833c-3.3594,0-5.9863-0.9795-7.8809-2.9395s-2.8418-4.6582-2.8418-8.0957
		c0-3.5283,0.8789-6.3018,2.6367-8.3203s4.1729-3.0273,7.2461-3.0273c2.8516,0,5.1045,0.8662,6.7578,2.5977
		s2.4805,4.1143,2.4805,7.1484v2.4805h-14.3945c0.0654,2.0967,0.6318,3.708,1.6992,4.834s2.5713,1.6895,4.5117,1.6895
		c1.2764,0,2.4639-0.1201,3.5645-0.3613s2.2822-0.6416,3.5449-1.2012v3.7305c-1.1201,0.5342-2.2529,0.9111-3.3984,1.1328
		S588.1152,226.833,586.6436,226.833z M585.8037,207.9268c-1.458,0-2.627,0.4619-3.5059,1.3867s-1.4033,2.2725-1.5723,4.043h9.8047
		c-0.0264-1.7842-0.4561-3.1348-1.2891-4.0527S587.2617,207.9268,585.8037,207.9268z"/>
	<path fill="#4B5666" d="M619.2607,226.4424h-4.6094v-13.2812c0-1.667-0.335-2.9102-1.0059-3.7305s-1.7354-1.2305-3.1934-1.2305
		c-1.9404,0-3.3594,0.5732-4.2578,1.7188s-1.3477,3.0664-1.3477,5.7617v10.7617h-4.5898v-21.6016h3.5938l0.6445,2.832h0.2344
		c0.6514-1.0283,1.5752-1.8232,2.7734-2.3828s2.5264-0.8398,3.9844-0.8398c5.1826,0,7.7734,2.6367,7.7734,7.9102V226.4424z"/>
	<path fill="#4B5666" d="M633.6943,223.1221c1.1201,0,2.2393-0.1758,3.3594-0.5273v3.457
		c-0.5078,0.2217-1.1621,0.4072-1.9629,0.5566s-1.6309,0.2246-2.4902,0.2246c-4.3486,0-6.5234-2.292-6.5234-6.875v-11.6406h-2.9492
		v-2.0312l3.1641-1.6797l1.5625-4.5703h2.832v4.8047h6.1523v3.4766h-6.1523v11.5625c0,1.1064,0.2764,1.9238,0.8301,2.4512
		S632.7959,223.1221,633.6943,223.1221z"/>
	<path fill="#4B5666" d="M654.8857,226.4424l-0.918-3.0078h-0.1562c-1.042,1.3154-2.0898,2.21-3.1445,2.6855
		s-2.4092,0.7129-4.0625,0.7129c-2.1221,0-3.7793-0.5732-4.9707-1.7188s-1.7871-2.7666-1.7871-4.8633
		c0-2.2266,0.8271-3.9062,2.4805-5.0391s4.1729-1.751,7.5586-1.8555l3.7305-0.1172v-1.1523c0-1.3799-0.3223-2.4121-0.9668-3.0957
		s-1.6436-1.0254-2.998-1.0254c-1.1064,0-2.168,0.1631-3.1836,0.4883s-1.9922,0.71-2.9297,1.1523l-1.4844-3.2812
		c1.1719-0.6123,2.4541-1.0771,3.8477-1.3965s2.708-0.4785,3.9453-0.4785c2.7471,0,4.8213,0.5986,6.2207,1.7969
		s2.0996,3.0791,2.0996,5.6445v14.5508H654.8857z M648.0498,223.3174c1.667,0,3.0049-0.4658,4.0137-1.3965
		s1.5137-2.2363,1.5137-3.916v-1.875l-2.7734,0.1172c-2.1611,0.0781-3.7334,0.4395-4.7168,1.084s-1.4746,1.6309-1.4746,2.959
		c0,0.9639,0.2861,1.709,0.8594,2.2363S646.9043,223.3174,648.0498,223.3174z"/>
	<path fill="#4B5666" d="M675.5303,204.4502c0.9248,0,1.6865,0.0654,2.2852,0.1953l-0.4492,4.2773
		c-0.6514-0.1562-1.3281-0.2344-2.0312-0.2344c-1.8359,0-3.3232,0.5986-4.4629,1.7969s-1.709,2.7539-1.709,4.668v11.2891h-4.5898
		v-21.6016h3.5938l0.6055,3.8086h0.2344c0.7158-1.2891,1.6504-2.3115,2.8027-3.0664S674.2021,204.4502,675.5303,204.4502z"/>
	<path fill="#4B5666" d="M691.2529,226.833c-3.3594,0-5.9863-0.9795-7.8809-2.9395s-2.8418-4.6582-2.8418-8.0957
		c0-3.5283,0.8789-6.3018,2.6367-8.3203s4.1729-3.0273,7.2461-3.0273c2.8516,0,5.1045,0.8662,6.7578,2.5977
		s2.4805,4.1143,2.4805,7.1484v2.4805h-14.3945c0.0654,2.0967,0.6318,3.708,1.6992,4.834s2.5713,1.6895,4.5117,1.6895
		c1.2764,0,2.4639-0.1201,3.5645-0.3613s2.2822-0.6416,3.5449-1.2012v3.7305c-1.1201,0.5342-2.2529,0.9111-3.3984,1.1328
		S692.7246,226.833,691.2529,226.833z M690.4131,207.9268c-1.458,0-2.627,0.4619-3.5059,1.3867s-1.4033,2.2725-1.5723,4.043h9.8047
		c-0.0264-1.7842-0.4561-3.1348-1.2891-4.0527S691.8711,207.9268,690.4131,207.9268z"/>
	<path fill="#4B5666" d="M482.7959,274.4424h-4.5898v-30.3906h4.5898V274.4424z"/>
	<path fill="#4B5666" d="M498.792,274.833c-3.3594,0-5.9863-0.9795-7.8809-2.9395s-2.8418-4.6582-2.8418-8.0957
		c0-3.5283,0.8789-6.3018,2.6367-8.3203s4.1729-3.0273,7.2461-3.0273c2.8516,0,5.1045,0.8662,6.7578,2.5977
		s2.4805,4.1143,2.4805,7.1484v2.4805h-14.3945c0.0654,2.0967,0.6318,3.708,1.6992,4.834s2.5713,1.6895,4.5117,1.6895
		c1.2764,0,2.4639-0.1201,3.5645-0.3613s2.2822-0.6416,3.5449-1.2012v3.7305c-1.1201,0.5342-2.2529,0.9111-3.3984,1.1328
		S500.2637,274.833,498.792,274.833z M497.9521,255.9268c-1.458,0-2.627,0.4619-3.5059,1.3867s-1.4033,2.2725-1.5723,4.043h9.8047
		c-0.0264-1.7842-0.4561-3.1348-1.2891-4.0527S499.4102,255.9268,497.9521,255.9268z"/>
	<path fill="#4B5666" d="M533.7529,274.833c-2.7344,0-4.8564-0.9834-6.3672-2.9492h-0.2734
		c0.1826,1.8232,0.2734,2.9297,0.2734,3.3203v8.8477h-4.5898v-31.2109h3.7109c0.1045,0.4033,0.3193,1.3672,0.6445,2.8906h0.2344
		c1.4326-2.1875,3.5811-3.2812,6.4453-3.2812c2.6953,0,4.7949,0.9766,6.2988,2.9297s2.2559,4.6943,2.2559,8.2227
		s-0.7646,6.2822-2.2949,8.2617S536.4482,274.833,533.7529,274.833z M532.6396,256.2002c-1.8232,0-3.1543,0.5342-3.9941,1.6016
		s-1.2598,2.7734-1.2598,5.1172v0.6836c0,2.6299,0.417,4.5342,1.25,5.7129s2.1943,1.7676,4.082,1.7676
		c1.5889,0,2.8125-0.6514,3.6719-1.9531s1.2891-3.1572,1.2891-5.5664c0-2.4219-0.4268-4.2549-1.2793-5.498
		S534.293,256.2002,532.6396,256.2002z"/>
	<path fill="#4B5666" d="M557.1514,274.833c-3.3594,0-5.9863-0.9795-7.8809-2.9395s-2.8418-4.6582-2.8418-8.0957
		c0-3.5283,0.8789-6.3018,2.6367-8.3203s4.1729-3.0273,7.2461-3.0273c2.8516,0,5.1045,0.8662,6.7578,2.5977
		s2.4805,4.1143,2.4805,7.1484v2.4805h-14.3945c0.0654,2.0967,0.6318,3.708,1.6992,4.834s2.5713,1.6895,4.5117,1.6895
		c1.2764,0,2.4639-0.1201,3.5645-0.3613s2.2822-0.6416,3.5449-1.2012v3.7305c-1.1201,0.5342-2.2529,0.9111-3.3984,1.1328
		S558.623,274.833,557.1514,274.833z M556.3115,255.9268c-1.458,0-2.627,0.4619-3.5059,1.3867s-1.4033,2.2725-1.5723,4.043h9.8047
		c-0.0264-1.7842-0.4561-3.1348-1.2891-4.0527S557.7695,255.9268,556.3115,255.9268z"/>
	<path fill="#4B5666" d="M581.7217,252.4502c0.9248,0,1.6865,0.0654,2.2852,0.1953l-0.4492,4.2773
		c-0.6514-0.1562-1.3281-0.2344-2.0312-0.2344c-1.8359,0-3.3232,0.5986-4.4629,1.7969s-1.709,2.7539-1.709,4.668v11.2891h-4.5898
		v-21.6016h3.5938l0.6055,3.8086h0.2344c0.7158-1.2891,1.6504-2.3115,2.8027-3.0664S580.3936,252.4502,581.7217,252.4502z"/>
	<path fill="#4B5666" d="M602.5225,268.29c0,2.1094-0.7686,3.7275-2.3047,4.8535s-3.7373,1.6895-6.6016,1.6895
		c-2.8779,0-5.1885-0.4365-6.9336-1.3086v-3.9648c2.5391,1.1719,4.9023,1.7578,7.0898,1.7578c2.8252,0,4.2383-0.8525,4.2383-2.5586
		c0-0.5469-0.1562-1.0029-0.4688-1.3672s-0.8271-0.7422-1.543-1.1328s-1.7119-0.833-2.9883-1.3281
		c-2.4873-0.9639-4.1699-1.9268-5.0488-2.8906s-1.3184-2.2139-1.3184-3.75c0-1.8486,0.7451-3.2842,2.2363-4.3066
		s3.5186-1.5332,6.084-1.5332c2.5391,0,4.9414,0.5146,7.207,1.543l-1.4844,3.457c-2.3311-0.9639-4.29-1.4453-5.8789-1.4453
		c-2.4219,0-3.6328,0.6904-3.6328,2.0703c0,0.6768,0.3154,1.25,0.9473,1.7188s2.0088,1.1133,4.1309,1.9336
		c1.7842,0.6904,3.0791,1.3213,3.8867,1.8945s1.4062,1.2334,1.7969,1.9824S602.5225,267.248,602.5225,268.29z"/>
	<path fill="#4B5666" d="M626.6436,263.6025c0,3.5283-0.9053,6.2822-2.7148,8.2617s-4.3291,2.9688-7.5586,2.9688
		c-2.0186,0-3.8018-0.4561-5.3516-1.3672s-2.7412-2.2197-3.5742-3.9258s-1.25-3.6846-1.25-5.9375
		c0-3.5029,0.8984-6.2373,2.6953-8.2031s4.3291-2.9492,7.5977-2.9492c3.125,0,5.5986,1.0059,7.4219,3.0176
		S626.6436,260.1914,626.6436,263.6025z M610.9209,263.6025c0,4.9873,1.8428,7.4805,5.5273,7.4805
		c3.6455,0,5.4688-2.4932,5.4688-7.4805c0-4.9346-1.8359-7.4023-5.5078-7.4023c-1.9268,0-3.3232,0.6377-4.1895,1.9141
		S610.9209,261.2197,610.9209,263.6025z"/>
	<path fill="#4B5666" d="M650.9209,274.4424h-4.6094v-13.2812c0-1.667-0.335-2.9102-1.0059-3.7305s-1.7354-1.2305-3.1934-1.2305
		c-1.9404,0-3.3594,0.5732-4.2578,1.7188s-1.3477,3.0664-1.3477,5.7617v10.7617h-4.5898v-21.6016h3.5938l0.6445,2.832h0.2344
		c0.6514-1.0283,1.5752-1.8232,2.7734-2.3828s2.5264-0.8398,3.9844-0.8398c5.1826,0,7.7734,2.6367,7.7734,7.9102V274.4424z"/>
	<path fill="#4B5666" d="M666.7412,274.833c-3.3594,0-5.9863-0.9795-7.8809-2.9395s-2.8418-4.6582-2.8418-8.0957
		c0-3.5283,0.8789-6.3018,2.6367-8.3203s4.1729-3.0273,7.2461-3.0273c2.8516,0,5.1045,0.8662,6.7578,2.5977
		s2.4805,4.1143,2.4805,7.1484v2.4805h-14.3945c0.0654,2.0967,0.6318,3.708,1.6992,4.834s2.5713,1.6895,4.5117,1.6895
		c1.2764,0,2.4639-0.1201,3.5645-0.3613s2.2822-0.6416,3.5449-1.2012v3.7305c-1.1201,0.5342-2.2529,0.9111-3.3984,1.1328
		S668.2129,274.833,666.7412,274.833z M665.9014,255.9268c-1.458,0-2.627,0.4619-3.5059,1.3867s-1.4033,2.2725-1.5723,4.043h9.8047
		c-0.0264-1.7842-0.4561-3.1348-1.2891-4.0527S667.3594,255.9268,665.9014,255.9268z"/>
	<path fill="#4B5666" d="M467.0732,316.29c0,2.1094-0.7686,3.7275-2.3047,4.8535s-3.7373,1.6895-6.6016,1.6895
		c-2.8779,0-5.1885-0.4365-6.9336-1.3086v-3.9648c2.5391,1.1719,4.9023,1.7578,7.0898,1.7578c2.8252,0,4.2383-0.8525,4.2383-2.5586
		c0-0.5469-0.1562-1.0029-0.4688-1.3672s-0.8271-0.7422-1.543-1.1328s-1.7119-0.833-2.9883-1.3281
		c-2.4873-0.9639-4.1699-1.9268-5.0488-2.8906s-1.3184-2.2139-1.3184-3.75c0-1.8486,0.7451-3.2842,2.2363-4.3066
		s3.5186-1.5332,6.084-1.5332c2.5391,0,4.9414,0.5146,7.207,1.543l-1.4844,3.457c-2.3311-0.9639-4.29-1.4453-5.8789-1.4453
		c-2.4219,0-3.6328,0.6904-3.6328,2.0703c0,0.6768,0.3154,1.25,0.9473,1.7188s2.0088,1.1133,4.1309,1.9336
		c1.7842,0.6904,3.0791,1.3213,3.8867,1.8945s1.4062,1.2334,1.7969,1.9824S467.0732,315.248,467.0732,316.29z"/>
	<path fill="#4B5666" d="M480.0811,319.1221c1.1201,0,2.2393-0.1758,3.3594-0.5273v3.457
		c-0.5078,0.2217-1.1621,0.4072-1.9629,0.5566s-1.6309,0.2246-2.4902,0.2246c-4.3486,0-6.5234-2.292-6.5234-6.875v-11.6406h-2.9492
		v-2.0312l3.1641-1.6797l1.5625-4.5703h2.832v4.8047h6.1523v3.4766h-6.1523v11.5625c0,1.1064,0.2764,1.9238,0.8301,2.4512
		S479.1826,319.1221,480.0811,319.1221z"/>
	<path fill="#4B5666" d="M498.7139,300.4502c0.9248,0,1.6865,0.0654,2.2852,0.1953l-0.4492,4.2773
		c-0.6514-0.1562-1.3281-0.2344-2.0312-0.2344c-1.8359,0-3.3232,0.5986-4.4629,1.7969s-1.709,2.7539-1.709,4.668v11.2891h-4.5898
		v-21.6016h3.5938l0.6055,3.8086h0.2344c0.7158-1.2891,1.6504-2.3115,2.8027-3.0664S497.3857,300.4502,498.7139,300.4502z"/>
	<path fill="#4B5666" d="M518.5186,322.4424l-0.918-3.0078h-0.1562c-1.042,1.3154-2.0898,2.21-3.1445,2.6855
		s-2.4092,0.7129-4.0625,0.7129c-2.1221,0-3.7793-0.5732-4.9707-1.7188s-1.7871-2.7666-1.7871-4.8633
		c0-2.2266,0.8271-3.9062,2.4805-5.0391s4.1729-1.751,7.5586-1.8555l3.7305-0.1172v-1.1523c0-1.3799-0.3223-2.4121-0.9668-3.0957
		s-1.6436-1.0254-2.998-1.0254c-1.1064,0-2.168,0.1631-3.1836,0.4883s-1.9922,0.71-2.9297,1.1523l-1.4844-3.2812
		c1.1719-0.6123,2.4541-1.0771,3.8477-1.3965s2.708-0.4785,3.9453-0.4785c2.7471,0,4.8213,0.5986,6.2207,1.7969
		s2.0996,3.0791,2.0996,5.6445v14.5508H518.5186z M511.6826,319.3174c1.667,0,3.0049-0.4658,4.0137-1.3965
		s1.5137-2.2363,1.5137-3.916v-1.875l-2.7734,0.1172c-2.1611,0.0781-3.7334,0.4395-4.7168,1.084s-1.4746,1.6309-1.4746,2.959
		c0,0.9639,0.2861,1.709,0.8594,2.2363S510.5371,319.3174,511.6826,319.3174z"/>
	<path fill="#4B5666" d="M547.3662,311.6025c0,3.5283-0.9053,6.2822-2.7148,8.2617s-4.3291,2.9688-7.5586,2.9688
		c-2.0186,0-3.8018-0.4561-5.3516-1.3672S529,319.2461,528.167,317.54s-1.25-3.6846-1.25-5.9375
		c0-3.5029,0.8984-6.2373,2.6953-8.2031s4.3291-2.9492,7.5977-2.9492c3.125,0,5.5986,1.0059,7.4219,3.0176
		S547.3662,308.1914,547.3662,311.6025z M531.6436,311.6025c0,4.9873,1.8428,7.4805,5.5273,7.4805
		c3.6455,0,5.4688-2.4932,5.4688-7.4805c0-4.9346-1.8359-7.4023-5.5078-7.4023c-1.9268,0-3.3232,0.6377-4.1895,1.9141
		S531.6436,309.2197,531.6436,311.6025z"/>
	<path fill="#4B5666" d="M563.5967,300.4502c0.9248,0,1.6865,0.0654,2.2852,0.1953l-0.4492,4.2773
		c-0.6514-0.1562-1.3281-0.2344-2.0312-0.2344c-1.8359,0-3.3232,0.5986-4.4629,1.7969s-1.709,2.7539-1.709,4.668v11.2891h-4.5898
		v-21.6016h3.5938l0.6055,3.8086h0.2344c0.7158-1.2891,1.6504-2.3115,2.8027-3.0664S562.2686,300.4502,563.5967,300.4502z"/>
	<path fill="#4B5666" d="M577.1709,322.833c-2.6953,0-4.7979-0.9766-6.3086-2.9297s-2.2656-4.6943-2.2656-8.2227
		c0-3.542,0.7646-6.2988,2.2949-8.2715s3.6494-2.959,6.3574-2.959c2.8389,0,5,1.0479,6.4844,3.1445h0.2344
		c-0.2217-1.5498-0.332-2.7734-0.332-3.6719v-7.8711h4.6094v30.3906h-3.5938l-0.8008-2.832h-0.2148
		C582.1641,321.7588,580.0098,322.833,577.1709,322.833z M578.4014,319.1221c1.8877,0,3.2617-0.5303,4.1211-1.5918
		s1.3018-2.7832,1.3281-5.166v-0.6445c0-2.7217-0.4424-4.6553-1.3281-5.8008s-2.2725-1.7188-4.1602-1.7188
		c-1.6143,0-2.8584,0.6543-3.7305,1.9629s-1.3086,3.1738-1.3086,5.5957c0,2.3955,0.4229,4.2217,1.2695,5.4785
		S576.709,319.1221,578.4014,319.1221z"/>
	<path fill="#4B5666" d="M594.5342,295.1182c0-0.8203,0.2246-1.4521,0.6738-1.8945s1.0908-0.6641,1.9238-0.6641
		c0.8076,0,1.4355,0.2217,1.8848,0.6641s0.6738,1.0742,0.6738,1.8945c0,0.7812-0.2246,1.3965-0.6738,1.8457
		s-1.0771,0.6738-1.8848,0.6738c-0.833,0-1.4746-0.2246-1.9238-0.6738S594.5342,295.8994,594.5342,295.1182z M599.3975,322.4424
		h-4.5898v-21.6016h4.5898V322.4424z"/>
	<path fill="#4B5666" d="M624.9639,322.4424h-4.6094v-13.2812c0-1.667-0.335-2.9102-1.0059-3.7305s-1.7354-1.2305-3.1934-1.2305
		c-1.9404,0-3.3594,0.5732-4.2578,1.7188s-1.3477,3.0664-1.3477,5.7617v10.7617H605.96v-21.6016h3.5938l0.6445,2.832h0.2344
		c0.6514-1.0283,1.5752-1.8232,2.7734-2.3828s2.5264-0.8398,3.9844-0.8398c5.1826,0,7.7734,2.6367,7.7734,7.9102V322.4424z"/>
	<path fill="#4B5666" d="M644.8662,322.4424l-0.918-3.0078h-0.1562c-1.042,1.3154-2.0898,2.21-3.1445,2.6855
		s-2.4092,0.7129-4.0625,0.7129c-2.1221,0-3.7793-0.5732-4.9707-1.7188s-1.7871-2.7666-1.7871-4.8633
		c0-2.2266,0.8271-3.9062,2.4805-5.0391s4.1729-1.751,7.5586-1.8555l3.7305-0.1172v-1.1523c0-1.3799-0.3223-2.4121-0.9668-3.0957
		s-1.6436-1.0254-2.998-1.0254c-1.1064,0-2.168,0.1631-3.1836,0.4883s-1.9922,0.71-2.9297,1.1523l-1.4844-3.2812
		c1.1719-0.6123,2.4541-1.0771,3.8477-1.3965s2.708-0.4785,3.9453-0.4785c2.7471,0,4.8213,0.5986,6.2207,1.7969
		s2.0996,3.0791,2.0996,5.6445v14.5508H644.8662z M638.0303,319.3174c1.667,0,3.0049-0.4658,4.0137-1.3965
		s1.5137-2.2363,1.5137-3.916v-1.875l-2.7734,0.1172c-2.1611,0.0781-3.7334,0.4395-4.7168,1.084s-1.4746,1.6309-1.4746,2.959
		c0,0.9639,0.2861,1.709,0.8594,2.2363S636.8848,319.3174,638.0303,319.3174z"/>
	<path fill="#4B5666" d="M665.5107,300.4502c0.9248,0,1.6865,0.0654,2.2852,0.1953l-0.4492,4.2773
		c-0.6514-0.1562-1.3281-0.2344-2.0312-0.2344c-1.8359,0-3.3232,0.5986-4.4629,1.7969s-1.709,2.7539-1.709,4.668v11.2891h-4.5898
		v-21.6016h3.5938l0.6055,3.8086h0.2344c0.7158-1.2891,1.6504-2.3115,2.8027-3.0664S664.1826,300.4502,665.5107,300.4502z"/>
	<path fill="#4B5666" d="M671.5264,295.1182c0-0.8203,0.2246-1.4521,0.6738-1.8945s1.0908-0.6641,1.9238-0.6641
		c0.8076,0,1.4355,0.2217,1.8848,0.6641s0.6738,1.0742,0.6738,1.8945c0,0.7812-0.2246,1.3965-0.6738,1.8457
		s-1.0771,0.6738-1.8848,0.6738c-0.833,0-1.4746-0.2246-1.9238-0.6738S671.5264,295.8994,671.5264,295.1182z M676.3896,322.4424
		h-4.5898v-21.6016h4.5898V322.4424z"/>
	<path fill="#4B5666" d="M692.3857,322.833c-3.3594,0-5.9863-0.9795-7.8809-2.9395s-2.8418-4.6582-2.8418-8.0957
		c0-3.5283,0.8789-6.3018,2.6367-8.3203s4.1729-3.0273,7.2461-3.0273c2.8516,0,5.1045,0.8662,6.7578,2.5977
		s2.4805,4.1143,2.4805,7.1484v2.4805h-14.3945c0.0654,2.0967,0.6318,3.708,1.6992,4.834s2.5713,1.6895,4.5117,1.6895
		c1.2764,0,2.4639-0.1201,3.5645-0.3613s2.2822-0.6416,3.5449-1.2012v3.7305c-1.1201,0.5342-2.2529,0.9111-3.3984,1.1328
		S693.8574,322.833,692.3857,322.833z M691.5459,303.9268c-1.458,0-2.627,0.4619-3.5059,1.3867s-1.4033,2.2725-1.5723,4.043h9.8047
		c-0.0264-1.7842-0.4561-3.1348-1.2891-4.0527S693.0039,303.9268,691.5459,303.9268z"/>
</g>
<path fill="#4B5666" d="M596.1172,84.4746c-7.8867,0-18.1074,4.6484-20.1182,12.4736l-0.002-0.002v0.002
	c-2.0107-7.8252-12.2305-12.4736-20.1162-12.4736c-15.5508,0-28.1631,12.0703-28.1631,28.1641
	c0,18.9355,11.1963,30.5225,23.4023,39.9258c7.3213,5.6416,23.5713,18.4102,24.8574,18.4102c0.0078,0,0.0137-0.002,0.0195-0.002
	c0.0068,0,0.0146,0.002,0.0205,0.002c1.2871,0,17.5371-12.7686,24.8584-18.4102c12.2051-9.4033,23.4043-20.9902,23.4043-39.9258
	C624.2803,96.5449,611.668,84.4746,596.1172,84.4746z M544.957,97.2129c-4.8623,3.5967-7.6523,9.2188-7.6523,15.4258
	c0,1.0234-0.8281,1.8535-1.8525,1.8535c-1.0234,0-1.8535-0.8301-1.8535-1.8535c0-7.3945,3.3359-14.1025,9.1543-18.4053
	c0.8213-0.6094,1.9814-0.4355,2.5908,0.3877S545.7783,96.6055,544.957,97.2129z"/>
<g>
	<path fill="#4B5666" d="M494.8857,954.9199h-4.6289v-28.5547h16.1133v3.9453h-11.4844v8.9258h10.7617v3.9648h-10.7617V954.9199z"/>
	<path fill="#4B5666" d="M524.5732,954.9199l-0.918-3.0078h-0.1562c-1.042,1.3154-2.0898,2.21-3.1445,2.6855
		s-2.4092,0.7129-4.0625,0.7129c-2.1221,0-3.7793-0.5732-4.9707-1.7188s-1.7871-2.7666-1.7871-4.8633
		c0-2.2266,0.8271-3.9062,2.4805-5.0391s4.1729-1.751,7.5586-1.8555l3.7305-0.1172v-1.1523c0-1.3799-0.3223-2.4121-0.9668-3.0957
		s-1.6436-1.0254-2.998-1.0254c-1.1064,0-2.168,0.1631-3.1836,0.4883s-1.9922,0.71-2.9297,1.1523l-1.4844-3.2812
		c1.1719-0.6123,2.4541-1.0771,3.8477-1.3965s2.708-0.4785,3.9453-0.4785c2.7471,0,4.8213,0.5986,6.2207,1.7969
		s2.0996,3.0791,2.0996,5.6445v14.5508H524.5732z M517.7373,951.7949c1.667,0,3.0049-0.4658,4.0137-1.3965
		s1.5137-2.2363,1.5137-3.916v-1.875l-2.7734,0.1172c-2.1611,0.0781-3.7334,0.4395-4.7168,1.084s-1.4746,1.6309-1.4746,2.959
		c0,0.9639,0.2861,1.709,0.8594,2.2363S516.5918,951.7949,517.7373,951.7949z"/>
	<path fill="#4B5666" d="M533.9873,927.5957c0-0.8203,0.2246-1.4521,0.6738-1.8945s1.0908-0.6641,1.9238-0.6641
		c0.8076,0,1.4355,0.2217,1.8848,0.6641s0.6738,1.0742,0.6738,1.8945c0,0.7812-0.2246,1.3965-0.6738,1.8457
		s-1.0771,0.6738-1.8848,0.6738c-0.833,0-1.4746-0.2246-1.9238-0.6738S533.9873,928.377,533.9873,927.5957z M538.8506,954.9199
		h-4.5898v-21.6016h4.5898V954.9199z"/>
	<path fill="#4B5666" d="M564.5146,955.3105c-3.2686,0-5.752-0.9541-7.4512-2.8613s-2.5488-4.6455-2.5488-8.2129
		c0-3.6328,0.8887-6.4258,2.666-8.3789s4.3457-2.9297,7.7051-2.9297c2.2783,0,4.3291,0.4229,6.1523,1.2695l-1.3867,3.6914
		c-1.9404-0.7549-3.542-1.1328-4.8047-1.1328c-3.7373,0-5.6055,2.4805-5.6055,7.4414c0,2.4219,0.4658,4.2412,1.3965,5.459
		s2.2949,1.8262,4.0918,1.8262c2.0439,0,3.9775-0.5078,5.8008-1.5234v4.0039c-0.8203,0.4814-1.6963,0.8271-2.627,1.0352
		S565.8428,955.3105,564.5146,955.3105z"/>
	<path fill="#4B5666" d="M594.6123,954.9199h-4.6094v-13.2812c0-1.667-0.335-2.9102-1.0059-3.7305s-1.7354-1.2305-3.1934-1.2305
		c-1.9268,0-3.3428,0.5762-4.248,1.7285s-1.3574,3.083-1.3574,5.791v10.7227h-4.5898v-30.3906h4.5898v7.7148
		c0,1.2373-0.0781,2.5586-0.2344,3.9648h0.293c0.625-1.042,1.4941-1.8486,2.6074-2.4219s2.4121-0.8594,3.8965-0.8594
		c5.2344,0,7.8516,2.6367,7.8516,7.9102V954.9199z"/>
	<path fill="#4B5666" d="M610.4326,955.3105c-3.3594,0-5.9863-0.9795-7.8809-2.9395s-2.8418-4.6582-2.8418-8.0957
		c0-3.5283,0.8789-6.3018,2.6367-8.3203s4.1729-3.0273,7.2461-3.0273c2.8516,0,5.1045,0.8662,6.7578,2.5977
		s2.4805,4.1143,2.4805,7.1484v2.4805h-14.3945c0.0654,2.0967,0.6318,3.708,1.6992,4.834s2.5713,1.6895,4.5117,1.6895
		c1.2764,0,2.4639-0.1201,3.5645-0.3613s2.2822-0.6416,3.5449-1.2012v3.7305c-1.1201,0.5342-2.2529,0.9111-3.3984,1.1328
		S611.9043,955.3105,610.4326,955.3105z M609.5928,936.4043c-1.458,0-2.627,0.4619-3.5059,1.3867s-1.4033,2.2725-1.5723,4.043
		h9.8047c-0.0264-1.7842-0.4561-3.1348-1.2891-4.0527S611.0508,936.4043,609.5928,936.4043z"/>
	<path fill="#4B5666" d="M639.0264,954.9199h-4.5898v-30.3906h4.5898V954.9199z"/>
	<path fill="#4B5666" d="M659.1045,954.9199l-0.918-3.0078h-0.1562c-1.042,1.3154-2.0898,2.21-3.1445,2.6855
		s-2.4092,0.7129-4.0625,0.7129c-2.1221,0-3.7793-0.5732-4.9707-1.7188s-1.7871-2.7666-1.7871-4.8633
		c0-2.2266,0.8271-3.9062,2.4805-5.0391s4.1729-1.751,7.5586-1.8555l3.7305-0.1172v-1.1523c0-1.3799-0.3223-2.4121-0.9668-3.0957
		s-1.6436-1.0254-2.998-1.0254c-1.1064,0-2.168,0.1631-3.1836,0.4883s-1.9922,0.71-2.9297,1.1523l-1.4844-3.2812
		c1.1719-0.6123,2.4541-1.0771,3.8477-1.3965s2.708-0.4785,3.9453-0.4785c2.7471,0,4.8213,0.5986,6.2207,1.7969
		s2.0996,3.0791,2.0996,5.6445v14.5508H659.1045z M652.2686,951.7949c1.667,0,3.0049-0.4658,4.0137-1.3965
		s1.5137-2.2363,1.5137-3.916v-1.875l-2.7734,0.1172c-2.1611,0.0781-3.7334,0.4395-4.7168,1.084s-1.4746,1.6309-1.4746,2.959
		c0,0.9639,0.2861,1.709,0.8594,2.2363S651.123,951.7949,652.2686,951.7949z"/>
	<path fill="#4B5666" d="M472.9033,996.7676c0,2.1094-0.7686,3.7275-2.3047,4.8535s-3.7373,1.6895-6.6016,1.6895
		c-2.8779,0-5.1885-0.4365-6.9336-1.3086v-3.9648c2.5391,1.1719,4.9023,1.7578,7.0898,1.7578c2.8252,0,4.2383-0.8525,4.2383-2.5586
		c0-0.5469-0.1562-1.0029-0.4688-1.3672s-0.8271-0.7422-1.543-1.1328s-1.7119-0.833-2.9883-1.3281
		c-2.4873-0.9639-4.1699-1.9268-5.0488-2.8906s-1.3184-2.2139-1.3184-3.75c0-1.8486,0.7451-3.2842,2.2363-4.3066
		s3.5186-1.5332,6.084-1.5332c2.5391,0,4.9414,0.5146,7.207,1.543l-1.4844,3.457c-2.3311-0.9639-4.29-1.4453-5.8789-1.4453
		c-2.4219,0-3.6328,0.6904-3.6328,2.0703c0,0.6768,0.3154,1.25,0.9473,1.7188s2.0088,1.1133,4.1309,1.9336
		c1.7842,0.6904,3.0791,1.3213,3.8867,1.8945s1.4062,1.2334,1.7969,1.9824S472.9033,995.7256,472.9033,996.7676z"/>
	<path fill="#4B5666" d="M477.5908,975.5957c0-0.8203,0.2246-1.4521,0.6738-1.8945s1.0908-0.6641,1.9238-0.6641
		c0.8076,0,1.4355,0.2217,1.8848,0.6641s0.6738,1.0742,0.6738,1.8945c0,0.7812-0.2246,1.3965-0.6738,1.8457
		s-1.0771,0.6738-1.8848,0.6738c-0.833,0-1.4746-0.2246-1.9238-0.6738S477.5908,976.377,477.5908,975.5957z M482.4541,1002.9199
		h-4.5898v-21.6016h4.5898V1002.9199z"/>
	<path fill="#4B5666" d="M497.7275,1003.3105c-3.2686,0-5.752-0.9541-7.4512-2.8613s-2.5488-4.6455-2.5488-8.2129
		c0-3.6328,0.8887-6.4258,2.666-8.3789s4.3457-2.9297,7.7051-2.9297c2.2783,0,4.3291,0.4229,6.1523,1.2695l-1.3867,3.6914
		c-1.9404-0.7549-3.542-1.1328-4.8047-1.1328c-3.7373,0-5.6055,2.4805-5.6055,7.4414c0,2.4219,0.4658,4.2412,1.3965,5.459
		s2.2949,1.8262,4.0918,1.8262c2.0439,0,3.9775-0.5078,5.8008-1.5234v4.0039c-0.8203,0.4814-1.6963,0.8271-2.627,1.0352
		S499.0557,1003.3105,497.7275,1003.3105z"/>
	<path fill="#4B5666" d="M524.0557,1002.9199l-0.6445-2.832h-0.2344c-0.6377,1.0029-1.5459,1.79-2.7246,2.3633
		s-2.5225,0.8594-4.0332,0.8594c-2.6172,0-4.5703-0.6514-5.8594-1.9531s-1.9336-3.2744-1.9336-5.918v-14.1211h4.6289v13.3203
		c0,1.6533,0.3389,2.8936,1.0156,3.7207s1.7383,1.2402,3.1836,1.2402c1.9268,0,3.3428-0.5762,4.248-1.7285
		s1.3574-3.083,1.3574-5.791v-10.7617h4.6094v21.6016H524.0557z"/>
	<path fill="#4B5666" d="M545.1689,980.9277c0.9248,0,1.6865,0.0654,2.2852,0.1953l-0.4492,4.2773
		c-0.6514-0.1562-1.3281-0.2344-2.0312-0.2344c-1.8359,0-3.3232,0.5986-4.4629,1.7969s-1.709,2.7539-1.709,4.668v11.2891h-4.5898
		v-21.6016h3.5938l0.6055,3.8086h0.2344c0.7158-1.2891,1.6504-2.3115,2.8027-3.0664S543.8408,980.9277,545.1689,980.9277z"/>
	<path fill="#4B5666" d="M560.8916,1003.3105c-3.3594,0-5.9863-0.9795-7.8809-2.9395s-2.8418-4.6582-2.8418-8.0957
		c0-3.5283,0.8789-6.3018,2.6367-8.3203s4.1729-3.0273,7.2461-3.0273c2.8516,0,5.1045,0.8662,6.7578,2.5977
		s2.4805,4.1143,2.4805,7.1484v2.4805h-14.3945c0.0654,2.0967,0.6318,3.708,1.6992,4.834s2.5713,1.6895,4.5117,1.6895
		c1.2764,0,2.4639-0.1201,3.5645-0.3613s2.2822-0.6416,3.5449-1.2012v3.7305c-1.1201,0.5342-2.2529,0.9111-3.3984,1.1328
		S562.3633,1003.3105,560.8916,1003.3105z M560.0518,984.4043c-1.458,0-2.627,0.4619-3.5059,1.3867s-1.4033,2.2725-1.5723,4.043
		h9.8047c-0.0264-1.7842-0.4561-3.1348-1.2891-4.0527S561.5098,984.4043,560.0518,984.4043z"/>
	<path fill="#4B5666" d="M588.9385,1002.9199h-16.3867v-2.832l10.918-15.2539h-10.2539v-3.5156h15.4102v3.2031l-10.6836,14.8828
		h10.9961V1002.9199z"/>
	<path fill="#4B5666" d="M608.0596,1002.9199h-16.3867v-2.832l10.918-15.2539h-10.2539v-3.5156h15.4102v3.2031l-10.6836,14.8828
		h10.9961V1002.9199z"/>
	<path fill="#4B5666" d="M626.2627,1002.9199l-0.918-3.0078h-0.1562c-1.042,1.3154-2.0898,2.21-3.1445,2.6855
		s-2.4092,0.7129-4.0625,0.7129c-2.1221,0-3.7793-0.5732-4.9707-1.7188s-1.7871-2.7666-1.7871-4.8633
		c0-2.2266,0.8271-3.9062,2.4805-5.0391s4.1729-1.751,7.5586-1.8555l3.7305-0.1172v-1.1523c0-1.3799-0.3223-2.4121-0.9668-3.0957
		s-1.6436-1.0254-2.998-1.0254c-1.1064,0-2.168,0.1631-3.1836,0.4883s-1.9922,0.71-2.9297,1.1523l-1.4844-3.2812
		c1.1719-0.6123,2.4541-1.0771,3.8477-1.3965s2.708-0.4785,3.9453-0.4785c2.7471,0,4.8213,0.5986,6.2207,1.7969
		s2.0996,3.0791,2.0996,5.6445v14.5508H626.2627z M619.4268,999.7949c1.667,0,3.0049-0.4658,4.0137-1.3965
		s1.5137-2.2363,1.5137-3.916v-1.875l-2.7734,0.1172c-2.1611,0.0781-3.7334,0.4395-4.7168,1.084s-1.4746,1.6309-1.4746,2.959
		c0,0.9639,0.2861,1.709,0.8594,2.2363S618.2812,999.7949,619.4268,999.7949z"/>
	<path fill="#4B5666" d="M660.8525,996.7676c0,2.1094-0.7686,3.7275-2.3047,4.8535s-3.7373,1.6895-6.6016,1.6895
		c-2.8779,0-5.1885-0.4365-6.9336-1.3086v-3.9648c2.5391,1.1719,4.9023,1.7578,7.0898,1.7578c2.8252,0,4.2383-0.8525,4.2383-2.5586
		c0-0.5469-0.1562-1.0029-0.4688-1.3672s-0.8271-0.7422-1.543-1.1328s-1.7119-0.833-2.9883-1.3281
		c-2.4873-0.9639-4.1699-1.9268-5.0488-2.8906s-1.3184-2.2139-1.3184-3.75c0-1.8486,0.7451-3.2842,2.2363-4.3066
		s3.5186-1.5332,6.084-1.5332c2.5391,0,4.9414,0.5146,7.207,1.543l-1.4844,3.457c-2.3311-0.9639-4.29-1.4453-5.8789-1.4453
		c-2.4219,0-3.6328,0.6904-3.6328,2.0703c0,0.6768,0.3154,1.25,0.9473,1.7188s2.0088,1.1133,4.1309,1.9336
		c1.7842,0.6904,3.0791,1.3213,3.8867,1.8945s1.4062,1.2334,1.7969,1.9824S660.8525,995.7256,660.8525,996.7676z"/>
	<path fill="#4B5666" d="M665.54,975.5957c0-0.8203,0.2246-1.4521,0.6738-1.8945s1.0908-0.6641,1.9238-0.6641
		c0.8076,0,1.4355,0.2217,1.8848,0.6641s0.6738,1.0742,0.6738,1.8945c0,0.7812-0.2246,1.3965-0.6738,1.8457
		s-1.0771,0.6738-1.8848,0.6738c-0.833,0-1.4746-0.2246-1.9238-0.6738S665.54,976.377,665.54,975.5957z M670.4033,1002.9199h-4.5898
		v-21.6016h4.5898V1002.9199z"/>
	<path fill="#4B5666" d="M690.4814,1002.9199l-0.918-3.0078h-0.1562c-1.042,1.3154-2.0898,2.21-3.1445,2.6855
		s-2.4092,0.7129-4.0625,0.7129c-2.1221,0-3.7793-0.5732-4.9707-1.7188s-1.7871-2.7666-1.7871-4.8633
		c0-2.2266,0.8271-3.9062,2.4805-5.0391s4.1729-1.751,7.5586-1.8555l3.7305-0.1172v-1.1523c0-1.3799-0.3223-2.4121-0.9668-3.0957
		s-1.6436-1.0254-2.998-1.0254c-1.1064,0-2.168,0.1631-3.1836,0.4883s-1.9922,0.71-2.9297,1.1523l-1.4844-3.2812
		c1.1719-0.6123,2.4541-1.0771,3.8477-1.3965s2.708-0.4785,3.9453-0.4785c2.7471,0,4.8213,0.5986,6.2207,1.7969
		s2.0996,3.0791,2.0996,5.6445v14.5508H690.4814z M683.6455,999.7949c1.667,0,3.0049-0.4658,4.0137-1.3965
		s1.5137-2.2363,1.5137-3.916v-1.875l-2.7734,0.1172c-2.1611,0.0781-3.7334,0.4395-4.7168,1.084s-1.4746,1.6309-1.4746,2.959
		c0,0.9639,0.2861,1.709,0.8594,2.2363S682.5,999.7949,683.6455,999.7949z"/>
	<path fill="#4B5666" d="M445.0518,1050.9199l-0.6445-2.832h-0.2344c-0.6377,1.0029-1.5459,1.79-2.7246,2.3633
		s-2.5225,0.8594-4.0332,0.8594c-2.6172,0-4.5703-0.6514-5.8594-1.9531s-1.9336-3.2744-1.9336-5.918v-14.1211h4.6289v13.3203
		c0,1.6533,0.3389,2.8936,1.0156,3.7207s1.7383,1.2402,3.1836,1.2402c1.9268,0,3.3428-0.5762,4.248-1.7285
		s1.3574-3.083,1.3574-5.791v-10.7617h4.6094v21.6016H445.0518z"/>
	<path fill="#4B5666" d="M474.2119,1050.9199h-4.6094v-13.2812c0-1.667-0.335-2.9102-1.0059-3.7305s-1.7354-1.2305-3.1934-1.2305
		c-1.9404,0-3.3594,0.5732-4.2578,1.7188s-1.3477,3.0664-1.3477,5.7617v10.7617h-4.5898v-21.6016h3.5938l0.6445,2.832h0.2344
		c0.6514-1.0283,1.5752-1.8232,2.7734-2.3828s2.5264-0.8398,3.9844-0.8398c5.1826,0,7.7734,2.6367,7.7734,7.9102V1050.9199z"/>
	<path fill="#4B5666" d="M501.9463,1051.3105c-2.7344,0-4.8564-0.9834-6.3672-2.9492h-0.2734
		c0.1826,1.8232,0.2734,2.9297,0.2734,3.3203v8.8477h-4.5898v-31.2109h3.7109c0.1045,0.4033,0.3193,1.3672,0.6445,2.8906h0.2344
		c1.4326-2.1875,3.5811-3.2812,6.4453-3.2812c2.6953,0,4.7949,0.9766,6.2988,2.9297s2.2559,4.6943,2.2559,8.2227
		s-0.7646,6.2822-2.2949,8.2617S504.6416,1051.3105,501.9463,1051.3105z M500.833,1032.6777c-1.8232,0-3.1543,0.5342-3.9941,1.6016
		s-1.2598,2.7734-1.2598,5.1172v0.6836c0,2.6299,0.417,4.5342,1.25,5.7129s2.1943,1.7676,4.082,1.7676
		c1.5889,0,2.8125-0.6514,3.6719-1.9531s1.2891-3.1572,1.2891-5.5664c0-2.4219-0.4268-4.2549-1.2793-5.498
		S502.4863,1032.6777,500.833,1032.6777z"/>
	<path fill="#4B5666" d="M526.8682,1028.9277c0.9248,0,1.6865,0.0654,2.2852,0.1953l-0.4492,4.2773
		c-0.6514-0.1562-1.3281-0.2344-2.0312-0.2344c-1.8359,0-3.3232,0.5986-4.4629,1.7969s-1.709,2.7539-1.709,4.668v11.2891h-4.5898
		v-21.6016h3.5938l0.6055,3.8086h0.2344c0.7158-1.2891,1.6504-2.3115,2.8027-3.0664S525.54,1028.9277,526.8682,1028.9277z"/>
	<path fill="#4B5666" d="M542.5908,1051.3105c-3.3594,0-5.9863-0.9795-7.8809-2.9395s-2.8418-4.6582-2.8418-8.0957
		c0-3.5283,0.8789-6.3018,2.6367-8.3203s4.1729-3.0273,7.2461-3.0273c2.8516,0,5.1045,0.8662,6.7578,2.5977
		s2.4805,4.1143,2.4805,7.1484v2.4805h-14.3945c0.0654,2.0967,0.6318,3.708,1.6992,4.834s2.5713,1.6895,4.5117,1.6895
		c1.2764,0,2.4639-0.1201,3.5645-0.3613s2.2822-0.6416,3.5449-1.2012v3.7305c-1.1201,0.5342-2.2529,0.9111-3.3984,1.1328
		S544.0625,1051.3105,542.5908,1051.3105z M541.751,1032.4043c-1.458,0-2.627,0.4619-3.5059,1.3867s-1.4033,2.2725-1.5723,4.043
		h9.8047c-0.0264-1.7842-0.4561-3.1348-1.2891-4.0527S543.209,1032.4043,541.751,1032.4043z"/>
	<path fill="#4B5666" d="M567.1611,1028.9277c0.9248,0,1.6865,0.0654,2.2852,0.1953l-0.4492,4.2773
		c-0.6514-0.1562-1.3281-0.2344-2.0312-0.2344c-1.8359,0-3.3232,0.5986-4.4629,1.7969s-1.709,2.7539-1.709,4.668v11.2891h-4.5898
		v-21.6016h3.5938l0.6055,3.8086h0.2344c0.7158-1.2891,1.6504-2.3115,2.8027-3.0664S565.833,1028.9277,567.1611,1028.9277z"/>
	<path fill="#4B5666" d="M582.8838,1051.3105c-3.3594,0-5.9863-0.9795-7.8809-2.9395s-2.8418-4.6582-2.8418-8.0957
		c0-3.5283,0.8789-6.3018,2.6367-8.3203s4.1729-3.0273,7.2461-3.0273c2.8516,0,5.1045,0.8662,6.7578,2.5977
		s2.4805,4.1143,2.4805,7.1484v2.4805h-14.3945c0.0654,2.0967,0.6318,3.708,1.6992,4.834s2.5713,1.6895,4.5117,1.6895
		c1.2764,0,2.4639-0.1201,3.5645-0.3613s2.2822-0.6416,3.5449-1.2012v3.7305c-1.1201,0.5342-2.2529,0.9111-3.3984,1.1328
		S584.3555,1051.3105,582.8838,1051.3105z M582.0439,1032.4043c-1.458,0-2.627,0.4619-3.5059,1.3867s-1.4033,2.2725-1.5723,4.043
		h9.8047c-0.0264-1.7842-0.4561-3.1348-1.2891-4.0527S583.502,1032.4043,582.0439,1032.4043z"/>
	<path fill="#4B5666" d="M603.7432,1051.3105c-2.6689,0-4.7588-0.9795-6.2695-2.9395s-2.2656-4.6973-2.2656-8.2129
		s0.7686-6.2666,2.3047-8.252s3.6523-2.9785,6.3477-2.9785c1.3545,0,2.5684,0.251,3.6426,0.752s2.0342,1.3252,2.8809,2.4707h0.1562
		l0.5078-2.832h3.8086v31.2109h-4.6094v-9.1602c0-0.5732,0.0264-1.1787,0.0781-1.8164s0.0977-1.126,0.1367-1.4648h-0.2539
		C608.8535,1050.2363,606.6992,1051.3105,603.7432,1051.3105z M605.0518,1047.6387c1.9268,0,3.3105-0.5566,4.1504-1.6699
		s1.2598-2.7959,1.2598-5.0488v-0.7227c0-2.6689-0.4326-4.5898-1.2988-5.7617s-2.2627-1.7578-4.1895-1.7578
		c-1.6406,0-2.8906,0.6514-3.75,1.9531s-1.2891,3.1709-1.2891,5.6055C599.9346,1045.1709,601.6406,1047.6387,605.0518,1047.6387z"/>
	<path fill="#4B5666" d="M636.6533,1050.9199l-0.6445-2.832h-0.2344c-0.6377,1.0029-1.5459,1.79-2.7246,2.3633
		s-2.5225,0.8594-4.0332,0.8594c-2.6172,0-4.5703-0.6514-5.8594-1.9531s-1.9336-3.2744-1.9336-5.918v-14.1211h4.6289v13.3203
		c0,1.6533,0.3389,2.8936,1.0156,3.7207s1.7383,1.2402,3.1836,1.2402c1.9268,0,3.3428-0.5762,4.248-1.7285
		s1.3574-3.083,1.3574-5.791v-10.7617h4.6094v21.6016H636.6533z"/>
	<path fill="#4B5666" d="M646.5361,1023.5957c0-0.8203,0.2246-1.4521,0.6738-1.8945s1.0908-0.6641,1.9238-0.6641
		c0.8076,0,1.4355,0.2217,1.8848,0.6641s0.6738,1.0742,0.6738,1.8945c0,0.7812-0.2246,1.3965-0.6738,1.8457
		s-1.0771,0.6738-1.8848,0.6738c-0.833,0-1.4746-0.2246-1.9238-0.6738S646.5361,1024.377,646.5361,1023.5957z M651.3994,1050.9199
		h-4.5898v-21.6016h4.5898V1050.9199z"/>
	<path fill="#4B5666" d="M672.4736,1044.7676c0,2.1094-0.7686,3.7275-2.3047,4.8535s-3.7373,1.6895-6.6016,1.6895
		c-2.8779,0-5.1885-0.4365-6.9336-1.3086v-3.9648c2.5391,1.1719,4.9023,1.7578,7.0898,1.7578c2.8252,0,4.2383-0.8525,4.2383-2.5586
		c0-0.5469-0.1562-1.0029-0.4688-1.3672s-0.8271-0.7422-1.543-1.1328s-1.7119-0.833-2.9883-1.3281
		c-2.4873-0.9639-4.1699-1.9268-5.0488-2.8906s-1.3184-2.2139-1.3184-3.75c0-1.8486,0.7451-3.2842,2.2363-4.3066
		s3.5186-1.5332,6.084-1.5332c2.5391,0,4.9414,0.5146,7.207,1.543l-1.4844,3.457c-2.3311-0.9639-4.29-1.4453-5.8789-1.4453
		c-2.4219,0-3.6328,0.6904-3.6328,2.0703c0,0.6768,0.3154,1.25,0.9473,1.7188s2.0088,1.1133,4.1309,1.9336
		c1.7842,0.6904,3.0791,1.3213,3.8867,1.8945s1.4062,1.2334,1.7969,1.9824S672.4736,1043.7256,672.4736,1044.7676z"/>
	<path fill="#4B5666" d="M677.1611,1023.5957c0-0.8203,0.2246-1.4521,0.6738-1.8945s1.0908-0.6641,1.9238-0.6641
		c0.8076,0,1.4355,0.2217,1.8848,0.6641s0.6738,1.0742,0.6738,1.8945c0,0.7812-0.2246,1.3965-0.6738,1.8457
		s-1.0771,0.6738-1.8848,0.6738c-0.833,0-1.4746-0.2246-1.9238-0.6738S677.1611,1024.377,677.1611,1023.5957z M682.0244,1050.9199
		h-4.5898v-21.6016h4.5898V1050.9199z"/>
	<path fill="#4B5666" d="M696.6338,1047.5996c1.1201,0,2.2393-0.1758,3.3594-0.5273v3.457
		c-0.5078,0.2217-1.1621,0.4072-1.9629,0.5566s-1.6309,0.2246-2.4902,0.2246c-4.3486,0-6.5234-2.292-6.5234-6.875v-11.6406h-2.9492
		v-2.0312l3.1641-1.6797l1.5625-4.5703h2.832v4.8047h6.1523v3.4766h-6.1523v11.5625c0,1.1064,0.2764,1.9238,0.8301,2.4512
		S695.7354,1047.5996,696.6338,1047.5996z"/>
	<path fill="#4B5666" d="M723.4697,1040.0801c0,3.5283-0.9053,6.2822-2.7148,8.2617s-4.3291,2.9688-7.5586,2.9688
		c-2.0186,0-3.8018-0.4561-5.3516-1.3672s-2.7412-2.2197-3.5742-3.9258s-1.25-3.6846-1.25-5.9375
		c0-3.5029,0.8984-6.2373,2.6953-8.2031s4.3291-2.9492,7.5977-2.9492c3.125,0,5.5986,1.0059,7.4219,3.0176
		S723.4697,1036.6689,723.4697,1040.0801z M707.7471,1040.0801c0,4.9873,1.8428,7.4805,5.5273,7.4805
		c3.6455,0,5.4688-2.4932,5.4688-7.4805c0-4.9346-1.8359-7.4023-5.5078-7.4023c-1.9268,0-3.3232,0.6377-4.1895,1.9141
		S707.7471,1037.6973,707.7471,1040.0801z"/>
</g>
<path fill="#4B5666" d="M609.6885,812.8311h-67.3799c-1.5449,0-2.7998,1.252-2.7998,2.7969l0.0029,25.9648
	c0,0.002,0.001,0.0059,0.001,0.0098c0,7.7988,0,15.6211,0,18.2344c0,5.7969,1.9561,14.1484,9.4453,22.5391
	c10.7305,12.0176,27.0439,16.9551,27.0439,16.9551s16.3125-4.9375,27.043-16.9551c7.4893-8.3906,9.4453-16.7422,9.4453-22.5391
	c0-2.6133,0-10.4355,0-18.2344c0-0.0039,0.001-0.0078,0.001-0.0098l-0.0039-25.9648
	C612.4873,814.083,611.2334,812.8311,609.6885,812.8311z M556.3057,878.9092c-0.3535,0.3145-0.7949,0.4688-1.2334,0.4688
	c-0.5107,0-1.0176-0.209-1.3838-0.6191c-7.3506-8.2324-8.4473-16.0156-8.4473-19.9219c0-1.0234,0.8291-1.8535,1.8525-1.8535
	s1.8545,0.8301,1.8545,1.8535c0,3.3789,0.9746,10.1387,7.5059,17.4531C557.1357,877.0537,557.0674,878.2256,556.3057,878.9092z
	 M606.7119,841.5029c-0.001,0.0312-0.001,0.0664-0.001,0.0996v18.2344c0,3.6426-1.0371,10.916-7.9766,18.6895
	c-7.5762,8.4863-18.5674,13.1426-22.7324,14.6895l-0.0039-74.6074h30.7109L606.7119,841.5029z"/>
<g>
	<path fill="#4B5666" d="M99.9888,582.8213c0,2.5391-0.918,4.5312-2.7539,5.9766s-4.3687,2.168-7.5977,2.168
		c-3.2295,0-5.8726-0.501-7.9297-1.5039v-4.4141c1.3018,0.6123,2.6855,1.0938,4.1504,1.4453s2.8286,0.5273,4.0918,0.5273
		c1.8486,0,3.2129-0.3516,4.0918-1.0547s1.3184-1.6475,1.3184-2.832c0-1.0674-0.4038-1.9727-1.2109-2.7148
		c-0.8076-0.7422-2.4741-1.6211-5-2.6367c-2.6045-1.0547-4.4404-2.2588-5.5078-3.6133c-1.0679-1.3545-1.6016-2.9814-1.6016-4.8828
		c0-2.3828,0.8462-4.2578,2.5391-5.625c1.6924-1.3672,3.9648-2.0508,6.8164-2.0508c2.7344,0,5.4556,0.5986,8.1641,1.7969
		l-1.4844,3.8086c-2.5391-1.0674-4.8047-1.6016-6.7969-1.6016c-1.5107,0-2.6562,0.3291-3.4375,0.9863s-1.1719,1.5264-1.1719,2.6074
		c0,0.7422,0.1562,1.377,0.4688,1.9043s0.8267,1.0254,1.543,1.4941c0.7158,0.4688,2.0049,1.0869,3.8672,1.8555
		c2.0962,0.8721,3.6328,1.6865,4.6094,2.4414s1.6924,1.6084,2.1484,2.5586C99.7607,580.4121,99.9888,581.5322,99.9888,582.8213z"/>
	<path fill="#4B5666" d="M115.9849,590.9658c-2.7344,0-4.8569-0.9834-6.3672-2.9492h-0.2734
		c0.1821,1.8232,0.2734,2.9297,0.2734,3.3203v8.8477h-4.5898v-31.2109h3.7109c0.104,0.4033,0.3188,1.3672,0.6445,2.8906h0.2344
		c1.4321-2.1875,3.5806-3.2812,6.4453-3.2812c2.6953,0,4.7949,0.9766,6.2988,2.9297s2.2559,4.6943,2.2559,8.2227
		s-0.7651,6.2822-2.2949,8.2617C120.7925,589.9766,118.6802,590.9658,115.9849,590.9658z M114.8716,572.333
		c-1.8232,0-3.1543,0.5342-3.9941,1.6016s-1.2598,2.7734-1.2598,5.1172v0.6836c0,2.6299,0.4165,4.5342,1.25,5.7129
		c0.833,1.1787,2.1938,1.7676,4.082,1.7676c1.5884,0,2.8125-0.6514,3.6719-1.9531s1.2891-3.1572,1.2891-5.5664
		c0-2.4219-0.4268-4.2549-1.2793-5.498C117.7783,572.9551,116.5249,572.333,114.8716,572.333z"/>
	<path fill="#4B5666" d="M139.3833,590.9658c-3.3594,0-5.9863-0.9795-7.8809-2.9395s-2.8418-4.6582-2.8418-8.0957
		c0-3.5283,0.8789-6.3018,2.6367-8.3203s4.1729-3.0273,7.2461-3.0273c2.8516,0,5.104,0.8662,6.7578,2.5977
		c1.6533,1.7314,2.4805,4.1143,2.4805,7.1484v2.4805h-14.3945c0.0649,2.0967,0.6313,3.708,1.6992,4.834
		c1.0674,1.126,2.5713,1.6895,4.5117,1.6895c1.2759,0,2.4639-0.1201,3.5645-0.3613c1.1001-0.2412,2.2817-0.6416,3.5449-1.2012
		v3.7305c-1.1201,0.5342-2.2529,0.9111-3.3984,1.1328C142.1631,590.8555,140.8545,590.9658,139.3833,590.9658z M138.5435,572.0596
		c-1.4585,0-2.627,0.4619-3.5059,1.3867s-1.4033,2.2725-1.5723,4.043h9.8047c-0.0264-1.7842-0.4561-3.1348-1.2891-4.0527
		C141.1475,572.5186,140.0015,572.0596,138.5435,572.0596z"/>
	<path fill="#4B5666" d="M163.9536,568.583c0.9243,0,1.686,0.0654,2.2852,0.1953l-0.4492,4.2773
		c-0.6514-0.1562-1.3281-0.2344-2.0312-0.2344c-1.8359,0-3.3237,0.5986-4.4629,1.7969c-1.1396,1.1982-1.709,2.7539-1.709,4.668
		v11.2891h-4.5898v-21.6016h3.5938l0.6055,3.8086h0.2344c0.7158-1.2891,1.6504-2.3115,2.8027-3.0664
		S162.6255,568.583,163.9536,568.583z"/>
	<path fill="#4B5666" d="M169.9692,563.251c0-0.8203,0.2246-1.4521,0.6738-1.8945s1.0903-0.6641,1.9238-0.6641
		c0.8071,0,1.4355,0.2217,1.8848,0.6641s0.6738,1.0742,0.6738,1.8945c0,0.7812-0.2246,1.3965-0.6738,1.8457
		s-1.0776,0.6738-1.8848,0.6738c-0.8335,0-1.4746-0.2246-1.9238-0.6738S169.9692,564.0322,169.9692,563.251z M174.8325,590.5752
		h-4.5898v-21.6016h4.5898V590.5752z"/>
	<path fill="#4B5666" d="M199.5981,590.5752h-4.6094v-13.3203c0-1.6533-0.3125-2.8877-0.9375-3.7012s-1.6016-1.2207-2.9297-1.2207
		c-1.771,0-3.0698,0.5762-3.8965,1.7285c-0.8271,1.1523-1.2402,3.0693-1.2402,5.752v10.7617h-4.5898v-21.6016h3.5938l0.6445,2.832
		h0.2344c0.5986-1.0283,1.4678-1.8232,2.6074-2.3828c1.1392-0.5596,2.3926-0.8398,3.7598-0.8398
		c3.3203,0,5.5205,1.1328,6.6016,3.3984h0.3125c0.6377-1.0674,1.5361-1.9014,2.6953-2.5c1.1587-0.5986,2.4868-0.8984,3.9844-0.8984
		c2.5781,0,4.4561,0.6514,5.6348,1.9531c1.1782,1.3018,1.7676,3.2881,1.7676,5.957v14.082h-4.5898v-13.3203
		c0-1.6533-0.3159-2.8877-0.9473-3.7012c-0.6318-0.8135-1.6113-1.2207-2.9395-1.2207c-1.7842,0-3.0894,0.5566-3.916,1.6699
		c-0.8271,1.1133-1.2402,2.8223-1.2402,5.127V590.5752z"/>
	<path fill="#4B5666" d="M229.0708,590.9658c-3.3594,0-5.9863-0.9795-7.8809-2.9395s-2.8418-4.6582-2.8418-8.0957
		c0-3.5283,0.8789-6.3018,2.6367-8.3203s4.1729-3.0273,7.2461-3.0273c2.8516,0,5.104,0.8662,6.7578,2.5977
		c1.6533,1.7314,2.4805,4.1143,2.4805,7.1484v2.4805h-14.3945c0.0649,2.0967,0.6313,3.708,1.6992,4.834
		c1.0674,1.126,2.5713,1.6895,4.5117,1.6895c1.2759,0,2.4639-0.1201,3.5645-0.3613c1.1001-0.2412,2.2817-0.6416,3.5449-1.2012
		v3.7305c-1.1201,0.5342-2.2529,0.9111-3.3984,1.1328C231.8506,590.8555,230.542,590.9658,229.0708,590.9658z M228.231,572.0596
		c-1.4585,0-2.627,0.4619-3.5059,1.3867s-1.4033,2.2725-1.5723,4.043h9.8047c-0.0264-1.7842-0.4561-3.1348-1.2891-4.0527
		C230.835,572.5186,229.689,572.0596,228.231,572.0596z"/>
	<path fill="#4B5666" d="M261.688,590.5752h-4.6094v-13.2812c0-1.667-0.3354-2.9102-1.0059-3.7305
		c-0.6709-0.8203-1.7354-1.2305-3.1934-1.2305c-1.9404,0-3.3594,0.5732-4.2578,1.7188s-1.3477,3.0664-1.3477,5.7617v10.7617h-4.5898
		v-21.6016h3.5938l0.6445,2.832h0.2344c0.6509-1.0283,1.5752-1.8232,2.7734-2.3828c1.1978-0.5596,2.5259-0.8398,3.9844-0.8398
		c5.1821,0,7.7734,2.6367,7.7734,7.9102V590.5752z"/>
	<path fill="#4B5666" d="M276.1216,587.2549c1.1196,0,2.2393-0.1758,3.3594-0.5273v3.457
		c-0.5078,0.2217-1.1621,0.4072-1.9629,0.5566s-1.6309,0.2246-2.4902,0.2246c-4.3491,0-6.5234-2.292-6.5234-6.875v-11.6406h-2.9492
		v-2.0312l3.1641-1.6797l1.5625-4.5703h2.832v4.8047h6.1523v3.4766h-6.1523v11.5625c0,1.1064,0.2764,1.9238,0.8301,2.4512
		C274.4971,586.9912,275.2231,587.2549,276.1216,587.2549z"/>
	<path fill="#4B5666" d="M297.313,590.5752l-0.918-3.0078h-0.1562c-1.042,1.3154-2.0898,2.21-3.1445,2.6855
		s-2.4092,0.7129-4.0625,0.7129c-2.1226,0-3.7793-0.5732-4.9707-1.7188s-1.7871-2.7666-1.7871-4.8633
		c0-2.2266,0.8267-3.9062,2.4805-5.0391c1.6533-1.1328,4.1729-1.751,7.5586-1.8555l3.7305-0.1172v-1.1523
		c0-1.3799-0.3223-2.4121-0.9668-3.0957s-1.644-1.0254-2.998-1.0254c-1.1069,0-2.168,0.1631-3.1836,0.4883
		s-1.9922,0.71-2.9297,1.1523l-1.4844-3.2812c1.1719-0.6123,2.4541-1.0771,3.8477-1.3965c1.3931-0.3193,2.708-0.4785,3.9453-0.4785
		c2.7471,0,4.8208,0.5986,6.2207,1.7969c1.3994,1.1982,2.0996,3.0791,2.0996,5.6445v14.5508H297.313z M290.4771,587.4502
		c1.6665,0,3.0044-0.4658,4.0137-1.3965c1.0088-0.9307,1.5137-2.2363,1.5137-3.916v-1.875l-2.7734,0.1172
		c-2.1616,0.0781-3.7339,0.4395-4.7168,1.084c-0.9834,0.6445-1.4746,1.6309-1.4746,2.959c0,0.9639,0.2861,1.709,0.8594,2.2363
		C288.4717,587.1865,289.3311,587.4502,290.4771,587.4502z"/>
	<path fill="#4B5666" d="M317.9575,568.583c0.9243,0,1.686,0.0654,2.2852,0.1953l-0.4492,4.2773
		c-0.6514-0.1562-1.3281-0.2344-2.0312-0.2344c-1.8359,0-3.3237,0.5986-4.4629,1.7969c-1.1396,1.1982-1.709,2.7539-1.709,4.668
		v11.2891h-4.5898v-21.6016h3.5938l0.6055,3.8086h0.2344c0.7158-1.2891,1.6504-2.3115,2.8027-3.0664
		S316.6294,568.583,317.9575,568.583z"/>
	<path fill="#4B5666" d="M333.6802,590.9658c-3.3594,0-5.9863-0.9795-7.8809-2.9395s-2.8418-4.6582-2.8418-8.0957
		c0-3.5283,0.8789-6.3018,2.6367-8.3203s4.1729-3.0273,7.2461-3.0273c2.8516,0,5.104,0.8662,6.7578,2.5977
		c1.6533,1.7314,2.4805,4.1143,2.4805,7.1484v2.4805h-14.3945c0.0649,2.0967,0.6313,3.708,1.6992,4.834
		c1.0674,1.126,2.5713,1.6895,4.5117,1.6895c1.2759,0,2.4639-0.1201,3.5645-0.3613c1.1001-0.2412,2.2817-0.6416,3.5449-1.2012
		v3.7305c-1.1201,0.5342-2.2529,0.9111-3.3984,1.1328C336.46,590.8555,335.1514,590.9658,333.6802,590.9658z M332.8403,572.0596
		c-1.4585,0-2.627,0.4619-3.5059,1.3867s-1.4033,2.2725-1.5723,4.043h9.8047c-0.0264-1.7842-0.4561-3.1348-1.2891-4.0527
		C335.4443,572.5186,334.2983,572.0596,332.8403,572.0596z"/>
	<path fill="#4B5666" d="M118.7485,638.9658c-3.3594,0-5.9863-0.9795-7.8809-2.9395s-2.8418-4.6582-2.8418-8.0957
		c0-3.5283,0.8789-6.3018,2.6367-8.3203s4.1729-3.0273,7.2461-3.0273c2.8516,0,5.104,0.8662,6.7578,2.5977
		c1.6533,1.7314,2.4805,4.1143,2.4805,7.1484v2.4805h-14.3945c0.0649,2.0967,0.6313,3.708,1.6992,4.834
		c1.0674,1.126,2.5713,1.6895,4.5117,1.6895c1.2759,0,2.4639-0.1201,3.5645-0.3613c1.1001-0.2412,2.2817-0.6416,3.5449-1.2012
		v3.7305c-1.1201,0.5342-2.2529,0.9111-3.3984,1.1328C121.5283,638.8555,120.2197,638.9658,118.7485,638.9658z M117.9087,620.0596
		c-1.4585,0-2.627,0.4619-3.5059,1.3867s-1.4033,2.2725-1.5723,4.043h9.8047c-0.0264-1.7842-0.4561-3.1348-1.2891-4.0527
		C120.5127,620.5186,119.3667,620.0596,117.9087,620.0596z"/>
	<path fill="#4B5666" d="M142.479,611.251c0-0.8203,0.2246-1.4521,0.6738-1.8945s1.0903-0.6641,1.9238-0.6641
		c0.8071,0,1.4355,0.2217,1.8848,0.6641s0.6738,1.0742,0.6738,1.8945c0,0.7812-0.2246,1.3965-0.6738,1.8457
		s-1.0776,0.6738-1.8848,0.6738c-0.8335,0-1.4746-0.2246-1.9238-0.6738S142.479,612.0322,142.479,611.251z M147.3423,638.5752
		h-4.5898v-21.6016h4.5898V638.5752z"/>
	<path fill="#4B5666" d="M172.1079,638.5752h-4.6094v-13.3203c0-1.6533-0.3125-2.8877-0.9375-3.7012s-1.6016-1.2207-2.9297-1.2207
		c-1.771,0-3.0698,0.5762-3.8965,1.7285c-0.8271,1.1523-1.2402,3.0693-1.2402,5.752v10.7617h-4.5898v-21.6016h3.5938l0.6445,2.832
		h0.2344c0.5986-1.0283,1.4678-1.8232,2.6074-2.3828c1.1392-0.5596,2.3926-0.8398,3.7598-0.8398
		c3.3203,0,5.5205,1.1328,6.6016,3.3984h0.3125c0.6377-1.0674,1.5361-1.9014,2.6953-2.5c1.1587-0.5986,2.4868-0.8984,3.9844-0.8984
		c2.5781,0,4.4561,0.6514,5.6348,1.9531c1.1782,1.3018,1.7676,3.2881,1.7676,5.957v14.082h-4.5898v-13.3203
		c0-1.6533-0.3159-2.8877-0.9473-3.7012c-0.6318-0.8135-1.6113-1.2207-2.9395-1.2207c-1.7842,0-3.0894,0.5566-3.916,1.6699
		c-0.8271,1.1133-1.2402,2.8223-1.2402,5.127V638.5752z"/>
	<path fill="#4B5666" d="M203.104,638.9658c-2.7344,0-4.8569-0.9834-6.3672-2.9492h-0.2734
		c0.1821,1.8232,0.2734,2.9297,0.2734,3.3203v8.8477h-4.5898v-31.2109h3.7109c0.104,0.4033,0.3188,1.3672,0.6445,2.8906h0.2344
		c1.4321-2.1875,3.5806-3.2812,6.4453-3.2812c2.6953,0,4.7949,0.9766,6.2988,2.9297s2.2559,4.6943,2.2559,8.2227
		s-0.7651,6.2822-2.2949,8.2617C207.9116,637.9766,205.7993,638.9658,203.104,638.9658z M201.9907,620.333
		c-1.8232,0-3.1543,0.5342-3.9941,1.6016s-1.2598,2.7734-1.2598,5.1172v0.6836c0,2.6299,0.4165,4.5342,1.25,5.7129
		c0.833,1.1787,2.1938,1.7676,4.082,1.7676c1.5884,0,2.8125-0.6514,3.6719-1.9531s1.2891-3.1572,1.2891-5.5664
		c0-2.4219-0.4268-4.2549-1.2793-5.498C204.8975,620.9551,203.644,620.333,201.9907,620.333z"/>
	<path fill="#4B5666" d="M230.5845,638.5752l-0.918-3.0078h-0.1562c-1.042,1.3154-2.0898,2.21-3.1445,2.6855
		s-2.4092,0.7129-4.0625,0.7129c-2.1226,0-3.7793-0.5732-4.9707-1.7188s-1.7871-2.7666-1.7871-4.8633
		c0-2.2266,0.8267-3.9062,2.4805-5.0391c1.6533-1.1328,4.1729-1.751,7.5586-1.8555l3.7305-0.1172v-1.1523
		c0-1.3799-0.3223-2.4121-0.9668-3.0957s-1.644-1.0254-2.998-1.0254c-1.1069,0-2.168,0.1631-3.1836,0.4883
		s-1.9922,0.71-2.9297,1.1523l-1.4844-3.2812c1.1719-0.6123,2.4541-1.0771,3.8477-1.3965c1.3931-0.3193,2.708-0.4785,3.9453-0.4785
		c2.7471,0,4.8208,0.5986,6.2207,1.7969c1.3994,1.1982,2.0996,3.0791,2.0996,5.6445v14.5508H230.5845z M223.7485,635.4502
		c1.6665,0,3.0044-0.4658,4.0137-1.3965c1.0088-0.9307,1.5137-2.2363,1.5137-3.916v-1.875l-2.7734,0.1172
		c-2.1616,0.0781-3.7339,0.4395-4.7168,1.084c-0.9834,0.6445-1.4746,1.6309-1.4746,2.959c0,0.9639,0.2861,1.709,0.8594,2.2363
		C221.7432,635.1865,222.6025,635.4502,223.7485,635.4502z"/>
	<path fill="#4B5666" d="M251.229,616.583c0.9243,0,1.686,0.0654,2.2852,0.1953l-0.4492,4.2773
		c-0.6514-0.1562-1.3281-0.2344-2.0312-0.2344c-1.8359,0-3.3237,0.5986-4.4629,1.7969c-1.1396,1.1982-1.709,2.7539-1.709,4.668
		v11.2891h-4.5898v-21.6016h3.5938l0.6055,3.8086h0.2344c0.7158-1.2891,1.6504-2.3115,2.8027-3.0664
		S249.9009,616.583,251.229,616.583z"/>
	<path fill="#4B5666" d="M271.0337,638.5752l-0.918-3.0078h-0.1562c-1.042,1.3154-2.0898,2.21-3.1445,2.6855
		s-2.4092,0.7129-4.0625,0.7129c-2.1226,0-3.7793-0.5732-4.9707-1.7188s-1.7871-2.7666-1.7871-4.8633
		c0-2.2266,0.8267-3.9062,2.4805-5.0391c1.6533-1.1328,4.1729-1.751,7.5586-1.8555l3.7305-0.1172v-1.1523
		c0-1.3799-0.3223-2.4121-0.9668-3.0957s-1.644-1.0254-2.998-1.0254c-1.1069,0-2.168,0.1631-3.1836,0.4883
		s-1.9922,0.71-2.9297,1.1523l-1.4844-3.2812c1.1719-0.6123,2.4541-1.0771,3.8477-1.3965c1.3931-0.3193,2.708-0.4785,3.9453-0.4785
		c2.7471,0,4.8208,0.5986,6.2207,1.7969c1.3994,1.1982,2.0996,3.0791,2.0996,5.6445v14.5508H271.0337z M264.1978,635.4502
		c1.6665,0,3.0044-0.4658,4.0137-1.3965c1.0088-0.9307,1.5137-2.2363,1.5137-3.916v-1.875l-2.7734,0.1172
		c-2.1616,0.0781-3.7339,0.4395-4.7168,1.084c-0.9834,0.6445-1.4746,1.6309-1.4746,2.959c0,0.9639,0.2861,1.709,0.8594,2.2363
		C262.1924,635.1865,263.0518,635.4502,264.1978,635.4502z"/>
	<path fill="#4B5666" d="M291.6782,616.583c0.9243,0,1.686,0.0654,2.2852,0.1953l-0.4492,4.2773
		c-0.6514-0.1562-1.3281-0.2344-2.0312-0.2344c-1.8359,0-3.3237,0.5986-4.4629,1.7969c-1.1396,1.1982-1.709,2.7539-1.709,4.668
		v11.2891h-4.5898v-21.6016h3.5938l0.6055,3.8086h0.2344c0.7158-1.2891,1.6504-2.3115,2.8027-3.0664
		S290.3501,616.583,291.6782,616.583z"/>
	<path fill="#4B5666" d="M307.4009,638.9658c-3.3594,0-5.9863-0.9795-7.8809-2.9395s-2.8418-4.6582-2.8418-8.0957
		c0-3.5283,0.8789-6.3018,2.6367-8.3203s4.1729-3.0273,7.2461-3.0273c2.8516,0,5.104,0.8662,6.7578,2.5977
		c1.6533,1.7314,2.4805,4.1143,2.4805,7.1484v2.4805h-14.3945c0.0649,2.0967,0.6313,3.708,1.6992,4.834
		c1.0674,1.126,2.5713,1.6895,4.5117,1.6895c1.2759,0,2.4639-0.1201,3.5645-0.3613c1.1001-0.2412,2.2817-0.6416,3.5449-1.2012
		v3.7305c-1.1201,0.5342-2.2529,0.9111-3.3984,1.1328C310.1807,638.8555,308.8721,638.9658,307.4009,638.9658z M306.561,620.0596
		c-1.4585,0-2.627,0.4619-3.5059,1.3867s-1.4033,2.2725-1.5723,4.043h9.8047c-0.0264-1.7842-0.4561-3.1348-1.2891-4.0527
		C309.165,620.5186,308.019,620.0596,306.561,620.0596z"/>
	<path fill="#4B5666" d="M95.9165,686.5752l-8.2031-21.6016h4.8438l4.3945,12.5586c0.7549,2.1094,1.2109,3.8154,1.3672,5.1172
		h0.1562c0.1172-0.9375,0.5728-2.6436,1.3672-5.1172l4.3945-12.5586h4.8828l-8.2422,21.6016H95.9165z"/>
	<path fill="#4B5666" d="M121.8345,686.9658c-3.3594,0-5.9863-0.9795-7.8809-2.9395s-2.8418-4.6582-2.8418-8.0957
		c0-3.5283,0.8789-6.3018,2.6367-8.3203s4.1729-3.0273,7.2461-3.0273c2.8516,0,5.104,0.8662,6.7578,2.5977
		c1.6533,1.7314,2.4805,4.1143,2.4805,7.1484v2.4805h-14.3945c0.0649,2.0967,0.6313,3.708,1.6992,4.834
		c1.0674,1.126,2.5713,1.6895,4.5117,1.6895c1.2759,0,2.4639-0.1201,3.5645-0.3613c1.1001-0.2412,2.2817-0.6416,3.5449-1.2012
		v3.7305c-1.1201,0.5342-2.2529,0.9111-3.3984,1.1328C124.6143,686.8555,123.3057,686.9658,121.8345,686.9658z M120.9946,668.0596
		c-1.4585,0-2.627,0.4619-3.5059,1.3867s-1.4033,2.2725-1.5723,4.043h9.8047c-0.0264-1.7842-0.4561-3.1348-1.2891-4.0527
		C123.5986,668.5186,122.4526,668.0596,120.9946,668.0596z"/>
	<path fill="#4B5666" d="M140.0376,686.5752h-4.5898v-30.3906h4.5898V686.5752z"/>
	<path fill="#4B5666" d="M165.7603,675.7354c0,3.5283-0.9053,6.2822-2.7148,8.2617c-1.8101,1.9795-4.3296,2.9688-7.5586,2.9688
		c-2.0186,0-3.8022-0.4561-5.3516-1.3672c-1.5498-0.9111-2.7412-2.2197-3.5742-3.9258c-0.8335-1.7061-1.25-3.6846-1.25-5.9375
		c0-3.5029,0.8984-6.2373,2.6953-8.2031s4.3291-2.9492,7.5977-2.9492c3.125,0,5.5986,1.0059,7.4219,3.0176
		C164.8486,669.6123,165.7603,672.3242,165.7603,675.7354z M150.0376,675.7354c0,4.9873,1.8423,7.4805,5.5273,7.4805
		c3.6455,0,5.4688-2.4932,5.4688-7.4805c0-4.9346-1.8359-7.4023-5.5078-7.4023c-1.9272,0-3.3237,0.6377-4.1895,1.9141
		C150.4702,671.5234,150.0376,673.3525,150.0376,675.7354z"/>
	<path fill="#4B5666" d="M179.7446,686.9658c-3.2686,0-5.752-0.9541-7.4512-2.8613s-2.5488-4.6455-2.5488-8.2129
		c0-3.6328,0.8887-6.4258,2.666-8.3789s4.3457-2.9297,7.7051-2.9297c2.2783,0,4.3291,0.4229,6.1523,1.2695l-1.3867,3.6914
		c-1.9404-0.7549-3.542-1.1328-4.8047-1.1328c-3.7373,0-5.6055,2.4805-5.6055,7.4414c0,2.4219,0.4653,4.2412,1.3965,5.459
		c0.9307,1.2178,2.2949,1.8262,4.0918,1.8262c2.0439,0,3.9775-0.5078,5.8008-1.5234v4.0039
		c-0.8203,0.4814-1.6963,0.8271-2.627,1.0352C182.2021,686.8613,181.0728,686.9658,179.7446,686.9658z"/>
	<path fill="#4B5666" d="M200.272,686.9658c-3.3594,0-5.9863-0.9795-7.8809-2.9395s-2.8418-4.6582-2.8418-8.0957
		c0-3.5283,0.8789-6.3018,2.6367-8.3203s4.1729-3.0273,7.2461-3.0273c2.8516,0,5.104,0.8662,6.7578,2.5977
		c1.6533,1.7314,2.4805,4.1143,2.4805,7.1484v2.4805h-14.3945c0.0649,2.0967,0.6313,3.708,1.6992,4.834
		c1.0674,1.126,2.5713,1.6895,4.5117,1.6895c1.2759,0,2.4639-0.1201,3.5645-0.3613c1.1001-0.2412,2.2817-0.6416,3.5449-1.2012
		v3.7305c-1.1201,0.5342-2.2529,0.9111-3.3984,1.1328C203.0518,686.8555,201.7432,686.9658,200.272,686.9658z M199.4321,668.0596
		c-1.4585,0-2.627,0.4619-3.5059,1.3867s-1.4033,2.2725-1.5723,4.043h9.8047c-0.0264-1.7842-0.4561-3.1348-1.2891-4.0527
		C202.0361,668.5186,200.8901,668.0596,199.4321,668.0596z"/>
	<path fill="#4B5666" d="M232.0884,686.5752h-4.6094v-13.3203c0-1.6533-0.3125-2.8877-0.9375-3.7012s-1.6016-1.2207-2.9297-1.2207
		c-1.771,0-3.0698,0.5762-3.8965,1.7285c-0.8271,1.1523-1.2402,3.0693-1.2402,5.752v10.7617h-4.5898v-21.6016h3.5938l0.6445,2.832
		h0.2344c0.5986-1.0283,1.4678-1.8232,2.6074-2.3828c1.1392-0.5596,2.3926-0.8398,3.7598-0.8398
		c3.3203,0,5.5205,1.1328,6.6016,3.3984h0.3125c0.6377-1.0674,1.5361-1.9014,2.6953-2.5c1.1587-0.5986,2.4868-0.8984,3.9844-0.8984
		c2.5781,0,4.4561,0.6514,5.6348,1.9531c1.1782,1.3018,1.7676,3.2881,1.7676,5.957v14.082h-4.5898v-13.3203
		c0-1.6533-0.3159-2.8877-0.9473-3.7012c-0.6318-0.8135-1.6113-1.2207-2.9395-1.2207c-1.7842,0-3.0894,0.5566-3.916,1.6699
		c-0.8271,1.1133-1.2402,2.8223-1.2402,5.127V686.5752z"/>
	<path fill="#4B5666" d="M261.561,686.9658c-3.3594,0-5.9863-0.9795-7.8809-2.9395s-2.8418-4.6582-2.8418-8.0957
		c0-3.5283,0.8789-6.3018,2.6367-8.3203s4.1729-3.0273,7.2461-3.0273c2.8516,0,5.104,0.8662,6.7578,2.5977
		c1.6533,1.7314,2.4805,4.1143,2.4805,7.1484v2.4805h-14.3945c0.0649,2.0967,0.6313,3.708,1.6992,4.834
		c1.0674,1.126,2.5713,1.6895,4.5117,1.6895c1.2759,0,2.4639-0.1201,3.5645-0.3613c1.1001-0.2412,2.2817-0.6416,3.5449-1.2012
		v3.7305c-1.1201,0.5342-2.2529,0.9111-3.3984,1.1328C264.3408,686.8555,263.0322,686.9658,261.561,686.9658z M260.7212,668.0596
		c-1.4585,0-2.627,0.4619-3.5059,1.3867s-1.4033,2.2725-1.5723,4.043h9.8047c-0.0264-1.7842-0.4561-3.1348-1.2891-4.0527
		C263.3252,668.5186,262.1792,668.0596,260.7212,668.0596z"/>
	<path fill="#4B5666" d="M294.1782,686.5752h-4.6094v-13.2812c0-1.667-0.3354-2.9102-1.0059-3.7305
		c-0.6709-0.8203-1.7354-1.2305-3.1934-1.2305c-1.9404,0-3.3594,0.5732-4.2578,1.7188s-1.3477,3.0664-1.3477,5.7617v10.7617h-4.5898
		v-21.6016h3.5938l0.6445,2.832h0.2344c0.6509-1.0283,1.5752-1.8232,2.7734-2.3828c1.1978-0.5596,2.5259-0.8398,3.9844-0.8398
		c5.1821,0,7.7734,2.6367,7.7734,7.9102V686.5752z"/>
	<path fill="#4B5666" d="M308.6118,683.2549c1.1196,0,2.2393-0.1758,3.3594-0.5273v3.457
		c-0.5078,0.2217-1.1621,0.4072-1.9629,0.5566s-1.6309,0.2246-2.4902,0.2246c-4.3491,0-6.5234-2.292-6.5234-6.875v-11.6406h-2.9492
		v-2.0312l3.1641-1.6797l1.5625-4.5703h2.832v4.8047h6.1523v3.4766h-6.1523v11.5625c0,1.1064,0.2764,1.9238,0.8301,2.4512
		C306.9873,682.9912,307.7134,683.2549,308.6118,683.2549z"/>
	<path fill="#4B5666" d="M325.7212,686.9658c-3.3594,0-5.9863-0.9795-7.8809-2.9395s-2.8418-4.6582-2.8418-8.0957
		c0-3.5283,0.8789-6.3018,2.6367-8.3203s4.1729-3.0273,7.2461-3.0273c2.8516,0,5.104,0.8662,6.7578,2.5977
		c1.6533,1.7314,2.4805,4.1143,2.4805,7.1484v2.4805h-14.3945c0.0649,2.0967,0.6313,3.708,1.6992,4.834
		c1.0674,1.126,2.5713,1.6895,4.5117,1.6895c1.2759,0,2.4639-0.1201,3.5645-0.3613c1.1001-0.2412,2.2817-0.6416,3.5449-1.2012
		v3.7305c-1.1201,0.5342-2.2529,0.9111-3.3984,1.1328C328.501,686.8555,327.1924,686.9658,325.7212,686.9658z M324.8813,668.0596
		c-1.4585,0-2.627,0.4619-3.5059,1.3867s-1.4033,2.2725-1.5723,4.043h9.8047c-0.0264-1.7842-0.4561-3.1348-1.2891-4.0527
		C327.4854,668.5186,326.3394,668.0596,324.8813,668.0596z"/>
</g>
<path fill-rule="evenodd" clip-rule="evenodd" fill="#4B5666" d="M243.4507,506.4004c0,11.8926-6.5791,22.2422-16.2925,27.623
	c0,0-1.1807,0.6758-2.7192,0.9424c-1.4961,0.2578-2.6011,0.3066-2.6011,0.3066h-9.9546h-9.9531c0,0-1.1064-0.0488-2.603-0.3066
	c-1.5381-0.2666-2.7188-0.9424-2.7188-0.9424c-9.7134-5.3809-16.2925-15.7305-16.2925-27.623
	c0-13.1309,8.019-24.3857,19.4258-29.1436v-17.9307c-1.5508,0-2.8081-1.2578-2.8081-2.8066v-4.9395
	c0-1.5508,1.2573-2.8076,2.8081-2.8076h24.2832c1.5508,0,2.8086,1.2568,2.8086,2.8076v4.9395c0,1.5488-1.2578,2.8066-2.8086,2.8066
	v17.9307C235.4316,482.0146,243.4507,493.2695,243.4507,506.4004z M220.0063,450.6797h-16.2451
	c-1.0239,0-1.8535,0.8311-1.8535,1.8545c0,1.0244,0.8296,1.8535,1.8535,1.8535h16.2451c1.0239,0,1.8545-0.8291,1.8545-1.8535
	C221.8608,451.5107,221.0303,450.6797,220.0063,450.6797z M221.8008,482.5908c-2.1523-0.8975-3.5557-3.002-3.5557-5.334v-17.9307
	h-12.7236v17.9307c0,2.332-1.4023,4.4365-3.5552,5.334c-9.6401,4.0215-15.8711,13.3682-15.8711,23.8096
	c0,9.3691,5.1001,18.0166,13.3096,22.5664c0.1255,0.0625,0.5244,0.2373,0.9072,0.3047c0.853,0.1465,1.54,0.2031,1.7881,0.2207
	h9.7832h9.7852c0.2339-0.0156,0.9263-0.0723,1.7881-0.2217c0.3828-0.0664,0.7793-0.2412,0.9053-0.3037
	c8.2095-4.5498,13.3096-13.1973,13.3096-22.5664C237.6714,495.959,231.4419,486.6123,221.8008,482.5908z M233.9639,506.4004
	c0,7.9629-4.3003,15.3135-11.2388,19.2344c-0.5337,0.0879-0.9756,0.1328-1.2031,0.1504h-19.2817
	c-0.2104-0.0176-0.6558-0.0615-1.1963-0.1504c-6.939-3.9199-11.2427-11.2715-11.2427-19.2344c0-2.8027,0.5332-5.4854,1.4907-7.9551
	h41.1841C233.4336,500.915,233.9639,503.5977,233.9639,506.4004z M205.1714,518.9609c-4.7559-3.0137-7.7012-8.3418-7.7012-13.9648
	c0-1.0234-0.8296-1.8525-1.854-1.8525c-1.0229,0-1.854,0.8291-1.854,1.8525c0,6.9775,3.7026,13.5859,9.6621,17.2441l0.3779,0.2197
	l0.5547,0.0596c0.0537,0.0049,0.1069,0.0068,0.1611,0.0068c0.9482,0,1.7227-0.7314,1.8062-1.6963
	C206.395,520.0107,205.8979,519.2676,205.1714,518.9609z"/>
<g>
	<path fill="#4B5666" d="M891.5635,565.6143c-2.6826,0-4.792,0.9502-6.3281,2.8516s-2.3047,4.5244-2.3047,7.8711
		c0,3.5029,0.7393,6.1523,2.2168,7.9492s3.6162,2.6953,6.416,2.6953c1.2109,0,2.3828-0.1201,3.5156-0.3613
		s2.3115-0.5498,3.5352-0.9277v4.0039c-2.2393,0.8467-4.7783,1.2695-7.6172,1.2695c-4.1797,0-7.3896-1.2666-9.6289-3.7988
		s-3.3594-6.1553-3.3594-10.8691c0-2.9688,0.5439-5.5664,1.6309-7.793s2.6592-3.9326,4.7168-5.1172s4.4727-1.7773,7.2461-1.7773
		c2.917,0,5.6123,0.6123,8.0859,1.8359l-1.6797,3.8867c-0.9639-0.4561-1.9824-0.8564-3.0566-1.2012
		S892.748,565.6143,891.5635,565.6143z"/>
	<path fill="#4B5666" d="M915.2354,568.583c0.9248,0,1.6865,0.0654,2.2852,0.1953l-0.4492,4.2773
		c-0.6514-0.1562-1.3281-0.2344-2.0312-0.2344c-1.8359,0-3.3232,0.5986-4.4629,1.7969s-1.709,2.7539-1.709,4.668v11.2891h-4.5898
		v-21.6016h3.5938l0.6055,3.8086h0.2344c0.7158-1.2891,1.6504-2.3115,2.8027-3.0664S913.9072,568.583,915.2354,568.583z"/>
	<path fill="#4B5666" d="M930.958,590.9658c-3.3594,0-5.9863-0.9795-7.8809-2.9395s-2.8418-4.6582-2.8418-8.0957
		c0-3.5283,0.8789-6.3018,2.6367-8.3203s4.1729-3.0273,7.2461-3.0273c2.8516,0,5.1045,0.8662,6.7578,2.5977
		s2.4805,4.1143,2.4805,7.1484v2.4805h-14.3945c0.0654,2.0967,0.6318,3.708,1.6992,4.834s2.5713,1.6895,4.5117,1.6895
		c1.2764,0,2.4639-0.1201,3.5645-0.3613s2.2822-0.6416,3.5449-1.2012v3.7305c-1.1201,0.5342-2.2529,0.9111-3.3984,1.1328
		S932.4297,590.9658,930.958,590.9658z M930.1182,572.0596c-1.458,0-2.627,0.4619-3.5059,1.3867s-1.4033,2.2725-1.5723,4.043h9.8047
		c-0.0264-1.7842-0.4561-3.1348-1.2891-4.0527S931.5762,572.0596,930.1182,572.0596z"/>
	<path fill="#4B5666" d="M958.0869,590.5752l-0.918-3.0078h-0.1562c-1.042,1.3154-2.0898,2.21-3.1445,2.6855
		s-2.4092,0.7129-4.0625,0.7129c-2.1221,0-3.7793-0.5732-4.9707-1.7188s-1.7871-2.7666-1.7871-4.8633
		c0-2.2266,0.8271-3.9062,2.4805-5.0391s4.1729-1.751,7.5586-1.8555l3.7305-0.1172v-1.1523c0-1.3799-0.3223-2.4121-0.9668-3.0957
		s-1.6436-1.0254-2.998-1.0254c-1.1064,0-2.168,0.1631-3.1836,0.4883s-1.9922,0.71-2.9297,1.1523l-1.4844-3.2812
		c1.1719-0.6123,2.4541-1.0771,3.8477-1.3965s2.708-0.4785,3.9453-0.4785c2.7471,0,4.8213,0.5986,6.2207,1.7969
		s2.0996,3.0791,2.0996,5.6445v14.5508H958.0869z M951.251,587.4502c1.667,0,3.0049-0.4658,4.0137-1.3965
		s1.5137-2.2363,1.5137-3.916v-1.875l-2.7734,0.1172c-2.1611,0.0781-3.7334,0.4395-4.7168,1.084s-1.4746,1.6309-1.4746,2.959
		c0,0.9639,0.2861,1.709,0.8594,2.2363S950.1055,587.4502,951.251,587.4502z"/>
	<path fill="#4B5666" d="M978.7314,568.583c0.9248,0,1.6865,0.0654,2.2852,0.1953l-0.4492,4.2773
		c-0.6514-0.1562-1.3281-0.2344-2.0312-0.2344c-1.8359,0-3.3232,0.5986-4.4629,1.7969s-1.709,2.7539-1.709,4.668v11.2891h-4.5898
		v-21.6016h3.5938l0.6055,3.8086h0.2344c0.7158-1.2891,1.6504-2.3115,2.8027-3.0664S977.4033,568.583,978.7314,568.583z"/>
	<path fill="#4B5666" d="M994.4541,590.9658c-3.3594,0-5.9863-0.9795-7.8809-2.9395s-2.8418-4.6582-2.8418-8.0957
		c0-3.5283,0.8789-6.3018,2.6367-8.3203s4.1729-3.0273,7.2461-3.0273c2.8516,0,5.1045,0.8662,6.7578,2.5977
		s2.4805,4.1143,2.4805,7.1484v2.4805H988.458c0.0654,2.0967,0.6318,3.708,1.6992,4.834s2.5713,1.6895,4.5117,1.6895
		c1.2764,0,2.4639-0.1201,3.5645-0.3613s2.2822-0.6416,3.5449-1.2012v3.7305c-1.1201,0.5342-2.2529,0.9111-3.3984,1.1328
		S995.9258,590.9658,994.4541,590.9658z M993.6143,572.0596c-1.458,0-2.627,0.4619-3.5059,1.3867s-1.4033,2.2725-1.5723,4.043
		h9.8047c-0.0264-1.7842-0.4561-3.1348-1.2891-4.0527S995.0723,572.0596,993.6143,572.0596z"/>
	<path fill="#4B5666" d="M888.1748,638.5752l-8.2031-21.6016h4.8438l4.3945,12.5586c0.7549,2.1094,1.2109,3.8154,1.3672,5.1172
		h0.1562c0.1172-0.9375,0.5732-2.6436,1.3672-5.1172l4.3945-12.5586h4.8828l-8.2422,21.6016H888.1748z"/>
	<path fill="#4B5666" d="M918.1748,638.5752l-0.918-3.0078h-0.1562c-1.042,1.3154-2.0898,2.21-3.1445,2.6855
		s-2.4092,0.7129-4.0625,0.7129c-2.1221,0-3.7793-0.5732-4.9707-1.7188s-1.7871-2.7666-1.7871-4.8633
		c0-2.2266,0.8271-3.9062,2.4805-5.0391s4.1729-1.751,7.5586-1.8555l3.7305-0.1172v-1.1523c0-1.3799-0.3223-2.4121-0.9668-3.0957
		s-1.6436-1.0254-2.998-1.0254c-1.1064,0-2.168,0.1631-3.1836,0.4883s-1.9922,0.71-2.9297,1.1523l-1.4844-3.2812
		c1.1719-0.6123,2.4541-1.0771,3.8477-1.3965s2.708-0.4785,3.9453-0.4785c2.7471,0,4.8213,0.5986,6.2207,1.7969
		s2.0996,3.0791,2.0996,5.6445v14.5508H918.1748z M911.3389,635.4502c1.667,0,3.0049-0.4658,4.0137-1.3965
		s1.5137-2.2363,1.5137-3.916v-1.875l-2.7734,0.1172c-2.1611,0.0781-3.7334,0.4395-4.7168,1.084s-1.4746,1.6309-1.4746,2.959
		c0,0.9639,0.2861,1.709,0.8594,2.2363S910.1934,635.4502,911.3389,635.4502z"/>
	<path fill="#4B5666" d="M932.4521,638.5752h-4.5898v-30.3906h4.5898V638.5752z"/>
	<path fill="#4B5666" d="M958.1748,627.7354c0,3.5283-0.9053,6.2822-2.7148,8.2617s-4.3291,2.9688-7.5586,2.9688
		c-2.0186,0-3.8018-0.4561-5.3516-1.3672s-2.7412-2.2197-3.5742-3.9258s-1.25-3.6846-1.25-5.9375
		c0-3.5029,0.8984-6.2373,2.6953-8.2031s4.3291-2.9492,7.5977-2.9492c3.125,0,5.5986,1.0059,7.4219,3.0176
		S958.1748,624.3242,958.1748,627.7354z M942.4521,627.7354c0,4.9873,1.8428,7.4805,5.5273,7.4805
		c3.6455,0,5.4688-2.4932,5.4688-7.4805c0-4.9346-1.8359-7.4023-5.5078-7.4023c-1.9268,0-3.3232,0.6377-4.1895,1.9141
		S942.4521,625.3525,942.4521,627.7354z"/>
	<path fill="#4B5666" d="M974.4053,616.583c0.9248,0,1.6865,0.0654,2.2852,0.1953l-0.4492,4.2773
		c-0.6514-0.1562-1.3281-0.2344-2.0312-0.2344c-1.8359,0-3.3232,0.5986-4.4629,1.7969s-1.709,2.7539-1.709,4.668v11.2891h-4.5898
		v-21.6016h3.5938l0.6055,3.8086h0.2344c0.7158-1.2891,1.6504-2.3115,2.8027-3.0664S973.0771,616.583,974.4053,616.583z"/>
	<path fill="#4B5666" d="M990.1279,638.9658c-3.3594,0-5.9863-0.9795-7.8809-2.9395s-2.8418-4.6582-2.8418-8.0957
		c0-3.5283,0.8789-6.3018,2.6367-8.3203s4.1729-3.0273,7.2461-3.0273c2.8516,0,5.1045,0.8662,6.7578,2.5977
		s2.4805,4.1143,2.4805,7.1484v2.4805h-14.3945c0.0654,2.0967,0.6318,3.708,1.6992,4.834s2.5713,1.6895,4.5117,1.6895
		c1.2764,0,2.4639-0.1201,3.5645-0.3613s2.2822-0.6416,3.5449-1.2012v3.7305c-1.1201,0.5342-2.2529,0.9111-3.3984,1.1328
		S991.5996,638.9658,990.1279,638.9658z M989.2881,620.0596c-1.458,0-2.627,0.4619-3.5059,1.3867s-1.4033,2.2725-1.5723,4.043
		h9.8047c-0.0264-1.7842-0.4561-3.1348-1.2891-4.0527S990.7461,620.0596,989.2881,620.0596z"/>
	<path fill="#4B5666" d="M804.2393,686.9658c-3.2686,0-5.752-0.9541-7.4512-2.8613s-2.5488-4.6455-2.5488-8.2129
		c0-3.6328,0.8887-6.4258,2.666-8.3789s4.3457-2.9297,7.7051-2.9297c2.2783,0,4.3291,0.4229,6.1523,1.2695l-1.3867,3.6914
		c-1.9404-0.7549-3.542-1.1328-4.8047-1.1328c-3.7373,0-5.6055,2.4805-5.6055,7.4414c0,2.4219,0.4658,4.2412,1.3965,5.459
		s2.2949,1.8262,4.0918,1.8262c2.0439,0,3.9775-0.5078,5.8008-1.5234v4.0039c-0.8203,0.4814-1.6963,0.8271-2.627,1.0352
		S805.5674,686.9658,804.2393,686.9658z"/>
	<path fill="#4B5666" d="M834.4932,675.7354c0,3.5283-0.9053,6.2822-2.7148,8.2617s-4.3291,2.9688-7.5586,2.9688
		c-2.0186,0-3.8018-0.4561-5.3516-1.3672s-2.7412-2.2197-3.5742-3.9258s-1.25-3.6846-1.25-5.9375
		c0-3.5029,0.8984-6.2373,2.6953-8.2031s4.3291-2.9492,7.5977-2.9492c3.125,0,5.5986,1.0059,7.4219,3.0176
		S834.4932,672.3242,834.4932,675.7354z M818.7705,675.7354c0,4.9873,1.8428,7.4805,5.5273,7.4805
		c3.6455,0,5.4688-2.4932,5.4688-7.4805c0-4.9346-1.8359-7.4023-5.5078-7.4023c-1.9268,0-3.3232,0.6377-4.1895,1.9141
		S818.7705,673.3525,818.7705,675.7354z"/>
	<path fill="#4B5666" d="M858.7705,686.5752h-4.6094v-13.2812c0-1.667-0.335-2.9102-1.0059-3.7305s-1.7354-1.2305-3.1934-1.2305
		c-1.9404,0-3.3594,0.5732-4.2578,1.7188s-1.3477,3.0664-1.3477,5.7617v10.7617h-4.5898v-21.6016h3.5938l0.6445,2.832h0.2344
		c0.6514-1.0283,1.5752-1.8232,2.7734-2.3828s2.5264-0.8398,3.9844-0.8398c5.1826,0,7.7734,2.6367,7.7734,7.9102V686.5752z"/>
	<path fill="#4B5666" d="M873.2041,683.2549c1.1201,0,2.2393-0.1758,3.3594-0.5273v3.457
		c-0.5078,0.2217-1.1621,0.4072-1.9629,0.5566s-1.6309,0.2246-2.4902,0.2246c-4.3486,0-6.5234-2.292-6.5234-6.875v-11.6406h-2.9492
		v-2.0312l3.1641-1.6797l1.5625-4.5703h2.832v4.8047h6.1523v3.4766h-6.1523v11.5625c0,1.1064,0.2764,1.9238,0.8301,2.4512
		S872.3057,683.2549,873.2041,683.2549z"/>
	<path fill="#4B5666" d="M880.6064,659.251c0-0.8203,0.2246-1.4521,0.6738-1.8945s1.0908-0.6641,1.9238-0.6641
		c0.8076,0,1.4355,0.2217,1.8848,0.6641s0.6738,1.0742,0.6738,1.8945c0,0.7812-0.2246,1.3965-0.6738,1.8457
		s-1.0771,0.6738-1.8848,0.6738c-0.833,0-1.4746-0.2246-1.9238-0.6738S880.6064,660.0322,880.6064,659.251z M885.4697,686.5752
		h-4.5898v-21.6016h4.5898V686.5752z"/>
	<path fill="#4B5666" d="M911.0361,686.5752h-4.6094v-13.2812c0-1.667-0.335-2.9102-1.0059-3.7305s-1.7354-1.2305-3.1934-1.2305
		c-1.9404,0-3.3594,0.5732-4.2578,1.7188s-1.3477,3.0664-1.3477,5.7617v10.7617h-4.5898v-21.6016h3.5938l0.6445,2.832h0.2344
		c0.6514-1.0283,1.5752-1.8232,2.7734-2.3828s2.5264-0.8398,3.9844-0.8398c5.1826,0,7.7734,2.6367,7.7734,7.9102V686.5752z"/>
	<path fill="#4B5666" d="M932.6572,686.5752l-0.6445-2.832h-0.2344c-0.6377,1.0029-1.5459,1.79-2.7246,2.3633
		s-2.5225,0.8594-4.0332,0.8594c-2.6172,0-4.5703-0.6514-5.8594-1.9531s-1.9336-3.2744-1.9336-5.918v-14.1211h4.6289v13.3203
		c0,1.6533,0.3389,2.8936,1.0156,3.7207s1.7383,1.2402,3.1836,1.2402c1.9268,0,3.3428-0.5762,4.248-1.7285
		s1.3574-3.083,1.3574-5.791v-10.7617h4.6094v21.6016H932.6572z"/>
	<path fill="#4B5666" d="M956.3291,686.5752l-0.918-3.0078h-0.1562c-1.042,1.3154-2.0898,2.21-3.1445,2.6855
		s-2.4092,0.7129-4.0625,0.7129c-2.1221,0-3.7793-0.5732-4.9707-1.7188s-1.7871-2.7666-1.7871-4.8633
		c0-2.2266,0.8271-3.9062,2.4805-5.0391s4.1729-1.751,7.5586-1.8555l3.7305-0.1172v-1.1523c0-1.3799-0.3223-2.4121-0.9668-3.0957
		s-1.6436-1.0254-2.998-1.0254c-1.1064,0-2.168,0.1631-3.1836,0.4883s-1.9922,0.71-2.9297,1.1523l-1.4844-3.2812
		c1.1719-0.6123,2.4541-1.0771,3.8477-1.3965s2.708-0.4785,3.9453-0.4785c2.7471,0,4.8213,0.5986,6.2207,1.7969
		s2.0996,3.0791,2.0996,5.6445v14.5508H956.3291z M949.4932,683.4502c1.667,0,3.0049-0.4658,4.0137-1.3965
		s1.5137-2.2363,1.5137-3.916v-1.875l-2.7734,0.1172c-2.1611,0.0781-3.7334,0.4395-4.7168,1.084s-1.4746,1.6309-1.4746,2.959
		c0,0.9639,0.2861,1.709,0.8594,2.2363S948.3477,683.4502,949.4932,683.4502z"/>
	<path fill="#4B5666" d="M984.2197,686.5752h-4.6094v-13.3203c0-1.6533-0.3125-2.8877-0.9375-3.7012s-1.6016-1.2207-2.9297-1.2207
		c-1.7705,0-3.0693,0.5762-3.8965,1.7285s-1.2402,3.0693-1.2402,5.752v10.7617h-4.5898v-21.6016h3.5938l0.6445,2.832h0.2344
		c0.5986-1.0283,1.4678-1.8232,2.6074-2.3828s2.3926-0.8398,3.7598-0.8398c3.3203,0,5.5205,1.1328,6.6016,3.3984h0.3125
		c0.6377-1.0674,1.5361-1.9014,2.6953-2.5s2.4873-0.8984,3.9844-0.8984c2.5781,0,4.4561,0.6514,5.6348,1.9531
		s1.7676,3.2881,1.7676,5.957v14.082h-4.5898v-13.3203c0-1.6533-0.3154-2.8877-0.9473-3.7012s-1.6113-1.2207-2.9395-1.2207
		c-1.7842,0-3.0889,0.5566-3.916,1.6699s-1.2402,2.8223-1.2402,5.127V686.5752z"/>
	<path fill="#4B5666" d="M1013.6924,686.9658c-3.3594,0-5.9863-0.9795-7.8809-2.9395s-2.8418-4.6582-2.8418-8.0957
		c0-3.5283,0.8789-6.3018,2.6367-8.3203s4.1729-3.0273,7.2461-3.0273c2.8516,0,5.1045,0.8662,6.7578,2.5977
		s2.4805,4.1143,2.4805,7.1484v2.4805h-14.3945c0.0654,2.0967,0.6318,3.708,1.6992,4.834s2.5713,1.6895,4.5117,1.6895
		c1.2764,0,2.4639-0.1201,3.5645-0.3613s2.2822-0.6416,3.5449-1.2012v3.7305c-1.1201,0.5342-2.2529,0.9111-3.3984,1.1328
		S1015.1641,686.9658,1013.6924,686.9658z M1012.8525,668.0596c-1.458,0-2.627,0.4619-3.5059,1.3867s-1.4033,2.2725-1.5723,4.043
		h9.8047c-0.0264-1.7842-0.4561-3.1348-1.2891-4.0527S1014.3105,668.0596,1012.8525,668.0596z"/>
	<path fill="#4B5666" d="M1046.3096,686.5752h-4.6094v-13.2812c0-1.667-0.335-2.9102-1.0059-3.7305s-1.7354-1.2305-3.1934-1.2305
		c-1.9404,0-3.3594,0.5732-4.2578,1.7188s-1.3477,3.0664-1.3477,5.7617v10.7617h-4.5898v-21.6016h3.5938l0.6445,2.832h0.2344
		c0.6514-1.0283,1.5752-1.8232,2.7734-2.3828s2.5264-0.8398,3.9844-0.8398c5.1826,0,7.7734,2.6367,7.7734,7.9102V686.5752z"/>
	<path fill="#4B5666" d="M1060.7432,683.2549c1.1201,0,2.2393-0.1758,3.3594-0.5273v3.457
		c-0.5078,0.2217-1.1621,0.4072-1.9629,0.5566s-1.6309,0.2246-2.4902,0.2246c-4.3486,0-6.5234-2.292-6.5234-6.875v-11.6406h-2.9492
		v-2.0312l3.1641-1.6797l1.5625-4.5703h2.832v4.8047h6.1523v3.4766h-6.1523v11.5625c0,1.1064,0.2764,1.9238,0.8301,2.4512
		S1059.8447,683.2549,1060.7432,683.2549z"/>
	<path fill="#4B5666" d="M1077.8525,686.9658c-3.3594,0-5.9863-0.9795-7.8809-2.9395s-2.8418-4.6582-2.8418-8.0957
		c0-3.5283,0.8789-6.3018,2.6367-8.3203s4.1729-3.0273,7.2461-3.0273c2.8516,0,5.1045,0.8662,6.7578,2.5977
		s2.4805,4.1143,2.4805,7.1484v2.4805h-14.3945c0.0654,2.0967,0.6318,3.708,1.6992,4.834s2.5713,1.6895,4.5117,1.6895
		c1.2764,0,2.4639-0.1201,3.5645-0.3613s2.2822-0.6416,3.5449-1.2012v3.7305c-1.1201,0.5342-2.2529,0.9111-3.3984,1.1328
		S1079.3242,686.9658,1077.8525,686.9658z M1077.0127,668.0596c-1.458,0-2.627,0.4619-3.5059,1.3867s-1.4033,2.2725-1.5723,4.043
		h9.8047c-0.0264-1.7842-0.4561-3.1348-1.2891-4.0527S1078.4707,668.0596,1077.0127,668.0596z"/>
</g>
<path fill-rule="evenodd" clip-rule="evenodd" fill="#4B5666" d="M991.1162,481.8281c-0.127,0-0.2627-0.0088-0.4053-0.0303
	l-5.4014-0.7549l-0.001,39.4395c0,1.5439-1.2178,3.1426-2.7061,3.5537l-39.6816,10.9277c-0.7441,0.2041-1.7266,0.3086-2.707,0.3086
	c-0.9814,0-1.9619-0.1045-2.707-0.3086l-39.6797-10.9277c-1.4902-0.4111-2.707-2.0098-2.707-3.5537l0.001-39.4395l-5.4033,0.7549
	c-0.1426,0.0215-0.2773,0.0303-0.4043,0.0303c-1.2461,0-1.7881-0.918-1.2031-2.1904l7.5938-16.5352
	c0.6445-1.4033,2.3887-2.8887,3.8789-3.2979l39.6797-10.9307c0.249-0.0684,0.4795-0.1016,0.6904-0.1016
	c0.0938,0,0.1777,0.0137,0.2617,0.0273c0.085-0.0137,0.168-0.0273,0.2607-0.0273c0.2119,0,0.4424,0.0332,0.6904,0.1016
	l39.6807,10.9307c1.4902,0.4092,3.2354,1.8945,3.8799,3.2979l7.5938,16.5352C992.9053,480.9102,992.3643,481.8281,991.1162,481.8281
	z M901.1406,515.9834c0,1.0234,0.8301,1.8525,1.8535,1.8525c1.0244,0,1.8535-0.8291,1.8535-1.8525v-17.6865
	c0-1.0244-0.8291-1.8535-1.8535-1.8535c-1.0234,0-1.8535,0.8291-1.8535,1.8535V515.9834z M900.5654,463.3779
	c-0.4375,0.1221-1.3037,0.8594-1.4941,1.2715l-5.9365,12.9268l37.0947-5.2021c0.1895-0.0635,0.5186-0.3457,0.6094-0.5234
	l5.6143-18.3594L900.5654,463.3779z M940.5273,474.6533l-0.3125-1.0225v54.7773c0.6484,0,1.0752-0.0752,1.1729-0.1006
	l38.1426-10.5049v-31.7363l-30.6758-4.3037C945.1318,481.2412,941.6289,478.251,940.5273,474.6533z M981.3584,464.6494
	c-0.1904-0.4121-1.0566-1.1494-1.4951-1.2715l-35.8877-9.8867l5.6152,18.3594c0.0898,0.1777,0.4199,0.46,0.6104,0.5234
	l37.0928,5.2021L981.3584,464.6494z"/>
</svg>
