<?xml version="1.0" encoding="UTF-8"?>
<svg xmlns="http://www.w3.org/2000/svg" xmlns:xlink="http://www.w3.org/1999/xlink" width="1110pt" height="1110pt" viewBox="0 0 1110 1110" version="1.1">
<g id="surface1">
<path style=" stroke:none;fill-rule:nonzero;fill:rgb(29.411316%,33.724976%,39.99939%);fill-opacity:1;" d="M 1110 555 C 1110 861.519531 861.519531 1110 555 1110 C 248.480469 1110 0 861.519531 0 555 C 0 248.480469 248.480469 0 555 0 C 861.519531 0 1110 248.480469 1110 555 Z M 1110 555 "/>
<path style=" stroke:none;fill-rule:nonzero;fill:rgb(98.429871%,82.743835%,36.077881%);fill-opacity:1;" d="M 181.429688 181.421875 C 387.910156 -25.058594 722.089844 -25.058594 928.570312 181.429688 L 555.011719 555 Z M 181.429688 181.421875 "/>
<path style=" stroke:none;fill-rule:nonzero;fill:rgb(64.312744%,85.096741%,43.920898%);fill-opacity:1;" d="M 928.578125 181.429688 C 1135.058594 387.910156 1135.058594 722.078125 928.570312 928.570312 L 555 555 Z M 928.578125 181.429688 "/>
<path style=" stroke:none;fill-rule:nonzero;fill:rgb(61.959839%,74.508667%,92.939758%);fill-opacity:1;" d="M 928.570312 928.570312 C 722.089844 1135.058594 387.910156 1135.050781 181.429688 928.570312 L 555 555 Z M 928.570312 928.570312 "/>
<path style=" stroke:none;fill-rule:nonzero;fill:rgb(98.03772%,47.450256%,46.665955%);fill-opacity:1;" d="M 181.429688 928.570312 C -25.058594 722.089844 -25.050781 387.921875 181.429688 181.429688 L 555 555 Z M 181.429688 928.570312 "/>
<path style=" stroke:none;fill-rule:nonzero;fill:rgb(29.411316%,33.724976%,39.99939%);fill-opacity:1;" d="M 742.578125 555 C 742.578125 658.601562 658.601562 742.578125 555 742.578125 C 451.398438 742.578125 367.421875 658.601562 367.421875 555 C 367.421875 451.398438 451.398438 367.421875 555 367.421875 C 658.601562 367.421875 742.578125 451.398438 742.578125 555 Z M 742.578125 555 "/>
<path style=" stroke:none;fill-rule:nonzero;fill:rgb(29.411316%,33.724976%,39.99939%);fill-opacity:1;" d="M 579.359375 85.109375 C 569.808594 85.109375 557.429688 90.738281 555 100.210938 C 552.558594 90.738281 540.191406 85.109375 530.640625 85.109375 C 511.808594 85.109375 496.539062 99.730469 496.539062 119.210938 C 496.539062 142.140625 510.101562 156.171875 524.878906 167.558594 C 533.738281 174.390625 553.421875 189.851562 554.980469 189.851562 C 554.988281 189.851562 554.988281 189.851562 555 189.851562 C 555.011719 189.851562 555.019531 189.851562 555.019531 189.851562 C 556.578125 189.851562 576.261719 174.390625 585.121094 167.558594 C 599.898438 156.171875 613.460938 142.140625 613.460938 119.210938 C 613.460938 99.730469 598.191406 85.109375 579.359375 85.109375 Z M 517.410156 100.539062 C 511.519531 104.890625 508.148438 111.699219 508.148438 119.210938 C 508.148438 120.449219 507.140625 121.460938 505.898438 121.460938 C 504.660156 121.460938 503.660156 120.449219 503.660156 119.210938 C 503.660156 110.261719 507.699219 102.140625 514.738281 96.929688 C 515.738281 96.191406 517.140625 96.398438 517.878906 97.398438 C 518.621094 98.390625 518.410156 99.800781 517.410156 100.539062 Z M 517.410156 100.539062 "/>
<path style=" stroke:none;fill-rule:nonzero;fill:rgb(29.411316%,33.724976%,39.99939%);fill-opacity:1;" d="M 235.21875 499.578125 C 235.21875 513.980469 227.25 526.511719 215.488281 533.03125 C 215.488281 533.03125 214.058594 533.839844 212.199219 534.171875 C 210.390625 534.480469 209.050781 534.539062 209.050781 534.539062 L 184.941406 534.539062 C 184.941406 534.539062 183.601562 534.480469 181.789062 534.171875 C 179.929688 533.851562 178.5 533.03125 178.5 533.03125 C 166.730469 526.511719 158.769531 513.980469 158.769531 499.578125 C 158.769531 483.679688 168.480469 470.050781 182.289062 464.289062 L 182.289062 442.578125 C 180.410156 442.578125 178.890625 441.050781 178.890625 439.179688 L 178.890625 433.199219 C 178.890625 431.320312 180.410156 429.800781 182.289062 429.800781 L 211.691406 429.800781 C 213.570312 429.800781 215.101562 431.320312 215.101562 433.199219 L 215.101562 439.179688 C 215.101562 441.050781 213.570312 442.578125 211.691406 442.578125 L 211.691406 464.289062 C 225.511719 470.050781 235.21875 483.679688 235.21875 499.578125 Z M 206.828125 432.109375 L 187.160156 432.109375 C 185.921875 432.109375 184.910156 433.109375 184.910156 434.351562 C 184.910156 435.589844 185.921875 436.601562 187.160156 436.601562 L 206.828125 436.601562 C 208.070312 436.601562 209.070312 435.589844 209.070312 434.351562 C 209.070312 433.109375 208.070312 432.109375 206.828125 432.109375 Z M 209 470.75 C 206.398438 469.660156 204.699219 467.109375 204.699219 464.289062 L 204.699219 442.578125 L 189.289062 442.578125 L 189.289062 464.289062 C 189.289062 467.109375 187.589844 469.660156 184.980469 470.75 C 173.308594 475.621094 165.761719 486.929688 165.761719 499.578125 C 165.761719 510.921875 171.941406 521.390625 181.878906 526.898438 C 182.03125 526.980469 182.511719 527.191406 182.980469 527.269531 C 184.011719 527.449219 184.839844 527.519531 185.148438 527.539062 L 208.839844 527.539062 C 209.121094 527.519531 209.960938 527.449219 211.011719 527.269531 C 211.46875 527.191406 211.949219 526.980469 212.101562 526.898438 C 222.039062 521.390625 228.21875 510.921875 228.21875 499.578125 C 228.21875 486.941406 220.679688 475.621094 209 470.75 Z M 223.730469 499.578125 C 223.730469 509.21875 218.519531 518.121094 210.121094 522.871094 C 209.480469 522.980469 208.941406 523.03125 208.660156 523.050781 L 185.320312 523.050781 C 185.058594 523.03125 184.519531 522.980469 183.871094 522.871094 C 175.46875 518.121094 170.261719 509.21875 170.261719 499.578125 C 170.261719 496.179688 170.898438 492.941406 172.058594 489.949219 L 221.929688 489.949219 C 223.089844 492.941406 223.730469 496.179688 223.730469 499.578125 Z M 188.871094 514.789062 C 183.109375 511.140625 179.539062 504.691406 179.539062 497.878906 C 179.539062 496.640625 178.539062 495.628906 177.300781 495.628906 C 176.058594 495.628906 175.050781 496.640625 175.050781 497.878906 C 175.050781 506.328125 179.53125 514.328125 186.75 518.761719 L 187.210938 519.03125 L 187.878906 519.101562 C 187.941406 519.109375 188.011719 519.109375 188.070312 519.109375 C 189.21875 519.109375 190.160156 518.21875 190.261719 517.050781 C 190.351562 516.058594 189.75 515.160156 188.871094 514.789062 Z M 188.871094 514.789062 "/>
<path style=" stroke:none;fill-rule:nonzero;fill:rgb(29.411316%,33.724976%,39.99939%);fill-opacity:1;" d="M 595.789062 801.011719 L 514.199219 801.011719 C 512.328125 801.011719 510.808594 802.53125 510.808594 804.410156 L 510.820312 835.851562 C 510.820312 835.851562 510.820312 835.851562 510.820312 835.859375 C 510.820312 845.300781 510.820312 854.769531 510.820312 857.941406 C 510.820312 864.960938 513.191406 875.070312 522.25 885.230469 C 535.25 899.789062 555 905.761719 555 905.761719 C 555 905.761719 574.761719 899.78125 587.75 885.230469 C 596.820312 875.070312 599.191406 864.960938 599.191406 857.941406 C 599.191406 854.769531 599.191406 845.300781 599.191406 835.859375 C 599.191406 835.851562 599.191406 835.851562 599.191406 835.851562 L 599.179688 804.410156 C 599.179688 802.53125 597.671875 801.011719 595.789062 801.011719 Z M 531.148438 881.03125 C 530.71875 881.410156 530.191406 881.601562 529.660156 881.601562 C 529.039062 881.601562 528.429688 881.351562 527.980469 880.851562 C 519.078125 870.878906 517.75 861.460938 517.75 856.71875 C 517.75 855.488281 518.761719 854.480469 520 854.480469 C 521.238281 854.480469 522.238281 855.488281 522.238281 856.71875 C 522.238281 860.820312 523.421875 869 531.328125 877.859375 C 532.160156 878.78125 532.078125 880.199219 531.148438 881.03125 Z M 592.191406 835.730469 C 592.191406 835.769531 592.191406 835.808594 592.191406 835.851562 L 592.191406 857.941406 C 592.191406 862.351562 590.929688 871.148438 582.53125 880.570312 C 573.359375 890.839844 560.050781 896.480469 555.011719 898.359375 L 555 808.011719 L 592.191406 808.011719 Z M 592.191406 835.730469 "/>
<path style=" stroke:none;fill-rule:nonzero;fill:rgb(100%,100%,100%);fill-opacity:1;" d="M 456.730469 541.429688 L 443.171875 506 L 442.949219 506 C 443.210938 508.808594 443.328125 512.148438 443.328125 516.011719 L 443.328125 541.429688 L 439.039062 541.429688 L 439.039062 501.46875 L 446.039062 501.46875 L 458.699219 534.441406 L 458.921875 534.441406 L 471.679688 501.46875 L 478.628906 501.46875 L 478.628906 541.429688 L 473.980469 541.429688 L 473.980469 515.679688 C 473.980469 512.730469 474.109375 509.519531 474.359375 506.058594 L 474.140625 506.058594 L 460.46875 541.429688 Z M 456.730469 541.429688 "/>
<path style=" stroke:none;fill-rule:nonzero;fill:rgb(100%,100%,100%);fill-opacity:1;" d="M 524.28125 521.398438 C 524.28125 527.789062 522.660156 532.820312 519.421875 536.488281 C 516.191406 540.148438 511.691406 541.980469 505.929688 541.980469 C 500.050781 541.980469 495.5 540.179688 492.308594 536.578125 C 489.109375 532.980469 487.511719 527.898438 487.511719 521.339844 C 487.511719 514.839844 489.109375 509.789062 492.320312 506.210938 C 495.53125 502.628906 500.078125 500.839844 505.988281 500.839844 C 511.730469 500.839844 516.210938 502.660156 519.441406 506.308594 C 522.660156 509.949219 524.28125 514.980469 524.28125 521.398438 Z M 492.429688 521.398438 C 492.429688 526.808594 493.578125 530.910156 495.890625 533.710938 C 498.191406 536.511719 501.539062 537.898438 505.941406 537.898438 C 510.359375 537.898438 513.710938 536.511719 515.96875 533.71875 C 518.230469 530.929688 519.359375 526.820312 519.359375 521.390625 C 519.359375 516.019531 518.230469 511.941406 515.980469 509.160156 C 513.730469 506.378906 510.398438 504.988281 505.988281 504.988281 C 501.558594 504.988281 498.191406 506.390625 495.890625 509.191406 C 493.578125 511.988281 492.429688 516.058594 492.429688 521.398438 Z M 492.429688 521.398438 "/>
<path style=" stroke:none;fill-rule:nonzero;fill:rgb(100%,100%,100%);fill-opacity:1;" d="M 565.089844 521.070312 C 565.089844 527.671875 563.300781 532.710938 559.71875 536.199219 C 556.140625 539.691406 550.980469 541.429688 544.261719 541.429688 L 533.191406 541.429688 L 533.191406 501.46875 L 545.429688 501.46875 C 551.648438 501.46875 556.480469 503.191406 559.921875 506.628906 C 563.371094 510.078125 565.089844 514.890625 565.089844 521.070312 Z M 560.171875 521.230469 C 560.171875 516.019531 558.859375 512.089844 556.238281 509.449219 C 553.628906 506.808594 549.738281 505.488281 544.589844 505.488281 L 537.828125 505.488281 L 537.828125 537.410156 L 543.488281 537.410156 C 549.03125 537.410156 553.191406 536.058594 555.980469 533.328125 C 558.769531 530.601562 560.171875 526.570312 560.171875 521.230469 Z M 560.171875 521.230469 "/>
<path style=" stroke:none;fill-rule:nonzero;fill:rgb(100%,100%,100%);fill-opacity:1;" d="M 596.28125 541.429688 L 574 541.429688 L 574 501.46875 L 596.28125 501.46875 L 596.28125 505.589844 L 578.648438 505.589844 L 578.648438 518.46875 L 595.210938 518.46875 L 595.210938 522.570312 L 578.648438 522.570312 L 578.648438 537.28125 L 596.28125 537.28125 Z M 596.28125 541.429688 "/>
<path style=" stroke:none;fill-rule:nonzero;fill:rgb(100%,100%,100%);fill-opacity:1;" d="M 609.78125 524.808594 L 609.78125 541.429688 L 605.140625 541.429688 L 605.140625 501.46875 L 616.101562 501.46875 C 621 501.46875 624.621094 502.398438 626.960938 504.28125 C 629.300781 506.160156 630.480469 508.980469 630.480469 512.761719 C 630.480469 518.039062 627.800781 521.609375 622.441406 523.46875 L 633.289062 541.429688 L 627.800781 541.429688 L 618.121094 524.808594 Z M 609.78125 520.820312 L 616.148438 520.820312 C 619.429688 520.820312 621.839844 520.171875 623.371094 518.871094 C 624.898438 517.558594 625.660156 515.609375 625.660156 513 C 625.660156 510.359375 624.890625 508.460938 623.328125 507.289062 C 621.769531 506.121094 619.269531 505.539062 615.820312 505.539062 L 609.78125 505.539062 Z M 609.78125 520.820312 "/>
<path style=" stroke:none;fill-rule:nonzero;fill:rgb(100%,100%,100%);fill-opacity:1;" d="M 670.960938 541.429688 L 665.660156 541.429688 L 643.820312 507.890625 L 643.601562 507.890625 C 643.890625 511.828125 644.03125 515.441406 644.03125 518.710938 L 644.03125 541.429688 L 639.738281 541.429688 L 639.738281 501.46875 L 644.988281 501.46875 L 666.78125 534.871094 L 667 534.871094 C 666.960938 534.378906 666.878906 532.800781 666.75 530.128906 C 666.621094 527.460938 666.578125 525.550781 666.609375 524.398438 L 666.609375 501.46875 L 670.960938 501.46875 Z M 670.960938 541.429688 "/>
<path style=" stroke:none;fill-rule:nonzero;fill:rgb(100%,100%,100%);fill-opacity:1;" d="M 509.621094 608.609375 L 504.648438 595.898438 L 488.628906 595.898438 L 483.710938 608.609375 L 479.011719 608.609375 L 494.808594 568.480469 L 498.71875 568.480469 L 514.441406 608.609375 Z M 503.199219 591.71875 L 498.550781 579.339844 C 497.949219 577.769531 497.328125 575.851562 496.699219 573.570312 C 496.300781 575.320312 495.71875 577.238281 494.96875 579.339844 L 490.269531 591.71875 Z M 503.199219 591.71875 "/>
<path style=" stroke:none;fill-rule:nonzero;fill:rgb(100%,100%,100%);fill-opacity:1;" d="M 537.511719 587.671875 L 551.089844 587.671875 L 551.089844 607.109375 C 548.980469 607.78125 546.820312 608.300781 544.640625 608.640625 C 542.449219 608.980469 539.921875 609.160156 537.039062 609.160156 C 530.988281 609.160156 526.28125 607.359375 522.910156 603.761719 C 519.53125 600.160156 517.851562 595.121094 517.851562 588.628906 C 517.851562 584.480469 518.679688 580.839844 520.351562 577.710938 C 522.019531 574.578125 524.421875 572.199219 527.550781 570.550781 C 530.691406 568.898438 534.359375 568.070312 538.570312 568.070312 C 542.839844 568.070312 546.808594 568.859375 550.488281 570.421875 L 548.691406 574.53125 C 545.078125 573 541.609375 572.230469 538.269531 572.230469 C 533.398438 572.230469 529.601562 573.679688 526.871094 576.578125 C 524.140625 579.480469 522.769531 583.488281 522.769531 588.628906 C 522.769531 594.03125 524.089844 598.121094 526.71875 600.910156 C 529.351562 603.691406 533.21875 605.089844 538.320312 605.089844 C 541.089844 605.089844 543.800781 604.769531 546.441406 604.128906 L 546.441406 591.828125 L 537.5 591.828125 Z M 537.511719 587.671875 "/>
<path style=" stroke:none;fill-rule:nonzero;fill:rgb(100%,100%,100%);fill-opacity:1;" d="M 560.691406 608.609375 L 560.691406 568.648438 L 565.328125 568.648438 L 565.328125 608.609375 Z M 560.691406 608.609375 "/>
<path style=" stroke:none;fill-rule:nonzero;fill:rgb(100%,100%,100%);fill-opacity:1;" d="M 576.300781 608.609375 L 576.300781 568.648438 L 580.941406 568.648438 L 580.941406 604.398438 L 598.570312 604.398438 L 598.570312 608.609375 Z M 576.300781 608.609375 "/>
<path style=" stroke:none;fill-rule:nonzero;fill:rgb(100%,100%,100%);fill-opacity:1;" d="M 627.628906 608.609375 L 605.351562 608.609375 L 605.351562 568.648438 L 627.628906 568.648438 L 627.628906 572.769531 L 610 572.769531 L 610 585.648438 L 626.570312 585.648438 L 626.570312 589.75 L 610 589.75 L 610 604.460938 L 627.628906 604.460938 Z M 627.628906 608.609375 "/>
<path style=" stroke:none;fill-rule:nonzero;fill:rgb(29.411316%,33.724976%,39.99939%);fill-opacity:1;" d="M 974.648438 469.828125 C 974.488281 469.828125 974.328125 469.808594 974.160156 469.789062 L 967.621094 468.871094 L 967.621094 516.628906 C 967.621094 518.5 966.140625 520.441406 964.339844 520.941406 L 916.289062 534.171875 C 915.390625 534.410156 914.199219 534.539062 913.011719 534.539062 C 911.828125 534.539062 910.640625 534.410156 909.738281 534.171875 L 861.691406 520.941406 C 859.878906 520.441406 858.410156 518.5 858.410156 516.628906 L 858.410156 468.871094 L 851.871094 469.789062 C 851.699219 469.808594 851.53125 469.828125 851.378906 469.828125 C 849.871094 469.828125 849.210938 468.710938 849.921875 467.171875 L 859.121094 447.148438 C 859.898438 445.449219 862.011719 443.648438 863.808594 443.160156 L 911.859375 429.921875 C 912.160156 429.839844 912.441406 429.800781 912.699219 429.800781 C 912.808594 429.800781 912.910156 429.820312 913.011719 429.828125 C 913.121094 429.808594 913.21875 429.800781 913.328125 429.800781 C 913.578125 429.800781 913.859375 429.839844 914.160156 429.921875 L 962.21875 443.160156 C 964.019531 443.648438 966.128906 445.449219 966.910156 447.148438 L 976.109375 467.171875 C 976.808594 468.710938 976.160156 469.828125 974.648438 469.828125 Z M 865.691406 511.191406 C 865.691406 512.421875 866.699219 513.429688 867.941406 513.429688 C 869.179688 513.429688 870.179688 512.421875 870.179688 511.191406 L 870.179688 489.769531 C 870.179688 488.53125 869.179688 487.519531 867.941406 487.519531 C 866.699219 487.519531 865.691406 488.53125 865.691406 489.769531 Z M 865 447.480469 C 864.46875 447.628906 863.421875 448.519531 863.191406 449.019531 L 856 464.679688 L 900.921875 458.378906 C 901.148438 458.300781 901.550781 457.960938 901.660156 457.738281 L 908.460938 435.511719 Z M 913.390625 461.140625 L 913.011719 459.898438 L 913.011719 526.230469 C 913.789062 526.230469 914.308594 526.140625 914.429688 526.109375 L 960.621094 513.390625 L 960.621094 474.960938 L 923.46875 469.75 C 918.960938 469.109375 914.71875 465.488281 913.390625 461.140625 Z M 962.828125 449.019531 C 962.601562 448.519531 961.558594 447.628906 961.019531 447.480469 L 917.558594 435.511719 L 924.359375 457.738281 C 924.46875 457.960938 924.871094 458.300781 925.101562 458.378906 L 970.019531 464.679688 Z M 962.828125 449.019531 "/>
<path style=" stroke:none;fill-rule:nonzero;fill:rgb(29.411316%,33.724976%,39.99939%);fill-opacity:1;" d="M 487.449219 226.511719 L 497.960938 226.511719 L 497.960938 240.851562 C 497.960938 240.851562 495.378906 241.691406 493.011719 242.039062 C 493.011719 242.039062 490.628906 242.390625 487.878906 242.390625 C 487.878906 242.390625 481.390625 242.390625 477.878906 238.550781 C 477.878906 238.550781 474.359375 234.710938 474.359375 227.71875 C 474.359375 227.71875 474.359375 220.828125 478.328125 216.929688 C 478.328125 216.929688 482.289062 213.039062 489.25 213.039062 C 489.25 213.039062 493.71875 213.039062 497.71875 214.75 L 496.078125 218.640625 C 496.078125 218.640625 492.609375 217.039062 489.128906 217.039062 C 489.128906 217.039062 484.558594 217.039062 481.898438 219.910156 C 481.898438 219.910156 479.25 222.78125 479.25 227.761719 C 479.25 227.761719 479.25 233 481.640625 235.71875 C 481.640625 235.71875 484.03125 238.449219 488.519531 238.449219 C 488.519531 238.449219 490.789062 238.449219 493.371094 237.878906 L 493.371094 230.519531 L 487.449219 230.519531 Z M 502.070312 251.609375 C 502.070312 251.609375 500 251.609375 498.640625 251.121094 L 498.640625 247.488281 C 498.640625 247.488281 499.960938 247.839844 501.351562 247.839844 C 501.351562 247.839844 504.28125 247.839844 504.28125 244.519531 L 504.28125 220.398438 L 508.871094 220.398438 L 508.871094 244.828125 C 508.871094 244.828125 508.871094 248.171875 507.121094 249.890625 C 507.121094 249.890625 505.378906 251.609375 502.070312 251.609375 Z M 504.011719 214.679688 C 504.011719 214.679688 504.011719 213.449219 504.679688 212.78125 C 504.679688 212.78125 505.359375 212.121094 506.609375 212.121094 C 506.609375 212.121094 507.820312 212.121094 508.488281 212.78125 C 508.488281 212.78125 509.160156 213.449219 509.160156 214.679688 C 509.160156 214.679688 509.160156 215.851562 508.488281 216.519531 C 508.488281 216.519531 507.820312 217.199219 506.609375 217.199219 C 506.609375 217.199219 505.359375 217.199219 504.679688 216.519531 C 504.679688 216.519531 504.011719 215.851562 504.011719 214.679688 Z M 524.710938 242.390625 C 524.710938 242.390625 519.679688 242.390625 516.828125 239.449219 C 516.828125 239.449219 513.988281 236.511719 513.988281 231.359375 C 513.988281 231.359375 513.988281 226.058594 516.628906 223.039062 C 516.628906 223.039062 519.269531 220.011719 523.878906 220.011719 C 523.878906 220.011719 528.148438 220.011719 530.628906 222.609375 C 530.628906 222.609375 533.109375 225.199219 533.109375 229.75 L 533.109375 232.230469 L 518.71875 232.230469 C 518.71875 232.230469 518.820312 235.378906 520.421875 237.070312 C 520.421875 237.070312 522.019531 238.761719 524.929688 238.761719 C 524.929688 238.761719 526.839844 238.761719 528.488281 238.398438 C 528.488281 238.398438 530.140625 238.039062 532.039062 237.199219 L 532.039062 240.929688 C 532.039062 240.929688 530.359375 241.730469 528.640625 242.058594 C 528.640625 242.058594 526.921875 242.390625 524.710938 242.390625 Z M 523.878906 223.480469 C 523.878906 223.480469 521.691406 223.480469 520.371094 224.871094 C 520.371094 224.871094 519.050781 226.261719 518.800781 228.910156 L 528.601562 228.910156 C 528.601562 228.910156 528.558594 226.238281 527.308594 224.859375 C 527.308594 224.859375 526.058594 223.480469 523.878906 223.480469 Z M 549.238281 220.011719 C 549.238281 220.011719 550.628906 220.011719 551.519531 220.199219 L 551.070312 224.480469 C 551.070312 224.480469 550.101562 224.25 549.039062 224.25 C 549.039062 224.25 546.289062 224.25 544.578125 226.039062 C 544.578125 226.039062 542.871094 227.839844 542.871094 230.710938 L 542.871094 242 L 538.28125 242 L 538.28125 220.398438 L 541.878906 220.398438 L 542.480469 224.210938 L 542.710938 224.210938 C 542.710938 224.210938 543.789062 222.269531 545.519531 221.140625 C 545.519531 221.140625 547.25 220.011719 549.238281 220.011719 Z M 576.121094 223.871094 L 570.851562 223.871094 L 570.851562 242 L 566.238281 242 L 566.238281 223.871094 L 562.679688 223.871094 L 562.679688 221.730469 L 566.238281 220.320312 L 566.238281 218.910156 C 566.238281 218.910156 566.238281 215.089844 568.039062 213.238281 C 568.039062 213.238281 569.828125 211.390625 573.519531 211.390625 C 573.519531 211.390625 575.949219 211.390625 578.289062 212.199219 L 577.078125 215.671875 C 577.078125 215.671875 575.378906 215.121094 573.839844 215.121094 C 573.839844 215.121094 572.269531 215.121094 571.558594 216.089844 C 571.558594 216.089844 570.851562 217.058594 570.851562 218.988281 L 570.851562 220.398438 L 576.121094 220.398438 Z M 599.441406 231.160156 C 599.441406 231.160156 599.441406 236.449219 596.730469 239.421875 C 596.730469 239.421875 594.011719 242.390625 589.171875 242.390625 C 589.171875 242.390625 586.140625 242.390625 583.820312 241.019531 C 583.820312 241.019531 581.488281 239.660156 580.238281 237.101562 C 580.238281 237.101562 578.988281 234.539062 578.988281 231.160156 C 578.988281 231.160156 578.988281 225.910156 581.691406 222.960938 C 581.691406 222.960938 584.378906 220.011719 589.289062 220.011719 C 589.289062 220.011719 593.96875 220.011719 596.710938 223.03125 C 596.710938 223.03125 599.441406 226.039062 599.441406 231.160156 Z M 583.71875 231.160156 C 583.71875 231.160156 583.71875 238.640625 589.25 238.640625 C 589.25 238.640625 594.710938 238.640625 594.710938 231.160156 C 594.710938 231.160156 594.710938 223.761719 589.210938 223.761719 C 589.210938 223.761719 586.320312 223.761719 585.019531 225.671875 C 585.019531 225.671875 583.71875 227.589844 583.71875 231.160156 Z M 608.871094 242 L 604.28125 242 L 604.28125 211.609375 L 608.871094 211.609375 Z M 619.710938 230.589844 L 622.308594 227.351562 L 628.839844 220.398438 L 634.128906 220.398438 L 625.441406 229.679688 L 634.679688 242 L 629.289062 242 L 622.351562 232.53125 L 619.828125 234.601562 L 619.828125 242 L 615.28125 242 L 615.28125 211.609375 L 619.828125 211.609375 L 619.828125 226.429688 L 619.601562 230.589844 Z M 619.710938 230.589844 "/>
<path style=" stroke:none;fill-rule:nonzero;fill:rgb(29.411316%,33.724976%,39.99939%);fill-opacity:1;" d="M 516.789062 283.851562 C 516.789062 283.851562 516.789062 287.011719 514.488281 288.699219 C 514.488281 288.699219 512.179688 290.390625 507.890625 290.390625 C 507.890625 290.390625 503.570312 290.390625 500.949219 289.078125 L 500.949219 285.121094 C 500.949219 285.121094 504.761719 286.871094 508.039062 286.871094 C 508.039062 286.871094 512.28125 286.871094 512.28125 284.320312 C 512.28125 284.320312 512.28125 283.5 511.808594 282.949219 C 511.808594 282.949219 511.339844 282.398438 510.269531 281.820312 C 510.269531 281.820312 509.199219 281.230469 507.28125 280.488281 C 507.28125 280.488281 503.550781 279.039062 502.230469 277.601562 C 502.230469 277.601562 500.910156 276.148438 500.910156 273.851562 C 500.910156 273.851562 500.910156 271.070312 503.148438 269.539062 C 503.148438 269.539062 505.390625 268.011719 509.230469 268.011719 C 509.230469 268.011719 513.039062 268.011719 516.441406 269.550781 L 514.960938 273.011719 C 514.960938 273.011719 511.460938 271.558594 509.078125 271.558594 C 509.078125 271.558594 505.449219 271.558594 505.449219 273.628906 C 505.449219 273.628906 505.449219 274.648438 506.390625 275.351562 C 506.390625 275.351562 507.339844 276.050781 510.519531 277.289062 C 510.519531 277.289062 513.199219 278.320312 514.410156 279.179688 C 514.410156 279.179688 515.621094 280.039062 516.210938 281.160156 C 516.210938 281.160156 516.789062 282.289062 516.789062 283.851562 Z M 536.519531 290 L 535.871094 287.171875 L 535.640625 287.171875 C 535.640625 287.171875 534.679688 288.671875 532.910156 289.53125 C 532.910156 289.53125 531.140625 290.390625 528.878906 290.390625 C 528.878906 290.390625 524.949219 290.390625 523.019531 288.441406 C 523.019531 288.441406 521.089844 286.480469 521.089844 282.519531 L 521.089844 268.398438 L 525.710938 268.398438 L 525.710938 281.71875 C 525.710938 281.71875 525.710938 284.199219 526.730469 285.441406 C 526.730469 285.441406 527.75 286.679688 529.910156 286.679688 C 529.910156 286.679688 532.800781 286.679688 534.160156 284.949219 C 534.160156 284.949219 535.519531 283.21875 535.519531 279.160156 L 535.519531 268.398438 L 540.128906 268.398438 L 540.128906 290 Z M 557.238281 290.390625 C 557.238281 290.390625 553.140625 290.390625 550.871094 287.441406 L 550.601562 287.441406 C 550.601562 287.441406 550.871094 290.179688 550.871094 290.761719 L 550.871094 299.609375 L 546.28125 299.609375 L 546.28125 268.398438 L 549.988281 268.398438 C 549.988281 268.398438 550.148438 269 550.640625 271.289062 L 550.871094 271.289062 C 550.871094 271.289062 553.019531 268.011719 557.320312 268.011719 C 557.320312 268.011719 561.359375 268.011719 563.621094 270.941406 C 563.621094 270.941406 565.871094 273.871094 565.871094 279.160156 C 565.871094 279.160156 565.871094 284.449219 563.578125 287.421875 C 563.578125 287.421875 561.28125 290.390625 557.238281 290.390625 Z M 556.128906 271.761719 C 556.128906 271.761719 553.390625 271.761719 552.128906 273.359375 C 552.128906 273.359375 550.871094 274.960938 550.871094 278.480469 L 550.871094 279.160156 C 550.871094 279.160156 550.871094 283.109375 552.121094 284.871094 C 552.121094 284.871094 553.371094 286.640625 556.199219 286.640625 C 556.199219 286.640625 558.589844 286.640625 559.878906 284.691406 C 559.878906 284.691406 561.160156 282.730469 561.160156 279.121094 C 561.160156 279.121094 561.160156 275.488281 559.878906 273.621094 C 559.878906 273.621094 558.609375 271.761719 556.128906 271.761719 Z M 582.238281 268.011719 C 582.238281 268.011719 583.628906 268.011719 584.519531 268.199219 L 584.070312 272.480469 C 584.070312 272.480469 583.101562 272.25 582.039062 272.25 C 582.039062 272.25 579.289062 272.25 577.578125 274.039062 C 577.578125 274.039062 575.871094 275.839844 575.871094 278.710938 L 575.871094 290 L 571.28125 290 L 571.28125 268.398438 L 574.878906 268.398438 L 575.480469 272.210938 L 575.710938 272.210938 C 575.710938 272.210938 576.789062 270.269531 578.519531 269.140625 C 578.519531 269.140625 580.25 268.011719 582.238281 268.011719 Z M 597.710938 290.390625 C 597.710938 290.390625 592.679688 290.390625 589.828125 287.449219 C 589.828125 287.449219 586.988281 284.511719 586.988281 279.359375 C 586.988281 279.359375 586.988281 274.058594 589.628906 271.039062 C 589.628906 271.039062 592.269531 268.011719 596.878906 268.011719 C 596.878906 268.011719 601.148438 268.011719 603.628906 270.609375 C 603.628906 270.609375 606.109375 273.199219 606.109375 277.75 L 606.109375 280.230469 L 591.71875 280.230469 C 591.71875 280.230469 591.820312 283.378906 593.421875 285.070312 C 593.421875 285.070312 595.019531 286.761719 597.929688 286.761719 C 597.929688 286.761719 599.839844 286.761719 601.488281 286.398438 C 601.488281 286.398438 603.140625 286.039062 605.039062 285.199219 L 605.039062 288.929688 C 605.039062 288.929688 603.359375 289.730469 601.640625 290.058594 C 601.640625 290.058594 599.921875 290.390625 597.710938 290.390625 Z M 596.878906 271.480469 C 596.878906 271.480469 594.691406 271.480469 593.371094 272.871094 C 593.371094 272.871094 592.050781 274.261719 591.800781 276.910156 L 601.601562 276.910156 C 601.601562 276.910156 601.558594 274.238281 600.308594 272.859375 C 600.308594 272.859375 599.058594 271.480469 596.878906 271.480469 Z M 596.878906 271.480469 "/>
<path style=" stroke:none;fill-rule:nonzero;fill:rgb(29.411316%,33.724976%,39.99939%);fill-opacity:1;" d="M 527.230469 948.25 C 527.230469 948.25 527.230469 952.050781 524.480469 954.21875 C 524.480469 954.21875 521.730469 956.390625 516.878906 956.390625 C 516.878906 956.390625 512.039062 956.390625 508.949219 954.890625 L 508.949219 950.46875 C 508.949219 950.46875 510.910156 951.390625 513.101562 951.921875 C 513.101562 951.921875 515.300781 952.449219 517.199219 952.449219 C 517.199219 952.449219 519.96875 952.449219 521.289062 951.390625 C 521.289062 951.390625 522.609375 950.339844 522.609375 948.558594 C 522.609375 948.558594 522.609375 946.960938 521.390625 945.839844 C 521.390625 945.839844 520.179688 944.730469 516.390625 943.210938 C 516.390625 943.210938 512.488281 941.621094 510.890625 939.589844 C 510.890625 939.589844 509.289062 937.558594 509.289062 934.710938 C 509.289062 934.710938 509.289062 931.140625 511.820312 929.089844 C 511.820312 929.089844 514.359375 927.039062 518.640625 927.039062 C 518.640625 927.039062 522.738281 927.039062 526.800781 928.828125 L 525.320312 932.640625 C 525.320312 932.640625 521.511719 931.039062 518.519531 931.039062 C 518.519531 931.039062 516.261719 931.039062 515.089844 932.03125 C 515.089844 932.03125 513.910156 933.011719 513.910156 934.628906 C 513.910156 934.628906 513.910156 935.75 514.378906 936.539062 C 514.378906 936.539062 514.851562 937.328125 515.929688 938.03125 C 515.929688 938.03125 517 938.730469 519.789062 939.890625 C 519.789062 939.890625 522.941406 941.199219 524.398438 942.328125 C 524.398438 942.328125 525.871094 943.460938 526.550781 944.890625 C 526.550781 944.890625 527.230469 946.308594 527.230469 948.25 Z M 536.710938 944.589844 L 539.308594 941.351562 L 545.839844 934.398438 L 551.128906 934.398438 L 542.441406 943.679688 L 551.679688 956 L 546.289062 956 L 539.351562 946.53125 L 536.828125 948.601562 L 536.828125 956 L 532.28125 956 L 532.28125 925.609375 L 536.828125 925.609375 L 536.828125 940.429688 L 536.601562 944.589844 Z M 568.800781 956 L 567.878906 952.988281 L 567.71875 952.988281 C 567.71875 952.988281 566.160156 954.960938 564.578125 955.679688 C 564.578125 955.679688 563 956.390625 560.519531 956.390625 C 560.519531 956.390625 557.328125 956.390625 555.539062 954.671875 C 555.539062 954.671875 553.761719 952.949219 553.761719 949.808594 C 553.761719 949.808594 553.761719 946.46875 556.238281 944.769531 C 556.238281 944.769531 558.71875 943.070312 563.800781 942.910156 L 567.53125 942.800781 L 567.53125 941.640625 C 567.53125 941.640625 567.53125 939.570312 566.558594 938.550781 C 566.558594 938.550781 565.589844 937.519531 563.558594 937.519531 C 563.558594 937.519531 561.898438 937.519531 560.378906 938.011719 C 560.378906 938.011719 558.859375 938.5 557.449219 939.160156 L 555.960938 935.878906 C 555.960938 935.878906 557.71875 934.960938 559.808594 934.488281 C 559.808594 934.488281 561.898438 934.011719 563.761719 934.011719 C 563.761719 934.011719 567.878906 934.011719 569.980469 935.800781 C 569.980469 935.800781 572.078125 937.601562 572.078125 941.449219 L 572.078125 956 Z M 561.960938 952.871094 C 561.960938 952.871094 564.460938 952.871094 565.96875 951.480469 C 565.96875 951.480469 567.488281 950.078125 567.488281 947.558594 L 567.488281 945.691406 L 564.710938 945.800781 C 564.710938 945.800781 561.46875 945.921875 560 946.890625 C 560 946.890625 558.519531 947.859375 558.519531 949.851562 C 558.519531 949.851562 558.519531 951.289062 559.378906 952.078125 C 559.378906 952.078125 560.238281 952.871094 561.960938 952.871094 Z M 589.238281 956.390625 C 589.238281 956.390625 585.140625 956.390625 582.871094 953.441406 L 582.601562 953.441406 C 582.601562 953.441406 582.871094 956.179688 582.871094 956.761719 L 582.871094 965.609375 L 578.28125 965.609375 L 578.28125 934.398438 L 581.988281 934.398438 C 581.988281 934.398438 582.148438 935 582.640625 937.289062 L 582.871094 937.289062 C 582.871094 937.289062 585.019531 934.011719 589.320312 934.011719 C 589.320312 934.011719 593.359375 934.011719 595.621094 936.941406 C 595.621094 936.941406 597.871094 939.871094 597.871094 945.160156 C 597.871094 945.160156 597.871094 950.449219 595.578125 953.421875 C 595.578125 953.421875 593.28125 956.390625 589.238281 956.390625 Z M 588.128906 937.761719 C 588.128906 937.761719 585.390625 937.761719 584.128906 939.359375 C 584.128906 939.359375 582.871094 940.960938 582.871094 944.480469 L 582.871094 945.160156 C 582.871094 945.160156 582.871094 949.109375 584.121094 950.871094 C 584.121094 950.871094 585.371094 952.640625 588.199219 952.640625 C 588.199219 952.640625 590.589844 952.640625 591.878906 950.691406 C 591.878906 950.691406 593.160156 948.730469 593.160156 945.121094 C 593.160156 945.121094 593.160156 941.488281 591.878906 939.621094 C 591.878906 939.621094 590.609375 937.761719 588.128906 937.761719 Z M 588.128906 937.761719 "/>
<path style=" stroke:none;fill-rule:nonzero;fill:rgb(29.411316%,33.724976%,39.99939%);fill-opacity:1;" d="M 421.328125 1000.679688 C 421.328125 1000.679688 423.011719 1000.679688 424.691406 1000.148438 L 424.691406 1003.609375 C 424.691406 1003.609375 423.929688 1003.941406 422.71875 1004.171875 C 422.71875 1004.171875 421.519531 1004.390625 420.230469 1004.390625 C 420.230469 1004.390625 413.710938 1004.390625 413.710938 997.519531 L 413.710938 985.871094 L 410.761719 985.871094 L 410.761719 983.839844 L 413.929688 982.160156 L 415.488281 977.589844 L 418.320312 977.589844 L 418.320312 982.398438 L 424.46875 982.398438 L 424.46875 985.871094 L 418.320312 985.871094 L 418.320312 997.441406 C 418.320312 997.441406 418.320312 999.101562 419.148438 999.890625 C 419.148438 999.890625 419.980469 1000.679688 421.328125 1000.679688 Z M 440.238281 982.011719 C 440.238281 982.011719 441.628906 982.011719 442.519531 982.199219 L 442.070312 986.480469 C 442.070312 986.480469 441.101562 986.25 440.039062 986.25 C 440.039062 986.25 437.289062 986.25 435.578125 988.039062 C 435.578125 988.039062 433.871094 989.839844 433.871094 992.710938 L 433.871094 1004 L 429.28125 1004 L 429.28125 982.398438 L 432.878906 982.398438 L 433.480469 986.210938 L 433.710938 986.210938 C 433.710938 986.210938 434.789062 984.269531 436.519531 983.140625 C 436.519531 983.140625 438.25 982.011719 440.238281 982.011719 Z M 443 982.398438 L 448 982.398438 L 452.390625 994.640625 C 452.390625 994.640625 453.390625 997.261719 453.71875 999.570312 L 453.878906 999.570312 C 453.878906 999.570312 454.050781 998.488281 454.519531 996.960938 C 454.519531 996.960938 454.988281 995.429688 459.480469 982.398438 L 464.449219 982.398438 L 455.210938 1006.871094 C 455.210938 1006.871094 452.691406 1013.609375 446.808594 1013.609375 C 446.808594 1013.609375 445.289062 1013.609375 443.839844 1013.28125 L 443.839844 1009.640625 C 443.839844 1009.640625 444.878906 1009.878906 446.199219 1009.878906 C 446.199219 1009.878906 449.519531 1009.878906 450.871094 1006.03125 L 451.671875 1004 Z M 485.519531 982.398438 L 485.519531 984.921875 L 481.828125 985.601562 C 481.828125 985.601562 482.339844 986.289062 482.671875 987.28125 C 482.671875 987.28125 483 988.28125 483 989.390625 C 483 989.390625 483 992.730469 480.699219 994.640625 C 480.699219 994.640625 478.390625 996.558594 474.351562 996.558594 C 474.351562 996.558594 473.320312 996.558594 472.480469 996.398438 C 472.480469 996.398438 470.988281 997.320312 470.988281 998.550781 C 470.988281 998.550781 470.988281 999.289062 471.691406 999.660156 C 471.691406 999.660156 472.378906 1000.039062 474.230469 1000.039062 L 478 1000.039062 C 478 1000.039062 481.578125 1000.039062 483.429688 1001.558594 C 483.429688 1001.558594 485.289062 1003.078125 485.289062 1005.949219 C 485.289062 1005.949219 485.289062 1009.621094 482.261719 1011.621094 C 482.261719 1011.621094 479.230469 1013.609375 473.511719 1013.609375 C 473.511719 1013.609375 469.101562 1013.609375 466.769531 1012.050781 C 466.769531 1012.050781 464.449219 1010.480469 464.449219 1007.589844 C 464.449219 1007.589844 464.449219 1005.601562 465.710938 1004.238281 C 465.710938 1004.238281 466.96875 1002.890625 469.230469 1002.359375 C 469.230469 1002.359375 468.320312 1001.96875 467.71875 1001.101562 C 467.71875 1001.101562 467.128906 1000.230469 467.128906 999.269531 C 467.128906 999.269531 467.128906 998.058594 467.808594 997.21875 C 467.808594 997.21875 468.488281 996.378906 469.839844 995.558594 C 469.839844 995.558594 468.160156 994.839844 467.121094 993.210938 C 467.121094 993.210938 466.070312 991.578125 466.070312 989.390625 C 466.070312 989.390625 466.070312 985.871094 468.289062 983.941406 C 468.289062 983.941406 470.5 982.011719 474.609375 982.011719 C 474.609375 982.011719 475.519531 982.011719 476.53125 982.128906 C 476.53125 982.128906 477.539062 982.261719 478.039062 982.398438 Z M 468.550781 1007.359375 C 468.550781 1007.359375 468.550781 1008.839844 469.890625 1009.640625 C 469.890625 1009.640625 471.230469 1010.449219 473.648438 1010.449219 C 473.648438 1010.449219 477.398438 1010.449219 479.230469 1009.371094 C 479.230469 1009.371094 481.070312 1008.300781 481.070312 1006.519531 C 481.070312 1006.519531 481.070312 1005.109375 480.058594 1004.519531 C 480.058594 1004.519531 479.058594 1003.921875 476.320312 1003.921875 L 472.851562 1003.921875 C 472.851562 1003.921875 470.878906 1003.921875 469.710938 1004.851562 C 469.710938 1004.851562 468.550781 1005.78125 468.550781 1007.359375 Z M 470.519531 989.390625 C 470.519531 989.390625 470.519531 991.421875 471.570312 992.519531 C 471.570312 992.519531 472.609375 993.609375 474.570312 993.609375 C 474.570312 993.609375 478.550781 993.609375 478.550781 989.351562 C 478.550781 989.351562 478.550781 987.238281 477.558594 986.101562 C 477.558594 986.101562 476.578125 984.960938 474.570312 984.960938 C 474.570312 984.960938 472.570312 984.960938 471.550781 986.089844 C 471.550781 986.089844 470.519531 987.21875 470.519531 989.390625 Z M 507.519531 982.398438 L 507.519531 984.921875 L 503.828125 985.601562 C 503.828125 985.601562 504.339844 986.289062 504.671875 987.28125 C 504.671875 987.28125 505 988.28125 505 989.390625 C 505 989.390625 505 992.730469 502.699219 994.640625 C 502.699219 994.640625 500.390625 996.558594 496.351562 996.558594 C 496.351562 996.558594 495.320312 996.558594 494.480469 996.398438 C 494.480469 996.398438 492.988281 997.320312 492.988281 998.550781 C 492.988281 998.550781 492.988281 999.289062 493.691406 999.660156 C 493.691406 999.660156 494.378906 1000.039062 496.230469 1000.039062 L 500 1000.039062 C 500 1000.039062 503.578125 1000.039062 505.429688 1001.558594 C 505.429688 1001.558594 507.289062 1003.078125 507.289062 1005.949219 C 507.289062 1005.949219 507.289062 1009.621094 504.261719 1011.621094 C 504.261719 1011.621094 501.230469 1013.609375 495.511719 1013.609375 C 495.511719 1013.609375 491.101562 1013.609375 488.769531 1012.050781 C 488.769531 1012.050781 486.449219 1010.480469 486.449219 1007.589844 C 486.449219 1007.589844 486.449219 1005.601562 487.710938 1004.238281 C 487.710938 1004.238281 488.96875 1002.890625 491.230469 1002.359375 C 491.230469 1002.359375 490.320312 1001.96875 489.71875 1001.101562 C 489.71875 1001.101562 489.128906 1000.230469 489.128906 999.269531 C 489.128906 999.269531 489.128906 998.058594 489.808594 997.21875 C 489.808594 997.21875 490.488281 996.378906 491.839844 995.558594 C 491.839844 995.558594 490.160156 994.839844 489.121094 993.210938 C 489.121094 993.210938 488.070312 991.578125 488.070312 989.390625 C 488.070312 989.390625 488.070312 985.871094 490.289062 983.941406 C 490.289062 983.941406 492.5 982.011719 496.609375 982.011719 C 496.609375 982.011719 497.519531 982.011719 498.53125 982.128906 C 498.53125 982.128906 499.539062 982.261719 500.039062 982.398438 Z M 490.550781 1007.359375 C 490.550781 1007.359375 490.550781 1008.839844 491.890625 1009.640625 C 491.890625 1009.640625 493.230469 1010.449219 495.648438 1010.449219 C 495.648438 1010.449219 499.398438 1010.449219 501.230469 1009.371094 C 501.230469 1009.371094 503.070312 1008.300781 503.070312 1006.519531 C 503.070312 1006.519531 503.070312 1005.109375 502.058594 1004.519531 C 502.058594 1004.519531 501.058594 1003.921875 498.320312 1003.921875 L 494.851562 1003.921875 C 494.851562 1003.921875 492.878906 1003.921875 491.710938 1004.851562 C 491.710938 1004.851562 490.550781 1005.78125 490.550781 1007.359375 Z M 492.519531 989.390625 C 492.519531 989.390625 492.519531 991.421875 493.570312 992.519531 C 493.570312 992.519531 494.609375 993.609375 496.570312 993.609375 C 496.570312 993.609375 500.550781 993.609375 500.550781 989.351562 C 500.550781 989.351562 500.550781 987.238281 499.558594 986.101562 C 499.558594 986.101562 498.578125 984.960938 496.570312 984.960938 C 496.570312 984.960938 494.570312 984.960938 493.550781 986.089844 C 493.550781 986.089844 492.519531 987.21875 492.519531 989.390625 Z M 520.710938 1004.390625 C 520.710938 1004.390625 515.679688 1004.390625 512.828125 1001.449219 C 512.828125 1001.449219 509.988281 998.511719 509.988281 993.359375 C 509.988281 993.359375 509.988281 988.058594 512.628906 985.039062 C 512.628906 985.039062 515.269531 982.011719 519.878906 982.011719 C 519.878906 982.011719 524.148438 982.011719 526.628906 984.609375 C 526.628906 984.609375 529.109375 987.199219 529.109375 991.75 L 529.109375 994.230469 L 514.71875 994.230469 C 514.71875 994.230469 514.820312 997.378906 516.421875 999.070312 C 516.421875 999.070312 518.019531 1000.761719 520.929688 1000.761719 C 520.929688 1000.761719 522.839844 1000.761719 524.488281 1000.398438 C 524.488281 1000.398438 526.140625 1000.039062 528.039062 999.199219 L 528.039062 1002.929688 C 528.039062 1002.929688 526.359375 1003.730469 524.640625 1004.058594 C 524.640625 1004.058594 522.921875 1004.390625 520.710938 1004.390625 Z M 519.878906 985.480469 C 519.878906 985.480469 517.691406 985.480469 516.371094 986.871094 C 516.371094 986.871094 515.050781 988.261719 514.800781 990.910156 L 524.601562 990.910156 C 524.601562 990.910156 524.558594 988.238281 523.308594 986.859375 C 523.308594 986.859375 522.058594 985.480469 519.878906 985.480469 Z M 555.238281 982.011719 C 555.238281 982.011719 556.628906 982.011719 557.519531 982.199219 L 557.070312 986.480469 C 557.070312 986.480469 556.101562 986.25 555.039062 986.25 C 555.039062 986.25 552.289062 986.25 550.578125 988.039062 C 550.578125 988.039062 548.871094 989.839844 548.871094 992.710938 L 548.871094 1004 L 544.28125 1004 L 544.28125 982.398438 L 547.878906 982.398438 L 548.480469 986.210938 L 548.710938 986.210938 C 548.710938 986.210938 549.789062 984.269531 551.519531 983.140625 C 551.519531 983.140625 553.25 982.011719 555.238281 982.011719 Z M 574.800781 1004 L 573.878906 1000.988281 L 573.71875 1000.988281 C 573.71875 1000.988281 572.160156 1002.960938 570.578125 1003.679688 C 570.578125 1003.679688 569 1004.390625 566.519531 1004.390625 C 566.519531 1004.390625 563.328125 1004.390625 561.539062 1002.671875 C 561.539062 1002.671875 559.761719 1000.949219 559.761719 997.808594 C 559.761719 997.808594 559.761719 994.46875 562.238281 992.769531 C 562.238281 992.769531 564.71875 991.070312 569.800781 990.910156 L 573.53125 990.800781 L 573.53125 989.640625 C 573.53125 989.640625 573.53125 987.570312 572.558594 986.550781 C 572.558594 986.550781 571.589844 985.519531 569.558594 985.519531 C 569.558594 985.519531 567.898438 985.519531 566.378906 986.011719 C 566.378906 986.011719 564.859375 986.5 563.449219 987.160156 L 561.960938 983.878906 C 561.960938 983.878906 563.71875 982.960938 565.808594 982.488281 C 565.808594 982.488281 567.898438 982.011719 569.761719 982.011719 C 569.761719 982.011719 573.878906 982.011719 575.980469 983.800781 C 575.980469 983.800781 578.078125 985.601562 578.078125 989.449219 L 578.078125 1004 Z M 567.960938 1000.871094 C 567.960938 1000.871094 570.460938 1000.871094 571.96875 999.480469 C 571.96875 999.480469 573.488281 998.078125 573.488281 995.558594 L 573.488281 993.691406 L 570.710938 993.800781 C 570.710938 993.800781 567.46875 993.921875 566 994.890625 C 566 994.890625 564.519531 995.859375 564.519531 997.851562 C 564.519531 997.851562 564.519531 999.289062 565.378906 1000.078125 C 565.378906 1000.078125 566.238281 1000.871094 567.960938 1000.871094 Z M 602.480469 1004 L 597.878906 1004 L 597.878906 990.679688 C 597.878906 990.679688 597.878906 988.199219 596.941406 986.980469 C 596.941406 986.980469 596 985.761719 594.011719 985.761719 C 594.011719 985.761719 591.351562 985.761719 590.109375 987.488281 C 590.109375 987.488281 588.871094 989.210938 588.871094 993.238281 L 588.871094 1004 L 584.28125 1004 L 584.28125 982.398438 L 587.878906 982.398438 L 588.519531 985.230469 L 588.75 985.230469 C 588.75 985.230469 589.648438 983.691406 591.359375 982.851562 C 591.359375 982.851562 593.070312 982.011719 595.121094 982.011719 C 595.121094 982.011719 600.101562 982.011719 601.71875 985.410156 L 602.039062 985.410156 C 602.039062 985.410156 602.988281 983.800781 604.730469 982.910156 C 604.730469 982.910156 606.46875 982.011719 608.710938 982.011719 C 608.710938 982.011719 612.578125 982.011719 614.351562 983.960938 C 614.351562 983.960938 616.121094 985.910156 616.121094 989.921875 L 616.121094 1004 L 611.53125 1004 L 611.53125 990.679688 C 611.53125 990.679688 611.53125 988.199219 610.578125 986.980469 C 610.578125 986.980469 609.628906 985.761719 607.640625 985.761719 C 607.640625 985.761719 604.960938 985.761719 603.71875 987.429688 C 603.71875 987.429688 602.480469 989.101562 602.480469 992.550781 Z M 640.480469 1004 L 635.878906 1004 L 635.878906 990.679688 C 635.878906 990.679688 635.878906 988.199219 634.941406 986.980469 C 634.941406 986.980469 634 985.761719 632.011719 985.761719 C 632.011719 985.761719 629.351562 985.761719 628.109375 987.488281 C 628.109375 987.488281 626.871094 989.210938 626.871094 993.238281 L 626.871094 1004 L 622.28125 1004 L 622.28125 982.398438 L 625.878906 982.398438 L 626.519531 985.230469 L 626.75 985.230469 C 626.75 985.230469 627.648438 983.691406 629.359375 982.851562 C 629.359375 982.851562 631.070312 982.011719 633.121094 982.011719 C 633.121094 982.011719 638.101562 982.011719 639.71875 985.410156 L 640.039062 985.410156 C 640.039062 985.410156 640.988281 983.800781 642.730469 982.910156 C 642.730469 982.910156 644.46875 982.011719 646.710938 982.011719 C 646.710938 982.011719 650.578125 982.011719 652.351562 983.960938 C 652.351562 983.960938 654.121094 985.910156 654.121094 989.921875 L 654.121094 1004 L 649.53125 1004 L 649.53125 990.679688 C 649.53125 990.679688 649.53125 988.199219 648.578125 986.980469 C 648.578125 986.980469 647.628906 985.761719 645.640625 985.761719 C 645.640625 985.761719 642.960938 985.761719 641.71875 987.429688 C 641.71875 987.429688 640.480469 989.101562 640.480469 992.550781 Z M 669.710938 1004.390625 C 669.710938 1004.390625 664.679688 1004.390625 661.828125 1001.449219 C 661.828125 1001.449219 658.988281 998.511719 658.988281 993.359375 C 658.988281 993.359375 658.988281 988.058594 661.628906 985.039062 C 661.628906 985.039062 664.269531 982.011719 668.878906 982.011719 C 668.878906 982.011719 673.148438 982.011719 675.628906 984.609375 C 675.628906 984.609375 678.109375 987.199219 678.109375 991.75 L 678.109375 994.230469 L 663.71875 994.230469 C 663.71875 994.230469 663.820312 997.378906 665.421875 999.070312 C 665.421875 999.070312 667.019531 1000.761719 669.929688 1000.761719 C 669.929688 1000.761719 671.839844 1000.761719 673.488281 1000.398438 C 673.488281 1000.398438 675.140625 1000.039062 677.039062 999.199219 L 677.039062 1002.929688 C 677.039062 1002.929688 675.359375 1003.730469 673.640625 1004.058594 C 673.640625 1004.058594 671.921875 1004.390625 669.710938 1004.390625 Z M 668.878906 985.480469 C 668.878906 985.480469 666.691406 985.480469 665.371094 986.871094 C 665.371094 986.871094 664.050781 988.261719 663.800781 990.910156 L 673.601562 990.910156 C 673.601562 990.910156 673.558594 988.238281 672.308594 986.859375 C 672.308594 986.859375 671.058594 985.480469 668.878906 985.480469 Z M 694.238281 982.011719 C 694.238281 982.011719 695.628906 982.011719 696.519531 982.199219 L 696.070312 986.480469 C 696.070312 986.480469 695.101562 986.25 694.039062 986.25 C 694.039062 986.25 691.289062 986.25 689.578125 988.039062 C 689.578125 988.039062 687.871094 989.839844 687.871094 992.710938 L 687.871094 1004 L 683.28125 1004 L 683.28125 982.398438 L 686.878906 982.398438 L 687.480469 986.210938 L 687.710938 986.210938 C 687.710938 986.210938 688.789062 984.269531 690.519531 983.140625 C 690.519531 983.140625 692.25 982.011719 694.238281 982.011719 Z M 694.238281 982.011719 "/>
<path style=" stroke:none;fill-rule:nonzero;fill:rgb(29.411316%,33.724976%,39.99939%);fill-opacity:1;" d="M 77.921875 586 L 61.769531 586 L 61.769531 557.449219 L 77.921875 557.449219 L 77.921875 561.390625 L 66.441406 561.390625 L 66.441406 569.160156 L 77.199219 569.160156 L 77.199219 573.070312 L 66.441406 573.070312 L 66.441406 582.039062 L 77.921875 582.039062 Z M 87.710938 574.589844 L 90.308594 571.351562 L 96.839844 564.398438 L 102.128906 564.398438 L 93.441406 573.679688 L 102.679688 586 L 97.289062 586 L 90.351562 576.53125 L 87.828125 578.601562 L 87.828125 586 L 83.28125 586 L 83.28125 555.609375 L 87.828125 555.609375 L 87.828125 570.429688 L 87.601562 574.589844 Z M 120.789062 579.851562 C 120.789062 579.851562 120.789062 583.011719 118.488281 584.699219 C 118.488281 584.699219 116.179688 586.390625 111.890625 586.390625 C 111.890625 586.390625 107.570312 586.390625 104.949219 585.078125 L 104.949219 581.121094 C 104.949219 581.121094 108.761719 582.871094 112.039062 582.871094 C 112.039062 582.871094 116.28125 582.871094 116.28125 580.320312 C 116.28125 580.320312 116.28125 579.5 115.808594 578.949219 C 115.808594 578.949219 115.339844 578.398438 114.269531 577.820312 C 114.269531 577.820312 113.199219 577.230469 111.28125 576.488281 C 111.28125 576.488281 107.550781 575.039062 106.230469 573.601562 C 106.230469 573.601562 104.910156 572.148438 104.910156 569.851562 C 104.910156 569.851562 104.910156 567.070312 107.148438 565.539062 C 107.148438 565.539062 109.390625 564.011719 113.230469 564.011719 C 113.230469 564.011719 117.039062 564.011719 120.441406 565.550781 L 118.960938 569.011719 C 118.960938 569.011719 115.460938 567.558594 113.078125 567.558594 C 113.078125 567.558594 109.449219 567.558594 109.449219 569.628906 C 109.449219 569.628906 109.449219 570.648438 110.390625 571.351562 C 110.390625 571.351562 111.339844 572.050781 114.519531 573.289062 C 114.519531 573.289062 117.199219 574.320312 118.410156 575.179688 C 118.410156 575.179688 119.621094 576.039062 120.210938 577.160156 C 120.210938 577.160156 120.789062 578.289062 120.789062 579.851562 Z M 136.238281 586.390625 C 136.238281 586.390625 132.140625 586.390625 129.871094 583.441406 L 129.601562 583.441406 C 129.601562 583.441406 129.871094 586.179688 129.871094 586.761719 L 129.871094 595.609375 L 125.28125 595.609375 L 125.28125 564.398438 L 128.988281 564.398438 C 128.988281 564.398438 129.148438 565 129.640625 567.289062 L 129.871094 567.289062 C 129.871094 567.289062 132.019531 564.011719 136.320312 564.011719 C 136.320312 564.011719 140.359375 564.011719 142.621094 566.941406 C 142.621094 566.941406 144.871094 569.871094 144.871094 575.160156 C 144.871094 575.160156 144.871094 580.449219 142.578125 583.421875 C 142.578125 583.421875 140.28125 586.390625 136.238281 586.390625 Z M 135.128906 567.761719 C 135.128906 567.761719 132.390625 567.761719 131.128906 569.359375 C 131.128906 569.359375 129.871094 570.960938 129.871094 574.480469 L 129.871094 575.160156 C 129.871094 575.160156 129.871094 579.109375 131.121094 580.871094 C 131.121094 580.871094 132.371094 582.640625 135.199219 582.640625 C 135.199219 582.640625 137.589844 582.640625 138.878906 580.691406 C 138.878906 580.691406 140.160156 578.730469 140.160156 575.121094 C 140.160156 575.121094 140.160156 571.488281 138.878906 569.621094 C 138.878906 569.621094 137.609375 567.761719 135.128906 567.761719 Z M 159.710938 586.390625 C 159.710938 586.390625 154.679688 586.390625 151.828125 583.449219 C 151.828125 583.449219 148.988281 580.511719 148.988281 575.359375 C 148.988281 575.359375 148.988281 570.058594 151.628906 567.039062 C 151.628906 567.039062 154.269531 564.011719 158.878906 564.011719 C 158.878906 564.011719 163.148438 564.011719 165.628906 566.609375 C 165.628906 566.609375 168.109375 569.199219 168.109375 573.75 L 168.109375 576.230469 L 153.71875 576.230469 C 153.71875 576.230469 153.820312 579.378906 155.421875 581.070312 C 155.421875 581.070312 157.019531 582.761719 159.929688 582.761719 C 159.929688 582.761719 161.839844 582.761719 163.488281 582.398438 C 163.488281 582.398438 165.140625 582.039062 167.039062 581.199219 L 167.039062 584.929688 C 167.039062 584.929688 165.359375 585.730469 163.640625 586.058594 C 163.640625 586.058594 161.921875 586.390625 159.710938 586.390625 Z M 158.878906 567.480469 C 158.878906 567.480469 156.691406 567.480469 155.371094 568.871094 C 155.371094 568.871094 154.050781 570.261719 153.800781 572.910156 L 163.601562 572.910156 C 163.601562 572.910156 163.558594 570.238281 162.308594 568.859375 C 162.308594 568.859375 161.058594 567.480469 158.878906 567.480469 Z M 184.238281 564.011719 C 184.238281 564.011719 185.628906 564.011719 186.519531 564.199219 L 186.070312 568.480469 C 186.070312 568.480469 185.101562 568.25 184.039062 568.25 C 184.039062 568.25 181.289062 568.25 179.578125 570.039062 C 179.578125 570.039062 177.871094 571.839844 177.871094 574.710938 L 177.871094 586 L 173.28125 586 L 173.28125 564.398438 L 176.878906 564.398438 L 177.480469 568.210938 L 177.710938 568.210938 C 177.710938 568.210938 178.789062 566.269531 180.519531 565.140625 C 180.519531 565.140625 182.25 564.011719 184.238281 564.011719 Z M 194.871094 586 L 190.28125 586 L 190.28125 564.398438 L 194.871094 564.398438 Z M 190.011719 558.679688 C 190.011719 558.679688 190.011719 557.449219 190.679688 556.78125 C 190.679688 556.78125 191.359375 556.121094 192.609375 556.121094 C 192.609375 556.121094 193.820312 556.121094 194.488281 556.78125 C 194.488281 556.78125 195.160156 557.449219 195.160156 558.679688 C 195.160156 558.679688 195.160156 559.851562 194.488281 560.519531 C 194.488281 560.519531 193.820312 561.199219 192.609375 561.199219 C 192.609375 561.199219 191.359375 561.199219 190.679688 560.519531 C 190.679688 560.519531 190.011719 559.851562 190.011719 558.679688 Z M 219.480469 586 L 214.878906 586 L 214.878906 572.679688 C 214.878906 572.679688 214.878906 570.199219 213.941406 568.980469 C 213.941406 568.980469 213 567.761719 211.011719 567.761719 C 211.011719 567.761719 208.351562 567.761719 207.109375 569.488281 C 207.109375 569.488281 205.871094 571.210938 205.871094 575.238281 L 205.871094 586 L 201.28125 586 L 201.28125 564.398438 L 204.878906 564.398438 L 205.519531 567.230469 L 205.75 567.230469 C 205.75 567.230469 206.648438 565.691406 208.359375 564.851562 C 208.359375 564.851562 210.070312 564.011719 212.121094 564.011719 C 212.121094 564.011719 217.101562 564.011719 218.71875 567.410156 L 219.039062 567.410156 C 219.039062 567.410156 219.988281 565.800781 221.730469 564.910156 C 221.730469 564.910156 223.46875 564.011719 225.710938 564.011719 C 225.710938 564.011719 229.578125 564.011719 231.351562 565.960938 C 231.351562 565.960938 233.121094 567.910156 233.121094 571.921875 L 233.121094 586 L 228.53125 586 L 228.53125 572.679688 C 228.53125 572.679688 228.53125 570.199219 227.578125 568.980469 C 227.578125 568.980469 226.628906 567.761719 224.640625 567.761719 C 224.640625 567.761719 221.960938 567.761719 220.71875 569.429688 C 220.71875 569.429688 219.480469 571.101562 219.480469 574.550781 Z M 248.710938 586.390625 C 248.710938 586.390625 243.679688 586.390625 240.828125 583.449219 C 240.828125 583.449219 237.988281 580.511719 237.988281 575.359375 C 237.988281 575.359375 237.988281 570.058594 240.628906 567.039062 C 240.628906 567.039062 243.269531 564.011719 247.878906 564.011719 C 247.878906 564.011719 252.148438 564.011719 254.628906 566.609375 C 254.628906 566.609375 257.109375 569.199219 257.109375 573.75 L 257.109375 576.230469 L 242.71875 576.230469 C 242.71875 576.230469 242.820312 579.378906 244.421875 581.070312 C 244.421875 581.070312 246.019531 582.761719 248.929688 582.761719 C 248.929688 582.761719 250.839844 582.761719 252.488281 582.398438 C 252.488281 582.398438 254.140625 582.039062 256.039062 581.199219 L 256.039062 584.929688 C 256.039062 584.929688 254.359375 585.730469 252.640625 586.058594 C 252.640625 586.058594 250.921875 586.390625 248.710938 586.390625 Z M 247.878906 567.480469 C 247.878906 567.480469 245.691406 567.480469 244.371094 568.871094 C 244.371094 568.871094 243.050781 570.261719 242.800781 572.910156 L 252.601562 572.910156 C 252.601562 572.910156 252.558594 570.238281 251.308594 568.859375 C 251.308594 568.859375 250.058594 567.480469 247.878906 567.480469 Z M 281.289062 586 L 276.679688 586 L 276.679688 572.71875 C 276.679688 572.71875 276.679688 570.21875 275.671875 568.988281 C 275.671875 568.988281 274.660156 567.761719 272.480469 567.761719 C 272.480469 567.761719 269.570312 567.761719 268.21875 569.480469 C 268.21875 569.480469 266.871094 571.199219 266.871094 575.238281 L 266.871094 586 L 262.28125 586 L 262.28125 564.398438 L 265.878906 564.398438 L 266.519531 567.230469 L 266.75 567.230469 C 266.75 567.230469 267.730469 565.691406 269.53125 564.851562 C 269.53125 564.851562 271.320312 564.011719 273.511719 564.011719 C 273.511719 564.011719 281.289062 564.011719 281.289062 571.921875 Z M 295.328125 582.679688 C 295.328125 582.679688 297.011719 582.679688 298.691406 582.148438 L 298.691406 585.609375 C 298.691406 585.609375 297.929688 585.941406 296.71875 586.171875 C 296.71875 586.171875 295.519531 586.390625 294.230469 586.390625 C 294.230469 586.390625 287.710938 586.390625 287.710938 579.519531 L 287.710938 567.871094 L 284.761719 567.871094 L 284.761719 565.839844 L 287.929688 564.160156 L 289.488281 559.589844 L 292.320312 559.589844 L 292.320312 564.398438 L 298.46875 564.398438 L 298.46875 567.871094 L 292.320312 567.871094 L 292.320312 579.441406 C 292.320312 579.441406 292.320312 581.101562 293.148438 581.890625 C 293.148438 581.890625 293.980469 582.679688 295.328125 582.679688 Z M 312.710938 586.390625 C 312.710938 586.390625 307.679688 586.390625 304.828125 583.449219 C 304.828125 583.449219 301.988281 580.511719 301.988281 575.359375 C 301.988281 575.359375 301.988281 570.058594 304.628906 567.039062 C 304.628906 567.039062 307.269531 564.011719 311.878906 564.011719 C 311.878906 564.011719 316.148438 564.011719 318.628906 566.609375 C 318.628906 566.609375 321.109375 569.199219 321.109375 573.75 L 321.109375 576.230469 L 306.71875 576.230469 C 306.71875 576.230469 306.820312 579.378906 308.421875 581.070312 C 308.421875 581.070312 310.019531 582.761719 312.929688 582.761719 C 312.929688 582.761719 314.839844 582.761719 316.488281 582.398438 C 316.488281 582.398438 318.140625 582.039062 320.039062 581.199219 L 320.039062 584.929688 C 320.039062 584.929688 318.359375 585.730469 316.640625 586.058594 C 316.640625 586.058594 314.921875 586.390625 312.710938 586.390625 Z M 311.878906 567.480469 C 311.878906 567.480469 309.691406 567.480469 308.371094 568.871094 C 308.371094 568.871094 307.050781 570.261719 306.800781 572.910156 L 316.601562 572.910156 C 316.601562 572.910156 316.558594 570.238281 315.308594 568.859375 C 315.308594 568.859375 314.058594 567.480469 311.878906 567.480469 Z M 308.949219 561.761719 L 308.949219 561.269531 C 308.949219 561.269531 310.058594 559.910156 311.238281 558.230469 C 311.238281 558.230469 312.421875 556.550781 313.109375 555.359375 L 318.441406 555.359375 L 318.441406 555.769531 C 318.441406 555.769531 317.421875 556.960938 315.398438 558.839844 C 315.398438 558.839844 313.378906 560.730469 311.988281 561.761719 Z M 337.238281 564.011719 C 337.238281 564.011719 338.628906 564.011719 339.519531 564.199219 L 339.070312 568.480469 C 339.070312 568.480469 338.101562 568.25 337.039062 568.25 C 337.039062 568.25 334.289062 568.25 332.578125 570.039062 C 332.578125 570.039062 330.871094 571.839844 330.871094 574.710938 L 330.871094 586 L 326.28125 586 L 326.28125 564.398438 L 329.878906 564.398438 L 330.480469 568.210938 L 330.710938 568.210938 C 330.710938 568.210938 331.789062 566.269531 333.519531 565.140625 C 333.519531 565.140625 335.25 564.011719 337.238281 564.011719 Z M 337.238281 564.011719 "/>
<path style=" stroke:none;fill-rule:nonzero;fill:rgb(29.411316%,33.724976%,39.99939%);fill-opacity:1;" d="M 108.441406 623.160156 C 108.441406 623.160156 108.441406 628.449219 105.730469 631.421875 C 105.730469 631.421875 103.011719 634.390625 98.171875 634.390625 C 98.171875 634.390625 95.140625 634.390625 92.820312 633.019531 C 92.820312 633.019531 90.488281 631.660156 89.238281 629.101562 C 89.238281 629.101562 87.988281 626.539062 87.988281 623.160156 C 87.988281 623.160156 87.988281 617.910156 90.691406 614.960938 C 90.691406 614.960938 93.378906 612.011719 98.289062 612.011719 C 98.289062 612.011719 102.96875 612.011719 105.710938 615.03125 C 105.710938 615.03125 108.441406 618.039062 108.441406 623.160156 Z M 92.71875 623.160156 C 92.71875 623.160156 92.71875 630.640625 98.25 630.640625 C 98.25 630.640625 103.710938 630.640625 103.710938 623.160156 C 103.710938 623.160156 103.710938 615.761719 98.210938 615.761719 C 98.210938 615.761719 95.320312 615.761719 94.019531 617.671875 C 94.019531 617.671875 92.71875 619.589844 92.71875 623.160156 Z M 131.519531 612.398438 L 131.519531 614.921875 L 127.828125 615.601562 C 127.828125 615.601562 128.339844 616.289062 128.671875 617.28125 C 128.671875 617.28125 129 618.28125 129 619.390625 C 129 619.390625 129 622.730469 126.699219 624.640625 C 126.699219 624.640625 124.390625 626.558594 120.351562 626.558594 C 120.351562 626.558594 119.320312 626.558594 118.480469 626.398438 C 118.480469 626.398438 116.988281 627.320312 116.988281 628.550781 C 116.988281 628.550781 116.988281 629.289062 117.691406 629.660156 C 117.691406 629.660156 118.378906 630.039062 120.230469 630.039062 L 124 630.039062 C 124 630.039062 127.578125 630.039062 129.429688 631.558594 C 129.429688 631.558594 131.289062 633.078125 131.289062 635.949219 C 131.289062 635.949219 131.289062 639.621094 128.261719 641.621094 C 128.261719 641.621094 125.230469 643.609375 119.511719 643.609375 C 119.511719 643.609375 115.101562 643.609375 112.769531 642.050781 C 112.769531 642.050781 110.449219 640.480469 110.449219 637.589844 C 110.449219 637.589844 110.449219 635.601562 111.710938 634.238281 C 111.710938 634.238281 112.96875 632.890625 115.230469 632.359375 C 115.230469 632.359375 114.320312 631.96875 113.71875 631.101562 C 113.71875 631.101562 113.128906 630.230469 113.128906 629.269531 C 113.128906 629.269531 113.128906 628.058594 113.808594 627.21875 C 113.808594 627.21875 114.488281 626.378906 115.839844 625.558594 C 115.839844 625.558594 114.160156 624.839844 113.121094 623.210938 C 113.121094 623.210938 112.070312 621.578125 112.070312 619.390625 C 112.070312 619.390625 112.070312 615.871094 114.289062 613.941406 C 114.289062 613.941406 116.5 612.011719 120.609375 612.011719 C 120.609375 612.011719 121.519531 612.011719 122.53125 612.128906 C 122.53125 612.128906 123.539062 612.261719 124.039062 612.398438 Z M 114.550781 637.359375 C 114.550781 637.359375 114.550781 638.839844 115.890625 639.640625 C 115.890625 639.640625 117.230469 640.449219 119.648438 640.449219 C 119.648438 640.449219 123.398438 640.449219 125.230469 639.371094 C 125.230469 639.371094 127.070312 638.300781 127.070312 636.519531 C 127.070312 636.519531 127.070312 635.109375 126.058594 634.519531 C 126.058594 634.519531 125.058594 633.921875 122.320312 633.921875 L 118.851562 633.921875 C 118.851562 633.921875 116.878906 633.921875 115.710938 634.851562 C 115.710938 634.851562 114.550781 635.78125 114.550781 637.359375 Z M 116.519531 619.390625 C 116.519531 619.390625 116.519531 621.421875 117.570312 622.519531 C 117.570312 622.519531 118.609375 623.609375 120.570312 623.609375 C 120.570312 623.609375 124.550781 623.609375 124.550781 619.351562 C 124.550781 619.351562 124.550781 617.238281 123.558594 616.101562 C 123.558594 616.101562 122.578125 614.960938 120.570312 614.960938 C 120.570312 614.960938 118.570312 614.960938 117.550781 616.089844 C 117.550781 616.089844 116.519531 617.21875 116.519531 619.390625 Z M 149.871094 634 L 145.28125 634 L 145.28125 603.609375 L 149.871094 603.609375 Z M 154.761719 627.808594 C 154.761719 627.808594 154.761719 624.449219 157.128906 622.761719 C 157.128906 622.761719 159.5 621.070312 164.371094 620.910156 L 168.039062 620.800781 L 168.039062 619.308594 C 168.039062 619.308594 168.039062 615.519531 164.109375 615.519531 C 164.109375 615.519531 161.359375 615.519531 158.121094 617.121094 L 156.671875 613.878906 C 156.671875 613.878906 158.390625 612.960938 160.429688 612.488281 C 160.429688 612.488281 162.46875 612.011719 164.410156 612.011719 C 164.410156 612.011719 169.109375 612.011719 171.050781 615.039062 C 171.050781 615.039062 173.390625 612.011719 177.800781 612.011719 C 177.800781 612.011719 181.828125 612.011719 184.210938 614.628906 C 184.210938 614.628906 186.589844 617.261719 186.589844 621.710938 L 186.589844 624.199219 L 172.691406 624.199219 C 172.691406 624.199219 172.878906 630.761719 178.570312 630.761719 C 178.570312 630.761719 182.160156 630.761719 185.519531 629.199219 L 185.519531 632.929688 C 185.519531 632.929688 183.839844 633.730469 182.171875 634.058594 C 182.171875 634.058594 180.5 634.390625 178.351562 634.390625 C 178.351562 634.390625 175.621094 634.390625 173.5 633.328125 C 173.5 633.328125 171.378906 632.261719 170.070312 630.109375 C 170.070312 630.109375 168.230469 632.550781 166.351562 633.46875 C 166.351562 633.46875 164.460938 634.390625 161.628906 634.390625 C 161.628906 634.390625 158.410156 634.390625 156.578125 632.628906 C 156.578125 632.628906 154.761719 630.871094 154.761719 627.808594 Z M 159.519531 627.851562 C 159.519531 627.851562 159.519531 630.871094 162.769531 630.871094 C 162.769531 630.871094 165.191406 630.871094 166.589844 629.460938 C 166.589844 629.460938 168 628.039062 168 625.558594 L 168 623.691406 L 165.359375 623.800781 C 165.359375 623.800781 162.339844 623.921875 160.929688 624.871094 C 160.929688 624.871094 159.519531 625.820312 159.519531 627.851562 Z M 177.730469 615.480469 C 177.730469 615.480469 175.539062 615.480469 174.261719 616.839844 C 174.261719 616.839844 172.980469 618.199219 172.800781 620.910156 L 182.039062 620.910156 C 182.039062 620.910156 182.039062 618.371094 180.898438 616.929688 C 180.898438 616.929688 179.761719 615.480469 177.730469 615.480469 Z M 202.238281 612.011719 C 202.238281 612.011719 203.628906 612.011719 204.519531 612.199219 L 204.070312 616.480469 C 204.070312 616.480469 203.101562 616.25 202.039062 616.25 C 202.039062 616.25 199.289062 616.25 197.578125 618.039062 C 197.578125 618.039062 195.871094 619.839844 195.871094 622.710938 L 195.871094 634 L 191.28125 634 L 191.28125 612.398438 L 194.878906 612.398438 L 195.480469 616.210938 L 195.710938 616.210938 C 195.710938 616.210938 196.789062 614.269531 198.519531 613.140625 C 198.519531 613.140625 200.25 612.011719 202.238281 612.011719 Z M 229.238281 612.011719 C 229.238281 612.011719 230.628906 612.011719 231.519531 612.199219 L 231.070312 616.480469 C 231.070312 616.480469 230.101562 616.25 229.039062 616.25 C 229.039062 616.25 226.289062 616.25 224.578125 618.039062 C 224.578125 618.039062 222.871094 619.839844 222.871094 622.710938 L 222.871094 634 L 218.28125 634 L 218.28125 612.398438 L 221.878906 612.398438 L 222.480469 616.210938 L 222.710938 616.210938 C 222.710938 616.210938 223.789062 614.269531 225.519531 613.140625 C 225.519531 613.140625 227.25 612.011719 229.238281 612.011719 Z M 248.800781 634 L 247.878906 630.988281 L 247.71875 630.988281 C 247.71875 630.988281 246.160156 632.960938 244.578125 633.679688 C 244.578125 633.679688 243 634.390625 240.519531 634.390625 C 240.519531 634.390625 237.328125 634.390625 235.539062 632.671875 C 235.539062 632.671875 233.761719 630.949219 233.761719 627.808594 C 233.761719 627.808594 233.761719 624.46875 236.238281 622.769531 C 236.238281 622.769531 238.71875 621.070312 243.800781 620.910156 L 247.53125 620.800781 L 247.53125 619.640625 C 247.53125 619.640625 247.53125 617.570312 246.558594 616.550781 C 246.558594 616.550781 245.589844 615.519531 243.558594 615.519531 C 243.558594 615.519531 241.898438 615.519531 240.378906 616.011719 C 240.378906 616.011719 238.859375 616.5 237.449219 617.160156 L 235.960938 613.878906 C 235.960938 613.878906 237.71875 612.960938 239.808594 612.488281 C 239.808594 612.488281 241.898438 612.011719 243.761719 612.011719 C 243.761719 612.011719 247.878906 612.011719 249.980469 613.800781 C 249.980469 613.800781 252.078125 615.601562 252.078125 619.449219 L 252.078125 634 Z M 241.960938 630.871094 C 241.960938 630.871094 244.460938 630.871094 245.96875 629.480469 C 245.96875 629.480469 247.488281 628.078125 247.488281 625.558594 L 247.488281 623.691406 L 244.710938 623.800781 C 244.710938 623.800781 241.46875 623.921875 240 624.890625 C 240 624.890625 238.519531 625.859375 238.519531 627.851562 C 238.519531 627.851562 238.519531 629.289062 239.378906 630.078125 C 239.378906 630.078125 240.238281 630.871094 241.960938 630.871094 Z M 272.789062 627.851562 C 272.789062 627.851562 272.789062 631.011719 270.488281 632.699219 C 270.488281 632.699219 268.179688 634.390625 263.890625 634.390625 C 263.890625 634.390625 259.570312 634.390625 256.949219 633.078125 L 256.949219 629.121094 C 256.949219 629.121094 260.761719 630.871094 264.039062 630.871094 C 264.039062 630.871094 268.28125 630.871094 268.28125 628.320312 C 268.28125 628.320312 268.28125 627.5 267.808594 626.949219 C 267.808594 626.949219 267.339844 626.398438 266.269531 625.820312 C 266.269531 625.820312 265.199219 625.230469 263.28125 624.488281 C 263.28125 624.488281 259.550781 623.039062 258.230469 621.601562 C 258.230469 621.601562 256.910156 620.148438 256.910156 617.851562 C 256.910156 617.851562 256.910156 615.070312 259.148438 613.539062 C 259.148438 613.539062 261.390625 612.011719 265.230469 612.011719 C 265.230469 612.011719 269.039062 612.011719 272.441406 613.550781 L 270.960938 617.011719 C 270.960938 617.011719 267.460938 615.558594 265.078125 615.558594 C 265.078125 615.558594 261.449219 615.558594 261.449219 617.628906 C 261.449219 617.628906 261.449219 618.648438 262.390625 619.351562 C 262.390625 619.351562 263.339844 620.050781 266.519531 621.289062 C 266.519531 621.289062 269.199219 622.320312 270.410156 623.179688 C 270.410156 623.179688 271.621094 624.039062 272.210938 625.160156 C 272.210938 625.160156 272.789062 626.289062 272.789062 627.851562 Z M 281.710938 622.589844 L 284.308594 619.351562 L 290.839844 612.398438 L 296.128906 612.398438 L 287.441406 621.679688 L 296.679688 634 L 291.289062 634 L 284.351562 624.53125 L 281.828125 626.601562 L 281.828125 634 L 277.28125 634 L 277.28125 603.609375 L 281.828125 603.609375 L 281.828125 618.429688 L 281.601562 622.589844 Z M 308.328125 630.679688 C 308.328125 630.679688 310.011719 630.679688 311.691406 630.148438 L 311.691406 633.609375 C 311.691406 633.609375 310.929688 633.941406 309.71875 634.171875 C 309.71875 634.171875 308.519531 634.390625 307.230469 634.390625 C 307.230469 634.390625 300.710938 634.390625 300.710938 627.519531 L 300.710938 615.871094 L 297.761719 615.871094 L 297.761719 613.839844 L 300.929688 612.160156 L 302.488281 607.589844 L 305.320312 607.589844 L 305.320312 612.398438 L 311.46875 612.398438 L 311.46875 615.871094 L 305.320312 615.871094 L 305.320312 627.441406 C 305.320312 627.441406 305.320312 629.101562 306.148438 629.890625 C 306.148438 629.890625 306.980469 630.679688 308.328125 630.679688 Z M 308.328125 630.679688 "/>
<path style=" stroke:none;fill-rule:nonzero;fill:rgb(29.411316%,33.724976%,39.99939%);fill-opacity:1;" d="M 806.769531 586 L 806.769531 557.449219 L 811.441406 557.449219 L 811.441406 582 L 823.53125 582 L 823.53125 586 Z M 837.710938 586.390625 C 837.710938 586.390625 832.679688 586.390625 829.828125 583.449219 C 829.828125 583.449219 826.988281 580.511719 826.988281 575.359375 C 826.988281 575.359375 826.988281 570.058594 829.628906 567.039062 C 829.628906 567.039062 832.269531 564.011719 836.878906 564.011719 C 836.878906 564.011719 841.148438 564.011719 843.628906 566.609375 C 843.628906 566.609375 846.109375 569.199219 846.109375 573.75 L 846.109375 576.230469 L 831.71875 576.230469 C 831.71875 576.230469 831.820312 579.378906 833.421875 581.070312 C 833.421875 581.070312 835.019531 582.761719 837.929688 582.761719 C 837.929688 582.761719 839.839844 582.761719 841.488281 582.398438 C 841.488281 582.398438 843.140625 582.039062 845.039062 581.199219 L 845.039062 584.929688 C 845.039062 584.929688 843.359375 585.730469 841.640625 586.058594 C 841.640625 586.058594 839.921875 586.390625 837.710938 586.390625 Z M 836.878906 567.480469 C 836.878906 567.480469 834.691406 567.480469 833.371094 568.871094 C 833.371094 568.871094 832.050781 570.261719 831.800781 572.910156 L 841.601562 572.910156 C 841.601562 572.910156 841.558594 570.238281 840.308594 568.859375 C 840.308594 568.859375 839.058594 567.480469 836.878906 567.480469 Z M 856.199219 586 L 848 564.398438 L 852.839844 564.398438 L 857.238281 576.960938 C 857.238281 576.960938 858.371094 580.121094 858.609375 582.070312 L 858.761719 582.070312 C 858.761719 582.070312 858.941406 580.671875 860.128906 576.960938 L 864.519531 564.398438 L 869.410156 564.398438 L 861.160156 586 Z M 881.710938 586.390625 C 881.710938 586.390625 876.679688 586.390625 873.828125 583.449219 C 873.828125 583.449219 870.988281 580.511719 870.988281 575.359375 C 870.988281 575.359375 870.988281 570.058594 873.628906 567.039062 C 873.628906 567.039062 876.269531 564.011719 880.878906 564.011719 C 880.878906 564.011719 885.148438 564.011719 887.628906 566.609375 C 887.628906 566.609375 890.109375 569.199219 890.109375 573.75 L 890.109375 576.230469 L 875.71875 576.230469 C 875.71875 576.230469 875.820312 579.378906 877.421875 581.070312 C 877.421875 581.070312 879.019531 582.761719 881.929688 582.761719 C 881.929688 582.761719 883.839844 582.761719 885.488281 582.398438 C 885.488281 582.398438 887.140625 582.039062 889.039062 581.199219 L 889.039062 584.929688 C 889.039062 584.929688 887.359375 585.730469 885.640625 586.058594 C 885.640625 586.058594 883.921875 586.390625 881.710938 586.390625 Z M 880.878906 567.480469 C 880.878906 567.480469 878.691406 567.480469 877.371094 568.871094 C 877.371094 568.871094 876.050781 570.261719 875.800781 572.910156 L 885.601562 572.910156 C 885.601562 572.910156 885.558594 570.238281 884.308594 568.859375 C 884.308594 568.859375 883.058594 567.480469 880.878906 567.480469 Z M 877.949219 561.761719 L 877.949219 561.269531 C 877.949219 561.269531 879.058594 559.910156 880.238281 558.230469 C 880.238281 558.230469 881.421875 556.550781 882.109375 555.359375 L 887.441406 555.359375 L 887.441406 555.769531 C 887.441406 555.769531 886.421875 556.960938 884.398438 558.839844 C 884.398438 558.839844 882.378906 560.730469 880.988281 561.761719 Z M 906.238281 564.011719 C 906.238281 564.011719 907.628906 564.011719 908.519531 564.199219 L 908.070312 568.480469 C 908.070312 568.480469 907.101562 568.25 906.039062 568.25 C 906.039062 568.25 903.289062 568.25 901.578125 570.039062 C 901.578125 570.039062 899.871094 571.839844 899.871094 574.710938 L 899.871094 586 L 895.28125 586 L 895.28125 564.398438 L 898.878906 564.398438 L 899.480469 568.210938 L 899.710938 568.210938 C 899.710938 568.210938 900.789062 566.269531 902.519531 565.140625 C 902.519531 565.140625 904.25 564.011719 906.238281 564.011719 Z M 927.199219 586 L 919 564.398438 L 923.839844 564.398438 L 928.238281 576.960938 C 928.238281 576.960938 929.371094 580.121094 929.609375 582.070312 L 929.761719 582.070312 C 929.761719 582.070312 929.941406 580.671875 931.128906 576.960938 L 935.519531 564.398438 L 940.410156 564.398438 L 932.160156 586 Z M 952.710938 586.390625 C 952.710938 586.390625 947.679688 586.390625 944.828125 583.449219 C 944.828125 583.449219 941.988281 580.511719 941.988281 575.359375 C 941.988281 575.359375 941.988281 570.058594 944.628906 567.039062 C 944.628906 567.039062 947.269531 564.011719 951.878906 564.011719 C 951.878906 564.011719 956.148438 564.011719 958.628906 566.609375 C 958.628906 566.609375 961.109375 569.199219 961.109375 573.75 L 961.109375 576.230469 L 946.71875 576.230469 C 946.71875 576.230469 946.820312 579.378906 948.421875 581.070312 C 948.421875 581.070312 950.019531 582.761719 952.929688 582.761719 C 952.929688 582.761719 954.839844 582.761719 956.488281 582.398438 C 956.488281 582.398438 958.140625 582.039062 960.039062 581.199219 L 960.039062 584.929688 C 960.039062 584.929688 958.359375 585.730469 956.640625 586.058594 C 956.640625 586.058594 954.921875 586.390625 952.710938 586.390625 Z M 951.878906 567.480469 C 951.878906 567.480469 949.691406 567.480469 948.371094 568.871094 C 948.371094 568.871094 947.050781 570.261719 946.800781 572.910156 L 956.601562 572.910156 C 956.601562 572.910156 956.558594 570.238281 955.308594 568.859375 C 955.308594 568.859375 954.058594 567.480469 951.878906 567.480469 Z M 977.238281 564.011719 C 977.238281 564.011719 978.628906 564.011719 979.519531 564.199219 L 979.070312 568.480469 C 979.070312 568.480469 978.101562 568.25 977.039062 568.25 C 977.039062 568.25 974.289062 568.25 972.578125 570.039062 C 972.578125 570.039062 970.871094 571.839844 970.871094 574.710938 L 970.871094 586 L 966.28125 586 L 966.28125 564.398438 L 969.878906 564.398438 L 970.480469 568.210938 L 970.710938 568.210938 C 970.710938 568.210938 971.789062 566.269531 973.519531 565.140625 C 973.519531 565.140625 975.25 564.011719 977.238281 564.011719 Z M 990.570312 586.390625 C 990.570312 586.390625 986.519531 586.390625 984.261719 583.460938 C 984.261719 583.460938 981.988281 580.53125 981.988281 575.238281 C 981.988281 575.238281 981.988281 569.929688 984.289062 566.96875 C 984.289062 566.96875 986.578125 564.011719 990.640625 564.011719 C 990.640625 564.011719 994.898438 564.011719 997.128906 567.148438 L 997.359375 567.148438 C 997.359375 567.148438 997.03125 564.828125 997.03125 563.480469 L 997.03125 555.609375 L 1001.640625 555.609375 L 1001.640625 586 L 998.050781 586 L 997.25 583.171875 L 997.03125 583.171875 C 997.03125 583.171875 994.820312 586.390625 990.570312 586.390625 Z M 991.800781 582.679688 C 991.800781 582.679688 994.628906 582.679688 995.921875 581.089844 C 995.921875 581.089844 997.210938 579.5 997.25 575.921875 L 997.25 575.28125 C 997.25 575.28125 997.25 571.199219 995.921875 569.480469 C 995.921875 569.480469 994.589844 567.761719 991.761719 567.761719 C 991.761719 567.761719 989.339844 567.761719 988.03125 569.71875 C 988.03125 569.71875 986.71875 571.679688 986.71875 575.320312 C 986.71875 575.320312 986.71875 578.910156 987.988281 580.789062 C 987.988281 580.789062 989.261719 582.679688 991.800781 582.679688 Z M 1012.871094 586 L 1008.28125 586 L 1008.28125 564.398438 L 1012.871094 564.398438 Z M 1008.011719 558.679688 C 1008.011719 558.679688 1008.011719 557.449219 1008.679688 556.78125 C 1008.679688 556.78125 1009.359375 556.121094 1010.609375 556.121094 C 1010.609375 556.121094 1011.820312 556.121094 1012.488281 556.78125 C 1012.488281 556.78125 1013.160156 557.449219 1013.160156 558.679688 C 1013.160156 558.679688 1013.160156 559.851562 1012.488281 560.519531 C 1012.488281 560.519531 1011.820312 561.199219 1010.609375 561.199219 C 1010.609375 561.199219 1009.359375 561.199219 1008.679688 560.519531 C 1008.679688 560.519531 1008.011719 559.851562 1008.011719 558.679688 Z M 1008.011719 558.679688 "/>
<path style=" stroke:none;fill-rule:nonzero;fill:rgb(29.411316%,33.724976%,39.99939%);fill-opacity:1;" d="M 809.121094 615.871094 L 803.851562 615.871094 L 803.851562 634 L 799.238281 634 L 799.238281 615.871094 L 795.679688 615.871094 L 795.679688 613.730469 L 799.238281 612.320312 L 799.238281 610.910156 C 799.238281 610.910156 799.238281 607.089844 801.039062 605.238281 C 801.039062 605.238281 802.828125 603.390625 806.519531 603.390625 C 806.519531 603.390625 808.949219 603.390625 811.289062 604.199219 L 810.078125 607.671875 C 810.078125 607.671875 808.378906 607.121094 806.839844 607.121094 C 806.839844 607.121094 805.269531 607.121094 804.558594 608.089844 C 804.558594 608.089844 803.851562 609.058594 803.851562 610.988281 L 803.851562 612.398438 L 809.121094 612.398438 Z M 832.441406 623.160156 C 832.441406 623.160156 832.441406 628.449219 829.730469 631.421875 C 829.730469 631.421875 827.011719 634.390625 822.171875 634.390625 C 822.171875 634.390625 819.140625 634.390625 816.820312 633.019531 C 816.820312 633.019531 814.488281 631.660156 813.238281 629.101562 C 813.238281 629.101562 811.988281 626.539062 811.988281 623.160156 C 811.988281 623.160156 811.988281 617.910156 814.691406 614.960938 C 814.691406 614.960938 817.378906 612.011719 822.289062 612.011719 C 822.289062 612.011719 826.96875 612.011719 829.710938 615.03125 C 829.710938 615.03125 832.441406 618.039062 832.441406 623.160156 Z M 816.71875 623.160156 C 816.71875 623.160156 816.71875 630.640625 822.25 630.640625 C 822.25 630.640625 827.710938 630.640625 827.710938 623.160156 C 827.710938 623.160156 827.710938 615.761719 822.210938 615.761719 C 822.210938 615.761719 819.320312 615.761719 818.019531 617.671875 C 818.019531 617.671875 816.71875 619.589844 816.71875 623.160156 Z M 848.238281 612.011719 C 848.238281 612.011719 849.628906 612.011719 850.519531 612.199219 L 850.070312 616.480469 C 850.070312 616.480469 849.101562 616.25 848.039062 616.25 C 848.039062 616.25 845.289062 616.25 843.578125 618.039062 C 843.578125 618.039062 841.871094 619.839844 841.871094 622.710938 L 841.871094 634 L 837.28125 634 L 837.28125 612.398438 L 840.878906 612.398438 L 841.480469 616.210938 L 841.710938 616.210938 C 841.710938 616.210938 842.789062 614.269531 844.519531 613.140625 C 844.519531 613.140625 846.25 612.011719 848.238281 612.011719 Z M 862.328125 630.679688 C 862.328125 630.679688 864.011719 630.679688 865.691406 630.148438 L 865.691406 633.609375 C 865.691406 633.609375 864.929688 633.941406 863.71875 634.171875 C 863.71875 634.171875 862.519531 634.390625 861.230469 634.390625 C 861.230469 634.390625 854.710938 634.390625 854.710938 627.519531 L 854.710938 615.871094 L 851.761719 615.871094 L 851.761719 613.839844 L 854.929688 612.160156 L 856.488281 607.589844 L 859.320312 607.589844 L 859.320312 612.398438 L 865.46875 612.398438 L 865.46875 615.871094 L 859.320312 615.871094 L 859.320312 627.441406 C 859.320312 627.441406 859.320312 629.101562 860.148438 629.890625 C 860.148438 629.890625 860.980469 630.679688 862.328125 630.679688 Z M 874.871094 634 L 870.28125 634 L 870.28125 603.609375 L 874.871094 603.609375 Z M 900.441406 623.160156 C 900.441406 623.160156 900.441406 628.449219 897.730469 631.421875 C 897.730469 631.421875 895.011719 634.390625 890.171875 634.390625 C 890.171875 634.390625 887.359375 634.390625 885.289062 633.28125 L 883.800781 635.410156 L 881.160156 633.648438 L 882.769531 631.359375 C 882.769531 631.359375 879.988281 628.339844 879.988281 623.160156 C 879.988281 623.160156 879.988281 617.910156 882.691406 614.960938 C 882.691406 614.960938 885.378906 612.011719 890.289062 612.011719 C 890.289062 612.011719 893.101562 612.011719 895.320312 613.238281 L 896.671875 611.289062 L 899.328125 613.078125 L 897.800781 615.191406 C 897.800781 615.191406 900.441406 618.160156 900.441406 623.160156 Z M 884.71875 623.160156 C 884.71875 623.160156 884.71875 625.800781 885.441406 627.441406 L 893.078125 616.519531 C 893.078125 616.519531 891.910156 615.761719 890.210938 615.761719 C 890.210938 615.761719 887.320312 615.761719 886.019531 617.671875 C 886.019531 617.671875 884.71875 619.589844 884.71875 623.160156 Z M 895.710938 623.160156 C 895.710938 623.160156 895.710938 620.800781 895.070312 619.199219 L 887.511719 630 C 887.511719 630 888.570312 630.640625 890.25 630.640625 C 890.25 630.640625 895.710938 630.640625 895.710938 623.160156 Z M 916.238281 634.390625 C 916.238281 634.390625 912.140625 634.390625 909.871094 631.441406 L 909.601562 631.441406 C 909.601562 631.441406 909.871094 634.179688 909.871094 634.761719 L 909.871094 643.609375 L 905.28125 643.609375 L 905.28125 612.398438 L 908.988281 612.398438 C 908.988281 612.398438 909.148438 613 909.640625 615.289062 L 909.871094 615.289062 C 909.871094 615.289062 912.019531 612.011719 916.320312 612.011719 C 916.320312 612.011719 920.359375 612.011719 922.621094 614.941406 C 922.621094 614.941406 924.871094 617.871094 924.871094 623.160156 C 924.871094 623.160156 924.871094 628.449219 922.578125 631.421875 C 922.578125 631.421875 920.28125 634.390625 916.238281 634.390625 Z M 915.128906 615.761719 C 915.128906 615.761719 912.390625 615.761719 911.128906 617.359375 C 911.128906 617.359375 909.871094 618.960938 909.871094 622.480469 L 909.871094 623.160156 C 909.871094 623.160156 909.871094 627.109375 911.121094 628.871094 C 911.121094 628.871094 912.371094 630.640625 915.199219 630.640625 C 915.199219 630.640625 917.589844 630.640625 918.878906 628.691406 C 918.878906 628.691406 920.160156 626.730469 920.160156 623.121094 C 920.160156 623.121094 920.160156 619.488281 918.878906 617.621094 C 918.878906 617.621094 917.609375 615.761719 915.128906 615.761719 Z M 943.800781 634 L 942.878906 630.988281 L 942.71875 630.988281 C 942.71875 630.988281 941.160156 632.960938 939.578125 633.679688 C 939.578125 633.679688 938 634.390625 935.519531 634.390625 C 935.519531 634.390625 932.328125 634.390625 930.539062 632.671875 C 930.539062 632.671875 928.761719 630.949219 928.761719 627.808594 C 928.761719 627.808594 928.761719 624.46875 931.238281 622.769531 C 931.238281 622.769531 933.71875 621.070312 938.800781 620.910156 L 942.53125 620.800781 L 942.53125 619.640625 C 942.53125 619.640625 942.53125 617.570312 941.558594 616.550781 C 941.558594 616.550781 940.589844 615.519531 938.558594 615.519531 C 938.558594 615.519531 936.898438 615.519531 935.378906 616.011719 C 935.378906 616.011719 933.859375 616.5 932.449219 617.160156 L 930.960938 613.878906 C 930.960938 613.878906 932.71875 612.960938 934.808594 612.488281 C 934.808594 612.488281 936.898438 612.011719 938.761719 612.011719 C 938.761719 612.011719 942.878906 612.011719 944.980469 613.800781 C 944.980469 613.800781 947.078125 615.601562 947.078125 619.449219 L 947.078125 634 Z M 936.960938 630.871094 C 936.960938 630.871094 939.460938 630.871094 940.96875 629.480469 C 940.96875 629.480469 942.488281 628.078125 942.488281 625.558594 L 942.488281 623.691406 L 939.710938 623.800781 C 939.710938 623.800781 936.46875 623.921875 935 624.890625 C 935 624.890625 933.519531 625.859375 933.519531 627.851562 C 933.519531 627.851562 933.519531 629.289062 934.378906 630.078125 C 934.378906 630.078125 935.238281 630.871094 936.960938 630.871094 Z M 972.289062 634 L 967.679688 634 L 967.679688 620.71875 C 967.679688 620.71875 967.679688 618.21875 966.671875 616.988281 C 966.671875 616.988281 965.660156 615.761719 963.480469 615.761719 C 963.480469 615.761719 960.570312 615.761719 959.21875 617.480469 C 959.21875 617.480469 957.871094 619.199219 957.871094 623.238281 L 957.871094 634 L 953.28125 634 L 953.28125 612.398438 L 956.878906 612.398438 L 957.519531 615.230469 L 957.75 615.230469 C 957.75 615.230469 958.730469 613.691406 960.53125 612.851562 C 960.53125 612.851562 962.320312 612.011719 964.511719 612.011719 C 964.511719 612.011719 972.289062 612.011719 972.289062 619.921875 Z M 985.570312 634.390625 C 985.570312 634.390625 981.519531 634.390625 979.261719 631.460938 C 979.261719 631.460938 976.988281 628.53125 976.988281 623.238281 C 976.988281 623.238281 976.988281 617.929688 979.289062 614.96875 C 979.289062 614.96875 981.578125 612.011719 985.640625 612.011719 C 985.640625 612.011719 989.898438 612.011719 992.128906 615.148438 L 992.359375 615.148438 C 992.359375 615.148438 992.03125 612.828125 992.03125 611.480469 L 992.03125 603.609375 L 996.640625 603.609375 L 996.640625 634 L 993.050781 634 L 992.25 631.171875 L 992.03125 631.171875 C 992.03125 631.171875 989.820312 634.390625 985.570312 634.390625 Z M 986.800781 630.679688 C 986.800781 630.679688 989.628906 630.679688 990.921875 629.089844 C 990.921875 629.089844 992.210938 627.5 992.25 623.921875 L 992.25 623.28125 C 992.25 623.28125 992.25 619.199219 990.921875 617.480469 C 990.921875 617.480469 989.589844 615.761719 986.761719 615.761719 C 986.761719 615.761719 984.339844 615.761719 983.03125 617.71875 C 983.03125 617.71875 981.71875 619.679688 981.71875 623.320312 C 981.71875 623.320312 981.71875 626.910156 982.988281 628.789062 C 982.988281 628.789062 984.261719 630.679688 986.800781 630.679688 Z M 1012.710938 634.390625 C 1012.710938 634.390625 1007.679688 634.390625 1004.828125 631.449219 C 1004.828125 631.449219 1001.988281 628.511719 1001.988281 623.359375 C 1001.988281 623.359375 1001.988281 618.058594 1004.628906 615.039062 C 1004.628906 615.039062 1007.269531 612.011719 1011.878906 612.011719 C 1011.878906 612.011719 1016.148438 612.011719 1018.628906 614.609375 C 1018.628906 614.609375 1021.109375 617.199219 1021.109375 621.75 L 1021.109375 624.230469 L 1006.71875 624.230469 C 1006.71875 624.230469 1006.820312 627.378906 1008.421875 629.070312 C 1008.421875 629.070312 1010.019531 630.761719 1012.929688 630.761719 C 1012.929688 630.761719 1014.839844 630.761719 1016.488281 630.398438 C 1016.488281 630.398438 1018.140625 630.039062 1020.039062 629.199219 L 1020.039062 632.929688 C 1020.039062 632.929688 1018.359375 633.730469 1016.640625 634.058594 C 1016.640625 634.058594 1014.921875 634.390625 1012.710938 634.390625 Z M 1011.878906 615.480469 C 1011.878906 615.480469 1009.691406 615.480469 1008.371094 616.871094 C 1008.371094 616.871094 1007.050781 618.261719 1006.800781 620.910156 L 1016.601562 620.910156 C 1016.601562 620.910156 1016.558594 618.238281 1015.308594 616.859375 C 1015.308594 616.859375 1014.058594 615.480469 1011.878906 615.480469 Z M 1011.878906 615.480469 "/>
</g>
</svg>
