<?xml version="1.0" encoding="utf-8"?>
<!-- Generator: Adobe Illustrator 15.0.2, SVG Export Plug-In . SVG Version: 6.00 Build 0)  -->
<!DOCTYPE svg PUBLIC "-//W3C//DTD SVG 1.1//EN" "http://www.w3.org/Graphics/SVG/1.1/DTD/svg11.dtd">
<svg version="1.1" id="Layer_1" xmlns="http://www.w3.org/2000/svg" xmlns:xlink="http://www.w3.org/1999/xlink" x="0px" y="0px"
	 width="1152px" height="1152.001px" viewBox="0 0 1152 1152.001" enable-background="new 0 0 1152 1152.001" xml:space="preserve">
<circle fill="#4B5666" cx="576" cy="576" r="576"/>
<g>
	<path fill="#FBD35C" d="M188.2964,188.29c214.2964-214.2959,561.1108-214.293,775.4106,0.0078L576.0049,575.999L188.2964,188.29z"
		/>
</g>
<g>
	<path fill="#A4D970" d="M963.71,188.293c214.2979,214.2979,214.293,561.1104-0.0068,775.4092L576.002,576.001L963.71,188.293z"/>
</g>
<g>
	<path fill="#9EBEED" d="M963.7031,963.709c-214.2959,214.2988-561.1104,214.293-775.4102-0.0068L575.9951,576.001L963.7031,963.709
		z"/>
</g>
<g>
	<path fill="#FA7977" d="M188.2896,963.707c-214.2959-214.2979-214.2925-561.1104,0.0068-775.4092L575.999,575.999L188.2896,963.707
		z"/>
</g>
<circle fill="#4B5666" cx="576" cy="576" r="180"/>
<g>
	<path fill="#FFFFFF" d="M466.7227,560.9141l-15.0771-39.3945h-0.2432c0.2842,3.1211,0.4258,6.8301,0.4258,11.126v28.2686h-4.7725
		v-44.4404h7.7822l14.0732,36.6592h0.2432l14.1953-36.6592h7.7207v44.4404h-5.167v-28.6338c0-3.2832,0.1416-6.8496,0.4258-10.6992
		h-0.2432l-15.1992,39.333H466.7227z"/>
	<path fill="#FFFFFF" d="M541.833,538.6328c0,7.1133-1.7988,12.7061-5.3955,16.7793c-3.5977,4.0732-8.5977,6.1104-15.001,6.1104
		c-6.5459,0-11.5967-2.001-15.1533-6.0039c-3.5557-4.002-5.334-9.6514-5.334-16.9463c0-7.2344,1.7832-12.8428,5.3496-16.8242
		c3.5664-3.9824,8.6328-5.9736,15.1982-5.9736c6.3838,0,11.3682,2.0273,14.9551,6.0801S541.833,531.5,541.833,538.6328z
		 M506.4209,538.6328c0,6.0186,1.2812,10.584,3.8447,13.6943s6.2871,4.666,11.1709,4.666c4.9238,0,8.6426-1.5508,11.1553-4.6514
		c2.5127-3.0996,3.7695-7.6699,3.7695-13.709c0-5.9775-1.252-10.5117-3.7539-13.6025c-2.5029-3.0898-6.2061-4.6348-11.1104-4.6348
		c-4.9238,0-8.668,1.5547-11.2314,4.666C507.7021,528.1719,506.4209,532.6963,506.4209,538.6328z"/>
	<path fill="#FFFFFF" d="M587.2158,538.2686c0,7.3359-1.9912,12.9443-5.9736,16.8242c-3.9814,3.8809-9.7109,5.8213-17.1885,5.8213
		h-12.3115v-44.4404h13.6182c6.9102,0,12.2803,1.915,16.1104,5.7451S587.2158,531.3984,587.2158,538.2686z M581.7441,538.4512
		c0-5.7959-1.4541-10.1631-4.3623-13.1016c-2.9082-2.9375-7.2295-4.4072-12.9639-4.4072h-7.5078v35.5029h6.292
		c6.1602,0,10.791-1.5146,13.8916-4.5439S581.7441,544.3887,581.7441,538.4512z"/>
	<path fill="#FFFFFF" d="M621.8975,560.9141H597.124v-44.4404h24.7734v4.5898H602.292v14.3174h18.4199v4.5596H602.292v16.3535
		h19.6055V560.9141z"/>
	<path fill="#FFFFFF" d="M636.9141,542.4326v18.4814h-5.168v-44.4404h12.1895c5.4512,0,9.4785,1.0439,12.083,3.1309
		c2.6035,2.0879,3.9053,5.2285,3.9053,9.4238c0,5.877-2.9785,9.8477-8.9365,11.915l12.0674,19.9707h-6.1094l-10.7607-18.4814
		H636.9141z M636.9141,537.9951h7.082c3.6475,0,6.3232-0.7246,8.0254-2.1738c1.7021-1.4482,2.5527-3.6221,2.5527-6.5195
		c0-2.9385-0.8662-5.0557-2.5986-6.3535c-1.7324-1.2959-4.5137-1.9453-8.3438-1.9453h-6.7178V537.9951z"/>
	<path fill="#FFFFFF" d="M704.9424,560.9141h-5.8975l-24.2871-37.2969h-0.2432c0.3242,4.377,0.4863,8.3896,0.4863,12.0371v25.2598
		h-4.7725v-44.4404h5.8369l24.2256,37.1455h0.2432c-0.041-0.5479-0.1318-2.3057-0.2734-5.2744
		c-0.1416-2.9678-0.1924-5.0908-0.1514-6.3682v-25.5029h4.833V560.9141z"/>
	<path fill="#FFFFFF" d="M525.54,635.6172l-5.5322-14.1348h-17.8125l-5.4707,14.1348h-5.2285l17.5693-44.6221h4.3467
		l17.4785,44.6221H525.54z M518.3975,616.832l-5.168-13.7695c-0.668-1.7432-1.3574-3.8809-2.0664-6.4141
		c-0.4463,1.9453-1.085,4.084-1.915,6.4141l-5.2285,13.7695H518.3975z"/>
	<path fill="#FFFFFF" d="M556.5459,612.333h15.1064v21.6123c-2.3506,0.75-4.7412,1.3174-7.1729,1.7021
		c-2.4326,0.3848-5.249,0.5781-8.4512,0.5781c-6.7275,0-11.9658-2.001-15.7148-6.0039c-3.749-4.002-5.623-9.6104-5.623-16.8242
		c0-4.6201,0.9268-8.668,2.7812-12.1436s4.5234-6.1299,8.0098-7.9639c3.4844-1.834,7.5684-2.751,12.249-2.751
		c4.7422,0,9.1602,0.8711,13.2539,2.6143l-2.0068,4.5596c-4.0117-1.7031-7.8721-2.5537-11.5811-2.5537
		c-5.4102,0-9.6357,1.6113-12.6758,4.833c-3.0391,3.2217-4.5586,7.6904-4.5586,13.4053c0,5.998,1.4629,10.5479,4.3916,13.6475
		c2.9287,3.1006,7.2295,4.6514,12.9033,4.6514c3.0801,0,6.0898-0.3545,9.0283-1.0645v-13.6787h-9.9395V612.333z"/>
	<path fill="#FFFFFF" d="M582.3213,635.6172v-44.4404h5.168v44.4404H582.3213z"/>
	<path fill="#FFFFFF" d="M599.6777,635.6172v-44.4404h5.168v39.7598h19.6055v4.6807H599.6777z"/>
	<path fill="#FFFFFF" d="M656.7627,635.6172h-24.7734v-44.4404h24.7734v4.5898h-19.6055v14.3174h18.4199v4.5596h-18.4199v16.3535
		h19.6055V635.6172z"/>
</g>
<g>
	<path fill="#4B5666" d="M552.0537,226.4424h-4.6875v-12.8711h-13.1641v12.8711h-4.668v-28.5547h4.668v11.6797h13.1641v-11.6797
		h4.6875V226.4424z"/>
	<path fill="#4B5666" d="M556.8779,236.0518c-1.3799,0-2.5264-0.1631-3.4375-0.4883v-3.6328
		c0.8857,0.2344,1.79,0.3516,2.7148,0.3516c1.9531,0,2.9297-1.1064,2.9297-3.3203v-24.1211h4.5898v24.4336
		c0,2.2266-0.583,3.9131-1.748,5.0586S559.0781,236.0518,556.8779,236.0518z M558.8115,199.1182
		c0-0.8203,0.2246-1.4521,0.6738-1.8945s1.0908-0.6641,1.9238-0.6641c0.8076,0,1.4355,0.2217,1.8848,0.6641
		s0.6738,1.0742,0.6738,1.8945c0,0.7812-0.2246,1.3965-0.6738,1.8457s-1.0771,0.6738-1.8848,0.6738
		c-0.833,0-1.4746-0.2246-1.9238-0.6738S558.8115,199.8994,558.8115,199.1182z"/>
	<path fill="#4B5666" d="M583.7529,226.4424l-0.918-3.0078h-0.1562c-1.042,1.3154-2.0898,2.21-3.1445,2.6855
		s-2.4092,0.7129-4.0625,0.7129c-2.1221,0-3.7793-0.5732-4.9707-1.7188s-1.7871-2.7666-1.7871-4.8633
		c0-2.2266,0.8271-3.9062,2.4805-5.0391s4.1729-1.751,7.5586-1.8555l3.7305-0.1172v-1.1523c0-1.3799-0.3223-2.4121-0.9668-3.0957
		s-1.6436-1.0254-2.998-1.0254c-1.1064,0-2.168,0.1631-3.1836,0.4883s-1.9922,0.71-2.9297,1.1523l-1.4844-3.2812
		c1.1719-0.6123,2.4541-1.0771,3.8477-1.3965s2.708-0.4785,3.9453-0.4785c2.7471,0,4.8213,0.5986,6.2207,1.7969
		s2.0996,3.0791,2.0996,5.6445v14.5508H583.7529z M572.4639,199.1182c0-0.8076,0.2178-1.3896,0.6543-1.748
		s0.9668-0.5371,1.5918-0.5371c0.6904,0,1.2402,0.2021,1.6504,0.6055s0.6152,0.9639,0.6152,1.6797
		c0,0.6904-0.208,1.2432-0.625,1.6602s-0.9639,0.625-1.6406,0.625c-0.625,0-1.1553-0.1885-1.5918-0.5664
		S572.4639,199.8867,572.4639,199.1182z M576.917,223.3174c1.667,0,3.0049-0.4658,4.0137-1.3965s1.5137-2.2363,1.5137-3.916v-1.875
		l-2.7734,0.1172c-2.1611,0.0781-3.7334,0.4395-4.7168,1.084s-1.4746,1.6309-1.4746,2.959c0,0.9639,0.2861,1.709,0.8594,2.2363
		S575.7715,223.3174,576.917,223.3174z M580.1396,199.1182c0-0.8076,0.2178-1.3896,0.6543-1.748s0.9668-0.5371,1.5918-0.5371
		c0.6904,0,1.2432,0.2021,1.6602,0.6055s0.625,0.9639,0.625,1.6797c0,0.7031-0.2148,1.2598-0.6445,1.6699
		s-0.9766,0.6152-1.6406,0.6152c-0.625,0-1.1553-0.1885-1.5918-0.5664S580.1396,199.8867,580.1396,199.1182z"/>
	<path fill="#4B5666" d="M598.0303,226.4424h-4.5898v-30.3906h4.5898V226.4424z"/>
	<path fill="#4B5666" d="M615.5498,226.833c-2.7344,0-4.8564-0.9834-6.3672-2.9492h-0.2734
		c0.1826,1.8232,0.2734,2.9297,0.2734,3.3203v8.8477h-4.5898v-31.2109h3.7109c0.1045,0.4033,0.3193,1.3672,0.6445,2.8906h0.2344
		c1.4326-2.1875,3.5811-3.2812,6.4453-3.2812c2.6953,0,4.7949,0.9766,6.2988,2.9297s2.2559,4.6943,2.2559,8.2227
		s-0.7646,6.2822-2.2949,8.2617S618.2451,226.833,615.5498,226.833z M614.4365,208.2002c-1.8232,0-3.1543,0.5342-3.9941,1.6016
		s-1.2598,2.7734-1.2598,5.1172v0.6836c0,2.6299,0.417,4.5342,1.25,5.7129s2.1943,1.7676,4.082,1.7676
		c1.5889,0,2.8125-0.6514,3.6719-1.9531s1.2891-3.1572,1.2891-5.5664c0-2.4219-0.4268-4.2549-1.2793-5.498
		S616.0898,208.2002,614.4365,208.2002z"/>
	<path fill="#4B5666" d="M493.7822,274.4424h-4.6094v-13.3203c0-1.6533-0.3125-2.8877-0.9375-3.7012s-1.6016-1.2207-2.9297-1.2207
		c-1.7705,0-3.0693,0.5762-3.8965,1.7285s-1.2402,3.0693-1.2402,5.752v10.7617h-4.5898v-21.6016h3.5938l0.6445,2.832h0.2344
		c0.5986-1.0283,1.4678-1.8232,2.6074-2.3828s2.3926-0.8398,3.7598-0.8398c3.3203,0,5.5205,1.1328,6.6016,3.3984h0.3125
		c0.6377-1.0674,1.5361-1.9014,2.6953-2.5s2.4873-0.8984,3.9844-0.8984c2.5781,0,4.4561,0.6514,5.6348,1.9531
		s1.7676,3.2881,1.7676,5.957v14.082h-4.5898v-13.3203c0-1.6533-0.3154-2.8877-0.9473-3.7012s-1.6113-1.2207-2.9395-1.2207
		c-1.7842,0-3.0889,0.5566-3.916,1.6699s-1.2402,2.8223-1.2402,5.127V274.4424z"/>
	<path fill="#4B5666" d="M527.3369,274.4424l-0.918-3.0078h-0.1562c-1.042,1.3154-2.0898,2.21-3.1445,2.6855
		s-2.4092,0.7129-4.0625,0.7129c-2.1221,0-3.7793-0.5732-4.9707-1.7188s-1.7871-2.7666-1.7871-4.8633
		c0-2.2266,0.8271-3.9062,2.4805-5.0391s4.1729-1.751,7.5586-1.8555l3.7305-0.1172v-1.1523c0-1.3799-0.3223-2.4121-0.9668-3.0957
		s-1.6436-1.0254-2.998-1.0254c-1.1064,0-2.168,0.1631-3.1836,0.4883s-1.9922,0.71-2.9297,1.1523l-1.4844-3.2812
		c1.1719-0.6123,2.4541-1.0771,3.8477-1.3965s2.708-0.4785,3.9453-0.4785c2.7471,0,4.8213,0.5986,6.2207,1.7969
		s2.0996,3.0791,2.0996,5.6445v14.5508H527.3369z M516.0479,247.1182c0-0.8076,0.2178-1.3896,0.6543-1.748
		s0.9668-0.5371,1.5918-0.5371c0.6904,0,1.2402,0.2021,1.6504,0.6055s0.6152,0.9639,0.6152,1.6797
		c0,0.6904-0.208,1.2432-0.625,1.6602s-0.9639,0.625-1.6406,0.625c-0.625,0-1.1553-0.1885-1.5918-0.5664
		S516.0479,247.8867,516.0479,247.1182z M520.501,271.3174c1.667,0,3.0049-0.4658,4.0137-1.3965s1.5137-2.2363,1.5137-3.916v-1.875
		l-2.7734,0.1172c-2.1611,0.0781-3.7334,0.4395-4.7168,1.084s-1.4746,1.6309-1.4746,2.959c0,0.9639,0.2861,1.709,0.8594,2.2363
		S519.3555,271.3174,520.501,271.3174z M523.7236,247.1182c0-0.8076,0.2178-1.3896,0.6543-1.748s0.9668-0.5371,1.5918-0.5371
		c0.6904,0,1.2432,0.2021,1.6602,0.6055s0.625,0.9639,0.625,1.6797c0,0.7031-0.2148,1.2598-0.6445,1.6699
		s-0.9766,0.6152-1.6406,0.6152c-0.625,0-1.1553-0.1885-1.5918-0.5664S523.7236,247.8867,523.7236,247.1182z"/>
	<path fill="#4B5666" d="M556.0283,274.4424h-4.6094v-13.2812c0-1.667-0.335-2.9102-1.0059-3.7305s-1.7354-1.2305-3.1934-1.2305
		c-1.9404,0-3.3594,0.5732-4.2578,1.7188s-1.3477,3.0664-1.3477,5.7617v10.7617h-4.5898v-21.6016h3.5938l0.6445,2.832h0.2344
		c0.6514-1.0283,1.5752-1.8232,2.7734-2.3828s2.5264-0.8398,3.9844-0.8398c5.1826,0,7.7734,2.6367,7.7734,7.9102V274.4424z"/>
	<path fill="#4B5666" d="M581.4189,274.4424h-4.6094v-13.2812c0-1.667-0.335-2.9102-1.0059-3.7305s-1.7354-1.2305-3.1934-1.2305
		c-1.9404,0-3.3594,0.5732-4.2578,1.7188s-1.3477,3.0664-1.3477,5.7617v10.7617h-4.5898v-21.6016h3.5938l0.6445,2.832h0.2344
		c0.6514-1.0283,1.5752-1.8232,2.7734-2.3828s2.5264-0.8398,3.9844-0.8398c5.1826,0,7.7734,2.6367,7.7734,7.9102V274.4424z"/>
	<path fill="#4B5666" d="M587.5322,247.1182c0-0.8203,0.2246-1.4521,0.6738-1.8945s1.0908-0.6641,1.9238-0.6641
		c0.8076,0,1.4355,0.2217,1.8848,0.6641s0.6738,1.0742,0.6738,1.8945c0,0.7812-0.2246,1.3965-0.6738,1.8457
		s-1.0771,0.6738-1.8848,0.6738c-0.833,0-1.4746-0.2246-1.9238-0.6738S587.5322,247.8994,587.5322,247.1182z M592.3955,274.4424
		h-4.5898v-21.6016h4.5898V274.4424z"/>
	<path fill="#4B5666" d="M613.4697,268.29c0,2.1094-0.7686,3.7275-2.3047,4.8535s-3.7373,1.6895-6.6016,1.6895
		c-2.8779,0-5.1885-0.4365-6.9336-1.3086v-3.9648c2.5391,1.1719,4.9023,1.7578,7.0898,1.7578c2.8252,0,4.2383-0.8525,4.2383-2.5586
		c0-0.5469-0.1562-1.0029-0.4688-1.3672s-0.8271-0.7422-1.543-1.1328s-1.7119-0.833-2.9883-1.3281
		c-2.4873-0.9639-4.1699-1.9268-5.0488-2.8906s-1.3184-2.2139-1.3184-3.75c0-1.8486,0.7451-3.2842,2.2363-4.3066
		s3.5186-1.5332,6.084-1.5332c2.5391,0,4.9414,0.5146,7.207,1.543l-1.4844,3.457c-2.3311-0.9639-4.29-1.4453-5.8789-1.4453
		c-2.4219,0-3.6328,0.6904-3.6328,2.0703c0,0.6768,0.3154,1.25,0.9473,1.7188s2.0088,1.1133,4.1309,1.9336
		c1.7842,0.6904,3.0791,1.3213,3.8867,1.8945s1.4062,1.2334,1.7969,1.9824S613.4697,267.248,613.4697,268.29z"/>
	<path fill="#4B5666" d="M622.8643,263.0361l2.5977-3.2422l6.5234-6.9531h5.293l-8.6914,9.2773l9.2383,12.3242h-5.3906
		l-6.9336-9.4727l-2.5195,2.0703v7.4023h-4.5508v-30.3906h4.5508v14.8242l-0.2344,4.1602H622.8643z"/>
	<path fill="#4B5666" d="M660.4619,263.6025c0,3.5283-0.9053,6.2822-2.7148,8.2617s-4.3291,2.9688-7.5586,2.9688
		c-2.0186,0-3.8018-0.4561-5.3516-1.3672s-2.7412-2.2197-3.5742-3.9258s-1.25-3.6846-1.25-5.9375
		c0-3.5029,0.8984-6.2373,2.6953-8.2031s4.3291-2.9492,7.5977-2.9492c3.125,0,5.5986,1.0059,7.4219,3.0176
		S660.4619,260.1914,660.4619,263.6025z M644.7393,263.6025c0,4.9873,1.8428,7.4805,5.5273,7.4805
		c3.6455,0,5.4688-2.4932,5.4688-7.4805c0-4.9346-1.8359-7.4023-5.5078-7.4023c-1.9268,0-3.3232,0.6377-4.1895,1.9141
		S644.7393,261.2197,644.7393,263.6025z"/>
	<path fill="#4B5666" d="M676.6924,252.4502c0.9248,0,1.6865,0.0654,2.2852,0.1953l-0.4492,4.2773
		c-0.6514-0.1562-1.3281-0.2344-2.0312-0.2344c-1.8359,0-3.3232,0.5986-4.4629,1.7969s-1.709,2.7539-1.709,4.668v11.2891h-4.5898
		v-21.6016h3.5938l0.6055,3.8086h0.2344c0.7158-1.2891,1.6504-2.3115,2.8027-3.0664S675.3643,252.4502,676.6924,252.4502z"/>
	<path fill="#4B5666" d="M520.7549,300.4502c2.6953,0,4.7949,0.9766,6.2988,2.9297s2.2559,4.6943,2.2559,8.2227
		c0,3.542-0.7617,6.2988-2.2852,8.2715s-3.6396,2.959-6.3477,2.959c-2.7344,0-4.8564-0.9834-6.3672-2.9492h-0.3125l-0.8398,2.5586
		h-3.4375v-30.3906h4.5898v7.2266c0,0.5342-0.0264,1.3281-0.0781,2.3828s-0.0908,1.7256-0.1172,2.0117h0.1953
		C515.7676,301.5244,517.916,300.4502,520.7549,300.4502z M519.5635,304.2002c-1.8486,0-3.1807,0.5439-3.9941,1.6309
		s-1.2334,2.9072-1.2598,5.459v0.3125c0,2.6299,0.417,4.5342,1.25,5.7129s2.1943,1.7676,4.082,1.7676
		c1.6279,0,2.8613-0.6445,3.7012-1.9336s1.2598-3.1514,1.2598-5.5859C524.6025,306.6543,522.9229,304.2002,519.5635,304.2002z"/>
	<path fill="#4B5666" d="M545.5986,300.4502c0.9248,0,1.6865,0.0654,2.2852,0.1953l-0.4492,4.2773
		c-0.6514-0.1562-1.3281-0.2344-2.0312-0.2344c-1.8359,0-3.3232,0.5986-4.4629,1.7969s-1.709,2.7539-1.709,4.668v11.2891h-4.5898
		v-21.6016h3.5938l0.6055,3.8086h0.2344c0.7158-1.2891,1.6504-2.3115,2.8027-3.0664S544.2705,300.4502,545.5986,300.4502z"/>
	<path fill="#4B5666" d="M551.6143,295.1182c0-0.8203,0.2246-1.4521,0.6738-1.8945s1.0908-0.6641,1.9238-0.6641
		c0.8076,0,1.4355,0.2217,1.8848,0.6641s0.6738,1.0742,0.6738,1.8945c0,0.7812-0.2246,1.3965-0.6738,1.8457
		s-1.0771,0.6738-1.8848,0.6738c-0.833,0-1.4746-0.2246-1.9238-0.6738S551.6143,295.8994,551.6143,295.1182z M556.4775,322.4424
		h-4.5898v-21.6016h4.5898V322.4424z"/>
	<path fill="#4B5666" d="M567.6299,322.4424H563.04v-30.3906h4.5898V322.4424z"/>
	<path fill="#4B5666" d="M571.9854,332.0518c-1.3799,0-2.5264-0.1631-3.4375-0.4883v-3.6328
		c0.8857,0.2344,1.79,0.3516,2.7148,0.3516c1.9531,0,2.9297-1.1064,2.9297-3.3203v-24.1211h4.5898v24.4336
		c0,2.2266-0.583,3.9131-1.748,5.0586S574.1855,332.0518,571.9854,332.0518z M573.9189,295.1182
		c0-0.8203,0.2246-1.4521,0.6738-1.8945s1.0908-0.6641,1.9238-0.6641c0.8076,0,1.4355,0.2217,1.8848,0.6641
		s0.6738,1.0742,0.6738,1.8945c0,0.7812-0.2246,1.3965-0.6738,1.8457s-1.0771,0.6738-1.8848,0.6738
		c-0.833,0-1.4746-0.2246-1.9238-0.6738S573.9189,295.8994,573.9189,295.1182z"/>
	<path fill="#4B5666" d="M594.7783,322.833c-3.3594,0-5.9863-0.9795-7.8809-2.9395s-2.8418-4.6582-2.8418-8.0957
		c0-3.5283,0.8789-6.3018,2.6367-8.3203s4.1729-3.0273,7.2461-3.0273c2.8516,0,5.1045,0.8662,6.7578,2.5977
		s2.4805,4.1143,2.4805,7.1484v2.4805h-14.3945c0.0654,2.0967,0.6318,3.708,1.6992,4.834s2.5713,1.6895,4.5117,1.6895
		c1.2764,0,2.4639-0.1201,3.5645-0.3613s2.2822-0.6416,3.5449-1.2012v3.7305c-1.1201,0.5342-2.2529,0.9111-3.3984,1.1328
		S596.25,322.833,594.7783,322.833z M593.9385,303.9268c-1.458,0-2.627,0.4619-3.5059,1.3867s-1.4033,2.2725-1.5723,4.043h9.8047
		c-0.0264-1.7842-0.4561-3.1348-1.2891-4.0527S595.3965,303.9268,593.9385,303.9268z"/>
	<path fill="#4B5666" d="M619.3486,300.4502c0.9248,0,1.6865,0.0654,2.2852,0.1953l-0.4492,4.2773
		c-0.6514-0.1562-1.3281-0.2344-2.0312-0.2344c-1.8359,0-3.3232,0.5986-4.4629,1.7969s-1.709,2.7539-1.709,4.668v11.2891h-4.5898
		v-21.6016h3.5938l0.6055,3.8086h0.2344c0.7158-1.2891,1.6504-2.3115,2.8027-3.0664S618.0205,300.4502,619.3486,300.4502z"/>
	<path fill="#4B5666" d="M639.1533,322.4424l-0.918-3.0078h-0.1562c-1.042,1.3154-2.0898,2.21-3.1445,2.6855
		s-2.4092,0.7129-4.0625,0.7129c-2.1221,0-3.7793-0.5732-4.9707-1.7188s-1.7871-2.7666-1.7871-4.8633
		c0-2.2266,0.8271-3.9062,2.4805-5.0391s4.1729-1.751,7.5586-1.8555l3.7305-0.1172v-1.1523c0-1.3799-0.3223-2.4121-0.9668-3.0957
		s-1.6436-1.0254-2.998-1.0254c-1.1064,0-2.168,0.1631-3.1836,0.4883s-1.9922,0.71-2.9297,1.1523l-1.4844-3.2812
		c1.1719-0.6123,2.4541-1.0771,3.8477-1.3965s2.708-0.4785,3.9453-0.4785c2.7471,0,4.8213,0.5986,6.2207,1.7969
		s2.0996,3.0791,2.0996,5.6445v14.5508H639.1533z M632.3174,319.3174c1.667,0,3.0049-0.4658,4.0137-1.3965
		s1.5137-2.2363,1.5137-3.916v-1.875l-2.7734,0.1172c-2.1611,0.0781-3.7334,0.4395-4.7168,1.084s-1.4746,1.6309-1.4746,2.959
		c0,0.9639,0.2861,1.709,0.8594,2.2363S631.1719,319.3174,632.3174,319.3174z"/>
</g>
<path fill="#4B5666" d="M596.1172,84.4746c-7.8867,0-18.1074,4.6484-20.1182,12.4736l-0.002-0.002v0.002
	c-2.0107-7.8252-12.2305-12.4736-20.1162-12.4736c-15.5508,0-28.1631,12.0703-28.1631,28.1641
	c0,18.9355,11.1963,30.5225,23.4023,39.9258c7.3213,5.6416,23.5713,18.4102,24.8574,18.4102c0.0078,0,0.0137-0.002,0.0195-0.002
	c0.0068,0,0.0146,0.002,0.0205,0.002c1.2871,0,17.5371-12.7686,24.8584-18.4102c12.2051-9.4033,23.4043-20.9902,23.4043-39.9258
	C624.2803,96.5449,611.668,84.4746,596.1172,84.4746z M544.957,97.2129c-4.8623,3.5967-7.6523,9.2188-7.6523,15.4258
	c0,1.0234-0.8281,1.8535-1.8525,1.8535c-1.0234,0-1.8535-0.8301-1.8535-1.8535c0-7.3945,3.3359-14.1025,9.1543-18.4053
	c0.8213-0.6094,1.9814-0.4355,2.5908,0.3877S545.7783,96.6055,544.957,97.2129z"/>
<g>
	<path fill="#4B5666" d="M538.1377,947.166c0,2.5391-0.918,4.5312-2.7539,5.9766s-4.3682,2.168-7.5977,2.168
		s-5.8721-0.501-7.9297-1.5039v-4.4141c1.3018,0.6123,2.6855,1.0938,4.1504,1.4453s2.8291,0.5273,4.0918,0.5273
		c1.8486,0,3.2129-0.3516,4.0918-1.0547s1.3184-1.6475,1.3184-2.832c0-1.0674-0.4033-1.9727-1.2109-2.7148s-2.4736-1.6211-5-2.6367
		c-2.6045-1.0547-4.4404-2.2588-5.5078-3.6133s-1.6016-2.9814-1.6016-4.8828c0-2.3828,0.8467-4.2578,2.5391-5.625
		s3.9648-2.0508,6.8164-2.0508c2.7344,0,5.4561,0.5986,8.1641,1.7969l-1.4844,3.8086c-2.5391-1.0674-4.8047-1.6016-6.7969-1.6016
		c-1.5107,0-2.6562,0.3291-3.4375,0.9863s-1.1719,1.5264-1.1719,2.6074c0,0.7422,0.1562,1.377,0.4688,1.9043
		s0.8271,1.0254,1.543,1.4941s2.0049,1.0869,3.8672,1.8555c2.0967,0.8721,3.6328,1.6865,4.6094,2.4414s1.6924,1.6084,2.1484,2.5586
		S538.1377,945.877,538.1377,947.166z"/>
	<path fill="#4B5666" d="M547.6104,943.5137l2.5977-3.2422l6.5234-6.9531h5.293l-8.6914,9.2773l9.2383,12.3242h-5.3906
		l-6.9336-9.4727l-2.5195,2.0703v7.4023h-4.5508v-30.3906h4.5508v14.8242l-0.2344,4.1602H547.6104z"/>
	<path fill="#4B5666" d="M579.5635,954.9199l-0.918-3.0078h-0.1562c-1.042,1.3154-2.0898,2.21-3.1445,2.6855
		s-2.4092,0.7129-4.0625,0.7129c-2.1221,0-3.7793-0.5732-4.9707-1.7188s-1.7871-2.7666-1.7871-4.8633
		c0-2.2266,0.8271-3.9062,2.4805-5.0391s4.1729-1.751,7.5586-1.8555l3.7305-0.1172v-1.1523c0-1.3799-0.3223-2.4121-0.9668-3.0957
		s-1.6436-1.0254-2.998-1.0254c-1.1064,0-2.168,0.1631-3.1836,0.4883s-1.9922,0.71-2.9297,1.1523l-1.4844-3.2812
		c1.1719-0.6123,2.4541-1.0771,3.8477-1.3965s2.708-0.4785,3.9453-0.4785c2.7471,0,4.8213,0.5986,6.2207,1.7969
		s2.0996,3.0791,2.0996,5.6445v14.5508H579.5635z M572.7275,951.7949c1.667,0,3.0049-0.4658,4.0137-1.3965
		s1.5137-2.2363,1.5137-3.916v-1.875l-2.7734,0.1172c-2.1611,0.0781-3.7334,0.4395-4.7168,1.084s-1.4746,1.6309-1.4746,2.959
		c0,0.9639,0.2861,1.709,0.8594,2.2363S571.582,951.7949,572.7275,951.7949z"/>
	<path fill="#4B5666" d="M600.208,955.3105c-2.7344,0-4.8564-0.9834-6.3672-2.9492h-0.2734
		c0.1826,1.8232,0.2734,2.9297,0.2734,3.3203v8.8477h-4.5898v-31.2109h3.7109c0.1045,0.4033,0.3193,1.3672,0.6445,2.8906h0.2344
		c1.4326-2.1875,3.5811-3.2812,6.4453-3.2812c2.6953,0,4.7949,0.9766,6.2988,2.9297s2.2559,4.6943,2.2559,8.2227
		s-0.7646,6.2822-2.2949,8.2617S602.9033,955.3105,600.208,955.3105z M599.0947,936.6777c-1.8232,0-3.1543,0.5342-3.9941,1.6016
		s-1.2598,2.7734-1.2598,5.1172v0.6836c0,2.6299,0.417,4.5342,1.25,5.7129s2.1943,1.7676,4.082,1.7676
		c1.5889,0,2.8125-0.6514,3.6719-1.9531s1.2891-3.1572,1.2891-5.5664c0-2.4219-0.4268-4.2549-1.2793-5.498
		S600.748,936.6777,599.0947,936.6777z"/>
	<path fill="#4B5666" d="M627.6885,954.9199l-0.918-3.0078h-0.1562c-1.042,1.3154-2.0898,2.21-3.1445,2.6855
		s-2.4092,0.7129-4.0625,0.7129c-2.1221,0-3.7793-0.5732-4.9707-1.7188s-1.7871-2.7666-1.7871-4.8633
		c0-2.2266,0.8271-3.9062,2.4805-5.0391s4.1729-1.751,7.5586-1.8555l3.7305-0.1172v-1.1523c0-1.3799-0.3223-2.4121-0.9668-3.0957
		s-1.6436-1.0254-2.998-1.0254c-1.1064,0-2.168,0.1631-3.1836,0.4883s-1.9922,0.71-2.9297,1.1523l-1.4844-3.2812
		c1.1719-0.6123,2.4541-1.0771,3.8477-1.3965s2.708-0.4785,3.9453-0.4785c2.7471,0,4.8213,0.5986,6.2207,1.7969
		s2.0996,3.0791,2.0996,5.6445v14.5508H627.6885z M620.8525,951.7949c1.667,0,3.0049-0.4658,4.0137-1.3965
		s1.5137-2.2363,1.5137-3.916v-1.875l-2.7734,0.1172c-2.1611,0.0781-3.7334,0.4395-4.7168,1.084s-1.4746,1.6309-1.4746,2.959
		c0,0.9639,0.2861,1.709,0.8594,2.2363S619.707,951.7949,620.8525,951.7949z"/>
	<path fill="#4B5666" d="M526.2725,999.5996c1.1201,0,2.2393-0.1758,3.3594-0.5273v3.457
		c-0.5078,0.2217-1.1621,0.4072-1.9629,0.5566s-1.6309,0.2246-2.4902,0.2246c-4.3486,0-6.5234-2.292-6.5234-6.875v-11.6406h-2.9492
		v-2.0312l3.1641-1.6797l1.5625-4.5703h2.832v4.8047h6.1523v3.4766h-6.1523v11.5625c0,1.1064,0.2764,1.9238,0.8301,2.4512
		S525.374,999.5996,526.2725,999.5996z"/>
	<path fill="#4B5666" d="M544.9053,980.9277c0.9248,0,1.6865,0.0654,2.2852,0.1953l-0.4492,4.2773
		c-0.6514-0.1562-1.3281-0.2344-2.0312-0.2344c-1.8359,0-3.3232,0.5986-4.4629,1.7969s-1.709,2.7539-1.709,4.668v11.2891h-4.5898
		v-21.6016h3.5938l0.6055,3.8086h0.2344c0.7158-1.2891,1.6504-2.3115,2.8027-3.0664S543.5771,980.9277,544.9053,980.9277z"/>
	<path fill="#4B5666" d="M547.9131,981.3184h5l4.3945,12.2461c0.6641,1.7451,1.1064,3.3857,1.3281,4.9219h0.1562
		c0.1172-0.7158,0.332-1.585,0.6445-2.6074s1.9658-5.876,4.9609-14.5605h4.9609l-9.2383,24.4727
		c-1.6797,4.4922-4.4795,6.7383-8.3984,6.7383c-1.0156,0-2.0049-0.1104-2.9688-0.332v-3.6328
		c0.6904,0.1562,1.4775,0.2344,2.3633,0.2344c2.2139,0,3.7695-1.2822,4.668-3.8477l0.8008-2.0312L547.9131,981.3184z"/>
	<path fill="#4B5666" d="M590.8818,981.3184v2.5195l-3.6914,0.6836c0.3389,0.4561,0.6182,1.0156,0.8398,1.6797
		s0.332,1.3672,0.332,2.1094c0,2.2266-0.7686,3.9775-2.3047,5.2539s-3.6523,1.9141-6.3477,1.9141
		c-0.6904,0-1.3154-0.0518-1.875-0.1562c-0.9893,0.6123-1.4844,1.3281-1.4844,2.1484c0,0.4951,0.2314,0.8662,0.6934,1.1133
		s1.3115,0.3711,2.5488,0.3711h3.7695c2.3828,0,4.1924,0.5078,5.4297,1.5234s1.8555,2.4805,1.8555,4.3945
		c0,2.4482-1.0088,4.3359-3.0273,5.6641s-4.9346,1.9922-8.75,1.9922c-2.9424,0-5.1885-0.5205-6.7383-1.5625
		s-2.3242-2.5264-2.3242-4.4531c0-1.3281,0.4199-2.4443,1.2598-3.3496s2.0146-1.5332,3.5254-1.8848
		c-0.6123-0.2607-1.1162-0.6807-1.5137-1.2598s-0.5957-1.1885-0.5957-1.8262c0-0.8076,0.2275-1.4912,0.6836-2.0508
		s1.1328-1.1133,2.0312-1.6602c-1.1201-0.4814-2.0283-1.2666-2.7246-2.3535s-1.0449-2.3604-1.0449-3.8184
		c0-2.3438,0.7393-4.1602,2.2168-5.4492s3.584-1.9336,6.3184-1.9336c0.6123,0,1.2529,0.042,1.9238,0.127
		s1.1748,0.1729,1.5137,0.2637H590.8818z M573.9092,1006.2793c0,0.9893,0.4463,1.751,1.3379,2.2852s2.1455,0.8008,3.7598,0.8008
		c2.5,0,4.3623-0.3584,5.5859-1.0742s1.8359-1.667,1.8359-2.8516c0-0.9375-0.335-1.6045-1.0059-2.002s-1.917-0.5957-3.7402-0.5957
		h-3.4766c-1.3154,0-2.3604,0.3096-3.1348,0.9277S573.9092,1005.2246,573.9092,1006.2793z M575.8818,988.3105
		c0,1.3545,0.3486,2.3955,1.0449,3.125s1.6963,1.0938,2.998,1.0938c2.6562,0,3.9844-1.4189,3.9844-4.2578
		c0-1.4062-0.3291-2.4902-0.9863-3.252s-1.6572-1.1426-2.998-1.1426c-1.3281,0-2.334,0.3779-3.0176,1.1328
		S575.8818,986.8652,575.8818,988.3105z"/>
	<path fill="#4B5666" d="M613.1279,981.3184v2.5195l-3.6914,0.6836c0.3389,0.4561,0.6182,1.0156,0.8398,1.6797
		s0.332,1.3672,0.332,2.1094c0,2.2266-0.7686,3.9775-2.3047,5.2539s-3.6523,1.9141-6.3477,1.9141
		c-0.6904,0-1.3154-0.0518-1.875-0.1562c-0.9893,0.6123-1.4844,1.3281-1.4844,2.1484c0,0.4951,0.2314,0.8662,0.6934,1.1133
		s1.3115,0.3711,2.5488,0.3711h3.7695c2.3828,0,4.1924,0.5078,5.4297,1.5234s1.8555,2.4805,1.8555,4.3945
		c0,2.4482-1.0088,4.3359-3.0273,5.6641s-4.9346,1.9922-8.75,1.9922c-2.9424,0-5.1885-0.5205-6.7383-1.5625
		s-2.3242-2.5264-2.3242-4.4531c0-1.3281,0.4199-2.4443,1.2598-3.3496s2.0146-1.5332,3.5254-1.8848
		c-0.6123-0.2607-1.1162-0.6807-1.5137-1.2598s-0.5957-1.1885-0.5957-1.8262c0-0.8076,0.2275-1.4912,0.6836-2.0508
		s1.1328-1.1133,2.0312-1.6602c-1.1201-0.4814-2.0283-1.2666-2.7246-2.3535s-1.0449-2.3604-1.0449-3.8184
		c0-2.3438,0.7393-4.1602,2.2168-5.4492s3.584-1.9336,6.3184-1.9336c0.6123,0,1.2529,0.042,1.9238,0.127
		s1.1748,0.1729,1.5137,0.2637H613.1279z M596.1553,1006.2793c0,0.9893,0.4463,1.751,1.3379,2.2852s2.1455,0.8008,3.7598,0.8008
		c2.5,0,4.3623-0.3584,5.5859-1.0742s1.8359-1.667,1.8359-2.8516c0-0.9375-0.335-1.6045-1.0059-2.002s-1.917-0.5957-3.7402-0.5957
		h-3.4766c-1.3154,0-2.3604,0.3096-3.1348,0.9277S596.1553,1005.2246,596.1553,1006.2793z M598.1279,988.3105
		c0,1.3545,0.3486,2.3955,1.0449,3.125s1.6963,1.0938,2.998,1.0938c2.6562,0,3.9844-1.4189,3.9844-4.2578
		c0-1.4062-0.3291-2.4902-0.9863-3.252s-1.6572-1.1426-2.998-1.1426c-1.3281,0-2.334,0.3779-3.0176,1.1328
		S598.1279,986.8652,598.1279,988.3105z"/>
	<path fill="#4B5666" d="M630.6475,1002.9199l-0.918-3.0078h-0.1562c-1.042,1.3154-2.0898,2.21-3.1445,2.6855
		s-2.4092,0.7129-4.0625,0.7129c-2.1221,0-3.7793-0.5732-4.9707-1.7188s-1.7871-2.7666-1.7871-4.8633
		c0-2.2266,0.8271-3.9062,2.4805-5.0391s4.1729-1.751,7.5586-1.8555l3.7305-0.1172v-1.1523c0-1.3799-0.3223-2.4121-0.9668-3.0957
		s-1.6436-1.0254-2.998-1.0254c-1.1064,0-2.168,0.1631-3.1836,0.4883s-1.9922,0.71-2.9297,1.1523l-1.4844-3.2812
		c1.1719-0.6123,2.4541-1.0771,3.8477-1.3965s2.708-0.4785,3.9453-0.4785c2.7471,0,4.8213,0.5986,6.2207,1.7969
		s2.0996,3.0791,2.0996,5.6445v14.5508H630.6475z M623.8115,999.7949c1.667,0,3.0049-0.4658,4.0137-1.3965
		s1.5137-2.2363,1.5137-3.916v-1.875l-2.7734,0.1172c-2.1611,0.0781-3.7334,0.4395-4.7168,1.084s-1.4746,1.6309-1.4746,2.959
		c0,0.9639,0.2861,1.709,0.8594,2.2363S622.666,999.7949,623.8115,999.7949z"/>
	<path fill="#4B5666" d="M442.0928,1032.7949h-5.2734v18.125H432.21v-18.125h-3.5547v-2.1484l3.5547-1.4062v-1.4062
		c0-2.5518,0.5986-4.4434,1.7969-5.6738s3.0273-1.8457,5.4883-1.8457c1.6143,0,3.2031,0.2666,4.7656,0.8008l-1.2109,3.4766
		c-1.1328-0.3643-2.2139-0.5469-3.2422-0.5469c-1.042,0-1.7998,0.3223-2.2754,0.9668s-0.7129,1.6113-0.7129,2.9004v1.4062h5.2734
		V1032.7949z"/>
	<path fill="#4B5666" d="M464.9248,1040.0801c0,3.5283-0.9053,6.2822-2.7148,8.2617s-4.3291,2.9688-7.5586,2.9688
		c-2.0186,0-3.8018-0.4561-5.3516-1.3672s-2.7412-2.2197-3.5742-3.9258s-1.25-3.6846-1.25-5.9375
		c0-3.5029,0.8984-6.2373,2.6953-8.2031s4.3291-2.9492,7.5977-2.9492c3.125,0,5.5986,1.0059,7.4219,3.0176
		S464.9248,1036.6689,464.9248,1040.0801z M448.5576,1023.5957c0-0.8076,0.2178-1.3896,0.6543-1.748s0.9668-0.5371,1.5918-0.5371
		c0.6904,0,1.2402,0.2021,1.6504,0.6055s0.6152,0.9639,0.6152,1.6797c0,0.6904-0.208,1.2432-0.625,1.6602
		s-0.9639,0.625-1.6406,0.625c-0.625,0-1.1553-0.1885-1.5918-0.5664S448.5576,1024.3643,448.5576,1023.5957z M449.2021,1040.0801
		c0,4.9873,1.8428,7.4805,5.5273,7.4805c3.6455,0,5.4688-2.4932,5.4688-7.4805c0-4.9346-1.8359-7.4023-5.5078-7.4023
		c-1.9268,0-3.3232,0.6377-4.1895,1.9141S449.2021,1037.6973,449.2021,1040.0801z M456.2334,1023.5957
		c0-0.8076,0.2178-1.3896,0.6543-1.748s0.9668-0.5371,1.5918-0.5371c0.6904,0,1.2432,0.2021,1.6602,0.6055
		s0.625,0.9639,0.625,1.6797c0,0.7031-0.2148,1.2598-0.6445,1.6699s-0.9766,0.6152-1.6406,0.6152
		c-0.625,0-1.1553-0.1885-1.5918-0.5664S456.2334,1024.3643,456.2334,1023.5957z"/>
	<path fill="#4B5666" d="M481.1553,1028.9277c0.9248,0,1.6865,0.0654,2.2852,0.1953l-0.4492,4.2773
		c-0.6514-0.1562-1.3281-0.2344-2.0312-0.2344c-1.8359,0-3.3232,0.5986-4.4629,1.7969s-1.709,2.7539-1.709,4.668v11.2891h-4.5898
		v-21.6016h3.5938l0.6055,3.8086h0.2344c0.7158-1.2891,1.6504-2.3115,2.8027-3.0664S479.8271,1028.9277,481.1553,1028.9277z"/>
	<path fill="#4B5666" d="M502.6787,1050.9199l-0.6445-2.832h-0.2344c-0.6377,1.0029-1.5459,1.79-2.7246,2.3633
		s-2.5225,0.8594-4.0332,0.8594c-2.6172,0-4.5703-0.6514-5.8594-1.9531s-1.9336-3.2744-1.9336-5.918v-14.1211h4.6289v13.3203
		c0,1.6533,0.3389,2.8936,1.0156,3.7207s1.7383,1.2402,3.1836,1.2402c1.9268,0,3.3428-0.5762,4.248-1.7285
		s1.3574-3.083,1.3574-5.791v-10.7617h4.6094v21.6016H502.6787z"/>
	<path fill="#4B5666" d="M520.8818,1047.5996c1.1201,0,2.2393-0.1758,3.3594-0.5273v3.457
		c-0.5078,0.2217-1.1621,0.4072-1.9629,0.5566s-1.6309,0.2246-2.4902,0.2246c-4.3486,0-6.5234-2.292-6.5234-6.875v-11.6406h-2.9492
		v-2.0312l3.1641-1.6797l1.5625-4.5703h2.832v4.8047h6.1523v3.4766h-6.1523v11.5625c0,1.1064,0.2764,1.9238,0.8301,2.4512
		S519.9834,1047.5996,520.8818,1047.5996z"/>
	<path fill="#4B5666" d="M543.0693,1044.7676c0,2.1094-0.7686,3.7275-2.3047,4.8535s-3.7373,1.6895-6.6016,1.6895
		c-2.8779,0-5.1885-0.4365-6.9336-1.3086v-3.9648c2.5391,1.1719,4.9023,1.7578,7.0898,1.7578c2.8252,0,4.2383-0.8525,4.2383-2.5586
		c0-0.5469-0.1562-1.0029-0.4688-1.3672s-0.8271-0.7422-1.543-1.1328s-1.7119-0.833-2.9883-1.3281
		c-2.4873-0.9639-4.1699-1.9268-5.0488-2.8906s-1.3184-2.2139-1.3184-3.75c0-1.8486,0.7451-3.2842,2.2363-4.3066
		s3.5186-1.5332,6.084-1.5332c2.5391,0,4.9414,0.5146,7.207,1.543l-1.4844,3.457c-2.3311-0.9639-4.29-1.4453-5.8789-1.4453
		c-2.4219,0-3.6328,0.6904-3.6328,2.0703c0,0.6768,0.3154,1.25,0.9473,1.7188s2.0088,1.1133,4.1309,1.9336
		c1.7842,0.6904,3.0791,1.3213,3.8867,1.8945s1.4062,1.2334,1.7969,1.9824S543.0693,1043.7256,543.0693,1044.7676z"/>
	<path fill="#4B5666" d="M561.5459,1050.9199l-0.918-3.0078h-0.1562c-1.042,1.3154-2.0898,2.21-3.1445,2.6855
		s-2.4092,0.7129-4.0625,0.7129c-2.1221,0-3.7793-0.5732-4.9707-1.7188s-1.7871-2.7666-1.7871-4.8633
		c0-2.2266,0.8271-3.9062,2.4805-5.0391s4.1729-1.751,7.5586-1.8555l3.7305-0.1172v-1.1523c0-1.3799-0.3223-2.4121-0.9668-3.0957
		s-1.6436-1.0254-2.998-1.0254c-1.1064,0-2.168,0.1631-3.1836,0.4883s-1.9922,0.71-2.9297,1.1523l-1.4844-3.2812
		c1.1719-0.6123,2.4541-1.0771,3.8477-1.3965s2.708-0.4785,3.9453-0.4785c2.7471,0,4.8213,0.5986,6.2207,1.7969
		s2.0996,3.0791,2.0996,5.6445v14.5508H561.5459z M550.2568,1023.5957c0-0.8076,0.2178-1.3896,0.6543-1.748
		s0.9668-0.5371,1.5918-0.5371c0.6904,0,1.2402,0.2021,1.6504,0.6055s0.6152,0.9639,0.6152,1.6797
		c0,0.6904-0.208,1.2432-0.625,1.6602s-0.9639,0.625-1.6406,0.625c-0.625,0-1.1553-0.1885-1.5918-0.5664
		S550.2568,1024.3643,550.2568,1023.5957z M554.71,1047.7949c1.667,0,3.0049-0.4658,4.0137-1.3965s1.5137-2.2363,1.5137-3.916
		v-1.875l-2.7734,0.1172c-2.1611,0.0781-3.7334,0.4395-4.7168,1.084s-1.4746,1.6309-1.4746,2.959
		c0,0.9639,0.2861,1.709,0.8594,2.2363S553.5645,1047.7949,554.71,1047.7949z M557.9326,1023.5957
		c0-0.8076,0.2178-1.3896,0.6543-1.748s0.9668-0.5371,1.5918-0.5371c0.6904,0,1.2432,0.2021,1.6602,0.6055
		s0.625,0.9639,0.625,1.6797c0,0.7031-0.2148,1.2598-0.6445,1.6699s-0.9766,0.6152-1.6406,0.6152
		c-0.625,0-1.1553-0.1885-1.5918-0.5664S557.9326,1024.3643,557.9326,1023.5957z"/>
	<path fill="#4B5666" d="M579.2803,1047.5996c1.1201,0,2.2393-0.1758,3.3594-0.5273v3.457
		c-0.5078,0.2217-1.1621,0.4072-1.9629,0.5566s-1.6309,0.2246-2.4902,0.2246c-4.3486,0-6.5234-2.292-6.5234-6.875v-11.6406h-2.9492
		v-2.0312l3.1641-1.6797l1.5625-4.5703h2.832v4.8047h6.1523v3.4766h-6.1523v11.5625c0,1.1064,0.2764,1.9238,0.8301,2.4512
		S578.3818,1047.5996,579.2803,1047.5996z"/>
	<path fill="#4B5666" d="M595.0029,1047.5996c1.1201,0,2.2393-0.1758,3.3594-0.5273v3.457
		c-0.5078,0.2217-1.1621,0.4072-1.9629,0.5566s-1.6309,0.2246-2.4902,0.2246c-4.3486,0-6.5234-2.292-6.5234-6.875v-11.6406h-2.9492
		v-2.0312l3.1641-1.6797l1.5625-4.5703h2.832v4.8047h6.1523v3.4766h-6.1523v11.5625c0,1.1064,0.2764,1.9238,0.8301,2.4512
		S594.1045,1047.5996,595.0029,1047.5996z"/>
	<path fill="#4B5666" d="M621.6826,1050.9199h-4.6094v-13.2812c0-1.667-0.335-2.9102-1.0059-3.7305s-1.7354-1.2305-3.1934-1.2305
		c-1.9404,0-3.3594,0.5732-4.2578,1.7188s-1.3477,3.0664-1.3477,5.7617v10.7617h-4.5898v-21.6016h3.5938l0.6445,2.832h0.2344
		c0.6514-1.0283,1.5752-1.8232,2.7734-2.3828s2.5264-0.8398,3.9844-0.8398c5.1826,0,7.7734,2.6367,7.7734,7.9102V1050.9199z"/>
	<path fill="#4B5666" d="M627.7959,1023.5957c0-0.8203,0.2246-1.4521,0.6738-1.8945s1.0908-0.6641,1.9238-0.6641
		c0.8076,0,1.4355,0.2217,1.8848,0.6641s0.6738,1.0742,0.6738,1.8945c0,0.7812-0.2246,1.3965-0.6738,1.8457
		s-1.0771,0.6738-1.8848,0.6738c-0.833,0-1.4746-0.2246-1.9238-0.6738S627.7959,1024.377,627.7959,1023.5957z M632.6592,1050.9199
		h-4.5898v-21.6016h4.5898V1050.9199z"/>
	<path fill="#4B5666" d="M658.2256,1050.9199h-4.6094v-13.2812c0-1.667-0.335-2.9102-1.0059-3.7305s-1.7354-1.2305-3.1934-1.2305
		c-1.9404,0-3.3594,0.5732-4.2578,1.7188s-1.3477,3.0664-1.3477,5.7617v10.7617h-4.5898v-21.6016h3.5938l0.6445,2.832h0.2344
		c0.6514-1.0283,1.5752-1.8232,2.7734-2.3828s2.5264-0.8398,3.9844-0.8398c5.1826,0,7.7734,2.6367,7.7734,7.9102V1050.9199z"/>
	<path fill="#4B5666" d="M682.8545,1029.3184v2.5195l-3.6914,0.6836c0.3389,0.4561,0.6182,1.0156,0.8398,1.6797
		s0.332,1.3672,0.332,2.1094c0,2.2266-0.7686,3.9775-2.3047,5.2539s-3.6523,1.9141-6.3477,1.9141
		c-0.6904,0-1.3154-0.0518-1.875-0.1562c-0.9893,0.6123-1.4844,1.3281-1.4844,2.1484c0,0.4951,0.2314,0.8662,0.6934,1.1133
		s1.3115,0.3711,2.5488,0.3711h3.7695c2.3828,0,4.1924,0.5078,5.4297,1.5234s1.8555,2.4805,1.8555,4.3945
		c0,2.4482-1.0088,4.3359-3.0273,5.6641s-4.9346,1.9922-8.75,1.9922c-2.9424,0-5.1885-0.5205-6.7383-1.5625
		s-2.3242-2.5264-2.3242-4.4531c0-1.3281,0.4199-2.4443,1.2598-3.3496s2.0146-1.5332,3.5254-1.8848
		c-0.6123-0.2607-1.1162-0.6807-1.5137-1.2598s-0.5957-1.1885-0.5957-1.8262c0-0.8076,0.2275-1.4912,0.6836-2.0508
		s1.1328-1.1133,2.0312-1.6602c-1.1201-0.4814-2.0283-1.2666-2.7246-2.3535s-1.0449-2.3604-1.0449-3.8184
		c0-2.3438,0.7393-4.1602,2.2168-5.4492s3.584-1.9336,6.3184-1.9336c0.6123,0,1.2529,0.042,1.9238,0.127
		s1.1748,0.1729,1.5137,0.2637H682.8545z M665.8818,1054.2793c0,0.9893,0.4463,1.751,1.3379,2.2852s2.1455,0.8008,3.7598,0.8008
		c2.5,0,4.3623-0.3584,5.5859-1.0742s1.8359-1.667,1.8359-2.8516c0-0.9375-0.335-1.6045-1.0059-2.002s-1.917-0.5957-3.7402-0.5957
		h-3.4766c-1.3154,0-2.3604,0.3096-3.1348,0.9277S665.8818,1053.2246,665.8818,1054.2793z M667.8545,1036.3105
		c0,1.3545,0.3486,2.3955,1.0449,3.125s1.6963,1.0938,2.998,1.0938c2.6562,0,3.9844-1.4189,3.9844-4.2578
		c0-1.4062-0.3291-2.4902-0.9863-3.252s-1.6572-1.1426-2.998-1.1426c-1.3281,0-2.334,0.3779-3.0176,1.1328
		S667.8545,1034.8652,667.8545,1036.3105z"/>
	<path fill="#4B5666" d="M700.374,1050.9199l-0.918-3.0078h-0.1562c-1.042,1.3154-2.0898,2.21-3.1445,2.6855
		s-2.4092,0.7129-4.0625,0.7129c-2.1221,0-3.7793-0.5732-4.9707-1.7188s-1.7871-2.7666-1.7871-4.8633
		c0-2.2266,0.8271-3.9062,2.4805-5.0391s4.1729-1.751,7.5586-1.8555l3.7305-0.1172v-1.1523c0-1.3799-0.3223-2.4121-0.9668-3.0957
		s-1.6436-1.0254-2.998-1.0254c-1.1064,0-2.168,0.1631-3.1836,0.4883s-1.9922,0.71-2.9297,1.1523l-1.4844-3.2812
		c1.1719-0.6123,2.4541-1.0771,3.8477-1.3965s2.708-0.4785,3.9453-0.4785c2.7471,0,4.8213,0.5986,6.2207,1.7969
		s2.0996,3.0791,2.0996,5.6445v14.5508H700.374z M693.5381,1047.7949c1.667,0,3.0049-0.4658,4.0137-1.3965
		s1.5137-2.2363,1.5137-3.916v-1.875l-2.7734,0.1172c-2.1611,0.0781-3.7334,0.4395-4.7168,1.084s-1.4746,1.6309-1.4746,2.959
		c0,0.9639,0.2861,1.709,0.8594,2.2363S692.3926,1047.7949,693.5381,1047.7949z"/>
	<path fill="#4B5666" d="M721.0186,1028.9277c0.9248,0,1.6865,0.0654,2.2852,0.1953l-0.4492,4.2773
		c-0.6514-0.1562-1.3281-0.2344-2.0312-0.2344c-1.8359,0-3.3232,0.5986-4.4629,1.7969s-1.709,2.7539-1.709,4.668v11.2891h-4.5898
		v-21.6016h3.5938l0.6055,3.8086h0.2344c0.7158-1.2891,1.6504-2.3115,2.8027-3.0664S719.6904,1028.9277,721.0186,1028.9277z"/>
</g>
<path fill="#4B5666" d="M609.6885,812.8311h-67.3799c-1.5449,0-2.7998,1.252-2.7998,2.7969l0.0029,25.9648
	c0,0.002,0.001,0.0059,0.001,0.0098c0,7.7988,0,15.6211,0,18.2344c0,5.7969,1.9561,14.1484,9.4453,22.5391
	c10.7305,12.0176,27.0439,16.9551,27.0439,16.9551s16.3125-4.9375,27.043-16.9551c7.4893-8.3906,9.4453-16.7422,9.4453-22.5391
	c0-2.6133,0-10.4355,0-18.2344c0-0.0039,0.001-0.0078,0.001-0.0098l-0.0039-25.9648
	C612.4873,814.083,611.2334,812.8311,609.6885,812.8311z M556.3057,878.9092c-0.3535,0.3145-0.7949,0.4688-1.2334,0.4688
	c-0.5107,0-1.0176-0.209-1.3838-0.6191c-7.3506-8.2324-8.4473-16.0156-8.4473-19.9219c0-1.0234,0.8291-1.8535,1.8525-1.8535
	s1.8545,0.8301,1.8545,1.8535c0,3.3789,0.9746,10.1387,7.5059,17.4531C557.1357,877.0537,557.0674,878.2256,556.3057,878.9092z
	 M606.7119,841.5029c-0.001,0.0312-0.001,0.0664-0.001,0.0996v18.2344c0,3.6426-1.0371,10.916-7.9766,18.6895
	c-7.5762,8.4863-18.5674,13.1426-22.7324,14.6895l-0.0039-74.6074h30.7109L606.7119,841.5029z"/>
<g>
	<path fill="#4B5666" d="M88.4946,590.5752H72.3423v-28.5547h16.1523v3.9453H77.0103v7.7734H87.772v3.9062H77.0103v8.9648h11.4844
		V590.5752z"/>
	<path fill="#4B5666" d="M98.9829,579.54l-7.2461-10.5664h5.2344l4.9219,7.5586l4.9609-7.5586h5.1953l-7.2656,10.5664
		l7.6367,11.0352h-5.1953l-5.332-8.0859l-5.3125,8.0859h-5.1953L98.9829,579.54z"/>
	<path fill="#4B5666" d="M127.1665,590.9658c-2.7344,0-4.8569-0.9834-6.3672-2.9492h-0.2734
		c0.1821,1.8232,0.2734,2.9297,0.2734,3.3203v8.8477h-4.5898v-31.2109h3.7109c0.104,0.4033,0.3188,1.3672,0.6445,2.8906h0.2344
		c1.4321-2.1875,3.5806-3.2812,6.4453-3.2812c2.6953,0,4.7949,0.9766,6.2988,2.9297s2.2559,4.6943,2.2559,8.2227
		s-0.7651,6.2822-2.2949,8.2617C131.9741,589.9766,129.8618,590.9658,127.1665,590.9658z M126.0532,572.333
		c-1.8232,0-3.1543,0.5342-3.9941,1.6016s-1.2598,2.7734-1.2598,5.1172v0.6836c0,2.6299,0.4165,4.5342,1.25,5.7129
		c0.833,1.1787,2.1938,1.7676,4.082,1.7676c1.5884,0,2.8125-0.6514,3.6719-1.9531s1.2891-3.1572,1.2891-5.5664
		c0-2.4219-0.4268-4.2549-1.2793-5.498C128.96,572.9551,127.7065,572.333,126.0532,572.333z"/>
	<path fill="#4B5666" d="M150.5649,590.9658c-3.3594,0-5.9863-0.9795-7.8809-2.9395s-2.8418-4.6582-2.8418-8.0957
		c0-3.5283,0.8789-6.3018,2.6367-8.3203s4.1729-3.0273,7.2461-3.0273c2.8516,0,5.104,0.8662,6.7578,2.5977
		c1.6533,1.7314,2.4805,4.1143,2.4805,7.1484v2.4805h-14.3945c0.0649,2.0967,0.6313,3.708,1.6992,4.834
		c1.0674,1.126,2.5713,1.6895,4.5117,1.6895c1.2759,0,2.4639-0.1201,3.5645-0.3613c1.1001-0.2412,2.2817-0.6416,3.5449-1.2012
		v3.7305c-1.1201,0.5342-2.2529,0.9111-3.3984,1.1328C153.3447,590.8555,152.0361,590.9658,150.5649,590.9658z M149.7251,572.0596
		c-1.4585,0-2.627,0.4619-3.5059,1.3867s-1.4033,2.2725-1.5723,4.043h9.8047c-0.0264-1.7842-0.4561-3.1348-1.2891-4.0527
		C152.3291,572.5186,151.1831,572.0596,149.7251,572.0596z"/>
	<path fill="#4B5666" d="M175.1353,568.583c0.9243,0,1.686,0.0654,2.2852,0.1953l-0.4492,4.2773
		c-0.6514-0.1562-1.3281-0.2344-2.0312-0.2344c-1.8359,0-3.3237,0.5986-4.4629,1.7969c-1.1396,1.1982-1.709,2.7539-1.709,4.668
		v11.2891h-4.5898v-21.6016h3.5938l0.6055,3.8086h0.2344c0.7158-1.2891,1.6504-2.3115,2.8027-3.0664
		S173.8071,568.583,175.1353,568.583z"/>
	<path fill="#4B5666" d="M181.1509,563.251c0-0.8203,0.2246-1.4521,0.6738-1.8945s1.0903-0.6641,1.9238-0.6641
		c0.8071,0,1.4355,0.2217,1.8848,0.6641s0.6738,1.0742,0.6738,1.8945c0,0.7812-0.2246,1.3965-0.6738,1.8457
		s-1.0776,0.6738-1.8848,0.6738c-0.8335,0-1.4746-0.2246-1.9238-0.6738S181.1509,564.0322,181.1509,563.251z M186.0142,590.5752
		h-4.5898v-21.6016h4.5898V590.5752z"/>
	<path fill="#4B5666" d="M210.7798,590.5752h-4.6094v-13.3203c0-1.6533-0.3125-2.8877-0.9375-3.7012s-1.6016-1.2207-2.9297-1.2207
		c-1.771,0-3.0698,0.5762-3.8965,1.7285c-0.8271,1.1523-1.2402,3.0693-1.2402,5.752v10.7617h-4.5898v-21.6016h3.5938l0.6445,2.832
		h0.2344c0.5986-1.0283,1.4678-1.8232,2.6074-2.3828c1.1392-0.5596,2.3926-0.8398,3.7598-0.8398
		c3.3203,0,5.5205,1.1328,6.6016,3.3984h0.3125c0.6377-1.0674,1.5361-1.9014,2.6953-2.5c1.1587-0.5986,2.4868-0.8984,3.9844-0.8984
		c2.5781,0,4.4561,0.6514,5.6348,1.9531c1.1782,1.3018,1.7676,3.2881,1.7676,5.957v14.082h-4.5898v-13.3203
		c0-1.6533-0.3159-2.8877-0.9473-3.7012c-0.6318-0.8135-1.6113-1.2207-2.9395-1.2207c-1.7842,0-3.0894,0.5566-3.916,1.6699
		c-0.8271,1.1133-1.2402,2.8223-1.2402,5.127V590.5752z"/>
	<path fill="#4B5666" d="M240.2524,590.9658c-3.3594,0-5.9863-0.9795-7.8809-2.9395s-2.8418-4.6582-2.8418-8.0957
		c0-3.5283,0.8789-6.3018,2.6367-8.3203s4.1729-3.0273,7.2461-3.0273c2.8516,0,5.104,0.8662,6.7578,2.5977
		c1.6533,1.7314,2.4805,4.1143,2.4805,7.1484v2.4805h-14.3945c0.0649,2.0967,0.6313,3.708,1.6992,4.834
		c1.0674,1.126,2.5713,1.6895,4.5117,1.6895c1.2759,0,2.4639-0.1201,3.5645-0.3613c1.1001-0.2412,2.2817-0.6416,3.5449-1.2012
		v3.7305c-1.1201,0.5342-2.2529,0.9111-3.3984,1.1328C243.0322,590.8555,241.7236,590.9658,240.2524,590.9658z M239.4126,572.0596
		c-1.4585,0-2.627,0.4619-3.5059,1.3867s-1.4033,2.2725-1.5723,4.043h9.8047c-0.0264-1.7842-0.4561-3.1348-1.2891-4.0527
		C242.0166,572.5186,240.8706,572.0596,239.4126,572.0596z"/>
	<path fill="#4B5666" d="M272.8696,590.5752h-4.6094v-13.2812c0-1.667-0.3354-2.9102-1.0059-3.7305
		c-0.6709-0.8203-1.7354-1.2305-3.1934-1.2305c-1.9404,0-3.3594,0.5732-4.2578,1.7188s-1.3477,3.0664-1.3477,5.7617v10.7617h-4.5898
		v-21.6016h3.5938l0.6445,2.832h0.2344c0.6509-1.0283,1.5752-1.8232,2.7734-2.3828c1.1978-0.5596,2.5259-0.8398,3.9844-0.8398
		c5.1821,0,7.7734,2.6367,7.7734,7.9102V590.5752z"/>
	<path fill="#4B5666" d="M287.3032,587.2549c1.1196,0,2.2393-0.1758,3.3594-0.5273v3.457
		c-0.5078,0.2217-1.1621,0.4072-1.9629,0.5566s-1.6309,0.2246-2.4902,0.2246c-4.3491,0-6.5234-2.292-6.5234-6.875v-11.6406h-2.9492
		v-2.0312l3.1641-1.6797l1.5625-4.5703h2.832v4.8047h6.1523v3.4766h-6.1523v11.5625c0,1.1064,0.2764,1.9238,0.8301,2.4512
		C285.6787,586.9912,286.4048,587.2549,287.3032,587.2549z"/>
	<path fill="#4B5666" d="M304.4126,590.9658c-3.3594,0-5.9863-0.9795-7.8809-2.9395s-2.8418-4.6582-2.8418-8.0957
		c0-3.5283,0.8789-6.3018,2.6367-8.3203s4.1729-3.0273,7.2461-3.0273c2.8516,0,5.104,0.8662,6.7578,2.5977
		c1.6533,1.7314,2.4805,4.1143,2.4805,7.1484v2.4805h-14.3945c0.0649,2.0967,0.6313,3.708,1.6992,4.834
		c1.0674,1.126,2.5713,1.6895,4.5117,1.6895c1.2759,0,2.4639-0.1201,3.5645-0.3613c1.1001-0.2412,2.2817-0.6416,3.5449-1.2012
		v3.7305c-1.1201,0.5342-2.2529,0.9111-3.3984,1.1328C307.1924,590.8555,305.8838,590.9658,304.4126,590.9658z M303.5728,572.0596
		c-1.4585,0-2.627,0.4619-3.5059,1.3867s-1.4033,2.2725-1.5723,4.043h9.8047c-0.0264-1.7842-0.4561-3.1348-1.2891-4.0527
		C306.1768,572.5186,305.0308,572.0596,303.5728,572.0596z"/>
	<path fill="#4B5666" d="M328.9829,568.583c0.9243,0,1.686,0.0654,2.2852,0.1953l-0.4492,4.2773
		c-0.6514-0.1562-1.3281-0.2344-2.0312-0.2344c-1.8359,0-3.3237,0.5986-4.4629,1.7969c-1.1396,1.1982-1.709,2.7539-1.709,4.668
		v11.2891h-4.5898v-21.6016h3.5938l0.6055,3.8086h0.2344c0.7158-1.2891,1.6504-2.3115,2.8027-3.0664
		S327.6548,568.583,328.9829,568.583z"/>
	<path fill="#4B5666" d="M348.7876,590.5752l-0.918-3.0078h-0.1562c-1.042,1.3154-2.0898,2.21-3.1445,2.6855
		s-2.4092,0.7129-4.0625,0.7129c-2.1226,0-3.7793-0.5732-4.9707-1.7188s-1.7871-2.7666-1.7871-4.8633
		c0-2.2266,0.8267-3.9062,2.4805-5.0391c1.6533-1.1328,4.1729-1.751,7.5586-1.8555l3.7305-0.1172v-1.1523
		c0-1.3799-0.3223-2.4121-0.9668-3.0957s-1.644-1.0254-2.998-1.0254c-1.1069,0-2.168,0.1631-3.1836,0.4883
		s-1.9922,0.71-2.9297,1.1523l-1.4844-3.2812c1.1719-0.6123,2.4541-1.0771,3.8477-1.3965c1.3931-0.3193,2.708-0.4785,3.9453-0.4785
		c2.7471,0,4.8208,0.5986,6.2207,1.7969c1.3994,1.1982,2.0996,3.0791,2.0996,5.6445v14.5508H348.7876z M341.9517,587.4502
		c1.6665,0,3.0044-0.4658,4.0137-1.3965c1.0088-0.9307,1.5137-2.2363,1.5137-3.916v-1.875l-2.7734,0.1172
		c-2.1616,0.0781-3.7339,0.4395-4.7168,1.084c-0.9834,0.6445-1.4746,1.6309-1.4746,2.959c0,0.9639,0.2861,1.709,0.8594,2.2363
		C339.9463,587.1865,340.8057,587.4502,341.9517,587.4502z"/>
	<path fill="#4B5666" d="M168.5142,627.7354c0,3.5283-0.9053,6.2822-2.7148,8.2617c-1.8101,1.9795-4.3296,2.9688-7.5586,2.9688
		c-2.0186,0-3.8022-0.4561-5.3516-1.3672c-1.5498-0.9111-2.7412-2.2197-3.5742-3.9258c-0.8335-1.7061-1.25-3.6846-1.25-5.9375
		c0-3.5029,0.8984-6.2373,2.6953-8.2031s4.3291-2.9492,7.5977-2.9492c3.125,0,5.5986,1.0059,7.4219,3.0176
		C167.6025,621.6123,168.5142,624.3242,168.5142,627.7354z M152.7915,627.7354c0,4.9873,1.8423,7.4805,5.5273,7.4805
		c3.6455,0,5.4688-2.4932,5.4688-7.4805c0-4.9346-1.8359-7.4023-5.5078-7.4023c-1.9272,0-3.3237,0.6377-4.1895,1.9141
		C153.2241,623.5234,152.7915,625.3525,152.7915,627.7354z"/>
	<path fill="#4B5666" d="M182.4985,638.9658c-3.2686,0-5.752-0.9541-7.4512-2.8613s-2.5488-4.6455-2.5488-8.2129
		c0-3.6328,0.8887-6.4258,2.666-8.3789s4.3457-2.9297,7.7051-2.9297c2.2783,0,4.3291,0.4229,6.1523,1.2695l-1.3867,3.6914
		c-1.9404-0.7549-3.542-1.1328-4.8047-1.1328c-3.7373,0-5.6055,2.4805-5.6055,7.4414c0,2.4219,0.4653,4.2412,1.3965,5.459
		c0.9307,1.2178,2.2949,1.8262,4.0918,1.8262c2.0439,0,3.9775-0.5078,5.8008-1.5234v4.0039
		c-0.8203,0.4814-1.6963,0.8271-2.627,1.0352C184.9561,638.8613,183.8267,638.9658,182.4985,638.9658z"/>
	<path fill="#4B5666" d="M212.5962,638.5752h-4.6094v-13.2812c0-1.667-0.3354-2.9102-1.0059-3.7305
		c-0.6709-0.8203-1.7354-1.2305-3.1934-1.2305c-1.9272,0-3.3433,0.5762-4.248,1.7285c-0.9053,1.1523-1.3574,3.083-1.3574,5.791
		v10.7227h-4.5898v-30.3906h4.5898v7.7148c0,1.2373-0.0781,2.5586-0.2344,3.9648h0.293c0.625-1.042,1.4941-1.8486,2.6074-2.4219
		s2.4121-0.8594,3.8965-0.8594c5.2344,0,7.8516,2.6367,7.8516,7.9102V638.5752z"/>
	<path fill="#4B5666" d="M233.9634,638.5752h-4.5898v-30.3906h4.5898V638.5752z"/>
	<path fill="#4B5666" d="M254.0415,638.5752l-0.918-3.0078h-0.1562c-1.042,1.3154-2.0898,2.21-3.1445,2.6855
		s-2.4092,0.7129-4.0625,0.7129c-2.1226,0-3.7793-0.5732-4.9707-1.7188s-1.7871-2.7666-1.7871-4.8633
		c0-2.2266,0.8267-3.9062,2.4805-5.0391c1.6533-1.1328,4.1729-1.751,7.5586-1.8555l3.7305-0.1172v-1.1523
		c0-1.3799-0.3223-2.4121-0.9668-3.0957s-1.644-1.0254-2.998-1.0254c-1.1069,0-2.168,0.1631-3.1836,0.4883
		s-1.9922,0.71-2.9297,1.1523l-1.4844-3.2812c1.1719-0.6123,2.4541-1.0771,3.8477-1.3965c1.3931-0.3193,2.708-0.4785,3.9453-0.4785
		c2.7471,0,4.8208,0.5986,6.2207,1.7969c1.3994,1.1982,2.0996,3.0791,2.0996,5.6445v14.5508H254.0415z M242.7524,611.251
		c0-0.8076,0.2178-1.3896,0.6543-1.748c0.436-0.3584,0.9668-0.5371,1.5918-0.5371c0.6899,0,1.2402,0.2021,1.6504,0.6055
		s0.6152,0.9639,0.6152,1.6797c0,0.6904-0.2085,1.2432-0.625,1.6602c-0.417,0.417-0.9639,0.625-1.6406,0.625
		c-0.625,0-1.1558-0.1885-1.5918-0.5664C242.9702,612.5918,242.7524,612.0195,242.7524,611.251z M247.2056,635.4502
		c1.6665,0,3.0044-0.4658,4.0137-1.3965c1.0088-0.9307,1.5137-2.2363,1.5137-3.916v-1.875l-2.7734,0.1172
		c-2.1616,0.0781-3.7339,0.4395-4.7168,1.084c-0.9834,0.6445-1.4746,1.6309-1.4746,2.959c0,0.9639,0.2861,1.709,0.8594,2.2363
		C245.2002,635.1865,246.0596,635.4502,247.2056,635.4502z M250.4282,611.251c0-0.8076,0.2178-1.3896,0.6543-1.748
		c0.436-0.3584,0.9668-0.5371,1.5918-0.5371c0.6899,0,1.2432,0.2021,1.6602,0.6055c0.4165,0.4033,0.625,0.9639,0.625,1.6797
		c0,0.7031-0.2148,1.2598-0.6445,1.6699s-0.9766,0.6152-1.6406,0.6152c-0.625,0-1.1558-0.1885-1.5918-0.5664
		C250.646,612.5918,250.4282,612.0195,250.4282,611.251z"/>
	<path fill="#4B5666" d="M274.686,616.583c0.9243,0,1.686,0.0654,2.2852,0.1953l-0.4492,4.2773
		c-0.6514-0.1562-1.3281-0.2344-2.0312-0.2344c-1.8359,0-3.3237,0.5986-4.4629,1.7969c-1.1396,1.1982-1.709,2.7539-1.709,4.668
		v11.2891h-4.5898v-21.6016h3.5938l0.6055,3.8086h0.2344c0.7158-1.2891,1.6504-2.3115,2.8027-3.0664
		S273.3579,616.583,274.686,616.583z"/>
	<path fill="#4B5666" d="M121.2778,686.9658c-2.6953,0-4.7983-0.9766-6.3086-2.9297c-1.5107-1.9531-2.2656-4.6943-2.2656-8.2227
		c0-3.542,0.7646-6.2988,2.2949-8.2715c1.5298-1.9727,3.6489-2.959,6.3574-2.959c2.8384,0,5,1.0479,6.4844,3.1445h0.2344
		c-0.2217-1.5498-0.332-2.7734-0.332-3.6719v-7.8711h4.6094v30.3906h-3.5938l-0.8008-2.832h-0.2148
		C126.271,685.8916,124.1162,686.9658,121.2778,686.9658z M122.5083,683.2549c1.8877,0,3.2617-0.5303,4.1211-1.5918
		s1.3018-2.7832,1.3281-5.166v-0.6445c0-2.7217-0.4429-4.6553-1.3281-5.8008c-0.8857-1.1455-2.2725-1.7188-4.1602-1.7188
		c-1.6147,0-2.8584,0.6543-3.7305,1.9629c-0.8726,1.3086-1.3086,3.1738-1.3086,5.5957c0,2.3955,0.4229,4.2217,1.2695,5.4785
		C119.5459,682.627,120.8154,683.2549,122.5083,683.2549z"/>
	<path fill="#4B5666" d="M138.6411,659.251c0-0.8203,0.2246-1.4521,0.6738-1.8945s1.0903-0.6641,1.9238-0.6641
		c0.8071,0,1.4355,0.2217,1.8848,0.6641s0.6738,1.0742,0.6738,1.8945c0,0.7812-0.2246,1.3965-0.6738,1.8457
		s-1.0776,0.6738-1.8848,0.6738c-0.8335,0-1.4746-0.2246-1.9238-0.6738S138.6411,660.0322,138.6411,659.251z M143.5044,686.5752
		h-4.5898v-21.6016h4.5898V686.5752z"/>
	<path fill="#4B5666" d="M168.3091,664.9736v2.5195l-3.6914,0.6836c0.3384,0.4561,0.6182,1.0156,0.8398,1.6797
		c0.2212,0.6641,0.332,1.3672,0.332,2.1094c0,2.2266-0.7686,3.9775-2.3047,5.2539c-1.5366,1.2764-3.6523,1.9141-6.3477,1.9141
		c-0.6904,0-1.3154-0.0518-1.875-0.1562c-0.9897,0.6123-1.4844,1.3281-1.4844,2.1484c0,0.4951,0.231,0.8662,0.6934,1.1133
		c0.4619,0.2471,1.3115,0.3711,2.5488,0.3711h3.7695c2.3828,0,4.1924,0.5078,5.4297,1.5234
		c1.2368,1.0156,1.8555,2.4805,1.8555,4.3945c0,2.4482-1.0093,4.3359-3.0273,5.6641c-2.0186,1.3281-4.9351,1.9922-8.75,1.9922
		c-2.9429,0-5.189-0.5205-6.7383-1.5625c-1.5498-1.042-2.3242-2.5264-2.3242-4.4531c0-1.3281,0.4199-2.4443,1.2598-3.3496
		s2.0146-1.5332,3.5254-1.8848c-0.6123-0.2607-1.1167-0.6807-1.5137-1.2598c-0.3975-0.5791-0.5957-1.1885-0.5957-1.8262
		c0-0.8076,0.2275-1.4912,0.6836-2.0508c0.4556-0.5596,1.1328-1.1133,2.0312-1.6602c-1.1201-0.4814-2.0283-1.2666-2.7246-2.3535
		c-0.6968-1.0869-1.0449-2.3604-1.0449-3.8184c0-2.3438,0.7388-4.1602,2.2168-5.4492c1.4775-1.2891,3.584-1.9336,6.3184-1.9336
		c0.6118,0,1.2529,0.042,1.9238,0.127c0.6704,0.085,1.1748,0.1729,1.5137,0.2637H168.3091z M151.3364,689.9346
		c0,0.9893,0.4458,1.751,1.3379,2.2852c0.8916,0.5342,2.145,0.8008,3.7598,0.8008c2.5,0,4.3618-0.3584,5.5859-1.0742
		c1.2236-0.7158,1.8359-1.667,1.8359-2.8516c0-0.9375-0.3354-1.6045-1.0059-2.002c-0.6709-0.3975-1.9175-0.5957-3.7402-0.5957
		h-3.4766c-1.3154,0-2.3604,0.3096-3.1348,0.9277C151.7236,688.043,151.3364,688.8799,151.3364,689.9346z M153.3091,671.9658
		c0,1.3545,0.3481,2.3955,1.0449,3.125c0.6963,0.7295,1.6958,1.0938,2.998,1.0938c2.6562,0,3.9844-1.4189,3.9844-4.2578
		c0-1.4062-0.3291-2.4902-0.9863-3.252c-0.6577-0.7617-1.6572-1.1426-2.998-1.1426c-1.3281,0-2.334,0.3779-3.0176,1.1328
		S153.3091,670.5205,153.3091,671.9658z"/>
	<path fill="#4B5666" d="M197.2153,680.4229c0,2.1094-0.7686,3.7275-2.3047,4.8535c-1.5366,1.126-3.7373,1.6895-6.6016,1.6895
		c-2.8779,0-5.189-0.4365-6.9336-1.3086v-3.9648c2.5391,1.1719,4.9023,1.7578,7.0898,1.7578c2.8252,0,4.2383-0.8525,4.2383-2.5586
		c0-0.5469-0.1562-1.0029-0.4688-1.3672s-0.8271-0.7422-1.543-1.1328c-0.7163-0.3906-1.7124-0.833-2.9883-1.3281
		c-2.4873-0.9639-4.1699-1.9268-5.0488-2.8906s-1.3184-2.2139-1.3184-3.75c0-1.8486,0.7451-3.2842,2.2363-4.3066
		c1.4907-1.0225,3.5186-1.5332,6.084-1.5332c2.5391,0,4.9414,0.5146,7.207,1.543l-1.4844,3.457
		c-2.3311-0.9639-4.2905-1.4453-5.8789-1.4453c-2.4219,0-3.6328,0.6904-3.6328,2.0703c0,0.6768,0.3154,1.25,0.9473,1.7188
		c0.6313,0.4688,2.0083,1.1133,4.1309,1.9336c1.7837,0.6904,3.0791,1.3213,3.8867,1.8945c0.8071,0.5732,1.4062,1.2334,1.7969,1.9824
		S197.2153,679.3809,197.2153,680.4229z"/>
	<path fill="#4B5666" d="M221.1802,686.5752h-4.6094v-13.2812c0-1.667-0.3354-2.9102-1.0059-3.7305
		c-0.6709-0.8203-1.7354-1.2305-3.1934-1.2305c-1.9404,0-3.3594,0.5732-4.2578,1.7188s-1.3477,3.0664-1.3477,5.7617v10.7617h-4.5898
		v-21.6016h3.5938l0.6445,2.832h0.2344c0.6509-1.0283,1.5752-1.8232,2.7734-2.3828c1.1978-0.5596,2.5259-0.8398,3.9844-0.8398
		c5.1821,0,7.7734,2.6367,7.7734,7.9102V686.5752z"/>
	<path fill="#4B5666" d="M241.0825,686.5752l-0.918-3.0078h-0.1562c-1.042,1.3154-2.0898,2.21-3.1445,2.6855
		s-2.4092,0.7129-4.0625,0.7129c-2.1226,0-3.7793-0.5732-4.9707-1.7188s-1.7871-2.7666-1.7871-4.8633
		c0-2.2266,0.8267-3.9062,2.4805-5.0391c1.6533-1.1328,4.1729-1.751,7.5586-1.8555l3.7305-0.1172v-1.1523
		c0-1.3799-0.3223-2.4121-0.9668-3.0957s-1.644-1.0254-2.998-1.0254c-1.1069,0-2.168,0.1631-3.1836,0.4883
		s-1.9922,0.71-2.9297,1.1523l-1.4844-3.2812c1.1719-0.6123,2.4541-1.0771,3.8477-1.3965c1.3931-0.3193,2.708-0.4785,3.9453-0.4785
		c2.7471,0,4.8208,0.5986,6.2207,1.7969c1.3994,1.1982,2.0996,3.0791,2.0996,5.6445v14.5508H241.0825z M234.2466,683.4502
		c1.6665,0,3.0044-0.4658,4.0137-1.3965c1.0088-0.9307,1.5137-2.2363,1.5137-3.916v-1.875l-2.7734,0.1172
		c-2.1616,0.0781-3.7339,0.4395-4.7168,1.084c-0.9834,0.6445-1.4746,1.6309-1.4746,2.959c0,0.9639,0.2861,1.709,0.8594,2.2363
		C232.2412,683.1865,233.1006,683.4502,234.2466,683.4502z"/>
	<path fill="#4B5666" d="M261.8052,664.583c2.6953,0,4.7949,0.9766,6.2988,2.9297s2.2559,4.6943,2.2559,8.2227
		c0,3.542-0.7617,6.2988-2.2852,8.2715s-3.6396,2.959-6.3477,2.959c-2.7344,0-4.8569-0.9834-6.3672-2.9492h-0.3125l-0.8398,2.5586
		H250.77v-30.3906h4.5898v7.2266c0,0.5342-0.0264,1.3281-0.0781,2.3828c-0.0522,1.0547-0.0913,1.7256-0.1172,2.0117h0.1953
		C256.8179,665.6572,258.9663,664.583,261.8052,664.583z M260.6138,668.333c-1.8491,0-3.1807,0.5439-3.9941,1.6309
		c-0.814,1.0869-1.2339,2.9072-1.2598,5.459v0.3125c0,2.6299,0.4165,4.5342,1.25,5.7129c0.833,1.1787,2.1938,1.7676,4.082,1.7676
		c1.6274,0,2.8613-0.6445,3.7012-1.9336s1.2598-3.1514,1.2598-5.5859C265.6528,670.7871,263.9731,668.333,260.6138,668.333z"/>
	<path fill="#4B5666" d="M286.7271,664.583c2.6953,0,4.7949,0.9766,6.2988,2.9297s2.2559,4.6943,2.2559,8.2227
		c0,3.542-0.7617,6.2988-2.2852,8.2715s-3.6396,2.959-6.3477,2.959c-2.7344,0-4.8569-0.9834-6.3672-2.9492h-0.3125l-0.8398,2.5586
		h-3.4375v-30.3906h4.5898v7.2266c0,0.5342-0.0264,1.3281-0.0781,2.3828c-0.0522,1.0547-0.0913,1.7256-0.1172,2.0117h0.1953
		C281.7397,665.6572,283.8882,664.583,286.7271,664.583z M285.5356,668.333c-1.8491,0-3.1807,0.5439-3.9941,1.6309
		c-0.814,1.0869-1.2339,2.9072-1.2598,5.459v0.3125c0,2.6299,0.4165,4.5342,1.25,5.7129c0.833,1.1787,2.1938,1.7676,4.082,1.7676
		c1.6274,0,2.8613-0.6445,3.7012-1.9336s1.2598-3.1514,1.2598-5.5859C290.5747,670.7871,288.895,668.333,285.5356,668.333z"/>
	<path fill="#4B5666" d="M308.6606,683.2549c1.1196,0,2.2393-0.1758,3.3594-0.5273v3.457
		c-0.5078,0.2217-1.1621,0.4072-1.9629,0.5566s-1.6309,0.2246-2.4902,0.2246c-4.3491,0-6.5234-2.292-6.5234-6.875v-11.6406h-2.9492
		v-2.0312l3.1641-1.6797l1.5625-4.5703h2.832v4.8047h6.1523v3.4766h-6.1523v11.5625c0,1.1064,0.2764,1.9238,0.8301,2.4512
		C307.0361,682.9912,307.7622,683.2549,308.6606,683.2549z"/>
</g>
<path fill-rule="evenodd" clip-rule="evenodd" fill="#4B5666" d="M243.4507,506.4004c0,11.8926-6.5791,22.2422-16.2925,27.623
	c0,0-1.1807,0.6758-2.7192,0.9424c-1.4961,0.2578-2.6011,0.3066-2.6011,0.3066h-9.9546h-9.9531c0,0-1.1064-0.0488-2.603-0.3066
	c-1.5381-0.2666-2.7188-0.9424-2.7188-0.9424c-9.7134-5.3809-16.2925-15.7305-16.2925-27.623
	c0-13.1309,8.019-24.3857,19.4258-29.1436v-17.9307c-1.5508,0-2.8081-1.2578-2.8081-2.8066v-4.9395
	c0-1.5508,1.2573-2.8076,2.8081-2.8076h24.2832c1.5508,0,2.8086,1.2568,2.8086,2.8076v4.9395c0,1.5488-1.2578,2.8066-2.8086,2.8066
	v17.9307C235.4316,482.0146,243.4507,493.2695,243.4507,506.4004z M220.0063,450.6797h-16.2451
	c-1.0239,0-1.8535,0.8311-1.8535,1.8545c0,1.0244,0.8296,1.8535,1.8535,1.8535h16.2451c1.0239,0,1.8545-0.8291,1.8545-1.8535
	C221.8608,451.5107,221.0303,450.6797,220.0063,450.6797z M221.8008,482.5908c-2.1523-0.8975-3.5557-3.002-3.5557-5.334v-17.9307
	h-12.7236v17.9307c0,2.332-1.4023,4.4365-3.5552,5.334c-9.6401,4.0215-15.8711,13.3682-15.8711,23.8096
	c0,9.3691,5.1001,18.0166,13.3096,22.5664c0.1255,0.0625,0.5244,0.2373,0.9072,0.3047c0.853,0.1465,1.54,0.2031,1.7881,0.2207
	h9.7832h9.7852c0.2339-0.0156,0.9263-0.0723,1.7881-0.2217c0.3828-0.0664,0.7793-0.2412,0.9053-0.3037
	c8.2095-4.5498,13.3096-13.1973,13.3096-22.5664C237.6714,495.959,231.4419,486.6123,221.8008,482.5908z M233.9639,506.4004
	c0,7.9629-4.3003,15.3135-11.2388,19.2344c-0.5337,0.0879-0.9756,0.1328-1.2031,0.1504h-19.2817
	c-0.2104-0.0176-0.6558-0.0615-1.1963-0.1504c-6.939-3.9199-11.2427-11.2715-11.2427-19.2344c0-2.8027,0.5332-5.4854,1.4907-7.9551
	h41.1841C233.4336,500.915,233.9639,503.5977,233.9639,506.4004z M205.1714,518.9609c-4.7559-3.0137-7.7012-8.3418-7.7012-13.9648
	c0-1.0234-0.8296-1.8525-1.854-1.8525c-1.0229,0-1.854,0.8291-1.854,1.8525c0,6.9775,3.7026,13.5859,9.6621,17.2441l0.3779,0.2197
	l0.5547,0.0596c0.0537,0.0049,0.1069,0.0068,0.1611,0.0068c0.9482,0,1.7227-0.7314,1.8062-1.6963
	C206.395,520.0107,205.8979,519.2676,205.1714,518.9609z"/>
<g>
	<path fill="#4B5666" d="M859.0244,590.5752v-28.5547h4.668v24.5508h12.0898v4.0039H859.0244z"/>
	<path fill="#4B5666" d="M889.6494,590.9658c-3.3594,0-5.9863-0.9795-7.8809-2.9395s-2.8418-4.6582-2.8418-8.0957
		c0-3.5283,0.8789-6.3018,2.6367-8.3203s4.1729-3.0273,7.2461-3.0273c2.8516,0,5.1045,0.8662,6.7578,2.5977
		s2.4805,4.1143,2.4805,7.1484v2.4805h-14.3945c0.0654,2.0967,0.6318,3.708,1.6992,4.834s2.5713,1.6895,4.5117,1.6895
		c1.2764,0,2.4639-0.1201,3.5645-0.3613s2.2822-0.6416,3.5449-1.2012v3.7305c-1.1201,0.5342-2.2529,0.9111-3.3984,1.1328
		S891.1211,590.9658,889.6494,590.9658z M888.8096,572.0596c-1.458,0-2.627,0.4619-3.5059,1.3867s-1.4033,2.2725-1.5723,4.043
		h9.8047c-0.0264-1.7842-0.4561-3.1348-1.2891-4.0527S890.2676,572.0596,888.8096,572.0596z"/>
	<path fill="#4B5666" d="M908.1846,590.5752l-8.2031-21.6016h4.8438l4.3945,12.5586c0.7549,2.1094,1.2109,3.8154,1.3672,5.1172
		h0.1562c0.1172-0.9375,0.5732-2.6436,1.3672-5.1172l4.3945-12.5586h4.8828l-8.2422,21.6016H908.1846z"/>
	<path fill="#4B5666" d="M934.1025,590.9658c-3.3594,0-5.9863-0.9795-7.8809-2.9395s-2.8418-4.6582-2.8418-8.0957
		c0-3.5283,0.8789-6.3018,2.6367-8.3203s4.1729-3.0273,7.2461-3.0273c2.8516,0,5.1045,0.8662,6.7578,2.5977
		s2.4805,4.1143,2.4805,7.1484v2.4805h-14.3945c0.0654,2.0967,0.6318,3.708,1.6992,4.834s2.5713,1.6895,4.5117,1.6895
		c1.2764,0,2.4639-0.1201,3.5645-0.3613s2.2822-0.6416,3.5449-1.2012v3.7305c-1.1201,0.5342-2.2529,0.9111-3.3984,1.1328
		S935.5742,590.9658,934.1025,590.9658z M933.2627,572.0596c-1.458,0-2.627,0.4619-3.5059,1.3867s-1.4033,2.2725-1.5723,4.043
		h9.8047c-0.0264-1.7842-0.4561-3.1348-1.2891-4.0527S934.7207,572.0596,933.2627,572.0596z"/>
	<path fill="#4B5666" d="M958.6729,568.583c0.9248,0,1.6865,0.0654,2.2852,0.1953l-0.4492,4.2773
		c-0.6514-0.1562-1.3281-0.2344-2.0312-0.2344c-1.8359,0-3.3232,0.5986-4.4629,1.7969s-1.709,2.7539-1.709,4.668v11.2891h-4.5898
		v-21.6016h3.5938l0.6055,3.8086h0.2344c0.7158-1.2891,1.6504-2.3115,2.8027-3.0664S957.3447,568.583,958.6729,568.583z"/>
	<path fill="#4B5666" d="M974.3955,590.9658c-3.3594,0-5.9863-0.9795-7.8809-2.9395s-2.8418-4.6582-2.8418-8.0957
		c0-3.5283,0.8789-6.3018,2.6367-8.3203s4.1729-3.0273,7.2461-3.0273c2.8516,0,5.1045,0.8662,6.7578,2.5977
		s2.4805,4.1143,2.4805,7.1484v2.4805h-14.3945c0.0654,2.0967,0.6318,3.708,1.6992,4.834s2.5713,1.6895,4.5117,1.6895
		c1.2764,0,2.4639-0.1201,3.5645-0.3613s2.2822-0.6416,3.5449-1.2012v3.7305c-1.1201,0.5342-2.2529,0.9111-3.3984,1.1328
		S975.8672,590.9658,974.3955,590.9658z M973.5557,572.0596c-1.458,0-2.627,0.4619-3.5059,1.3867s-1.4033,2.2725-1.5723,4.043
		h9.8047c-0.0264-1.7842-0.4561-3.1348-1.2891-4.0527S975.0137,572.0596,973.5557,572.0596z"/>
	<path fill="#4B5666" d="M998.9658,568.583c0.9248,0,1.6865,0.0654,2.2852,0.1953l-0.4492,4.2773
		c-0.6514-0.1562-1.3281-0.2344-2.0312-0.2344c-1.8359,0-3.3232,0.5986-4.4629,1.7969s-1.709,2.7539-1.709,4.668v11.2891h-4.5898
		v-21.6016h3.5938l0.6055,3.8086h0.2344c0.7158-1.2891,1.6504-2.3115,2.8027-3.0664S997.6377,568.583,998.9658,568.583z"/>
	<path fill="#4B5666" d="M1018.7705,590.5752l-0.918-3.0078h-0.1562c-1.042,1.3154-2.0898,2.21-3.1445,2.6855
		s-2.4092,0.7129-4.0625,0.7129c-2.1221,0-3.7793-0.5732-4.9707-1.7188s-1.7871-2.7666-1.7871-4.8633
		c0-2.2266,0.8271-3.9062,2.4805-5.0391s4.1729-1.751,7.5586-1.8555l3.7305-0.1172v-1.1523c0-1.3799-0.3223-2.4121-0.9668-3.0957
		s-1.6436-1.0254-2.998-1.0254c-1.1064,0-2.168,0.1631-3.1836,0.4883s-1.9922,0.71-2.9297,1.1523l-1.4844-3.2812
		c1.1719-0.6123,2.4541-1.0771,3.8477-1.3965s2.708-0.4785,3.9453-0.4785c2.7471,0,4.8213,0.5986,6.2207,1.7969
		s2.0996,3.0791,2.0996,5.6445v14.5508H1018.7705z M1011.9346,587.4502c1.667,0,3.0049-0.4658,4.0137-1.3965
		s1.5137-2.2363,1.5137-3.916v-1.875l-2.7734,0.1172c-2.1611,0.0781-3.7334,0.4395-4.7168,1.084s-1.4746,1.6309-1.4746,2.959
		c0,0.9639,0.2861,1.709,0.8594,2.2363S1010.7891,587.4502,1011.9346,587.4502z"/>
	<path fill="#4B5666" d="M893.5068,638.5752l-8.2031-21.6016h4.8438l4.3945,12.5586c0.7549,2.1094,1.2109,3.8154,1.3672,5.1172
		h0.1562c0.1172-0.9375,0.5732-2.6436,1.3672-5.1172l4.3945-12.5586h4.8828l-8.2422,21.6016H893.5068z"/>
	<path fill="#4B5666" d="M923.5068,638.5752l-0.918-3.0078h-0.1562c-1.042,1.3154-2.0898,2.21-3.1445,2.6855
		s-2.4092,0.7129-4.0625,0.7129c-2.1221,0-3.7793-0.5732-4.9707-1.7188s-1.7871-2.7666-1.7871-4.8633
		c0-2.2266,0.8271-3.9062,2.4805-5.0391s4.1729-1.751,7.5586-1.8555l3.7305-0.1172v-1.1523c0-1.3799-0.3223-2.4121-0.9668-3.0957
		s-1.6436-1.0254-2.998-1.0254c-1.1064,0-2.168,0.1631-3.1836,0.4883s-1.9922,0.71-2.9297,1.1523l-1.4844-3.2812
		c1.1719-0.6123,2.4541-1.0771,3.8477-1.3965s2.708-0.4785,3.9453-0.4785c2.7471,0,4.8213,0.5986,6.2207,1.7969
		s2.0996,3.0791,2.0996,5.6445v14.5508H923.5068z M912.2178,611.251c0-0.8076,0.2178-1.3896,0.6543-1.748
		s0.9668-0.5371,1.5918-0.5371c0.6904,0,1.2402,0.2021,1.6504,0.6055s0.6152,0.9639,0.6152,1.6797
		c0,0.6904-0.208,1.2432-0.625,1.6602s-0.9639,0.625-1.6406,0.625c-0.625,0-1.1553-0.1885-1.5918-0.5664
		S912.2178,612.0195,912.2178,611.251z M916.6709,635.4502c1.667,0,3.0049-0.4658,4.0137-1.3965s1.5137-2.2363,1.5137-3.916v-1.875
		l-2.7734,0.1172c-2.1611,0.0781-3.7334,0.4395-4.7168,1.084s-1.4746,1.6309-1.4746,2.959c0,0.9639,0.2861,1.709,0.8594,2.2363
		S915.5254,635.4502,916.6709,635.4502z M919.8936,611.251c0-0.8076,0.2178-1.3896,0.6543-1.748s0.9668-0.5371,1.5918-0.5371
		c0.6904,0,1.2432,0.2021,1.6602,0.6055s0.625,0.9639,0.625,1.6797c0,0.7031-0.2148,1.2598-0.6445,1.6699
		s-0.9766,0.6152-1.6406,0.6152c-0.625,0-1.1553-0.1885-1.5918-0.5664S919.8936,612.0195,919.8936,611.251z"/>
	<path fill="#4B5666" d="M944.1514,616.583c0.9248,0,1.6865,0.0654,2.2852,0.1953l-0.4492,4.2773
		c-0.6514-0.1562-1.3281-0.2344-2.0312-0.2344c-1.8359,0-3.3232,0.5986-4.4629,1.7969s-1.709,2.7539-1.709,4.668v11.2891h-4.5898
		v-21.6016h3.5938l0.6055,3.8086h0.2344c0.7158-1.2891,1.6504-2.3115,2.8027-3.0664S942.8232,616.583,944.1514,616.583z"/>
	<path fill="#4B5666" d="M957.7256,638.9658c-2.6953,0-4.7979-0.9766-6.3086-2.9297s-2.2656-4.6943-2.2656-8.2227
		c0-3.542,0.7646-6.2988,2.2949-8.2715s3.6494-2.959,6.3574-2.959c2.8389,0,5,1.0479,6.4844,3.1445h0.2344
		c-0.2217-1.5498-0.332-2.7734-0.332-3.6719v-7.8711h4.6094v30.3906h-3.5938l-0.8008-2.832h-0.2148
		C962.7188,637.8916,960.5645,638.9658,957.7256,638.9658z M958.9561,635.2549c1.8877,0,3.2617-0.5303,4.1211-1.5918
		s1.3018-2.7832,1.3281-5.166v-0.6445c0-2.7217-0.4424-4.6553-1.3281-5.8008s-2.2725-1.7188-4.1602-1.7188
		c-1.6143,0-2.8584,0.6543-3.7305,1.9629s-1.3086,3.1738-1.3086,5.5957c0,2.3955,0.4229,4.2217,1.2695,5.4785
		S957.2637,635.2549,958.9561,635.2549z"/>
	<path fill="#4B5666" d="M984.7959,638.9658c-3.3594,0-5.9863-0.9795-7.8809-2.9395s-2.8418-4.6582-2.8418-8.0957
		c0-3.5283,0.8789-6.3018,2.6367-8.3203s4.1729-3.0273,7.2461-3.0273c2.8516,0,5.1045,0.8662,6.7578,2.5977
		s2.4805,4.1143,2.4805,7.1484v2.4805h-14.3945c0.0654,2.0967,0.6318,3.708,1.6992,4.834s2.5713,1.6895,4.5117,1.6895
		c1.2764,0,2.4639-0.1201,3.5645-0.3613s2.2822-0.6416,3.5449-1.2012v3.7305c-1.1201,0.5342-2.2529,0.9111-3.3984,1.1328
		S986.2676,638.9658,984.7959,638.9658z M983.9561,620.0596c-1.458,0-2.627,0.4619-3.5059,1.3867s-1.4033,2.2725-1.5723,4.043
		h9.8047c-0.0264-1.7842-0.4561-3.1348-1.2891-4.0527S985.4141,620.0596,983.9561,620.0596z"/>
	<path fill="#4B5666" d="M869.5518,686.5752h-4.5898v-30.3906h4.5898V686.5752z"/>
	<path fill="#4B5666" d="M895.2744,675.7354c0,3.5283-0.9053,6.2822-2.7148,8.2617s-4.3291,2.9688-7.5586,2.9688
		c-2.0186,0-3.8018-0.4561-5.3516-1.3672s-2.7412-2.2197-3.5742-3.9258s-1.25-3.6846-1.25-5.9375
		c0-3.5029,0.8984-6.2373,2.6953-8.2031s4.3291-2.9492,7.5977-2.9492c3.125,0,5.5986,1.0059,7.4219,3.0176
		S895.2744,672.3242,895.2744,675.7354z M878.9072,659.251c0-0.8076,0.2178-1.3896,0.6543-1.748s0.9668-0.5371,1.5918-0.5371
		c0.6904,0,1.2402,0.2021,1.6504,0.6055s0.6152,0.9639,0.6152,1.6797c0,0.6904-0.208,1.2432-0.625,1.6602
		s-0.9639,0.625-1.6406,0.625c-0.625,0-1.1553-0.1885-1.5918-0.5664S878.9072,660.0195,878.9072,659.251z M879.5518,675.7354
		c0,4.9873,1.8428,7.4805,5.5273,7.4805c3.6455,0,5.4688-2.4932,5.4688-7.4805c0-4.9346-1.8359-7.4023-5.5078-7.4023
		c-1.9268,0-3.3232,0.6377-4.1895,1.9141S879.5518,673.3525,879.5518,675.7354z M886.583,659.251
		c0-0.8076,0.2178-1.3896,0.6543-1.748s0.9668-0.5371,1.5918-0.5371c0.6904,0,1.2432,0.2021,1.6602,0.6055
		s0.625,0.9639,0.625,1.6797c0,0.7031-0.2148,1.2598-0.6445,1.6699s-0.9766,0.6152-1.6406,0.6152
		c-0.625,0-1.1553-0.1885-1.5918-0.5664S886.583,660.0195,886.583,659.251z"/>
	<path fill="#4B5666" d="M911.5049,686.9658c-2.7344,0-4.8564-0.9834-6.3672-2.9492h-0.2734
		c0.1826,1.8232,0.2734,2.9297,0.2734,3.3203v8.8477h-4.5898v-31.2109h3.7109c0.1045,0.4033,0.3193,1.3672,0.6445,2.8906h0.2344
		c1.4326-2.1875,3.5811-3.2812,6.4453-3.2812c2.6953,0,4.7949,0.9766,6.2988,2.9297s2.2559,4.6943,2.2559,8.2227
		s-0.7646,6.2822-2.2949,8.2617S914.2002,686.9658,911.5049,686.9658z M910.3916,668.333c-1.8232,0-3.1543,0.5342-3.9941,1.6016
		s-1.2598,2.7734-1.2598,5.1172v0.6836c0,2.6299,0.417,4.5342,1.25,5.7129s2.1943,1.7676,4.082,1.7676
		c1.5889,0,2.8125-0.6514,3.6719-1.9531s1.2891-3.1572,1.2891-5.5664c0-2.4219-0.4268-4.2549-1.2793-5.498
		S912.0449,668.333,910.3916,668.333z"/>
	<path fill="#4B5666" d="M938.9854,686.5752l-0.918-3.0078h-0.1562c-1.042,1.3154-2.0898,2.21-3.1445,2.6855
		s-2.4092,0.7129-4.0625,0.7129c-2.1221,0-3.7793-0.5732-4.9707-1.7188s-1.7871-2.7666-1.7871-4.8633
		c0-2.2266,0.8271-3.9062,2.4805-5.0391s4.1729-1.751,7.5586-1.8555l3.7305-0.1172v-1.1523c0-1.3799-0.3223-2.4121-0.9668-3.0957
		s-1.6436-1.0254-2.998-1.0254c-1.1064,0-2.168,0.1631-3.1836,0.4883s-1.9922,0.71-2.9297,1.1523l-1.4844-3.2812
		c1.1719-0.6123,2.4541-1.0771,3.8477-1.3965s2.708-0.4785,3.9453-0.4785c2.7471,0,4.8213,0.5986,6.2207,1.7969
		s2.0996,3.0791,2.0996,5.6445v14.5508H938.9854z M932.1494,683.4502c1.667,0,3.0049-0.4658,4.0137-1.3965
		s1.5137-2.2363,1.5137-3.916v-1.875l-2.7734,0.1172c-2.1611,0.0781-3.7334,0.4395-4.7168,1.084s-1.4746,1.6309-1.4746,2.959
		c0,0.9639,0.2861,1.709,0.8594,2.2363S931.0039,683.4502,932.1494,683.4502z"/>
	<path fill="#4B5666" d="M967.6768,686.5752h-4.6094v-13.2812c0-1.667-0.335-2.9102-1.0059-3.7305s-1.7354-1.2305-3.1934-1.2305
		c-1.9404,0-3.3594,0.5732-4.2578,1.7188s-1.3477,3.0664-1.3477,5.7617v10.7617h-4.5898v-21.6016h3.5938l0.6445,2.832h0.2344
		c0.6514-1.0283,1.5752-1.8232,2.7734-2.3828s2.5264-0.8398,3.9844-0.8398c5.1826,0,7.7734,2.6367,7.7734,7.9102V686.5752z"/>
	<path fill="#4B5666" d="M981.3486,686.9658c-2.6953,0-4.7979-0.9766-6.3086-2.9297s-2.2656-4.6943-2.2656-8.2227
		c0-3.542,0.7646-6.2988,2.2949-8.2715s3.6494-2.959,6.3574-2.959c2.8389,0,5,1.0479,6.4844,3.1445h0.2344
		c-0.2217-1.5498-0.332-2.7734-0.332-3.6719v-7.8711h4.6094v30.3906h-3.5938l-0.8008-2.832h-0.2148
		C986.3418,685.8916,984.1875,686.9658,981.3486,686.9658z M982.5791,683.2549c1.8877,0,3.2617-0.5303,4.1211-1.5918
		s1.3018-2.7832,1.3281-5.166v-0.6445c0-2.7217-0.4424-4.6553-1.3281-5.8008s-2.2725-1.7188-4.1602-1.7188
		c-1.6143,0-2.8584,0.6543-3.7305,1.9629s-1.3086,3.1738-1.3086,5.5957c0,2.3955,0.4229,4.2217,1.2695,5.4785
		S980.8867,683.2549,982.5791,683.2549z"/>
	<path fill="#4B5666" d="M1008.4189,686.9658c-3.3594,0-5.9863-0.9795-7.8809-2.9395s-2.8418-4.6582-2.8418-8.0957
		c0-3.5283,0.8789-6.3018,2.6367-8.3203s4.1729-3.0273,7.2461-3.0273c2.8516,0,5.1045,0.8662,6.7578,2.5977
		s2.4805,4.1143,2.4805,7.1484v2.4805h-14.3945c0.0654,2.0967,0.6318,3.708,1.6992,4.834s2.5713,1.6895,4.5117,1.6895
		c1.2764,0,2.4639-0.1201,3.5645-0.3613s2.2822-0.6416,3.5449-1.2012v3.7305c-1.1201,0.5342-2.2529,0.9111-3.3984,1.1328
		S1009.8906,686.9658,1008.4189,686.9658z M1007.5791,668.0596c-1.458,0-2.627,0.4619-3.5059,1.3867s-1.4033,2.2725-1.5723,4.043
		h9.8047c-0.0264-1.7842-0.4561-3.1348-1.2891-4.0527S1009.0371,668.0596,1007.5791,668.0596z"/>
</g>
<path fill-rule="evenodd" clip-rule="evenodd" fill="#4B5666" d="M991.1162,481.8281c-0.127,0-0.2627-0.0088-0.4053-0.0303
	l-5.4014-0.7549l-0.001,39.4395c0,1.5439-1.2178,3.1426-2.7061,3.5537l-39.6816,10.9277c-0.7441,0.2041-1.7266,0.3086-2.707,0.3086
	c-0.9814,0-1.9619-0.1045-2.707-0.3086l-39.6797-10.9277c-1.4902-0.4111-2.707-2.0098-2.707-3.5537l0.001-39.4395l-5.4033,0.7549
	c-0.1426,0.0215-0.2773,0.0303-0.4043,0.0303c-1.2461,0-1.7881-0.918-1.2031-2.1904l7.5938-16.5352
	c0.6445-1.4033,2.3887-2.8887,3.8789-3.2979l39.6797-10.9307c0.249-0.0684,0.4795-0.1016,0.6904-0.1016
	c0.0938,0,0.1777,0.0137,0.2617,0.0273c0.085-0.0137,0.168-0.0273,0.2607-0.0273c0.2119,0,0.4424,0.0332,0.6904,0.1016
	l39.6807,10.9307c1.4902,0.4092,3.2354,1.8945,3.8799,3.2979l7.5938,16.5352C992.9053,480.9102,992.3643,481.8281,991.1162,481.8281
	z M901.1406,515.9834c0,1.0234,0.8301,1.8525,1.8535,1.8525c1.0244,0,1.8535-0.8291,1.8535-1.8525v-17.6865
	c0-1.0244-0.8291-1.8535-1.8535-1.8535c-1.0234,0-1.8535,0.8291-1.8535,1.8535V515.9834z M900.5654,463.3779
	c-0.4375,0.1221-1.3037,0.8594-1.4941,1.2715l-5.9365,12.9268l37.0947-5.2021c0.1895-0.0635,0.5186-0.3457,0.6094-0.5234
	l5.6143-18.3594L900.5654,463.3779z M940.5273,474.6533l-0.3125-1.0225v54.7773c0.6484,0,1.0752-0.0752,1.1729-0.1006
	l38.1426-10.5049v-31.7363l-30.6758-4.3037C945.1318,481.2412,941.6289,478.251,940.5273,474.6533z M981.3584,464.6494
	c-0.1904-0.4121-1.0566-1.1494-1.4951-1.2715l-35.8877-9.8867l5.6152,18.3594c0.0898,0.1777,0.4199,0.46,0.6104,0.5234
	l37.0928,5.2021L981.3584,464.6494z"/>
</svg>
