<?xml version="1.0" encoding="utf-8"?>
<!-- Generator: Adobe Illustrator 15.0.2, SVG Export Plug-In . SVG Version: 6.00 Build 0)  -->
<!DOCTYPE svg PUBLIC "-//W3C//DTD SVG 1.1//EN" "http://www.w3.org/Graphics/SVG/1.1/DTD/svg11.dtd">
<svg version="1.1" id="Layer_1" xmlns="http://www.w3.org/2000/svg" xmlns:xlink="http://www.w3.org/1999/xlink" x="0px" y="0px"
	 width="1152px" height="1152.001px" viewBox="0 0 1152 1152.001" enable-background="new 0 0 1152 1152.001" xml:space="preserve">
<circle fill="#4B5666" cx="576" cy="576" r="576"/>
<g>
	<path fill="#FBD35C" d="M188.2964,188.29c214.2964-214.2959,561.1108-214.293,775.4106,0.0078L576.0049,575.999L188.2964,188.29z"
		/>
</g>
<g>
	<path fill="#A4D970" d="M963.71,188.293c214.2979,214.2979,214.293,561.1104-0.0068,775.4092L576.002,576.001L963.71,188.293z"/>
</g>
<g>
	<path fill="#9EBEED" d="M963.7031,963.709c-214.2959,214.2988-561.1104,214.293-775.4102-0.0068L575.9951,576.001L963.7031,963.709
		z"/>
</g>
<g>
	<path fill="#FA7977" d="M188.2896,963.707c-214.2959-214.2979-214.2925-561.1104,0.0068-775.4092L575.999,575.999L188.2896,963.707
		z"/>
</g>
<circle fill="#4B5666" cx="576" cy="576" r="194.6777"/>
<g>
	<path fill="#FFFFFF" d="M466.7227,560.9141l-15.0771-39.3945h-0.2432c0.2842,3.1211,0.4258,6.8301,0.4258,11.127v28.2676h-4.7725
		v-44.4395h7.7822l14.0732,36.6582h0.2432l14.1953-36.6582h7.7207v44.4395h-5.167v-28.6328c0-3.2832,0.1416-6.8496,0.4258-10.6992
		h-0.2432l-15.1992,39.332H466.7227z"/>
	<path fill="#FFFFFF" d="M541.833,538.6328c0,7.1133-1.7988,12.707-5.3955,16.7793c-3.5977,4.0742-8.5977,6.1113-15.001,6.1113
		c-6.5459,0-11.5967-2.002-15.1533-6.0039c-3.5557-4.002-5.334-9.6523-5.334-16.9473c0-7.2344,1.7832-12.8418,5.3496-16.8242
		s8.6328-5.9727,15.1982-5.9727c6.3838,0,11.3682,2.0273,14.9551,6.0801S541.833,531.5,541.833,538.6328z M506.4209,538.6328
		c0,6.0195,1.2812,10.584,3.8447,13.6953c2.5635,3.1094,6.2871,4.666,11.1709,4.666c4.9238,0,8.6426-1.5508,11.1553-4.6523
		c2.5127-3.0996,3.7695-7.6699,3.7695-13.709c0-5.9766-1.252-10.5117-3.7539-13.6016c-2.5029-3.0898-6.2061-4.6348-11.1104-4.6348
		c-4.9238,0-8.668,1.5547-11.2314,4.666C507.7021,528.1719,506.4209,532.6973,506.4209,538.6328z"/>
	<path fill="#FFFFFF" d="M587.2148,538.2695c0,7.3359-1.9912,12.9434-5.9736,16.8242c-3.9814,3.8809-9.7109,5.8203-17.1885,5.8203
		h-12.3115v-44.4395h13.6182c6.9102,0,12.2803,1.9141,16.1104,5.7441S587.2148,531.3984,587.2148,538.2695z M581.7432,538.4512
		c0-5.7949-1.4541-10.1621-4.3623-13.1016c-2.9082-2.9375-7.2295-4.4062-12.9639-4.4062h-7.5078v35.502h6.292
		c6.1602,0,10.791-1.5137,13.8916-4.543S581.7432,544.3887,581.7432,538.4512z"/>
	<path fill="#FFFFFF" d="M621.8975,560.9141H597.124v-44.4395h24.7734v4.5898H602.292v14.3164h18.4199v4.5605H602.292v16.3535
		h19.6055V560.9141z"/>
	<path fill="#FFFFFF" d="M636.9141,542.4336v18.4805h-5.168v-44.4395h12.1895c5.4512,0,9.4785,1.043,12.083,3.1309
		c2.6035,2.0879,3.9053,5.2285,3.9053,9.4238c0,5.877-2.9785,9.8477-8.9365,11.9141l12.0674,19.9707h-6.1094l-10.7607-18.4805
		H636.9141z M636.9141,537.9961h7.082c3.6475,0,6.3232-0.7246,8.0254-2.1738s2.5527-3.623,2.5527-6.5195
		c0-2.9395-0.8662-5.0566-2.5986-6.3535s-4.5137-1.9453-8.3438-1.9453h-6.7178V537.9961z"/>
	<path fill="#FFFFFF" d="M704.9424,560.9141h-5.8975l-24.2871-37.2969h-0.2432c0.3242,4.377,0.4863,8.3906,0.4863,12.0371v25.2598
		h-4.7725v-44.4395h5.8369l24.2256,37.1445h0.2432c-0.041-0.5469-0.1318-2.3047-0.2734-5.2734s-0.1924-5.0918-0.1514-6.3691v-25.502
		h4.833V560.9141z"/>
	<path fill="#FFFFFF" d="M525.54,635.6172l-5.5322-14.1348h-17.8125l-5.4707,14.1348h-5.2285l17.5693-44.6211h4.3467
		l17.4785,44.6211H525.54z M518.3975,616.832l-5.168-13.7695c-0.668-1.7422-1.3574-3.8809-2.0664-6.4141
		c-0.4463,1.9453-1.085,4.084-1.915,6.4141l-5.2285,13.7695H518.3975z"/>
	<path fill="#FFFFFF" d="M556.5459,612.334h15.1064v21.6113c-2.3506,0.75-4.7412,1.3184-7.1729,1.7031
		c-2.4326,0.3848-5.249,0.5781-8.4512,0.5781c-6.7275,0-11.9658-2.002-15.7148-6.0039s-5.623-9.6113-5.623-16.8242
		c0-4.6211,0.9268-8.668,2.7812-12.1445c1.8545-3.4746,4.5234-6.1289,8.0098-7.9629c3.4844-1.834,7.5684-2.752,12.249-2.752
		c4.7422,0,9.1602,0.8711,13.2539,2.6152l-2.0068,4.5586c-4.0117-1.7031-7.8721-2.5527-11.5811-2.5527
		c-5.4102,0-9.6357,1.6113-12.6758,4.832c-3.0391,3.2227-4.5586,7.6914-4.5586,13.4062c0,5.998,1.4629,10.5469,4.3916,13.6465
		c2.9287,3.1016,7.2295,4.6523,12.9033,4.6523c3.0801,0,6.0898-0.3555,9.0283-1.0645v-13.6797h-9.9395V612.334z"/>
	<path fill="#FFFFFF" d="M582.3213,635.6172v-44.4395h5.168v44.4395H582.3213z"/>
	<path fill="#FFFFFF" d="M599.6777,635.6172v-44.4395h5.168v39.7598h19.6055v4.6797H599.6777z"/>
	<path fill="#FFFFFF" d="M656.7627,635.6172h-24.7734v-44.4395h24.7734v4.5898h-19.6055v14.3164h18.4199v4.5605h-18.4199v16.3535
		h19.6055V635.6172z"/>
</g>
<g>
	<path fill="#4B5666" d="M521.6523,253.6221c-0.3779,0.21-0.7559,0.3359-1.1348,0.3359c-0.6299,0-1.2178-0.2939-1.5537-0.9658
		c-0.21-0.3789-0.3359-0.7568-0.3359-1.0928c0-0.6299,0.3359-1.2178,1.0078-1.5537c5.7129-3.0254,9.998-7.7295,12.3506-12.7705
		c2.6465-5.5869,3.7803-10.334,3.7803-19.6182c0-0.9238,0.7979-1.4277,1.8906-1.4277c0.9658,0,1.7637,0.5039,1.7637,1.4277
		c0,9.2002,1.1348,13.7373,3.9072,19.2402c2.4785,4.9561,7.1836,9.9131,12.7705,13.0215c0.5039,0.2529,0.7559,0.8408,0.7559,1.4707
		c0,0.3779-0.126,0.7979-0.3359,1.1758c-0.4199,0.6309-0.9668,0.8828-1.5547,0.8828c-0.3779,0-0.7979-0.126-1.1758-0.3359
		c-7.3936-4.4951-14.0723-12.1406-16.0469-22.8105C535.5566,241.9854,529.6338,248.707,521.6523,253.6221z"/>
	<path fill="#4B5666" d="M573.9023,228.291c-0.9238,1.8066-2.3105,3.9492-3.8643,6.0498c-2.0166,2.7305-4.4111,5.293-6.2178,7.0146
		c-0.3359,0.3359-0.7559,0.4619-1.1758,0.4619c-0.5039,0-1.0078-0.21-1.3438-0.5459c-0.3789-0.3779-0.5889-0.8398-0.5889-1.3018
		s0.168-0.8828,0.5889-1.2188c2.6885-2.1846,5.8389-5.8809,8.0654-9.4932c2.0576-3.3193,3.8223-7.6035,4.7881-10.7539
		c0.21-0.7148,0.8408-1.0928,1.5127-1.0928c0.252,0,0.5459,0.042,0.7979,0.168c0.7979,0.2939,1.2188,0.7988,1.2188,1.4707
		c0,0.168-0.042,0.3779-0.084,0.5879c-0.5049,1.6387-1.3867,3.6543-2.2686,5.5449l12.5596-0.084
		c1.8486,0,3.1094,1.3027,3.1094,2.9824c0,0.4619-0.084,0.9668-0.2949,1.4707c-1.7637,4.2422-5.04,9.8711-8.8633,14.1982
		c1.9746,1.7227,3.9072,3.5703,5.377,5.251c0.3359,0.3779,0.4619,0.7979,0.4619,1.1758c0,0.5469-0.252,1.0088-0.6299,1.3867
		c-0.3779,0.2939-0.7979,0.5039-1.2598,0.5039c-0.4629,0-0.9248-0.21-1.3027-0.6719c-3.2764-3.8652-8.2334-8.3174-12.4336-11.0479
		c-0.4629-0.2939-0.6309-0.7139-0.6309-1.1348c0-0.4199,0.168-0.8398,0.5039-1.1758c0.3789-0.4199,0.8408-0.6299,1.3027-0.6299
		c0.3359,0,0.7139,0.126,1.0918,0.3779c1.5127,1.0078,3.2773,2.3525,4.999,3.7803c3.2764-3.6123,5.9648-8.3174,7.6035-12.0557
		c0.084-0.21,0.126-0.4199,0.126-0.5459c0-0.4629-0.3359-0.6729-0.9658-0.6729H573.9023z"/>
	<path fill="#4B5666" d="M606.4932,233.248c3.2773-2.3105,5.6299-3.4443,8.2344-3.4443c3.0244,0,5.25,1.3018,5.7969,4.915
		c3.7803-1.3447,7.4346-2.4785,10.334-3.3193c0.252-0.042,0.5039-0.084,0.7139-0.084c0.7559,0,1.3018,0.3789,1.5537,1.1348
		c0.042,0.252,0.084,0.4619,0.084,0.6719c0,0.7559-0.4199,1.3447-1.3438,1.5547c-3.0664,0.7979-7.0156,1.8477-11.0479,3.3184
		c0.084,1.5127,0.126,2.9824,0.126,4.4951c0,0.7979,0,1.5957-0.042,2.3945c-0.042,1.0498-0.7139,1.5957-1.6387,1.5957
		c-0.9658,0-1.5537-0.5459-1.5537-1.5957c0-1.1348,0-2.5205,0-3.8652c0-0.6719,0-1.3857,0-2.0166
		c-5.8818,2.2686-8.4863,4.7891-8.4863,7.3936c0,2.4785,2.7305,3.7803,8.6543,3.7803c4.0322,0,8.2334-0.3779,11.3418-0.9238
		c0.21-0.042,0.3779-0.042,0.5879-0.042c0.8398,0,1.3867,0.4199,1.5547,1.3027c0.042,0.168,0.042,0.2939,0.042,0.4199
		c0,0.8818-0.5889,1.5957-1.5547,1.7217c-3.1504,0.5469-7.2256,0.8828-11.7197,0.8828c-7.8975,0-12.3506-2.1846-12.3506-7.0156
		c0-3.9902,3.8652-7.8975,11.6787-10.7119c-0.2529-2.5625-1.5127-3.2764-3.3613-3.2764c-3.5703,0-8.1914,2.7725-13.2324,7.8975
		c-0.3779,0.4199-0.8818,0.6299-1.3438,0.6299c-0.4199,0-0.7979-0.168-1.1348-0.5039c-0.3779-0.3359-0.5459-0.7979-0.5459-1.2607
		c0-0.5039,0.21-0.9658,0.5879-1.3438c3.6133-3.3604,7.2256-7.7295,9.9561-12.0566c-0.5879,0-1.2598,0-1.9326,0
		c-2.0996,0-4.4941-0.042-6.3848-0.126c-0.9238-0.042-1.4697-0.7139-1.4697-1.5537c0-0.042,0-0.126,0-0.168
		c0.084-0.8408,0.6719-1.5547,1.5117-1.5547c0.042,0,0.084,0,0.126,0c1.9746,0.168,4.6631,0.21,7.4355,0.21
		c0.7979,0,1.5957,0,2.3945,0c0.8398-1.5117,1.5957-3.0664,2.1006-4.5781c0.2939-0.8828,0.8818-1.2188,1.5537-1.2188
		c0.21,0,0.3779,0.042,0.5879,0.084c0.8408,0.168,1.3027,0.6719,1.3027,1.3027c0,0.21-0.042,0.4619-0.168,0.7139
		c-0.5039,1.2178-1.0508,2.3525-1.6807,3.6123c3.5703-0.126,8.5693-0.6299,13.1904-1.3018c0.126-0.042,0.252-0.042,0.3779-0.042
		c0.8408,0,1.3867,0.4619,1.5127,1.3438c0,0.084,0,0.168,0,0.2939c0,0.7988-0.5039,1.3867-1.4287,1.5547
		c-5.293,0.7559-10.5439,1.2178-15.332,1.3438c-1.6387,2.7725-3.5713,5.293-5.7559,7.1836L606.4932,233.248z"/>
	<path fill="#4B5666" d="M436.832,285.4551c-0.7139,0-1.0918-0.5459-1.0918-1.3447c0-0.7979,0.3779-1.2598,1.0918-1.2598h36.9668
		c0.6719,0,1.0918,0.4619,1.0918,1.2598c0,0.7988-0.4199,1.3447-1.0918,1.3447h-19.4922v19.0713
		c0,0.7979-0.5459,1.2598-1.4697,1.2598c-1.0078,0-1.4707-0.4619-1.4707-1.2598v-3.6123
		c-4.9141,1.0078-10.123,1.7637-14.1143,2.1836c-0.084,0-0.126,0-0.168,0c-0.7979,0-1.3018-0.5459-1.3018-1.3438
		c-0.042-0.084-0.042-0.21-0.042-0.2939c0-0.7139,0.4199-1.2188,1.0918-1.2607c0.8818-0.084,1.8486-0.168,2.8564-0.252v-14.4922
		H436.832z M466.7412,267.7695c2.5205,0,3.6543,1.0088,3.6543,3.3184v6.2178c0,2.3105-1.1338,3.2764-3.6543,3.2764h-22.8096
		c-2.5205,0-3.6133-0.9658-3.6133-3.2764v-6.2178c0-2.3096,1.0928-3.3184,3.6133-3.3184H466.7412z M442.6289,288.2275h8.7373
		v-2.7725h-8.7373V288.2275z M442.6289,293.4785h8.7373v-2.8564h-8.7373V293.4785z M442.6289,299.6533
		c2.9404-0.2939,5.8389-0.7559,8.7373-1.3018v-2.5205h-8.7373V299.6533z M467.3711,272.9785v-1.7637
		c0-0.7988-0.4199-1.0088-1.1758-1.0088h-21.6758c-0.7568,0-1.1768,0.21-1.1768,1.0088v1.7637H467.3711z M443.3428,277.1377
		c0,0.7979,0.4199,1.0498,1.1768,1.0498h21.6758c0.7559,0,1.1758-0.252,1.1758-1.0498v-1.8066h-24.0283V277.1377z
		 M456.7432,290.6641c-0.7139,0-1.1338-0.5459-1.1338-1.3027c0-0.7979,0.4199-1.3018,1.1338-1.3018h12.4346
		c1.8486,0,2.7725,0.9238,2.7725,2.2686c0,0.6299-0.21,1.3438-0.5879,2.0996c-1.2188,2.2686-2.8145,4.4111-4.7051,6.3018
		c2.1426,1.5957,4.5371,2.8145,6.8896,3.6123c0.6299,0.21,0.9238,0.6299,0.9238,1.1768c0,0.252-0.042,0.5039-0.168,0.7979
		c-0.2939,0.7139-0.7979,1.0498-1.3867,1.0498c-0.21,0-0.4619-0.042-0.6719-0.126c-2.7305-1.0918-5.377-2.6045-7.6875-4.5781
		c-2.1006,1.7637-4.4102,3.2344-6.8047,4.3262c-0.3779,0.168-0.6729,0.252-0.9668,0.252c-0.5459,0-0.9658-0.2939-1.1758-0.7559
		c-0.126-0.252-0.21-0.5039-0.21-0.7559c0-0.5049,0.252-1.0088,0.7979-1.2188c2.1846-0.9658,4.3271-2.2686,6.2168-3.8223
		c-2.1836-2.3525-3.8643-4.999-4.9561-8.0234H456.7432z M460.2305,290.6641c1.0078,2.3525,2.4365,4.3682,4.2422,6.2168
		c1.5967-1.5957,2.9404-3.3184,3.9072-5.083c0.168-0.2939,0.252-0.5039,0.252-0.6719c0-0.2939-0.252-0.4619-0.7568-0.4619H460.2305z
		"/>
	<path fill="#4B5666" d="M515.168,269.8701c0.6729,0,1.0508,0.5459,1.0508,1.3867c0,0.8398-0.3779,1.3857-1.0508,1.3857h-35.6641
		c-0.7139,0-1.0918-0.5459-1.0918-1.3857c0-0.7988,0.3779-1.3867,1.0918-1.3867h15.9209v-2.3105
		c0-0.7559,0.7139-1.1758,1.6807-1.1758c1.0078,0,1.6797,0.4199,1.6797,1.1758v2.3105H515.168z M511.1777,286.7988
		c2.6885,0,3.8643,1.0508,3.8643,3.4873v11.0059c0,2.6885-1.5117,3.6963-4.4941,3.6963c-1.4287,0-2.7305-0.168-3.7812-0.4199
		c-0.6719-0.168-1.0918-0.5879-1.0918-1.2607c0-0.168,0.042-0.3359,0.084-0.5459c0.21-0.7139,0.6299-1.0918,1.1338-1.0918
		c0.126,0,0.2939,0.042,0.4209,0.042c0.7979,0.168,1.8477,0.3359,2.7305,0.3359c1.3438,0,1.8057-0.3359,1.8057-1.6387v-9.6611
		c0-1.0088-0.4619-1.3027-1.4697-1.3027H484.251c-1.0078,0-1.4707,0.2939-1.4707,1.3027v13.4844
		c0,0.7559-0.6299,1.2178-1.5957,1.2178c-0.9668,0-1.5967-0.4619-1.6807-1.2178v-13.9463c0-2.4365,1.1768-3.4873,3.8652-3.4873
		H511.1777z M506.4307,274.9951c2.1006,0,3.1504,0.8398,3.1504,2.8145v3.7383c0,2.0166-1.0498,2.8564-3.1504,2.8564h-18.3154
		c-2.0996,0-3.1504-0.8398-3.1504-2.8564v-3.7383c0-1.9746,1.0508-2.8145,3.1504-2.8145H506.4307z M505.3809,281.7158
		c0.7979,0,1.1758-0.21,1.1758-0.9658v-2.1006c0-0.7559-0.3779-0.9658-1.1758-0.9658H489.166c-0.7988,0-1.1768,0.21-1.1768,0.9658
		v2.1006c0,0.7559,0.3779,0.9658,1.1768,0.9658H505.3809z M490.9717,301.7539c-2.0156,0-2.9404-0.7139-2.9404-2.7725v-4.3271
		c0-2.1006,0.9248-2.8564,2.9404-2.8564h12.2246c2.0586,0,2.9824,0.7559,2.9824,2.8564v4.3271c0,2.0166-0.9238,2.7725-2.8984,2.7725
		H490.9717z M502.0625,299.0654c0.7139,0,1.0498-0.21,1.0498-0.8818v-2.8145c0-0.7568-0.3359-0.9248-1.0498-0.9248h-9.9141
		c-0.7559,0-1.0508,0.168-1.0508,0.9248v2.8145c0,0.6719,0.2949,0.8818,1.0088,0.8818H502.0625z"/>
	<path fill="#4B5666" d="M528.5615,269.9121c0,0.168-0.042,0.3359-0.084,0.5459c-1.5117,5.5869-2.3105,12.2246-2.3105,18.3574
		c0,4.1592,0.3779,8.6113,1.0928,12.5186c0.042,0.21,0.042,0.4199,0.042,0.6299c0,0.9658-0.5459,1.4707-1.4287,1.6807
		c-0.168,0.042-0.3359,0.042-0.4619,0.042c-0.7979,0-1.4277-0.4629-1.6387-1.5967c-0.7979-3.8643-1.1758-8.4014-1.1758-13.1064
		c0-6.5527,0.7979-13.3584,2.3945-19.2812c0.252-0.8818,0.9238-1.2598,1.6797-1.2598c0.1689,0,0.2949,0,0.4629,0.042
		C527.9736,268.6104,528.5615,269.1143,528.5615,269.9121z M538.1816,287.6396c0,0.4199-0.21,0.7979-0.5459,1.1338
		c-1.7646,1.6807-2.4365,3.2764-2.4365,4.873c0,2.6045,2.2686,3.9482,8.1494,3.9482c3.6123,0,7.4766-0.3779,10.334-1.0078
		c0.168-0.042,0.3359-0.042,0.5039-0.042c0.8398,0,1.4697,0.5459,1.6377,1.3857c0.042,0.1689,0.042,0.2949,0.042,0.4629
		c0,0.8398-0.5039,1.6377-1.4277,1.8057c-3.1084,0.6309-6.8057,0.9248-10.6699,0.9248c-7.7295,0-11.8467-2.1846-11.8467-7.4775
		c0-2.5625,1.0508-4.957,3.1934-6.9736c0.4619-0.4199,0.9658-0.6299,1.4277-0.6299c0.3779,0,0.7559,0.168,1.0928,0.4619
		C538.0137,286.8828,538.1816,287.2617,538.1816,287.6396z M552.5059,272.9785c1.0498,0,1.5967,0.5879,1.7227,1.5547
		c0,0.042,0,0.084,0,0.126c0,0.9658-0.4199,1.7637-1.6387,1.8906c-3.5283,0.4199-8.5693,0.6299-13.1484,0.6299
		c-1.5537,0-3.0664-0.042-4.4521-0.084c-1.3027-0.042-1.7646-0.8828-1.7646-1.8486c0.042-0.9238,0.6299-1.7646,1.7227-1.7646
		c0.042,0,0.042,0,0.084,0c1.3438,0.042,2.8564,0.084,4.4102,0.084c4.4531,0,9.3262-0.21,12.7285-0.5879
		C552.2959,272.9785,552.3799,272.9785,552.5059,272.9785z"/>
	<path fill="#4B5666" d="M568.4619,285.0771h-2.6045c-0.042,9.4932-1.1758,15.0801-4.1172,19.0293
		c-0.252,0.4199-0.7139,0.6299-1.2178,0.6299c-0.2939,0-0.6299-0.084-0.9238-0.3359c-0.4199-0.252-0.6309-0.7139-0.6309-1.1348
		c0-0.3359,0.084-0.6299,0.2949-0.9238c2.8564-3.7803,3.7803-8.2754,3.8223-17.2646h-2.8984c-0.7559,0-1.1768-0.6309-1.1768-1.4707
		c0-0.8818,0.4209-1.4277,1.1768-1.4277h5.6289v-14.1992c0-0.7139,0.5459-1.0918,1.3867-1.0918
		c0.8398,0,1.4277,0.3779,1.4277,1.0918v14.1992h4.873c0.7559,0,1.1758,0.5459,1.1758,1.4277c0,0.8398-0.4199,1.4707-1.1758,1.4707
		h-2.3105v11.4678c0.8398-0.5039,1.6387-1.0078,2.3525-1.4707c0.2939-0.21,0.5879-0.2939,0.8398-0.2939
		c0.3779,0,0.6719,0.21,0.9248,0.5889c0.168,0.3359,0.252,0.6299,0.252,0.9238c0,0.3779-0.168,0.7139-0.5889,1.0078
		c-1.8896,1.3447-4.7881,3.0664-7.0146,4.1592c-0.252,0.126-0.5459,0.21-0.7988,0.21c-0.5039,0-0.9658-0.252-1.2598-0.7979
		c-0.126-0.2529-0.21-0.5049-0.21-0.7568c0-0.5039,0.3359-0.9238,0.8398-1.1758c0.6299-0.2939,1.2607-0.5879,1.9326-0.9238V285.0771
		z M564.5127,279.0273c0,0.6729-0.3779,1.1348-1.0498,1.2607c-0.126,0.042-0.252,0.042-0.3359,0.042
		c-0.6299,0-1.1758-0.3779-1.2598-1.0918c-0.4209-2.6045-1.1768-5.335-1.9326-7.4355c-0.084-0.252-0.126-0.4619-0.126-0.6299
		c0-0.5889,0.3779-0.9668,0.9658-1.1348c0.168-0.042,0.3359-0.084,0.5039-0.084c0.5039,0,0.9668,0.2939,1.2607,1.0078
		c0.7559,2.1426,1.4697,5.041,1.9736,7.6455C564.5127,278.7334,564.5127,278.9014,564.5127,279.0273z M574.2168,271.2148
		c0,0.084,0,0.21-0.042,0.3359c-0.4199,2.7725-1.1338,5.7969-1.9746,7.9814c-0.252,0.7139-0.7139,1.0498-1.2178,1.0498
		c-0.168,0-0.3779-0.042-0.5879-0.126c-0.4619-0.168-0.7568-0.5039-0.7568-1.0078c0-0.21,0.042-0.4629,0.168-0.7148
		c0.7988-2.1416,1.4287-4.999,1.8066-7.6455c0.084-0.7979,0.5459-1.1338,1.1348-1.1338c0.126,0,0.21,0,0.3359,0.042
		C573.7549,270.1221,574.2168,270.5,574.2168,271.2148z M576.0234,300.0312c-0.7139,0-1.1348-0.5879-1.1348-1.4277
		c0-0.8408,0.4209-1.3447,1.1348-1.3447h8.6113v-3.0664h-5.377c-2.2686,0-3.3184-0.9658-3.3184-3.0664v-8.2754
		c0-2.1006,1.0498-3.0244,3.3184-3.0244h5.377v-2.7305h-5.335c-0.7559,0-1.1338-0.5039-1.1338-1.3447
		c0-0.7979,0.3779-1.2598,1.1338-1.2598h5.335v-1.8066c0-0.7139,0.5879-1.1338,1.3438-1.1338c0.8828,0,1.4707,0.4199,1.4707,1.1338
		v1.8066h5.9648c0.7568,0,1.1768,0.4619,1.1768,1.2598c0,0.8408-0.4199,1.3447-1.1768,1.3447h-5.9648v2.7305h5.9229
		c2.2686,0,3.3184,0.9238,3.3184,3.0244v8.2754c0,2.1006-1.0498,3.0664-3.3184,3.0664h-5.9229v3.0664h9.8301
		c0.7559,0,1.1758,0.5039,1.1758,1.3447c0,0.8398-0.4199,1.4277-1.1758,1.4277h-9.8301v4.7891c0,0.7979-0.5039,1.1758-1.4287,1.1758
		c-0.8818,0-1.3857-0.3779-1.3857-1.1758v-4.7891H576.0234z M594.5068,268.0215c2.3525,0,3.4023,0.8828,3.4023,3.2773v3.3184
		c0,0.7979-0.5459,1.2178-1.4707,1.2178c-0.9658,0-1.5117-0.4199-1.5117-1.2178v-2.8984c0-0.7988-0.3779-1.0088-1.0928-1.0088
		h-14.9121c-0.7559,0-1.0928,0.21-1.0928,1.0088v2.8984c0,0.7979-0.5459,1.2178-1.4697,1.2178s-1.3867-0.4199-1.3867-1.2178v-3.3184
		c0-2.3945,1.0508-3.2773,3.3613-3.2773H594.5068z M579.9297,282.2627c-0.7559,0-1.1338,0.21-1.1338,0.9658v2.5625h5.8389v-3.5283
		H579.9297z M578.7959,288.1016v2.6885c0,0.7559,0.3779,0.9658,1.1338,0.9658h4.7051v-3.6543H578.7959z M587.4492,285.791h6.3428
		v-2.5625c0-0.7559-0.3779-0.9658-1.1338-0.9658h-5.209V285.791z M587.4492,291.7559h5.209c0.7559,0,1.1338-0.21,1.1338-0.9658
		v-2.6885h-6.3428V291.7559z"/>
	<path fill="#4B5666" d="M613.1084,269.1562c0.126-1.0928,0.7559-1.4707,1.5967-1.4707c0.126,0,0.252,0,0.3779,0.042
		c0.9658,0.084,1.5127,0.5879,1.5127,1.4287c0,0.126,0,0.252-0.042,0.3779c-0.3369,2.3945-0.8408,4.873-1.3867,7.1836
		c1.2178-0.042,2.2266-0.084,3.2344-0.084c5.7549,0,8.2754,2.9404,8.2754,9.4932c0,4.0332-0.5879,8.1914-1.4697,11.2158
		c-1.1768,4.1172-3.5713,5.6289-6.9316,5.6289c-2.0166,0-4.3682-0.5459-6.0908-1.5117c-0.5879-0.3359-0.9238-0.9248-0.9238-1.5547
		c0-0.2939,0.042-0.5879,0.21-0.8398c0.252-0.5879,0.7559-0.9238,1.3438-0.9238c0.3359,0,0.7139,0.084,1.0928,0.2939
		c1.2178,0.5879,2.8984,1.0498,4.4521,1.0498c1.7646,0,2.8564-0.7559,3.6133-3.4443c0.6719-2.3525,1.2178-6.3438,1.2178-10.082
		c0-4.6631-1.2178-6.2168-5.167-6.2168c-1.4277,0-2.5625,0.084-3.6123,0.168c-0.6729,2.4365-1.4287,4.915-2.2686,7.3516
		c-1.9746,5.6709-4.2432,10.7539-6.8057,14.9121c-0.4199,0.7559-1.0078,1.0498-1.5957,1.0498c-0.2939,0-0.6309-0.084-0.9248-0.2939
		c-0.5879-0.3359-0.9238-0.8818-0.9238-1.4697c0-0.3359,0.084-0.7139,0.3359-1.0928c2.5205-4.0322,4.7891-8.8213,6.6797-14.1562
		c0.6719-1.9746,1.3857-3.9902,1.9316-6.0488c-2.1416,0.168-5.125,0.5879-7.5186,0.9238c-0.126,0.042-0.2529,0.042-0.3789,0.042
		c-0.7139,0-1.3018-0.4619-1.4277-1.3438c-0.042-0.084-0.042-0.21-0.042-0.3359c0-0.7988,0.5459-1.4287,1.4277-1.5547
		c2.5205-0.3779,6.0078-0.7979,8.7383-1.0078C612.2686,274.3232,612.7305,271.7188,613.1084,269.1562z M638.6494,290.0342
		c0,0.7559-0.3779,1.3018-1.0508,1.5117c-0.252,0.126-0.5459,0.168-0.7979,0.168c-0.7139,0-1.3018-0.4199-1.5967-1.3018
		c-1.5537-4.7471-4.4521-10.8379-7.7705-14.9551c-0.2109-0.252-0.2949-0.5459-0.2949-0.8398c0-0.5459,0.3369-1.1348,0.9248-1.4287
		c0.2939-0.168,0.5879-0.252,0.8818-0.252c0.5879,0,1.1348,0.2939,1.5127,0.7559c3.2764,4.0752,6.5527,10.5439,8.0654,15.585
		C638.6074,289.5293,638.6494,289.8232,638.6494,290.0342z"/>
	<path fill="#4B5666" d="M670.0635,288.3115c-0.5879,3.1504-2.1416,4.915-5.124,4.915c-2.0586,0-4.5791-0.7988-6.5117-2.3945
		c-0.3779-0.3359-0.5879-0.7979-0.5879-1.3027c0-0.3359,0.126-0.7139,0.3359-1.0078c0.3359-0.4199,0.8398-0.6719,1.3447-0.6719
		c0.3779,0,0.7559,0.126,1.0918,0.4199c1.0498,0.8398,2.6465,1.5537,3.9902,1.5537c1.2607,0,1.8906-0.6299,2.2266-2.3516
		c0.2939-1.5967,0.4199-4.0332,0.4619-6.7217c-2.2256,0.084-4.3262,0.126-6.3008,0.252c-2.6885,0.168-5.377,0.2939-8.1074,0.5039
		c0,1.5127,0,3.0254,0,4.6211c0,7.5615,0.21,9.3262,0.8398,10.376c1.0508,1.9326,3.4033,2.4785,8.7383,2.4785
		c4.0742,0,8.1914-0.4199,11.0479-1.0088c0.21-0.042,0.4199-0.042,0.5879-0.042c0.8818,0,1.4707,0.5049,1.5967,1.3867
		c0.042,0.126,0.042,0.252,0.042,0.3779c0,1.0088-0.5889,1.6387-1.5547,1.8066c-3.0244,0.5879-7.3516,0.9658-11.5938,0.9658
		c-6.6377,0-10.166-1.0918-11.6787-3.7383c-1.1338-1.7646-1.5117-3.8232-1.5117-11.0479c0-0.3359,0-0.7568,0-1.1348
		c0-1.5537,0.042-3.1504,0.042-4.8311c-2.1426,0.126-4.4111,0.3369-6.6377,0.5049c-0.084,0-0.168,0-0.252,0
		c-0.8818,0-1.4277-0.6729-1.4697-1.5127c0-0.042,0-0.084,0-0.126c0-0.8818,0.5459-1.5127,1.4277-1.5547
		c2.2686-0.168,4.5791-0.3359,6.9316-0.5459c0.042-2.6045,0.042-5.5029,0.042-7.8135c0-1.0078,0.7559-1.5537,1.7217-1.5537
		c1.0928,0.042,1.7646,0.5879,1.7646,1.5537c0,2.4785,0,5.041-0.042,7.6035c2.5625-0.168,5.209-0.3359,7.9395-0.4619
		c1.8066-0.084,4.0332-0.21,6.4268-0.2939c0.042-0.8818,0.042-1.7646,0.042-2.6465c0-1.7227-0.042-3.4023-0.042-4.999
		c0-0.9658,0.7148-1.5127,1.6807-1.5127s1.7646,0.5469,1.7646,1.4707c0,1.2178,0,2.4365,0,3.6963c0,1.2607,0,2.5205-0.042,3.9072
		c2.2686-0.084,4.7891-0.126,7.1406-0.168c1.1768,0,1.6387,0.5879,1.6387,1.5537c0,1.0508-0.4619,1.6807-1.5967,1.6807
		c-2.3516,0-4.7881,0.084-7.2246,0.126C670.6523,283.5225,670.4424,286.3369,670.0635,288.3115z"/>
	<path fill="#4B5666" d="M693.2881,284.5312c3.2764-1.4707,6.3428-2.1846,9.3252-2.1846c7.5615,0,12.1826,3.9902,12.1826,9.7031
		c0,7.0576-6.4277,11.5107-16.6768,11.5107c-6.2178,0-10.25-2.6045-10.25-6.5117c0-3.2764,2.7305-5.6709,6.8467-5.6709
		c4.5371,0,8.2754,2.7305,8.9902,8.2754c4.2842-1.0078,7.4775-3.6543,7.4775-7.5615c0-3.9902-3.2773-6.8887-9.2422-6.8887
		c-5.5869,0-10.6699,1.8477-17.5586,6.1328c-0.3789,0.21-0.7568,0.2939-1.1348,0.2939c-0.5879,0-1.1758-0.252-1.5117-0.7979
		c-0.21-0.2939-0.2949-0.5879-0.2949-0.9238c0-0.6309,0.3369-1.2607,0.9668-1.5967c6.9307-4.2432,16.2568-11.0898,21.5498-15.7529
		c-4.5791,0.3779-11.0059,0.6299-16.3828,0.6719c-0.8828,0-1.5547-0.6299-1.5547-1.6377c0-0.9668,0.5039-1.7227,1.4707-1.7227
		c5.6709,0,12.8545-0.21,18.4414-0.5879c0.126,0,0.252,0,0.3779,0c0.9658,0,1.6797,0.3359,2.1006,1.0498
		c0.21,0.3779,0.3359,0.7559,0.3359,1.2188c0,0.5879-0.252,1.1758-0.7988,1.7217c-3.6123,3.3613-7.5605,6.3857-10.9639,8.6543
		c-1.1758,0.7979-2.6045,1.7637-3.7803,2.4355L693.2881,284.5312z M694.5479,294.2344c-2.1836,0-3.4443,1.1348-3.4443,2.6885
		c0,1.9326,2.5205,3.5283,6.2588,3.5703c1.0088,0,2.0586,0,3.0674-0.084C700.0928,296.293,697.4463,294.2344,694.5479,294.2344z"/>
</g>
<g>
	<path fill="#4B5666" d="M545.3662,977.667c-0.5889,1.7217-1.1348,3.4023-1.9746,4.999c-1.1768,2.1416-2.6465,4.1162-4.3271,5.9229
		c4.4111,1.6377,8.8643,3.5703,12.6865,5.6709c0.5879,0.2939,0.8818,0.7979,0.8818,1.3857c0,0.2939-0.084,0.6309-0.2939,1.0088
		c-0.3359,0.5879-0.8398,0.9238-1.4277,0.9238c-0.3359,0-0.6729-0.084-1.0508-0.2939c-3.9902-2.3105-8.6533-4.4951-13.4004-6.3848
		c-4.5361,3.5283-10.46,5.7549-17.5166,7.0146c-0.084,0-0.168,0-0.21,0c-0.7988,0-1.5127-0.4199-1.6807-1.3857
		c-0.042-0.168-0.042-0.2939-0.042-0.4199c0-0.8408,0.5459-1.4287,1.3027-1.5127c5.6709-0.9658,10.585-2.4785,14.5762-5.041
		c-3.0244-1.0498-6.0488-1.9746-8.8213-2.6885c-1.0508-0.252-1.6387-1.0918-1.6387-2.0166c0-0.5879,0.21-1.1758,0.6719-1.7217
		c1.3447-1.6387,2.6465-3.4873,3.9072-5.4609h-9.3682c-0.7559,0-1.1758-0.6729-1.1758-1.5127c0-0.8818,0.4199-1.5117,1.1758-1.5117
		h11.0898c0.9668-1.8486,1.8066-3.7393,2.4365-5.5459c0.252-0.7139,0.6729-1.0498,1.3447-1.0498c0.21,0,0.4199,0.042,0.6719,0.126
		c0.7979,0.252,1.2607,0.7139,1.2607,1.3867c0,0.21-0.042,0.4619-0.1689,0.7559c-0.5879,1.4277-1.2598,2.8984-2.0156,4.3271h20.499
		c0.7988,0,1.2188,0.6299,1.2188,1.5117c0,0.8398-0.4199,1.5127-1.2188,1.5127H545.3662z M549.5664,963.5518
		c2.5205,0,3.6553,1.0928,3.6553,3.5713v3.9902c0,0.8408-0.6729,1.2607-1.6807,1.2607c-0.9658,0-1.6807-0.4199-1.6807-1.2188
		v-3.4023c0-0.9238-0.4619-1.2178-1.3438-1.2178h-26.7588c-0.8818,0-1.3447,0.2939-1.3447,1.2178v3.4023
		c0,0.7988-0.7139,1.2188-1.6797,1.2188c-1.0088,0-1.6807-0.4199-1.6807-1.2607v-3.9902c0-2.4785,1.1338-3.5713,3.6543-3.5713
		h12.5605v-3.0244c0-0.8818,0.5879-1.3438,1.6387-1.3438c1.0918,0,1.6377,0.4619,1.6377,1.3438v3.0244H549.5664z M530.5791,977.667
		c-1.2598,2.0996-2.6045,4.0742-3.9902,5.8389c-0.21,0.2939-0.3359,0.5039-0.3359,0.6299c0,0.21,0.21,0.3779,0.7559,0.5039
		c2.6465,0.7568,5.6289,1.6807,8.7373,2.7305c1.8486-1.5957,3.3604-3.5703,4.4951-5.7129c0.6719-1.2598,1.1338-2.6045,1.6377-3.9902
		H530.5791z"/>
	<path fill="#4B5666" d="M576.9482,959.3516c0.9658,0,1.9736,0.3779,2.5205,1.0918c4.4521,6.0488,10.292,9.8721,16.3408,12.7705
		c0.7979,0.3359,1.1338,0.9658,1.1338,1.6387c0,0.252-0.042,0.5459-0.168,0.8398c-0.252,0.6299-0.8818,1.0498-1.5537,1.0498
		c-0.2529,0-0.5049-0.042-0.7568-0.168c-6.5107-3.1504-13.1064-8.3594-16.9287-13.5264c-0.21-0.2939-0.3779-0.4199-0.5459-0.4199
		s-0.3779,0.126-0.5459,0.3779c-3.7812,5.5029-10.292,10.5859-16.1309,13.3584c-0.4209,0.21-0.8408,0.3359-1.2607,0.3359
		c-0.5879,0-1.0918-0.252-1.3857-0.8398c-0.126-0.2939-0.2109-0.5879-0.2109-0.8818c0-0.6309,0.3789-1.2607,1.2607-1.6807
		c5.293-2.5205,11.0479-6.3848,15.7109-12.8545C575.0156,959.7295,575.9814,959.3516,576.9482,959.3516z M594.8428,993.4199
		c0.7568,0,1.1768,0.5879,1.1768,1.5117c0,0.8818-0.4199,1.5547-1.1768,1.5547h-35.4121c-0.7559,0-1.1758-0.6309-1.1758-1.5547
		c0-0.8818,0.4199-1.5117,1.1758-1.5117h15.7949v-7.4775h-10.25c-0.7559,0-1.1758-0.6299-1.1758-1.5127
		c0-0.8818,0.4199-1.4277,1.1758-1.4277h10.25v-6.2178h-8.6113c-0.7559,0-1.1768-0.6299-1.1768-1.5117
		c0-0.8828,0.4209-1.4287,1.1768-1.4287h20.8779c0.7979,0,1.2178,0.5459,1.2178,1.4287c0,0.8818-0.4199,1.5117-1.2178,1.5117
		h-9.0742v6.2178h10.9219c0.7568,0,1.1348,0.5459,1.1348,1.4277c0,0.8828-0.3779,1.5127-1.1348,1.5127H578.418v7.4775H594.8428z"/>
	<path fill="#4B5666" d="M609.1182,976.3643c3.2773-2.3105,5.6299-3.4443,8.2344-3.4443c3.0244,0,5.25,1.3018,5.7969,4.915
		c3.7803-1.3447,7.4346-2.4785,10.334-3.3193c0.252-0.042,0.5039-0.084,0.7139-0.084c0.7559,0,1.3018,0.3789,1.5537,1.1348
		c0.042,0.252,0.084,0.4619,0.084,0.6719c0,0.7559-0.4199,1.3447-1.3438,1.5547c-3.0664,0.7979-7.0156,1.8477-11.0479,3.3184
		c0.084,1.5117,0.126,2.9824,0.126,4.4951c0,0.7979,0,1.5957-0.042,2.3936c-0.042,1.0508-0.7139,1.5967-1.6387,1.5967
		c-0.9658,0-1.5537-0.5459-1.5537-1.5967c0-1.1338,0-2.5195,0-3.8643c0-0.6719,0-1.3857,0-2.0166
		c-5.8818,2.2686-8.4863,4.7891-8.4863,7.3936c0,2.4785,2.7305,3.7803,8.6543,3.7803c4.0322,0,8.2334-0.3779,11.3418-0.9238
		c0.21-0.042,0.3779-0.042,0.5879-0.042c0.8398,0,1.3867,0.4199,1.5547,1.3027c0.042,0.168,0.042,0.2939,0.042,0.4199
		c0,0.8818-0.5889,1.5957-1.5547,1.7217c-3.1504,0.5469-7.2256,0.8828-11.7197,0.8828c-7.8975,0-12.3506-2.1846-12.3506-7.0156
		c0-3.9902,3.8652-7.8975,11.6787-10.7119c-0.2529-2.5625-1.5127-3.2764-3.3613-3.2764c-3.5703,0-8.1914,2.7725-13.2324,7.8975
		c-0.3779,0.4199-0.8818,0.6299-1.3438,0.6299c-0.4199,0-0.7979-0.168-1.1348-0.5039c-0.3779-0.3359-0.5459-0.7979-0.5459-1.2607
		c0-0.5039,0.21-0.9658,0.5879-1.3438c3.6133-3.3604,7.2256-7.7295,9.9561-12.0566c-0.5879,0-1.2598,0-1.9326,0
		c-2.0996,0-4.4941-0.042-6.3848-0.126c-0.9238-0.042-1.4697-0.7139-1.4697-1.5537c0-0.042,0-0.126,0-0.168
		c0.084-0.8408,0.6719-1.5547,1.5117-1.5547c0.042,0,0.084,0,0.126,0c1.9746,0.168,4.6631,0.21,7.4355,0.21
		c0.7979,0,1.5957,0,2.3945,0c0.8398-1.5117,1.5957-3.0664,2.1006-4.5781c0.2939-0.8828,0.8818-1.2188,1.5537-1.2188
		c0.21,0,0.3779,0.042,0.5879,0.084c0.8408,0.168,1.3027,0.6719,1.3027,1.3027c0,0.21-0.042,0.4619-0.168,0.7139
		c-0.5039,1.2178-1.0508,2.3525-1.6807,3.6123c3.5703-0.126,8.5693-0.6299,13.1904-1.3018c0.126-0.042,0.252-0.042,0.3779-0.042
		c0.8408,0,1.3867,0.4619,1.5127,1.3438c0,0.084,0,0.168,0,0.2939c0,0.7988-0.5039,1.3867-1.4287,1.5547
		c-5.293,0.7559-10.5439,1.2178-15.332,1.3438c-1.6387,2.7725-3.5713,5.293-5.7559,7.1836L609.1182,976.3643z"/>
	<path fill="#4B5666" d="M440.4238,1023.1104c0.084,0,0.21,0,0.2939,0.042c1.0078,0.168,1.4697,0.6719,1.4697,1.4277
		c0,0.126,0,0.252-0.042,0.3789c-0.8398,5.04-2.0996,9.6191-4.1582,13.8623c-0.252,0.5459-0.7568,0.8818-1.3867,0.8818
		c-0.2939,0-0.5879-0.084-0.8818-0.21c-0.6719-0.2939-1.0078-0.8398-1.0078-1.4287c0-0.21,0.042-0.4199,0.126-0.6299
		c2.0156-3.8643,3.2344-8.1914,4.0742-13.1064C439.0791,1023.5303,439.625,1023.1104,440.4238,1023.1104z M448.9932,1035.6699
		c1.2598-1.1758,2.5205-2.5615,4.0322-4.1582c4.1172-4.3271,8.4854-10.9639,11.3428-17.8115
		c0.252-0.6299,0.7979-0.8818,1.3857-0.8818c0.2939,0,0.5879,0.084,0.8818,0.21c0.5889,0.21,1.0088,0.7979,1.0088,1.4287
		c0,0.21-0.042,0.4619-0.168,0.7139c-3.4453,7.6035-7.6875,14.0723-12.7705,19.3232c-1.8066,1.8486-3.6543,3.6963-5.7129,5.4189
		v2.9824c0,1.5127,0.4199,1.9326,6.0488,1.9326c4.999,0,6.2588-0.6299,6.8057-1.5967c0.6719-1.1758,0.8398-3.4023,0.9238-6.0068
		c0.042-0.8818,0.5879-1.3857,1.5547-1.3857c0.042,0,0.084,0,0.126,0c1.0498,0.042,1.5957,0.6299,1.5957,1.5117c0,0,0,0.042,0,0.084
		c-0.084,3.1084-0.4619,6.1328-1.4697,7.7715c-0.4209,0.6719-1.0508,1.1338-1.8906,1.5967
		c-1.3867,0.7139-4.1172,1.0918-8.1074,1.0918c-0.4199,0-0.8398,0-1.2607,0c-6.5947-0.084-7.6025-1.1338-7.6025-3.9482v-2.0586
		c-2.3525,1.7217-4.915,3.4443-7.7295,4.999c-0.3359,0.21-0.6719,0.2939-1.0088,0.2939c-0.5459,0-1.0498-0.252-1.3857-0.7988
		c-0.21-0.3359-0.2939-0.7139-0.2939-1.0498c0-0.5459,0.2939-1.0078,0.7559-1.2598c3.1504-1.5967,6.3848-3.6553,9.6621-6.2598
		v-17.8105c0-0.7568,0.5879-1.3027,1.6377-1.3027c1.1348,0,1.6387,0.5459,1.6387,1.3027V1035.6699z M459.0752,1015.2129
		c0.5459,0.3359,0.8398,0.7979,0.8398,1.3438c0,0.3359-0.126,0.7148-0.3779,1.1348c-0.3359,0.5459-0.8408,0.8398-1.3447,0.8398
		c-0.3359,0-0.7139-0.126-1.0918-0.3779c-2.5205-1.7646-6.5957-3.8643-10.208-5.377c-0.5879-0.21-0.9238-0.7139-0.9238-1.2607
		c0-0.252,0.042-0.5039,0.168-0.7979c0.3359-0.6719,0.8818-1.0078,1.4697-1.0078c0.21,0,0.4629,0.042,0.6729,0.126
		C451.9336,1011.2217,456.0498,1013.2803,459.0752,1015.2129z M466.8037,1023.7822c0.5469,0,1.0088,0.252,1.3027,0.7559
		c2.6465,4.3271,4.4951,8.7803,6.0488,13.4424c0.084,0.21,0.126,0.4629,0.126,0.6729c0,0.7559-0.4199,1.3857-1.0078,1.5957
		c-0.3359,0.126-0.6719,0.21-0.9658,0.21c-0.7568,0-1.3027-0.4199-1.5127-1.1338c-1.2607-4.5791-3.1504-9.0322-5.6289-13.2324
		c-0.126-0.21-0.168-0.4619-0.168-0.6719c0-0.5469,0.3359-1.0508,0.9238-1.3867
		C466.2158,1023.8662,466.5518,1023.7822,466.8037,1023.7822z"/>
	<path fill="#4B5666" d="M490.9932,1035.166c0,0.3779-0.126,0.7148-0.3779,1.0508c-2.7305,3.8643-7.0996,7.8555-11.1738,10.123
		c-0.4209,0.2529-0.8408,0.3789-1.1768,0.3789c-0.5459,0-0.9658-0.252-1.2598-0.7568c-0.21-0.2939-0.2939-0.6719-0.2939-1.0078
		c0-0.5459,0.2939-1.0918,0.8398-1.3867c4.0742-2.2256,8.0234-5.7549,10.46-9.3252c0.3359-0.5459,0.7979-0.7979,1.3018-0.7979
		c0.2939,0,0.5879,0.126,0.8828,0.3359C490.7412,1034.1582,490.9932,1034.6621,490.9932,1035.166z M490.5732,1022.9004
		c0,0.3779-0.168,0.7979-0.4619,1.1338c-2.8154,3.1084-6.7637,6.3018-10.7119,8.3594c-0.2529,0.126-0.5469,0.21-0.8408,0.21
		c-0.5879,0-1.0918-0.2939-1.3857-0.8818c-0.126-0.3359-0.21-0.6299-0.21-0.8818c0-0.5469,0.3359-0.9668,0.8818-1.2607
		c3.6543-1.8896,7.3936-4.7471,9.7881-7.6875c0.3779-0.4199,0.7979-0.6299,1.2598-0.6299c0.3779,0,0.7559,0.126,1.0918,0.4199
		C490.3633,1022.0176,490.5732,1022.4805,490.5732,1022.9004z M490.0693,1011.6846c0,0.3779-0.127,0.7559-0.4209,1.0498
		c-2.3525,2.5625-6.3428,5.8389-10.165,7.8135c-0.2109,0.126-0.4629,0.168-0.7148,0.168c-0.5879,0-1.1338-0.3359-1.4277-1.0078
		c-0.126-0.2529-0.168-0.4629-0.168-0.7148c0-0.5879,0.3359-1.0918,0.9238-1.3438c3.0664-1.4707,6.9316-4.4531,9.1152-7.0156
		c0.3369-0.3779,0.7568-0.5459,1.2188-0.5459c0.4199,0,0.7979,0.126,1.0918,0.4199
		C489.9004,1010.8438,490.0693,1011.2637,490.0693,1011.6846z M497.7139,1041.0469c0.4199,0,0.8828,0.127,1.2188,0.4209
		s0.5039,0.6299,0.5039,1.0078s-0.168,0.7139-0.4199,0.9658c-2.7305,2.1846-6.3018,3.9912-9.5361,5.041
		c-0.168,0.042-0.3359,0.084-0.5039,0.084c-0.6719,0-1.2178-0.3779-1.4277-1.0918c-0.084-0.21-0.126-0.4199-0.126-0.6299
		c0-0.5889,0.3359-1.0508,1.0078-1.2607c2.9404-0.9658,6.2168-2.5205,8.3174-4.2422
		C497,1041.1318,497.3779,1041.0469,497.7139,1041.0469z M492.4209,1013.9521c-0.7559,0-1.1758-0.5879-1.1758-1.4697
		c0-0.8398,0.4199-1.4707,1.1758-1.4707h22.0547c0.7979,0,1.2178,0.5889,1.2178,1.4707s-0.4199,1.4697-1.2178,1.4697h-10.04
		c-0.4619,1.3027-0.9668,2.6045-1.5547,3.8652h7.1416c2.4365,0,3.5283,0.8818,3.5283,3.1504v16.1729
		c0,2.3105-1.0078,3.1924-3.4443,3.1924h-14.2402c-2.4365,0-3.4453-0.8818-3.4453-3.1924v-16.1729
		c0-2.2686,1.1348-3.1504,3.5293-3.1504h3.6123c0.6299-1.2607,1.1338-2.5205,1.5547-3.8652H492.4209z M510.5264,1024.4121v-2.9824
		c0-0.7979-0.3359-1.0078-1.1338-1.0078h-12.8125c-0.8398,0-1.1338,0.21-1.1338,1.0078v2.9824H510.5264z M510.5264,1030.8818
		v-3.9492h-15.0801v3.9492H510.5264z M495.4463,1036.6367c0,0.7979,0.2939,0.9658,1.1338,0.9658h12.8125
		c0.7979,0,1.1338-0.168,1.1338-0.9658v-3.2344h-15.0801V1036.6367z M515.2734,1045.458c0.5459,0.21,0.8818,0.7139,0.8818,1.3027
		c0,0.21-0.042,0.4199-0.126,0.6299c-0.21,0.6719-0.7139,1.0498-1.3438,1.0498c-0.21,0-0.4209-0.042-0.6309-0.126
		c-2.7725-0.9658-6.2168-2.6465-8.7373-4.915c-0.252-0.21-0.4199-0.5459-0.4199-0.8818s0.126-0.6719,0.4619-0.9658
		c0.3779-0.3359,0.7979-0.5049,1.2188-0.5049c0.3359,0,0.6719,0.085,0.9238,0.2949
		C509.5605,1043.1055,512.7109,1044.6182,515.2734,1045.458z"/>
	<path fill="#4B5666" d="M520.7686,1034.8721c-0.7559,0-1.1758-0.6299-1.1758-1.5117c0-0.8828,0.4199-1.4287,1.1758-1.4287h15.585
		v-3.6123c0-0.7568,0.5879-1.1768,1.5127-1.1768c0.9238,0,1.5957,0.4199,1.5957,1.1768v3.6123h16.2988
		c0.7568,0,1.1768,0.5459,1.1768,1.4287c0,0.8398-0.4199,1.5117-1.1768,1.5117h-14.2402c3.5283,3.7812,9.3672,7.3516,14.6182,9.0742
		c0.7568,0.252,1.1348,0.8398,1.1348,1.5537c0,0.21-0.042,0.4619-0.126,0.6719c-0.252,0.7148-0.8828,1.0928-1.5547,1.0928
		c-0.21,0-0.4199-0.042-0.6299-0.126c-5.8809-2.2686-12.2666-6.5117-15.7949-11.0479c0.168,0.9238,0.2939,2.0996,0.2939,3.0664
		v8.5693c0,0.7139-0.6719,1.1758-1.5957,1.1758c-0.9248,0-1.5127-0.4619-1.5127-1.1758v-8.5693c0-1.0088,0.084-2.1846,0.2939-3.0664
		c-3.5703,4.4102-8.9893,8.4014-15.0801,10.9639c-0.252,0.126-0.5049,0.168-0.7568,0.168c-0.6299,0-1.1758-0.3779-1.4277-1.0928
		c-0.126-0.252-0.168-0.5039-0.168-0.7559c0-0.5879,0.3359-1.0498,1.0078-1.3438c5.7549-2.2266,10.7539-5.5869,14.0723-9.1582
		H520.7686z M546.4775,1012.5664c1.8066,0,2.8145,1.0498,2.8145,2.3105c0,0.6299-0.2939,1.3438-0.8818,1.9736
		c-2.0166,2.0166-4.2432,3.8232-6.7217,5.4189c4.2852,2.0586,9.1572,3.3613,14.5342,4.1172
		c0.8828,0.126,1.3867,0.6719,1.3867,1.4707c0,0.126,0,0.2939-0.042,0.4199c-0.168,0.9658-0.7559,1.3857-1.5127,1.3857
		c-0.126,0-0.21,0-0.3359-0.042c-6.3008-0.9238-12.0557-2.7725-17.0127-5.6289c-5.293,2.8564-11.2998,4.7891-17.5596,5.7969
		c-0.126,0.042-0.252,0.042-0.3779,0.042c-0.7559,0-1.3018-0.5039-1.3857-1.3438c-0.042-0.084-0.042-0.168-0.042-0.2939
		c0-0.7148,0.4199-1.3447,1.2178-1.4707c5.5449-0.7979,10.7539-2.3525,15.291-4.4951c-2.1006-1.4277-4.0332-3.1084-5.7549-4.998
		c-2.1426,1.8477-4.5371,3.5283-7.0156,4.7041c-0.2939,0.126-0.5459,0.168-0.7979,0.168c-0.5459,0-1.0508-0.2939-1.3447-0.8398
		c-0.126-0.252-0.21-0.5459-0.21-0.7559c0-0.5039,0.2939-0.9668,0.8408-1.2188c5.209-2.5205,8.9893-5.9648,11.3418-9.4512
		c0.2939-0.3779,0.7979-0.5879,1.3857-0.5879c0.21,0,0.4199,0.042,0.6309,0.084c0.6719,0.21,1.0918,0.7139,1.0918,1.2178
		c0,0.252-0.084,0.4619-0.252,0.6719c-0.2939,0.4209-0.6299,0.8828-1.0088,1.3447H546.4775z M532.3213,1015.2129
		c-0.084,0.084-0.168,0.126-0.21,0.21c1.9736,2.0166,4.2002,3.8643,6.6367,5.293c2.3525-1.3867,4.4951-2.9404,6.3008-4.7051
		c0.252-0.252,0.3779-0.4199,0.3779-0.5459c0-0.168-0.252-0.252-0.6719-0.252H532.3213z"/>
	<path fill="#4B5666" d="M566.0029,1031.6377c0-2.0166,0.085-4.2432,0.2949-6.5947c-0.9248,1.5537-1.8906,3.0244-2.9824,4.4102
		c-0.3369,0.4199-0.7988,0.6299-1.3027,0.6299c-0.3779,0-0.7559-0.126-1.0918-0.4199c-0.4209-0.3779-0.6309-0.7979-0.6309-1.2598
		c0-0.3779,0.126-0.7568,0.4209-1.0508c3.6123-4.2842,7.0146-10.46,8.5693-16.5088c0.168-0.6719,0.7139-1.0498,1.4697-1.0498
		c0.168,0,0.3359,0.042,0.5459,0.042c0.7988,0.21,1.2607,0.6719,1.2607,1.3438c0,0.168-0.042,0.3359-0.084,0.5049
		c-0.7979,2.7725-1.9746,5.5029-3.2344,8.1914v27.3467c0,0.7979-0.6729,1.2598-1.6807,1.2598c-0.9658,0-1.5547-0.4619-1.5547-1.2598
		V1031.6377z M587.9316,1047.2646c0,0.7979-0.5889,1.2178-1.5967,1.2178c-0.9658,0-1.6387-0.4199-1.6387-1.2178v-13.4004h-11.7197
		c-0.7979,0-1.2598-0.6299-1.2598-1.5127c0-0.8818,0.4619-1.5117,1.2598-1.5117h11.7197v-8.9902h-6.9307
		c-0.9238,1.9746-1.9326,3.8232-3.1084,5.5029c-0.2939,0.4209-0.7988,0.6309-1.3027,0.6309c-0.3359,0-0.6299-0.084-0.9238-0.2939
		c-0.4199-0.2949-0.6299-0.7148-0.6299-1.1768c0-0.3779,0.126-0.7979,0.3779-1.1338c2.2266-2.9404,4.4102-7.8555,5.4609-12.3506
		c0.168-0.7979,0.7139-1.2178,1.4697-1.2178c0.126,0,0.2939,0,0.4209,0.042c0.7559,0.126,1.1758,0.6299,1.1758,1.3438
		c0,0.21-0.042,0.4199-0.084,0.6299c-0.5039,1.7227-1.0078,3.4033-1.6387,4.999h5.7129v-7.7715
		c0-0.7979,0.6729-1.2598,1.6387-1.2598c1.0078,0,1.5967,0.4619,1.5967,1.2598v7.7715h9.1992c0.7559,0,1.2188,0.5879,1.2188,1.5127
		c0,0.8818-0.4629,1.5117-1.2188,1.5117h-9.1992v8.9902h10.7959c0.7559,0,1.2598,0.6299,1.2598,1.5117
		c0,0.9248-0.5039,1.5127-1.2598,1.5127h-10.7959V1047.2646z"/>
	<path fill="#4B5666" d="M611.4902,1013.0283c0,0.168-0.042,0.3359-0.084,0.5459c-1.5117,5.5869-2.3105,12.2246-2.3105,18.3574
		c0,4.1592,0.3779,8.6113,1.0928,12.5186c0.042,0.21,0.042,0.4199,0.042,0.6299c0,0.9658-0.5459,1.4707-1.4287,1.6807
		c-0.168,0.042-0.3359,0.042-0.4619,0.042c-0.7979,0-1.4287-0.4629-1.6387-1.5967c-0.7979-3.8643-1.1758-8.4014-1.1758-13.1064
		c0-6.5527,0.7979-13.3584,2.3945-19.2812c0.252-0.8818,0.9238-1.2598,1.6807-1.2598c0.168,0,0.2939,0,0.4619,0.042
		C610.9023,1011.7266,611.4902,1012.2305,611.4902,1013.0283z M621.1104,1030.7559c0,0.4199-0.21,0.7979-0.5459,1.1338
		c-1.7646,1.6807-2.4365,3.2764-2.4365,4.873c0,2.6045,2.2686,3.9482,8.1494,3.9482c3.6123,0,7.4766-0.3779,10.334-1.0078
		c0.168-0.042,0.3359-0.042,0.5039-0.042c0.8398,0,1.4697,0.5459,1.6377,1.3857c0.042,0.1689,0.042,0.2949,0.042,0.4629
		c0,0.8398-0.5039,1.6377-1.4277,1.8057c-3.1084,0.6309-6.8057,0.9248-10.6699,0.9248c-7.7295,0-11.8467-2.1846-11.8467-7.4775
		c0-2.5625,1.0508-4.957,3.1934-6.9736c0.4619-0.4199,0.9658-0.6299,1.4277-0.6299c0.3779,0,0.7559,0.168,1.0928,0.4619
		C620.9424,1029.999,621.1104,1030.3779,621.1104,1030.7559z M635.4346,1016.0947c1.0508,0,1.5967,0.5879,1.7227,1.5547
		c0,0.042,0,0.084,0,0.126c0,0.9658-0.4199,1.7637-1.6387,1.8906c-3.5283,0.4199-8.5693,0.6299-13.1484,0.6299
		c-1.5537,0-3.0664-0.042-4.4521-0.084c-1.3027-0.042-1.7646-0.8828-1.7646-1.8486c0.042-0.9238,0.6299-1.7646,1.7227-1.7646
		c0.042,0,0.042,0,0.084,0c1.3438,0.042,2.8564,0.084,4.4102,0.084c4.4531,0,9.3262-0.21,12.7285-0.5879
		C635.2246,1016.0947,635.3086,1016.0947,635.4346,1016.0947z"/>
	<path fill="#4B5666" d="M663.8672,1032.8975c-1.0918,3.6553-3.6543,4.873-6.9736,4.873c-4.3682,0-7.4766-2.9824-7.4766-7.1826
		c0-4.4111,3.4863-7.5195,8.2754-7.5195c2.0586,0,3.7803,0.6719,4.999,1.9326c-0.042-1.5127-0.042-3.6553-0.042-5.6299
		c-6.1758,0.126-12.6025,0.3789-18.6934,0.7568c-0.042,0-0.126,0-0.168,0c-0.9668,0-1.5127-0.6729-1.5547-1.6387
		c0-0.042,0-0.084,0-0.084c0-0.8818,0.5459-1.5547,1.5127-1.5967c5.9229-0.3359,12.4756-0.5459,18.8613-0.6719
		c0-1.4697-0.042-2.9404-0.042-4.2002c0-0.9248,0.5459-1.5127,1.5957-1.5127c1.2188,0,1.7646,0.5039,1.7646,1.5967
		c0,1.1758,0,2.5625,0,4.0742c2.2686-0.042,4.4951-0.084,6.6367-0.084c1.5127,0,3.0244,0,4.4531,0.042
		c1.1338,0,1.7227,0.5459,1.7227,1.6807c0,0.042,0,0.084,0,0.126c0,1.0078-0.5889,1.4697-1.5547,1.4697
		c-2.4785-0.042-5.083-0.084-7.8135-0.084c-1.1338,0-2.2686,0-3.4443,0.042c0,2.8145,0,5.7979,0,8.6963
		c0.8398,1.7217,1.2178,3.5283,1.2178,5.5029c0,5.4609-2.3525,8.9893-6.8047,11.3418c-1.8906,1.0078-4.1592,1.7646-6.6797,2.2266
		c-0.126,0.042-0.252,0.042-0.4199,0.042c-0.8398,0-1.5117-0.4619-1.6807-1.3867c-0.042-0.168-0.042-0.3359-0.042-0.4619
		c0-0.8818,0.5049-1.5127,1.3447-1.6807c7.5195-1.3857,11.2158-4.9141,11.2158-9.8711v-0.7988H663.8672z M657.9023,1025.8828
		c-2.8564,0-5.041,1.8906-5.041,4.5371c0,2.8145,1.9326,4.2842,4.5791,4.2842c2.9404,0,4.957-2.0586,4.957-5.041
		C662.3975,1027.3945,660.5908,1025.8828,657.9023,1025.8828z"/>
	<path fill="#4B5666" d="M694.3584,1027.6465c3.2764-1.4697,6.3428-2.1836,9.3252-2.1836c7.5615,0,12.1826,3.9902,12.1826,9.7031
		c0,7.0576-6.4277,11.5107-16.6768,11.5107c-6.2178,0-10.25-2.6045-10.25-6.5117c0-3.2764,2.7305-5.6709,6.8467-5.6709
		c4.5371,0,8.2754,2.7305,8.9902,8.2754c4.2842-1.0078,7.4775-3.6543,7.4775-7.5615c0-3.9902-3.2773-6.8887-9.2422-6.8887
		c-5.5869,0-10.6699,1.8477-17.5586,6.1328c-0.3789,0.21-0.7568,0.2939-1.1348,0.2939c-0.5879,0-1.1758-0.252-1.5117-0.7979
		c-0.21-0.2939-0.2949-0.5879-0.2949-0.9248c0-0.6299,0.3369-1.2598,0.9668-1.5957c6.9307-4.2432,16.2568-11.0898,21.5498-15.7529
		c-4.5791,0.3779-11.0059,0.6299-16.3828,0.6719c-0.8828,0-1.5547-0.6299-1.5547-1.6377c0-0.9668,0.5039-1.7227,1.4707-1.7227
		c5.6709,0,12.8545-0.21,18.4414-0.5879c0.126,0,0.252,0,0.3779,0c0.9658,0,1.6797,0.3359,2.1006,1.0498
		c0.21,0.3779,0.3359,0.7568,0.3359,1.2188c0,0.5879-0.252,1.1758-0.7988,1.7217c-3.6123,3.3613-7.5605,6.3857-10.9639,8.6543
		c-1.1758,0.7979-2.6045,1.7637-3.7803,2.4355L694.3584,1027.6465z M695.6182,1037.3506c-2.1836,0-3.4443,1.1348-3.4443,2.6885
		c0,1.9326,2.5205,3.5283,6.2588,3.5703c1.0088,0,2.0586,0,3.0674-0.084C701.1631,1039.4092,698.5166,1037.3506,695.6182,1037.3506z
		"/>
</g>
<g>
	<path fill="#4B5666" d="M870.8428,598.3721c0,0.042,0,0.042,0,0.084c-0.209,3.3184-1.0488,7.8555-1.9727,10.8379
		c-0.1699,0.5879-0.7148,0.9238-1.3027,0.9238c-0.168,0-0.3359-0.042-0.5039-0.084c-0.6719-0.168-1.0508-0.7139-1.0508-1.4697
		c0-0.042,0-0.126,0-0.21c1.0078-2.8145,1.7637-7.0156,1.9746-10.208c0.041-0.6719,0.6289-1.0508,1.3027-1.0508
		c0.084,0,0.168,0,0.209,0C870.2139,597.2803,870.8428,597.6582,870.8428,598.3721z M872.7334,594.8857
		c-1.7637,0.168-3.5703,0.252-5.293,0.3359c-0.8398,0-1.3438-0.4199-1.3867-1.3867c0-0.084,0-0.126,0-0.21
		c0-0.7979,0.5059-1.2598,1.2188-1.3018c0.5879,0,1.2188,0,1.8496-0.042c0.9648-1.1768,1.8887-2.3945,2.8145-3.6553
		c-1.5977-2.2266-3.6133-4.5781-5.252-6.1748c-0.209-0.2939-0.3359-0.6299-0.3359-0.9658c0-0.3779,0.127-0.7148,0.4199-1.0088
		c0.2949-0.3779,0.6719-0.5459,1.0508-0.5459c0.293,0,0.5879,0.126,0.7969,0.3779c0.3379,0.3359,0.6738,0.7139,1.0508,1.0928
		c1.3867-2.2266,2.6465-4.7471,3.5293-6.7637c0.252-0.5039,0.6719-0.7559,1.1758-0.7559c0.252,0,0.5039,0.042,0.7148,0.168
		c0.5879,0.21,0.9648,0.6719,0.9648,1.1758c0,0.21-0.041,0.4199-0.168,0.6309c-1.0918,2.2676-2.5195,4.8301-4.4102,7.6445
		c0.7559,0.8828,1.4707,1.7646,2.1836,2.6885c1.5137-2.1836,2.8984-4.4102,4.0332-6.4268c0.2949-0.5039,0.7148-0.7559,1.1758-0.7559
		c0.252,0,0.5039,0.084,0.7578,0.21c0.5039,0.252,0.7969,0.7139,0.7969,1.1758c0,0.252-0.084,0.5039-0.209,0.7148
		c-2.2266,3.7803-5.125,7.7285-7.8145,11.0479c0.3359,0,0.6309,0,0.9238-0.042c1.5547-0.084,3.0664-0.168,4.5801-0.3789
		c-0.3359-0.7979-0.6719-1.5957-1.0098-2.3096c-0.125-0.21-0.168-0.4629-0.168-0.6729c0-0.4199,0.2539-0.7979,0.7578-1.0498
		c0.252-0.126,0.4609-0.168,0.6719-0.168c0.5039,0,0.8809,0.3359,1.1328,0.8398c0.8828,1.6807,1.9336,4.2852,2.5625,6.2178
		c0.043,0.21,0.084,0.4199,0.084,0.5879c0,0.6299-0.377,1.0078-0.8809,1.1338c-0.252,0.084-0.4629,0.126-0.6719,0.126
		c-0.5469,0-0.9668-0.252-1.1348-0.9238c-0.127-0.4199-0.252-0.8398-0.4199-1.3027c-0.3359,0.042-0.6719,0.084-1.0078,0.126
		c-0.7148,0.084-1.3867,0.21-2.0586,0.2529v17.2227c0,0.7139-0.5879,1.0918-1.4707,1.0918s-1.5547-0.3779-1.5547-1.0918V594.8857z
		 M878.6982,597.1113c0.5879,0,0.9668,0.2949,1.1348,1.0508c0.5879,2.0166,1.1348,5.6289,1.3867,7.8975c0,0.084,0,0.168,0,0.21
		c0,0.9238-0.6719,1.3438-1.2598,1.4277c-0.084,0-0.127,0-0.2109,0c-0.6719,0-1.3438-0.4199-1.4277-1.3018
		c-0.2109-2.2266-0.5469-5.167-1.1348-7.6455c-0.041-0.168-0.041-0.2939-0.041-0.4199c0-0.6299,0.4199-1.0498,1.0918-1.1768
		C878.4053,597.1113,878.5732,597.1113,878.6982,597.1113z M882.5635,576.1504c0-0.7988,0.6309-1.2607,1.5117-1.2607
		c0.9668,0,1.5137,0.4619,1.5137,1.2607v31.2949c0,0.8828,0.4199,1.1768,1.2598,1.1768h17.3496
		c0.7969,0,1.2168,0.6299,1.2168,1.4697c0,0.8828-0.4199,1.4707-1.1758,1.4707h-17.9375c-2.6465,0-3.7383-0.9248-3.7383-3.5283
		V576.1504z M903.8193,588.542c0.7559,0,1.1348,0.5459,1.1348,1.3867c0,0.8398-0.3789,1.3857-1.1348,1.3857h-6.3008
		c1.8066,3.9492,4.5371,7.5615,7.3926,10.082c0.252,0.21,0.4199,0.5879,0.4199,0.9658c0,0.3789-0.125,0.7988-0.4199,1.1348
		c-0.293,0.3779-0.7129,0.5459-1.0918,0.5459s-0.7148-0.126-0.9238-0.3779c-2.8984-2.6465-5.4199-7.0156-6.6367-10.502
		c0.209,1.5547,0.4609,3.6963,0.4609,5.209v7.4355c0,0.7559-0.5039,1.1758-1.4277,1.1758c-0.8828,0-1.4277-0.4199-1.4277-1.1758
		v-7.4355c0-1.4707,0.252-3.3184,0.4609-5.083c-1.5117,4.2852-3.7383,8.2334-5.5449,10.292
		c-0.377,0.3779-0.7559,0.5879-1.1348,0.5879c-0.293,0-0.6289-0.168-0.9238-0.4619c-0.3359-0.3779-0.5039-0.7559-0.5039-1.1348
		c0-0.4199,0.168-0.7979,0.4629-1.0918c2.3945-2.5625,4.6211-6.0068,6.2168-10.166h-4.8301c-0.7578,0-1.1777-0.5459-1.1777-1.3857
		c0-0.8408,0.4199-1.3867,1.1777-1.3867h5.8379v-13.0225c0-0.7559,0.5039-1.1758,1.3867-1.1758
		c0.9238,0,1.4277,0.4199,1.4277,1.1758v13.0225H903.8193z M892.3096,585.2236c0,0.5879-0.3789,1.0078-0.9238,1.1758
		c-0.2109,0.042-0.3789,0.085-0.5879,0.085c-0.5898,0-1.0938-0.3369-1.3027-1.1348c-0.4629-1.8906-1.4277-4.7051-2.1855-6.5107
		c-0.125-0.21-0.168-0.4629-0.168-0.6309c0-0.5459,0.3359-0.9238,0.8418-1.1338c0.252-0.084,0.5039-0.126,0.7129-0.126
		c0.4629,0,0.8828,0.21,1.0918,0.7139c1.0098,2.1846,1.9336,4.957,2.4785,7.2256
		C892.3096,585.0137,892.3096,585.0977,892.3096,585.2236z M903.9033,578.04c0,0.084,0,0.21-0.041,0.3359
		c-0.5898,2.3945-1.7656,5.4619-2.6465,7.3096c-0.2949,0.6299-0.6738,0.9668-1.2188,0.9668c-0.2109,0-0.4629-0.042-0.7148-0.168
		c-0.5039-0.2109-0.8828-0.5889-0.8828-1.1348c0-0.252,0.0859-0.5039,0.2109-0.8398c0.8398-1.5967,1.8477-4.5791,2.4355-6.8896
		c0.127-0.5459,0.5898-0.8818,1.1777-0.8818c0.209,0,0.4199,0.042,0.6289,0.126
		C903.5244,577.0322,903.9033,577.4521,903.9033,578.04z"/>
	<path fill="#4B5666" d="M914.9014,594.8018c-1.8066,0.168-3.6113,0.3359-5.334,0.4199c-0.043,0-0.084,0-0.084,0
		c-0.7559,0-1.2188-0.4619-1.3027-1.3867c0-0.042,0-0.084,0-0.126c0-0.8398,0.4629-1.3018,1.2188-1.3438
		c0.6289,0,1.2598-0.042,1.9316-0.042c0.9668-1.2188,1.8906-2.5205,2.7734-3.7812c-1.6816-2.2266-3.6562-4.5781-5.3359-6.1748
		c-0.252-0.3359-0.377-0.6719-0.377-1.0498c0-0.3369,0.125-0.6729,0.3359-0.9668c0.3359-0.3779,0.7129-0.5879,1.0918-0.5879
		c0.252,0,0.5449,0.126,0.7559,0.3359c0.3789,0.3779,0.7988,0.7979,1.1758,1.2188c1.4277-2.1846,2.6895-4.7471,3.4863-6.8057
		c0.2109-0.5039,0.6309-0.7139,1.1348-0.7139c0.2109,0,0.4629,0.042,0.7148,0.168c0.5879,0.21,0.9648,0.6299,0.9648,1.1758
		c0,0.21-0.041,0.4199-0.168,0.6729c-1.0078,2.3516-2.5195,5.04-4.2422,7.5605c0.7559,0.8408,1.4707,1.7227,2.1426,2.6465
		c1.4707-2.2686,2.7715-4.5361,3.7812-6.4688c0.252-0.4619,0.6719-0.7139,1.1758-0.7139c0.209,0,0.4609,0.042,0.7129,0.168
		c0.5469,0.2939,0.8418,0.7139,0.8418,1.2178c0,0.252-0.084,0.5039-0.2109,0.7979c-1.8906,3.4453-4.9141,7.8975-7.3926,11.1328
		c1.7227-0.042,3.4863-0.21,5.209-0.4209c-0.3359-0.9658-0.7559-1.9316-1.1348-2.7725c-0.084-0.126-0.127-0.2939-0.127-0.4619
		c0-0.4199,0.252-0.7979,0.7988-1.0498c0.2109-0.126,0.4629-0.168,0.6309-0.168c0.5039,0,0.8809,0.2939,1.0918,0.6719
		c1.0078,1.9746,1.9316,4.3271,2.5195,6.5947c0.043,0.127,0.043,0.2109,0.043,0.3369c0,0.5459-0.3359,0.9658-0.9668,1.1758
		c-0.168,0.042-0.377,0.084-0.5449,0.084c-0.5469,0-1.0098-0.2939-1.1777-0.9238c-0.084-0.3359-0.209-0.7148-0.3359-1.0928
		c-0.5879,0.084-1.2168,0.168-1.8477,0.252c-0.3359,0.042-0.6309,0.084-0.9238,0.126v17.2656c0,0.7139-0.6309,1.1338-1.5547,1.1338
		c-0.8828,0-1.4707-0.4199-1.4707-1.1338V594.8018z M912.9268,598.666c0,0,0,0.042,0,0.084
		c-0.209,3.2344-0.8398,7.2676-1.6797,10.292c-0.168,0.6299-0.7559,0.9238-1.3867,0.9238c-0.168,0-0.3359-0.042-0.5039-0.084
		c-0.6289-0.168-1.0918-0.6299-1.0918-1.2178c0-0.126,0-0.252,0.043-0.4199c0.9648-2.9414,1.5117-6.5957,1.7207-9.5361
		c0.043-0.8818,0.4629-1.3018,1.4707-1.3018c0.043,0,0.084,0,0.127,0C912.4658,597.4482,912.9268,597.8682,912.9268,598.666z
		 M923.5967,604.9248c0,0.7568-0.5449,1.2188-1.2168,1.3027c-0.084,0.042-0.168,0.042-0.252,0.042
		c-0.6309,0-1.1777-0.3779-1.2617-1.2188c-0.252-2.0156-0.7559-4.4941-1.2598-6.3008c-0.041-0.126-0.041-0.2939-0.041-0.4199
		c0-0.6719,0.4609-1.0078,1.0078-1.1768c0.125-0.042,0.252-0.042,0.377-0.042c0.5469,0,1.0098,0.2529,1.1777,0.8408
		c0.6289,2.1846,1.1758,4.7051,1.4688,6.7207C923.5967,604.7568,923.5967,604.8408,923.5967,604.9248z M932.7549,596.6494
		c0,8.1494-2.8555,13.1484-8.6543,15.627c-0.293,0.084-0.5879,0.168-0.8398,0.168c-0.5879,0-1.0918-0.2939-1.3438-0.8818
		c-0.125-0.3779-0.209-0.6719-0.209-0.9668c0-0.5879,0.293-1.0498,0.9648-1.3018c2.0586-0.9238,3.9492-2.1426,5.168-4.2012
		c1.2598-2.0576,1.7637-5.082,1.7637-8.1914c0-1.1338,0.5879-1.5537,1.6797-1.5537
		C932.251,595.3477,932.7549,595.7676,932.7549,596.6494z M944.2646,584.6777c0.7148,0,1.0918,0.5459,1.0918,1.3018
		c0,0.7568-0.377,1.3867-1.0918,1.3867h-18.3574c-0.7559,0-1.1328-0.6299-1.1328-1.3867c0-0.7559,0.377-1.3018,1.1328-1.3018h7.1426
		v-4.1172h-8.2754c-0.7148,0-1.1348-0.5879-1.1348-1.3857c0-0.7988,0.4199-1.3447,1.1348-1.3447h8.2754v-2.8564
		c0-0.7979,0.5879-1.2178,1.5117-1.2178c0.9668,0,1.5117,0.4199,1.5117,1.2178v2.8564h9.4512c0.7148,0,1.1348,0.5459,1.1348,1.3447
		c0,0.7979-0.4199,1.3857-1.1348,1.3857h-9.4512v4.1172H944.2646z M942.9619,590.3066c2.5215,0,3.5293,0.8818,3.5293,3.3184v3.4863
		c0,0.8408-0.6289,1.2607-1.5547,1.2607c-0.9648,0-1.5117-0.4199-1.5117-1.1768v-3.1504c0-0.8398-0.5039-1.0918-1.2598-1.0918
		h-13.9473c-0.7559,0-1.2168,0.252-1.2168,1.0918v3.1504c0,0.7148-0.5059,1.1348-1.4297,1.1348
		c-0.9648,0-1.4707-0.3779-1.4707-1.2607v-3.4443c0-2.4365,0.9668-3.3184,3.4883-3.3184H942.9619z M936.1162,596.5234
		c0-0.7979,0.5879-1.1758,1.5117-1.1758c0.8828,0,1.5547,0.3779,1.5547,1.1758v11.1738c0,1.0928,0.252,1.2188,2.4785,1.2188
		c1.7227,0,2.1836-0.3359,2.4785-1.0088c0.293-0.6299,0.4199-1.9736,0.5449-3.6123c0.043-0.7559,0.5039-1.2598,1.3457-1.2598
		c0.041,0,0.084,0,0.168,0c0.8809,0.084,1.2598,0.5459,1.2598,1.5117c0,0.084,0,0.126,0,0.168
		c-0.084,2.1846-0.5469,4.4111-1.1348,5.4189c-0.7988,1.3447-1.8906,1.8066-5.125,1.8066c-3.9492,0-5.082-0.5879-5.082-3.4863
		V596.5234z"/>
	<path fill="#4B5666" d="M962.4463,579.9727c2.3945,0,3.5293,0.9238,3.5293,3.2764v23.1465c0,2.3945-1.1758,3.4023-3.5293,3.4023
		h-7.2676c-2.3945,0-3.5703-1.0078-3.5703-3.4023V583.249c0-2.3525,1.1348-3.2764,3.5703-3.2764h1.4297
		c0.6719-1.7227,1.1758-3.5703,1.5527-5.125c0.1699-0.6299,0.6738-0.9658,1.3867-0.9658c0.168,0,0.3789,0,0.5469,0.042
		c0.8828,0.168,1.2598,0.5879,1.2598,1.2598c0,0.126,0,0.252-0.041,0.3359c-0.3789,1.4287-0.9258,3.1094-1.5137,4.4531H962.4463z
		 M962.7822,592.7432v-8.7793c0-0.9248-0.4199-1.1348-1.2168-1.1348h-5.5039c-0.8398,0-1.2598,0.21-1.2598,1.1348v8.7793H962.7822z
		 M954.8018,605.7236c0,0.9658,0.4199,1.1758,1.2598,1.1758h5.5039c0.7969,0,1.2168-0.21,1.2168-1.1758v-10.166h-7.9805V605.7236z
		 M973.1592,582.9971c-1.0508,2.1006-2.2266,4.0752-3.4453,5.5449c-0.3359,0.4199-0.7988,0.5879-1.2598,0.5879
		c-0.4199,0-0.8828-0.168-1.1758-0.4199c-0.2949-0.2939-0.4629-0.6719-0.4629-1.0918s0.127-0.8398,0.4629-1.1768
		c2.2266-2.6035,4.4102-7.2246,5.4609-11.5098c0.209-0.7979,0.7969-1.0918,1.4688-1.0918c0.1699,0,0.3379,0,0.5059,0.042
		c0.6719,0.126,1.1758,0.6299,1.1758,1.3438c0,0.168,0,0.2939-0.043,0.4619c-0.377,1.3867-0.8398,2.7734-1.3438,4.2012h10.123
		c2.6055,0,3.7402,1.1338,3.7402,3.7383c0,0.2949,0,0.5889,0,0.8408c0,12.0977-0.8828,19.7012-2.2266,23.9443
		c-0.8828,2.7725-2.7305,3.7383-5.7559,3.7383c-1.8066,0-3.7812-0.252-5.209-0.6299c-0.6719-0.168-1.0078-0.7559-1.0078-1.4707
		c0-0.168,0.041-0.3779,0.084-0.5879c0.2109-0.7559,0.7559-1.1338,1.3867-1.1338c0.168,0,0.3359,0.042,0.5039,0.084
		c1.0508,0.3359,2.4355,0.5459,3.9902,0.5459c1.8066,0,2.6465-0.4199,3.1504-2.3105c1.0078-3.6543,1.7637-11.1738,1.7637-22.3477
		c0-1.0088-0.4199-1.3027-1.3848-1.3027H973.1592z M973.1162,588.584c0.3789,0,0.7559,0.126,1.0508,0.5039
		c2.0996,2.5205,4.1172,6.0918,5.377,8.7803c0.125,0.252,0.168,0.5039,0.168,0.7559c0,0.5879-0.2949,1.1338-0.8828,1.4287
		c-0.293,0.126-0.6289,0.21-0.9238,0.21c-0.5449,0-1.0918-0.2939-1.3867-0.9668c-1.0488-2.3945-2.9395-5.9229-4.8301-8.3594
		c-0.2109-0.2939-0.3359-0.5879-0.3359-0.9238c0-0.4199,0.209-0.8408,0.6309-1.0928
		C972.3193,588.71,972.7393,588.584,973.1162,588.584z"/>
	<path fill="#4B5666" d="M1001.0439,577.2422c0,0.168-0.041,0.3359-0.084,0.5459c-1.5117,5.5869-2.3105,12.2246-2.3105,18.3574
		c0,4.1592,0.3789,8.6113,1.0938,12.5186c0.041,0.21,0.041,0.4199,0.041,0.6299c0,0.9658-0.5449,1.4707-1.4277,1.6807
		c-0.168,0.042-0.3359,0.042-0.4629,0.042c-0.7969,0-1.4277-0.4629-1.6387-1.5967c-0.7969-3.8643-1.1758-8.4014-1.1758-13.1064
		c0-6.5527,0.7988-13.3584,2.3945-19.2812c0.252-0.8818,0.9238-1.2598,1.6816-1.2598c0.168,0,0.293,0,0.4609,0.042
		C1000.4561,575.9404,1001.0439,576.4443,1001.0439,577.2422z M1010.665,594.9697c0,0.4199-0.2109,0.7979-0.5469,1.1338
		c-1.7637,1.6807-2.4355,3.2764-2.4355,4.873c0,2.6045,2.2676,3.9482,8.1484,3.9482c3.6133,0,7.4766-0.3779,10.334-1.0078
		c0.168-0.042,0.3359-0.042,0.5039-0.042c0.8398,0,1.4707,0.5459,1.6387,1.3857c0.041,0.1689,0.041,0.2949,0.041,0.4629
		c0,0.8398-0.5039,1.6377-1.4277,1.8057c-3.1074,0.6309-6.8047,0.9248-10.6699,0.9248c-7.7285,0-11.8457-2.1846-11.8457-7.4775
		c0-2.5625,1.0508-4.957,3.1934-6.9736c0.4609-0.4199,0.9648-0.6299,1.4277-0.6299c0.377,0,0.7559,0.168,1.0918,0.4619
		C1010.4971,594.2129,1010.665,594.5918,1010.665,594.9697z M1024.9893,580.3086c1.0508,0,1.5957,0.5879,1.7227,1.5547
		c0,0.042,0,0.084,0,0.126c0,0.9658-0.4199,1.7637-1.6387,1.8906c-3.5293,0.4199-8.5703,0.6299-13.1484,0.6299
		c-1.5547,0-3.0664-0.042-4.4531-0.084c-1.3027-0.042-1.7637-0.8828-1.7637-1.8486c0.041-0.9238,0.6289-1.7646,1.7227-1.7646
		c0.041,0,0.041,0,0.084,0c1.3438,0.042,2.8555,0.084,4.4102,0.084c4.4531,0,9.3262-0.21,12.7285-0.5879
		C1024.7783,580.3086,1024.8623,580.3086,1024.9893,580.3086z"/>
	<path fill="#4B5666" d="M831.8662,644.9072c0-1.6377,0.127-3.4023,0.3789-5.082c-0.7148,1.5117-1.4707,2.8564-2.3535,3.9482
		c-0.377,0.4619-0.7969,0.7139-1.2168,0.7139c-0.3359,0-0.6719-0.126-1.0098-0.3779c-0.4609-0.2939-0.6719-0.7139-0.6719-1.1338
		c0-0.3359,0.127-0.6719,0.3359-1.0088c3.4043-4.3682,6.2188-10.459,7.8145-16.5508c0.168-0.7139,0.6289-1.0918,1.3867-1.0918
		c0.168,0,0.377,0.042,0.5879,0.084c0.7559,0.21,1.2168,0.6719,1.2168,1.3018c0,0.126-0.041,0.2939-0.084,0.4629
		c-0.7969,2.8564-1.8887,5.7129-3.1914,8.5693v27.3887c0,0.7979-0.6309,1.1758-1.6387,1.1758c-0.9238,0-1.5547-0.3779-1.5547-1.1758
		V644.9072z M840.3525,629.7852c-0.7988,0-1.2188-0.5879-1.2188-1.5127c0-0.9238,0.4199-1.4697,1.2188-1.4697h25.666
		c0.7559,0,1.1758,0.5459,1.1758,1.4277c0,0.9668-0.4199,1.5547-1.1758,1.5547h-8.3164v6.9307h4.4512
		c2.4785,0,3.6973,1.0088,3.6973,3.5293v17.9365c0,2.4785-1.2188,3.5293-3.6973,3.5293h-19.4902
		c-2.4785,0-3.6973-1.0508-3.6973-3.5293v-17.9365c0-2.5205,1.2188-3.5293,3.6973-3.5293h4.2422v-6.9307H840.3525z
		 M843.4189,639.6152c-0.9238,0-1.3438,0.252-1.3438,1.2178v16.7188c0,0.9668,0.4199,1.2188,1.3438,1.2188h3.4863v-19.1553H843.4189
		z M854.7178,636.7158v-6.9307h-4.8301v6.9307H854.7178z M854.7178,658.7705v-19.1553h-4.8301v19.1553H854.7178z M861.3564,658.7705
		c0.9648,0,1.3848-0.252,1.3848-1.2188V640.833c0-0.9658-0.4199-1.2178-1.3848-1.2178h-3.6543v19.1553H861.3564z"/>
	<path fill="#4B5666" d="M874.2021,644.9492c0-1.6797,0.168-3.5703,0.4629-5.334c-0.7559,1.5117-1.5957,2.9824-2.4785,4.0742
		c-0.3359,0.4619-0.8398,0.6719-1.3027,0.6719c-0.377,0-0.7129-0.126-1.0508-0.3779c-0.3359-0.2939-0.5449-0.7559-0.5449-1.2178
		c0-0.3359,0.084-0.7148,0.3359-1.0088c3.6973-4.6621,6.3008-9.9971,7.8965-16.3408c0.2109-0.7559,0.6309-1.1338,1.3457-1.1338
		c0.168,0,0.377,0.042,0.5879,0.084c0.7969,0.126,1.2598,0.6299,1.2598,1.3438c0,0.168,0,0.2939-0.041,0.4629
		c-0.7988,2.8984-1.9336,5.9229-3.2773,8.7373v27.0947c0,0.7979-0.5879,1.1758-1.5957,1.1758c-0.9258,0-1.5977-0.3779-1.5977-1.1758
		V644.9492z M885.251,661.9209c-2.4375,0-3.8652-1.1768-3.8652-3.6973V635.666c0-0.7979,0.6309-1.2178,1.5957-1.2178
		c0.9258,0,1.5977,0.4199,1.5977,1.2178v21.9697c0,0.9248,0.5449,1.4287,1.5547,1.4287h21.6328
		c0.7559,0,1.1758,0.5879,1.1758,1.4277c0,0.8408-0.4199,1.4287-1.1758,1.4287H885.251z M903.1455,634.7422
		c2.3535,0,3.4023,0.8818,3.4023,3.0244v15.291c0,2.1416-1.0488,3.0244-3.4023,3.0244h-11.2988
		c-2.3105,0-3.3613-0.8828-3.3613-3.0244v-15.291c0-2.1426,1.0508-3.0244,3.3613-3.0244h1.3848
		c0.3359-1.1348,0.5879-2.3105,0.7988-3.4873h-10.7969c-0.7559,0-1.1328-0.5879-1.1328-1.4277s0.377-1.3867,1.1328-1.3867h11.3008
		c0.127-0.9658,0.252-1.9316,0.3359-2.8145c0.084-0.9238,0.5879-1.3018,1.4707-1.3018c0.084,0,0.168,0,0.252,0
		c0.9668,0.084,1.4277,0.5459,1.4277,1.3018c0,0.084,0,0.168,0,0.252c-0.125,0.8408-0.252,1.6807-0.4199,2.5625h10.6699
		c0.7559,0,1.1348,0.5469,1.1348,1.3867s-0.3789,1.4277-1.1348,1.4277h-11.2148c-0.252,1.1768-0.5469,2.3525-0.8418,3.4873H903.1455
		z M903.5654,640.959v-2.6465c0-0.7559-0.377-1.0078-1.2598-1.0078h-9.5781c-0.8809,0-1.2598,0.252-1.2598,1.0078v2.6465H903.5654z
		 M891.4678,647.1338h12.0977v-3.6543h-12.0977V647.1338z M891.4678,652.5107c0,0.7568,0.3789,1.0088,1.2598,1.0088h9.5781
		c0.8828,0,1.2598-0.252,1.2598-1.0088v-2.8564h-12.0977V652.5107z"/>
	<path fill="#4B5666" d="M921.5381,641.3789c3.2773-2.3105,5.6289-3.4443,8.2344-3.4443c3.0234,0,5.25,1.3018,5.7969,4.915
		c3.7793-1.3447,7.4336-2.4785,10.334-3.3193c0.252-0.042,0.5039-0.084,0.7129-0.084c0.7559,0,1.3027,0.3789,1.5547,1.1348
		c0.041,0.252,0.084,0.4619,0.084,0.6719c0,0.7559-0.4199,1.3447-1.3438,1.5547c-3.0664,0.7979-7.0156,1.8477-11.0488,3.3184
		c0.084,1.5127,0.127,2.9824,0.127,4.4951c0,0.7979,0,1.5957-0.043,2.3945c-0.041,1.0498-0.7129,1.5957-1.6387,1.5957
		c-0.9648,0-1.5527-0.5459-1.5527-1.5957c0-1.1348,0-2.5205,0-3.8652c0-0.6719,0-1.3857,0-2.0166
		c-5.8828,2.2686-8.4863,4.7891-8.4863,7.3936c0,2.4785,2.7305,3.7803,8.6543,3.7803c4.0312,0,8.2324-0.3779,11.3418-0.9238
		c0.209-0.042,0.377-0.042,0.5879-0.042c0.8398,0,1.3867,0.4199,1.5547,1.3027c0.041,0.168,0.041,0.2939,0.041,0.4199
		c0,0.8818-0.5879,1.5957-1.5547,1.7217c-3.1504,0.5469-7.2246,0.8828-11.7188,0.8828c-7.8984,0-12.3516-2.1846-12.3516-7.0156
		c0-3.9902,3.8652-7.8975,11.6797-10.7119c-0.2539-2.5625-1.5137-3.2764-3.3613-3.2764c-3.5703,0-8.1914,2.7725-13.2324,7.8975
		c-0.3789,0.4199-0.8828,0.6299-1.3438,0.6299c-0.4199,0-0.7988-0.168-1.1348-0.5039c-0.3789-0.3359-0.5469-0.7979-0.5469-1.2607
		c0-0.5039,0.2109-0.9658,0.5879-1.3438c3.6133-3.3604,7.2266-7.7295,9.957-12.0566c-0.5879,0-1.2598,0-1.9336,0
		c-2.0996,0-4.4941-0.042-6.3848-0.126c-0.9238-0.042-1.4688-0.7139-1.4688-1.5537c0-0.042,0-0.126,0-0.168
		c0.084-0.8408,0.6719-1.5547,1.5117-1.5547c0.041,0,0.084,0,0.125,0c1.9746,0.168,4.6641,0.21,7.4355,0.21
		c0.7988,0,1.5957,0,2.3945,0c0.8398-1.5117,1.5957-3.0664,2.1016-4.5781c0.293-0.8828,0.8809-1.2188,1.5527-1.2188
		c0.2109,0,0.3789,0.042,0.5879,0.084c0.8418,0.168,1.3027,0.6719,1.3027,1.3027c0,0.21-0.041,0.4619-0.168,0.7139
		c-0.5039,1.2178-1.0508,2.3525-1.6797,3.6123c3.5703-0.126,8.5684-0.6299,13.1895-1.3018c0.127-0.042,0.252-0.042,0.3789-0.042
		c0.8398,0,1.3867,0.4619,1.5117,1.3438c0,0.084,0,0.168,0,0.2939c0,0.7988-0.5039,1.3867-1.4277,1.5547
		c-5.293,0.7559-10.5449,1.2178-15.332,1.3438c-1.6387,2.7725-3.5723,5.293-5.7559,7.1836L921.5381,641.3789z"/>
	<path fill="#4B5666" d="M959.2959,636.3379c-0.043,10.7539-1.3027,18.9033-4.4531,25.0371
		c-0.3359,0.6719-0.8398,1.0078-1.4277,1.0078c-0.2949,0-0.6309-0.084-1.0078-0.2939c-0.5879-0.3359-0.8828-0.7559-0.8828-1.3027
		c0-0.2939,0.084-0.6299,0.2949-1.0078c3.3594-6.3848,4.2832-13.0645,4.2422-30.5391c0-2.5625,1.3438-3.6973,3.9902-3.6973h25.541
		c2.5625,0,3.7812,0.9668,3.7812,3.5293v3.8223c0,2.5205-1.2188,3.4443-3.7812,3.4443H959.2959z M984.8779,633.4814
		c0.8398,0,1.3867-0.252,1.3867-1.1758v-2.6465c0-0.8828-0.5469-1.1768-1.3867-1.1768h-23.7754
		c-1.3027,0-1.7656,0.3359-1.7656,1.4287v3.5703H984.8779z M984.6689,642.1348c2.6035,0,3.7793,0.9668,3.7793,3.5293v13.3164
		c0,2.6045-1.1758,3.5703-3.7793,3.5703h-19.1133c-2.6055,0-3.7812-0.9658-3.7812-3.5703v-13.3164
		c0-2.5625,1.1758-3.5293,3.7812-3.5293h7.7715v-3.3184c0-0.7979,0.6289-1.1758,1.5527-1.1758c0.9258,0,1.5547,0.3779,1.5547,1.1758
		v3.3184H984.6689z M966.3525,644.9072c-0.9648,0-1.4707,0.2949-1.4707,1.3027v4.3691h8.4453v-5.6719H966.3525z M964.8818,653.2676
		v5.167c0,1.0498,0.5059,1.3018,1.4707,1.3018h6.9746v-6.4688H964.8818z M976.4346,650.5791h8.9062V646.21
		c0-1.0078-0.5039-1.3027-1.5137-1.3027h-7.3926V650.5791z M976.4346,659.7363h7.3926c1.0098,0,1.5137-0.252,1.5137-1.3018v-5.167
		h-8.9062V659.7363z"/>
	<path fill="#4B5666" d="M1002.3467,627.6846c0,0.168-0.043,0.3359-0.084,0.5459c-1.2188,5.6709-2.0176,11.5527-2.0176,16.1729
		c0,4.5371,0.5469,9.4941,1.5547,13.7363c0.084,0.2529,0.127,0.5049,0.127,0.7568c0,0.7979-0.4629,1.3018-1.2188,1.5117
		c-0.168,0.042-0.3789,0.084-0.5879,0.084c-0.7559,0-1.4707-0.4199-1.7637-1.3857c-1.0938-4.3271-1.6816-9.6201-1.6816-14.6611
		c0-4.873,0.8398-10.7959,2.0176-16.8447c0.168-1.0498,0.9238-1.5127,1.8906-1.5127c0.084,0,0.209,0,0.3359,0
		C1001.8428,626.2148,1002.3467,626.8447,1002.3467,627.6846z M1023.5186,642.1348c0,6.2178-1.0918,10.5439-2.8574,13.4004
		c-1.8066,2.9414-5.041,5.335-8.5273,6.4277c-0.293,0.084-0.5449,0.126-0.7969,0.126c-0.7148,0-1.2617-0.3359-1.5137-1.0928
		c-0.125-0.3359-0.168-0.5879-0.168-0.8398c0-0.7139,0.3789-1.2178,1.1348-1.4697c2.6875-0.9248,5.5449-2.6465,7.0156-5.041
		c1.3867-2.2266,2.3105-5.9648,2.3105-11.6787c0-1.0918,0-2.1836-0.043-3.3184c-2.1426,0.168-4.2852,0.252-6.5117,0.252
		c-2.3086,0-5.082-0.042-6.6367-0.168c-0.8398-0.084-1.4707-0.7139-1.4707-1.6377c0,0,0-0.042,0-0.084
		c0.043-0.9668,0.6738-1.5547,1.5137-1.5547c0.041,0,0.041,0,0.084,0c1.4707,0.084,4.2852,0.168,6.3008,0.168
		c2.2676,0,4.4941-0.042,6.6367-0.21c-0.084-2.9404-0.252-5.8809-0.4199-8.0234c0-0.084,0-0.126,0-0.21
		c0-1.0078,0.5879-1.4707,1.6387-1.5547c0.041,0,0.084,0,0.125,0c0.9668,0,1.5547,0.5049,1.6387,1.5547
		c0.168,2.1006,0.3359,4.915,0.4199,7.8555c1.7227-0.168,3.4863-0.4619,4.916-0.7559c0.168-0.042,0.293-0.042,0.4199-0.042
		c0.8398,0,1.3867,0.5459,1.4707,1.3438c0.041,0.126,0.041,0.252,0.041,0.3779c0,0.7979-0.5039,1.4287-1.3027,1.5547
		c-1.6367,0.2939-3.4023,0.5879-5.4609,0.7979C1023.5186,639.6152,1023.5186,640.833,1023.5186,642.1348z"/>
	<path fill="#4B5666" d="M1044.1807,642.2617c3.2754-1.4707,6.3418-2.1846,9.3242-2.1846c7.5625,0,12.1836,3.9902,12.1836,9.7031
		c0,7.0576-6.4277,11.5107-16.6777,11.5107c-6.2168,0-10.25-2.6045-10.25-6.5117c0-3.2764,2.7305-5.6709,6.8477-5.6709
		c4.5371,0,8.2754,2.7305,8.9902,8.2754c4.2832-1.0078,7.4766-3.6543,7.4766-7.5615c0-3.9902-3.2773-6.8887-9.2422-6.8887
		c-5.5859,0-10.6699,1.8477-17.5586,6.1328c-0.3789,0.21-0.7559,0.2939-1.1348,0.2939c-0.5879,0-1.1758-0.252-1.5117-0.7979
		c-0.209-0.2939-0.2949-0.5879-0.2949-0.9238c0-0.6309,0.3379-1.2607,0.9668-1.5967c6.9316-4.2432,16.2578-11.0898,21.5508-15.7529
		c-4.5801,0.3779-11.0059,0.6299-16.3828,0.6719c-0.8828,0-1.5547-0.6299-1.5547-1.6377c0-0.9668,0.5039-1.7227,1.4707-1.7227
		c5.6699,0,12.8535-0.21,18.4414-0.5879c0.125,0,0.252,0,0.377,0c0.9668,0,1.6797,0.3359,2.1016,1.0498
		c0.209,0.3779,0.3359,0.7559,0.3359,1.2188c0,0.5879-0.252,1.1758-0.7988,1.7217c-3.6133,3.3613-7.5605,6.3857-10.9648,8.6543
		c-1.1758,0.7979-2.6035,1.7637-3.7793,2.4355L1044.1807,642.2617z M1045.4404,651.9648c-2.1836,0-3.4453,1.1348-3.4453,2.6885
		c0,1.9326,2.5215,3.5283,6.2598,3.5703c1.0078,0,2.0586,0,3.0664-0.084C1050.9854,654.0234,1048.3389,651.9648,1045.4404,651.9648z
		"/>
</g>
<g>
	<path fill="#4B5666" d="M181.5405,577.2002c0.6719,0,1.0503,0.5459,1.0503,1.3867c0,0.8398-0.3784,1.3857-1.0503,1.3857H145.876
		c-0.7139,0-1.0918-0.5459-1.0918-1.3857c0-0.7988,0.3779-1.3867,1.0918-1.3867h15.9209v-2.3105
		c0-0.7559,0.7144-1.1758,1.6802-1.1758c1.0083,0,1.6807,0.4199,1.6807,1.1758v2.3105H181.5405z M177.5498,594.1289
		c2.6885,0,3.8647,1.0508,3.8647,3.4873v11.0059c0,2.6885-1.5122,3.6963-4.4951,3.6963c-1.4282,0-2.7305-0.168-3.7803-0.4199
		c-0.6724-0.168-1.0923-0.5879-1.0923-1.2607c0-0.168,0.042-0.3359,0.084-0.5459c0.21-0.7139,0.6299-1.0918,1.1343-1.0918
		c0.126,0,0.2939,0.042,0.4199,0.042c0.7983,0.168,1.8481,0.3359,2.7305,0.3359c1.3442,0,1.8062-0.3359,1.8062-1.6387v-9.6611
		c0-1.0088-0.4619-1.3027-1.4702-1.3027H150.623c-1.0083,0-1.4702,0.2939-1.4702,1.3027v13.4844
		c0,0.7559-0.6304,1.2178-1.5962,1.2178c-0.9663,0-1.5967-0.4619-1.6807-1.2178v-13.9463c0-2.4365,1.1763-3.4873,3.8647-3.4873
		H177.5498z M172.8027,582.3252c2.1006,0,3.1509,0.8398,3.1509,2.8145v3.7383c0,2.0166-1.0503,2.8564-3.1509,2.8564h-18.3149
		c-2.1006,0-3.1509-0.8398-3.1509-2.8564v-3.7383c0-1.9746,1.0503-2.8145,3.1509-2.8145H172.8027z M171.7529,589.0459
		c0.7979,0,1.1758-0.21,1.1758-0.9658v-2.1006c0-0.7559-0.3779-0.9658-1.1758-0.9658h-16.2148c-0.7983,0-1.1763,0.21-1.1763,0.9658
		v2.1006c0,0.7559,0.3779,0.9658,1.1763,0.9658H171.7529z M157.3442,609.084c-2.0166,0-2.9404-0.7139-2.9404-2.7725v-4.3271
		c0-2.1006,0.9238-2.8564,2.9404-2.8564h12.2241c2.0586,0,2.9824,0.7559,2.9824,2.8564v4.3271c0,2.0166-0.9238,2.7725-2.8984,2.7725
		H157.3442z M168.4341,606.3955c0.7144,0,1.0503-0.21,1.0503-0.8818v-2.8145c0-0.7568-0.3359-0.9248-1.0503-0.9248h-9.9136
		c-0.7563,0-1.0503,0.168-1.0503,0.9248v2.8145c0,0.6719,0.2939,0.8818,1.0083,0.8818H168.4341z"/>
	<path fill="#4B5666" d="M195.2695,603.917c1.2603,2.6885,3.6128,3.9482,6.1328,4.3691c1.9746,0.2939,4.5791,0.4619,7.9814,0.4619
		c5.167,0,10.292-0.21,14.5767-0.5879c0.042,0,0.126,0,0.168,0c0.9663,0,1.4702,0.5879,1.5122,1.5957c0,0.084,0,0.126,0,0.21
		c0,0.8828-0.5459,1.4287-1.5542,1.5127c-4.2847,0.168-9.9556,0.3359-14.9546,0.3359c-3.6128,0-6.8052-0.168-8.8633-0.6719
		c-2.9829-0.6309-5.335-2.1846-6.6792-4.7051c-1.4702,1.8906-3.4448,3.8643-5.125,5.167c-0.2939,0.21-0.5884,0.2939-0.9243,0.2939
		c-0.4199,0-0.8823-0.21-1.2183-0.6719c-0.2939-0.3779-0.4199-0.7568-0.4199-1.1348c0-0.4199,0.21-0.8398,0.5879-1.0918
		c1.5962-1.1768,4.2007-3.2764,5.6294-5.293v-8.9053c0-0.7988-0.2524-1.0928-1.0083-1.0928h-3.6548
		c-0.7139,0-1.2183-0.4619-1.2183-1.4277c0-0.9668,0.5044-1.4707,1.2183-1.4707h4.7471c2.1421,0,3.0664,1.0508,3.0664,3.2764
		V603.917z M195.4375,581.6113c0.2939,0.3779,0.4199,0.7139,0.4199,1.0498c0,0.4619-0.252,0.8398-0.7139,1.2188
		c-0.3359,0.2939-0.7563,0.4619-1.1763,0.4619s-0.7983-0.168-1.1343-0.6309c-1.4702-2.1836-3.4448-4.6201-5.209-6.2588
		c-0.252-0.252-0.4199-0.5879-0.4199-0.9238c0-0.3779,0.21-0.7559,0.5879-1.1348c0.4204-0.3359,0.7983-0.5039,1.2183-0.5039
		c0.3359,0,0.6304,0.126,0.9243,0.3779C191.8247,576.9482,194.0093,579.5107,195.4375,581.6113z M198.4199,580.8965
		c-0.7139,0-1.1343-0.5459-1.1343-1.4277c0-0.8398,0.4204-1.3867,1.1343-1.3867h10.7539v-3.1084
		c0-0.7979,0.5464-1.1338,1.4702-1.1338c0.8823,0,1.5122,0.3359,1.5122,1.1338v3.1084h11.4263c0.7139,0,1.1763,0.5469,1.1763,1.3867
		s-0.4624,1.4277-1.1763,1.4277h-11.4263v3.2354h7.2256c2.4365,0,3.4443,0.7979,3.4443,3.0664v4.7891
		c0,2.2256-1.0078,3.0664-3.3184,3.0664h-5.7129c2.9404,3.1504,6.9312,5.6709,10.4595,7.0146
		c0.5044,0.168,0.8823,0.7568,0.8823,1.3867c0,0.252-0.042,0.4619-0.168,0.7139c-0.2939,0.6719-0.8403,0.9658-1.4282,0.9658
		c-0.21,0-0.4619-0.042-0.7144-0.126c-3.9907-1.5957-8.5693-5.167-10.9219-8.6113c0.126,0.9668,0.252,2.3945,0.252,3.8232v5.8389
		c0,0.7559-0.6299,1.1338-1.5122,1.1338c-0.9238,0-1.4702-0.3779-1.4702-1.1338v-5.7969c0-1.4707,0.084-2.8145,0.21-3.8232
		c-2.4785,3.2344-6.1328,6.0488-9.8296,7.9395c-0.2939,0.126-0.5879,0.21-0.8403,0.21c-0.5879,0-1.0498-0.2939-1.3862-0.8398
		c-0.126-0.2939-0.21-0.5879-0.21-0.8818c0-0.5049,0.2939-1.0088,0.8823-1.2607c3.4023-1.5537,6.5952-3.6543,9.4517-6.5527h-5.335
		c-2.3105,0-3.3188-0.8408-3.3188-3.0664v-4.7891c0-2.2686,1.0083-3.0664,3.4028-3.0664h6.9731v-3.2354H198.4199z
		 M209.1738,586.7783h-6.1328c-0.8403,0-1.2183,0.21-1.2183,0.9658v3.8223c0,0.7568,0.3779,1.0088,1.2183,1.0088h6.1328V586.7783z
		 M218.6255,592.5752c0.8403,0,1.1763-0.252,1.1763-1.0088v-3.8223c0-0.7559-0.3359-0.9658-1.1763-0.9658h-6.4692v5.7969H218.6255z"
		/>
	<path fill="#4B5666" d="M236.9341,577.2422c0,0.168-0.042,0.3359-0.084,0.5459c-1.5122,5.5869-2.3101,12.2246-2.3101,18.3574
		c0,4.1592,0.3779,8.6113,1.0918,12.5186c0.042,0.21,0.042,0.4199,0.042,0.6299c0,0.9658-0.5459,1.4707-1.4282,1.6807
		c-0.168,0.042-0.3359,0.042-0.4619,0.042c-0.7983,0-1.4282-0.4629-1.6382-1.5967c-0.7983-3.8643-1.1763-8.4014-1.1763-13.1064
		c0-6.5527,0.7983-13.3584,2.3945-19.2812c0.252-0.8818,0.9238-1.2598,1.6802-1.2598c0.168,0,0.2939,0,0.4619,0.042
		C236.3462,575.9404,236.9341,576.4443,236.9341,577.2422z M246.5542,594.9697c0,0.4199-0.2104,0.7979-0.5464,1.1338
		c-1.7642,1.6807-2.4365,3.2764-2.4365,4.873c0,2.6045,2.2686,3.9482,8.1494,3.9482c3.6128,0,7.4775-0.3779,10.334-1.0078
		c0.168-0.042,0.3359-0.042,0.5039-0.042c0.8403,0,1.4707,0.5459,1.6387,1.3857c0.042,0.1689,0.042,0.2949,0.042,0.4629
		c0,0.8398-0.5044,1.6377-1.4282,1.8057c-3.1089,0.6309-6.8052,0.9248-10.6699,0.9248c-7.7295,0-11.8462-2.1846-11.8462-7.4775
		c0-2.5625,1.0503-4.957,3.1924-6.9736c0.4624-0.4199,0.9663-0.6299,1.4282-0.6299c0.3784,0,0.7563,0.168,1.0923,0.4619
		C246.3857,594.2129,246.5542,594.5918,246.5542,594.9697z M260.8784,580.3086c1.0503,0,1.5962,0.5879,1.7222,1.5547
		c0,0.042,0,0.084,0,0.126c0,0.9658-0.4199,1.7637-1.6382,1.8906c-3.5283,0.4199-8.5693,0.6299-13.1479,0.6299
		c-1.5547,0-3.0669-0.042-4.4531-0.084c-1.3022-0.042-1.7642-0.8828-1.7642-1.8486c0.042-0.9238,0.6299-1.7646,1.7222-1.7646
		c0.042,0,0.042,0,0.084,0c1.3442,0.042,2.8564,0.084,4.4111,0.084c4.4526,0,9.3252-0.21,12.728-0.5879
		C260.6685,580.3086,260.7524,580.3086,260.8784,580.3086z"/>
	<path fill="#4B5666" d="M86.6802,651.083c2.9404,4.6631,8.9058,7.6875,16.0469,8.7373c0.7139,0.084,1.2603,0.7139,1.2603,1.5127
		c0,0.126,0,0.2939-0.042,0.4199c-0.21,0.9658-0.9243,1.3857-1.6807,1.3857c-0.126,0-0.21,0-0.2939-0.042
		c-7.687-1.3018-14.1982-4.7471-17.979-10.6699c-0.5884,1.2607-1.3442,2.4365-2.1846,3.4873
		c-3.3184,4.0742-8.4854,6.2168-13.4424,7.2246c-0.21,0.042-0.3779,0.042-0.5459,0.042c-0.7563,0-1.3442-0.4199-1.5542-1.2178
		c-0.084-0.168-0.084-0.3779-0.084-0.5459c0-0.7568,0.4199-1.3867,1.1758-1.5127c4.6211-0.9238,9.4102-2.7305,11.9722-5.7969
		c0.7983-1.0078,1.4702-2.0166,1.9746-3.0244H67.4409c-0.7144,0-1.1763-0.5039-1.1763-1.3867c0-0.8398,0.4619-1.3438,1.1763-1.3438
		h14.8706c0.3359-1.2188,0.5039-2.4785,0.6299-3.7393H72.1875c-0.7139,0-1.1343-0.5459-1.1343-1.3438
		c0-0.8398,0.4204-1.3027,1.1343-1.3027h10.9639c0-0.2939,0-0.5879,0-0.8818c0.042-0.8398,0.084-1.6807,0.084-2.5205H71.8096
		c-0.7563,0-1.1343-0.5459-1.1343-1.3438c0-0.8408,0.3779-1.3027,1.1343-1.3027h11.4678c0.042-0.7979,0.042-1.6377,0.042-2.5205
		c0-0.7979,0.5044-1.2598,1.4282-1.2598c1.0083,0,1.4707,0.3779,1.4707,1.1758c0,0.9248,0,1.8066-0.0425,2.6045H98.106
		c0.7144,0,1.1343,0.4619,1.1343,1.3027c0,0.7979-0.4199,1.3438-1.1343,1.3438H86.1758c0,0.168,0,0.3359,0,0.5459
		c-0.042,0.9248-0.042,1.8906-0.126,2.8564h11.5103c0.7144,0,1.1343,0.4629,1.1343,1.3027c0,0.7979-0.4199,1.3438-1.1343,1.3438
		H85.8818c-0.084,1.2607-0.2939,2.4785-0.5459,3.7393h17.3071c0.7139,0,1.1763,0.5039,1.1763,1.3438
		c0,0.8828-0.4624,1.3867-1.1763,1.3867H86.6802z M99.5342,628.3984c2.4785,0,3.6128,1.0508,3.6128,3.4453v4.0742
		c0,0.8818-0.5879,1.3027-1.5962,1.3027c-0.9663,0-1.5542-0.4209-1.5542-1.2607v-3.6123c0-0.8398-0.4204-1.0928-1.3022-1.0928
		H71.3052c-0.9238,0-1.3442,0.2529-1.3442,1.0928v3.5703c0,0.7979-0.5879,1.2188-1.5542,1.2188
		c-1.0078,0-1.5962-0.4209-1.5962-1.2607v-4.0322c0-2.3945,1.1343-3.4453,3.6548-3.4453h12.6021v-2.7305
		c0-0.8818,0.5044-1.3857,1.5962-1.3857c1.1343,0,1.5967,0.5039,1.5967,1.3857v2.7305H99.5342z"/>
	<path fill="#4B5666" d="M111.0791,649.9902c0,0.042,0,0.042,0,0.084c-0.168,3.0674-0.9243,6.9316-1.8906,9.6621
		c-0.21,0.5879-0.5879,0.8818-1.0498,0.8818c-0.1685,0-0.2944-0.042-0.4624-0.084c-0.5039-0.168-0.7559-0.5879-0.7559-1.0498
		c0-0.168,0.042-0.2939,0.084-0.4199c0.8398-2.5205,1.5122-6.1758,1.7642-9.2002c0.042-0.5879,0.4619-0.9238,1.1343-0.9238
		c0.042,0,0.084,0,0.126,0C110.5747,648.9824,111.0791,649.2764,111.0791,649.9902z M121.0347,644.6133
		c2.1846,0,3.1929,0.8408,3.1929,3.0674c0,4.7881-0.5884,9.5771-1.4707,12.5176c-0.5879,1.8486-1.7222,2.7725-3.8223,2.7725
		c-0.9243,0-2.2686-0.126-3.1509-0.3359c-0.5459-0.126-1.0078-0.5459-1.0078-1.2598c0-0.126,0-0.2949,0.042-0.4629
		c0.21-0.7139,0.7139-1.0918,1.2178-1.0918c0.0845,0,0.2104,0,0.2944,0.042c0.6299,0.21,1.4702,0.3359,2.1001,0.3359
		c1.1343,0,1.6802-0.252,2.0166-1.5537c0.6299-2.3945,1.0503-6.3857,1.0503-10.418c0-0.9248-0.3784-1.1348-1.1763-1.1348h-8.1074
		c-2.3105,0-3.4028-0.8818-3.4028-3.1504v-15.375c0-2.2676,1.0923-3.1504,3.4028-3.1504h11.0059
		c0.7139,0,1.0923,0.5459,1.0923,1.3027c0,0.7559-0.3784,1.3018-1.0923,1.3018h-4.4951v3.7812h3.3188
		c0.6719,0,1.0503,0.5039,1.0503,1.1758c0,0.7139-0.3784,1.2607-1.0503,1.2607h-3.3188v3.7383h3.3188
		c0.6719,0,1.0503,0.5039,1.0503,1.1758c0,0.7148-0.3784,1.2607-1.0503,1.2607h-3.3188v4.2002H121.0347z M116.0356,631.8018v-3.7812
		h-3.2344c-0.7983,0-1.2183,0.21-1.2183,1.0508v2.7305H116.0356z M111.583,637.9766h4.4526v-3.7383h-4.4526V637.9766z
		 M111.583,643.4795c0,0.8818,0.4199,1.1338,1.2183,1.1338h3.2344v-4.2002h-4.4526V643.4795z M113.0112,649.0664
		c0.5464,0,0.9663,0.252,1.0503,0.7979c0.21,1.7227,0.2939,3.5293,0.2939,5.251c0,1.0508-0.042,2.0166-0.126,2.9404
		c-0.042,0.6309-0.4199,1.0508-1.0503,1.0508c-0.042,0-0.084,0-0.084,0c-0.6299-0.042-1.0923-0.3359-1.0923-1.0088
		c0-0.042,0-0.126,0-0.168c0.1265-1.2178,0.1685-2.5205,0.1685-3.8643c0-1.3447-0.042-2.7305-0.1685-4.0332c0-0.042,0-0.084,0-0.084
		c0-0.5879,0.3784-0.8398,0.8823-0.8818C112.9272,649.0664,112.9692,649.0664,113.0112,649.0664z M115.8677,648.9404
		c0.4204,0,0.7563,0.21,0.8823,0.7139c0.4199,1.6807,0.9243,4.5791,1.0503,6.4277c0,0.042,0,0.042,0,0.084
		c0,0.6719-0.4204,1.0078-0.8823,1.0498c-0.042,0-0.084,0-0.126,0c-0.5039,0-0.9243-0.21-0.9663-0.8818
		c-0.084-1.9326-0.5039-4.7471-0.8818-6.3438c-0.042-0.084-0.042-0.168-0.042-0.252c0-0.4199,0.2939-0.7139,0.7559-0.7979
		C115.7417,648.9404,115.7837,648.9404,115.8677,648.9404z M118.6401,648.5625c0.3784,0,0.6724,0.126,0.7983,0.5879
		c0.4199,1.2607,0.7983,3.0664,1.0083,4.3271c0,0.084,0,0.168,0,0.252c0,0.5039-0.21,0.7979-0.6724,0.8818c-0.084,0-0.168,0-0.252,0
		c-0.3779,0-0.7139-0.21-0.7983-0.7559c-0.21-1.2607-0.6299-3.1924-0.9658-4.2852c-0.042-0.084-0.042-0.21-0.042-0.252
		c0-0.4199,0.2939-0.6299,0.6299-0.7139C118.4302,648.5625,118.5562,648.5625,118.6401,648.5625z M147.0376,633.6914
		c0,0.2939-0.0845,0.5889-0.2104,0.8408c-0.252,0.5459-0.7979,0.8398-1.3022,0.8398c-0.21,0-0.4199-0.042-0.6299-0.168
		c-3.4868-1.8486-7.1411-4.8311-9.0737-7.3516c-0.21-0.252-0.4199-0.4199-0.6719-0.4199c-0.21,0-0.4204,0.126-0.6304,0.4199
		c-2.0581,2.6465-5.5869,5.7129-8.8213,7.6875c-0.2524,0.126-0.5044,0.21-0.7983,0.21c-0.4199,0-0.8823-0.252-1.2183-0.6719
		c-0.168-0.3359-0.2939-0.6719-0.2939-1.0088c0-0.4619,0.21-0.9238,0.7139-1.1758c3.1089-1.8066,6.5952-4.7471,8.9058-7.6035
		c0.5039-0.6299,1.3442-0.9658,2.1426-0.9658c0.7979,0,1.5542,0.2939,2.1001,0.9238c2.1006,2.5625,5.6709,5.4609,9.0317,7.2256
		C146.7852,632.7256,147.0376,633.2295,147.0376,633.6914z M137.1655,650.957c1.9746,4.0742,5.041,6.9307,8.8218,8.9053
		c0.5459,0.2939,0.8398,0.8818,0.8398,1.4707c0,0.2939-0.084,0.5879-0.21,0.8398c-0.2939,0.5459-0.7559,0.8398-1.3022,0.8398
		c-0.2939,0-0.6299-0.084-0.9238-0.252c-3.7388-2.1426-7.1836-5.5869-9.2837-9.9561c-1.6387,4.2432-4.915,7.8135-9.0737,9.998
		c-0.3359,0.21-0.6724,0.2939-1.0083,0.2939c-0.4619,0-0.8818-0.168-1.2183-0.6299c-0.168-0.252-0.252-0.5459-0.252-0.8398
		c0-0.5889,0.2939-1.1348,0.7144-1.3447c4.2847-2.2266,7.1411-5.167,8.4014-9.3252h-3.9907c-2.1426,0-3.1504-0.8408-3.1504-2.9404
		v-5.5869c0-2.1426,1.0078-2.9834,3.1504-2.9834h5.125v-3.1924h-3.6128c-0.7983,0-1.1343-0.5459-1.1343-1.3438
		c0-0.7988,0.3359-1.3027,1.0923-1.3027h10.292c0.7559,0,1.0918,0.5039,1.0918,1.3027c0,0.7979-0.3359,1.3438-1.1338,1.3438h-3.6548
		v3.1924h5.293c2.1421,0,3.1084,0.8408,3.1084,2.9834v5.5869c0,2.0996-0.9663,2.9404-3.1084,2.9404H137.1655z M133.2588,648.4365
		c0.3364-2.1426,0.4624-4.2852,0.5044-6.4277h-4.2007c-0.7563,0-1.0923,0.21-1.0923,1.0508v4.3682
		c0,0.7988,0.3359,1.0088,1.0923,1.0088H133.2588z M141.1143,648.4365c0.7563,0,1.0923-0.21,1.0923-1.0088v-4.3682
		c0-0.8408-0.3359-1.0508-1.0923-1.0508h-4.4106c-0.084,2.1426-0.21,4.2852-0.5464,6.4277H141.1143z"/>
	<path fill="#4B5666" d="M180.2168,657.2998c0.3359,0.3359,0.4619,0.7559,0.4619,1.1348c0,0.5879-0.2939,1.1338-0.7559,1.5117
		c-0.4199,0.2939-0.9663,0.5039-1.4702,0.5039c-0.4624,0-0.8823-0.168-1.2183-0.5459l-3.5288-3.8223
		c-3.1504,3.2764-6.3853,4.7461-11.2578,4.7461c-6.0493,0-10.502-3.9062-10.502-9.4092c0-4.7891,2.5625-7.3936,7.9395-9.9141
		l-0.8403-0.8818c-1.8062-1.9326-3.0244-3.7383-3.0244-6.4277c0-2.6035,1.1763-4.6621,3.3608-6.0068
		c1.3862-0.8818,3.2344-1.3438,5.2505-1.3438c5.4614,0,8.6538,2.8984,8.6538,7.0146c0,2.7725-1.2603,4.7051-3.1084,6.0918
		c-1.0923,0.9238-2.4785,1.6797-4.4531,2.5625l7.9395,8.1914c1.5122-2.1426,2.2266-4.6211,2.7725-7.3096
		c0.168-0.9238,0.8823-1.2607,1.5962-1.2607c0.1685,0,0.3784,0.042,0.5884,0.084c0.7139,0.1689,1.4702,0.5889,1.4702,1.5547
		c0,0.126,0,0.2939-0.042,0.4619c-0.7144,3.3604-2.1006,6.6377-3.9487,8.9902L180.2168,657.2998z M162.2378,643.9834
		c-4.5371,2.0586-6.3433,3.7812-6.3433,7.3096s2.9404,6.1328,6.9312,6.1328c3.2769,0,5.9653-1.2178,8.4854-3.9062L162.2378,643.9834
		z M163.3721,640.0771c1.8481-0.7148,3.2344-1.3867,4.1167-2.0166c1.4702-1.0918,2.0161-2.3945,2.0161-3.9912
		c0-2.3516-1.5962-4.0322-4.873-4.0322c-2.8984,0-4.8306,1.8906-4.8306,4.4111c0,2.0156,1.2183,3.1924,2.5205,4.5781
		L163.3721,640.0771z"/>
	<path fill="#4B5666" d="M207.2627,648.1006h16.0469c0.7979,0,1.2183,0.5459,1.2183,1.4277c0,0.8828-0.4204,1.5127-1.2183,1.5127
		h-16.0469v8.1494c0,2.6885-1.4282,3.8223-5.377,3.8223c-1.4282,0-3.1084-0.168-4.3687-0.5039
		c-0.6304-0.168-1.0083-0.7139-1.0083-1.4707c0-0.126,0-0.2939,0.042-0.4619c0.21-0.7139,0.6719-1.1338,1.3022-1.1338
		c0.126,0,0.21,0,0.3359,0.042c1.0083,0.252,2.2686,0.5039,3.3608,0.5039c2.0161,0,2.52-0.3779,2.52-1.4697v-7.4775H187.897
		c-0.7979,0-1.2178-0.6299-1.2178-1.5127c0-0.8818,0.4199-1.4277,1.2178-1.4277h16.1729v-2.4785
		c0-0.7988,0.6724-1.1768,1.5967-1.1768c0.168,0,0.3779,0,0.5039,0.042c2.5205-1.0078,4.873-2.2686,6.7212-3.4863
		c0.21-0.126,0.3359-0.252,0.3359-0.3359c0-0.126-0.21-0.21-0.5459-0.21h-17.6011c-0.7983,0-1.2183-0.6719-1.2183-1.4707
		c0-0.8818,0.4199-1.4697,1.2183-1.4697h20.3735c1.3862,0,2.1846,0.9238,2.1846,2.0156c0,0.7148-0.3784,1.5127-1.1343,2.1006
		c-2.5625,1.9326-5.6289,3.6133-9.2417,5.167V648.1006z M219.9487,630.9189c2.4785,0,3.7388,1.0928,3.7388,3.4033v5.293
		c0,0.7979-0.5879,1.2598-1.5962,1.2598c-0.9243,0-1.5542-0.4619-1.5542-1.2598v-4.7471c0-0.8828-0.4624-1.1348-1.3022-1.1348
		h-27.3892c-0.8398,0-1.2603,0.252-1.2603,1.1348v4.7471c0,0.7979-0.6299,1.2598-1.5962,1.2598
		c-0.9658,0-1.5962-0.4619-1.5962-1.2598v-5.293c0-2.3105,1.2603-3.4033,3.6968-3.4033h4.1167
		c-0.8823-1.5117-2.1006-3.0664-2.9404-4.1582c-0.168-0.21-0.2524-0.4199-0.2524-0.6729c0-0.4619,0.3364-0.9658,0.9663-1.1758
		c0.252-0.126,0.5044-0.168,0.7563-0.168c0.5039,0,0.9238,0.252,1.2603,0.6719c1.1763,1.4707,2.394,3.2764,3.6123,5.5029h5.9653
		c-0.7144-1.7637-1.5962-3.4863-2.2686-4.5781c-0.168-0.21-0.21-0.4629-0.21-0.6729c0-0.5459,0.3779-0.9658,1.0503-1.1758
		c0.252-0.042,0.4619-0.084,0.6719-0.084c0.5884,0,1.0083,0.252,1.3862,0.8398c0.7983,1.3027,1.5542,3.0664,2.5205,5.6709h4.6211
		c1.5542-1.8477,2.8145-3.9482,3.5703-5.5029c0.252-0.5459,0.7144-0.7979,1.2603-0.7979c0.252,0,0.5884,0.042,0.8823,0.168
		c0.6719,0.252,1.0083,0.6719,1.0083,1.1758c0,0.2109-0.084,0.4629-0.2104,0.6729c-0.7979,1.3438-1.8901,2.8984-3.0664,4.2842
		H219.9487z"/>
	<path fill="#4B5666" d="M242.3315,625.584c2.5205,0,3.5288,0.9248,3.5288,3.3193v10.501c0,2.3525-1.6802,3.2354-4.1587,3.2354
		c-1.3022,0-2.3525-0.084-3.2769-0.2939c-0.5879-0.127-1.0498-0.6309-1.0498-1.3027c0-0.126,0-0.2939,0.042-0.4199
		c0.168-0.6299,0.6299-1.0078,1.2183-1.0078c0.084,0,0.21,0,0.2939,0.042c0.7559,0.168,1.4282,0.2939,2.3945,0.2939
		c1.2178,0,1.5122-0.126,1.5122-1.1768v-9.3252c0-0.8408-0.3784-1.0508-1.1763-1.0508h-12.3501
		c-0.7563,0-1.2183-0.5459-1.2183-1.3857c0-0.8818,0.4619-1.4287,1.2183-1.4287H242.3315z M240.0635,634.6162
		c0.4619,0,0.8398,0.21,1.0918,0.5879c0.1685,0.2939,0.2524,0.5879,0.2524,0.8818c0,0.4199-0.2104,0.8408-0.6724,1.1348
		c-2.6045,1.6377-6.8892,3.6543-10.0815,4.9141c-0.3364,0.127-0.6304,0.1689-0.8823,0.1689c-0.6724,0-1.1763-0.3369-1.3862-0.8828
		c-0.084-0.21-0.126-0.4199-0.126-0.6299c0-0.5879,0.3779-1.1758,1.0503-1.3867c3.1084-1.0498,7.3931-3.0244,9.7036-4.4521
		C239.3491,634.7422,239.7271,634.6162,240.0635,634.6162z M237.8369,631.8857c0.4199,0.2939,0.6719,0.7559,0.6719,1.2178
		c0,0.2939-0.084,0.5459-0.252,0.7979c-0.3359,0.4209-0.8398,0.6309-1.3022,0.6309c-0.2939,0-0.5879-0.084-0.7979-0.21
		c-1.5122-0.9248-3.3188-1.8066-4.7891-2.4365c-0.4199-0.21-0.6299-0.5469-0.6299-0.9668c0-0.252,0.084-0.5459,0.252-0.7979
		c0.252-0.4619,0.7559-0.7559,1.3442-0.7559c0.168,0,0.3779,0.042,0.5879,0.126
		C234.3081,629.9951,236.3247,630.9189,237.8369,631.8857z M257.0762,645.2861c2.6885,0,3.7808,0.9658,3.7808,3.2344v10.5859
		c0,2.3525-1.0923,3.2764-3.7808,3.2764h-20.4155c-2.6465,0-3.7808-0.9238-3.7808-3.2764v-10.5859
		c0-2.2686,1.1343-3.2344,3.7808-3.2344h7.6035c0.5879-0.9668,1.0503-1.9326,1.4282-2.7305c0.21-0.5049,0.7139-0.8408,1.3442-0.8408
		c0.168,0,0.3779,0.042,0.5879,0.084c0.7144,0.21,1.0923,0.6729,1.0923,1.1768c0,0.126-0.042,0.252-0.042,0.3779
		c-0.252,0.5039-0.6299,1.2598-1.0503,1.9326H257.0762z M257.6646,652.1748v-3.0664c0-0.8398-0.3784-1.0498-1.2183-1.0498H237.249
		c-0.8403,0-1.1763,0.21-1.1763,1.0498v3.0664H257.6646z M236.0728,658.4766c0,0.8398,0.3359,1.0498,1.1763,1.0498h19.1973
		c0.8398,0,1.2183-0.21,1.2183-1.0498v-3.5293h-21.5918V658.4766z M264.4697,639.6992c0,2.3516-1.5542,3.1924-4.0327,3.1924
		c-1.5122,0-3.1089-0.126-3.9487-0.3779c-0.5464-0.126-1.0503-0.5889-1.0503-1.3027c0-0.168,0-0.2939,0.042-0.4619
		c0.168-0.6299,0.6304-1.0078,1.2603-1.0078c0.126,0,0.2939,0,0.4199,0.042c0.6304,0.168,1.6387,0.3359,2.6885,0.3359
		c1.2183,0,1.5122-0.168,1.5122-1.3447v-9.3252c0-0.8408-0.3779-1.0508-1.1758-1.0508h-11.8882
		c-0.7144,0-1.1763-0.5459-1.1763-1.3857c0-0.8818,0.4619-1.4287,1.1763-1.4287h12.6021c2.5625,0,3.5708,0.9248,3.5708,3.3193
		V639.6992z M258.4204,634.2383c0.5044,0,0.8823,0.252,1.1763,0.7139c0.084,0.21,0.168,0.4619,0.168,0.7139
		c0,0.4199-0.168,0.8398-0.6719,1.1338c-2.4365,1.4707-6.3013,3.3193-9.3257,4.2012c-0.252,0.084-0.4624,0.126-0.6724,0.126
		c-0.5879,0-1.0498-0.2939-1.2603-0.8398c-0.126-0.252-0.168-0.4619-0.168-0.6719c0-0.5889,0.4204-1.0928,1.0503-1.2607
		c2.8564-0.8398,6.5112-2.4785,8.8218-3.8643C257.8325,634.3223,258.1685,634.2383,258.4204,634.2383z M255.8159,631.8438
		c0.4204,0.2939,0.6724,0.7139,0.6724,1.1758c0,0.21-0.042,0.4619-0.168,0.6719c-0.3364,0.5889-0.8823,0.8408-1.3862,0.8408
		c-0.2524,0-0.5044-0.084-0.7144-0.21c-1.5122-0.9248-3.3184-1.8066-4.6626-2.3945c-0.5044-0.21-0.7563-0.5889-0.7563-1.0088
		c0-0.2939,0.084-0.5459,0.252-0.7979c0.252-0.4619,0.7563-0.7559,1.3442-0.7559c0.168,0,0.3784,0.042,0.5884,0.126
		C252.3716,629.9951,254.3457,630.9609,255.8159,631.8438z"/>
	<path fill="#4B5666" d="M290.0459,647.5117c-1.0923,3.6553-3.6548,4.873-6.9731,4.873c-4.3687,0-7.4775-2.9824-7.4775-7.1826
		c0-4.4111,3.4868-7.5195,8.2759-7.5195c2.0581,0,3.7803,0.6719,4.9985,1.9326c-0.042-1.5127-0.042-3.6553-0.042-5.6299
		c-6.1748,0.126-12.6021,0.3789-18.6934,0.7568c-0.042,0-0.126,0-0.168,0c-0.9663,0-1.5122-0.6729-1.5542-1.6387
		c0-0.042,0-0.084,0-0.084c0-0.8818,0.5459-1.5547,1.5122-1.5967c5.9233-0.3359,12.4761-0.5459,18.8613-0.6719
		c0-1.4697-0.042-2.9404-0.042-4.2002c0-0.9248,0.5464-1.5127,1.5962-1.5127c1.2183,0,1.7646,0.5039,1.7646,1.5967
		c0,1.1758,0,2.5625,0,4.0742c2.2681-0.042,4.4946-0.084,6.6372-0.084c1.5122,0,3.0244,0,4.4526,0.042
		c1.1343,0,1.7222,0.5459,1.7222,1.6807c0,0.042,0,0.084,0,0.126c0,1.0078-0.5879,1.4697-1.5542,1.4697
		c-2.4785-0.042-5.083-0.084-7.8135-0.084c-1.1343,0-2.2681,0-3.4443,0.042c0,2.8145,0,5.7979,0,8.6963
		c0.8398,1.7217,1.2183,3.5283,1.2183,5.5029c0,5.4609-2.3525,8.9893-6.8052,11.3418c-1.8906,1.0078-4.1592,1.7646-6.6792,2.2266
		c-0.1265,0.042-0.2524,0.042-0.4204,0.042c-0.8398,0-1.5122-0.4619-1.6802-1.3867c-0.042-0.168-0.042-0.3359-0.042-0.4619
		c0-0.8818,0.5039-1.5127,1.3442-1.6807c7.5195-1.3857,11.2158-4.9141,11.2158-9.8711v-0.7988H290.0459z M284.0811,640.4971
		c-2.8564,0-5.041,1.8906-5.041,4.5371c0,2.8145,1.9321,4.2842,4.5786,4.2842c2.9409,0,4.957-2.0586,4.957-5.041
		C288.5757,642.0088,286.7695,640.4971,284.0811,640.4971z"/>
	<path fill="#4B5666" d="M320.5371,642.2617c3.2764-1.4707,6.3428-2.1846,9.3257-2.1846c7.561,0,12.1821,3.9902,12.1821,9.7031
		c0,7.0576-6.4272,11.5107-16.6772,11.5107c-6.2168,0-10.2495-2.6045-10.2495-6.5117c0-3.2764,2.7305-5.6709,6.8472-5.6709
		c4.5366,0,8.2754,2.7305,8.9897,8.2754c4.2847-1.0078,7.4771-3.6543,7.4771-7.5615c0-3.9902-3.2764-6.8887-9.2417-6.8887
		c-5.5869,0-10.6699,1.8477-17.5591,6.1328c-0.3779,0.21-0.7559,0.2939-1.1343,0.2939c-0.5879,0-1.1763-0.252-1.5122-0.7979
		c-0.21-0.2939-0.2939-0.5879-0.2939-0.9238c0-0.6309,0.3359-1.2607,0.9663-1.5967c6.9312-4.2432,16.2568-11.0898,21.5498-15.7529
		c-4.5791,0.3779-11.0059,0.6299-16.3828,0.6719c-0.8823,0-1.5547-0.6299-1.5547-1.6377c0-0.9668,0.5044-1.7227,1.4702-1.7227
		c5.6714,0,12.8545-0.21,18.4414-0.5879c0.126,0,0.252,0,0.3779,0c0.9663,0,1.6807,0.3359,2.1006,1.0498
		c0.21,0.3779,0.3359,0.7559,0.3359,1.2188c0,0.5879-0.252,1.1758-0.7979,1.7217c-3.6128,3.3613-7.5615,6.3857-10.9639,8.6543
		c-1.1763,0.7979-2.6045,1.7637-3.7808,2.4355L320.5371,642.2617z M321.7974,651.9648c-2.1846,0-3.4448,1.1348-3.4448,2.6885
		c0,1.9326,2.5205,3.5283,6.2593,3.5703c1.0083,0,2.0581,0,3.0664-0.084C327.3423,654.0234,324.6958,651.9648,321.7974,651.9648z"/>
</g>
<path fill="#4B5666" d="M601.2812,88.3311c-9.9111,0-22.7549,5.8418-25.2822,15.6758l-0.002-0.002v0.002
	c-2.5273-9.834-15.3711-15.6758-25.2803-15.6758c-19.543,0-35.3936,15.1689-35.3936,35.3936
	c0,23.7969,14.0713,38.3584,29.4102,50.1758c9.2012,7.0898,29.6221,23.1357,31.2383,23.1357c0.0098,0,0.0176-0.002,0.0254-0.002
	s0.0176,0.002,0.0254,0.002c1.6172,0,22.0391-16.0459,31.2402-23.1357c15.3379-11.8174,29.4121-26.3789,29.4121-50.1758
	C636.6748,103.5,620.8242,88.3311,601.2812,88.3311z M536.9883,104.3398c-6.1104,4.5195-9.6162,11.585-9.6162,19.3848
	c0,1.2871-1.041,2.3301-2.3281,2.3301s-2.3301-1.043-2.3301-2.3301c0-9.293,4.1924-17.7227,11.5039-23.1299
	c1.0332-0.7656,2.4902-0.5469,3.2568,0.4873C538.2402,102.1162,538.0205,103.5762,536.9883,104.3398z"/>
<path fill-rule="evenodd" clip-rule="evenodd" fill="#4B5666" d="M244.1167,518.4824c0,14.9453-8.2681,27.9512-20.4751,34.7139
	c0,0-1.4834,0.8496-3.417,1.1836c-1.8804,0.3242-3.2686,0.3857-3.2686,0.3857h-12.5103h-12.5083c0,0-1.3901-0.0615-3.271-0.3857
	c-1.9331-0.334-3.4165-1.1836-3.4165-1.1836c-12.207-6.7627-20.4751-19.7686-20.4751-34.7139
	c0-16.502,10.0776-30.6465,24.4126-36.625v-22.5342c-1.9492,0-3.5293-1.5801-3.5293-3.5273v-6.207
	c0-1.9492,1.5801-3.5283,3.5293-3.5283h30.5166c1.9492,0,3.5298,1.5791,3.5298,3.5283v6.207c0,1.9473-1.5806,3.5273-3.5298,3.5273
	v22.5342C234.0391,487.8359,244.1167,501.9805,244.1167,518.4824z M214.6543,448.458h-20.4155
	c-1.2866,0-2.3296,1.0439-2.3296,2.3301c0,1.2871,1.043,2.3291,2.3296,2.3291h20.4155c1.2866,0,2.3306-1.042,2.3306-2.3291
	C216.9849,449.502,215.9409,448.458,214.6543,448.458z M216.9092,488.5605c-2.7051-1.1279-4.4683-3.7725-4.4683-6.7031v-22.5342
	h-15.9902v22.5342c0,2.9307-1.7622,5.5752-4.4678,6.7031c-12.1147,5.0537-19.9453,16.7998-19.9453,29.9219
	c0,11.7744,6.4092,22.6406,16.7266,28.3584c0.1572,0.0791,0.6587,0.2988,1.1396,0.3828c1.0723,0.1846,1.9355,0.2559,2.2476,0.2783
	h12.2944h12.2974c0.2939-0.0205,1.1636-0.0918,2.2471-0.2793c0.481-0.083,0.979-0.3027,1.1372-0.3818
	c10.3169-5.7178,16.7266-16.584,16.7266-28.3584C236.854,505.3604,229.0254,493.6143,216.9092,488.5605z M232.1948,518.4824
	c0,10.0059-5.4043,19.2441-14.124,24.1709c-0.6709,0.1104-1.2261,0.167-1.5117,0.1895h-24.2319
	c-0.2642-0.0215-0.8242-0.0771-1.5029-0.1895c-8.7207-4.9258-14.1289-14.165-14.1289-24.1709c0-3.5225,0.6699-6.8936,1.873-9.998
	h51.7563C231.5283,511.5889,232.1948,514.96,232.1948,518.4824z M196.0107,534.2666c-5.9766-3.7871-9.6782-10.4834-9.6782-17.5488
	c0-1.2871-1.0425-2.3291-2.3296-2.3291c-1.2856,0-2.3301,1.042-2.3301,2.3291c0,8.7676,4.6533,17.0723,12.1426,21.6699
	l0.4751,0.2764l0.6968,0.0752c0.0674,0.0059,0.1348,0.0088,0.2026,0.0088c1.1914,0,2.1646-0.9199,2.2695-2.1318
	C197.5488,535.5859,196.9238,534.6523,196.0107,534.2666z"/>
<path fill="#4B5666" d="M618.3379,831.3232h-84.6797c-1.9414,0-3.5186,1.5752-3.5186,3.5166l0.0039,32.6309
	c0,0.0029,0.002,0.0078,0.002,0.0117c0,9.8008,0,19.6309,0,22.917c0,7.2842,2.458,17.7812,11.8701,28.3242
	c13.4854,15.1035,33.9863,21.3076,33.9863,21.3076s20.501-6.2041,33.9863-21.3076c9.4121-10.543,11.8701-21.04,11.8701-28.3242
	c0-3.2861,0-13.1162,0-22.917c0-0.0039,0.002-0.0088,0.002-0.0117l-0.0049-32.6309
	C621.8555,832.8984,620.2793,831.3232,618.3379,831.3232z M551.249,914.3662c-0.4443,0.3955-0.999,0.5898-1.5498,0.5898
	c-0.6416,0-1.2793-0.2627-1.7393-0.7783c-9.2373-10.3447-10.6162-20.126-10.6162-25.0361c0-1.2861,1.042-2.3301,2.3281-2.3301
	c1.2871,0,2.3311,1.0439,2.3311,2.3301c0,4.2461,1.2246,12.7412,9.4326,21.9346C552.292,912.0352,552.207,913.5078,551.249,914.3662
	z M614.5967,867.3564c-0.001,0.041-0.001,0.084-0.001,0.126v22.917c0,4.5781-1.3037,13.7168-10.0244,23.4863
	c-9.5215,10.665-23.334,16.5176-28.5693,18.4619l-0.0039-93.7617h38.5947L614.5967,867.3564z"/>
<path fill-rule="evenodd" clip-rule="evenodd" fill="#4B5666" d="M1011.5254,487.6035c-0.1602,0-0.3301-0.0117-0.5098-0.0381
	l-6.7881-0.9492l-0.001,49.5664c0,1.9404-1.5312,3.9492-3.4014,4.4658l-49.8701,13.7334c-0.9346,0.2568-2.1689,0.3877-3.4014,0.3877
	c-1.2344,0-2.4658-0.1309-3.4023-0.3877l-49.8672-13.7334c-1.873-0.5166-3.4023-2.5254-3.4023-4.4658l0.001-49.5664l-6.791,0.9492
	c-0.1787,0.0264-0.3477,0.0381-0.5078,0.0381c-1.5664,0-2.2471-1.1543-1.5117-2.7529l9.543-20.7812
	c0.8105-1.7627,3.002-3.6299,4.875-4.1445l49.8682-13.7363c0.3125-0.0859,0.6025-0.1279,0.8672-0.1279
	c0.1182,0,0.2236,0.0176,0.3291,0.0342c0.1064-0.0166,0.2109-0.0342,0.3281-0.0342c0.2656,0,0.5557,0.042,0.8672,0.1279
	l49.8691,13.7363c1.8721,0.5146,4.0654,2.3818,4.876,4.1445l9.543,20.7812
	C1013.7734,486.4492,1013.0928,487.6035,1011.5254,487.6035z M898.4482,530.5283c0,1.2861,1.043,2.3281,2.3291,2.3281
	c1.2871,0,2.3291-1.042,2.3291-2.3281v-22.2285c0-1.2871-1.042-2.3291-2.3291-2.3291c-1.2861,0-2.3291,1.042-2.3291,2.3291V530.5283
	z M897.7256,464.416c-0.5508,0.1533-1.6387,1.0801-1.8779,1.5977l-7.4609,16.2461l46.6182-6.5381
	c0.2393-0.0791,0.6523-0.4346,0.7666-0.6572l7.0557-23.0732L897.7256,464.416z M947.9473,478.5869l-0.3926-1.2852v68.8408
	c0.8145,0,1.3506-0.0938,1.4736-0.126l47.9365-13.2021v-39.8848l-38.5527-5.4092
	C953.7344,486.8652,949.332,483.1074,947.9473,478.5869z M999.2617,466.0137c-0.2393-0.5176-1.3281-1.4443-1.8789-1.5977
	l-45.1016-12.4248l7.0566,23.0732c0.1133,0.2227,0.5273,0.5781,0.7666,0.6572l46.6172,6.5381L999.2617,466.0137z"/>
</svg>
