<?xml version="1.0" encoding="utf-8"?>
<!-- Generator: Adobe Illustrator 15.0.0, SVG Export Plug-In . SVG Version: 6.00 Build 0)  -->
<!DOCTYPE svg PUBLIC "-//W3C//DTD SVG 1.1//EN" "http://www.w3.org/Graphics/SVG/1.1/DTD/svg11.dtd">
<svg version="1.1" id="Layer_1" xmlns="http://www.w3.org/2000/svg" xmlns:xlink="http://www.w3.org/1999/xlink" x="0px" y="0px"
	 width="1152px" height="1152.001px" viewBox="0 0 1152 1152.001" enable-background="new 0 0 1152 1152.001" xml:space="preserve">
<circle fill="#4B5666" cx="576" cy="576" r="576"/>
<g>
	<path fill="#FBD35C" d="M188.2964,188.29c214.2964-214.2959,561.1108-214.293,775.4106,0.0078L576.0049,575.999L188.2964,188.29z"
		/>
</g>
<g>
	<path fill="#A4D970" d="M963.71,188.293c214.2979,214.2979,214.293,561.1104-0.0068,775.4092L576.002,576.001L963.71,188.293z"/>
</g>
<g>
	<path fill="#9EBEED" d="M963.7031,963.709c-214.2959,214.2988-561.1104,214.293-775.4102-0.0068L575.9951,576.001L963.7031,963.709
		z"/>
</g>
<g>
	<path fill="#FA7977" d="M188.2896,963.707c-214.2959-214.2979-214.2925-561.1104,0.0068-775.4092L575.999,575.999L188.2896,963.707
		z"/>
</g>
<circle fill="#4B5666" cx="576" cy="576" r="194.6777"/>
<g>
	<path fill="#FFFFFF" d="M466.7227,560.9141l-15.0771-39.3945h-0.2432c0.2842,3.1211,0.4258,6.8301,0.4258,11.127v28.2676h-4.7725
		v-44.4395h7.7822l14.0732,36.6582h0.2432l14.1953-36.6582h7.7207v44.4395h-5.167v-28.6328c0-3.2832,0.1416-6.8496,0.4258-10.6992
		h-0.2432l-15.1992,39.332H466.7227z"/>
	<path fill="#FFFFFF" d="M541.833,538.6328c0,7.1133-1.7988,12.707-5.3955,16.7793c-3.5977,4.0742-8.5977,6.1113-15.001,6.1113
		c-6.5459,0-11.5967-2.002-15.1533-6.0039c-3.5557-4.002-5.334-9.6523-5.334-16.9473c0-7.2344,1.7832-12.8418,5.3496-16.8242
		s8.6328-5.9727,15.1982-5.9727c6.3838,0,11.3682,2.0273,14.9551,6.0801S541.833,531.5,541.833,538.6328z M506.4209,538.6328
		c0,6.0195,1.2812,10.584,3.8447,13.6953c2.5635,3.1094,6.2871,4.666,11.1709,4.666c4.9238,0,8.6426-1.5508,11.1553-4.6523
		c2.5127-3.0996,3.7695-7.6699,3.7695-13.709c0-5.9766-1.252-10.5117-3.7539-13.6016c-2.5029-3.0898-6.2061-4.6348-11.1104-4.6348
		c-4.9238,0-8.668,1.5547-11.2314,4.666C507.7021,528.1719,506.4209,532.6973,506.4209,538.6328z"/>
	<path fill="#FFFFFF" d="M587.2148,538.2695c0,7.3359-1.9912,12.9434-5.9736,16.8242c-3.9814,3.8809-9.7109,5.8203-17.1885,5.8203
		h-12.3115v-44.4395h13.6182c6.9102,0,12.2803,1.9141,16.1104,5.7441S587.2148,531.3984,587.2148,538.2695z M581.7432,538.4512
		c0-5.7949-1.4541-10.1621-4.3623-13.1016c-2.9082-2.9375-7.2295-4.4062-12.9639-4.4062h-7.5078v35.502h6.292
		c6.1602,0,10.791-1.5137,13.8916-4.543S581.7432,544.3887,581.7432,538.4512z"/>
	<path fill="#FFFFFF" d="M621.8975,560.9141H597.124v-44.4395h24.7734v4.5898H602.292v14.3164h18.4199v4.5605H602.292v16.3535
		h19.6055V560.9141z"/>
	<path fill="#FFFFFF" d="M636.9141,542.4336v18.4805h-5.168v-44.4395h12.1895c5.4512,0,9.4785,1.043,12.083,3.1309
		c2.6035,2.0879,3.9053,5.2285,3.9053,9.4238c0,5.877-2.9785,9.8477-8.9365,11.9141l12.0674,19.9707h-6.1094l-10.7607-18.4805
		H636.9141z M636.9141,537.9961h7.082c3.6475,0,6.3232-0.7246,8.0254-2.1738s2.5527-3.623,2.5527-6.5195
		c0-2.9395-0.8662-5.0566-2.5986-6.3535s-4.5137-1.9453-8.3438-1.9453h-6.7178V537.9961z"/>
	<path fill="#FFFFFF" d="M704.9424,560.9141h-5.8975l-24.2871-37.2969h-0.2432c0.3242,4.377,0.4863,8.3906,0.4863,12.0371v25.2598
		h-4.7725v-44.4395h5.8369l24.2256,37.1445h0.2432c-0.041-0.5469-0.1318-2.3047-0.2734-5.2734s-0.1924-5.0918-0.1514-6.3691v-25.502
		h4.833V560.9141z"/>
	<path fill="#FFFFFF" d="M525.54,635.6172l-5.5322-14.1348h-17.8125l-5.4707,14.1348h-5.2285l17.5693-44.6211h4.3467
		l17.4785,44.6211H525.54z M518.3975,616.832l-5.168-13.7695c-0.668-1.7422-1.3574-3.8809-2.0664-6.4141
		c-0.4463,1.9453-1.085,4.084-1.915,6.4141l-5.2285,13.7695H518.3975z"/>
	<path fill="#FFFFFF" d="M556.5459,612.334h15.1064v21.6113c-2.3506,0.75-4.7412,1.3184-7.1729,1.7031
		c-2.4326,0.3848-5.249,0.5781-8.4512,0.5781c-6.7275,0-11.9658-2.002-15.7148-6.0039s-5.623-9.6113-5.623-16.8242
		c0-4.6211,0.9268-8.668,2.7812-12.1445c1.8545-3.4746,4.5234-6.1289,8.0098-7.9629c3.4844-1.834,7.5684-2.752,12.249-2.752
		c4.7422,0,9.1602,0.8711,13.2539,2.6152l-2.0068,4.5586c-4.0117-1.7031-7.8721-2.5527-11.5811-2.5527
		c-5.4102,0-9.6357,1.6113-12.6758,4.832c-3.0391,3.2227-4.5586,7.6914-4.5586,13.4062c0,5.998,1.4629,10.5469,4.3916,13.6465
		c2.9287,3.1016,7.2295,4.6523,12.9033,4.6523c3.0801,0,6.0898-0.3555,9.0283-1.0645v-13.6797h-9.9395V612.334z"/>
	<path fill="#FFFFFF" d="M582.3213,635.6172v-44.4395h5.168v44.4395H582.3213z"/>
	<path fill="#FFFFFF" d="M599.6777,635.6172v-44.4395h5.168v39.7598h19.6055v4.6797H599.6777z"/>
	<path fill="#FFFFFF" d="M656.7627,635.6172h-24.7734v-44.4395h24.7734v4.5898h-19.6055v14.3164h18.4199v4.5605h-18.4199v16.3535
		h19.6055V635.6172z"/>
</g>
<g>
	<path fill="#4B5666" d="M505.6162,250.1289c-1.6406,1.6406-3.0098,3.1709-4.1016,4.5938c-0.7666-1.0947-1.6406-1.915-2.625-2.4609
		c0.874-1.2021,1.3125-2.3506,1.3125-3.4453v-15.9141c-2.1895,0-3.9941,0.0566-5.4141,0.1641v-2.9531
		c1.3125,0.1104,2.625,0.1641,3.9375,0.1641h4.9219c-0.1104,1.8613-0.1641,3.7197-0.1641,5.5781v12.1406
		c0.9844-0.7637,2.5146-2.2969,4.5938-4.5938c0.4355,0.877,0.9844,1.8613,1.6406,2.9531
		C508.623,247.2324,507.2568,248.4883,505.6162,250.1289z M504.96,224.6992c-0.7666,0.5488-1.5869,1.1484-2.4609,1.8047
		c-1.6406-2.0762-3.3916-4.1016-5.25-6.0703c0.6562-0.5459,1.3662-1.2021,2.1328-1.9688
		C501.0225,219.8877,502.8809,221.9668,504.96,224.6992z M519.8896,224.3711v6.0703h5.5781c1.748,0,3.335-0.0537,4.7578-0.1641
		v2.9531c-1.3125-0.1074-2.8457-0.1641-4.5938-0.1641h-5.7422v18.2109h5.4141c2.4043,0,4.5371-0.1074,6.3984-0.3281v3.1172
		c-1.8613-0.1104-3.9941-0.1641-6.3984-0.1641h-12.1406c-2.1895,0-4.2119,0.0537-6.0703,0.1641v-3.1172
		c1.8584,0.2207,3.8271,0.3281,5.9062,0.3281h3.6094V224.207c0-1.748-0.0566-3.5527-0.1641-5.4141h3.6094
		C519.9434,220.8721,519.8896,222.7305,519.8896,224.3711z"/>
	<path fill="#4B5666" d="M547.4521,221.418h18.5391c1.748,0,3.7168-0.0537,5.9062-0.1641v2.9531
		c-2.1895-0.1074-4.1582-0.1641-5.9062-0.1641h-20.0156l-2.9531,3.7734c-1.0947,1.3125-2.4072,2.7354-3.9375,4.2656
		c-0.7666-0.874-1.6973-1.584-2.7891-2.1328c1.6406-1.2021,3.3887-2.9785,5.25-5.332c1.8584-2.3506,3.335-4.8398,4.4297-7.4648
		c1.3125,0.7666,2.4609,1.3125,3.4453,1.6406C548.6543,219.5596,547.998,220.4336,547.4521,221.418z M568.2881,227.6523
		c-0.2207,2.1895-0.3848,4.3223-0.4922,6.3984l-0.1641,3.1172c1.748,0,3.6631-0.0537,5.7422-0.1641v2.9531
		c-1.6406-0.1074-3.6094-0.1641-5.9062-0.1641l-0.3281,7.5469c1.2021,0,2.625-0.0537,4.2656-0.1641v2.9531
		c-1.3125-0.1074-2.7891-0.1641-4.4297-0.1641c-0.1104,2.2969-0.6562,3.7734-1.6406,4.4297s-2.6816,1.1484-5.0859,1.4766
		c-0.2207-1.0947-0.7129-2.2432-1.4766-3.4453c2.625,0,4.1553-0.1641,4.5938-0.4922c0.4355-0.3281,0.6562-0.9844,0.6562-1.9688
		h-20.8359l0.6562-5.5781l0.3281-4.5938h-1.8047c-1.9688,0-3.5557,0.0566-4.7578,0.1641v-2.9531
		c1.8584,0.1104,3.4453,0.1641,4.7578,0.1641h1.9688l0.3281-4.1016l0.3281-5.4141H568.2881z M546.96,239.793l-0.6562,7.5469h18.0469
		l0.3281-7.5469h-11.3203c2.7324,2.2969,4.6475,3.7734,5.7422,4.4297c-0.877,0.877-1.6406,1.751-2.2969,2.625
		c-1.6406-1.6406-3.4453-3.2812-5.4141-4.9219c0.5459-0.874,1.0381-1.584,1.4766-2.1328H546.96z M547.6162,230.2773l-0.4922,6.8906
		h9.3516c-1.2051-1.3125-2.1074-2.2402-2.707-2.7891c-0.6025-0.5459-1.2871-1.1484-2.0508-1.8047
		c0.4355-0.6562,0.9277-1.4199,1.4766-2.2969H547.6162z M555.5732,231.8359c0.71,0.6025,1.8301,1.6152,3.3633,3.0352
		c-0.6562,0.877-1.2588,1.6406-1.8047,2.2969h7.7109l0.3281-6.8906h-11.6484C554.1787,230.7158,554.8604,231.2363,555.5732,231.8359
		z"/>
	<path fill="#4B5666" d="M616.3584,233.3945c-1.0947,1.3125-1.915,2.5713-2.4609,3.7734
		c-7.1113-3.0605-12.8535-7.9287-17.2266-14.6016c-4.0479,6.4551-9.4619,11.4844-16.2422,15.0938
		c-0.5488-0.9844-1.4766-2.0225-2.7891-3.1172c5.25-2.1865,9.3232-4.9756,12.2227-8.3672c2.8965-3.3887,4.8398-6.4521,5.8242-9.1875
		c1.3125,0.5488,2.625,1.041,3.9375,1.4766c-0.4385,0.5488-0.8203,1.041-1.1484,1.4766
		C603.0693,226.7246,609.0293,231.208,616.3584,233.3945z M595.1943,236.1836c0-1.748-0.1104-3.9912-0.3281-6.7266h3.7734
		c-0.1104,1.8613-0.1641,4.1582-0.1641,6.8906v11.6484c0,2.5176,0.0537,5.0859,0.1641,7.7109h-3.6094
		c0.1074-2.7354,0.1641-5.25,0.1641-7.5469V236.1836z"/>
	<path fill="#4B5666" d="M630.3037,244.8789c2.4043-3.0605,4.0732-6.2061,5.0039-9.4336c0.9277-3.2246,1.4482-6.2344,1.5586-9.0234
		c0.1074-2.7891,0.0537-5.7139-0.1641-8.7773c1.2021,0.1104,2.5684,0.2207,4.1016,0.3281c-0.3281,1.751-0.4922,3.5557-0.4922,5.4141
		c0,1.8613,0.1074,3.9941,0.3281,6.3984c0.2178,2.4072,1.7764,6.0449,4.6758,10.9102c2.8965,4.8682,7.1367,8.5059,12.7148,10.9102
		c-1.3125,1.3125-2.1895,2.4043-2.625,3.2812c-7.6572-3.7168-13.125-10.4434-16.4062-20.1797
		c-2.1895,8.6416-7.4932,15.5322-15.9141,20.6719c-0.6562-0.877-1.5869-1.8047-2.7891-2.7891
		C624.5615,250.5137,627.8965,247.9424,630.3037,244.8789z"/>
	<path fill="#4B5666" d="M567.96,270.834c0.9844,0,2.3506-0.0537,4.1016-0.1641v2.9531c-1.4229-0.1074-2.7891-0.1641-4.1016-0.1641
		h-11.1562v3.4453h11.9766c-0.1104,1.8613-0.1641,4.376-0.1641,7.5469c0,3.0635,0.0537,5.5244,0.1641,7.3828h-12.4688
		c-0.3281,2.2969-1.0947,4.4297-2.2969,6.3984c1.6406,0.9844,4.0195,1.8613,7.1367,2.625c3.1172,0.7666,5.5215,1.2021,7.2188,1.3125
		c1.6943,0.1074,3.3633,0.1641,5.0039,0.1641c-0.6562,0.5459-1.2051,1.6943-1.6406,3.4453
		c-2.9531-0.2207-6.2344-0.7383-9.8438-1.5586s-6.8369-1.9971-9.6797-3.5273c-1.0947,0.9844-2.707,1.9941-4.8398,3.0352
		c-2.1328,1.0381-5.2783,1.8867-9.4336,2.543c-0.4385-1.2051-0.9844-2.2432-1.6406-3.1172
		c3.1709-0.1104,5.9316-0.5742,8.2852-1.3945c2.3506-0.8203,4.0732-1.7227,5.168-2.707c-2.0791-1.4199-4.2656-3.2246-6.5625-5.4141
		c0.6562-0.4355,1.3125-1.0381,1.9688-1.8047h-3.9375c0.1074-2.0762,0.1641-4.6475,0.1641-7.7109
		c0-3.1709-0.0566-5.5781-0.1641-7.2188h12.4688v-3.4453h-10.1719c-1.751,0-3.6094,0.0566-5.5781,0.1641v-2.9531
		c1.9688,0.1104,3.7734,0.1641,5.4141,0.1641H567.96z M553.6865,282.8105v-3.4453h-9.0234v3.4453H553.6865z M553.5225,289.0449
		c0.1074-1.2021,0.1641-2.4043,0.1641-3.6094h-9.0234v3.6094H553.5225z M545.6475,291.834
		c1.9688,2.0791,3.9375,3.7197,5.9062,4.9219c0.874-1.6406,1.4199-3.2812,1.6406-4.9219H545.6475z M565.335,289.0449v-3.6094
		h-8.5312c0,0.7666-0.0566,1.9688-0.1641,3.6094H565.335z M565.335,282.8105v-3.4453h-8.5312v3.4453H565.335z"/>
	<path fill="#4B5666" d="M586.335,299.5449c0,1.751,0.0537,3.9375,0.1641,6.5625h-3.1172c0.1074-2.1895,0.1641-4.373,0.1641-6.5625
		V286.748c-0.877,2.4072-2.2969,5.4141-4.2656,9.0234c-0.5488-0.874-1.2588-1.584-2.1328-2.1328
		c1.4199-2.4043,2.625-4.8398,3.6094-7.3008s1.6943-4.7295,2.1328-6.8086c-1.8613,0-3.5557,0.0566-5.0859,0.1641v-2.625
		c1.5303,0.1104,3.4453,0.1641,5.7422,0.1641v-4.7578c0-1.5303-0.0566-2.8428-0.1641-3.9375h3.1172
		c-0.1104,1.2051-0.1641,2.5176-0.1641,3.9375v4.7578c1.5303,0,3.1709-0.0537,4.9219-0.1641v2.625
		c-1.8613-0.1074-3.502-0.1641-4.9219-0.1641v5.4141c0.5459-0.3281,1.2021-0.874,1.9688-1.6406
		c1.2021,1.6406,2.2969,3.3379,3.2812,5.0859c-0.5488,0.3281-1.3691,0.9307-2.4609,1.8047
		c-0.7666-1.6406-1.6973-3.2246-2.7891-4.7578V299.5449z M600.7725,272.9668c0.4355-2.7324,0.5996-4.4297,0.4922-5.0859
		l3.6094,0.4922c-0.1104,0.3281-0.2207,0.6025-0.3281,0.8203c-0.1104,0.2207-0.4385,1.4766-0.9844,3.7734h5.9062
		c0.9844,0,2.4043-0.0537,4.2656-0.1641v2.625c-1.4229-0.1074-2.9531-0.1641-4.5938-0.1641h-5.9062
		c-0.2207,0.7666-0.4922,1.8613-0.8203,3.2812h5.4141c1.8584,0,3.2812-0.0537,4.2656-0.1641v2.625
		c-1.2051-0.1074-2.7354-0.1641-4.5938-0.1641h-5.5781c-0.2207,0.6562-0.6025,1.6406-1.1484,2.9531h8.6953
		c2.5146,0,4.4834-0.0537,5.9062-0.1641v2.4609c-1.751-0.1074-3.7197-0.1641-5.9062-0.1641h-1.1484
		c0.874,1.4229,2.2402,2.707,4.1016,3.8555c1.8584,1.1484,3.2812,1.833,4.2656,2.0508c-1.0947,1.0947-1.8047,1.915-2.1328,2.4609
		c-2.1895-1.0918-4.0762-2.4326-5.6602-4.0195c-1.5869-1.584-2.707-3.0352-3.3633-4.3477h-5.4141
		c-0.5488,0.877-1.1768,1.7793-1.8867,2.707c-0.7129,0.9307-1.5586,1.8867-2.543,2.8711c1.5303,0.1104,2.7891,0.1641,3.7734,0.1641
		h1.6406c0-1.2021-0.0566-2.4609-0.1641-3.7734h3.1172c-0.1104,1.4229-0.1641,2.6816-0.1641,3.7734h1.4766
		c0.9844,0,2.5146-0.0537,4.5938-0.1641v2.625c-2.2969-0.1074-3.8838-0.1641-4.7578-0.1641h-1.3125v3.4453h5.0859
		c2.0762,0,3.8809-0.0537,5.4141-0.1641v2.625c-1.8613-0.1074-3.666-0.1641-5.4141-0.1641h-5.0859v1.1484
		c0,1.9688,0.0537,3.7734,0.1641,5.4141h-3.1172c0.1074-1.6406,0.1641-3.4453,0.1641-5.4141v-1.1484h-3.9375
		c-2.0791,0-4.0479,0.0566-5.9062,0.1641v-2.625c1.3125,0.1104,3.2246,0.1641,5.7422,0.1641h4.1016v-3.4453h-1.4766
		c-0.877,0-2.2432,0.0566-4.1016,0.1641v-2.4609c-0.877,0.7666-2.4609,1.915-4.7578,3.4453
		c-0.5488-0.6562-1.3125-1.4199-2.2969-2.2969c1.5303-0.5459,3.0605-1.4199,4.5938-2.625c1.5303-1.2021,2.8428-2.625,3.9375-4.2656
		h-1.1484c-1.2051,0-2.625,0.0566-4.2656,0.1641v-2.4609c1.2021,0.1104,2.8428,0.1641,4.9219,0.1641h1.4766
		c0.5459-1.2021,0.9277-2.1865,1.1484-2.9531h-1.6406c-0.9844,0-2.2432,0.0566-3.7734,0.1641v-2.625
		c1.3125,0.1104,2.5146,0.1641,3.6094,0.1641h2.2969c0.3281-1.3125,0.5459-2.4043,0.6562-3.2812h-2.7891
		c-1.9688,0-3.666,0.0566-5.0859,0.1641v-2.625c0.9844,0.1104,2.5146,0.1641,4.5938,0.1641H600.7725z"/>
</g>
<g>
	<path fill="#4B5666" d="M532.9326,973.4756c-0.3848,0.6025-1.1768,2.1611-2.3789,4.6758h15.2578
		c2.625,0,4.7578-0.0537,6.3984-0.1641v2.9531c-1.751-0.1074-3.8301-0.1641-6.2344-0.1641h-1.6406
		c-1.2051,3.1738-2.8457,6.0166-4.9219,8.5312c4.0449,1.5332,8.2031,3.502,12.4688,5.9062
		c-0.7666,0.874-1.5332,1.9121-2.2969,3.1172c-4.0479-2.7354-8.2598-4.9756-12.6328-6.7266
		c-2.7354,2.0791-5.8525,3.6914-9.3516,4.8398c-3.502,1.1484-6.3984,1.9404-8.6953,2.3789
		c-0.4385-1.3125-1.0947-2.4609-1.9688-3.4453c3.3887-0.2207,6.5879-0.8203,9.5977-1.8047c3.0068-0.9844,5.332-2.0762,6.9727-3.2812
		c-3.2812-1.2021-7.1113-2.2969-11.4844-3.2812c1.748-2.4043,3.0605-4.4834,3.9375-6.2344h-4.1016
		c-1.3125,0-3.1738,0.0566-5.5781,0.1641v-2.9531c1.3125,0.1104,3.1172,0.1641,5.4141,0.1641h5.4141
		c1.4199-2.625,2.5146-5.25,3.2812-7.875c1.3125,0.7666,2.5684,1.3125,3.7734,1.6406
		C533.7246,972.3555,533.3145,972.876,532.9326,973.4756z M533.0146,959.9404c1.2021,1.5332,2.4043,3.2275,3.6094,5.0859
		c-0.6562,0.3281-1.3691,0.8203-2.1328,1.4766h15.0938c-0.1104,1.5332-0.1641,2.7891-0.1641,3.7734s0.0537,2.2969,0.1641,3.9375
		h-3.4453v-5.0859h-24.2812v4.7578h-3.4453c0.1074-1.5303,0.1641-2.8428,0.1641-3.9375c0-1.0918-0.1104-2.2402-0.3281-3.4453
		h15.0938c-0.877-1.8584-1.8613-3.3887-2.9531-4.5938C531.374,961.2529,532.248,960.5967,533.0146,959.9404z M536.2959,988.1592
		c1.5303-1.4199,3.0068-3.8809,4.4297-7.3828h-11.1562c-0.877,1.3125-1.8047,2.8457-2.7891,4.5938
		C531.2637,986.5752,534.4346,987.5029,536.2959,988.1592z"/>
	<path fill="#4B5666" d="M577.8037,963.0576c3.8271,6.127,9.623,10.0645,17.3906,11.8125
		c-0.9844,1.2051-1.6406,2.4609-1.9688,3.7734c-2.1895-0.874-4.0479-1.8047-5.5781-2.7891v2.625
		c-1.2051-0.1074-3.1172-0.1641-5.7422-0.1641h-3.9375v6.5625h6.2344c2.2969,0,4.1553-0.0537,5.5781-0.1641v2.9531
		c-1.4229-0.1074-3.2812-0.1641-5.5781-0.1641h-6.2344v7.3828h6.3984c3.2812,0,5.96-0.1104,8.0391-0.3281v3.4453
		c-1.9688-0.3281-4.54-0.4922-7.7109-0.4922h-18.0469c-3.2812,0-5.7422,0.0537-7.3828,0.1641v-2.9531
		c1.6406,0.1074,4.1016,0.1641,7.3828,0.1641h8.0391v-7.3828h-4.5938c-3.7197,0-6.1807,0.0566-7.3828,0.1641v-2.9531
		c1.2021,0.1104,3.6094,0.1641,7.2188,0.1641h4.7578v-6.5625h-3.2812c-3.3916,0-5.5781,0.0566-6.5625,0.1641v-2.625
		c-0.9844,0.7666-2.8457,1.915-5.5781,3.4453c-0.6562-1.3125-1.4229-2.4609-2.2969-3.4453c2.625-0.6562,5.6855-2.2969,9.1875-4.9219
		c3.499-2.625,6.2881-6.0703,8.3672-10.3359c1.3125,0.5488,2.6787,1.0947,4.1016,1.6406L577.8037,963.0576z M571.5693,975.5264
		h9.8438c2.1865,0,3.8809-0.0537,5.0859-0.1641c-4.7041-2.4043-8.2031-5.9062-10.5-10.5c-2.9531,4.4863-6.3447,7.9854-10.1719,10.5
		C567.1396,975.4727,569.0518,975.5264,571.5693,975.5264z"/>
	<path fill="#4B5666" d="M630.3037,979.792c1.8584,0,3.9375-0.0537,6.2344-0.1641v2.9531c-2.2969-0.1074-4.376-0.1641-6.2344-0.1641
		h-10.5v4.1016c6.4521,0,10.6641-0.0537,12.6328-0.1641v2.9531c-1.9688-0.1074-6.1807-0.1641-12.6328-0.1641v4.9219
		c2.0762,0.3281,4.6475,0.4922,7.7109,0.4922c3.0605,0,6.4521-0.2178,10.1719-0.6562c-0.877,1.2021-1.4229,2.5146-1.6406,3.9375
		h-8.3672c-2.4072,0-4.6504-0.1387-6.7266-0.4102c-2.0791-0.2744-4.1299-0.7949-6.1523-1.5586
		c-2.0254-0.7666-4.1836-2.1328-6.4805-4.1016c-0.4385,0.877-1.0664,1.8867-1.8867,3.0352s-2.0508,2.543-3.6914,4.1836
		c-1.0947-0.877-2.1895-1.6406-3.2812-2.2969c2.1865-1.3125,3.9912-3.2246,5.4141-5.7422c1.4199-2.5146,2.2402-4.8652,2.4609-7.0547
		l3.9375,1.1484c-0.3281,0.4385-0.877,1.6973-1.6406,3.7734c1.9688,2.0791,4.3193,3.5557,7.0547,4.4297V982.417h-10.5
		c-1.9688,0-4.0479,0.0566-6.2344,0.1641v-2.9531c2.2969,0.1104,4.373,0.1641,6.2344,0.1641H630.3037z M630.1396,968.7998
		c0,2.8457,0.0537,5.5244,0.1641,8.0391h-24.4453c0.1074-2.5146,0.1641-5.1934,0.1641-8.0391c0-2.9531-0.0566-5.25-0.1641-6.8906
		h24.4453C630.1934,963.5498,630.1396,965.8467,630.1396,968.7998z M626.8584,967.8154v-3.2812h-17.5547v3.2812H626.8584z
		 M626.8584,974.0498v-3.4453h-17.5547v3.4453H626.8584z"/>
	<path fill="#4B5666" d="M504.6318,1016.3291c-0.3281,0.8203-0.7129,1.7227-1.1484,2.707h7.875
		c0-3.2812-0.0566-5.6855-0.1641-7.2188h3.7734c-0.1104,1.3125-0.1641,3.7197-0.1641,7.2188h5.5781
		c2.1865,0,4.3193-0.0537,6.3984-0.1641v3.2812c-1.9688-0.1074-4.0479-0.1641-6.2344-0.1641h-5.7422v6.3984h11.3203
		c2.0762,0,3.9375-0.0537,5.5781-0.1641v3.2812c-1.6406-0.1074-3.502-0.1641-5.5781-0.1641h-6.7266v11.8125
		c-0.1104,1.6406,0.5996,2.4609,2.1328,2.4609h3.2812c0.9844,0,1.666-0.4385,2.0508-1.3125
		c0.3818-0.874,0.6279-2.1865,0.7383-3.9375c1.3125,0.9844,2.6787,1.5332,4.1016,1.6406c-0.9844,3.1709-1.833,5.0293-2.543,5.5781
		c-0.7129,0.5459-1.6152,0.874-2.707,0.9844h-6.2344c-2.5176,0-3.8838-1.2051-4.1016-3.6094v-13.6172h-6.5625
		c-0.4385,8.2031-4.4297,14.2168-11.9766,18.0469c-0.6562-0.877-1.751-1.8047-3.2812-2.7891
		c7.1084-1.9688,11.0459-7.0547,11.8125-15.2578h-6.0703c-2.2969,0-4.2119,0.0566-5.7422,0.1641v-3.2812
		c1.6406,0.1104,3.5527,0.1641,5.7422,0.1641h11.3203v-6.3984h-9.0234c-0.4385,0.9844-1.3125,2.6816-2.625,5.0859
		c-0.877-0.7637-1.9688-1.2559-3.2812-1.4766c2.625-3.8271,4.4834-8.0928,5.5781-12.7969c1.3125,0.5488,2.625,0.9844,3.9375,1.3125
		C505.3955,1014.7705,504.96,1015.5088,504.6318,1016.3291z"/>
	<path fill="#4B5666" d="M542.2021,1037.9854c-1.3125,2.5713-2.2969,4.6221-2.9531,6.1523
		c-0.9844-0.874-2.1895-1.6943-3.6094-2.4609c1.2021-1.4199,2.5146-3.335,3.9375-5.7422c1.4199-2.4043,2.5684-4.8115,3.4453-7.2188
		c0.7637,0.877,1.748,1.6406,2.9531,2.2969C544.7705,1033.0918,543.5146,1035.417,542.2021,1037.9854z M542.3662,1018.0518
		c1.0918,1.3125,2.2402,2.6816,3.4453,4.1016c-0.877,0.6562-1.8047,1.4766-2.7891,2.4609
		c-0.9844-1.4199-3.2275-4.1016-6.7266-8.0391c0.874-0.7637,1.748-1.584,2.625-2.4609
		C540.123,1015.4268,541.2715,1016.7393,542.3662,1018.0518z M548.6006,1021.0049v-3.1172
		c1.9688,0.1104,4.5371,0.1641,7.7109,0.1641c0-3.0605-0.0566-5.4141-0.1641-7.0547c1.2021,0.1104,2.4609,0.2207,3.7734,0.3281
		c-0.2207,1.5332-0.3281,3.7734-0.3281,6.7266h9.6797c-0.1104,1.751-0.1641,5.7422-0.1641,11.9766
		c1.748,0,3.2812-0.0537,4.5938-0.1641v3.1172c-1.6406-0.1074-3.2812-0.1641-4.9219-0.1641h-8.3672
		c3.1709,6.7832,7.9287,10.7744,14.2734,11.9766c-1.2051,0.874-2.0254,2.1328-2.4609,3.7734
		c-6.7832-2.2969-11.4307-6.7266-13.9453-13.2891c-2.4072,5.9062-6.5625,10.6074-12.4688,14.1094
		c-0.6562-1.0947-1.5869-1.9688-2.7891-2.625c6.4521-3.2812,10.6641-7.9287,12.6328-13.9453h-2.625
		c-1.9688,0-3.9375,0.0566-5.9062,0.1641v-3.1172c1.9688,0.1104,3.9375,0.1641,5.9062,0.1641h2.9531
		c0.2178-3.6094,0.3281-6.6699,0.3281-9.1875C553.1377,1020.8408,550.5693,1020.8975,548.6006,1021.0049z M565.8271,1030.0283
		v-9.1875h-6.2344c-0.1104,3.7197-0.2207,6.7832-0.3281,9.1875H565.8271z"/>
	<path fill="#4B5666" d="M591.749,1014.2783h18.5391c-1.0947,1.751-2.4072,3.5557-3.9375,5.4141
		c-1.5332,1.8613-3.4453,3.666-5.7422,5.4141c1.5303,0.877,3.7168,1.6689,6.5625,2.3789c2.8428,0.7129,6.0137,1.0664,9.5156,1.0664
		c-1.0947,1.0947-1.6973,2.2432-1.8047,3.4453c-4.0479-0.4355-7.4111-1.0918-10.0898-1.9688
		c-2.6816-0.874-5.1143-2.0225-7.3008-3.4453c-3.3916,1.9688-6.5371,3.3916-9.4336,4.2656
		c-2.8994,0.877-5.6602,1.5869-8.2852,2.1328c-0.3281-1.2021-0.9844-2.1865-1.9688-2.9531
		c4.2656-0.4355,7.8467-1.1484,10.7461-2.1328c2.8965-0.9844,4.8936-1.9688,5.9883-2.9531
		c-1.8613-1.5303-3.8301-3.499-5.9062-5.9062c-1.4229,1.8613-3.1172,3.8301-5.0859,5.9062c-0.9844-0.9844-1.915-1.584-2.7891-1.8047
		c2.1865-1.8584,4.1553-4.0449,5.9062-6.5625c1.748-2.5146,2.8428-4.5938,3.2812-6.2344c1.748,0.7666,3.0068,1.2588,3.7734,1.4766
		C593.2793,1012.1455,592.623,1012.9658,591.749,1014.2783z M591.585,1040.5283c-0.4385,0.4385-1.6973,1.4229-3.7734,2.9531
		c-2.0791,1.5332-4.1582,2.9531-6.2344,4.2656c-0.6562-0.877-1.4229-1.6406-2.2969-2.2969c1.4199-0.6562,3.1426-1.7227,5.168-3.1992
		c2.0225-1.4766,3.4707-2.8145,4.3477-4.0195L591.585,1040.5283z M595.3584,1033.4736c0-0.9844-0.0566-2.3506-0.1641-4.1016h3.6094
		c-0.1104,1.8613-0.1641,3.2275-0.1641,4.1016h6.8906c2.2969,0,4.5938-0.0537,6.8906-0.1641v3.1172
		c-2.2969-0.1074-4.54-0.1641-6.7266-0.1641h-7.0547v9.1875c0.1074,2.2969-2.0791,3.5527-6.5625,3.7734
		c-0.3281-1.0947-0.8203-2.2969-1.4766-3.6094c3.2812,0.3281,4.8652-0.2744,4.7578-1.8047v-7.5469h-7.2188
		c-2.1895,0-4.4297,0.0566-6.7266,0.1641v-3.1172c2.2969,0.1104,4.5371,0.1641,6.7266,0.1641H595.3584z M604.3818,1017.0674
		h-13.6172c1.9688,2.625,4.2656,4.7578,6.8906,6.3984C600.8262,1021.3896,603.0693,1019.2568,604.3818,1017.0674z
		 M614.0615,1045.1221c-0.6562,0.7637-1.3125,1.6406-1.9688,2.625c-1.5332-1.0947-3.0918-2.1895-4.6758-3.2812
		c-1.5869-1.0918-3.4736-2.1865-5.6602-3.2812c0.6562-0.7637,1.2559-1.6406,1.8047-2.625
		C606.8428,1040.4209,610.3418,1042.6074,614.0615,1045.1221z"/>
	<path fill="#4B5666" d="M625.5459,1024.1221c-1.0947,1.6406-2.4072,3.4453-3.9375,5.4141
		c-0.5488-1.0918-1.3125-1.9121-2.2969-2.4609c1.9688-1.9688,3.7734-4.373,5.4141-7.2188c1.6406-2.8428,3.0068-5.9062,4.1016-9.1875
		c1.3125,0.877,2.4609,1.4766,3.4453,1.8047c-0.7666,0.6562-1.9688,2.7354-3.6094,6.2344v22.3125c0,3.502,0.0537,6.124,0.1641,7.875
		h-3.4453c0.1074-1.5332,0.1641-4.1016,0.1641-7.7109V1024.1221z M637.1943,1020.3486h6.3984v-3.2812
		c0-2.7324-0.0566-4.5938-0.1641-5.5781h3.4453c-0.1104,0.877-0.1641,2.6816-0.1641,5.4141v3.4453h4.9219
		c1.4199,0,2.7324-0.0537,3.9375-0.1641v3.1172c-1.2051-0.1074-2.5176-0.1641-3.9375-0.1641H646.71v8.8594h5.4141
		c1.6406,0,3.6094-0.0537,5.9062-0.1641v3.1172c-1.8613-0.1074-3.8838-0.1641-6.0703-0.1641h-5.25v8.5312
		c0,1.6406,0.0537,3.4453,0.1641,5.4141h-3.4453c0.1074-1.9688,0.1641-3.7734,0.1641-5.4141v-8.5312h-6.3984
		c-1.8613,0-4.0479,0.0566-6.5625,0.1641v-3.1172c2.4043,0.1104,4.373,0.1641,5.9062,0.1641h7.0547v-8.8594H636.21
		c-0.3281,0.877-1.2588,2.8994-2.7891,6.0703c-0.3281-0.3281-1.3125-0.8203-2.9531-1.4766c1.0918-1.6406,2.0762-3.499,2.9531-5.5781
		c0.874-2.0762,1.6406-4.7012,2.2969-7.875c0.874,0.5488,2.1328,1.041,3.7734,1.4766
		C638.9424,1016.1934,638.1787,1017.7236,637.1943,1020.3486z"/>
</g>
<g>
	<path fill="#4B5666" d="M871.9229,580.1328c0-1.5303-0.0566-2.8965-0.1641-4.1016h3.6094
		c-0.2207,1.3125-0.3281,2.7891-0.3281,4.4297v3.7734c1.8574,0,3.4453-0.0537,4.7578-0.1641v3.2812
		c-1.6406-0.1074-3.2285-0.1641-4.7578-0.1641v6.8906c1.4199-0.5459,2.7891-1.1484,4.1016-1.8047
		c0,1.2051,0.0527,2.1895,0.1641,2.9531c-1.8613,0.7666-3.2812,1.4766-4.2656,2.1328v11.6484c0,1.5303-0.4668,2.5967-1.3945,3.1992
		c-0.9316,0.5996-2.6543,1.0098-5.168,1.2305c-0.2207-1.0947-0.6562-2.2969-1.3125-3.6094c2.2969,0,3.6621-0.082,4.1016-0.2461
		c0.4355-0.1641,0.6562-0.7383,0.6562-1.7227v-9.1875c-0.7676,0.3281-1.5332,0.6846-2.2969,1.0664
		c-0.7676,0.3848-1.752,0.959-2.9531,1.7227c-0.3281-0.874-0.877-2.0762-1.6406-3.6094c3.3887-1.0918,5.6855-1.9121,6.8906-2.4609
		v-8.2031c-2.1895,0-4.2129,0.0566-6.0703,0.1641v-3.2812c1.6406,0.1104,3.6621,0.1641,6.0703,0.1641V580.1328z M889.1494,589.8125
		v-5.5781h-2.4609c-2.1895,0-3.9375,0.0566-5.25,0.1641v-2.7891c1.748,0.1104,3.498,0.1641,5.25,0.1641h2.4609
		c0-2.7324-0.0566-4.7578-0.1641-6.0703h3.4453c-0.1113,1.3125-0.1641,3.3379-0.1641,6.0703h3.2812
		c1.748,0,3.4453-0.0537,5.0859-0.1641v2.7891c-1.6406-0.1074-3.3379-0.1641-5.0859-0.1641h-3.2812v5.5781h6.0703
		c2.1855,0,3.9375-0.0537,5.25-0.1641v2.9531c-1.5332-0.1074-3.1738-0.1641-4.9219-0.1641h-1.3125v4.7578h1.1484
		c1.8574,0,3.3887-0.0537,4.5938-0.1641v2.9531c-1.4238-0.1074-2.9531-0.1641-4.5938-0.1641h-1.1484v9.3516
		c0,1.8584-0.5215,3.0352-1.5586,3.5273c-1.041,0.4922-2.7637,0.792-5.168,0.9023c-0.1113-0.9844-0.5488-2.1895-1.3125-3.6094
		c1.9688,0.1074,3.2812,0.082,3.9375-0.082s0.9844-0.792,0.9844-1.8867v-8.2031h-9.6797c-1.5332,0-3.0098,0.0566-4.4297,0.1641
		v-2.9531c1.3125,0.1104,2.7891,0.1641,4.4297,0.1641h9.6797v-4.7578h-10.1719c-1.0957,0-2.5723,0.0566-4.4297,0.1641v-2.9531
		c1.4199,0.1104,2.7324,0.1641,3.9375,0.1641H889.1494z M888.3291,607.3672c-1.0957,0.7666-2.0801,1.4229-2.9531,1.9688
		c-1.0957-2.2969-2.3535-4.4297-3.7734-6.3984c0.7637-0.4355,1.6934-1.0381,2.7891-1.8047
		C886.249,603.6504,887.5615,605.7266,888.3291,607.3672z"/>
	<path fill="#4B5666" d="M914.5791,581.7734c-0.9844,2.1895-2.0801,4.4863-3.2812,6.8906h4.4297
		c0.9844-2.2969,1.6406-4.209,1.9688-5.7422c1.0918,0.4385,2.3496,0.877,3.7734,1.3125c-0.5488,0.4385-1.3691,1.6973-2.4609,3.7734
		c-1.0957,2.0791-3.0098,5.5244-5.7422,10.3359c0.873-0.1074,3.1172-0.3818,6.7266-0.8203
		c-0.3281,1.0947-0.4922,2.0254-0.4922,2.7891c-1.3125,0.1104-2.8184,0.2744-4.5117,0.4922
		c-1.6973,0.2207-3.5273,0.6025-5.4961,1.1484c-0.5488-1.4199-0.9844-2.5684-1.3125-3.4453
		c1.0918-0.3281,2.1855-1.2305,3.2812-2.707c1.0918-1.4766,2.0762-3.0889,2.9531-4.8398c-2.7363,0.1104-4.8145,0.4385-6.2344,0.9844
		c-0.4395-0.9844-0.877-2.0225-1.3125-3.1172c0.9844-0.7637,2.1035-2.4043,3.3633-4.9219c1.2559-2.5146,2.3223-5.1934,3.1992-8.0391
		c1.2012,0.5488,2.5684,0.9307,4.1016,1.1484C916.5479,578,915.5635,579.5869,914.5791,581.7734z M920.1572,607.8594
		c-1.0957,0-2.7891,0.2461-5.0859,0.7383s-4.377,1.0098-6.2344,1.5586c-0.3281-1.3125-0.7676-2.5146-1.3125-3.6094
		c2.625-0.2178,4.8652-0.4639,6.7266-0.7383c1.8574-0.2715,3.8809-0.5742,6.0703-0.9023
		C920.21,606.001,920.1572,606.9854,920.1572,607.8594z M935.9072,595.3906c0,1.4229-0.1113,3.2812-0.3281,5.5781h3.2812
		c2.2969,0,4.373-0.0537,6.2344-0.1641v2.7891c-1.6406-0.1074-3.7207-0.1641-6.2344-0.1641h-3.6094
		c-1.3125,2.8457-2.7363,4.7861-4.2656,5.8242c-1.5332,1.0381-4.377,2.3789-8.5312,4.0195
		c-0.5488-1.2051-1.4766-2.3535-2.7891-3.4453c4.4824-0.5459,7.4648-1.4199,8.9414-2.625c1.4766-1.2021,2.5957-2.4609,3.3633-3.7734
		h-3.2812c-2.1895,0-4.2656,0.0566-6.2344,0.1641v-2.7891c1.9688,0.1104,4.0449,0.1641,6.2344,0.1641h3.9375
		c0.2168-1.9688,0.3281-3.8271,0.3281-5.5781v-5.9062c0.9844,0.3281,2.1855,0.4922,3.6094,0.4922
		C936.124,592.166,935.9072,593.9707,935.9072,595.3906z M929.3447,597.8516c-0.7676,0.6562-1.5332,1.4229-2.2969,2.2969
		c-2.0801-2.1865-3.666-3.6094-4.7578-4.2656c0.7637-0.6562,1.4199-1.4199,1.9688-2.2969
		C926.4443,595.4473,928.1396,596.8672,929.3447,597.8516z M931.9697,579.4766c0-1.3125-0.1113-2.6787-0.3281-4.1016h3.4453
		c-0.1113,1.2051-0.1641,2.5713-0.1641,4.1016h4.4297c1.8574,0,3.6621-0.0537,5.4141-0.1641v2.7891
		c-1.752-0.1074-3.502-0.1641-5.25-0.1641h-4.5938v3.4453h9.5156c-1.0957,3.502-1.8613,5.9062-2.2969,7.2188
		c-1.0957-0.4355-2.0801-0.71-2.9531-0.8203c0.6562-1.9688,1.1484-3.2812,1.4766-3.9375h-11.9766
		c-1.9688,0-3.8848,0.0566-5.7422,0.1641v-2.7891c1.8574,0.1104,3.7734,0.1641,5.7422,0.1641h3.2812v-3.4453h-3.6094
		c-1.8613,0-3.6094,0.0566-5.25,0.1641v-2.7891c1.5293,0.1104,3.2812,0.1641,5.25,0.1641H931.9697z M931.9697,592.7656
		c-0.877,0.6562-1.6973,1.4229-2.4609,2.2969c-1.8613-1.748-3.4453-3.0605-4.7578-3.9375c0.7637-0.7637,1.4199-1.4766,1.9688-2.1328
		C927.1553,589.3203,928.9053,590.5791,931.9697,592.7656z M945.751,610.1562c-0.877,0.9844-1.5879,1.9121-2.1328,2.7891
		c-4.0488-2.625-6.8379-4.2656-8.3672-4.9219c0.7637-1.0918,1.3125-1.9688,1.6406-2.625
		C941.2646,607.6953,944.2178,609.2822,945.751,610.1562z"/>
	<path fill="#4B5666" d="M958.876,604.9062c0,3.3916,0.0527,6.2881,0.1641,8.6953h-3.1172
		c0.1074-2.4072,0.1641-5.0859,0.1641-8.0391c-2.5176,0.6562-4.3223,1.2051-5.4141,1.6406
		c-0.3281-1.0918-0.8203-2.1865-1.4766-3.2812c1.748-0.2178,4.0449-0.6562,6.8906-1.3125v-6.2344
		c-2.625,0.2207-4.5938,0.6025-5.9062,1.1484l-1.1484-2.7891c0.873-0.5459,1.6934-1.9121,2.4609-4.1016
		c0.7637-2.1865,1.3652-4.3193,1.8047-6.3984c-1.0957,0-2.2441,0.0566-3.4453,0.1641v-2.9531
		c1.4199,0.1104,2.7324,0.1641,3.9375,0.1641c0.4355-2.0762,0.709-4.1553,0.8203-6.2344c1.4199,0.4385,2.7324,0.7666,3.9375,0.9844
		c-0.6562,0.7666-1.2598,2.5176-1.8047,5.25c2.2969,0,4.2656-0.0537,5.9062-0.1641v2.9531
		c-1.9688-0.1074-4.1016-0.1641-6.3984-0.1641c-1.0957,4.0479-2.1895,7.3291-3.2812,9.8438l3.1172-0.3281
		c0-1.4199-0.0566-3.0605-0.1641-4.9219h3.1172c-0.1113,0.9844-0.1641,2.5176-0.1641,4.5938l2.7891-0.3281v2.625l-2.7891,0.3281
		v5.9062l3.2812-0.8203v2.7891C961.0615,604.1426,959.9678,604.4707,958.876,604.9062z M968.7197,585.3828
		c-2.1895,2.4072-3.666,3.9375-4.4297,4.5938h10.1719c-0.1113,1.2051-0.1641,2.6816-0.1641,4.4297v15.5859
		c0.1074,0.9844-0.1387,1.6943-0.7383,2.1328c-0.6035,0.4355-1.6699,0.8203-3.1992,1.1484
		c-0.3281-1.0947-0.877-2.1895-1.6406-3.2812c1.8574,0,2.7891-0.2744,2.7891-0.8203v-4.2656h-4.4297v8.2031h-2.9531
		c0.1074-1.9688,0.1641-3.9375,0.1641-5.9062v-11.4844c0-1.8584-0.0566-3.7168-0.1641-5.5781l-0.9844,0.8203
		c-0.7676-0.874-1.6973-1.5303-2.7891-1.9688c2.7324-1.8584,5.0859-4.0195,7.0547-6.4805s3.6094-5.1113,4.9219-7.957
		c1.3125,0.6562,2.5137,1.0947,3.6094,1.3125l-0.6562,0.8203c2.0762,2.8457,4.2656,5.0322,6.5625,6.5625
		c2.2969,1.5332,4.4297,2.625,6.3984,3.2812c-0.9844,0.877-1.8047,1.8613-2.4609,2.9531c-2.4082-1.2021-4.4863-2.5684-6.2344-4.1016
		v1.9688h-10.8281V585.3828z M971.5088,596.2109v-3.7734h-4.4297v3.7734H971.5088z M971.5088,602.2812v-3.6094h-4.4297v3.6094
		H971.5088z M973.6416,578.6562c-1.752,2.625-3.2285,4.6504-4.4297,6.0703h9.5156
		C977.415,583.5244,975.7178,581.502,973.6416,578.6562z M980.04,596.2109v7.2188c0,2.0791,0.0527,3.7734,0.1641,5.0859h-3.2812
		c0.1074-1.6406,0.1641-3.2812,0.1641-4.9219v-7.3828c0-1.5303-0.0566-3.0605-0.1641-4.5938h3.2812
		C980.0928,592.9297,980.04,594.4629,980.04,596.2109z M985.29,595.2266v14.7656c0,1.2021-0.2754,2.0225-0.8203,2.4609
		c-0.5488,0.4355-1.916,0.874-4.1016,1.3125c-0.2207-0.9844-0.7676-2.0791-1.6406-3.2812c2.4043,0.1074,3.6621-0.2744,3.7734-1.1484
		v-13.7812c0-1.748-0.0566-3.5527-0.1641-5.4141h3.1172C985.3428,591.8916,985.29,593.5859,985.29,595.2266z"/>
	<path fill="#4B5666" d="M1000.3838,590.4688c-0.1113,2.0791-0.1641,4.1582-0.1641,6.2344v9.0234
		c2.4043,2.5176,6.8906,3.7734,13.4531,3.7734s11.7012-0.3818,15.4219-1.1484c-0.877,1.3125-1.3691,2.625-1.4766,3.9375
		c-4.0488,0.1074-8.0957,0.1641-12.1406,0.1641c-4.0488,0-7.166-0.2207-9.3516-0.6562c-2.1895-0.4385-3.8848-1.1484-5.0859-2.1328
		c-1.2051-0.9844-2.2969-1.1484-3.2812-0.4922s-2.1328,1.8047-3.4453,3.4453c-0.877-1.0947-1.752-1.8613-2.625-2.2969
		c2.0762-1.9688,3.8809-3.3887,5.4141-4.2656v-12.6328c-1.6406,0-3.2812,0.0566-4.9219,0.1641v-3.2812
		c1.748,0.1104,3.4453,0.1641,5.0859,0.1641H1000.3838z M1001.5322,583.7422c-0.7676,0.4385-1.6406,1.0947-2.625,1.9688
		c-1.2051-2.0762-2.9004-4.373-5.0859-6.8906c0.9844-0.6562,1.8574-1.2559,2.625-1.8047
		C998.5225,579.4229,1000.2197,581.666,1001.5322,583.7422z M1019.7432,583.5781c2.9531,0,5.1934-0.0537,6.7266-0.1641v3.1172
		c-1.4238-0.1074-4.8145-0.1641-10.1719-0.1641c-0.2207,3.1738-0.3281,5.1426-0.3281,5.9062c6.0137,0,9.8438-0.0537,11.4844-0.1641
		v3.1172c-1.5332-0.1074-5.4141-0.1641-11.6484-0.1641l-0.1641,0.9844c4.8105,3.1738,8.4199,5.7988,10.8281,7.875
		c-1.4238,0.877-2.2441,1.8047-2.4609,2.7891c-1.6406-1.8584-4.8145-4.5938-9.5156-8.2031c-0.877,1.751-2.0254,3.3633-3.4453,4.8398
		c-1.4238,1.4766-3.0645,2.8174-4.9219,4.0195c-0.6562-0.874-1.5332-1.6943-2.625-2.4609c2.1855-1.0918,4.1016-2.5146,5.7422-4.2656
		c1.6406-1.748,2.7324-3.6094,3.2812-5.5781c-4.7051,0-7.875,0.0566-9.5156,0.1641v-3.1172
		c1.748,0.1104,5.0293,0.1641,9.8438,0.1641c0.2168-2.7324,0.3281-4.7012,0.3281-5.9062c-4.1582,0-7.1113,0.0566-8.8594,0.1641
		v-3.1172c1.748,0.1104,5.8496,0.1641,12.3047,0.1641c1.748-3.8271,2.6777-6.4521,2.7891-7.875
		c1.4199,0.5488,2.7324,1.041,3.9375,1.4766C1022.4756,578.1641,1021.2725,580.2969,1019.7432,583.5781z M1012.8525,581.6094
		c-1.0957,0.6562-2.0254,1.2588-2.7891,1.8047c-0.7676-1.5303-2.1895-3.499-4.2656-5.9062c0.7637-0.5459,1.584-1.0918,2.4609-1.6406
		C1010.1162,578.1641,1011.6475,580.0791,1012.8525,581.6094z"/>
	<path fill="#4B5666" d="M916.3838,634.9629v21.8203c0,2.9531,0.0527,5.3574,0.1641,7.2188h-3.2812
		c0-1.8613,0.0527-4.2656,0.1641-7.2188v-16.5703c-1.3125,2.4072-2.5176,4.3223-3.6094,5.7422
		c-0.5488-0.7637-1.4766-1.5303-2.7891-2.2969c2.2969-2.5146,4.2656-5.4678,5.9062-8.8594
		c1.6406-3.3887,2.7324-6.3984,3.2812-9.0234c1.4199,0.6562,2.6777,1.0947,3.7734,1.3125
		C919.3369,628.1826,918.1318,630.8076,916.3838,634.9629z M932.9541,628.8926c2.9531,5.1426,7.2715,8.9697,12.9609,11.4844
		c-0.9844,0.877-1.8047,1.8613-2.4609,2.9531c-4.5938-2.625-8.5879-6.5625-11.9766-11.8125
		c-2.8457,5.1426-6.5625,9.4082-11.1562,12.7969c-0.5488-0.7637-1.3125-1.584-2.2969-2.4609
		c4.0449-2.625,6.998-5.5215,8.8594-8.6953c1.8574-3.1709,2.9531-5.5781,3.2812-7.2188c1.748,0.877,3.0059,1.4229,3.7734,1.6406
		L932.9541,628.8926z M927.376,652.5996c-0.3281,4.3223-2.5176,8.1748-6.5625,11.5664c-0.6562-0.9844-1.5332-1.8047-2.625-2.4609
		c4.0449-2.8428,6.2051-6.2598,6.4805-10.2539c0.2715-3.9912,0.3535-7.1367,0.2461-9.4336
		c1.4199,0.2207,2.5684,0.3281,3.4453,0.3281C928.0322,644.8633,927.7041,648.2803,927.376,652.5996z M938.6963,648.416v10.3359
		c0,1.6406,0.0527,3.3887,0.1641,5.25h-3.4453c0.1074-1.8613,0.1641-3.666,0.1641-5.4141v-11.1562
		c0-1.2021-0.0566-3.0068-0.1641-5.4141h3.4453C938.749,644.4248,938.6963,646.5576,938.6963,648.416z"/>
	<path fill="#4B5666" d="M958.3838,635.127v21.6562c0,2.2969,0.0527,4.4834,0.1641,6.5625h-3.4453
		c0.1074-1.8613,0.1641-3.8809,0.1641-6.0703V640.377c-1.3125,2.1895-2.5176,3.9375-3.6094,5.25
		c-0.877-1.2021-1.6973-2.1328-2.4609-2.7891c1.0918-1.0918,2.5957-3.1992,4.5117-6.3164c1.9121-3.1172,3.416-6.6445,4.5117-10.582
		c1.5293,0.7666,2.8418,1.3125,3.9375,1.6406C961.2803,628.5645,960.0244,631.082,958.3838,635.127z M971.6729,630.5332v-4.2656
		c1.3125,0.1104,2.7891,0.2207,4.4297,0.3281c-0.5488,0.7666-0.877,2.0791-0.9844,3.9375h6.0703
		c1.8574,0,3.498-0.0537,4.9219-0.1641v2.9531c-1.5332-0.1074-3.1738-0.1641-4.9219-0.1641h-6.2344l-0.3281,3.6094h8.3672
		c-0.1113,1.3125-0.1641,3.0635-0.1641,5.25v16.7344c2.1855,0,3.7734-0.0537,4.7578-0.1641v2.9531
		c-1.4238-0.1104-3.3926-0.1641-5.9062-0.1641h-15.4219c-2.5176,0-4.5938,0.0537-6.2344,0.1641v-2.9531
		c0.9844,0.1104,2.5137,0.1641,4.5938,0.1641v-16.7344c0-2.0762-0.0566-3.8271-0.1641-5.25h6.7266l0.3281-3.6094h-2.9531
		c-2.7363,0-4.8691,0.0566-6.3984,0.1641v-2.9531c1.4199,0.1104,3.5527,0.1641,6.3984,0.1641H971.6729z M979.876,642.3457v-3.2812
		h-12.1406v3.2812H979.876z M979.876,647.7598v-2.9531h-12.1406v2.9531H979.876z M979.876,653.1738v-2.9531h-12.1406v2.9531H979.876
		z M979.876,658.752v-3.1172h-12.1406v3.1172H979.876z"/>
</g>
<g>
	<path fill="#4B5666" d="M104.0386,596.2109c-1.0947-0.2178-2.1328-0.4355-3.1172-0.6562
		c0.7637-2.0762,1.4199-5.7959,1.9688-11.1562c0.874,0.1104,1.9121,0.2744,3.1172,0.4922
		C105.3511,589.9229,104.6948,593.6963,104.0386,596.2109z M110.1089,581.4453v23.2969c0,2.7354,0.0537,5.5781,0.1641,8.5312
		h-3.2812c0.1074-2.9531,0.1641-5.7959,0.1641-8.5312v-23.2969c0-2.2969-0.0566-4.3193-0.1641-6.0703h3.2812
		C110.1626,577.0156,110.1089,579.041,110.1089,581.4453z M116.3433,591.2891c-0.4385,0.1104-1.3691,0.4385-2.7891,0.9844
		c-0.5488-2.4043-1.4766-5.1396-2.7891-8.2031c1.0918-0.3281,1.9121-0.71,2.4609-1.1484
		C114.7563,586.3135,115.7944,589.1025,116.3433,591.2891z M122.7417,575.375c0.9844,0.1104,2.1865,0.1641,3.6094,0.1641
		c-0.4385,2.625-0.6025,5.1426-0.4922,7.5469h8.8594c-0.1104,1.9688-0.1641,3.666-0.1641,5.0859v6.5625
		c0.9844,0,2.5146-0.0537,4.5938-0.1641v2.7891c-2.4072-0.1074-4.8682-0.1641-7.3828-0.1641h-4.2656
		c1.5303,3.0635,3.3887,5.7168,5.5781,7.957c2.1865,2.2432,4.4297,4.0195,6.7266,5.332c-1.2051,1.0918-2.0254,2.0225-2.4609,2.7891
		c-2.2969-1.751-4.0479-3.2812-5.25-4.5938c-1.2051-1.3125-2.3789-2.8145-3.5273-4.5117c-1.1484-1.6943-2.2715-3.6348-3.3633-5.8242
		c-0.877,3.2812-2.2715,6.127-4.1836,8.5312c-1.915,2.4072-4.1299,4.5371-6.6445,6.3984c-0.6562-0.877-1.5332-1.6973-2.625-2.4609
		c2.4043-1.3125,4.3477-2.7891,5.8242-4.4297s2.625-3.2812,3.4453-4.9219s1.2842-3.0605,1.3945-4.2656
		c-2.5176,0-5.3066,0.0566-8.3672,0.1641v-2.7891c3.1709,0.1104,6.124,0.1641,8.8594,0.1641v-9.1875
		c-2.5176,0-4.8145,0.0566-6.8906,0.1641v-2.7891c2.4043,0.1104,4.7012,0.1641,6.8906,0.1641
		C122.9058,580.8994,122.8491,578.3281,122.7417,575.375z M131.6011,594.7344v-9.1875h-5.7422v9.1875H131.6011z"/>
	<path fill="#4B5666" d="M151.2886,590.4688c-0.1104,2.0791-0.1641,4.1582-0.1641,6.2344v9.0234
		c2.9531,2.5176,7.875,3.7988,14.7656,3.8555c6.8906,0.0537,12.3047-0.2461,16.2422-0.9023
		c-0.7666,1.2021-1.2051,2.5684-1.3125,4.1016c-9.0801,0.1074-15.4502,0-19.1133-0.3281c-3.666-0.3281-6.4805-1.0664-8.4492-2.2148
		s-3.4736-1.3125-4.5117-0.4922c-1.041,0.8203-2.1611,1.9941-3.3633,3.5273c-0.5488-0.9844-1.4229-1.8613-2.625-2.625
		c1.2021-0.9844,2.9531-2.2969,5.25-3.9375v-13.4531c-1.4229,0-3.0098,0.0566-4.7578,0.1641v-3.1172
		c1.8584,0.1104,3.4453,0.1641,4.7578,0.1641H151.2886z M151.9448,584.0703c-1.0947,0.4385-2.2969,0.9307-3.6094,1.4766
		c-0.3281-1.8584-1.2051-4.4297-2.625-7.7109c1.0918-0.2178,2.0762-0.5459,2.9531-0.9844
		C150.0835,579.4766,151.1782,581.8838,151.9448,584.0703z M165.8901,579.1484c0-1.6406-0.0566-3.0605-0.1641-4.2656h3.1172
		c-0.1104,1.0947-0.1641,2.5176-0.1641,4.2656h6.7266c1.6406,0,3.2812-0.0537,4.9219-0.1641v2.9531
		c-1.6406-0.1074-3.2812-0.1641-4.9219-0.1641h-6.7266v3.1172h10.1719c-0.1104,1.751-0.1641,3.4453-0.1641,5.0859
		s0.0537,3.2812,0.1641,4.9219h-10.1719c0,6.4551,0.0537,10.7744,0.1641,12.9609h-3.1172
		c0.1074-2.1865,0.1641-5.9062,0.1641-11.1562c-1.3125,1.9688-2.6816,3.7197-4.1016,5.25c-1.4229,1.5332-3.1738,3.0635-5.25,4.5938
		c-0.7666-0.874-1.8047-1.6406-3.1172-2.2969c1.9688-0.7637,3.9092-2.1045,5.8242-4.0195c1.9121-1.9121,3.2529-3.6914,4.0195-5.332
		h-7.3828c0.1074-1.8584,0.1641-3.499,0.1641-4.9219c0-1.5303-0.0566-3.2246-0.1641-5.0859h10.0078v-3.1172h-6.8906
		c-1.5332,0-3.1738,0.0566-4.9219,0.1641v-2.9531c1.748,0.1104,3.3887,0.1641,4.9219,0.1641H165.8901z M165.8901,592.4375v-4.9219
		h-6.8906v4.9219H165.8901z M175.5698,592.4375v-4.9219h-6.8906v4.9219H175.5698z M180.3276,603.2656
		c-0.877,0.6562-1.6973,1.4766-2.4609,2.4609c-2.0791-1.9688-4.9219-4.4297-8.5312-7.3828
		c0.6562-0.6562,1.3125-1.4766,1.9688-2.4609C173.0522,597.416,176.062,599.877,180.3276,603.2656z"/>
	<path fill="#4B5666" d="M194.9292,583.4141h7.3828c-0.1104,1.8613-0.1641,4.2119-0.1641,7.0547v14.4375
		c0,1.6406,0.0537,3.9941,0.1641,7.0547h-3.2812v-3.2812h-8.3672v3.6094h-3.2812c0.1074-3.499,0.1641-5.6855,0.1641-6.5625v-15.0938
		c0-2.9531-0.0566-5.3574-0.1641-7.2188h4.7578c0.5459-2.5146,0.9844-5.1396,1.3125-7.875
		c1.5303,0.5488,2.7891,0.9307,3.7734,1.1484C196.6772,577.6719,195.9136,579.915,194.9292,583.4141z M199.0308,594.4062v-8.2031
		h-8.3672v8.2031H199.0308z M199.0308,605.8906v-8.6953h-8.3672v8.6953H199.0308z M220.8511,608.1875
		c-0.2207,1.9688-1.2588,3.2812-3.1172,3.9375c-1.8613,0.6562-3.9375,1.0918-6.2344,1.3125
		c-0.1104-1.2051-0.6025-2.4609-1.4766-3.7734c2.1865,0.1074,3.9092,0.0537,5.168-0.1641c1.2559-0.2178,2.0508-0.71,2.3789-1.4766
		c0.3281-0.7637,0.5742-3.0068,0.7383-6.7266c0.1641-3.7168,0.2998-8.9131,0.4102-15.5859h-9.5156
		c-0.877,2.0791-2.1328,4.54-3.7734,7.3828c-0.7666-0.7637-1.6973-1.3662-2.7891-1.8047c0.9844-1.3125,1.9121-2.8965,2.7891-4.7578
		c0.874-1.8584,1.6406-3.8809,2.2969-6.0703c0.6562-2.1865,1.0381-3.8809,1.1484-5.0859c1.5303,0.6562,2.8428,1.1484,3.9375,1.4766
		c-0.5488,0.877-1.0127,1.833-1.3945,2.8711c-0.3848,1.041-0.7949,2.0508-1.2305,3.0352h11.6484
		c-0.1104,2.2969-0.1641,4.4297-0.1641,6.3984C221.561,595.8291,221.2866,602.1738,220.8511,608.1875z M211.9917,595.8828
		c0.6562,1.3125,1.4199,3.0098,2.2969,5.0859c-0.7666,0.3281-1.8047,0.877-3.1172,1.6406c-0.7666-2.0762-1.4766-3.8555-2.1328-5.332
		s-1.3125-2.707-1.9688-3.6914c0.7637-0.4355,1.748-0.9844,2.9531-1.6406L211.9917,595.8828z"/>
	<path fill="#4B5666" d="M251.6948,591.7812c-0.2207,2.2969-0.5488,4.7578-0.9844,7.3828h7.7109
		c1.9688,0,4.0449-0.0537,6.2344-0.1641v3.1172c-2.2969-0.1074-4.4297-0.1641-6.3984-0.1641h-8.3672
		c-0.9844,2.1895-2.4609,4.1016-4.4297,5.7422s-4.2656,2.9248-6.8906,3.8555c-2.625,0.9277-4.9785,1.666-7.0547,2.2148
		c-0.4385-1.3125-1.3691-2.3535-2.7891-3.1172c3.1709-0.3281,6.5625-1.2305,10.1719-2.707s6.124-3.4707,7.5469-5.9883h-11.6484
		c-1.9688,0-4.1582,0.0566-6.5625,0.1641V599c2.5146,0.1104,4.7012,0.1641,6.5625,0.1641h12.7969
		c0.3281-1.8584,0.5742-3.8555,0.7383-5.9883s0.1895-4.7295,0.082-7.793c1.3125,0.4385,2.6787,0.7666,4.1016,0.9844
		C252.187,587.6797,251.9126,589.4844,251.6948,591.7812z M249.0698,580.625h14.2734c-0.1104,1.2051-0.1641,2.4072-0.1641,3.6094
		c0,1.0947,0.0537,2.2969,0.1641,3.6094h-3.7734V583.25h-26.0859v4.9219h-3.6094c0.1074-1.3125,0.1641-2.5684,0.1641-3.7734
		c0-1.3125-0.0566-2.5684-0.1641-3.7734h15.0938c-0.3281-1.3125-0.9307-2.8428-1.8047-4.5938
		c0.874-0.3281,2.0762-0.71,3.6094-1.1484C247.647,576.6338,248.4136,578.5488,249.0698,580.625z M240.8667,595.8828
		c-0.4385,0.6562-1.0947,1.5332-1.9688,2.625c-3.0635-2.2969-5.5244-3.8271-7.3828-4.5938c0.6562-0.6562,1.2021-1.5303,1.6406-2.625
		C235.0142,592.166,237.5854,593.6963,240.8667,595.8828z M246.1167,590.7969c-0.7666,0.877-1.4229,1.751-1.9688,2.625
		c-3.502-2.5146-6.0703-4.0449-7.7109-4.5938c0.5459-0.7637,1.1484-1.6406,1.8047-2.625L246.1167,590.7969z M258.5854,607.6133
		c2.1865,1.1484,4.1016,2.2148,5.7422,3.1992c-0.7666,0.874-1.5869,1.8047-2.4609,2.7891
		c-1.9688-1.4229-4.1016-2.7637-6.3984-4.0195s-4.2656-2.2148-5.9062-2.8711c0.874-1.0918,1.584-2.0225,2.1328-2.7891
		C254.0991,605.2344,256.396,606.4648,258.5854,607.6133z"/>
	<path fill="#4B5666" d="M278.7651,604.7422c-1.6406,0.3281-2.9814,0.6025-4.0195,0.8203c-1.041,0.2207-2.6533,0.6562-4.8398,1.3125
		c-0.3281-1.2021-0.7129-2.4043-1.1484-3.6094c1.5303-0.1074,3.1172-0.2715,4.7578-0.4922c1.6406-0.2178,3.499-0.4922,5.5781-0.8203
		C278.9829,602.7197,278.8726,603.6504,278.7651,604.7422z M282.5386,578.3281c-0.2207,0.9844-0.3848,2.4072-0.4922,4.2656
		l-1.1484,12.7969h3.1172c-0.1104,0.877-0.2207,2.3535-0.3281,4.4297l-0.6562,9.0234c0,2.2969-0.6562,3.6094-1.9688,3.9375
		s-3.1172,0.6562-5.4141,0.9844c-0.3281-1.5332-0.7666-2.7891-1.3125-3.7734c2.2969,0,3.7988-0.0283,4.5117-0.082
		c0.71-0.0566,1.1738-0.5742,1.3945-1.5586l0.4922-10.1719h-9.6797c0.1074-2.0762,0.1895-4.3477,0.2461-6.8086
		c0.0537-2.4609,0.082-4.7832,0.082-6.9727h3.2812c-0.2207,1.2051-0.3848,2.7637-0.4922,4.6758
		c-0.1104,1.915-0.1641,4.0195-0.1641,6.3164h4.1016l1.1484-14.4375h-4.4297c-1.751,0-3.4453,0.0566-5.0859,0.1641v-2.9531
		c1.6406,0.1104,3.335,0.1641,5.0859,0.1641H282.5386z M295.8276,577.3438c1.748,3.2812,3.5527,5.6885,5.4141,7.2188
		c1.8584,1.5332,4.0449,2.7354,6.5625,3.6094c-0.9844,0.877-1.751,1.9688-2.2969,3.2812c-1.5332-0.874-3.0098-1.9121-4.4297-3.1172
		v2.7891c-1.4229-0.1074-3.4453-0.1641-6.0703-0.1641s-4.7578,0.0566-6.3984,0.1641V588.5
		c-0.6562,0.877-1.5869,2.0254-2.7891,3.4453c-0.9844-0.9844-2.0254-1.748-3.1172-2.2969c1.748-1.2021,3.0889-2.4043,4.0195-3.6094
		c0.9277-1.2021,1.748-2.4609,2.4609-3.7734c0.71-1.3125,1.3125-2.5146,1.8047-3.6094c0.4922-1.0918,0.9023-2.2969,1.2305-3.6094
		c1.4199,0.3281,2.8965,0.6562,4.4297,0.9844L295.8276,577.3438z M302.8823,597.9336c-0.3281,1.1484-0.8486,2.9531-1.5586,5.4141
		c-0.7129,2.4609-1.2871,4.4043-1.7227,5.8242h2.2969c0.7637,0,1.9688-0.0537,3.6094-0.1641v2.9531
		c-1.4229-0.1104-2.625-0.1641-3.6094-0.1641h-12.6328c-1.9688,0-3.3916,0.0537-4.2656,0.1641v-2.9531
		c1.3125,0.1104,2.7891,0.1641,4.4297,0.1641h7.3828c0.874-2.4043,1.584-4.8652,2.1328-7.3828l1.6406-7.5469
		c0.874,0.3281,2.0762,0.6562,3.6094,0.9844C303.646,595.8828,303.2104,596.7852,302.8823,597.9336z M290.1675,600.3125
		c0.4922,1.9688,0.9561,3.7734,1.3945,5.4141c-0.9844,0.1104-1.915,0.3848-2.7891,0.8203c-0.3281-2.0762-0.6846-3.8271-1.0664-5.25
		c-0.3848-1.4199-0.9023-3.2246-1.5586-5.4141c0.874-0.3281,1.748-0.5996,2.625-0.8203
		C289.2085,596.5957,289.6753,598.3438,290.1675,600.3125z M300.9136,588.1719c-1.3125-0.9844-2.5176-2.1865-3.6094-3.6094
		c-1.0947-1.4199-2.1895-3.2246-3.2812-5.4141c-0.877,1.751-1.6689,3.2559-2.3789,4.5117
		c-0.7129,1.2588-1.6689,2.7637-2.8711,4.5117H300.9136z M295.6636,598.5078c0.2178,1.4229,0.4922,3.2275,0.8203,5.4141
		l-2.625,0.6562c-0.4385-2.4043-0.7666-4.2373-0.9844-5.4961c-0.2207-1.2559-0.4922-2.707-0.8203-4.3477
		c0.9844-0.2178,1.9688-0.3818,2.9531-0.4922L295.6636,598.5078z"/>
	<path fill="#4B5666" d="M156.2104,631.3535v7.3828h2.4609c1.6406,0,3.3887-0.0537,5.25-0.1641v2.9531
		c-1.8613-0.1074-3.5557-0.1641-5.0859-0.1641h-2.625v16.8984c0,1.8584,0.0537,3.5527,0.1641,5.0859h-3.2812
		c0.1074-1.751,0.1641-3.4453,0.1641-5.0859v-10.6641c-1.6406,3.0635-4.1016,6.5625-7.3828,10.5
		c-0.5488-0.7637-1.4229-1.5303-2.625-2.2969c2.4043-2.2969,4.5117-4.9473,6.3164-7.957c1.8047-3.0068,2.8145-5.168,3.0352-6.4805
		h-2.9531c-2.4072,0-4.1582,0.0566-5.25,0.1641v-2.9531c1.2021,0.1104,2.9531,0.1641,5.25,0.1641h3.6094v-6.8906
		c-1.4229,0.2207-3.666,0.4922-6.7266,0.8203c-0.2207-1.0918-0.5488-2.0762-0.9844-2.9531c2.0762-0.1074,4.7012-0.3818,7.875-0.8203
		c3.1709-0.4355,5.8496-1.0918,8.0391-1.9688c0.2178,1.2051,0.71,2.4072,1.4766,3.6094
		C161.9526,630.5332,159.7095,630.8076,156.2104,631.3535z M156.7026,645.9551c0.6562-0.4355,1.4766-1.0918,2.4609-1.9688
		c2.0762,2.2969,3.8271,4.6504,5.25,7.0547c-1.0947,0.6562-2.0254,1.3691-2.7891,2.1328
		C160.2017,650.4414,158.561,648.0342,156.7026,645.9551z M179.8354,638.2441v16.8984c0,1.9688,0.0537,3.5557,0.1641,4.7578h-3.2812
		v-3.9375h-7.875v4.2656h-3.1172c0.1074-2.5146,0.1641-4.0449,0.1641-4.5938v-17.3906c0-1.8584-0.0566-3.8809-0.1641-6.0703h14.2734
		C179.8892,634.3633,179.8354,636.3857,179.8354,638.2441z M176.7183,653.3379v-18.375h-7.875v18.375H176.7183z"/>
	<path fill="#4B5666" d="M215.437,642.1816v3.4453c-1.5332,0.3281-2.9277,0.8486-4.1836,1.5586
		c-1.2588,0.7129-2.707,1.4512-4.3477,2.2148v1.4766h10.3359c1.3125,0,3.0068-0.0537,5.0859-0.1641v3.2812
		c-2.1895-0.1074-3.8838-0.1641-5.0859-0.1641h-10.3359v6.7266c0,1.5303-0.6025,2.4863-1.8047,2.8711
		c-1.2051,0.3818-3.1738,0.6816-5.9062,0.9023c-0.3281-1.2051-0.877-2.4072-1.6406-3.6094h4.4297
		c1.0918,0,1.6406-0.6025,1.6406-1.8047v-5.0859h-11.3203c-1.751,0-3.7197,0.0566-5.9062,0.1641v-3.2812
		c2.2969,0.1104,4.209,0.1641,5.7422,0.1641h11.4844c0-0.874-0.1104-1.8584-0.3281-2.9531l5.9062-2.9531h-9.0234
		c-2.0791,0-4.4297,0.0566-7.0547,0.1641v-3.1172c2.4043,0.1104,4.7012,0.1641,6.8906,0.1641H215.437z M212.9761,634.7988h9.0234
		c-0.1104,0.9844-0.1641,2.1328-0.1641,3.4453s0.0537,2.5713,0.1641,3.7734h-3.4453v-4.4297h-28.3828v4.5938h-3.4453
		c0.1074-1.3125,0.1641-2.625,0.1641-3.9375s-0.0566-2.4609-0.1641-3.4453h22.8047c0.874-1.5303,1.7764-3.1426,2.707-4.8398
		c0.9277-1.6943,1.666-3.3633,2.2148-5.0039c1.748,0.9844,3.1172,1.6973,4.1016,2.1328
		C216.3647,629.6055,214.5063,632.1738,212.9761,634.7988z M196.7339,631.6816c-1.2051,0.877-2.1328,1.6973-2.7891,2.4609
		c-1.4229-2.0762-3.0635-3.8809-4.9219-5.4141c1.2021-0.874,2.0762-1.584,2.625-2.1328
		C193.6167,628.2363,195.311,629.9336,196.7339,631.6816z M206.9058,631.1895c-0.9844,0.7666-2.0254,1.4766-3.1172,2.1328
		c-0.877-1.748-2.1895-3.7168-3.9375-5.9062c1.0918-0.7637,2.0762-1.4199,2.9531-1.9688
		C204.8804,628.0723,206.2495,629.9873,206.9058,631.1895z"/>
	<path fill="#4B5666" d="M253.3354,649.5645c-6.2344,2.2969-12.7432,5.1426-19.5234,8.5312
		c-0.5488-1.3125-1.3125-2.5684-2.2969-3.7734c1.4199-0.3281,4.2373-1.2559,8.4492-2.7891c4.209-1.5303,8.5566-3.335,13.043-5.4141
		C253.0073,647.3242,253.1147,648.4727,253.3354,649.5645z M241.8511,631.3535c-3.1738,0-6.1807,0.0566-9.0234,0.1641v-3.2812
		c3.6094,0.1104,6.3418,0.1641,8.2031,0.1641h20.5078c-0.2207,1.5332-0.3848,3.8838-0.4922,7.0547l-0.6562,21.8203
		c-0.2207,2.9531-1.0947,4.7012-2.625,5.25c-1.5332,0.5459-4.0479,0.9277-7.5469,1.1484c-0.3281-1.3125-0.9307-2.625-1.8047-3.9375
		c3.1709,0.2178,5.3574,0.1895,6.5625-0.082c1.2021-0.2715,1.9121-1.2842,2.1328-3.0352l0.6562-25.2656H241.8511z
		 M247.7573,641.3613c-0.4385,0.6562-1.2051,1.6973-2.2969,3.1172c-1.9688-1.8584-5.3604-4.209-10.1719-7.0547
		c0.7637-0.9844,1.4199-1.9121,1.9688-2.7891C241.9585,637.3701,245.4604,639.6133,247.7573,641.3613z"/>
</g>
<path fill="#4B5666" d="M601.2812,88.3311c-9.9111,0-22.7549,5.8418-25.2822,15.6758l-0.002-0.002v0.002
	c-2.5273-9.834-15.3711-15.6758-25.2803-15.6758c-19.543,0-35.3936,15.1689-35.3936,35.3936
	c0,23.7969,14.0713,38.3584,29.4102,50.1758c9.2012,7.0898,29.6221,23.1357,31.2383,23.1357c0.0098,0,0.0176-0.002,0.0254-0.002
	s0.0176,0.002,0.0254,0.002c1.6172,0,22.0391-16.0459,31.2402-23.1357c15.3379-11.8174,29.4121-26.3789,29.4121-50.1758
	C636.6748,103.5,620.8242,88.3311,601.2812,88.3311z M536.9883,104.3398c-6.1104,4.5195-9.6162,11.585-9.6162,19.3848
	c0,1.2871-1.041,2.3301-2.3281,2.3301s-2.3301-1.043-2.3301-2.3301c0-9.293,4.1924-17.7227,11.5039-23.1299
	c1.0332-0.7656,2.4902-0.5469,3.2568,0.4873C538.2402,102.1162,538.0205,103.5762,536.9883,104.3398z"/>
<path fill-rule="evenodd" clip-rule="evenodd" fill="#4B5666" d="M244.1167,518.4824c0,14.9453-8.2681,27.9512-20.4751,34.7139
	c0,0-1.4834,0.8496-3.417,1.1836c-1.8804,0.3242-3.2686,0.3857-3.2686,0.3857h-12.5103h-12.5083c0,0-1.3901-0.0615-3.271-0.3857
	c-1.9331-0.334-3.4165-1.1836-3.4165-1.1836c-12.207-6.7627-20.4751-19.7686-20.4751-34.7139
	c0-16.502,10.0776-30.6465,24.4126-36.625v-22.5342c-1.9492,0-3.5293-1.5801-3.5293-3.5273v-6.207
	c0-1.9492,1.5801-3.5283,3.5293-3.5283h30.5166c1.9492,0,3.5298,1.5791,3.5298,3.5283v6.207c0,1.9473-1.5806,3.5273-3.5298,3.5273
	v22.5342C234.0391,487.8359,244.1167,501.9805,244.1167,518.4824z M214.6543,448.458h-20.4155
	c-1.2866,0-2.3296,1.0439-2.3296,2.3301c0,1.2871,1.043,2.3291,2.3296,2.3291h20.4155c1.2866,0,2.3306-1.042,2.3306-2.3291
	C216.9849,449.502,215.9409,448.458,214.6543,448.458z M216.9092,488.5605c-2.7051-1.1279-4.4683-3.7725-4.4683-6.7031v-22.5342
	h-15.9902v22.5342c0,2.9307-1.7622,5.5752-4.4678,6.7031c-12.1147,5.0537-19.9453,16.7998-19.9453,29.9219
	c0,11.7744,6.4092,22.6406,16.7266,28.3584c0.1572,0.0791,0.6587,0.2988,1.1396,0.3828c1.0723,0.1846,1.9355,0.2559,2.2476,0.2783
	h12.2944h12.2974c0.2939-0.0205,1.1636-0.0918,2.2471-0.2793c0.481-0.083,0.979-0.3027,1.1372-0.3818
	c10.3169-5.7178,16.7266-16.584,16.7266-28.3584C236.854,505.3604,229.0254,493.6143,216.9092,488.5605z M232.1948,518.4824
	c0,10.0059-5.4043,19.2441-14.124,24.1709c-0.6709,0.1104-1.2261,0.167-1.5117,0.1895h-24.2319
	c-0.2642-0.0215-0.8242-0.0771-1.5029-0.1895c-8.7207-4.9258-14.1289-14.165-14.1289-24.1709c0-3.5225,0.6699-6.8936,1.873-9.998
	h51.7563C231.5283,511.5889,232.1948,514.96,232.1948,518.4824z M196.0107,534.2666c-5.9766-3.7871-9.6782-10.4834-9.6782-17.5488
	c0-1.2871-1.0425-2.3291-2.3296-2.3291c-1.2856,0-2.3301,1.042-2.3301,2.3291c0,8.7676,4.6533,17.0723,12.1426,21.6699
	l0.4751,0.2764l0.6968,0.0752c0.0674,0.0059,0.1348,0.0088,0.2026,0.0088c1.1914,0,2.1646-0.9199,2.2695-2.1318
	C197.5488,535.5859,196.9238,534.6523,196.0107,534.2666z"/>
<path fill="#4B5666" d="M618.3379,831.3232h-84.6797c-1.9414,0-3.5186,1.5752-3.5186,3.5166l0.0039,32.6309
	c0,0.0029,0.002,0.0078,0.002,0.0117c0,9.8008,0,19.6309,0,22.917c0,7.2842,2.458,17.7812,11.8701,28.3242
	c13.4854,15.1035,33.9863,21.3076,33.9863,21.3076s20.501-6.2041,33.9863-21.3076c9.4121-10.543,11.8701-21.04,11.8701-28.3242
	c0-3.2861,0-13.1162,0-22.917c0-0.0039,0.002-0.0088,0.002-0.0117l-0.0049-32.6309
	C621.8555,832.8984,620.2793,831.3232,618.3379,831.3232z M551.249,914.3662c-0.4443,0.3955-0.999,0.5898-1.5498,0.5898
	c-0.6416,0-1.2793-0.2627-1.7393-0.7783c-9.2373-10.3447-10.6162-20.126-10.6162-25.0361c0-1.2861,1.042-2.3301,2.3281-2.3301
	c1.2871,0,2.3311,1.0439,2.3311,2.3301c0,4.2461,1.2246,12.7412,9.4326,21.9346C552.292,912.0352,552.207,913.5078,551.249,914.3662
	z M614.5967,867.3564c-0.001,0.041-0.001,0.084-0.001,0.126v22.917c0,4.5781-1.3037,13.7168-10.0244,23.4863
	c-9.5215,10.665-23.334,16.5176-28.5693,18.4619l-0.0039-93.7617h38.5947L614.5967,867.3564z"/>
<path fill-rule="evenodd" clip-rule="evenodd" fill="#4B5666" d="M1011.5254,487.6035c-0.1602,0-0.3301-0.0117-0.5098-0.0381
	l-6.7881-0.9492l-0.001,49.5664c0,1.9404-1.5312,3.9492-3.4014,4.4658l-49.8701,13.7334c-0.9346,0.2568-2.1689,0.3877-3.4014,0.3877
	c-1.2344,0-2.4658-0.1309-3.4023-0.3877l-49.8672-13.7334c-1.873-0.5166-3.4023-2.5254-3.4023-4.4658l0.001-49.5664l-6.791,0.9492
	c-0.1787,0.0264-0.3477,0.0381-0.5078,0.0381c-1.5664,0-2.2471-1.1543-1.5117-2.7529l9.543-20.7812
	c0.8105-1.7627,3.002-3.6299,4.875-4.1445l49.8682-13.7363c0.3125-0.0859,0.6025-0.1279,0.8672-0.1279
	c0.1182,0,0.2236,0.0176,0.3291,0.0342c0.1064-0.0166,0.2109-0.0342,0.3281-0.0342c0.2656,0,0.5557,0.042,0.8672,0.1279
	l49.8691,13.7363c1.8721,0.5146,4.0654,2.3818,4.876,4.1445l9.543,20.7812
	C1013.7734,486.4492,1013.0928,487.6035,1011.5254,487.6035z M898.4482,530.5283c0,1.2861,1.043,2.3281,2.3291,2.3281
	c1.2871,0,2.3291-1.042,2.3291-2.3281v-22.2285c0-1.2871-1.042-2.3291-2.3291-2.3291c-1.2861,0-2.3291,1.042-2.3291,2.3291V530.5283
	z M897.7256,464.416c-0.5508,0.1533-1.6387,1.0801-1.8779,1.5977l-7.4609,16.2461l46.6182-6.5381
	c0.2393-0.0791,0.6523-0.4346,0.7666-0.6572l7.0557-23.0732L897.7256,464.416z M947.9473,478.5869l-0.3926-1.2852v68.8408
	c0.8145,0,1.3506-0.0938,1.4736-0.126l47.9365-13.2021v-39.8848l-38.5527-5.4092
	C953.7344,486.8652,949.332,483.1074,947.9473,478.5869z M999.2617,466.0137c-0.2393-0.5176-1.3281-1.4443-1.8789-1.5977
	l-45.1016-12.4248l7.0566,23.0732c0.1133,0.2227,0.5273,0.5781,0.7666,0.6572l46.6172,6.5381L999.2617,466.0137z"/>
</svg>
