<?xml version="1.0" encoding="utf-8"?>
<!-- Generator: Adobe Illustrator 15.0.0, SVG Export Plug-In . SVG Version: 6.00 Build 0)  -->
<!DOCTYPE svg PUBLIC "-//W3C//DTD SVG 1.1//EN" "http://www.w3.org/Graphics/SVG/1.1/DTD/svg11.dtd">
<svg version="1.1" id="Layer_1" xmlns="http://www.w3.org/2000/svg" xmlns:xlink="http://www.w3.org/1999/xlink" x="0px" y="0px"
	 width="1152px" height="1152.001px" viewBox="0 0 1152 1152.001" enable-background="new 0 0 1152 1152.001" xml:space="preserve">
<circle fill="#4B5666" cx="576" cy="576" r="576"/>
<g>
	<path fill="#FBD35C" d="M188.2964,188.29c214.2964-214.2959,561.1108-214.293,775.4106,0.0078L576.0049,575.999L188.2964,188.29z"
		/>
</g>
<g>
	<path fill="#A4D970" d="M963.71,188.293c214.2979,214.2979,214.293,561.1104-0.0068,775.4092L576.002,576.001L963.71,188.293z"/>
</g>
<g>
	<path fill="#9EBEED" d="M963.7031,963.709c-214.2959,214.2988-561.1104,214.293-775.4102-0.0068L575.9951,576.001L963.7031,963.709
		z"/>
</g>
<g>
	<path fill="#FA7977" d="M188.2896,963.707c-214.2959-214.2979-214.2925-561.1104,0.0068-775.4092L575.999,575.999L188.2896,963.707
		z"/>
</g>
<circle fill="#4B5666" cx="576" cy="576" r="194.6777"/>
<g>
	<path fill="#FFFFFF" d="M466.7227,560.9141l-15.0771-39.3945h-0.2432c0.2842,3.1211,0.4258,6.8301,0.4258,11.127v28.2676h-4.7725
		v-44.4395h7.7822l14.0732,36.6582h0.2432l14.1953-36.6582h7.7207v44.4395h-5.167v-28.6328c0-3.2832,0.1416-6.8496,0.4258-10.6992
		h-0.2432l-15.1992,39.332H466.7227z"/>
	<path fill="#FFFFFF" d="M541.833,538.6328c0,7.1133-1.7988,12.707-5.3955,16.7793c-3.5977,4.0742-8.5977,6.1113-15.001,6.1113
		c-6.5459,0-11.5967-2.002-15.1533-6.0039c-3.5557-4.002-5.334-9.6523-5.334-16.9473c0-7.2344,1.7832-12.8418,5.3496-16.8242
		s8.6328-5.9727,15.1982-5.9727c6.3838,0,11.3682,2.0273,14.9551,6.0801S541.833,531.5,541.833,538.6328z M506.4209,538.6328
		c0,6.0195,1.2812,10.584,3.8447,13.6953c2.5635,3.1094,6.2871,4.666,11.1709,4.666c4.9238,0,8.6426-1.5508,11.1553-4.6523
		c2.5127-3.0996,3.7695-7.6699,3.7695-13.709c0-5.9766-1.252-10.5117-3.7539-13.6016c-2.5029-3.0898-6.2061-4.6348-11.1104-4.6348
		c-4.9238,0-8.668,1.5547-11.2314,4.666C507.7021,528.1719,506.4209,532.6973,506.4209,538.6328z"/>
	<path fill="#FFFFFF" d="M587.2148,538.2695c0,7.3359-1.9912,12.9434-5.9736,16.8242c-3.9814,3.8809-9.7109,5.8203-17.1885,5.8203
		h-12.3115v-44.4395h13.6182c6.9102,0,12.2803,1.9141,16.1104,5.7441S587.2148,531.3984,587.2148,538.2695z M581.7432,538.4512
		c0-5.7949-1.4541-10.1621-4.3623-13.1016c-2.9082-2.9375-7.2295-4.4062-12.9639-4.4062h-7.5078v35.502h6.292
		c6.1602,0,10.791-1.5137,13.8916-4.543S581.7432,544.3887,581.7432,538.4512z"/>
	<path fill="#FFFFFF" d="M621.8975,560.9141H597.124v-44.4395h24.7734v4.5898H602.292v14.3164h18.4199v4.5605H602.292v16.3535
		h19.6055V560.9141z"/>
	<path fill="#FFFFFF" d="M636.9141,542.4336v18.4805h-5.168v-44.4395h12.1895c5.4512,0,9.4785,1.043,12.083,3.1309
		c2.6035,2.0879,3.9053,5.2285,3.9053,9.4238c0,5.877-2.9785,9.8477-8.9365,11.9141l12.0674,19.9707h-6.1094l-10.7607-18.4805
		H636.9141z M636.9141,537.9961h7.082c3.6475,0,6.3232-0.7246,8.0254-2.1738s2.5527-3.623,2.5527-6.5195
		c0-2.9395-0.8662-5.0566-2.5986-6.3535s-4.5137-1.9453-8.3438-1.9453h-6.7178V537.9961z"/>
	<path fill="#FFFFFF" d="M704.9424,560.9141h-5.8975l-24.2871-37.2969h-0.2432c0.3242,4.377,0.4863,8.3906,0.4863,12.0371v25.2598
		h-4.7725v-44.4395h5.8369l24.2256,37.1445h0.2432c-0.041-0.5469-0.1318-2.3047-0.2734-5.2734s-0.1924-5.0918-0.1514-6.3691v-25.502
		h4.833V560.9141z"/>
	<path fill="#FFFFFF" d="M525.54,635.6172l-5.5322-14.1348h-17.8125l-5.4707,14.1348h-5.2285l17.5693-44.6211h4.3467
		l17.4785,44.6211H525.54z M518.3975,616.832l-5.168-13.7695c-0.668-1.7422-1.3574-3.8809-2.0664-6.4141
		c-0.4463,1.9453-1.085,4.084-1.915,6.4141l-5.2285,13.7695H518.3975z"/>
	<path fill="#FFFFFF" d="M556.5459,612.334h15.1064v21.6113c-2.3506,0.75-4.7412,1.3184-7.1729,1.7031
		c-2.4326,0.3848-5.249,0.5781-8.4512,0.5781c-6.7275,0-11.9658-2.002-15.7148-6.0039s-5.623-9.6113-5.623-16.8242
		c0-4.6211,0.9268-8.668,2.7812-12.1445c1.8545-3.4746,4.5234-6.1289,8.0098-7.9629c3.4844-1.834,7.5684-2.752,12.249-2.752
		c4.7422,0,9.1602,0.8711,13.2539,2.6152l-2.0068,4.5586c-4.0117-1.7031-7.8721-2.5527-11.5811-2.5527
		c-5.4102,0-9.6357,1.6113-12.6758,4.832c-3.0391,3.2227-4.5586,7.6914-4.5586,13.4062c0,5.998,1.4629,10.5469,4.3916,13.6465
		c2.9287,3.1016,7.2295,4.6523,12.9033,4.6523c3.0801,0,6.0898-0.3555,9.0283-1.0645v-13.6797h-9.9395V612.334z"/>
	<path fill="#FFFFFF" d="M582.3213,635.6172v-44.4395h5.168v44.4395H582.3213z"/>
	<path fill="#FFFFFF" d="M599.6777,635.6172v-44.4395h5.168v39.7598h19.6055v4.6797H599.6777z"/>
	<path fill="#FFFFFF" d="M656.7627,635.6172h-24.7734v-44.4395h24.7734v4.5898h-19.6055v14.3164h18.4199v4.5605h-18.4199v16.3535
		h19.6055V635.6172z"/>
</g>
<g>
	<path fill="#4B5666" d="M389.4502,251.6055h-4.9219v-13.5146h-13.8228v13.5146h-4.9014V221.623h4.9014v12.2637h13.8228V221.623
		h4.9219V251.6055z"/>
	<path fill="#4B5666" d="M411.0244,251.6055l-0.9639-3.1582h-0.1641c-1.0938,1.3809-2.1943,2.3213-3.3018,2.8203
		c-1.1074,0.498-2.5293,0.748-4.2656,0.748c-2.2285,0-3.9688-0.6016-5.2188-1.8047c-1.252-1.2031-1.877-2.9053-1.877-5.1064
		c0-2.3379,0.8682-4.1016,2.6045-5.291s4.3818-1.8389,7.9365-1.9482l3.917-0.123v-1.21c0-1.4492-0.3389-2.5322-1.0146-3.251
		c-0.6777-0.7168-1.7266-1.0762-3.1484-1.0762c-1.1621,0-2.2764,0.1709-3.3428,0.5127s-2.0918,0.7451-3.0762,1.21l-1.5586-3.4453
		c1.2305-0.6426,2.5771-1.1309,4.04-1.4668c1.4629-0.334,2.8438-0.502,4.1426-0.502c2.8848,0,5.0615,0.6289,6.5312,1.8867
		s2.2051,3.2334,2.2051,5.9268v15.2783H411.0244z M403.8467,248.3242c1.75,0,3.1543-0.4883,4.2148-1.4668
		c1.0586-0.9766,1.5889-2.3477,1.5889-4.1113v-1.9688l-2.9121,0.123c-2.2695,0.082-3.9209,0.4609-4.9521,1.1387
		c-1.0332,0.6758-1.5488,1.7119-1.5488,3.1064c0,1.0117,0.3008,1.7939,0.9023,2.3486
		C401.7412,248.0469,402.6436,248.3242,403.8467,248.3242z"/>
	<path fill="#4B5666" d="M436.3516,251.6055h-17.2061v-2.9736l11.4639-16.0166h-10.7666v-3.6914h16.1807v3.3633l-11.2178,15.627
		h11.5459V251.6055z"/>
	<path fill="#4B5666" d="M459.791,252.0156c-2.8027,0-4.9971-1.0283-6.583-3.0859s-2.3789-4.9326-2.3789-8.624
		s0.8066-6.5791,2.4199-8.665c1.6133-2.084,3.835-3.127,6.665-3.127c1.4219,0,2.6963,0.2637,3.8252,0.7891
		c1.127,0.5273,2.1357,1.3916,3.0244,2.5947h0.1641l0.5332-2.9736h3.999v32.7715h-4.8398v-9.6182
		c0-0.6016,0.0273-1.2373,0.082-1.9072s0.1025-1.1826,0.1436-1.5381h-0.2666C465.1572,250.8877,462.8945,252.0156,459.791,252.0156z
		 M461.165,248.1602c2.0234,0,3.4766-0.584,4.3574-1.7539c0.8828-1.168,1.3232-2.9355,1.3232-5.3008v-0.7588
		c0-2.8027-0.4551-4.8193-1.3643-6.0498s-2.375-1.8457-4.3984-1.8457c-1.7227,0-3.0352,0.6836-3.9375,2.0508
		s-1.3535,3.3291-1.3535,5.8857C455.792,245.5693,457.583,248.1602,461.165,248.1602z"/>
	<path fill="#4B5666" d="M494.3467,251.6055l-0.6768-2.9736h-0.2461c-0.6699,1.0527-1.624,1.8799-2.8604,2.4814
		c-1.2383,0.6016-2.6494,0.9023-4.2354,0.9023c-2.748,0-4.7988-0.6836-6.1523-2.0508s-2.0303-3.4385-2.0303-6.2139v-14.8271h4.8604
		v13.9863c0,1.7363,0.3555,3.0391,1.0664,3.9062c0.7109,0.8691,1.8252,1.3027,3.3428,1.3027c2.0234,0,3.5098-0.6055,4.4609-1.8145
		c0.9492-1.2109,1.4248-3.2373,1.4248-6.0811v-11.2998h4.8398v22.6816H494.3467z"/>
	<path fill="#4B5666" d="M514.916,252.0156c-3.5273,0-6.2861-1.0283-8.2744-3.0859c-1.9902-2.0576-2.9844-4.8916-2.9844-8.501
		c0-3.7051,0.9229-6.6172,2.7686-8.7363s4.3818-3.1787,7.6084-3.1787c2.9941,0,5.3594,0.9092,7.0957,2.7275
		s2.6045,4.3203,2.6045,7.5059v2.6045h-15.1143c0.0684,2.2012,0.6631,3.8936,1.7842,5.0762s2.7002,1.7734,4.7373,1.7734
		c1.3398,0,2.5869-0.126,3.7422-0.3789s2.3965-0.6738,3.7227-1.2617v3.917c-1.1758,0.5605-2.3652,0.957-3.5684,1.1895
		S516.4609,252.0156,514.916,252.0156z M514.0342,232.1641c-1.5312,0-2.7578,0.4854-3.6816,1.4561
		c-0.9219,0.9707-1.4727,2.3857-1.6504,4.2451h10.2949c-0.0273-1.873-0.4785-3.291-1.3535-4.2559
		C516.7686,232.6465,515.5654,232.1641,514.0342,232.1641z"/>
	<path fill="#4B5666" d="M544.9395,251.6055h-4.8193v-31.9102h4.8193V251.6055z"/>
	<path fill="#4B5666" d="M566.0225,251.6055l-0.9639-3.1582h-0.1641c-1.0938,1.3809-2.1943,2.3213-3.3018,2.8203
		c-1.1074,0.498-2.5293,0.748-4.2656,0.748c-2.2285,0-3.9688-0.6016-5.2188-1.8047c-1.252-1.2031-1.877-2.9053-1.877-5.1064
		c0-2.3379,0.8682-4.1016,2.6045-5.291s4.3818-1.8389,7.9365-1.9482l3.917-0.123v-1.21c0-1.4492-0.3389-2.5322-1.0146-3.251
		c-0.6777-0.7168-1.7266-1.0762-3.1484-1.0762c-1.1621,0-2.2764,0.1709-3.3428,0.5127s-2.0918,0.7451-3.0762,1.21l-1.5586-3.4453
		c1.2305-0.6426,2.5771-1.1309,4.04-1.4668c1.4629-0.334,2.8438-0.502,4.1426-0.502c2.8848,0,5.0615,0.6289,6.5312,1.8867
		s2.2051,3.2334,2.2051,5.9268v15.2783H566.0225z M558.8447,248.3242c1.75,0,3.1543-0.4883,4.2148-1.4668
		c1.0586-0.9766,1.5889-2.3477,1.5889-4.1113v-1.9688l-2.9121,0.123c-2.2695,0.082-3.9209,0.4609-4.9521,1.1387
		c-1.0332,0.6758-1.5488,1.7119-1.5488,3.1064c0,1.0117,0.3008,1.7939,0.9023,2.3486
		C556.7393,248.0469,557.6416,248.3242,558.8447,248.3242z"/>
	<path fill="#4B5666" d="M591.4316,245.1455c0,2.2148-0.8066,3.9141-2.4199,5.0967s-3.9238,1.7734-6.9316,1.7734
		c-3.0215,0-5.4482-0.458-7.2803-1.374v-4.1631c2.666,1.2305,5.1475,1.8457,7.4443,1.8457c2.9668,0,4.4502-0.8955,4.4502-2.6865
		c0-0.5742-0.1641-1.0527-0.4922-1.4355s-0.8682-0.7793-1.6201-1.1895s-1.7979-0.875-3.1377-1.3945
		c-2.6113-1.0117-4.3789-2.0234-5.3008-3.0352c-0.9238-1.0117-1.3848-2.3242-1.3848-3.9375c0-1.9414,0.7822-3.4482,2.3477-4.5225
		c1.5654-1.0723,3.6953-1.6094,6.3887-1.6094c2.666,0,5.1885,0.54,7.5674,1.6201l-1.5586,3.6299
		c-2.4473-1.0117-4.5049-1.5176-6.1729-1.5176c-2.543,0-3.8145,0.7246-3.8145,2.1738c0,0.7109,0.3311,1.3125,0.9941,1.8047
		s2.1094,1.1689,4.3379,2.0303c1.873,0.7246,3.2334,1.3877,4.0811,1.9893s1.4766,1.2959,1.8867,2.082
		S591.4316,244.0518,591.4316,245.1455z"/>
	<path fill="#4B5666" d="M619.0547,252.0156c-2.8711,0-5.0996-1.0322-6.6855-3.0967h-0.2871
		c0.1914,1.9141,0.2871,3.0762,0.2871,3.4863v9.29h-4.8193v-32.7715h3.8965c0.1094,0.4238,0.335,1.4355,0.6768,3.0352h0.2461
		c1.5039-2.2969,3.7598-3.4453,6.7676-3.4453c2.8301,0,5.0342,1.0254,6.6143,3.0762c1.5781,2.0508,2.3682,4.9287,2.3682,8.6338
		s-0.8037,6.5967-2.4092,8.6748C624.1025,250.9766,621.8848,252.0156,619.0547,252.0156z M617.8857,232.4512
		c-1.9141,0-3.3125,0.5605-4.1934,1.6816c-0.8828,1.1211-1.3232,2.9121-1.3232,5.373v0.7178c0,2.7617,0.4375,4.7617,1.3125,5.999
		s2.3037,1.8555,4.2861,1.8555c1.668,0,2.9531-0.6836,3.8555-2.0508s1.3535-3.3154,1.3535-5.8447
		c0-2.543-0.4482-4.4668-1.3438-5.7725S619.6221,232.4512,617.8857,232.4512z"/>
	<path fill="#4B5666" d="M643.623,252.0156c-3.5273,0-6.2861-1.0283-8.2744-3.0859c-1.9902-2.0576-2.9844-4.8916-2.9844-8.501
		c0-3.7051,0.9229-6.6172,2.7686-8.7363s4.3818-3.1787,7.6084-3.1787c2.9941,0,5.3594,0.9092,7.0957,2.7275
		s2.6045,4.3203,2.6045,7.5059v2.6045h-15.1143c0.0684,2.2012,0.6631,3.8936,1.7842,5.0762s2.7002,1.7734,4.7373,1.7734
		c1.3398,0,2.5869-0.126,3.7422-0.3789s2.3965-0.6738,3.7227-1.2617v3.917c-1.1758,0.5605-2.3652,0.957-3.5684,1.1895
		S645.168,252.0156,643.623,252.0156z M642.7412,232.1641c-1.5312,0-2.7578,0.4854-3.6816,1.4561
		c-0.9219,0.9707-1.4727,2.3857-1.6504,4.2451h10.2949c-0.0273-1.873-0.4785-3.291-1.3535-4.2559
		C645.4756,232.6465,644.2725,232.1641,642.7412,232.1641z"/>
	<path fill="#4B5666" d="M669.4219,228.5137c0.9707,0,1.7705,0.0684,2.3994,0.2051l-0.4717,4.4912
		c-0.6836-0.1641-1.3945-0.2461-2.1328-0.2461c-1.9277,0-3.4902,0.6289-4.6865,1.8867s-1.7939,2.8916-1.7939,4.9014v11.8535h-4.8193
		v-22.6816h3.7734l0.6357,3.999h0.2461c0.752-1.3535,1.7334-2.4268,2.9424-3.2197
		C666.7256,228.9102,668.0273,228.5137,669.4219,228.5137z"/>
	<path fill="#4B5666" d="M691.2637,245.1455c0,2.2148-0.8066,3.9141-2.4199,5.0967s-3.9238,1.7734-6.9316,1.7734
		c-3.0215,0-5.4482-0.458-7.2803-1.374v-4.1631c2.666,1.2305,5.1475,1.8457,7.4443,1.8457c2.9668,0,4.4502-0.8955,4.4502-2.6865
		c0-0.5742-0.1641-1.0527-0.4922-1.4355s-0.8682-0.7793-1.6201-1.1895s-1.7979-0.875-3.1377-1.3945
		c-2.6113-1.0117-4.3789-2.0234-5.3008-3.0352c-0.9238-1.0117-1.3848-2.3242-1.3848-3.9375c0-1.9414,0.7822-3.4482,2.3477-4.5225
		c1.5654-1.0723,3.6953-1.6094,6.3887-1.6094c2.666,0,5.1885,0.54,7.5674,1.6201l-1.5586,3.6299
		c-2.4473-1.0117-4.5049-1.5176-6.1729-1.5176c-2.543,0-3.8145,0.7246-3.8145,2.1738c0,0.7109,0.3311,1.3125,0.9941,1.8047
		s2.1094,1.1689,4.3379,2.0303c1.873,0.7246,3.2334,1.3877,4.0811,1.9893s1.4766,1.2959,1.8867,2.082
		S691.2637,244.0518,691.2637,245.1455z"/>
	<path fill="#4B5666" d="M716.5898,240.2236c0,3.7051-0.9502,6.5967-2.8506,8.6748s-4.5459,3.1172-7.9365,3.1172
		c-2.1191,0-3.9922-0.4785-5.6191-1.4355s-2.8779-2.3311-3.7529-4.1221s-1.3125-3.8691-1.3125-6.2344
		c0-3.6777,0.9434-6.5488,2.8301-8.6133s4.5459-3.0967,7.9775-3.0967c3.2812,0,5.8789,1.0566,7.793,3.168
		C715.6328,233.7949,716.5898,236.6416,716.5898,240.2236z M700.0811,240.2236c0,5.2363,1.9346,7.8545,5.8037,7.8545
		c3.8281,0,5.7422-2.6182,5.7422-7.8545c0-5.1816-1.9277-7.7725-5.7832-7.7725c-2.0234,0-3.4902,0.6699-4.3994,2.0098
		S700.0811,237.7217,700.0811,240.2236z"/>
	<path fill="#4B5666" d="M742.082,251.6055h-4.8398v-13.9453c0-1.75-0.3525-3.0557-1.0557-3.917
		c-0.7051-0.8613-1.8223-1.292-3.3535-1.292c-2.0371,0-3.5273,0.6016-4.4707,1.8047s-1.415,3.2197-1.415,6.0498v11.2998h-4.8193
		v-22.6816h3.7734l0.6768,2.9736h0.2461c0.6836-1.0801,1.6543-1.9141,2.9121-2.502s2.6523-0.8818,4.1836-0.8818
		c5.4414,0,8.1621,2.7686,8.1621,8.3057V251.6055z"/>
	<path fill="#4B5666" d="M762.9795,251.6055l-0.9639-3.1582h-0.1641c-1.0938,1.3809-2.1943,2.3213-3.3018,2.8203
		c-1.1074,0.498-2.5293,0.748-4.2656,0.748c-2.2285,0-3.9688-0.6016-5.2188-1.8047c-1.252-1.2031-1.877-2.9053-1.877-5.1064
		c0-2.3379,0.8682-4.1016,2.6045-5.291s4.3818-1.8389,7.9365-1.9482l3.917-0.123v-1.21c0-1.4492-0.3389-2.5322-1.0146-3.251
		c-0.6777-0.7168-1.7266-1.0762-3.1484-1.0762c-1.1621,0-2.2764,0.1709-3.3428,0.5127s-2.0918,0.7451-3.0762,1.21l-1.5586-3.4453
		c1.2305-0.6426,2.5771-1.1309,4.04-1.4668c1.4629-0.334,2.8438-0.502,4.1426-0.502c2.8848,0,5.0615,0.6289,6.5312,1.8867
		s2.2051,3.2334,2.2051,5.9268v15.2783H762.9795z M755.8018,248.3242c1.75,0,3.1543-0.4883,4.2148-1.4668
		c1.0586-0.9766,1.5889-2.3477,1.5889-4.1113v-1.9688l-2.9121,0.123c-2.2695,0.082-3.9209,0.4609-4.9521,1.1387
		c-1.0332,0.6758-1.5488,1.7119-1.5488,3.1064c0,1.0117,0.3008,1.7939,0.9023,2.3486
		C753.6963,248.0469,754.5986,248.3242,755.8018,248.3242z"/>
	<path fill="#4B5666" d="M788.3887,245.1455c0,2.2148-0.8066,3.9141-2.4199,5.0967s-3.9238,1.7734-6.9316,1.7734
		c-3.0215,0-5.4482-0.458-7.2803-1.374v-4.1631c2.666,1.2305,5.1475,1.8457,7.4443,1.8457c2.9668,0,4.4502-0.8955,4.4502-2.6865
		c0-0.5742-0.1641-1.0527-0.4922-1.4355s-0.8682-0.7793-1.6201-1.1895s-1.7979-0.875-3.1377-1.3945
		c-2.6113-1.0117-4.3789-2.0234-5.3008-3.0352c-0.9238-1.0117-1.3848-2.3242-1.3848-3.9375c0-1.9414,0.7822-3.4482,2.3477-4.5225
		c1.5654-1.0723,3.6953-1.6094,6.3887-1.6094c2.666,0,5.1885,0.54,7.5674,1.6201l-1.5586,3.6299
		c-2.4473-1.0117-4.5049-1.5176-6.1729-1.5176c-2.543,0-3.8145,0.7246-3.8145,2.1738c0,0.7109,0.3311,1.3125,0.9941,1.8047
		s2.1094,1.1689,4.3379,2.0303c1.873,0.7246,3.2334,1.3877,4.0811,1.9893s1.4766,1.2959,1.8867,2.082
		S788.3887,244.0518,788.3887,245.1455z"/>
	<path fill="#4B5666" d="M458.0684,295.5459c0,2.2148-0.8066,3.9141-2.4199,5.0967s-3.9238,1.7734-6.9316,1.7734
		c-3.0215,0-5.4482-0.458-7.2803-1.374v-4.1631c2.666,1.2305,5.1475,1.8457,7.4443,1.8457c2.9668,0,4.4502-0.8955,4.4502-2.6865
		c0-0.5742-0.1641-1.0527-0.4922-1.4355s-0.8682-0.7793-1.6201-1.1895s-1.7979-0.875-3.1377-1.3945
		c-2.6113-1.0117-4.3789-2.0234-5.3008-3.0352c-0.9238-1.0117-1.3848-2.3242-1.3848-3.9375c0-1.9414,0.7822-3.4482,2.3477-4.5225
		c1.5654-1.0723,3.6953-1.6094,6.3887-1.6094c2.666,0,5.1885,0.54,7.5674,1.6201l-1.5586,3.6299
		c-2.4473-1.0117-4.5049-1.5176-6.1729-1.5176c-2.543,0-3.8145,0.7246-3.8145,2.1738c0,0.7109,0.3311,1.3125,0.9941,1.8047
		s2.1094,1.1689,4.3379,2.0303c1.873,0.7246,3.2334,1.3877,4.0811,1.9893s1.4766,1.2959,1.8867,2.082
		S458.0684,294.4521,458.0684,295.5459z"/>
	<path fill="#4B5666" d="M473.1826,302.416c-3.5273,0-6.2861-1.0283-8.2744-3.0859c-1.9902-2.0576-2.9844-4.8916-2.9844-8.501
		c0-3.7051,0.9229-6.6172,2.7686-8.7363s4.3818-3.1787,7.6084-3.1787c2.9941,0,5.3594,0.9092,7.0957,2.7275
		s2.6045,4.3203,2.6045,7.5059v2.6045h-15.1143c0.0684,2.2012,0.6631,3.8936,1.7842,5.0762s2.7002,1.7734,4.7373,1.7734
		c1.3398,0,2.5869-0.126,3.7422-0.3789s2.3965-0.6738,3.7227-1.2617v3.917c-1.1758,0.5605-2.3652,0.957-3.5684,1.1895
		S474.7275,302.416,473.1826,302.416z M472.3008,282.5645c-1.5312,0-2.7578,0.4854-3.6816,1.4561
		c-0.9219,0.9707-1.4727,2.3857-1.6504,4.2451h10.2949c-0.0273-1.873-0.4785-3.291-1.3535-4.2559
		C475.0352,283.0469,473.832,282.5645,472.3008,282.5645z"/>
	<path fill="#4B5666" d="M501.668,302.0059l-0.9639-3.1582H500.54c-1.0938,1.3809-2.1943,2.3213-3.3018,2.8203
		c-1.1074,0.498-2.5293,0.748-4.2656,0.748c-2.2285,0-3.9688-0.6016-5.2188-1.8047c-1.252-1.2031-1.877-2.9053-1.877-5.1064
		c0-2.3379,0.8682-4.1016,2.6045-5.291s4.3818-1.8389,7.9365-1.9482l3.917-0.123v-1.21c0-1.4492-0.3389-2.5322-1.0146-3.251
		c-0.6777-0.7168-1.7266-1.0762-3.1484-1.0762c-1.1621,0-2.2764,0.1709-3.3428,0.5127s-2.0918,0.7451-3.0762,1.21l-1.5586-3.4453
		c1.2305-0.6426,2.5771-1.1309,4.04-1.4668c1.4629-0.334,2.8438-0.502,4.1426-0.502c2.8848,0,5.0615,0.6289,6.5312,1.8867
		s2.2051,3.2334,2.2051,5.9268v15.2783H501.668z M494.4902,298.7246c1.75,0,3.1543-0.4883,4.2148-1.4668
		c1.0586-0.9766,1.5889-2.3477,1.5889-4.1113v-1.9688l-2.9121,0.123c-2.2695,0.082-3.9209,0.4609-4.9521,1.1387
		c-1.0332,0.6758-1.5488,1.7119-1.5488,3.1064c0,1.0117,0.3008,1.7939,0.9023,2.3486
		C492.3848,298.4473,493.2871,298.7246,494.4902,298.7246z"/>
	<path fill="#4B5666" d="M531.7939,302.0059h-4.8398v-13.9453c0-1.75-0.3525-3.0557-1.0557-3.917
		c-0.7051-0.8613-1.8223-1.292-3.3535-1.292c-2.0371,0-3.5273,0.6016-4.4707,1.8047s-1.415,3.2197-1.415,6.0498v11.2998h-4.8193
		v-22.6816h3.7734l0.6768,2.9736h0.2461c0.6836-1.0801,1.6543-1.9141,2.9121-2.502s2.6523-0.8818,4.1836-0.8818
		c5.4414,0,8.1621,2.7686,8.1621,8.3057V302.0059z"/>
	<path fill="#4B5666" d="M568.5645,279.3242v2.6455l-3.876,0.7178c0.3555,0.4785,0.6494,1.0664,0.8818,1.7637
		s0.3486,1.4355,0.3486,2.2148c0,2.3379-0.8066,4.1768-2.4199,5.5166s-3.835,2.0098-6.665,2.0098
		c-0.7246,0-1.3809-0.0547-1.9688-0.1641c-1.0391,0.6426-1.5586,1.3945-1.5586,2.2559c0,0.5195,0.2422,0.9092,0.7285,1.1689
		c0.4844,0.2598,1.377,0.3896,2.6758,0.3896h3.958c2.502,0,4.4023,0.5332,5.7012,1.5996s1.9482,2.6045,1.9482,4.6143
		c0,2.5703-1.0596,4.5527-3.1787,5.9473s-5.1816,2.0918-9.1875,2.0918c-3.0898,0-5.4482-0.5469-7.0752-1.6406
		s-2.4404-2.6523-2.4404-4.6758c0-1.3945,0.4404-2.5674,1.3232-3.5176c0.8809-0.9492,2.1152-1.6094,3.7012-1.9785
		c-0.6426-0.2734-1.1729-0.7139-1.5898-1.3223s-0.625-1.248-0.625-1.918c0-0.8477,0.2393-1.5654,0.7178-2.1533
		s1.1895-1.1689,2.1328-1.7432c-1.1758-0.5059-2.1299-1.3291-2.8604-2.4707c-0.7324-1.1416-1.0977-2.4785-1.0977-4.0098
		c0-2.4609,0.7754-4.3682,2.3281-5.7217c1.5508-1.3535,3.7627-2.0303,6.6338-2.0303c0.6426,0,1.3154,0.0449,2.0205,0.1328
		c0.7031,0.0898,1.2334,0.1816,1.5889,0.2773H568.5645z M550.7432,305.5332c0,1.0391,0.4678,1.8389,1.4053,2.3994
		c0.9355,0.5605,2.252,0.8408,3.9473,0.8408c2.625,0,4.5801-0.376,5.8652-1.1279s1.9277-1.75,1.9277-2.9941
		c0-0.9844-0.3525-1.6855-1.0566-2.1025s-2.0127-0.625-3.9268-0.625h-3.6504c-1.3809,0-2.4785,0.3242-3.292,0.9746
		C551.1494,303.5469,550.7432,304.4258,550.7432,305.5332z M552.8145,286.666c0,1.4219,0.3652,2.5156,1.0977,3.2812
		c0.7305,0.7656,1.7803,1.1484,3.1475,1.1484c2.7891,0,4.1836-1.4902,4.1836-4.4707c0-1.4766-0.3457-2.6152-1.0361-3.4141
		c-0.6904-0.8008-1.7393-1.2002-3.1475-1.2002c-1.3945,0-2.4502,0.3965-3.1689,1.1895
		C553.1738,283.9932,552.8145,285.1484,552.8145,286.666z"/>
	<path fill="#4B5666" d="M582.6738,302.416c-3.5273,0-6.2861-1.0283-8.2744-3.0859c-1.9902-2.0576-2.9844-4.8916-2.9844-8.501
		c0-3.7051,0.9229-6.6172,2.7686-8.7363s4.3818-3.1787,7.6084-3.1787c2.9941,0,5.3594,0.9092,7.0957,2.7275
		s2.6045,4.3203,2.6045,7.5059v2.6045h-15.1143c0.0684,2.2012,0.6631,3.8936,1.7842,5.0762s2.7002,1.7734,4.7373,1.7734
		c1.3398,0,2.5869-0.126,3.7422-0.3789s2.3965-0.6738,3.7227-1.2617v3.917c-1.1758,0.5605-2.3652,0.957-3.5684,1.1895
		S584.2188,302.416,582.6738,302.416z M581.792,282.5645c-1.5312,0-2.7578,0.4854-3.6816,1.4561
		c-0.9219,0.9707-1.4727,2.3857-1.6504,4.2451h10.2949c-0.0273-1.873-0.4785-3.291-1.3535-4.2559
		C584.5264,283.0469,583.3232,282.5645,581.792,282.5645z"/>
	<path fill="#4B5666" d="M616.9219,302.0059h-4.8398v-13.9453c0-1.75-0.3525-3.0557-1.0557-3.917
		c-0.7051-0.8613-1.8223-1.292-3.3535-1.292c-2.0371,0-3.5273,0.6016-4.4707,1.8047s-1.415,3.2197-1.415,6.0498v11.2998h-4.8193
		v-22.6816h3.7734l0.6768,2.9736h0.2461c0.6836-1.0801,1.6543-1.9141,2.9121-2.502s2.6523-0.8818,4.1836-0.8818
		c5.4414,0,8.1621,2.7686,8.1621,8.3057V302.0059z"/>
	<path fill="#4B5666" d="M623.3408,273.3154c0-0.8613,0.2363-1.5244,0.707-1.9893c0.4727-0.4648,1.1455-0.6973,2.0205-0.6973
		c0.8477,0,1.5068,0.2324,1.9795,0.6973c0.4707,0.4648,0.707,1.1279,0.707,1.9893c0,0.8203-0.2363,1.4658-0.707,1.9385
		c-0.4727,0.4707-1.1318,0.707-1.9795,0.707c-0.875,0-1.5479-0.2363-2.0205-0.707
		C623.5771,274.7812,623.3408,274.1357,623.3408,273.3154z M628.4473,302.0059h-4.8193v-22.6816h4.8193V302.0059z"/>
	<path fill="#4B5666" d="M649.5293,302.0059l-0.9639-3.1582h-0.1641c-1.0938,1.3809-2.1943,2.3213-3.3018,2.8203
		c-1.1074,0.498-2.5293,0.748-4.2656,0.748c-2.2285,0-3.9688-0.6016-5.2188-1.8047c-1.252-1.2031-1.877-2.9053-1.877-5.1064
		c0-2.3379,0.8682-4.1016,2.6045-5.291s4.3818-1.8389,7.9365-1.9482l3.917-0.123v-1.21c0-1.4492-0.3389-2.5322-1.0146-3.251
		c-0.6777-0.7168-1.7266-1.0762-3.1484-1.0762c-1.1621,0-2.2764,0.1709-3.3428,0.5127s-2.0918,0.7451-3.0762,1.21l-1.5586-3.4453
		c1.2305-0.6426,2.5771-1.1309,4.04-1.4668c1.4629-0.334,2.8438-0.502,4.1426-0.502c2.8848,0,5.0615,0.6289,6.5312,1.8867
		s2.2051,3.2334,2.2051,5.9268v15.2783H649.5293z M642.3516,298.7246c1.75,0,3.1543-0.4883,4.2148-1.4668
		c1.0586-0.9766,1.5889-2.3477,1.5889-4.1113v-1.9688l-2.9121,0.123c-2.2695,0.082-3.9209,0.4609-4.9521,1.1387
		c-1.0332,0.6758-1.5488,1.7119-1.5488,3.1064c0,1.0117,0.3008,1.7939,0.9023,2.3486
		C640.2461,298.4473,641.1484,298.7246,642.3516,298.7246z"/>
	<path fill="#4B5666" d="M664.5205,302.0059h-4.8193v-31.9102h4.8193V302.0059z"/>
	<path fill="#4B5666" d="M681.3164,302.416c-3.5273,0-6.2861-1.0283-8.2744-3.0859c-1.9902-2.0576-2.9844-4.8916-2.9844-8.501
		c0-3.7051,0.9229-6.6172,2.7686-8.7363s4.3818-3.1787,7.6084-3.1787c2.9941,0,5.3594,0.9092,7.0957,2.7275
		s2.6045,4.3203,2.6045,7.5059v2.6045h-15.1143c0.0684,2.2012,0.6631,3.8936,1.7842,5.0762s2.7002,1.7734,4.7373,1.7734
		c1.3398,0,2.5869-0.126,3.7422-0.3789s2.3965-0.6738,3.7227-1.2617v3.917c-1.1758,0.5605-2.3652,0.957-3.5684,1.1895
		S682.8613,302.416,681.3164,302.416z M680.4346,282.5645c-1.5312,0-2.7578,0.4854-3.6816,1.4561
		c-0.9219,0.9707-1.4727,2.3857-1.6504,4.2451h10.2949c-0.0273-1.873-0.4785-3.291-1.3535-4.2559
		C683.1689,283.0469,681.9658,282.5645,680.4346,282.5645z"/>
	<path fill="#4B5666" d="M710.8477,295.5459c0,2.2148-0.8066,3.9141-2.4199,5.0967s-3.9238,1.7734-6.9316,1.7734
		c-3.0215,0-5.4482-0.458-7.2803-1.374v-4.1631c2.666,1.2305,5.1475,1.8457,7.4443,1.8457c2.9668,0,4.4502-0.8955,4.4502-2.6865
		c0-0.5742-0.1641-1.0527-0.4922-1.4355s-0.8682-0.7793-1.6201-1.1895s-1.7979-0.875-3.1377-1.3945
		c-2.6113-1.0117-4.3789-2.0234-5.3008-3.0352c-0.9238-1.0117-1.3848-2.3242-1.3848-3.9375c0-1.9414,0.7822-3.4482,2.3477-4.5225
		c1.5654-1.0723,3.6953-1.6094,6.3887-1.6094c2.666,0,5.1885,0.54,7.5674,1.6201l-1.5586,3.6299
		c-2.4473-1.0117-4.5049-1.5176-6.1729-1.5176c-2.543,0-3.8145,0.7246-3.8145,2.1738c0,0.7109,0.3311,1.3125,0.9941,1.8047
		s2.1094,1.1689,4.3379,2.0303c1.873,0.7246,3.2334,1.3877,4.0811,1.9893s1.4766,1.2959,1.8867,2.082
		S710.8477,294.4521,710.8477,295.5459z"/>
</g>
<g>
	<path fill="#4B5666" d="M405.4355,994.7217h-4.9219V981.207h-13.8223v13.5146H381.79v-29.9824h4.9014v12.2637h13.8223v-12.2637
		h4.9219V994.7217z"/>
	<path fill="#4B5666" d="M427.0098,994.7217l-0.9639-3.1582h-0.1641c-1.0938,1.3809-2.1943,2.3213-3.3018,2.8203
		c-1.1074,0.498-2.5293,0.748-4.2656,0.748c-2.2285,0-3.9688-0.6016-5.2188-1.8047c-1.252-1.2031-1.877-2.9053-1.877-5.1064
		c0-2.3379,0.8682-4.1016,2.6045-5.291s4.3818-1.8389,7.9365-1.9482l3.917-0.123v-1.21c0-1.4492-0.3389-2.5322-1.0146-3.251
		c-0.6777-0.7168-1.7266-1.0762-3.1484-1.0762c-1.1621,0-2.2764,0.1709-3.3428,0.5127s-2.0918,0.7451-3.0762,1.21l-1.5586-3.4453
		c1.2305-0.6426,2.5771-1.1309,4.04-1.4668c1.4629-0.334,2.8438-0.502,4.1426-0.502c2.8848,0,5.0615,0.6289,6.5312,1.8867
		s2.2051,3.2334,2.2051,5.9268v15.2783H427.0098z M419.832,991.4404c1.75,0,3.1543-0.4883,4.2148-1.4668
		c1.0586-0.9766,1.5889-2.3477,1.5889-4.1113v-1.9688l-2.9121,0.123c-2.2695,0.082-3.9209,0.4609-4.9521,1.1387
		c-1.0332,0.6758-1.5488,1.7119-1.5488,3.1064c0,1.0117,0.3008,1.7939,0.9023,2.3486
		C417.7266,991.1631,418.6289,991.4404,419.832,991.4404z"/>
	<path fill="#4B5666" d="M452.3369,994.7217h-17.2061v-2.9736l11.4639-16.0166h-10.7666V972.04h16.1807v3.3633l-11.2178,15.627
		h11.5459V994.7217z"/>
	<path fill="#4B5666" d="M475.8184,995.1318c-2.8301,0-5.0381-1.0254-6.624-3.0762s-2.3789-4.9287-2.3789-8.6338
		c0-3.7188,0.8027-6.6143,2.4102-8.6846c1.6055-2.0723,3.8311-3.1074,6.6748-3.1074c2.9805,0,5.25,1.1006,6.8086,3.3018h0.2461
		c-0.2324-1.627-0.3486-2.9121-0.3486-3.8555v-8.2646h4.8398v31.9102h-3.7734l-0.8408-2.9736h-0.2256
		C481.0615,994.0039,478.7988,995.1318,475.8184,995.1318z M477.1104,991.2354c1.9824,0,3.4248-0.5566,4.3271-1.6719
		c0.9023-1.1133,1.3672-2.9219,1.3945-5.4238v-0.6768c0-2.8574-0.4648-4.8877-1.3945-6.0908s-2.3857-1.8047-4.3682-1.8047
		c-1.6953,0-3.001,0.6875-3.917,2.0605c-0.916,1.375-1.374,3.333-1.374,5.876c0,2.5156,0.4443,4.4336,1.333,5.7529
		S475.333,991.2354,477.1104,991.2354z"/>
	<path fill="#4B5666" d="M504.2422,995.1318c-3.5273,0-6.2861-1.0283-8.2744-3.0859c-1.9902-2.0576-2.9844-4.8916-2.9844-8.501
		c0-3.7051,0.9229-6.6172,2.7686-8.7363s4.3818-3.1787,7.6084-3.1787c2.9941,0,5.3594,0.9092,7.0957,2.7275
		s2.6045,4.3203,2.6045,7.5059v2.6045h-15.1143c0.0684,2.2012,0.6631,3.8936,1.7842,5.0762s2.7002,1.7734,4.7373,1.7734
		c1.3398,0,2.5869-0.126,3.7422-0.3789s2.3965-0.6738,3.7227-1.2617v3.917c-1.1758,0.5605-2.3652,0.957-3.5684,1.1895
		S505.7871,995.1318,504.2422,995.1318z M503.3604,975.2803c-1.5312,0-2.7578,0.4854-3.6816,1.4561
		c-0.9219,0.9707-1.4727,2.3857-1.6504,4.2451h10.2949c-0.0273-1.873-0.4785-3.291-1.3535-4.2559
		C506.0947,975.7627,504.8916,975.2803,503.3604,975.2803z"/>
	<path fill="#4B5666" d="M534.2656,994.7217h-4.8193v-31.9102h4.8193V994.7217z"/>
	<path fill="#4B5666" d="M555.3477,994.7217l-0.9639-3.1582h-0.1641c-1.0938,1.3809-2.1943,2.3213-3.3018,2.8203
		c-1.1074,0.498-2.5293,0.748-4.2656,0.748c-2.2285,0-3.9688-0.6016-5.2188-1.8047c-1.252-1.2031-1.877-2.9053-1.877-5.1064
		c0-2.3379,0.8682-4.1016,2.6045-5.291s4.3818-1.8389,7.9365-1.9482l3.917-0.123v-1.21c0-1.4492-0.3389-2.5322-1.0146-3.251
		c-0.6777-0.7168-1.7266-1.0762-3.1484-1.0762c-1.1621,0-2.2764,0.1709-3.3428,0.5127s-2.0918,0.7451-3.0762,1.21l-1.5586-3.4453
		c1.2305-0.6426,2.5771-1.1309,4.04-1.4668c1.4629-0.334,2.8438-0.502,4.1426-0.502c2.8848,0,5.0615,0.6289,6.5312,1.8867
		s2.2051,3.2334,2.2051,5.9268v15.2783H555.3477z M548.1699,991.4404c1.75,0,3.1543-0.4883,4.2148-1.4668
		c1.0586-0.9766,1.5889-2.3477,1.5889-4.1113v-1.9688l-2.9121,0.123c-2.2695,0.082-3.9209,0.4609-4.9521,1.1387
		c-1.0332,0.6758-1.5488,1.7119-1.5488,3.1064c0,1.0117,0.3008,1.7939,0.9023,2.3486
		C546.0645,991.1631,546.9668,991.4404,548.1699,991.4404z"/>
	<path fill="#4B5666" d="M591.667,988.2617c0,2.2148-0.8066,3.9141-2.4199,5.0967s-3.9238,1.7734-6.9316,1.7734
		c-3.0215,0-5.4482-0.458-7.2803-1.374v-4.1631c2.666,1.2305,5.1475,1.8457,7.4443,1.8457c2.9668,0,4.4502-0.8955,4.4502-2.6865
		c0-0.5742-0.1641-1.0527-0.4922-1.4355s-0.8682-0.7793-1.6201-1.1895s-1.7979-0.875-3.1377-1.3945
		c-2.6113-1.0117-4.3789-2.0234-5.3008-3.0352c-0.9238-1.0117-1.3848-2.3242-1.3848-3.9375c0-1.9414,0.7822-3.4482,2.3477-4.5225
		c1.5654-1.0723,3.6953-1.6094,6.3887-1.6094c2.666,0,5.1885,0.54,7.5674,1.6201l-1.5586,3.6299
		c-2.4473-1.0117-4.5049-1.5176-6.1729-1.5176c-2.543,0-3.8145,0.7246-3.8145,2.1738c0,0.7109,0.3311,1.3125,0.9941,1.8047
		s2.1094,1.1689,4.3379,2.0303c1.873,0.7246,3.2334,1.3877,4.0811,1.9893s1.4766,1.2959,1.8867,2.082
		S591.667,987.168,591.667,988.2617z"/>
	<path fill="#4B5666" d="M606.7812,995.1318c-3.5273,0-6.2861-1.0283-8.2744-3.0859c-1.9902-2.0576-2.9844-4.8916-2.9844-8.501
		c0-3.7051,0.9229-6.6172,2.7686-8.7363s4.3818-3.1787,7.6084-3.1787c2.9941,0,5.3594,0.9092,7.0957,2.7275
		s2.6045,4.3203,2.6045,7.5059v2.6045h-15.1143c0.0684,2.2012,0.6631,3.8936,1.7842,5.0762s2.7002,1.7734,4.7373,1.7734
		c1.3398,0,2.5869-0.126,3.7422-0.3789s2.3965-0.6738,3.7227-1.2617v3.917c-1.1758,0.5605-2.3652,0.957-3.5684,1.1895
		S608.3262,995.1318,606.7812,995.1318z M605.8994,975.2803c-1.5312,0-2.7578,0.4854-3.6816,1.4561
		c-0.9219,0.9707-1.4727,2.3857-1.6504,4.2451h10.2949c-0.0273-1.873-0.4785-3.291-1.3535-4.2559
		C608.6338,975.7627,607.4307,975.2803,605.8994,975.2803z"/>
	<path fill="#4B5666" d="M640.2295,972.04v2.6455l-3.876,0.7178c0.3555,0.4785,0.6494,1.0664,0.8818,1.7637
		s0.3486,1.4355,0.3486,2.2148c0,2.3379-0.8066,4.1768-2.4199,5.5166s-3.835,2.0098-6.665,2.0098
		c-0.7246,0-1.3809-0.0547-1.9688-0.1641c-1.0391,0.6426-1.5586,1.3945-1.5586,2.2559c0,0.5195,0.2422,0.9092,0.7285,1.1689
		c0.4844,0.2598,1.377,0.3896,2.6758,0.3896h3.958c2.502,0,4.4023,0.5332,5.7012,1.5996s1.9482,2.6045,1.9482,4.6143
		c0,2.5703-1.0596,4.5527-3.1787,5.9473s-5.1816,2.0918-9.1875,2.0918c-3.0898,0-5.4482-0.5469-7.0752-1.6406
		s-2.4404-2.6523-2.4404-4.6758c0-1.3945,0.4404-2.5674,1.3232-3.5176c0.8809-0.9492,2.1152-1.6094,3.7012-1.9785
		c-0.6426-0.2734-1.1729-0.7139-1.5898-1.3223s-0.625-1.248-0.625-1.918c0-0.8477,0.2393-1.5654,0.7178-2.1533
		s1.1895-1.1689,2.1328-1.7432c-1.1758-0.5059-2.1299-1.3291-2.8604-2.4707c-0.7324-1.1416-1.0977-2.4785-1.0977-4.0098
		c0-2.4609,0.7754-4.3682,2.3281-5.7217c1.5508-1.3535,3.7627-2.0303,6.6338-2.0303c0.6426,0,1.3154,0.0449,2.0205,0.1328
		c0.7031,0.0898,1.2334,0.1816,1.5889,0.2773H640.2295z M622.4082,998.249c0,1.0391,0.4678,1.8389,1.4053,2.3994
		c0.9355,0.5605,2.252,0.8408,3.9473,0.8408c2.625,0,4.5801-0.376,5.8652-1.1279s1.9277-1.75,1.9277-2.9941
		c0-0.9844-0.3525-1.6855-1.0566-2.1025s-2.0127-0.625-3.9268-0.625h-3.6504c-1.3809,0-2.4785,0.3242-3.292,0.9746
		C622.8145,996.2627,622.4082,997.1416,622.4082,998.249z M624.4795,979.3818c0,1.4219,0.3652,2.5156,1.0977,3.2812
		c0.7305,0.7656,1.7803,1.1484,3.1475,1.1484c2.7891,0,4.1836-1.4902,4.1836-4.4707c0-1.4766-0.3457-2.6152-1.0361-3.4141
		c-0.6904-0.8008-1.7393-1.2002-3.1475-1.2002c-1.3945,0-2.4502,0.3965-3.1689,1.1895
		C624.8389,976.709,624.4795,977.8643,624.4795,979.3818z"/>
	<path fill="#4B5666" d="M660.4297,994.7217l-0.6768-2.9736h-0.2461c-0.6699,1.0527-1.624,1.8799-2.8604,2.4814
		c-1.2383,0.6016-2.6494,0.9023-4.2354,0.9023c-2.748,0-4.7988-0.6836-6.1523-2.0508s-2.0303-3.4385-2.0303-6.2139V972.04h4.8604
		v13.9863c0,1.7363,0.3555,3.0391,1.0664,3.9062c0.7109,0.8691,1.8252,1.3027,3.3428,1.3027c2.0234,0,3.5098-0.6055,4.4609-1.8145
		c0.9492-1.2109,1.4248-3.2373,1.4248-6.0811V972.04h4.8398v22.6816H660.4297z"/>
	<path fill="#4B5666" d="M682.5986,971.6299c0.9707,0,1.7705,0.0684,2.3994,0.2051l-0.4717,4.4912
		c-0.6836-0.1641-1.3945-0.2461-2.1328-0.2461c-1.9277,0-3.4902,0.6289-4.6865,1.8867s-1.7939,2.8916-1.7939,4.9014v11.8535h-4.8193
		V972.04h3.7734l0.6357,3.999h0.2461c0.752-1.3535,1.7334-2.4268,2.9424-3.2197
		C679.9023,972.0264,681.2041,971.6299,682.5986,971.6299z"/>
	<path fill="#4B5666" d="M688.915,966.0312c0-0.8613,0.2363-1.5244,0.707-1.9893c0.4727-0.4648,1.1455-0.6973,2.0205-0.6973
		c0.8477,0,1.5068,0.2324,1.9795,0.6973c0.4707,0.4648,0.707,1.1279,0.707,1.9893c0,0.8203-0.2363,1.4658-0.707,1.9385
		c-0.4727,0.4707-1.1318,0.707-1.9795,0.707c-0.875,0-1.5479-0.2363-2.0205-0.707
		C689.1514,967.4971,688.915,966.8516,688.915,966.0312z M694.0215,994.7217h-4.8193V972.04h4.8193V994.7217z"/>
	<path fill="#4B5666" d="M708.5615,995.1318c-2.8301,0-5.0381-1.0254-6.624-3.0762s-2.3789-4.9287-2.3789-8.6338
		c0-3.7188,0.8027-6.6143,2.4102-8.6846c1.6055-2.0723,3.8311-3.1074,6.6748-3.1074c2.9805,0,5.25,1.1006,6.8086,3.3018h0.2461
		c-0.2324-1.627-0.3486-2.9121-0.3486-3.8555v-8.2646h4.8398v31.9102h-3.7734l-0.8408-2.9736h-0.2256
		C713.8047,994.0039,711.542,995.1318,708.5615,995.1318z M709.8535,991.2354c1.9824,0,3.4248-0.5566,4.3271-1.6719
		c0.9023-1.1133,1.3672-2.9219,1.3945-5.4238v-0.6768c0-2.8574-0.4648-4.8877-1.3945-6.0908s-2.3857-1.8047-4.3682-1.8047
		c-1.6953,0-3.001,0.6875-3.917,2.0605c-0.916,1.375-1.374,3.333-1.374,5.876c0,2.5156,0.4443,4.4336,1.333,5.7529
		S708.0762,991.2354,709.8535,991.2354z"/>
	<path fill="#4B5666" d="M741.2715,994.7217l-0.9639-3.1582h-0.1641c-1.0938,1.3809-2.1943,2.3213-3.3018,2.8203
		c-1.1074,0.498-2.5293,0.748-4.2656,0.748c-2.2285,0-3.9688-0.6016-5.2188-1.8047c-1.252-1.2031-1.877-2.9053-1.877-5.1064
		c0-2.3379,0.8682-4.1016,2.6045-5.291s4.3818-1.8389,7.9365-1.9482l3.917-0.123v-1.21c0-1.4492-0.3389-2.5322-1.0146-3.251
		c-0.6777-0.7168-1.7266-1.0762-3.1484-1.0762c-1.1621,0-2.2764,0.1709-3.3428,0.5127s-2.0918,0.7451-3.0762,1.21l-1.5586-3.4453
		c1.2305-0.6426,2.5771-1.1309,4.04-1.4668c1.4629-0.334,2.8438-0.502,4.1426-0.502c2.8848,0,5.0615,0.6289,6.5312,1.8867
		s2.2051,3.2334,2.2051,5.9268v15.2783H741.2715z M734.0938,991.4404c1.75,0,3.1543-0.4883,4.2148-1.4668
		c1.0586-0.9766,1.5889-2.3477,1.5889-4.1113v-1.9688l-2.9121,0.123c-2.2695,0.082-3.9209,0.4609-4.9521,1.1387
		c-1.0332,0.6758-1.5488,1.7119-1.5488,3.1064c0,1.0117,0.3008,1.7939,0.9023,2.3486
		C731.9883,991.1631,732.8906,991.4404,734.0938,991.4404z"/>
	<path fill="#4B5666" d="M759.0928,995.1318c-2.8301,0-5.0381-1.0254-6.624-3.0762s-2.3789-4.9287-2.3789-8.6338
		c0-3.7188,0.8027-6.6143,2.4102-8.6846c1.6055-2.0723,3.8311-3.1074,6.6748-3.1074c2.9805,0,5.25,1.1006,6.8086,3.3018h0.2461
		c-0.2324-1.627-0.3486-2.9121-0.3486-3.8555v-8.2646h4.8398v31.9102h-3.7734l-0.8408-2.9736h-0.2256
		C764.3359,994.0039,762.0732,995.1318,759.0928,995.1318z M760.3848,991.2354c1.9824,0,3.4248-0.5566,4.3271-1.6719
		c0.9023-1.1133,1.3672-2.9219,1.3945-5.4238v-0.6768c0-2.8574-0.4648-4.8877-1.3945-6.0908s-2.3857-1.8047-4.3682-1.8047
		c-1.6953,0-3.001,0.6875-3.917,2.0605c-0.916,1.375-1.374,3.333-1.374,5.876c0,2.5156,0.4443,4.4336,1.333,5.7529
		S758.6074,991.2354,760.3848,991.2354z"/>
	<path fill="#4B5666" d="M429.4502,1045.1221l-0.6768-2.9736h-0.2461c-0.6699,1.0527-1.624,1.8799-2.8604,2.4814
		c-1.2383,0.6016-2.6494,0.9023-4.2354,0.9023c-2.748,0-4.7988-0.6836-6.1523-2.0508s-2.0303-3.4385-2.0303-6.2139v-14.8271h4.8604
		v13.9863c0,1.7363,0.3555,3.0391,1.0664,3.9062c0.7109,0.8691,1.8252,1.3027,3.3428,1.3027c2.0234,0,3.5098-0.6055,4.4609-1.8145
		c0.9492-1.2109,1.4248-3.2373,1.4248-6.0811v-11.2998h4.8398v22.6816H429.4502z"/>
	<path fill="#4B5666" d="M460.0684,1045.1221h-4.8398v-13.9453c0-1.75-0.3525-3.0557-1.0557-3.917
		c-0.7051-0.8613-1.8223-1.292-3.3535-1.292c-2.0371,0-3.5273,0.6016-4.4707,1.8047s-1.415,3.2197-1.415,6.0498v11.2998h-4.8193
		v-22.6816h3.7734l0.6768,2.9736h0.2461c0.6836-1.0801,1.6543-1.9141,2.9121-2.502s2.6523-0.8818,4.1836-0.8818
		c5.4414,0,8.1621,2.7686,8.1621,8.3057V1045.1221z"/>
	<path fill="#4B5666" d="M489.1895,1045.5322c-2.8711,0-5.0996-1.0322-6.6855-3.0967h-0.2871
		c0.1914,1.9141,0.2871,3.0762,0.2871,3.4863v9.29h-4.8193v-32.7715h3.8965c0.1094,0.4238,0.335,1.4355,0.6768,3.0352h0.2461
		c1.5039-2.2969,3.7598-3.4453,6.7676-3.4453c2.8301,0,5.0342,1.0254,6.6143,3.0762c1.5781,2.0508,2.3682,4.9287,2.3682,8.6338
		s-0.8037,6.5967-2.4092,8.6748C494.2373,1044.4932,492.0195,1045.5322,489.1895,1045.5322z M488.0205,1025.9678
		c-1.9141,0-3.3125,0.5605-4.1934,1.6816c-0.8828,1.1211-1.3232,2.9121-1.3232,5.373v0.7178c0,2.7617,0.4375,4.7617,1.3125,5.999
		s2.3037,1.8555,4.2861,1.8555c1.668,0,2.9531-0.6836,3.8555-2.0508s1.3535-3.3154,1.3535-5.8447
		c0-2.543-0.4482-4.4668-1.3438-5.7725S489.7568,1025.9678,488.0205,1025.9678z"/>
	<path fill="#4B5666" d="M515.3574,1022.0303c0.9707,0,1.7705,0.0684,2.3994,0.2051l-0.4717,4.4912
		c-0.6836-0.1641-1.3945-0.2461-2.1328-0.2461c-1.9277,0-3.4902,0.6289-4.6865,1.8867s-1.7939,2.8916-1.7939,4.9014v11.8535h-4.8193
		v-22.6816h3.7734l0.6357,3.999h0.2461c0.752-1.3535,1.7334-2.4268,2.9424-3.2197
		C512.6611,1022.4268,513.9629,1022.0303,515.3574,1022.0303z"/>
	<path fill="#4B5666" d="M531.8662,1045.5322c-3.5273,0-6.2861-1.0283-8.2744-3.0859c-1.9902-2.0576-2.9844-4.8916-2.9844-8.501
		c0-3.7051,0.9229-6.6172,2.7686-8.7363s4.3818-3.1787,7.6084-3.1787c2.9941,0,5.3594,0.9092,7.0957,2.7275
		s2.6045,4.3203,2.6045,7.5059v2.6045h-15.1143c0.0684,2.2012,0.6631,3.8936,1.7842,5.0762s2.7002,1.7734,4.7373,1.7734
		c1.3398,0,2.5869-0.126,3.7422-0.3789s2.3965-0.6738,3.7227-1.2617v3.917c-1.1758,0.5605-2.3652,0.957-3.5684,1.1895
		S533.4111,1045.5322,531.8662,1045.5322z M530.9844,1025.6807c-1.5312,0-2.7578,0.4854-3.6816,1.4561
		c-0.9219,0.9707-1.4727,2.3857-1.6504,4.2451h10.2949c-0.0273-1.873-0.4785-3.291-1.3535-4.2559
		C533.7188,1026.1631,532.5156,1025.6807,530.9844,1025.6807z"/>
	<path fill="#4B5666" d="M557.665,1022.0303c0.9707,0,1.7705,0.0684,2.3994,0.2051l-0.4717,4.4912
		c-0.6836-0.1641-1.3945-0.2461-2.1328-0.2461c-1.9277,0-3.4902,0.6289-4.6865,1.8867s-1.7939,2.8916-1.7939,4.9014v11.8535h-4.8193
		v-22.6816h3.7734l0.6357,3.999h0.2461c0.752-1.3535,1.7334-2.4268,2.9424-3.2197
		C554.9688,1022.4268,556.2705,1022.0303,557.665,1022.0303z"/>
	<path fill="#4B5666" d="M575.7734,1022.0303c0.9707,0,1.7705,0.0684,2.3994,0.2051l-0.4717,4.4912
		c-0.6836-0.1641-1.3945-0.2461-2.1328-0.2461c-1.9277,0-3.4902,0.6289-4.6865,1.8867s-1.7939,2.8916-1.7939,4.9014v11.8535h-4.8193
		v-22.6816h3.7734l0.6357,3.999h0.2461c0.752-1.3535,1.7334-2.4268,2.9424-3.2197
		C573.0771,1022.4268,574.3789,1022.0303,575.7734,1022.0303z"/>
	<path fill="#4B5666" d="M592.2822,1045.5322c-3.5273,0-6.2861-1.0283-8.2744-3.0859c-1.9902-2.0576-2.9844-4.8916-2.9844-8.501
		c0-3.7051,0.9229-6.6172,2.7686-8.7363s4.3818-3.1787,7.6084-3.1787c2.9941,0,5.3594,0.9092,7.0957,2.7275
		s2.6045,4.3203,2.6045,7.5059v2.6045h-15.1143c0.0684,2.2012,0.6631,3.8936,1.7842,5.0762s2.7002,1.7734,4.7373,1.7734
		c1.3398,0,2.5869-0.126,3.7422-0.3789s2.3965-0.6738,3.7227-1.2617v3.917c-1.1758,0.5605-2.3652,0.957-3.5684,1.1895
		S593.8271,1045.5322,592.2822,1045.5322z M591.4004,1025.6807c-1.5312,0-2.7578,0.4854-3.6816,1.4561
		c-0.9219,0.9707-1.4727,2.3857-1.6504,4.2451h10.2949c-0.0273-1.873-0.4785-3.291-1.3535-4.2559
		C594.1348,1026.1631,592.9316,1025.6807,591.4004,1025.6807z"/>
	<path fill="#4B5666" d="M614.1846,1045.5322c-2.8027,0-4.9971-1.0283-6.583-3.0859s-2.3789-4.9326-2.3789-8.624
		s0.8066-6.5791,2.4199-8.665c1.6133-2.084,3.835-3.127,6.665-3.127c1.4219,0,2.6963,0.2637,3.8252,0.7891
		c1.127,0.5273,2.1357,1.3916,3.0244,2.5947h0.1641l0.5332-2.9736h3.999v32.7715h-4.8398v-9.6182
		c0-0.6016,0.0273-1.2373,0.082-1.9072s0.1025-1.1826,0.1436-1.5381h-0.2666
		C619.5508,1044.4043,617.2881,1045.5322,614.1846,1045.5322z M615.5586,1041.6768c2.0234,0,3.4766-0.584,4.3574-1.7539
		c0.8828-1.168,1.3232-2.9355,1.3232-5.3008v-0.7588c0-2.8027-0.4551-4.8193-1.3643-6.0498s-2.375-1.8457-4.3984-1.8457
		c-1.7227,0-3.0352,0.6836-3.9375,2.0508s-1.3535,3.3291-1.3535,5.8857C610.1855,1039.0859,611.9766,1041.6768,615.5586,1041.6768z"
		/>
	<path fill="#4B5666" d="M648.7402,1045.1221l-0.6768-2.9736h-0.2461c-0.6699,1.0527-1.624,1.8799-2.8604,2.4814
		c-1.2383,0.6016-2.6494,0.9023-4.2354,0.9023c-2.748,0-4.7988-0.6836-6.1523-2.0508s-2.0303-3.4385-2.0303-6.2139v-14.8271h4.8604
		v13.9863c0,1.7363,0.3555,3.0391,1.0664,3.9062c0.7109,0.8691,1.8252,1.3027,3.3428,1.3027c2.0234,0,3.5098-0.6055,4.4609-1.8145
		c0.9492-1.2109,1.4248-3.2373,1.4248-6.0811v-11.2998h4.8398v22.6816H648.7402z"/>
	<path fill="#4B5666" d="M659.1172,1016.4316c0-0.8613,0.2363-1.5244,0.707-1.9893c0.4727-0.4648,1.1455-0.6973,2.0205-0.6973
		c0.8477,0,1.5068,0.2324,1.9795,0.6973c0.4707,0.4648,0.707,1.1279,0.707,1.9893c0,0.8203-0.2363,1.4658-0.707,1.9385
		c-0.4727,0.4707-1.1318,0.707-1.9795,0.707c-0.875,0-1.5479-0.2363-2.0205-0.707
		C659.3535,1017.8975,659.1172,1017.252,659.1172,1016.4316z M664.2236,1045.1221h-4.8193v-22.6816h4.8193V1045.1221z"/>
	<path fill="#4B5666" d="M686.3516,1038.6621c0,2.2148-0.8066,3.9141-2.4199,5.0967s-3.9238,1.7734-6.9316,1.7734
		c-3.0215,0-5.4482-0.458-7.2803-1.374v-4.1631c2.666,1.2305,5.1475,1.8457,7.4443,1.8457c2.9668,0,4.4502-0.8955,4.4502-2.6865
		c0-0.5742-0.1641-1.0527-0.4922-1.4355s-0.8682-0.7793-1.6201-1.1895s-1.7979-0.875-3.1377-1.3945
		c-2.6113-1.0117-4.3789-2.0234-5.3008-3.0352c-0.9238-1.0117-1.3848-2.3242-1.3848-3.9375c0-1.9414,0.7822-3.4482,2.3477-4.5225
		c1.5654-1.0723,3.6953-1.6094,6.3887-1.6094c2.666,0,5.1885,0.54,7.5674,1.6201l-1.5586,3.6299
		c-2.4473-1.0117-4.5049-1.5176-6.1729-1.5176c-2.543,0-3.8145,0.7246-3.8145,2.1738c0,0.7109,0.3311,1.3125,0.9941,1.8047
		s2.1094,1.1689,4.3379,2.0303c1.873,0.7246,3.2334,1.3877,4.0811,1.9893s1.4766,1.2959,1.8867,2.082
		S686.3516,1037.5684,686.3516,1038.6621z"/>
	<path fill="#4B5666" d="M691.2734,1016.4316c0-0.8613,0.2363-1.5244,0.707-1.9893c0.4727-0.4648,1.1455-0.6973,2.0205-0.6973
		c0.8477,0,1.5068,0.2324,1.9795,0.6973c0.4707,0.4648,0.707,1.1279,0.707,1.9893c0,0.8203-0.2363,1.4658-0.707,1.9385
		c-0.4727,0.4707-1.1318,0.707-1.9795,0.707c-0.875,0-1.5479-0.2363-2.0205-0.707
		C691.5098,1017.8975,691.2734,1017.252,691.2734,1016.4316z M696.3799,1045.1221h-4.8193v-22.6816h4.8193V1045.1221z"/>
	<path fill="#4B5666" d="M711.7197,1041.6357c1.1758,0,2.3516-0.1846,3.5273-0.5537v3.6299
		c-0.5332,0.2324-1.2207,0.4268-2.0605,0.584c-0.8418,0.1572-1.7129,0.2363-2.6152,0.2363c-4.5664,0-6.8496-2.4062-6.8496-7.2188
		v-12.2227h-3.0967v-2.1328l3.3223-1.7637l1.6406-4.7988h2.9736v5.0449h6.46v3.6504h-6.46v12.1406
		c0,1.1621,0.29,2.0195,0.8711,2.5742C710.0137,1041.3584,710.7764,1041.6357,711.7197,1041.6357z"/>
	<path fill="#4B5666" d="M739.8975,1033.7402c0,3.7051-0.9502,6.5967-2.8506,8.6748s-4.5459,3.1172-7.9365,3.1172
		c-2.1191,0-3.9922-0.4785-5.6191-1.4355s-2.8779-2.3311-3.7529-4.1221s-1.3125-3.8691-1.3125-6.2344
		c0-3.6777,0.9434-6.5488,2.8301-8.6133s4.5459-3.0967,7.9775-3.0967c3.2812,0,5.8789,1.0566,7.793,3.168
		C738.9404,1027.3115,739.8975,1030.1582,739.8975,1033.7402z M723.3887,1033.7402c0,5.2363,1.9346,7.8545,5.8037,7.8545
		c3.8281,0,5.7422-2.6182,5.7422-7.8545c0-5.1816-1.9277-7.7725-5.7832-7.7725c-2.0234,0-3.4902,0.6699-4.3994,2.0098
		S723.3887,1031.2383,723.3887,1033.7402z"/>
</g>
<g>
	<path fill="#4B5666" d="M833.542,609.3359h-16.9609v-29.9824h16.9609v4.1426h-12.0586v8.1621h11.2988v4.1016h-11.2988v9.4131
		h12.0586V609.3359z"/>
	<path fill="#4B5666" d="M859.4639,609.3359h-4.8398v-13.9453c0-1.75-0.3535-3.0557-1.0566-3.917
		c-0.7051-0.8613-1.8223-1.292-3.3535-1.292c-2.0371,0-3.5273,0.6016-4.4707,1.8047s-1.4141,3.2197-1.4141,6.0498v11.2998h-4.8203
		v-22.6816h3.7734l0.6777,2.9736h0.2461c0.6836-1.0801,1.6543-1.9141,2.9121-2.502s2.6523-0.8818,4.1836-0.8818
		c5.4414,0,8.1621,2.7686,8.1621,8.3057V609.3359z"/>
	<path fill="#4B5666" d="M874.6182,605.8496c1.1758,0,2.3516-0.1846,3.5273-0.5537v3.6299
		c-0.5332,0.2324-1.2207,0.4268-2.0605,0.584c-0.8418,0.1572-1.7129,0.2363-2.6152,0.2363c-4.5664,0-6.8496-2.4062-6.8496-7.2188
		v-12.2227h-3.0957v-2.1328l3.3223-1.7637l1.6406-4.7988h2.9727v5.0449h6.4609v3.6504H871.46v12.1406
		c0,1.1621,0.291,2.0195,0.8711,2.5742C872.9131,605.5723,873.6748,605.8496,874.6182,605.8496z"/>
	<path fill="#4B5666" d="M894.1826,586.2441c0.9707,0,1.7715,0.0684,2.4004,0.2051l-0.4727,4.4912
		c-0.6836-0.1641-1.3945-0.2461-2.1328-0.2461c-1.9277,0-3.4902,0.6289-4.6855,1.8867c-1.1973,1.2578-1.7949,2.8916-1.7949,4.9014
		v11.8535h-4.8184v-22.6816h3.7734l0.6348,3.999h0.2461c0.752-1.3535,1.7344-2.4268,2.9434-3.2197
		C891.4873,586.6406,892.7881,586.2441,894.1826,586.2441z"/>
	<path fill="#4B5666" d="M910.6924,609.7461c-3.5273,0-6.2871-1.0283-8.2754-3.0859c-1.9902-2.0576-2.9844-4.8916-2.9844-8.501
		c0-3.7051,0.9238-6.6172,2.7695-8.7363s4.3809-3.1787,7.6074-3.1787c2.9941,0,5.3594,0.9092,7.0957,2.7275
		s2.6055,4.3203,2.6055,7.5059v2.6045h-15.1152c0.0684,2.2012,0.6641,3.8936,1.7852,5.0762s2.6992,1.7734,4.7363,1.7734
		c1.3398,0,2.5879-0.126,3.7422-0.3789c1.1562-0.2529,2.3965-0.6738,3.7227-1.2617v3.917c-1.1758,0.5605-2.3652,0.957-3.5684,1.1895
		S912.2373,609.7461,910.6924,609.7461z M909.8096,589.8945c-1.5312,0-2.7578,0.4854-3.6816,1.4561
		c-0.9219,0.9707-1.4727,2.3857-1.6504,4.2451h10.2949c-0.0273-1.873-0.4785-3.291-1.3535-4.2559
		C912.5439,590.377,911.3408,589.8945,909.8096,589.8945z"/>
	<path fill="#4B5666" d="M944.1396,586.6543v2.6455l-3.875,0.7178c0.3555,0.4785,0.6484,1.0664,0.8809,1.7637
		s0.3496,1.4355,0.3496,2.2148c0,2.3379-0.8066,4.1768-2.4199,5.5166s-3.8359,2.0098-6.666,2.0098
		c-0.7246,0-1.3809-0.0547-1.9688-0.1641c-1.0391,0.6426-1.5586,1.3945-1.5586,2.2559c0,0.5195,0.2422,0.9092,0.7285,1.1689
		c0.4844,0.2598,1.377,0.3896,2.6758,0.3896h3.959c2.502,0,4.4023,0.5332,5.7012,1.5996s1.9473,2.6045,1.9473,4.6143
		c0,2.5703-1.0586,4.5527-3.1777,5.9473s-5.1816,2.0918-9.1875,2.0918c-3.0898,0-5.4492-0.5469-7.0762-1.6406
		s-2.4395-2.6523-2.4395-4.6758c0-1.3945,0.4395-2.5674,1.3223-3.5176c0.8809-0.9492,2.1152-1.6094,3.7012-1.9785
		c-0.6426-0.2734-1.1719-0.7139-1.5898-1.3223c-0.416-0.6084-0.625-1.248-0.625-1.918c0-0.8477,0.2402-1.5654,0.7188-2.1533
		s1.1895-1.1689,2.1328-1.7432c-1.1758-0.5059-2.1309-1.3291-2.8613-2.4707c-0.7324-1.1416-1.0977-2.4785-1.0977-4.0098
		c0-2.4609,0.7754-4.3682,2.3281-5.7217c1.5508-1.3535,3.7637-2.0303,6.6348-2.0303c0.6426,0,1.3145,0.0449,2.0195,0.1328
		c0.7031,0.0898,1.2344,0.1816,1.5898,0.2773H944.1396z M926.3193,612.8633c0,1.0391,0.4668,1.8389,1.4043,2.3994
		c0.9355,0.5605,2.252,0.8408,3.9473,0.8408c2.625,0,4.5801-0.376,5.8652-1.1279s1.9277-1.75,1.9277-2.9941
		c0-0.9844-0.3516-1.6855-1.0566-2.1025c-0.7031-0.417-2.0117-0.625-3.9258-0.625h-3.6504c-1.3809,0-2.4785,0.3242-3.293,0.9746
		C926.7256,610.877,926.3193,611.7559,926.3193,612.8633z M928.3896,593.9961c0,1.4219,0.3652,2.5156,1.0977,3.2812
		c0.7305,0.7656,1.7812,1.1484,3.1484,1.1484c2.7891,0,4.1836-1.4902,4.1836-4.4707c0-1.4766-0.3457-2.6152-1.0371-3.4141
		c-0.6895-0.8008-1.7383-1.2002-3.1465-1.2002c-1.3945,0-2.4512,0.3965-3.1699,1.1895
		C928.749,591.3232,928.3896,592.4785,928.3896,593.9961z"/>
	<path fill="#4B5666" d="M962.5361,609.3359l-0.9648-3.1582h-0.1641c-1.0938,1.3809-2.1934,2.3213-3.3008,2.8203
		c-1.1074,0.498-2.5293,0.748-4.2656,0.748c-2.2285,0-3.9688-0.6016-5.2188-1.8047c-1.252-1.2031-1.877-2.9053-1.877-5.1064
		c0-2.3379,0.8672-4.1016,2.6035-5.291s4.3828-1.8389,7.9375-1.9482l3.916-0.123v-1.21c0-1.4492-0.3379-2.5322-1.0137-3.251
		c-0.6777-0.7168-1.7266-1.0762-3.1484-1.0762c-1.1621,0-2.2773,0.1709-3.3438,0.5127s-2.0918,0.7451-3.0762,1.21l-1.5586-3.4453
		c1.2305-0.6426,2.5781-1.1309,4.041-1.4668c1.4629-0.334,2.8438-0.502,4.1426-0.502c2.8848,0,5.0605,0.6289,6.5312,1.8867
		c1.4688,1.2578,2.2051,3.2334,2.2051,5.9268v15.2783H962.5361z M955.3584,606.0547c1.75,0,3.1543-0.4883,4.2148-1.4668
		c1.0586-0.9766,1.5879-2.3477,1.5879-4.1113v-1.9688l-2.9121,0.123c-2.2695,0.082-3.9199,0.4609-4.9512,1.1387
		c-1.0332,0.6758-1.5488,1.7119-1.5488,3.1064c0,1.0117,0.3008,1.7939,0.9023,2.3486
		C953.2529,605.7773,954.1553,606.0547,955.3584,606.0547z"/>
	<path fill="#4B5666" d="M988.7861,609.3359l-8.6133-22.6816h5.0859l4.6133,13.1865c0.793,2.2148,1.2715,4.0059,1.4355,5.373h0.1641
		c0.123-0.9844,0.6016-2.7754,1.4355-5.373l4.6152-13.1865h5.127l-8.6543,22.6816H988.7861z"/>
	<path fill="#4B5666" d="M1020.2861,609.3359l-0.9648-3.1582h-0.1641c-1.0938,1.3809-2.1934,2.3213-3.3008,2.8203
		c-1.1074,0.498-2.5293,0.748-4.2656,0.748c-2.2285,0-3.9688-0.6016-5.2188-1.8047c-1.252-1.2031-1.877-2.9053-1.877-5.1064
		c0-2.3379,0.8672-4.1016,2.6035-5.291s4.3828-1.8389,7.9375-1.9482l3.916-0.123v-1.21c0-1.4492-0.3379-2.5322-1.0137-3.251
		c-0.6777-0.7168-1.7266-1.0762-3.1484-1.0762c-1.1621,0-2.2773,0.1709-3.3438,0.5127s-2.0918,0.7451-3.0762,1.21l-1.5586-3.4453
		c1.2305-0.6426,2.5781-1.1309,4.041-1.4668c1.4629-0.334,2.8438-0.502,4.1426-0.502c2.8848,0,5.0605,0.6289,6.5312,1.8867
		c1.4688,1.2578,2.2051,3.2334,2.2051,5.9268v15.2783H1020.2861z M1013.1084,606.0547c1.75,0,3.1543-0.4883,4.2148-1.4668
		c1.0586-0.9766,1.5879-2.3477,1.5879-4.1113v-1.9688l-2.9121,0.123c-2.2695,0.082-3.9199,0.4609-4.9512,1.1387
		c-1.0332,0.6758-1.5488,1.7119-1.5488,3.1064c0,1.0117,0.3008,1.7939,0.9023,2.3486
		C1011.0029,605.7773,1011.9053,606.0547,1013.1084,606.0547z"/>
	<path fill="#4B5666" d="M1035.2764,609.3359h-4.8184v-31.9102h4.8184V609.3359z"/>
	<path fill="#4B5666" d="M1062.2861,597.9541c0,3.7051-0.9512,6.5967-2.8516,8.6748s-4.5449,3.1172-7.9355,3.1172
		c-2.1191,0-3.9922-0.4785-5.6191-1.4355s-2.8789-2.3311-3.7539-4.1221s-1.3125-3.8691-1.3125-6.2344
		c0-3.6777,0.9434-6.5488,2.8301-8.6133s4.5469-3.0967,7.9785-3.0967c3.2812,0,5.8789,1.0566,7.793,3.168
		C1061.3291,591.5254,1062.2861,594.3721,1062.2861,597.9541z M1045.7764,597.9541c0,5.2363,1.9355,7.8545,5.8047,7.8545
		c3.8281,0,5.7422-2.6182,5.7422-7.8545c0-5.1816-1.9277-7.7725-5.7832-7.7725c-2.0234,0-3.4902,0.6699-4.4004,2.0098
		C1046.2314,593.5312,1045.7764,595.4521,1045.7764,597.9541z"/>
	<path fill="#4B5666" d="M1079.3271,586.2441c0.9707,0,1.7715,0.0684,2.4004,0.2051l-0.4727,4.4912
		c-0.6836-0.1641-1.3945-0.2461-2.1328-0.2461c-1.9277,0-3.4902,0.6289-4.6855,1.8867c-1.1973,1.2578-1.7949,2.8916-1.7949,4.9014
		v11.8535h-4.8184v-22.6816h3.7734l0.6348,3.999h0.2461c0.752-1.3535,1.7344-2.4268,2.9434-3.2197
		C1076.6318,586.6406,1077.9326,586.2441,1079.3271,586.2441z"/>
	<path fill="#4B5666" d="M804.7803,660.1465c-3.4316,0-6.0391-1.001-7.8242-3.0039c-1.7832-2.0029-2.6758-4.8779-2.6758-8.624
		c0-3.8145,0.9336-6.7471,2.7988-8.7979c1.8672-2.0508,4.5625-3.0762,8.0898-3.0762c2.3926,0,4.5469,0.4443,6.4609,1.333
		l-1.457,3.876c-2.0371-0.793-3.7188-1.1895-5.0449-1.1895c-3.9238,0-5.8848,2.6045-5.8848,7.8135
		c0,2.543,0.4883,4.4541,1.4668,5.7314c0.9766,1.2793,2.4082,1.918,4.2949,1.918c2.1465,0,4.1777-0.5332,6.0918-1.5996v4.2041
		c-0.8613,0.5059-1.7812,0.8682-2.7578,1.0869C807.3604,660.0371,806.1748,660.1465,804.7803,660.1465z"/>
	<path fill="#4B5666" d="M836.5459,648.3545c0,3.7051-0.9492,6.5967-2.8496,8.6748s-4.5469,3.1172-7.9375,3.1172
		c-2.1191,0-3.9922-0.4785-5.6191-1.4355s-2.877-2.3311-3.752-4.1221s-1.3125-3.8691-1.3125-6.2344
		c0-3.6777,0.9434-6.5488,2.8301-8.6133s4.5449-3.0967,7.9766-3.0967c3.2812,0,5.8789,1.0566,7.793,3.168
		C835.5889,641.9258,836.5459,644.7725,836.5459,648.3545z M820.0381,648.3545c0,5.2363,1.9336,7.8545,5.8027,7.8545
		c3.8281,0,5.7422-2.6182,5.7422-7.8545c0-5.1816-1.9277-7.7725-5.7832-7.7725c-2.0234,0-3.4902,0.6699-4.3984,2.0098
		C820.4912,643.9316,820.0381,645.8525,820.0381,648.3545z"/>
	<path fill="#4B5666" d="M862.0381,659.7363h-4.8398V645.791c0-1.75-0.3535-3.0557-1.0566-3.917
		c-0.7051-0.8613-1.8223-1.292-3.3535-1.292c-2.0371,0-3.5273,0.6016-4.4707,1.8047s-1.4141,3.2197-1.4141,6.0498v11.2998h-4.8203
		v-22.6816h3.7734l0.6777,2.9736h0.2461c0.6836-1.0801,1.6543-1.9141,2.9121-2.502s2.6523-0.8818,4.1836-0.8818
		c5.4414,0,8.1621,2.7686,8.1621,8.3057V659.7363z"/>
	<path fill="#4B5666" d="M877.1924,656.25c1.1758,0,2.3516-0.1846,3.5273-0.5537v3.6299c-0.5332,0.2324-1.2207,0.4268-2.0605,0.584
		c-0.8418,0.1572-1.7129,0.2363-2.6152,0.2363c-4.5664,0-6.8496-2.4062-6.8496-7.2188v-12.2227h-3.0957v-2.1328l3.3223-1.7637
		l1.6406-4.7988h2.9727v5.0449h6.4609v3.6504h-6.4609v12.1406c0,1.1621,0.291,2.0195,0.8711,2.5742
		C875.4873,655.9727,876.249,656.25,877.1924,656.25z"/>
	<path fill="#4B5666" d="M884.9658,631.0459c0-0.8613,0.2363-1.5244,0.707-1.9893c0.4727-0.4648,1.1445-0.6973,2.0195-0.6973
		c0.8477,0,1.5078,0.2324,1.9805,0.6973c0.4707,0.4648,0.707,1.1279,0.707,1.9893c0,0.8203-0.2363,1.4658-0.707,1.9385
		c-0.4727,0.4707-1.1328,0.707-1.9805,0.707c-0.875,0-1.5469-0.2363-2.0195-0.707
		C885.2021,632.5117,884.9658,631.8662,884.9658,631.0459z M890.0713,659.7363h-4.8184v-22.6816h4.8184V659.7363z"/>
	<path fill="#4B5666" d="M916.917,659.7363h-4.8398V645.791c0-1.75-0.3535-3.0557-1.0566-3.917
		c-0.7051-0.8613-1.8223-1.292-3.3535-1.292c-2.0371,0-3.5273,0.6016-4.4707,1.8047s-1.4141,3.2197-1.4141,6.0498v11.2998h-4.8203
		v-22.6816h3.7734l0.6777,2.9736h0.2461c0.6836-1.0801,1.6543-1.9141,2.9121-2.502s2.6523-0.8818,4.1836-0.8818
		c5.4414,0,8.1621,2.7686,8.1621,8.3057V659.7363z"/>
	<path fill="#4B5666" d="M939.6182,659.7363l-0.6758-2.9736h-0.2461c-0.6699,1.0527-1.625,1.8799-2.8613,2.4814
		c-1.2383,0.6016-2.6484,0.9023-4.2344,0.9023c-2.748,0-4.7988-0.6836-6.1523-2.0508s-2.0312-3.4385-2.0312-6.2139v-14.8271h4.8613
		v13.9863c0,1.7363,0.3555,3.0391,1.0664,3.9062c0.7109,0.8691,1.8242,1.3027,3.3418,1.3027c2.0234,0,3.5098-0.6055,4.4609-1.8145
		c0.9492-1.2109,1.4258-3.2373,1.4258-6.0811v-11.2998h4.8398v22.6816H939.6182z"/>
	<path fill="#4B5666" d="M964.4736,659.7363l-0.9629-3.1582h-0.1641c-1.0938,1.3809-2.1953,2.3213-3.3027,2.8203
		c-1.1074,0.498-2.5293,0.748-4.2656,0.748c-2.2285,0-3.9688-0.6016-5.2188-1.8047c-1.252-1.2031-1.877-2.9053-1.877-5.1064
		c0-2.3379,0.8691-4.1016,2.6055-5.291s4.3809-1.8389,7.9355-1.9482l3.918-0.123v-1.21c0-1.4492-0.3398-2.5322-1.0156-3.251
		c-0.6777-0.7168-1.7266-1.0762-3.1484-1.0762c-1.1621,0-2.2754,0.1709-3.3418,0.5127s-2.0918,0.7451-3.0762,1.21l-1.5586-3.4453
		c1.2305-0.6426,2.5762-1.1309,4.0391-1.4668c1.4629-0.334,2.8438-0.502,4.1426-0.502c2.8848,0,5.0625,0.6289,6.5312,1.8867
		c1.4707,1.2578,2.2051,3.2334,2.2051,5.9268v15.2783H964.4736z M957.2959,656.4551c1.75,0,3.1543-0.4883,4.2148-1.4668
		c1.0586-0.9766,1.5898-2.3477,1.5898-4.1113v-1.9688l-2.9121,0.123c-2.2695,0.082-3.9219,0.4609-4.9531,1.1387
		c-1.0332,0.6758-1.5488,1.7119-1.5488,3.1064c0,1.0117,0.3008,1.7939,0.9023,2.3486
		C955.1904,656.1777,956.0928,656.4551,957.2959,656.4551z"/>
	<path fill="#4B5666" d="M993.7588,659.7363h-4.8398V645.75c0-1.7363-0.3281-3.0312-0.9844-3.8867
		c-0.6562-0.8535-1.6816-1.2812-3.0762-1.2812c-1.8594,0-3.2227,0.6055-4.0918,1.8145c-0.8672,1.2109-1.3008,3.2236-1.3008,6.04
		v11.2998h-4.8203v-22.6816h3.7734l0.6777,2.9736h0.2461c0.6289-1.0801,1.541-1.9141,2.7363-2.502
		c1.1973-0.5879,2.5137-0.8818,3.9492-0.8818c3.4863,0,5.7969,1.1895,6.9316,3.5684h0.3281
		c0.6699-1.1211,1.6133-1.9961,2.8301-2.625s2.6113-0.9434,4.1836-0.9434c2.707,0,4.6777,0.6836,5.916,2.0508
		c1.2363,1.3672,1.8555,3.4521,1.8555,6.2549v14.7861h-4.8184V645.75c0-1.7363-0.332-3.0312-0.9961-3.8867
		c-0.6621-0.8535-1.6914-1.2812-3.0859-1.2812c-1.873,0-3.2441,0.584-4.1113,1.7539c-0.8691,1.168-1.3027,2.9629-1.3027,5.3828
		V659.7363z"/>
	<path fill="#4B5666" d="M1024.7061,660.1465c-3.5273,0-6.2871-1.0283-8.2754-3.0859c-1.9902-2.0576-2.9844-4.8916-2.9844-8.501
		c0-3.7051,0.9238-6.6172,2.7695-8.7363s4.3809-3.1787,7.6074-3.1787c2.9941,0,5.3594,0.9092,7.0957,2.7275
		s2.6055,4.3203,2.6055,7.5059v2.6045h-15.1152c0.0684,2.2012,0.6641,3.8936,1.7852,5.0762s2.6992,1.7734,4.7363,1.7734
		c1.3398,0,2.5879-0.126,3.7422-0.3789c1.1562-0.2529,2.3965-0.6738,3.7227-1.2617v3.917c-1.1758,0.5605-2.3652,0.957-3.5684,1.1895
		S1026.251,660.1465,1024.7061,660.1465z M1023.8232,640.2949c-1.5312,0-2.7578,0.4854-3.6816,1.4561
		c-0.9219,0.9707-1.4727,2.3857-1.6504,4.2451h10.2949c-0.0273-1.873-0.4785-3.291-1.3535-4.2559
		C1026.5576,640.7773,1025.3545,640.2949,1023.8232,640.2949z"/>
	<path fill="#4B5666" d="M1058.9541,659.7363h-4.8398V645.791c0-1.75-0.3535-3.0557-1.0566-3.917
		c-0.7051-0.8613-1.8223-1.292-3.3535-1.292c-2.0371,0-3.5273,0.6016-4.4707,1.8047s-1.4141,3.2197-1.4141,6.0498v11.2998h-4.8203
		v-22.6816h3.7734l0.6777,2.9736h0.2461c0.6836-1.0801,1.6543-1.9141,2.9121-2.502s2.6523-0.8818,4.1836-0.8818
		c5.4414,0,8.1621,2.7686,8.1621,8.3057V659.7363z"/>
	<path fill="#4B5666" d="M1074.1084,656.25c1.1758,0,2.3516-0.1846,3.5273-0.5537v3.6299c-0.5332,0.2324-1.2207,0.4268-2.0605,0.584
		c-0.8418,0.1572-1.7129,0.2363-2.6152,0.2363c-4.5664,0-6.8496-2.4062-6.8496-7.2188v-12.2227h-3.0957v-2.1328l3.3223-1.7637
		l1.6406-4.7988h2.9727v5.0449h6.4609v3.6504h-6.4609v12.1406c0,1.1621,0.291,2.0195,0.8711,2.5742
		C1072.4033,655.9727,1073.165,656.25,1074.1084,656.25z"/>
	<path fill="#4B5666" d="M1092.0732,660.1465c-3.5273,0-6.2852-1.0283-8.2734-3.0859c-1.9902-2.0576-2.9844-4.8916-2.9844-8.501
		c0-3.7051,0.9219-6.6172,2.7676-8.7363s4.3828-3.1787,7.6094-3.1787c2.9941,0,5.3594,0.9092,7.0957,2.7275
		s2.6035,4.3203,2.6035,7.5059v2.6045h-15.1133c0.0684,2.2012,0.6621,3.8936,1.7832,5.0762s2.7012,1.7734,4.7383,1.7734
		c1.3398,0,2.5859-0.126,3.7422-0.3789c1.1543-0.2529,2.3965-0.6738,3.7227-1.2617v3.917c-1.1758,0.5605-2.3652,0.957-3.5684,1.1895
		S1093.6182,660.1465,1092.0732,660.1465z M1091.1924,640.2949c-1.5312,0-2.7578,0.4854-3.6816,1.4561
		c-0.9219,0.9707-1.4727,2.3857-1.6504,4.2451h10.2949c-0.0273-1.873-0.4785-3.291-1.3535-4.2559
		C1093.9268,640.7773,1092.7236,640.2949,1091.1924,640.2949z"/>
</g>
<g>
	<path fill="#4B5666" d="M79.3267,609.3359h-16.96v-29.9824h16.96v4.1426H67.2681v8.1621h11.2998v4.1016H67.2681v9.4131h12.0586
		V609.3359z"/>
	<path fill="#4B5666" d="M90.3394,597.749l-7.6084-11.0947h5.4961l5.168,7.9365l5.209-7.9365h5.4551l-7.6289,11.0947l8.0186,11.5869
		h-5.4551l-5.5986-8.4902l-5.5781,8.4902h-5.4551L90.3394,597.749z"/>
	<path fill="#4B5666" d="M119.9321,609.7461c-2.8711,0-5.0996-1.0322-6.6855-3.0967h-0.2871
		c0.1914,1.9141,0.2871,3.0762,0.2871,3.4863v9.29h-4.8193v-32.7715h3.8965c0.1094,0.4238,0.335,1.4355,0.6768,3.0352h0.2461
		c1.5039-2.2969,3.7598-3.4453,6.7676-3.4453c2.8301,0,5.0347,1.0254,6.6138,3.0762s2.3687,4.9287,2.3687,8.6338
		s-0.8032,6.5967-2.4097,8.6748S122.7622,609.7461,119.9321,609.7461z M118.7632,590.1816c-1.9141,0-3.312,0.5605-4.1938,1.6816
		s-1.3228,2.9121-1.3228,5.373v0.7178c0,2.7617,0.4375,4.7617,1.3125,5.999s2.3037,1.8555,4.2861,1.8555
		c1.668,0,2.9531-0.6836,3.8555-2.0508s1.3535-3.3154,1.3535-5.8447c0-2.543-0.4478-4.4668-1.3433-5.7725
		S120.4995,590.1816,118.7632,590.1816z"/>
	<path fill="#4B5666" d="M144.5005,609.7461c-3.5273,0-6.2856-1.0283-8.2749-3.0859s-2.9839-4.8916-2.9839-8.501
		c0-3.7051,0.9229-6.6172,2.7686-8.7363s4.3818-3.1787,7.6084-3.1787c2.9941,0,5.3594,0.9092,7.0957,2.7275
		s2.6045,4.3203,2.6045,7.5059v2.6045h-15.1143c0.0684,2.2012,0.6631,3.8936,1.7842,5.0762s2.7002,1.7734,4.7373,1.7734
		c1.3398,0,2.5874-0.126,3.7427-0.3789s2.396-0.6738,3.7222-1.2617v3.917c-1.1758,0.5605-2.3652,0.957-3.5684,1.1895
		S146.0454,609.7461,144.5005,609.7461z M143.6187,589.8945c-1.5312,0-2.7583,0.4854-3.6812,1.4561s-1.4731,2.3857-1.6509,4.2451
		h10.2949c-0.0273-1.873-0.4785-3.291-1.3535-4.2559C146.353,590.377,145.1499,589.8945,143.6187,589.8945z"/>
	<path fill="#4B5666" d="M170.2993,586.2441c0.9707,0,1.7705,0.0684,2.3994,0.2051l-0.4717,4.4912
		c-0.6836-0.1641-1.3945-0.2461-2.1328-0.2461c-1.9277,0-3.4897,0.6289-4.686,1.8867s-1.7944,2.8916-1.7944,4.9014v11.8535h-4.8193
		v-22.6816h3.7734l0.6357,3.999h0.2461c0.752-1.3535,1.7329-2.4268,2.9429-3.2197S168.9048,586.2441,170.2993,586.2441z"/>
	<path fill="#4B5666" d="M176.6157,580.6455c0-0.8613,0.2358-1.5244,0.7075-1.9893s1.145-0.6973,2.02-0.6973
		c0.8477,0,1.5073,0.2324,1.979,0.6973s0.7075,1.1279,0.7075,1.9893c0,0.8203-0.2358,1.4658-0.7075,1.9385
		c-0.4717,0.4707-1.1313,0.707-1.979,0.707c-0.875,0-1.5483-0.2363-2.02-0.707
		C176.8516,582.1113,176.6157,581.4658,176.6157,580.6455z M181.7222,609.3359h-4.8193v-22.6816h4.8193V609.3359z"/>
	<path fill="#4B5666" d="M207.7261,609.3359h-4.8398v-13.9863c0-1.7363-0.3281-3.0312-0.9844-3.8867
		c-0.6562-0.8535-1.6816-1.2812-3.0762-1.2812c-1.8594,0-3.2231,0.6055-4.0913,1.8145c-0.8682,1.2109-1.3022,3.2236-1.3022,6.04
		v11.2998h-4.8193v-22.6816h3.7734l0.6768,2.9736h0.2461c0.6289-1.0801,1.5415-1.9141,2.7378-2.502s2.5122-0.8818,3.9478-0.8818
		c3.4863,0,5.7969,1.1895,6.9316,3.5684h0.3281c0.6699-1.1211,1.6133-1.9961,2.8301-2.625s2.6113-0.9434,4.1836-0.9434
		c2.707,0,4.6792,0.6836,5.9165,2.0508s1.856,3.4521,1.856,6.2549v14.7861h-4.8193v-13.9863c0-1.7363-0.3315-3.0312-0.9946-3.8867
		c-0.6631-0.8535-1.6919-1.2812-3.0864-1.2812c-1.873,0-3.2437,0.584-4.1118,1.7539c-0.8682,1.168-1.3022,2.9629-1.3022,5.3828
		V609.3359z"/>
	<path fill="#4B5666" d="M238.6724,609.7461c-3.5273,0-6.2856-1.0283-8.2749-3.0859s-2.9839-4.8916-2.9839-8.501
		c0-3.7051,0.9229-6.6172,2.7686-8.7363s4.3818-3.1787,7.6084-3.1787c2.9941,0,5.3594,0.9092,7.0957,2.7275
		s2.6045,4.3203,2.6045,7.5059v2.6045h-15.1143c0.0684,2.2012,0.6631,3.8936,1.7842,5.0762s2.7002,1.7734,4.7373,1.7734
		c1.3398,0,2.5874-0.126,3.7427-0.3789s2.396-0.6738,3.7222-1.2617v3.917c-1.1758,0.5605-2.3652,0.957-3.5684,1.1895
		S240.2173,609.7461,238.6724,609.7461z M237.7905,589.8945c-1.5312,0-2.7583,0.4854-3.6812,1.4561s-1.4731,2.3857-1.6509,4.2451
		h10.2949c-0.0273-1.873-0.4785-3.291-1.3535-4.2559C240.5249,590.377,239.3218,589.8945,237.7905,589.8945z"/>
	<path fill="#4B5666" d="M272.9204,609.3359h-4.8398v-13.9453c0-1.75-0.3521-3.0557-1.0562-3.917s-1.8218-1.292-3.353-1.292
		c-2.0371,0-3.5273,0.6016-4.4707,1.8047s-1.415,3.2197-1.415,6.0498v11.2998h-4.8193v-22.6816h3.7734l0.6768,2.9736h0.2461
		c0.6836-1.0801,1.6543-1.9141,2.9121-2.502s2.6523-0.8818,4.1836-0.8818c5.4414,0,8.1621,2.7686,8.1621,8.3057V609.3359z"/>
	<path fill="#4B5666" d="M288.0757,605.8496c1.1758,0,2.3516-0.1846,3.5273-0.5537v3.6299c-0.5332,0.2324-1.2202,0.4268-2.061,0.584
		s-1.7124,0.2363-2.6147,0.2363c-4.5664,0-6.8496-2.4062-6.8496-7.2188v-12.2227h-3.0967v-2.1328l3.3223-1.7637l1.6406-4.7988
		h2.9736v5.0449h6.46v3.6504h-6.46v12.1406c0,1.1621,0.2905,2.0195,0.8716,2.5742
		C286.3701,605.5723,287.1323,605.8496,288.0757,605.8496z"/>
	<path fill="#4B5666" d="M310.3267,609.3359l-0.9639-3.1582h-0.1641c-1.0938,1.3809-2.1943,2.3213-3.3018,2.8203
		c-1.1074,0.498-2.5293,0.748-4.2656,0.748c-2.2285,0-3.9683-0.6016-5.2192-1.8047s-1.8765-2.9053-1.8765-5.1064
		c0-2.3379,0.8682-4.1016,2.6045-5.291s4.3818-1.8389,7.9365-1.9482l3.917-0.123v-1.21c0-1.4492-0.3384-2.5322-1.0151-3.251
		c-0.6768-0.7168-1.7261-1.0762-3.1479-1.0762c-1.1621,0-2.2764,0.1709-3.3428,0.5127s-2.0918,0.7451-3.0762,1.21l-1.5586-3.4453
		c1.2305-0.6426,2.5771-1.1309,4.04-1.4668c1.4629-0.334,2.8438-0.502,4.1426-0.502c2.8848,0,5.062,0.6289,6.5317,1.8867
		s2.2046,3.2334,2.2046,5.9268v15.2783H310.3267z M303.1489,606.0547c1.75,0,3.1548-0.4883,4.2144-1.4668
		c1.0596-0.9766,1.5894-2.3477,1.5894-4.1113v-1.9688l-2.9121,0.123c-2.2695,0.082-3.9204,0.4609-4.9526,1.1387
		c-1.0322,0.6758-1.5483,1.7119-1.5483,3.1064c0,1.0117,0.3008,1.7939,0.9023,2.3486
		C301.0435,605.7773,301.9458,606.0547,303.1489,606.0547z"/>
	<path fill="#4B5666" d="M327.9634,586.6543h5.25l4.6143,12.8584c0.6973,1.832,1.1621,3.5547,1.3945,5.168h0.1641
		c0.123-0.752,0.3486-1.6641,0.6768-2.7373s2.0645-6.1699,5.209-15.2891h5.209l-9.7002,25.6963
		c-1.7637,4.7168-4.7031,7.0752-8.8184,7.0752c-1.0664,0-2.1055-0.1162-3.1172-0.3486v-3.8145
		c0.7246,0.1641,1.5518,0.2461,2.4814,0.2461c2.3242,0,3.958-1.3467,4.9014-4.04l0.8408-2.1328L327.9634,586.6543z"/>
	<path fill="#4B5666" d="M65.6069,659.7363l-0.9639-3.1582H64.479c-1.0938,1.3809-2.1943,2.3213-3.3018,2.8203
		c-1.1074,0.498-2.5293,0.748-4.2656,0.748c-2.2285,0-3.9683-0.6016-5.2192-1.8047s-1.8765-2.9053-1.8765-5.1064
		c0-2.3379,0.8682-4.1016,2.6045-5.291s4.3818-1.8389,7.9365-1.9482l3.917-0.123v-1.21c0-1.4492-0.3384-2.5322-1.0151-3.251
		c-0.6768-0.7168-1.7261-1.0762-3.1479-1.0762c-1.1621,0-2.2764,0.1709-3.3428,0.5127s-2.0918,0.7451-3.0762,1.21l-1.5586-3.4453
		c1.2305-0.6426,2.5771-1.1309,4.04-1.4668c1.4629-0.334,2.8438-0.502,4.1426-0.502c2.8848,0,5.062,0.6289,6.5317,1.8867
		s2.2046,3.2334,2.2046,5.9268v15.2783H65.6069z M58.4292,656.4551c1.75,0,3.1548-0.4883,4.2144-1.4668
		c1.0596-0.9766,1.5894-2.3477,1.5894-4.1113v-1.9688l-2.9121,0.123c-2.2695,0.082-3.9204,0.4609-4.9526,1.1387
		c-1.0322,0.6758-1.5483,1.7119-1.5483,3.1064c0,1.0117,0.3008,1.7939,0.9023,2.3486
		C56.3237,656.1777,57.2261,656.4551,58.4292,656.4551z"/>
	<path fill="#4B5666" d="M87.2837,660.1465c-2.8711,0-5.0996-1.0322-6.6855-3.0967H80.311
		c0.1914,1.9141,0.2871,3.0762,0.2871,3.4863v9.29h-4.8193v-32.7715h3.8965c0.1094,0.4238,0.335,1.4355,0.6768,3.0352h0.2461
		c1.5039-2.2969,3.7598-3.4453,6.7676-3.4453c2.8301,0,5.0347,1.0254,6.6138,3.0762s2.3687,4.9287,2.3687,8.6338
		s-0.8032,6.5967-2.4097,8.6748S90.1138,660.1465,87.2837,660.1465z M86.1147,640.582c-1.9141,0-3.312,0.5605-4.1938,1.6816
		s-1.3228,2.9121-1.3228,5.373v0.7178c0,2.7617,0.4375,4.7617,1.3125,5.999s2.3037,1.8555,4.2861,1.8555
		c1.668,0,2.9531-0.6836,3.8555-2.0508s1.3535-3.3154,1.3535-5.8447c0-2.543-0.4478-4.4668-1.3433-5.7725
		S87.8511,640.582,86.1147,640.582z"/>
	<path fill="#4B5666" d="M113.4517,636.6445c0.9707,0,1.7705,0.0684,2.3994,0.2051l-0.4717,4.4912
		c-0.6836-0.1641-1.3945-0.2461-2.1328-0.2461c-1.9277,0-3.4897,0.6289-4.686,1.8867s-1.7944,2.8916-1.7944,4.9014v11.8535h-4.8193
		v-22.6816h3.7734l0.6357,3.999h0.2461c0.752-1.3535,1.7329-2.4268,2.9429-3.2197S112.0571,636.6445,113.4517,636.6445z"/>
	<path fill="#4B5666" d="M129.9604,660.1465c-3.5273,0-6.2856-1.0283-8.2749-3.0859s-2.9839-4.8916-2.9839-8.501
		c0-3.7051,0.9229-6.6172,2.7686-8.7363s4.3818-3.1787,7.6084-3.1787c2.9941,0,5.3594,0.9092,7.0957,2.7275
		s2.6045,4.3203,2.6045,7.5059v2.6045h-15.1143c0.0684,2.2012,0.6631,3.8936,1.7842,5.0762s2.7002,1.7734,4.7373,1.7734
		c1.3398,0,2.5874-0.126,3.7427-0.3789s2.396-0.6738,3.7222-1.2617v3.917c-1.1758,0.5605-2.3652,0.957-3.5684,1.1895
		S131.5054,660.1465,129.9604,660.1465z M129.0786,640.2949c-1.5312,0-2.7583,0.4854-3.6812,1.4561s-1.4731,2.3857-1.6509,4.2451
		h10.2949c-0.0273-1.873-0.4785-3.291-1.3535-4.2559C131.813,640.7773,130.6099,640.2949,129.0786,640.2949z"/>
	<path fill="#4B5666" d="M164.2085,659.7363h-4.8398V645.791c0-1.75-0.3521-3.0557-1.0562-3.917s-1.8218-1.292-3.353-1.292
		c-2.0371,0-3.5273,0.6016-4.4707,1.8047s-1.415,3.2197-1.415,6.0498v11.2998h-4.8193v-22.6816h3.7734l0.6768,2.9736h0.2461
		c0.6836-1.0801,1.6543-1.9141,2.9121-2.502s2.6523-0.8818,4.1836-0.8818c5.4414,0,8.1621,2.7686,8.1621,8.3057V659.7363z"/>
	<path fill="#4B5666" d="M178.564,660.1465c-2.8301,0-5.0381-1.0254-6.624-3.0762s-2.3789-4.9287-2.3789-8.6338
		c0-3.7188,0.8032-6.6143,2.4097-8.6846c1.6064-2.0723,3.8315-3.1074,6.6753-3.1074c2.9805,0,5.25,1.1006,6.8086,3.3018h0.2461
		c-0.2324-1.627-0.3486-2.9121-0.3486-3.8555v-8.2646h4.8398v31.9102h-3.7734l-0.8408-2.9736h-0.2256
		C183.8071,659.0186,181.5444,660.1465,178.564,660.1465z M179.856,656.25c1.9824,0,3.4248-0.5566,4.3271-1.6719
		c0.9023-1.1133,1.3672-2.9219,1.3945-5.4238v-0.6768c0-2.8574-0.4648-4.8877-1.3945-6.0908s-2.3857-1.8047-4.3682-1.8047
		c-1.6953,0-3.001,0.6875-3.917,2.0605c-0.916,1.375-1.374,3.333-1.374,5.876c0,2.5156,0.4443,4.4336,1.333,5.7529
		S178.0786,656.25,179.856,656.25z"/>
	<path fill="#4B5666" d="M206.9878,660.1465c-3.5273,0-6.2856-1.0283-8.2749-3.0859s-2.9839-4.8916-2.9839-8.501
		c0-3.7051,0.9229-6.6172,2.7686-8.7363s4.3818-3.1787,7.6084-3.1787c2.9941,0,5.3594,0.9092,7.0957,2.7275
		s2.6045,4.3203,2.6045,7.5059v2.6045h-15.1143c0.0684,2.2012,0.6631,3.8936,1.7842,5.0762s2.7002,1.7734,4.7373,1.7734
		c1.3398,0,2.5874-0.126,3.7427-0.3789s2.396-0.6738,3.7222-1.2617v3.917c-1.1758,0.5605-2.3652,0.957-3.5684,1.1895
		S208.5327,660.1465,206.9878,660.1465z M206.106,640.2949c-1.5312,0-2.7583,0.4854-3.6812,1.4561s-1.4731,2.3857-1.6509,4.2451
		h10.2949c-0.0273-1.873-0.4785-3.291-1.3535-4.2559C208.8403,640.7773,207.6372,640.2949,206.106,640.2949z"/>
	<path fill="#4B5666" d="M243.6968,636.6445c0.9707,0,1.7705,0.0684,2.3994,0.2051l-0.4717,4.4912
		c-0.6836-0.1641-1.3945-0.2461-2.1328-0.2461c-1.9277,0-3.4897,0.6289-4.686,1.8867s-1.7944,2.8916-1.7944,4.9014v11.8535h-4.8193
		v-22.6816h3.7734l0.6357,3.999h0.2461c0.752-1.3535,1.7329-2.4268,2.9429-3.2197S242.3022,636.6445,243.6968,636.6445z"/>
	<path fill="#4B5666" d="M264.4917,659.7363l-0.9639-3.1582h-0.1641c-1.0938,1.3809-2.1943,2.3213-3.3018,2.8203
		c-1.1074,0.498-2.5293,0.748-4.2656,0.748c-2.2285,0-3.9683-0.6016-5.2192-1.8047s-1.8765-2.9053-1.8765-5.1064
		c0-2.3379,0.8682-4.1016,2.6045-5.291s4.3818-1.8389,7.9365-1.9482l3.917-0.123v-1.21c0-1.4492-0.3384-2.5322-1.0151-3.251
		c-0.6768-0.7168-1.7261-1.0762-3.1479-1.0762c-1.1621,0-2.2764,0.1709-3.3428,0.5127s-2.0918,0.7451-3.0762,1.21l-1.5586-3.4453
		c1.2305-0.6426,2.5771-1.1309,4.04-1.4668c1.4629-0.334,2.8438-0.502,4.1426-0.502c2.8848,0,5.062,0.6289,6.5317,1.8867
		s2.2046,3.2334,2.2046,5.9268v15.2783H264.4917z M257.314,656.4551c1.75,0,3.1548-0.4883,4.2144-1.4668
		c1.0596-0.9766,1.5894-2.3477,1.5894-4.1113v-1.9688l-2.9121,0.123c-2.2695,0.082-3.9204,0.4609-4.9526,1.1387
		c-1.0322,0.6758-1.5483,1.7119-1.5483,3.1064c0,1.0117,0.3008,1.7939,0.9023,2.3486
		C255.2085,656.1777,256.1108,656.4551,257.314,656.4551z M255.8374,634.2861v-0.5127c0.7793-0.957,1.5825-2.0234,2.4097-3.1992
		s1.48-2.1807,1.9585-3.0146h5.5986v0.4307c-0.7109,0.834-1.7739,1.9111-3.189,3.2305s-2.6079,2.3408-3.5786,3.0654H255.8374z"/>
	<path fill="#4B5666" d="M286.1685,660.1465c-2.8711,0-5.0996-1.0322-6.6855-3.0967h-0.2871
		c0.1914,1.9141,0.2871,3.0762,0.2871,3.4863v9.29h-4.8193v-32.7715h3.8965c0.1094,0.4238,0.335,1.4355,0.6768,3.0352h0.2461
		c1.5039-2.2969,3.7598-3.4453,6.7676-3.4453c2.8301,0,5.0347,1.0254,6.6138,3.0762s2.3687,4.9287,2.3687,8.6338
		s-0.8032,6.5967-2.4097,8.6748S288.9985,660.1465,286.1685,660.1465z M284.9995,640.582c-1.9141,0-3.312,0.5605-4.1938,1.6816
		s-1.3228,2.9121-1.3228,5.373v0.7178c0,2.7617,0.4375,4.7617,1.3125,5.999s2.3037,1.8555,4.2861,1.8555
		c1.668,0,2.9531-0.6836,3.8555-2.0508s1.3535-3.3154,1.3535-5.8447c0-2.543-0.4478-4.4668-1.3433-5.7725
		S286.7358,640.582,284.9995,640.582z"/>
	<path fill="#4B5666" d="M300.5444,631.0459c0-0.8613,0.2358-1.5244,0.7075-1.9893s1.145-0.6973,2.02-0.6973
		c0.8477,0,1.5073,0.2324,1.979,0.6973s0.7075,1.1279,0.7075,1.9893c0,0.8203-0.2358,1.4658-0.7075,1.9385
		c-0.4717,0.4707-1.1313,0.707-1.979,0.707c-0.875,0-1.5483-0.2363-2.02-0.707
		C300.7803,632.5117,300.5444,631.8662,300.5444,631.0459z M305.6509,659.7363h-4.8193v-22.6816h4.8193V659.7363z"/>
	<path fill="#4B5666" d="M320.1909,660.1465c-2.8301,0-5.0381-1.0254-6.624-3.0762s-2.3789-4.9287-2.3789-8.6338
		c0-3.7188,0.8032-6.6143,2.4097-8.6846c1.6064-2.0723,3.8315-3.1074,6.6753-3.1074c2.9805,0,5.25,1.1006,6.8086,3.3018h0.2461
		c-0.2324-1.627-0.3486-2.9121-0.3486-3.8555v-8.2646h4.8398v31.9102h-3.7734l-0.8408-2.9736h-0.2256
		C325.4341,659.0186,323.1714,660.1465,320.1909,660.1465z M321.4829,656.25c1.9824,0,3.4248-0.5566,4.3271-1.6719
		c0.9023-1.1133,1.3672-2.9219,1.3945-5.4238v-0.6768c0-2.8574-0.4648-4.8877-1.3945-6.0908s-2.3857-1.8047-4.3682-1.8047
		c-1.6953,0-3.001,0.6875-3.917,2.0605c-0.916,1.375-1.374,3.333-1.374,5.876c0,2.5156,0.4443,4.4336,1.333,5.7529
		S319.7056,656.25,321.4829,656.25z"/>
	<path fill="#4B5666" d="M358.8276,648.3545c0,3.7051-0.9502,6.5967-2.8506,8.6748s-4.5459,3.1172-7.9365,3.1172
		c-2.1191,0-3.9922-0.4785-5.6191-1.4355s-2.8779-2.3311-3.7529-4.1221s-1.3125-3.8691-1.3125-6.2344
		c0-3.6777,0.9434-6.5488,2.8301-8.6133s4.5459-3.0967,7.9775-3.0967c3.2812,0,5.8789,1.0566,7.793,3.168
		C357.8706,641.9258,358.8276,644.7725,358.8276,648.3545z M342.3188,648.3545c0,5.2363,1.9346,7.8545,5.8037,7.8545
		c3.8281,0,5.7422-2.6182,5.7422-7.8545c0-5.1816-1.9277-7.7725-5.7832-7.7725c-2.0234,0-3.4897,0.6699-4.3989,2.0098
		S342.3188,645.8525,342.3188,648.3545z"/>
</g>
<path fill="#4B5666" d="M601.2812,88.3311c-9.9111,0-22.7549,5.8418-25.2822,15.6758l-0.002-0.002v0.002
	c-2.5273-9.834-15.3711-15.6758-25.2803-15.6758c-19.543,0-35.3936,15.1689-35.3936,35.3936
	c0,23.7969,14.0713,38.3584,29.4102,50.1758c9.2012,7.0898,29.6221,23.1357,31.2383,23.1357c0.0098,0,0.0176-0.002,0.0254-0.002
	s0.0176,0.002,0.0254,0.002c1.6172,0,22.0391-16.0459,31.2402-23.1357c15.3379-11.8174,29.4121-26.3789,29.4121-50.1758
	C636.6748,103.5,620.8242,88.3311,601.2812,88.3311z M536.9883,104.3398c-6.1104,4.5195-9.6162,11.585-9.6162,19.3848
	c0,1.2871-1.041,2.3301-2.3281,2.3301s-2.3301-1.043-2.3301-2.3301c0-9.293,4.1924-17.7227,11.5039-23.1299
	c1.0332-0.7656,2.4902-0.5469,3.2568,0.4873C538.2402,102.1162,538.0205,103.5762,536.9883,104.3398z"/>
<path fill-rule="evenodd" clip-rule="evenodd" fill="#4B5666" d="M244.1167,518.4824c0,14.9453-8.2681,27.9512-20.4751,34.7139
	c0,0-1.4834,0.8496-3.417,1.1836c-1.8804,0.3242-3.2686,0.3857-3.2686,0.3857h-12.5103h-12.5083c0,0-1.3901-0.0615-3.271-0.3857
	c-1.9331-0.334-3.4165-1.1836-3.4165-1.1836c-12.207-6.7627-20.4751-19.7686-20.4751-34.7139
	c0-16.502,10.0776-30.6465,24.4126-36.625v-22.5342c-1.9492,0-3.5293-1.5801-3.5293-3.5273v-6.207
	c0-1.9492,1.5801-3.5283,3.5293-3.5283h30.5166c1.9492,0,3.5298,1.5791,3.5298,3.5283v6.207c0,1.9473-1.5806,3.5273-3.5298,3.5273
	v22.5342C234.0391,487.8359,244.1167,501.9805,244.1167,518.4824z M214.6543,448.458h-20.4155
	c-1.2866,0-2.3296,1.0439-2.3296,2.3301c0,1.2871,1.043,2.3291,2.3296,2.3291h20.4155c1.2866,0,2.3306-1.042,2.3306-2.3291
	C216.9849,449.502,215.9409,448.458,214.6543,448.458z M216.9092,488.5605c-2.7051-1.1279-4.4683-3.7725-4.4683-6.7031v-22.5342
	h-15.9902v22.5342c0,2.9307-1.7622,5.5752-4.4678,6.7031c-12.1147,5.0537-19.9453,16.7998-19.9453,29.9219
	c0,11.7744,6.4092,22.6406,16.7266,28.3584c0.1572,0.0791,0.6587,0.2988,1.1396,0.3828c1.0723,0.1846,1.9355,0.2559,2.2476,0.2783
	h12.2944h12.2974c0.2939-0.0205,1.1636-0.0918,2.2471-0.2793c0.481-0.083,0.979-0.3027,1.1372-0.3818
	c10.3169-5.7178,16.7266-16.584,16.7266-28.3584C236.854,505.3604,229.0254,493.6143,216.9092,488.5605z M232.1948,518.4824
	c0,10.0059-5.4043,19.2441-14.124,24.1709c-0.6709,0.1104-1.2261,0.167-1.5117,0.1895h-24.2319
	c-0.2642-0.0215-0.8242-0.0771-1.5029-0.1895c-8.7207-4.9258-14.1289-14.165-14.1289-24.1709c0-3.5225,0.6699-6.8936,1.873-9.998
	h51.7563C231.5283,511.5889,232.1948,514.96,232.1948,518.4824z M196.0107,534.2666c-5.9766-3.7871-9.6782-10.4834-9.6782-17.5488
	c0-1.2871-1.0425-2.3291-2.3296-2.3291c-1.2856,0-2.3301,1.042-2.3301,2.3291c0,8.7676,4.6533,17.0723,12.1426,21.6699
	l0.4751,0.2764l0.6968,0.0752c0.0674,0.0059,0.1348,0.0088,0.2026,0.0088c1.1914,0,2.1646-0.9199,2.2695-2.1318
	C197.5488,535.5859,196.9238,534.6523,196.0107,534.2666z"/>
<path fill="#4B5666" d="M618.3379,831.3232h-84.6797c-1.9414,0-3.5186,1.5752-3.5186,3.5166l0.0039,32.6309
	c0,0.0029,0.002,0.0078,0.002,0.0117c0,9.8008,0,19.6309,0,22.917c0,7.2842,2.458,17.7812,11.8701,28.3242
	c13.4854,15.1035,33.9863,21.3076,33.9863,21.3076s20.501-6.2041,33.9863-21.3076c9.4121-10.543,11.8701-21.04,11.8701-28.3242
	c0-3.2861,0-13.1162,0-22.917c0-0.0039,0.002-0.0088,0.002-0.0117l-0.0049-32.6309
	C621.8555,832.8984,620.2793,831.3232,618.3379,831.3232z M551.249,914.3662c-0.4443,0.3955-0.999,0.5898-1.5498,0.5898
	c-0.6416,0-1.2793-0.2627-1.7393-0.7783c-9.2373-10.3447-10.6162-20.126-10.6162-25.0361c0-1.2861,1.042-2.3301,2.3281-2.3301
	c1.2871,0,2.3311,1.0439,2.3311,2.3301c0,4.2461,1.2246,12.7412,9.4326,21.9346C552.292,912.0352,552.207,913.5078,551.249,914.3662
	z M614.5967,867.3564c-0.001,0.041-0.001,0.084-0.001,0.126v22.917c0,4.5781-1.3037,13.7168-10.0244,23.4863
	c-9.5215,10.665-23.334,16.5176-28.5693,18.4619l-0.0039-93.7617h38.5947L614.5967,867.3564z"/>
<path fill-rule="evenodd" clip-rule="evenodd" fill="#4B5666" d="M1011.5254,487.6035c-0.1602,0-0.3301-0.0117-0.5098-0.0381
	l-6.7881-0.9492l-0.001,49.5664c0,1.9404-1.5312,3.9492-3.4014,4.4658l-49.8701,13.7334c-0.9346,0.2568-2.1689,0.3877-3.4014,0.3877
	c-1.2344,0-2.4658-0.1309-3.4023-0.3877l-49.8672-13.7334c-1.873-0.5166-3.4023-2.5254-3.4023-4.4658l0.001-49.5664l-6.791,0.9492
	c-0.1787,0.0264-0.3477,0.0381-0.5078,0.0381c-1.5664,0-2.2471-1.1543-1.5117-2.7529l9.543-20.7812
	c0.8105-1.7627,3.002-3.6299,4.875-4.1445l49.8682-13.7363c0.3125-0.0859,0.6025-0.1279,0.8672-0.1279
	c0.1182,0,0.2236,0.0176,0.3291,0.0342c0.1064-0.0166,0.2109-0.0342,0.3281-0.0342c0.2656,0,0.5557,0.042,0.8672,0.1279
	l49.8691,13.7363c1.8721,0.5146,4.0654,2.3818,4.876,4.1445l9.543,20.7812
	C1013.7734,486.4492,1013.0928,487.6035,1011.5254,487.6035z M898.4482,530.5283c0,1.2861,1.043,2.3281,2.3291,2.3281
	c1.2871,0,2.3291-1.042,2.3291-2.3281v-22.2285c0-1.2871-1.042-2.3291-2.3291-2.3291c-1.2861,0-2.3291,1.042-2.3291,2.3291V530.5283
	z M897.7256,464.416c-0.5508,0.1533-1.6387,1.0801-1.8779,1.5977l-7.4609,16.2461l46.6182-6.5381
	c0.2393-0.0791,0.6523-0.4346,0.7666-0.6572l7.0557-23.0732L897.7256,464.416z M947.9473,478.5869l-0.3926-1.2852v68.8408
	c0.8145,0,1.3506-0.0938,1.4736-0.126l47.9365-13.2021v-39.8848l-38.5527-5.4092
	C953.7344,486.8652,949.332,483.1074,947.9473,478.5869z M999.2617,466.0137c-0.2393-0.5176-1.3281-1.4443-1.8789-1.5977
	l-45.1016-12.4248l7.0566,23.0732c0.1133,0.2227,0.5273,0.5781,0.7666,0.6572l46.6172,6.5381L999.2617,466.0137z"/>
</svg>
