<?xml version="1.0" encoding="utf-8"?>
<!-- Generator: Adobe Illustrator 15.0.2, SVG Export Plug-In . SVG Version: 6.00 Build 0)  -->
<!DOCTYPE svg PUBLIC "-//W3C//DTD SVG 1.1//EN" "http://www.w3.org/Graphics/SVG/1.1/DTD/svg11.dtd">
<svg version="1.1" id="Layer_1" xmlns="http://www.w3.org/2000/svg" xmlns:xlink="http://www.w3.org/1999/xlink" x="0px" y="0px"
	 width="1110.315px" height="1110.316px" viewBox="244.159 -48.849 1110.315 1110.316"
	 enable-background="new 244.159 -48.849 1110.315 1110.316" xml:space="preserve">
<circle fill="#4B5666" cx="799.317" cy="506.309" r="555.158"/>
<g>
	<path fill="#FBD35C" d="M425.642,132.627c206.542-206.542,540.81-206.539,747.354,0.008L799.322,506.308L425.642,132.627z"/>
</g>
<g>
	<path fill="#A4D970" d="M1172.999,132.63c206.543,206.544,206.538,540.81-0.007,747.354L799.319,506.31L1172.999,132.63z"/>
</g>
<g>
	<path fill="#9EBEED" d="M1172.992,879.989c-206.542,206.544-540.81,206.538-747.354-0.007L799.312,506.31L1172.992,879.989z"/>
</g>
<g>
	<path fill="#FA7977" d="M425.636,879.987c-206.542-206.544-206.539-540.808,0.006-747.354l373.676,373.673L425.636,879.987z"/>
</g>
<circle fill="#4B5666" cx="799.317" cy="506.309" r="187.634"/>
<path fill="#4B5666" d="M823.684,36.285c-9.553,0-21.932,5.631-24.365,15.109l-0.002-0.002v0.002
	c-2.438-9.479-14.814-15.109-24.365-15.109c-18.836,0-34.113,14.621-34.113,34.113c0,22.936,13.562,36.971,28.346,48.359
	c8.869,6.834,28.553,22.299,30.109,22.299c0.008,0,0.016-0.002,0.023-0.002c0.007,0,0.018,0.002,0.023,0.002
	c1.561,0,21.24-15.465,30.109-22.299c14.783-11.389,28.348-25.424,28.348-48.359C857.797,50.906,842.52,36.285,823.684,36.285z
	 M761.717,51.715c-5.889,4.355-9.268,11.166-9.268,18.684c0,1.24-1.004,2.246-2.244,2.246s-2.246-1.006-2.246-2.246
	c0-8.957,4.041-17.082,11.088-22.293c0.996-0.738,2.4-0.527,3.139,0.47C762.925,49.573,762.713,50.979,761.717,51.715z"/>
<path fill="#4B5666" d="M479.443,450.873c0,14.404-7.971,26.938-19.734,33.457c0,0-1.43,0.818-3.293,1.141
	c-1.812,0.312-3.15,0.371-3.15,0.371h-12.058h-12.056c0,0-1.342-0.059-3.152-0.371c-1.863-0.32-3.293-1.141-3.293-1.141
	c-11.766-6.519-19.734-19.053-19.734-33.457c0-15.905,9.713-29.538,23.529-35.301v-21.718c-1.879,0-3.401-1.523-3.401-3.401v-5.981
	c0-1.879,1.522-3.401,3.401-3.401h29.412c1.879,0,3.402,1.522,3.402,3.401v5.981c0,1.878-1.523,3.401-3.402,3.401v21.718
	C469.73,421.335,479.443,434.968,479.443,450.873z M451.046,383.382H431.37c-1.24,0-2.245,1.006-2.245,2.245
	c0,1.24,1.005,2.245,2.245,2.245h19.677c1.24,0,2.246-1.005,2.246-2.245C453.292,384.388,452.287,383.382,451.046,383.382z
	 M453.22,422.033c-2.605-1.088-4.307-3.636-4.307-6.461v-21.718h-15.412v21.718c0,2.825-1.698,5.373-4.306,6.461
	c-11.679,4.871-19.226,16.189-19.226,28.84c0,11.348,6.179,21.82,16.121,27.331c0.151,0.077,0.635,0.288,1.101,0.369
	c1.031,0.178,1.863,0.247,2.166,0.269h11.85h11.853c0.283-0.02,1.121-0.089,2.166-0.27c0.465-0.08,0.943-0.291,1.098-0.368
	c9.941-5.511,16.121-15.983,16.121-27.331C472.443,438.225,464.898,426.904,453.22,422.033z M467.953,450.873
	c0,9.643-5.209,18.547-13.613,23.296c-0.646,0.106-1.182,0.16-1.457,0.183h-23.354c-0.254-0.021-0.794-0.072-1.448-0.183
	c-8.405-4.748-13.617-13.653-13.617-23.296c0-3.396,0.646-6.646,1.805-9.637h49.886C467.31,444.229,467.953,447.477,467.953,450.873
	z M433.078,466.085c-5.761-3.649-9.328-10.104-9.328-16.913c0-1.24-1.005-2.245-2.245-2.245c-1.239,0-2.246,1.005-2.246,2.245
	c0,8.45,4.485,16.454,11.703,20.886l0.458,0.268l0.672,0.073c0.064,0.006,0.13,0.009,0.195,0.009c1.146,0,2.086-0.889,2.188-2.058
	C434.56,467.357,433.958,466.457,433.078,466.085z"/>
<path fill="#4B5666" d="M840.123,752.394h-81.615c-1.871,0-3.391,1.52-3.391,3.392l0.004,31.45c0,0.003,0.001,0.007,0.001,0.01
	c0,9.446,0,18.922,0,22.089c0,7.021,2.369,17.138,11.44,27.299c12.996,14.56,32.757,20.537,32.757,20.537
	s19.759-5.979,32.757-20.537c9.071-10.161,11.438-20.277,11.438-27.299c0-3.167,0-12.643,0-22.089c0-0.003,0.001-0.007,0.001-0.01
	l-0.004-31.45C843.514,753.911,841.994,752.394,840.123,752.394z M775.462,832.431c-0.429,0.384-0.963,0.569-1.494,0.569
	c-0.618,0-1.23-0.253-1.676-0.75c-8.903-9.971-10.232-19.398-10.232-24.131c0-1.239,1.005-2.245,2.244-2.245
	c1.24,0,2.246,1.006,2.246,2.245c0,4.093,1.181,12.281,9.092,21.141C776.467,830.185,776.386,831.604,775.462,832.431z
	 M836.518,787.123c-0.001,0.039-0.001,0.08-0.001,0.12v22.089c0,4.412-1.256,13.221-9.66,22.636
	c-9.179,10.279-22.489,15.921-27.535,17.794l-0.004-90.368h37.196L836.518,787.123z"/>
<g>
	<path fill="#FFFFFF" d="M701.017,492.738L687.455,457.3h-0.219c0.255,2.81,0.383,6.146,0.383,10.008v25.432h-4.293v-39.979h7
		l12.66,32.979h0.219l12.77-32.979h6.945v39.979h-4.648V466.98c0-2.953,0.129-6.161,0.385-9.625h-0.221l-13.672,35.383H701.017z"/>
	<path fill="#FFFFFF" d="M768.583,472.695c0,6.396-1.618,11.43-4.854,15.094c-3.234,3.664-7.732,5.496-13.492,5.496
		c-5.891,0-10.434-1.8-13.633-5.4c-3.197-3.6-4.799-8.682-4.799-15.244c0-6.508,1.604-11.553,4.812-15.135s7.766-5.373,13.672-5.373
		c5.742,0,10.227,1.823,13.453,5.469C766.97,461.248,768.583,466.279,768.583,472.695z M736.729,472.695
		c0,5.414,1.151,9.521,3.459,12.316c2.307,2.8,5.654,4.197,10.05,4.197c4.43,0,7.772-1.395,10.034-4.184
		c2.261-2.789,3.392-6.899,3.392-12.332c0-5.377-1.126-9.456-3.377-12.236c-2.252-2.779-5.583-4.17-9.994-4.17
		c-4.43,0-7.798,1.398-10.104,4.197C737.88,463.285,736.729,467.354,736.729,472.695z"/>
	<path fill="#FFFFFF" d="M809.407,472.367c0,6.6-1.791,11.645-5.373,15.135c-3.582,3.491-8.736,5.236-15.463,5.236h-11.074V452.76
		h12.25c6.216,0,11.047,1.725,14.492,5.168C807.684,461.374,809.407,466.188,809.407,472.367z M804.485,472.531
		c0-5.213-1.311-9.144-3.926-11.785c-2.614-2.643-6.504-3.965-11.66-3.965h-6.756v31.938h5.66c5.541,0,9.707-1.36,12.496-4.088
		C803.091,481.906,804.485,477.873,804.485,472.531z"/>
	<path fill="#FFFFFF" d="M840.606,492.738h-22.285V452.76h22.285v4.129H822.97v12.88h16.57v4.103h-16.57v14.711h17.639
		L840.606,492.738L840.606,492.738z"/>
	<path fill="#FFFFFF" d="M854.114,476.113v16.625h-4.648V452.76h10.965c4.903,0,8.526,0.939,10.869,2.816
		c2.342,1.878,3.516,4.703,3.516,8.477c0,5.287-2.682,8.859-8.039,10.721l10.854,17.965h-5.496l-9.68-16.625H854.114z
		 M854.114,472.121h6.371c3.279,0,5.688-0.651,7.219-1.955c1.531-1.303,2.297-3.258,2.297-5.865c0-2.643-0.779-4.548-2.338-5.715
		c-1.561-1.166-4.062-1.75-7.506-1.75h-6.043V472.121L854.114,472.121z"/>
	<path fill="#FFFFFF" d="M915.31,492.738h-5.305l-21.848-33.551h-0.22c0.291,3.938,0.438,7.547,0.438,10.826v22.725h-4.293V452.76
		h5.25l21.793,33.414h0.219c-0.037-0.492-0.119-2.073-0.246-4.744c-0.128-2.67-0.174-4.579-0.137-5.729V452.76h4.348L915.31,492.738
		L915.31,492.738z"/>
	<path fill="#FFFFFF" d="M753.927,559.938l-4.977-12.716h-16.023l-4.922,12.716h-4.703l15.807-40.142h3.908l15.725,40.142H753.927z
		 M747.501,543.04l-4.648-12.387c-0.602-1.567-1.222-3.49-1.857-5.771c-0.401,1.75-0.978,3.674-1.724,5.771l-4.702,12.387H747.501z"
		/>
	<path fill="#FFFFFF" d="M781.817,538.993h13.59v19.439c-2.115,0.677-4.268,1.188-6.453,1.531c-2.188,0.345-4.722,0.521-7.604,0.521
		c-6.053,0-10.765-1.802-14.137-5.4c-3.373-3.6-5.059-8.646-5.059-15.135c0-4.156,0.834-7.797,2.502-10.924
		c1.668-3.126,4.067-5.516,7.205-7.164c3.135-1.649,6.809-2.477,11.02-2.477c4.268,0,8.239,0.784,11.922,2.354L793,525.841
		c-3.609-1.531-7.082-2.297-10.418-2.297c-4.867,0-8.668,1.449-11.402,4.348c-2.732,2.899-4.102,6.919-4.102,12.061
		c0,5.396,1.315,9.488,3.951,12.276c2.634,2.788,6.503,4.185,11.605,4.185c2.771,0,5.479-0.318,8.121-0.957V543.15h-8.939
		L781.817,538.993L781.817,538.993z"/>
	<path fill="#FFFFFF" d="M805.005,559.938V519.96h4.648v39.978H805.005z"/>
	<path fill="#FFFFFF" d="M820.618,559.938V519.96h4.646v35.766h17.639v4.212H820.618L820.618,559.938z"/>
	<path fill="#FFFFFF" d="M871.97,559.938h-22.285V519.96h22.285v4.129h-17.637v12.879h16.57v4.104h-16.57v14.711h17.637V559.938z"/>
</g>
<path fill="#4B5666" d="M1219.084,421.111c-0.154,0-0.318-0.014-0.491-0.037l-6.543-0.916l-0.001,47.771
	c0,1.871-1.476,3.809-3.276,4.307l-48.065,13.234c-0.9,0.248-2.091,0.373-3.277,0.373c-1.188,0-2.377-0.125-3.278-0.373
	l-48.062-13.234c-1.805-0.498-3.277-2.436-3.277-4.307v-47.771l-6.545,0.916c-0.173,0.023-0.337,0.037-0.489,0.037
	c-1.511,0-2.166-1.113-1.457-2.654l9.196-20.029c0.78-1.697,2.896-3.498,4.698-3.994l48.064-13.24
	c0.301-0.082,0.58-0.123,0.836-0.123c0.113,0,0.215,0.018,0.314,0.033c0.104-0.016,0.203-0.033,0.316-0.033
	c0.256,0,0.535,0.041,0.836,0.123l48.064,13.24c1.805,0.496,3.918,2.295,4.697,3.994l9.197,20.029
	C1221.25,419.998,1220.594,421.111,1219.084,421.111z M1110.098,462.482c0,1.238,1.006,2.242,2.246,2.242s2.244-1.004,2.244-2.242
	v-21.426c0-1.238-1.004-2.244-2.244-2.244s-2.246,1.006-2.246,2.244V462.482z M1109.402,398.762
	c-0.531,0.148-1.58,1.041-1.812,1.541l-7.189,15.658l44.932-6.303c0.229-0.076,0.629-0.418,0.738-0.633l6.801-22.238
	L1109.402,398.762z M1157.807,412.42l-0.379-1.238v66.352c0.785,0,1.303-0.09,1.42-0.121l46.202-12.727v-38.439l-37.157-5.213
	C1163.384,420.398,1159.142,416.777,1157.807,412.42z M1207.264,400.303c-0.229-0.5-1.277-1.393-1.811-1.541l-43.47-11.975
	l6.801,22.238c0.108,0.215,0.509,0.557,0.739,0.633l44.931,6.303L1207.264,400.303z"/>
</svg>
