<?xml version="1.0" encoding="utf-8"?>
<!-- Generator: Adobe Illustrator 15.0.2, SVG Export Plug-In . SVG Version: 6.00 Build 0)  -->
<!DOCTYPE svg PUBLIC "-//W3C//DTD SVG 1.1//EN" "http://www.w3.org/Graphics/SVG/1.1/DTD/svg11.dtd">
<svg version="1.1" id="Layer_1" xmlns="http://www.w3.org/2000/svg" xmlns:xlink="http://www.w3.org/1999/xlink" x="0px" y="0px"
	 width="12364.753px" height="1113.661px" viewBox="-5711.875 -3.345 12364.753 1113.661"
	 enable-background="new -5711.875 -3.345 12364.753 1113.661" xml:space="preserve">
<g>
	<circle fill="#4B5666" cx="-5156.717" cy="555.158" r="555.158"/>
	<g>
		<g>
			<path fill="#FBD35C" d="M-5504.942,206.927c192.477-192.475,503.977-192.472,696.454,0.007l-348.224,348.223L-5504.942,206.927z"
				/>
		</g>
		<g>
			<path fill="#A4D970" d="M-4808.485,206.929c192.478,192.477,192.473,503.976-0.006,696.453l-348.224-348.223L-4808.485,206.929z"
				/>
		</g>
		<g>
			<path fill="#A1BDE3" d="M-4808.491,903.389c-192.476,192.478-503.976,192.473-696.454-0.006l348.225-348.223L-4808.491,903.389z"
				/>
		</g>
		<g>
			<path fill="#FA7977" d="M-5504.948,903.387c-192.476-192.477-192.472-503.975,0.006-696.453l348.226,348.223L-5504.948,903.387z"
				/>
		</g>
	</g>
	<circle fill="#4B5666" cx="-5156.717" cy="555.158" r="228.982"/>
</g>
<g>
	<g>
		<path fill="#FFFFFF" d="M-2945.563,1086.808l-69.814-913.373l-370.626,919.568h-83.754l-372.174-919.568l-69.788,913.373h-99.245
			l85.306-1069.988h131.802l367.525,933.516l369.048-933.516h130.282l85.303,1069.988H-2945.563z"/>
		<path fill="#FFFFFF" d="M-2148.448,1106.972c-285.341,0-480.762-226.374-480.762-553.592
			c0-328.772,198.489-556.725,483.836-556.725c288.444,0,482.288,226.403,482.288,553.598
			C-1663.058,877.477-1860.004,1106.972-2148.448,1106.972z M-2146.899,92.802c-224.878,0-372.198,186.076-372.198,457.451
			c0,274.47,148.869,460.574,373.747,460.574c224.854,0,372.174-186.104,372.174-457.477
			C-1773.176,278.878-1922.045,92.802-2146.899,92.802z"/>
		<path fill="#FFFFFF" d="M-1138.894,1086.808h-286.896V16.819h291.519c356.681,0,556.748,215.559,556.748,533.434
			C-577.522,879.02-794.633,1086.808-1138.894,1086.808z M-1132.698,112.966h-186.075v877.697h186.075
			c271.402,0,445.057-145.776,445.057-438.861C-687.641,263.387-865.943,112.966-1132.698,112.966z"/>
		<path fill="#FFFFFF" d="M-338.652,1086.808V16.819h558.221v96.147H-231.66v365.976h356.633l15.518,96.145H-231.66v415.6h466.747
			v96.145h-573.738V1086.808z"/>
		<path fill="#FFFFFF" d="M1143.815,1074.417l-108.511,23.237L687.916,613.848H549.89v472.96H442.898V16.819h272.956
			c209.332,0,342.689,105.442,342.689,291.542c0,165.882-107.021,260.51-254.312,291.482L1143.815,1074.417z M711.178,111.417
			H549.89v410.927h142.673c158.139,0,257.387-71.334,257.387-207.788C949.973,184.303,866.271,111.417,711.178,111.417z"/>
		<path fill="#FFFFFF" d="M2047.928,1086.808l-624.961-900.956v900.956H1322.17V16.819h100.797l606.322,873.023V16.819h100.819
			v1069.988H2047.928z"/>
	</g>
	<g>
		<path fill="#FFFFFF" d="M3599.432,1097.654l-138.027-356.627h-468.318l-131.802,345.78h-108.541l421.766-1076.16h110.119
			l418.698,1063.77L3599.432,1097.654z M3227.233,136.23l-195.392,510.172h393.857L3227.233,136.23z"/>
		<path fill="#FFFFFF" d="M4318.993,1106.972c-316.328,0-502.428-226.397-502.428-553.621c0-328.743,193.844-556.695,493.13-556.695
			c131.778,0,234.123,34.103,316.328,93.046l-18.586,110.089c-79.112-63.537-176.806-106.992-299.291-106.992
			c-238.794,0-381.491,182.978-381.491,459.002c0,276.019,142.673,457.471,393.887,457.471c100.768,0,173.656-23.262,245.014-66.664
			V621.586h-257.409l-15.518-96.144h378.398v472.971C4571.756,1063.546,4456.991,1106.972,4318.993,1106.972z"/>
		<path fill="#FFFFFF" d="M4951.698,1086.808V16.819h107.016v1069.988H4951.698z"/>
		<path fill="#FFFFFF" d="M5356.48,1086.808V16.819h106.991v973.844h412.503l15.518,96.168H5356.48V1086.808z"/>
		<path fill="#FFFFFF" d="M6079.087,1086.808V16.819h558.297v96.173h-451.281v365.973h356.686l15.488,96.121h-372.174v415.6h466.775
			v96.18h-573.791V1086.808z"/>
	</g>
</g>
</svg>
