<?xml version="1.0" encoding="utf-8"?>
<!-- Generator: Adobe Illustrator 15.0.2, SVG Export Plug-In . SVG Version: 6.00 Build 0)  -->
<!DOCTYPE svg PUBLIC "-//W3C//DTD SVG 1.1//EN" "http://www.w3.org/Graphics/SVG/1.1/DTD/svg11.dtd">
<svg version="1.1" id="Layer_1" xmlns="http://www.w3.org/2000/svg" xmlns:xlink="http://www.w3.org/1999/xlink" x="0px" y="0px"
	 width="257.717px" height="257.719px" viewBox="4.588 4.588 257.717 257.719" enable-background="new 4.588 4.588 257.717 257.719"
	 xml:space="preserve">
<path fill="#FFFFFF" d="M248.082,4.588H18.812c-7.856,0-14.224,6.367-14.224,14.224v229.271c0,7.854,6.366,14.225,14.224,14.225
	h123.432v-99.803h-33.585v-38.896h33.585V94.925c0-33.287,20.33-51.413,50.024-51.413c14.225,0,26.45,1.059,30.012,1.533v34.788
	l-20.596,0.009c-16.147,0-19.274,7.674-19.274,18.935v24.832h38.515l-5.016,38.896h-33.499v99.803h65.673
	c7.854,0,14.223-6.369,14.223-14.225V18.812C262.305,10.955,255.937,4.588,248.082,4.588z"/>
</svg>
