<?xml version="1.0" encoding="utf-8"?>
<!-- Generator: Adobe Illustrator 15.0.2, SVG Export Plug-In . SVG Version: 6.00 Build 0)  -->
<!DOCTYPE svg PUBLIC "-//W3C//DTD SVG 1.1//EN" "http://www.w3.org/Graphics/SVG/1.1/DTD/svg11.dtd">
<svg version="1.1" id="Layer_1" xmlns="http://www.w3.org/2000/svg" xmlns:xlink="http://www.w3.org/1999/xlink" x="0px" y="0px"
	 width="134.089px" height="158.924px" viewBox="0 0 134.089 158.924" enable-background="new 0 0 134.089 158.924"
	 xml:space="preserve">
<path fill="#4C5767" d="M128.94,0H5.143C2.305,0,0,2.301,0,5.141l0.006,47.705c0,0.004,0.001,0.01,0.001,0.014
	c0,14.33,0,28.703,0,33.506c0,10.648,3.594,25.996,17.354,41.408c19.716,22.082,49.687,31.15,49.687,31.15
	s29.971-9.068,49.687-31.15c13.76-15.412,17.354-30.76,17.354-41.408c0-4.803,0-19.176,0-33.506c0-0.004,0.002-0.01,0.002-0.014
	l-0.006-47.705C134.083,2.301,131.778,0,128.94,0z M123.471,52.678c-0.001,0.061-0.001,0.121-0.001,0.182v33.506
	c0,6.693-1.906,20.055-14.656,34.336c-13.92,15.592-34.113,24.148-41.767,26.99L67.042,10.617h56.424L123.471,52.678z"/>
</svg>
