<?xml version="1.0" encoding="utf-8"?>
<!-- Generator: Adobe Illustrator 15.0.2, SVG Export Plug-In . SVG Version: 6.00 Build 0)  -->
<!DOCTYPE svg PUBLIC "-//W3C//DTD SVG 1.1//EN" "http://www.w3.org/Graphics/SVG/1.1/DTD/svg11.dtd">
<svg version="1.1" id="Layer_1" xmlns="http://www.w3.org/2000/svg" xmlns:xlink="http://www.w3.org/1999/xlink" x="0px" y="0px"
	 width="177.414px" height="158.924px" viewBox="0 0 177.414 158.924" enable-background="new 0 0 177.414 158.924"
	 xml:space="preserve">
<path fill="#4C5767" d="M125.668,0c-14.49,0-33.269,8.542-36.961,22.919l-0.003-0.003v0.003C85.01,8.542,66.231,0,51.745,0
	C23.174,0,0,22.179,0,51.746c0,34.79,20.572,56.079,42.996,73.354c13.454,10.365,43.309,33.824,45.672,33.824
	c0.012,0,0.023-0.004,0.036-0.004c0.012,0,0.025,0.004,0.038,0.004c2.362,0,32.219-23.459,45.672-33.824
	c22.424-17.275,43-38.564,43-73.354C177.414,22.179,154.24,0,125.668,0z"/>
</svg>
