<?xml version="1.0" encoding="utf-8"?>
<!-- Generator: Adobe Illustrator 15.0.2, SVG Export Plug-In . SVG Version: 6.00 Build 0)  -->
<!DOCTYPE svg PUBLIC "-//W3C//DTD SVG 1.1//EN" "http://www.w3.org/Graphics/SVG/1.1/DTD/svg11.dtd">
<svg version="1.1" id="Layer_1" xmlns="http://www.w3.org/2000/svg" xmlns:xlink="http://www.w3.org/1999/xlink" x="0px" y="0px"
	 width="76.471px" height="104.772px" viewBox="0 0 76.471 104.772" enable-background="new 0 0 76.471 104.772"
	 xml:space="preserve">
<g>
	<path d="M52.941,34.045V11.832h1.391c1.217,0,2.205-0.986,2.205-2.205V2.203C56.537,0.986,55.548,0,54.332,0H22.138
		c-1.218,0-2.205,0.986-2.205,2.203v7.424c0,1.219,0.987,2.205,2.205,2.205h1.392v22.213C9.714,39.807,0,53.44,0,69.344
		c0,16.027,9.863,29.74,23.847,35.429h28.777c13.983-5.688,23.847-19.4,23.847-35.429C76.471,53.439,66.757,39.807,52.941,34.045z
		 M51.185,97.771H25.287C14.135,92.696,7,81.676,7,69.343c0-12.647,7.546-23.968,19.224-28.838l4.306-1.796v-4.665V11.831h15.412
		v22.213v4.665l4.306,1.796c11.678,4.87,19.225,16.189,19.225,28.838C69.471,81.677,62.335,92.696,51.185,97.771z"/>
	<path d="M12.43,69.803c0.12,9.562,5.432,17.861,13.25,22.224h25.112c7.817-4.361,13.129-12.662,13.25-22.224H12.43z M33.661,89.902
		c-2.347,0-4.249-1.902-4.249-4.248c0-2.349,1.902-4.25,4.249-4.25c2.347,0,4.249,1.901,4.249,4.25
		C37.91,88,36.007,89.902,33.661,89.902z M36.765,75.359c-0.812,0-1.471-0.658-1.471-1.472c0-0.812,0.659-1.471,1.471-1.471
		s1.47,0.658,1.47,1.471C38.235,74.701,37.577,75.359,36.765,75.359z M46.569,84.184c-1.534,0-2.778-1.243-2.778-2.778
		s1.244-2.777,2.778-2.777s2.778,1.242,2.778,2.777S48.103,84.184,46.569,84.184z"/>
</g>
</svg>
