<?xml version="1.0" encoding="utf-8"?>
<!-- Generator: Adobe Illustrator 15.0.2, SVG Export Plug-In . SVG Version: 6.00 Build 0)  -->
<!DOCTYPE svg PUBLIC "-//W3C//DTD SVG 1.1//EN" "http://www.w3.org/Graphics/SVG/1.1/DTD/svg11.dtd">
<svg version="1.1" id="Layer_1" xmlns="http://www.w3.org/2000/svg" xmlns:xlink="http://www.w3.org/1999/xlink" x="0px" y="0px"
	 width="192.33px" height="158.925px" viewBox="0 0 192.33 158.925" enable-background="new 0 0 192.33 158.925"
	 xml:space="preserve">
<path fill-rule="evenodd" clip-rule="evenodd" fill="#4C5767" d="M189.687,60.735c-0.234,0-0.482-0.018-0.745-0.057l-9.925-1.389
	l-0.001,72.464c0,2.838-2.238,5.773-4.973,6.529l-72.907,20.077c-1.367,0.376-3.171,0.565-4.973,0.565
	c-1.804,0-3.605-0.189-4.974-0.565l-72.902-20.077c-2.737-0.756-4.974-3.691-4.974-6.529l0.001-72.464l-9.928,1.389
	c-0.261,0.039-0.509,0.057-0.743,0.057c-2.29,0-3.285-1.689-2.21-4.026l13.95-30.381c1.186-2.577,4.391-5.306,7.128-6.059
	L94.417,0.187C94.873,0.062,95.297,0,95.685,0c0.172,0,0.326,0.027,0.48,0.05C96.322,0.027,96.474,0,96.645,0
	c0.389,0,0.812,0.062,1.269,0.187l72.905,20.083c2.737,0.753,5.942,3.481,7.128,6.059l13.95,30.381
	C192.972,59.046,191.977,60.735,189.687,60.735z M23.319,26.835c-0.806,0.225-2.396,1.579-2.746,2.337L9.665,52.923l68.153-9.56
	c0.35-0.116,0.954-0.634,1.119-0.96L89.253,8.671L23.319,26.835z M96.739,47.552l-0.574-1.878v100.64
	c1.191,0,1.975-0.137,2.153-0.184l70.081-19.301V68.521l-56.361-7.907C105.199,59.654,98.765,54.161,96.739,47.552z M171.757,29.172
	c-0.35-0.758-1.94-2.112-2.746-2.337L103.075,8.671l10.315,33.731c0.166,0.326,0.771,0.844,1.121,0.96l68.152,9.56L171.757,29.172z"
	/>
</svg>
