<?xml version="1.0" encoding="utf-8"?>
<!-- Generator: Adobe Illustrator 15.0.2, SVG Export Plug-In . SVG Version: 6.00 Build 0)  -->
<!DOCTYPE svg PUBLIC "-//W3C//DTD SVG 1.1//EN" "http://www.w3.org/Graphics/SVG/1.1/DTD/svg11.dtd">
<svg version="1.1" id="Layer_1" xmlns="http://www.w3.org/2000/svg" xmlns:xlink="http://www.w3.org/1999/xlink" x="0px" y="0px"
	 width="116px" height="158.926px" viewBox="0 0 116 158.926" enable-background="new 0 0 116 158.926" xml:space="preserve">
<path fill="#4C5767" d="M116,105.883c0,21.85-12.09,40.865-29.937,50.751c0,0-2.169,1.241-4.995,1.729
	c-2.749,0.475-4.777,0.562-4.777,0.562H58H39.712c0,0-2.032-0.089-4.781-0.562c-2.826-0.488-4.995-1.729-4.995-1.729
	C12.088,146.748,0,127.732,0,105.883c0-24.127,14.733-44.807,35.692-53.547V19.391c-2.851,0-5.16-2.311-5.16-5.159V5.158
	c0-2.85,2.31-5.158,5.16-5.158h44.615c2.85,0,5.159,2.31,5.159,5.158v9.074c0,2.85-2.311,5.159-5.159,5.159v32.944
	C101.265,61.078,116,81.756,116,105.883z M76.222,62.135c-3.955-1.649-6.532-5.515-6.532-9.8V19.391H46.311v32.944
	c0,4.285-2.576,8.149-6.531,9.8c-17.713,7.39-29.16,24.561-29.16,43.748c0,17.213,9.369,33.099,24.454,41.459
	c0.229,0.117,0.963,0.437,1.666,0.56c1.567,0.271,2.829,0.375,3.285,0.407H58H75.98c0.43-0.029,1.701-0.135,3.286-0.408
	c0.702-0.122,1.431-0.44,1.661-0.559c15.083-8.36,24.454-24.246,24.454-41.459C105.38,86.696,93.937,69.525,76.222,62.135z
	 M98.57,105.883c0,14.627-7.901,28.134-20.65,35.337c-0.98,0.161-1.793,0.243-2.211,0.277H40.281
	c-0.386-0.033-1.204-0.112-2.197-0.277c-12.75-7.202-20.656-20.71-20.656-35.337c0-5.152,0.979-10.079,2.737-14.618h75.669
	C97.594,95.804,98.57,100.73,98.57,105.883z"/>
</svg>
