<?xml version="1.0" encoding="utf-8"?>
<!-- Generator: Adobe Illustrator 15.0.2, SVG Export Plug-In . SVG Version: 6.00 Build 0)  -->
<!DOCTYPE svg PUBLIC "-//W3C//DTD SVG 1.1//EN" "http://www.w3.org/Graphics/SVG/1.1/DTD/svg11.dtd">
<svg version="1.1" id="Layer_1" xmlns="http://www.w3.org/2000/svg" xmlns:xlink="http://www.w3.org/1999/xlink" x="0px" y="0px"
	 width="104.771px" height="104.771px" viewBox="0 0 104.771 104.771" enable-background="new 0 0 104.771 104.771"
	 xml:space="preserve">
<path fill="#FFFFFF" d="M52.387,7c25.023,0,45.386,20.36,45.386,45.385c0,25.026-20.36,45.388-45.386,45.388
	c-25.026,0-45.389-20.36-45.389-45.388C7,27.36,27.361,7,52.387,7 M52.387,0C23.453,0-0.001,23.454-0.001,52.385
	c0,28.934,23.454,52.388,52.389,52.388c28.931,0,52.386-23.454,52.386-52.388C104.773,23.453,81.318,0,52.387,0L52.387,0z"/>
<polygon fill="#FFFFFF" points="83.386,48.885 55.886,48.885 55.886,21.385 48.886,21.385 48.886,48.885 21.386,48.885 
	21.386,55.885 48.886,55.885 48.886,83.385 55.886,83.385 55.886,55.885 83.386,55.885 "/>
</svg>
