<?xml version="1.0" encoding="utf-8"?>
<!-- Generator: Adobe Illustrator 15.0.2, SVG Export Plug-In . SVG Version: 6.00 Build 0)  -->
<!DOCTYPE svg PUBLIC "-//W3C//DTD SVG 1.1//EN" "http://www.w3.org/Graphics/SVG/1.1/DTD/svg11.dtd">
<svg version="1.1" id="Layer_1" xmlns="http://www.w3.org/2000/svg" xmlns:xlink="http://www.w3.org/1999/xlink" x="0px" y="0px"
	 width="133.319px" height="104.771px" viewBox="0 0 133.319 104.771" enable-background="new 0 0 133.319 104.771"
	 xml:space="preserve">
<path d="M133.319,41.258L121.28,15.047L66.66,0L12.037,15.047L0,41.258l12.037-1.645v50.115l54.623,15.043l54.62-15.043v-50.16
	l-42.584-5.978L133.319,41.258z M17.037,20.93l39.101-10.771l-5.361,17.099l-39.098,5.34L17.037,20.93z M19.037,84.396V45.722
	l38.036-5.194l4.402-0.603l1.33-4.238l3.854-12.29V97.51L19.037,84.396z M116.279,20.93l5.336,11.617l-37.757-5.299l-6.062-16.919
	L116.279,20.93z"/>
</svg>
