<?xml version="1.0" encoding="utf-8"?>
<!-- Generator: Adobe Illustrator 15.0.2, SVG Export Plug-In . SVG Version: 6.00 Build 0)  -->
<!DOCTYPE svg PUBLIC "-//W3C//DTD SVG 1.1//EN" "http://www.w3.org/Graphics/SVG/1.1/DTD/svg11.dtd">
<svg version="1.1" id="Layer_1" xmlns="http://www.w3.org/2000/svg" xmlns:xlink="http://www.w3.org/1999/xlink" x="0px" y="0px"
	 width="949.025px" height="400.004px" viewBox="-362.005 19.27 949.025 400.004"
	 enable-background="new -362.005 19.27 949.025 400.004" xml:space="preserve">
<g>
	<circle fill="#4B5666" cx="-162.005" cy="219.273" r="200"/>
	<g>
		<path fill="#FBD35C" d="M-296.625,84.651c74.408-74.407,194.83-74.406,269.239,0.003l-134.618,134.62L-296.625,84.651z"/>
	</g>
	<g>
		<path fill="#A4D970" d="M-27.383,84.653c74.408,74.409,74.406,194.832-0.003,269.24l-134.618-134.619L-27.383,84.653z"/>
	</g>
	<g>
		<path fill="#9EBEED" d="M-27.386,353.895c-74.408,74.409-194.83,74.407-269.24-0.002l134.62-134.619L-27.386,353.895z"/>
	</g>
	<g>
		<path fill="#FA7977" d="M-296.627,353.895c-74.408-74.41-74.407-194.832,0.003-269.241l134.619,134.62L-296.627,353.895z"/>
	</g>
	<circle fill="#4B5666" cx="-162.005" cy="219.273" r="67.597"/>
	<path fill="#4B5666" d="M-153.228,49.944c-3.44,0-7.9,2.028-8.777,5.442h-0.001l0,0c-0.878-3.414-5.337-5.442-8.777-5.442
		c-6.786,0-12.29,5.268-12.29,12.289c0,8.263,4.887,13.318,10.212,17.422c3.195,2.462,10.286,8.033,10.847,8.033
		c0.003,0,0.006-0.001,0.009-0.001s0.007,0.001,0.009,0.001c0.562,0,7.652-5.571,10.849-8.033
		c5.326-4.104,10.213-9.159,10.213-17.422C-140.937,55.211-146.441,49.944-153.228,49.944z M-175.551,55.502
		c-2.121,1.569-3.339,4.021-3.339,6.73c0,0.447-0.361,0.81-0.808,0.81c-0.447,0-0.81-0.362-0.81-0.81
		c0-3.227,1.456-6.153,3.994-8.031c0.359-0.266,0.865-0.189,1.131,0.17C-175.115,54.73-175.192,55.237-175.551,55.502z"/>
	<path fill="#4B5666" d="M-277.242,199.302c0,5.189-2.871,9.705-7.109,12.054c0,0-0.515,0.295-1.187,0.41
		c-0.653,0.112-1.135,0.133-1.135,0.133h-4.344h-4.343c0,0-0.483-0.021-1.136-0.133c-0.671-0.115-1.186-0.41-1.186-0.41
		c-4.239-2.349-7.109-6.863-7.109-12.054c0-5.729,3.499-10.642,8.476-12.718v-7.824c-0.677,0-1.225-0.549-1.225-1.225v-2.155
		c0-0.677,0.548-1.226,1.225-1.226h10.596c0.677,0,1.226,0.549,1.226,1.226v2.155c0,0.676-0.549,1.225-1.226,1.225v7.824
		C-280.741,188.662-277.242,193.572-277.242,199.302z M-287.472,174.988h-7.089c-0.446,0-0.809,0.362-0.809,0.809
		c0,0.447,0.362,0.809,0.809,0.809h7.089c0.447,0,0.809-0.361,0.809-0.809C-286.664,175.351-287.026,174.988-287.472,174.988z
		 M-286.689,188.914c-0.939-0.393-1.552-1.311-1.552-2.328v-7.824h-5.552v7.824c0,1.018-0.612,1.936-1.551,2.328
		c-4.207,1.755-6.925,5.832-6.925,10.39c0,4.088,2.226,7.86,5.808,9.846c0.054,0.027,0.228,0.104,0.396,0.134
		c0.372,0.063,0.672,0.089,0.78,0.097h4.269h4.27c0.103-0.008,0.404-0.031,0.781-0.098c0.167-0.028,0.34-0.104,0.395-0.133
		c3.583-1.985,5.808-5.758,5.808-9.846C-279.764,194.746-282.482,190.668-286.689,188.914z M-281.381,199.302
		c0,3.474-1.877,6.681-4.904,8.394c-0.233,0.037-0.426,0.058-0.525,0.064h-8.415c-0.092-0.008-0.286-0.025-0.522-0.064
		c-3.028-1.711-4.906-4.92-4.906-8.394c0-1.224,0.233-2.394,0.65-3.473h17.971C-281.613,196.909-281.381,198.08-281.381,199.302z
		 M-293.946,204.782c-2.075-1.314-3.36-3.64-3.36-6.093c0-0.446-0.362-0.809-0.809-0.809c-0.446,0-0.809,0.362-0.809,0.809
		c0,3.043,1.616,5.928,4.216,7.524l0.165,0.096l0.242,0.026c0.023,0.002,0.047,0.003,0.07,0.003c0.414,0,0.751-0.318,0.788-0.74
		C-293.413,205.24-293.629,204.917-293.946,204.782z"/>
	<path fill="#4B5666" d="M-147.304,307.927h-29.403c-0.674,0-1.221,0.548-1.221,1.222l0.001,11.33c0,0.002,0,0.004,0,0.004
		c0,3.402,0,6.816,0,7.957c0,2.528,0.854,6.174,4.122,9.836c4.683,5.244,11.801,7.396,11.801,7.396s7.118-2.152,11.801-7.396
		c3.269-3.662,4.121-7.308,4.121-9.836c0-1.141,0-4.555,0-7.957c0,0,0.001-0.002,0.001-0.004l-0.001-11.33
		C-146.083,308.475-146.63,307.927-147.304,307.927z M-170.599,336.76c-0.154,0.141-0.347,0.206-0.538,0.206
		c-0.223,0-0.444-0.092-0.604-0.271c-3.207-3.592-3.686-6.987-3.686-8.692c0-0.446,0.361-0.81,0.808-0.81
		c0.447,0,0.81,0.363,0.81,0.81c0,1.476,0.426,4.425,3.275,7.616C-170.236,335.953-170.268,336.463-170.599,336.76z
		 M-148.605,320.439c0,0.015,0,0.027,0,0.043v7.957c0,1.592-0.451,4.765-3.479,8.154c-3.308,3.703-8.103,5.736-9.92,6.411
		l-0.002-32.557h13.401V320.439z"/>
	<g>
		<path fill="#4B5666" d="M-206.817,106.475l-3.432-9.88h-0.064c0.092,1.467,0.138,2.843,0.138,4.127v5.753h-1.756v-11.83h2.727
			l3.285,9.41h0.049l3.383-9.41h2.735v11.83h-1.861v-5.851c0-0.588,0.015-1.354,0.044-2.298c0.029-0.944,0.056-1.516,0.076-1.716
			h-0.064l-3.552,9.864L-206.817,106.475L-206.817,106.475z"/>
		<path fill="#4B5666" d="M-191.24,106.475l-0.38-1.246h-0.065c-0.431,0.545-0.865,0.916-1.303,1.112
			c-0.437,0.197-0.998,0.295-1.683,0.295c-0.879,0-1.565-0.237-2.06-0.712c-0.493-0.475-0.74-1.146-0.74-2.015
			c0-0.922,0.343-1.618,1.027-2.088c0.686-0.469,1.729-0.725,3.132-0.769l1.545-0.048v-0.478c0-0.572-0.133-1-0.4-1.282
			c-0.267-0.284-0.681-0.426-1.241-0.426c-0.459,0-0.898,0.068-1.319,0.203c-0.421,0.135-0.825,0.294-1.214,0.477l-0.615-1.358
			c0.486-0.254,1.018-0.447,1.595-0.579s1.122-0.198,1.635-0.198c1.138,0,1.997,0.248,2.577,0.744
			c0.579,0.497,0.869,1.275,0.869,2.339v6.028L-191.24,106.475L-191.24,106.475z M-194.072,105.18c0.69,0,1.245-0.192,1.663-0.579
			c0.418-0.385,0.627-0.926,0.627-1.622v-0.776l-1.148,0.049c-0.896,0.032-1.548,0.182-1.955,0.448
			c-0.407,0.268-0.61,0.676-0.61,1.227c0,0.399,0.118,0.708,0.356,0.926C-194.902,105.07-194.547,105.18-194.072,105.18z"/>
		<path fill="#4B5666" d="M-185.39,101.749l1.076-1.342l2.702-2.882h2.193l-3.601,3.844l3.827,5.106h-2.233l-2.872-3.925
			l-1.045,0.857v3.067h-1.885v-12.59h1.885v6.142l-0.097,1.723H-185.39z"/>
		<path fill="#4B5666" d="M-173.843,106.635c-1.393,0-2.48-0.406-3.266-1.218c-0.784-0.812-1.178-1.93-1.178-3.354
			c0-1.462,0.365-2.611,1.093-3.447c0.729-0.836,1.729-1.254,3.002-1.254c1.182,0,2.115,0.359,2.8,1.076
			c0.686,0.718,1.028,1.705,1.028,2.962v1.027h-5.964c0.026,0.868,0.262,1.535,0.704,2.003c0.442,0.466,1.065,0.699,1.869,0.699
			c0.528,0,1.021-0.049,1.477-0.149s0.945-0.266,1.469-0.498v1.546c-0.464,0.222-0.934,0.378-1.408,0.47
			C-172.691,106.59-173.234,106.635-173.843,106.635z M-174.192,98.802c-0.604,0-1.088,0.192-1.452,0.575
			c-0.364,0.383-0.581,0.941-0.651,1.675h4.062c-0.012-0.739-0.189-1.299-0.534-1.679
			C-173.112,98.994-173.587,98.802-174.192,98.802z"/>
		<path fill="#4B5666" d="M-155.863,98.22c0,1.235-0.404,2.182-1.215,2.84c-0.81,0.658-1.961,0.987-3.455,0.987h-1.229v4.427h-1.934
			v-11.83h3.406c1.479,0,2.586,0.302,3.322,0.906C-156.232,96.154-155.863,97.044-155.863,98.22z M-161.763,100.421h1.027
			c0.992,0,1.722-0.173,2.186-0.518c0.464-0.346,0.695-0.886,0.695-1.619c0-0.68-0.207-1.187-0.623-1.521
			c-0.416-0.335-1.062-0.502-1.941-0.502h-1.344V100.421L-161.763,100.421z"/>
		<path fill="#4B5666" d="M-149.795,106.635c-1.392,0-2.479-0.406-3.265-1.218s-1.178-1.93-1.178-3.354
			c0-1.462,0.363-2.611,1.092-3.447c0.729-0.836,1.729-1.254,3.002-1.254c1.183,0,2.115,0.359,2.801,1.076
			c0.686,0.718,1.027,1.705,1.027,2.962v1.027h-5.965c0.027,0.868,0.262,1.535,0.705,2.003c0.441,0.466,1.064,0.699,1.869,0.699
			c0.528,0,1.021-0.049,1.477-0.149s0.945-0.266,1.47-0.498v1.546c-0.466,0.222-0.935,0.378-1.408,0.47
			C-148.642,106.59-149.185,106.635-149.795,106.635z M-150.144,98.802c-0.604,0-1.088,0.192-1.451,0.575
			c-0.364,0.383-0.582,0.941-0.651,1.675h4.062c-0.01-0.739-0.188-1.299-0.533-1.679C-149.062,98.993-149.539,98.802-150.144,98.802
			z"/>
		<path fill="#4B5666" d="M-136.217,101.983c0,1.462-0.375,2.603-1.125,3.423c-0.749,0.82-1.793,1.229-3.131,1.229
			c-0.837,0-1.575-0.188-2.218-0.566c-0.643-0.377-1.137-0.92-1.48-1.626c-0.346-0.707-0.518-1.526-0.518-2.46
			c0-1.451,0.371-2.584,1.115-3.398c0.745-0.814,1.795-1.222,3.147-1.222c1.295,0,2.319,0.416,3.075,1.25
			C-136.594,99.446-136.217,100.57-136.217,101.983z M-142.732,101.983c0,2.066,0.765,3.099,2.291,3.099
			c1.511,0,2.266-1.032,2.266-3.099c0-2.045-0.762-3.066-2.282-3.066c-0.798,0-1.377,0.264-1.735,0.793
			C-142.551,100.238-142.732,100.998-142.732,101.983z"/>
		<path fill="#4B5666" d="M-129.492,106.635c-1.134,0-2.013-0.406-2.639-1.221h-0.113c0.075,0.755,0.113,1.213,0.113,1.375v3.665
			h-1.9v-12.93h1.537c0.043,0.168,0.133,0.567,0.268,1.198h0.097c0.595-0.906,1.483-1.359,2.67-1.359
			c1.117,0,1.987,0.404,2.608,1.214c0.625,0.809,0.936,1.944,0.936,3.406s-0.316,2.603-0.949,3.423
			C-127.5,106.227-128.376,106.635-129.492,106.635z M-129.954,98.917c-0.756,0-1.307,0.221-1.655,0.663s-0.521,1.149-0.521,2.12
			v0.283c0,1.09,0.173,1.879,0.519,2.367c0.346,0.487,0.908,0.731,1.69,0.731c0.658,0,1.165-0.27,1.521-0.809
			s0.535-1.308,0.535-2.306c0-1.004-0.178-1.764-0.531-2.278C-128.75,99.173-129.269,98.917-129.954,98.917z"/>
		<path fill="#4B5666" d="M-121.805,106.475h-1.901V93.883h1.901V106.475z"/>
		<path fill="#4B5666" d="M-115.178,106.635c-1.394,0-2.479-0.406-3.267-1.218c-0.783-0.812-1.177-1.93-1.177-3.354
			c0-1.462,0.363-2.611,1.093-3.447c0.729-0.836,1.729-1.254,3.002-1.254c1.182,0,2.114,0.359,2.799,1.076
			c0.687,0.718,1.027,1.705,1.027,2.962v1.027h-5.963c0.026,0.868,0.262,1.535,0.703,2.003c0.443,0.466,1.064,0.699,1.869,0.699
			c0.529,0,1.021-0.049,1.479-0.149c0.455-0.1,0.944-0.266,1.469-0.498v1.546c-0.465,0.222-0.935,0.378-1.408,0.47
			C-114.027,106.59-114.568,106.635-115.178,106.635z M-115.527,98.802c-0.604,0-1.088,0.192-1.451,0.575
			c-0.364,0.383-0.582,0.941-0.651,1.675h4.062c-0.011-0.739-0.188-1.299-0.533-1.679
			C-114.445,98.993-114.922,98.802-115.527,98.802z"/>
		<path fill="#4B5666" d="M-192.107,126.36l-1.181-3.285h-4.524l-1.156,3.285h-2.039l4.426-11.878h2.104l4.427,11.878H-192.107z
			 M-193.798,121.409l-1.108-3.221c-0.081-0.216-0.192-0.557-0.335-1.021c-0.144-0.464-0.242-0.803-0.296-1.019
			c-0.146,0.663-0.358,1.389-0.639,2.176l-1.068,3.084L-193.798,121.409L-193.798,121.409z"/>
		<path fill="#4B5666" d="M-181.354,126.36l-1.157-4.175c-0.14-0.442-0.394-1.47-0.76-3.083h-0.073
			c-0.312,1.457-0.562,2.489-0.744,3.1l-1.189,4.158h-2.104l-2.508-8.949h1.941l1.142,4.41c0.259,1.09,0.441,2.022,0.55,2.8h0.049
			c0.054-0.394,0.136-0.845,0.246-1.355c0.111-0.51,0.207-0.891,0.288-1.145l1.358-4.71h2.088l1.319,4.71
			c0.081,0.264,0.183,0.668,0.303,1.213c0.122,0.546,0.193,0.969,0.215,1.271h0.065c0.08-0.663,0.27-1.591,0.565-2.783l1.157-4.41
			h1.91l-2.524,8.949L-181.354,126.36L-181.354,126.36z"/>
		<path fill="#4B5666" d="M-171.247,126.522c-1.392,0-2.479-0.405-3.265-1.218c-0.785-0.812-1.178-1.93-1.178-3.354
			c0-1.462,0.364-2.611,1.093-3.447c0.729-0.837,1.729-1.255,3.002-1.255c1.182,0,2.114,0.359,2.8,1.076
			c0.685,0.718,1.027,1.705,1.027,2.962v1.028h-5.964c0.027,0.868,0.263,1.536,0.704,2.002c0.442,0.467,1.066,0.7,1.87,0.7
			c0.528,0,1.021-0.05,1.477-0.149c0.456-0.101,0.945-0.266,1.469-0.498v1.545c-0.464,0.222-0.934,0.378-1.408,0.47
			C-170.093,126.477-170.636,126.522-171.247,126.522z M-171.594,118.69c-0.604,0-1.088,0.19-1.452,0.574
			c-0.364,0.383-0.581,0.941-0.651,1.675h4.062c-0.011-0.739-0.188-1.299-0.534-1.679
			C-170.515,118.879-170.99,118.69-171.594,118.69z"/>
		<path fill="#4B5666" d="M-159.594,123.812c0,0.874-0.318,1.544-0.955,2.011c-0.636,0.467-1.548,0.7-2.734,0.7
			c-1.192,0-2.149-0.181-2.873-0.542v-1.643c1.052,0.485,2.031,0.729,2.938,0.729c1.171,0,1.756-0.354,1.756-1.061
			c0-0.226-0.064-0.415-0.194-0.566c-0.129-0.15-0.343-0.308-0.64-0.47c-0.296-0.161-0.709-0.345-1.237-0.55
			c-1.031-0.399-1.728-0.798-2.092-1.197c-0.364-0.399-0.546-0.917-0.546-1.554c0-0.767,0.309-1.361,0.927-1.784
			c0.617-0.424,1.457-0.636,2.52-0.636c1.053,0,2.048,0.214,2.986,0.64l-0.615,1.432c-0.967-0.398-1.777-0.599-2.437-0.599
			c-1.003,0-1.505,0.286-1.505,0.858c0,0.28,0.131,0.518,0.393,0.712c0.262,0.194,0.832,0.461,1.711,0.801
			c0.74,0.286,1.276,0.548,1.61,0.785c0.335,0.237,0.583,0.511,0.744,0.821C-159.675,123.008-159.594,123.379-159.594,123.812z"/>
		<path fill="#4B5666" d="M-149.601,121.87c0,1.463-0.375,2.604-1.125,3.424c-0.75,0.82-1.793,1.229-3.131,1.229
			c-0.836,0-1.575-0.189-2.219-0.566c-0.642-0.378-1.136-0.919-1.479-1.627c-0.345-0.706-0.519-1.526-0.519-2.46
			c0-1.45,0.373-2.583,1.116-3.397c0.744-0.814,1.794-1.223,3.147-1.223c1.295,0,2.32,0.417,3.074,1.251
			C-149.978,119.333-149.601,120.457-149.601,121.87z M-156.115,121.87c0,2.067,0.764,3.1,2.291,3.1c1.51,0,2.266-1.032,2.266-3.1
			c0-2.043-0.762-3.066-2.282-3.066c-0.798,0-1.377,0.265-1.735,0.793C-155.935,120.125-156.115,120.882-156.115,121.87z"/>
		<path fill="#4B5666" d="M-139.875,126.36h-1.91v-5.518c0-0.686-0.129-1.197-0.389-1.534c-0.26-0.337-0.663-0.506-1.213-0.506
			c-0.733,0-1.271,0.238-1.614,0.717c-0.343,0.477-0.515,1.271-0.515,2.383v4.458h-1.901v-8.949h1.489l0.268,1.174h0.098
			c0.248-0.426,0.607-0.756,1.08-0.987c0.472-0.231,0.99-0.349,1.558-0.349c1.376,0,2.287,0.47,2.735,1.408h0.129
			c0.265-0.442,0.637-0.788,1.117-1.035c0.479-0.248,1.029-0.373,1.649-0.373c1.067,0,1.847,0.271,2.334,0.81
			c0.488,0.54,0.731,1.362,0.731,2.468v5.834h-1.9v-5.518c0-0.686-0.131-1.197-0.393-1.534s-0.668-0.506-1.219-0.506
			c-0.738,0-1.279,0.229-1.621,0.692c-0.344,0.462-0.515,1.169-0.515,2.124L-139.875,126.36L-139.875,126.36z"/>
		<path fill="#4B5666" d="M-127.665,126.522c-1.392,0-2.479-0.405-3.265-1.218c-0.786-0.813-1.178-1.93-1.178-3.354
			c0-1.462,0.363-2.611,1.093-3.447c0.729-0.837,1.729-1.255,3.002-1.255c1.182,0,2.114,0.359,2.8,1.076
			c0.686,0.718,1.027,1.705,1.027,2.962v1.028h-5.965c0.027,0.868,0.263,1.536,0.705,2.002c0.441,0.467,1.064,0.7,1.869,0.7
			c0.528,0,1.021-0.05,1.478-0.149c0.454-0.101,0.944-0.266,1.469-0.498v1.545c-0.465,0.222-0.935,0.378-1.408,0.47
			C-126.511,126.477-127.054,126.522-127.665,126.522z M-128.012,118.69c-0.604,0-1.089,0.19-1.452,0.574
			c-0.364,0.383-0.582,0.941-0.65,1.675h4.062c-0.011-0.739-0.188-1.299-0.534-1.679
			C-126.933,118.879-127.408,118.69-128.012,118.69z"/>
	</g>
	<g>
		<path fill="#4B5666" d="M-337.333,230.477h-6.691v-11.83h6.691v1.635h-4.758v3.221h4.458v1.618h-4.458v3.714h4.758V230.477z"/>
		<path fill="#4B5666" d="M-332.986,225.904l-3.002-4.379h2.169l2.039,3.133l2.056-3.133h2.152l-3.01,4.379l3.164,4.57h-2.153
			l-2.209-3.35l-2.201,3.35h-2.152L-332.986,225.904z"/>
		<path fill="#4B5666" d="M-321.311,230.639c-1.133,0-2.012-0.408-2.638-1.223h-0.113c0.076,0.755,0.113,1.214,0.113,1.376v3.665
			h-1.901v-12.932h1.537c0.043,0.168,0.133,0.566,0.267,1.197h0.097c0.594-0.906,1.484-1.358,2.67-1.358
			c1.117,0,1.987,0.405,2.61,1.214c0.624,0.811,0.935,1.945,0.935,3.406s-0.317,2.604-0.951,3.423
			C-319.318,230.229-320.193,230.639-321.311,230.639z M-321.771,222.918c-0.755,0-1.307,0.223-1.655,0.664
			c-0.348,0.441-0.522,1.148-0.522,2.12v0.282c0,1.09,0.173,1.879,0.518,2.367c0.346,0.487,0.91,0.731,1.691,0.731
			c0.658,0,1.166-0.271,1.521-0.81c0.355-0.539,0.534-1.309,0.534-2.307c0-1.004-0.177-1.763-0.53-2.277
			S-321.086,222.918-321.771,222.918z"/>
		<path fill="#4B5666" d="M-311.616,230.639c-1.392,0-2.479-0.406-3.265-1.219c-0.785-0.812-1.177-1.93-1.177-3.354
			c0-1.461,0.364-2.61,1.092-3.446c0.729-0.837,1.729-1.255,3.002-1.255c1.181,0,2.115,0.357,2.8,1.076
			c0.685,0.718,1.027,1.705,1.027,2.961v1.027h-5.963c0.027,0.869,0.262,1.536,0.704,2.004c0.442,0.467,1.065,0.699,1.869,0.699
			c0.528,0,1.021-0.05,1.477-0.15c0.456-0.099,0.945-0.266,1.468-0.496v1.546c-0.464,0.221-0.934,0.377-1.408,0.469
			C-310.464,230.592-311.006,230.639-311.616,230.639z M-311.964,222.805c-0.604,0-1.088,0.192-1.453,0.575
			c-0.365,0.384-0.581,0.94-0.651,1.675h4.062c-0.011-0.738-0.188-1.299-0.534-1.679
			C-310.885,222.996-311.36,222.805-311.964,222.805z"/>
		<path fill="#4B5666" d="M-301.438,221.364c0.383,0,0.699,0.026,0.947,0.081l-0.186,1.771c-0.271-0.063-0.55-0.097-0.842-0.097
			c-0.761,0-1.377,0.249-1.849,0.744c-0.472,0.496-0.708,1.142-0.708,1.935v4.677h-1.902v-8.949h1.489l0.251,1.578h0.097
			c0.296-0.533,0.684-0.957,1.161-1.271C-302.501,221.521-301.987,221.364-301.438,221.364z"/>
		<path fill="#4B5666" d="M-298.944,219.154c0-0.34,0.093-0.602,0.279-0.783c0.186-0.184,0.452-0.275,0.797-0.275
			c0.335,0,0.595,0.092,0.781,0.275c0.187,0.184,0.279,0.443,0.279,0.783c0,0.324-0.093,0.58-0.279,0.766
			c-0.186,0.188-0.446,0.28-0.781,0.28c-0.345,0-0.611-0.095-0.797-0.28C-298.853,219.734-298.944,219.479-298.944,219.154z
			 M-296.93,230.477h-1.901v-8.949h1.901V230.477z"/>
		<path fill="#4B5666" d="M-286.669,230.477h-1.91v-5.52c0-0.686-0.13-1.196-0.389-1.533c-0.259-0.337-0.664-0.506-1.214-0.506
			c-0.733,0-1.271,0.239-1.614,0.717c-0.343,0.477-0.514,1.271-0.514,2.383v4.459h-1.901v-8.949h1.489l0.267,1.174h0.097
			c0.248-0.428,0.608-0.756,1.081-0.987c0.471-0.231,0.991-0.349,1.557-0.349c1.375,0,2.287,0.47,2.735,1.408h0.13
			c0.264-0.441,0.636-0.789,1.117-1.037c0.48-0.248,1.03-0.371,1.65-0.371c1.068,0,1.846,0.271,2.334,0.81
			c0.488,0.539,0.732,1.362,0.732,2.468v5.834h-1.902v-5.519c0-0.687-0.131-1.196-0.392-1.533c-0.262-0.337-0.668-0.506-1.218-0.506
			c-0.739,0-1.28,0.231-1.623,0.69c-0.342,0.463-0.513,1.17-0.513,2.125L-286.669,230.477L-286.669,230.477z"/>
		<path fill="#4B5666" d="M-274.459,230.639c-1.392,0-2.479-0.406-3.265-1.219c-0.784-0.812-1.177-1.93-1.177-3.354
			c0-1.461,0.364-2.61,1.092-3.446c0.729-0.837,1.729-1.255,3.002-1.255c1.181,0,2.115,0.357,2.8,1.076
			c0.685,0.718,1.027,1.705,1.027,2.961v1.027h-5.963c0.027,0.869,0.262,1.536,0.704,2.004c0.443,0.467,1.065,0.699,1.869,0.699
			c0.529,0,1.021-0.05,1.477-0.15c0.456-0.099,0.945-0.266,1.469-0.496v1.546c-0.464,0.221-0.933,0.377-1.408,0.469
			C-273.307,230.592-273.849,230.639-274.459,230.639z M-274.807,222.805c-0.604,0-1.089,0.192-1.452,0.575
			c-0.365,0.384-0.582,0.94-0.652,1.675h4.062c-0.011-0.738-0.189-1.299-0.534-1.679
			C-273.729,222.996-274.204,222.805-274.807,222.805z"/>
		<path fill="#4B5666" d="M-260.945,230.477h-1.91v-5.502c0-0.69-0.139-1.207-0.417-1.547s-0.719-0.51-1.323-0.51
			c-0.804,0-1.392,0.236-1.764,0.713c-0.372,0.475-0.559,1.27-0.559,2.387v4.459h-1.901v-8.949h1.489l0.267,1.174h0.097
			c0.27-0.428,0.653-0.756,1.149-0.987s1.046-0.349,1.65-0.349c2.147,0,3.221,1.093,3.221,3.277L-260.945,230.477L-260.945,230.477z
			"/>
		<path fill="#4B5666" d="M-254.966,229.1c0.464,0,0.928-0.072,1.392-0.218v1.433c-0.21,0.093-0.481,0.17-0.813,0.23
			c-0.332,0.061-0.676,0.094-1.032,0.094c-1.802,0-2.703-0.949-2.703-2.849v-4.823h-1.222v-0.842l1.311-0.695l0.647-1.894h1.173
			v1.989h2.549v1.44h-2.549v4.791c0,0.458,0.115,0.798,0.344,1.015C-255.639,228.991-255.338,229.1-254.966,229.1z"/>
		<path fill="#4B5666" d="M-248.064,227.343c0-0.706,0.173-1.321,0.518-1.849c0.345-0.526,0.968-1.049,1.869-1.564
			c-0.512-0.6-0.861-1.104-1.048-1.519c-0.186-0.412-0.279-0.841-0.279-1.282c0-0.82,0.292-1.467,0.877-1.941
			c0.586-0.475,1.372-0.713,2.359-0.713c0.955,0,1.705,0.23,2.25,0.692c0.545,0.461,0.817,1.082,0.817,1.865
			c0,0.614-0.182,1.173-0.546,1.675c-0.365,0.501-0.973,1.003-1.825,1.505l2.8,2.703c0.437-0.577,0.801-1.425,1.093-2.541h1.958
			c-0.377,1.532-0.982,2.78-1.812,3.746l2.436,2.354h-2.452l-1.206-1.174c-0.551,0.442-1.137,0.775-1.76,0.999
			s-1.312,0.336-2.067,0.336c-1.241,0-2.215-0.294-2.921-0.882C-247.711,229.168-248.064,228.364-248.064,227.343z
			 M-243.985,229.002c0.987,0,1.832-0.288,2.533-0.865l-3.099-3.051c-0.572,0.366-0.966,0.711-1.181,1.031
			c-0.216,0.32-0.324,0.688-0.324,1.097c0,0.529,0.188,0.959,0.562,1.291C-245.121,228.837-244.616,229.002-243.985,229.002z
			 M-245.191,221.195c0,0.339,0.09,0.66,0.271,0.962c0.181,0.303,0.433,0.624,0.756,0.963c0.61-0.345,1.037-0.667,1.283-0.968
			c0.246-0.299,0.369-0.635,0.369-1.008c0-0.351-0.118-0.629-0.353-0.84c-0.235-0.212-0.546-0.316-0.935-0.316
			c-0.426,0-0.764,0.109-1.016,0.328C-245.066,220.536-245.191,220.829-245.191,221.195z"/>
		<path fill="#4B5666" d="M-344.064,250.361v-11.829h1.934v10.171h5.009v1.658H-344.064z"/>
		<path fill="#4B5666" d="M-331.376,250.523c-1.392,0-2.48-0.405-3.265-1.219c-0.785-0.812-1.177-1.93-1.177-3.354
			c0-1.463,0.364-2.611,1.092-3.446c0.729-0.837,1.729-1.255,3.002-1.255c1.182,0,2.115,0.359,2.8,1.076
			c0.685,0.718,1.028,1.703,1.028,2.962v1.026h-5.963c0.027,0.869,0.262,1.537,0.704,2.004c0.442,0.466,1.065,0.699,1.869,0.699
			c0.529,0,1.021-0.051,1.477-0.149c0.456-0.101,0.945-0.267,1.468-0.498v1.546c-0.464,0.223-0.933,0.378-1.408,0.471
			C-330.224,250.479-330.768,250.523-331.376,250.523z M-331.724,242.691c-0.604,0-1.088,0.19-1.452,0.574
			c-0.365,0.383-0.582,0.94-0.652,1.674h4.062c-0.011-0.737-0.189-1.299-0.534-1.679
			C-330.646,242.881-331.121,242.691-331.724,242.691z"/>
		<path fill="#4B5666" d="M-320.137,250.361l-0.38-1.245h-0.065c-0.432,0.545-0.866,0.916-1.303,1.112
			c-0.438,0.196-0.998,0.295-1.683,0.295c-0.879,0-1.565-0.236-2.06-0.713c-0.493-0.474-0.74-1.146-0.74-2.014
			c0-0.923,0.343-1.619,1.027-2.089c0.686-0.469,1.729-0.726,3.132-0.769l1.545-0.049v-0.478c0-0.571-0.133-1-0.4-1.282
			c-0.267-0.283-0.681-0.425-1.242-0.425c-0.458,0-0.898,0.067-1.319,0.202s-0.825,0.294-1.214,0.478l-0.615-1.358
			c0.485-0.254,1.017-0.446,1.594-0.579c0.577-0.134,1.122-0.198,1.634-0.198c1.138,0,1.997,0.248,2.577,0.744
			c0.58,0.497,0.87,1.275,0.87,2.339v6.028H-320.137L-320.137,250.361z M-322.969,249.066c0.69,0,1.245-0.191,1.663-0.578
			c0.418-0.385,0.627-0.926,0.627-1.622v-0.776l-1.149,0.049c-0.896,0.032-1.547,0.182-1.955,0.448
			c-0.407,0.269-0.61,0.677-0.61,1.228c0,0.398,0.119,0.707,0.356,0.926C-323.799,248.958-323.443,249.066-322.969,249.066z"/>
		<path fill="#4B5666" d="M-311.584,241.251c0.383,0,0.699,0.026,0.947,0.081l-0.187,1.771c-0.27-0.064-0.55-0.098-0.841-0.098
			c-0.76,0-1.377,0.248-1.849,0.744c-0.472,0.497-0.708,1.143-0.708,1.936v4.676h-1.901v-8.948h1.489l0.25,1.578h0.097
			c0.296-0.535,0.684-0.958,1.161-1.271C-312.648,241.408-312.134,241.251-311.584,241.251z"/>
		<path fill="#4B5666" d="M-301.105,250.361h-1.91v-5.502c0-0.69-0.139-1.207-0.417-1.545c-0.278-0.342-0.719-0.51-1.323-0.51
			c-0.804,0-1.392,0.236-1.764,0.711c-0.373,0.476-0.558,1.271-0.558,2.387v4.459h-1.902v-8.948h1.489l0.267,1.173h0.097
			c0.27-0.426,0.652-0.755,1.149-0.986c0.497-0.232,1.047-0.349,1.651-0.349c2.147,0,3.22,1.093,3.22,3.276L-301.105,250.361
			L-301.105,250.361z"/>
		<path fill="#4B5666" d="M-292.019,245.636v4.726h-1.934v-11.829h3.342c1.527,0,2.657,0.284,3.39,0.856
			c0.734,0.571,1.101,1.437,1.101,2.59c0,1.473-0.766,2.521-2.298,3.147l3.342,5.235h-2.201l-2.832-4.727L-292.019,245.636
			L-292.019,245.636z M-292.019,244.034h1.343c0.901,0,1.554-0.167,1.958-0.502c0.404-0.334,0.605-0.83,0.605-1.488
			c0-0.669-0.218-1.149-0.655-1.44c-0.438-0.291-1.095-0.437-1.975-0.437h-1.278L-292.019,244.034L-292.019,244.034z"/>
		<path fill="#4B5666" d="M-277.963,250.361l-0.38-1.245h-0.065c-0.431,0.545-0.866,0.916-1.303,1.112s-0.998,0.295-1.683,0.295
			c-0.879,0-1.565-0.236-2.06-0.713c-0.493-0.474-0.74-1.146-0.74-2.014c0-0.923,0.343-1.619,1.028-2.089
			c0.685-0.469,1.729-0.726,3.132-0.769l1.545-0.049v-0.478c0-0.571-0.133-1-0.4-1.282c-0.267-0.283-0.681-0.425-1.242-0.425
			c-0.458,0-0.898,0.067-1.319,0.202s-0.825,0.294-1.214,0.478l-0.615-1.358c0.486-0.254,1.017-0.446,1.594-0.579
			c0.578-0.134,1.122-0.198,1.635-0.198c1.138,0,1.997,0.248,2.577,0.744c0.58,0.497,0.87,1.275,0.87,2.339v6.028H-277.963
			L-277.963,250.361z M-280.795,249.066c0.691,0,1.245-0.191,1.663-0.578c0.418-0.385,0.627-0.926,0.627-1.622v-0.776l-1.149,0.049
			c-0.896,0.032-1.547,0.182-1.955,0.448c-0.407,0.269-0.611,0.677-0.611,1.228c0,0.398,0.119,0.707,0.355,0.926
			C-281.625,248.958-281.271,249.066-280.795,249.066z"/>
		<path fill="#4B5666" d="M-269.41,250.523c-1.133,0-2.012-0.406-2.638-1.223h-0.113c0.076,0.756,0.113,1.215,0.113,1.376v3.665
			h-1.901v-12.93h1.537c0.043,0.167,0.132,0.564,0.267,1.197h0.097c0.593-0.906,1.483-1.359,2.67-1.359
			c1.117,0,1.987,0.404,2.609,1.214c0.624,0.81,0.935,1.944,0.935,3.406s-0.317,2.603-0.951,3.423
			C-267.418,250.113-268.293,250.523-269.41,250.523z M-269.872,242.805c-0.755,0-1.307,0.221-1.655,0.663
			c-0.348,0.442-0.521,1.149-0.521,2.12v0.283c0,1.09,0.173,1.879,0.518,2.365c0.346,0.488,0.909,0.734,1.691,0.734
			c0.658,0,1.165-0.271,1.521-0.811s0.534-1.309,0.534-2.307c0-1.002-0.177-1.763-0.53-2.277
			C-268.667,243.062-269.187,242.805-269.872,242.805z"/>
		<path fill="#4B5666" d="M-263.737,239.042c0-0.339,0.093-0.601,0.28-0.784c0.186-0.183,0.452-0.273,0.796-0.273
			c0.334,0,0.595,0.092,0.781,0.273c0.187,0.184,0.28,0.445,0.28,0.784c0,0.325-0.093,0.579-0.28,0.765
			c-0.186,0.188-0.446,0.28-0.781,0.28c-0.345,0-0.611-0.093-0.796-0.28C-263.646,239.621-263.737,239.366-263.737,239.042z
			 M-261.723,250.361h-1.901v-8.948h1.901V250.361z"/>
		<path fill="#4B5666" d="M-255.985,250.523c-1.117,0-1.988-0.404-2.613-1.213c-0.626-0.811-0.939-1.945-0.939-3.408
			c0-1.467,0.317-2.607,0.951-3.426c0.634-0.816,1.512-1.227,2.634-1.227c1.176,0,2.071,0.436,2.686,1.303h0.097
			c-0.092-0.643-0.137-1.148-0.137-1.521v-3.263h1.909v12.592h-1.489l-0.332-1.174h-0.088
			C-253.917,250.08-254.81,250.523-255.985,250.523z M-255.477,248.986c0.782,0,1.352-0.221,1.707-0.659
			c0.356-0.438,0.54-1.153,0.55-2.142v-0.267c0-1.127-0.183-1.929-0.55-2.403s-0.941-0.711-1.723-0.711
			c-0.669,0-1.185,0.271-1.545,0.812c-0.361,0.542-0.542,1.313-0.542,2.317c0,0.992,0.175,1.75,0.525,2.271
			C-256.704,248.727-256.177,248.986-255.477,248.986z"/>
		<path fill="#4B5666" d="M-246.777,250.361h-1.902v-12.59h1.902V250.361z"/>
		<path fill="#4B5666" d="M-245.418,241.414h2.072l1.82,5.072c0.275,0.724,0.458,1.402,0.55,2.039h0.064
			c0.048-0.297,0.138-0.655,0.268-1.08c0.129-0.424,0.814-2.435,2.055-6.031h2.055l-3.828,10.139
			c-0.696,1.861-1.856,2.791-3.479,2.791c-0.421,0-0.831-0.045-1.23-0.137v-1.505c0.286,0.063,0.612,0.097,0.979,0.097
			c0.917,0,1.562-0.531,1.934-1.595l0.332-0.841L-245.418,241.414z"/>
	</g>
	<g>
		<path fill="#4B5666" d="M-74.687,224.658c0,1.951-0.541,3.445-1.625,4.479c-1.084,1.032-2.646,1.549-4.686,1.549h-3.31v-11.83
			h3.657c1.883,0,3.348,0.508,4.395,1.521S-74.687,222.818-74.687,224.658z M-76.726,224.723c0-2.832-1.323-4.248-3.973-4.248
			h-1.675v8.586h1.376C-78.15,229.061-76.726,227.614-76.726,224.723z"/>
		<path fill="#4B5666" d="M-68.439,230.848c-1.393,0-2.479-0.406-3.266-1.218c-0.785-0.812-1.178-1.93-1.178-3.354
			c0-1.461,0.365-2.61,1.093-3.446c0.729-0.836,1.729-1.254,3.003-1.254c1.182,0,2.113,0.358,2.799,1.075
			c0.687,0.719,1.027,1.705,1.027,2.963v1.027h-5.963c0.027,0.867,0.262,1.535,0.704,2.002c0.442,0.467,1.065,0.699,1.868,0.699
			c0.529,0,1.021-0.049,1.478-0.148c0.455-0.101,0.945-0.267,1.47-0.498v1.546c-0.466,0.221-0.935,0.377-1.408,0.47
			C-67.287,230.802-67.829,230.848-68.439,230.848z M-68.785,223.016c-0.605,0-1.091,0.191-1.453,0.574
			c-0.365,0.383-0.582,0.941-0.651,1.676h4.062c-0.011-0.74-0.188-1.3-0.533-1.68C-67.708,223.206-68.182,223.016-68.785,223.016z"
			/>
		<path fill="#4B5666" d="M-60.898,230.688h-1.899v-12.592h1.899V230.688z"/>
		<path fill="#4B5666" d="M-58.292,219.366c0-0.341,0.095-0.603,0.279-0.785c0.184-0.183,0.45-0.274,0.797-0.274
			c0.334,0,0.596,0.092,0.78,0.274c0.186,0.183,0.279,0.444,0.279,0.785c0,0.323-0.094,0.577-0.279,0.765s-0.446,0.279-0.78,0.279
			c-0.347,0-0.61-0.094-0.797-0.279S-58.292,219.689-58.292,219.366z M-56.277,230.688h-1.9v-8.951h1.9V230.688z"/>
		<path fill="#4B5666" d="M-51.518,230.688l-3.398-8.951h2.006l1.82,5.203c0.312,0.875,0.502,1.582,0.566,2.121h0.063
			c0.049-0.389,0.238-1.097,0.567-2.121l1.819-5.203h2.023l-3.415,8.951H-51.518z"/>
		<path fill="#4B5666" d="M-40.781,230.848c-1.392,0-2.479-0.406-3.265-1.218s-1.178-1.93-1.178-3.354
			c0-1.461,0.362-2.61,1.092-3.446c0.729-0.836,1.729-1.254,3.002-1.254c1.182,0,2.115,0.358,2.801,1.075
			c0.686,0.719,1.026,1.705,1.026,2.963v1.027h-5.963c0.025,0.867,0.262,1.535,0.704,2.002c0.441,0.467,1.063,0.699,1.868,0.699
			c0.528,0,1.021-0.049,1.479-0.148c0.455-0.101,0.944-0.267,1.468-0.498v1.546c-0.464,0.221-0.934,0.377-1.408,0.47
			C-39.629,230.802-40.171,230.848-40.781,230.848z M-41.129,223.016c-0.604,0-1.088,0.191-1.452,0.574
			c-0.363,0.383-0.582,0.941-0.649,1.676h4.062c-0.012-0.74-0.188-1.3-0.534-1.68C-40.048,223.206-40.525,223.016-41.129,223.016z"
			/>
		<path fill="#4B5666" d="M-30.601,221.575c0.383,0,0.697,0.026,0.945,0.079l-0.187,1.772c-0.271-0.063-0.55-0.097-0.841-0.097
			c-0.762,0-1.378,0.248-1.85,0.744c-0.473,0.496-0.709,1.142-0.709,1.935v4.677h-1.9v-8.949h1.488l0.25,1.578h0.099
			c0.297-0.533,0.684-0.959,1.162-1.271S-31.152,221.575-30.601,221.575z"/>
		<path fill="#4B5666" d="M-16.749,218.855h2.006l-4.143,11.83h-2.039l-4.127-11.83h1.991l2.468,7.355
			c0.129,0.352,0.267,0.803,0.413,1.355c0.145,0.553,0.239,0.963,0.282,1.232c0.069-0.41,0.179-0.885,0.323-1.424
			c0.146-0.539,0.265-0.938,0.355-1.198L-16.749,218.855z"/>
		<path fill="#4B5666" d="M-7.784,230.688l-0.381-1.246h-0.062c-0.433,0.545-0.865,0.916-1.305,1.111
			c-0.436,0.196-0.997,0.295-1.683,0.295c-0.879,0-1.565-0.236-2.06-0.712c-0.493-0.475-0.739-1.146-0.739-2.015
			c0-0.922,0.342-1.618,1.025-2.088c0.687-0.469,1.729-0.725,3.133-0.77l1.546-0.048v-0.478c0-0.572-0.135-1-0.4-1.282
			c-0.267-0.284-0.682-0.427-1.242-0.427c-0.459,0-0.897,0.068-1.318,0.203c-0.421,0.136-0.825,0.295-1.215,0.478l-0.614-1.358
			c0.485-0.254,1.017-0.447,1.595-0.578c0.577-0.133,1.121-0.198,1.635-0.198c1.139,0,1.997,0.248,2.577,0.743
			c0.58,0.498,0.87,1.275,0.87,2.34v6.027L-7.784,230.688L-7.784,230.688z M-10.616,229.393c0.691,0,1.245-0.192,1.663-0.58
			c0.418-0.385,0.627-0.926,0.627-1.621v-0.776l-1.147,0.048c-0.896,0.033-1.547,0.184-1.954,0.449
			c-0.407,0.268-0.611,0.676-0.611,1.227c0,0.399,0.118,0.709,0.356,0.926C-11.447,229.282-11.09,229.393-10.616,229.393z"/>
		<path fill="#4B5666" d="M-1.869,230.688h-1.9v-12.592h1.9V230.688z"/>
		<path fill="#4B5666" d="M7.163,230.688l-0.267-1.174H6.797c-0.265,0.416-0.641,0.741-1.129,0.979
			c-0.488,0.236-1.045,0.355-1.671,0.355c-1.085,0-1.894-0.271-2.428-0.81c-0.534-0.539-0.801-1.356-0.801-2.452v-5.852h1.918v5.52
			c0,0.686,0.141,1.199,0.42,1.542c0.28,0.343,0.721,0.515,1.319,0.515c0.798,0,1.385-0.238,1.761-0.718
			c0.375-0.477,0.562-1.276,0.562-2.397v-4.459h1.91v8.949L7.163,230.688L7.163,230.688z"/>
		<path fill="#4B5666" d="M15.278,230.848c-1.393,0-2.479-0.406-3.266-1.218c-0.783-0.812-1.177-1.93-1.177-3.354
			c0-1.461,0.364-2.61,1.092-3.446c0.729-0.836,1.729-1.254,3.003-1.254c1.183,0,2.114,0.358,2.8,1.075
			c0.686,0.719,1.027,1.705,1.027,2.963v1.027h-5.963c0.026,0.867,0.262,1.535,0.704,2.002s1.065,0.699,1.869,0.699
			c0.528,0,1.021-0.049,1.477-0.148c0.455-0.101,0.945-0.267,1.47-0.498v1.546c-0.464,0.221-0.935,0.377-1.407,0.47
			C16.43,230.802,15.889,230.848,15.278,230.848z M14.932,223.016c-0.604,0-1.09,0.191-1.452,0.574
			c-0.365,0.383-0.582,0.941-0.652,1.676h4.062c-0.012-0.74-0.188-1.3-0.533-1.68C16.009,223.206,15.535,223.016,14.932,223.016z"/>
		<path fill="#4B5666" d="M-79.326,240.23c-1.111,0-1.984,0.395-2.621,1.183c-0.638,0.787-0.955,1.874-0.955,3.261
			c0,1.451,0.307,2.549,0.918,3.293c0.612,0.745,1.498,1.117,2.658,1.117c0.502,0,0.987-0.05,1.456-0.15
			c0.47-0.1,0.958-0.228,1.466-0.384v1.658c-0.929,0.353-1.979,0.526-3.156,0.526c-1.731,0-3.062-0.524-3.988-1.573
			c-0.93-1.05-1.393-2.552-1.393-4.503c0-1.229,0.226-2.307,0.676-3.229c0.449-0.923,1.102-1.63,1.953-2.121
			c0.854-0.49,1.854-0.734,3.002-0.734c1.209,0,2.326,0.253,3.352,0.76l-0.695,1.609c-0.399-0.188-0.822-0.354-1.268-0.496
			C-78.367,240.302-78.835,240.23-79.326,240.23z"/>
		<path fill="#4B5666" d="M-66.12,246.083c0,1.462-0.375,2.603-1.126,3.423c-0.749,0.82-1.794,1.229-3.131,1.229
			c-0.837,0-1.575-0.188-2.218-0.565c-0.642-0.378-1.136-0.919-1.479-1.627c-0.346-0.706-0.519-1.526-0.519-2.459
			c0-1.451,0.371-2.585,1.116-3.399c0.744-0.813,1.793-1.222,3.146-1.222c1.297,0,2.319,0.417,3.075,1.251
			C-66.499,243.544-66.12,244.669-66.12,246.083z M-72.634,246.083c0,2.065,0.763,3.099,2.29,3.099c1.51,0,2.266-1.033,2.266-3.099
			c0-2.044-0.761-3.067-2.28-3.067c-0.799,0-1.377,0.266-1.736,0.793C-72.455,244.336-72.634,245.094-72.634,246.083z"/>
		<path fill="#4B5666" d="M-56.064,250.572h-1.908v-5.502c0-0.69-0.141-1.206-0.417-1.547c-0.277-0.338-0.72-0.51-1.322-0.51
			c-0.805,0-1.394,0.238-1.765,0.713c-0.372,0.476-0.559,1.271-0.559,2.388v4.458h-1.9v-8.949h1.488l0.267,1.174h0.098
			c0.271-0.426,0.652-0.756,1.147-0.986c0.498-0.232,1.048-0.35,1.65-0.35c2.148,0,3.221,1.094,3.221,3.277V250.572L-56.064,250.572
			z"/>
		<path fill="#4B5666" d="M-50.083,249.197c0.464,0,0.927-0.073,1.393-0.219v1.432c-0.21,0.093-0.481,0.169-0.813,0.23
			c-0.33,0.062-0.675,0.094-1.031,0.094c-1.803,0-2.702-0.949-2.702-2.85v-4.822h-1.222v-0.842l1.312-0.695l0.646-1.895h1.174v1.991
			h2.548v1.44h-2.548v4.789c0,0.459,0.114,0.797,0.346,1.017C-50.756,249.087-50.455,249.197-50.083,249.197z"/>
		<path fill="#4B5666" d="M-47.016,239.252c0-0.34,0.093-0.602,0.278-0.784c0.187-0.184,0.452-0.274,0.798-0.274
			c0.335,0,0.595,0.092,0.779,0.274c0.188,0.183,0.279,0.444,0.279,0.784c0,0.324-0.093,0.579-0.279,0.766s-0.444,0.278-0.779,0.278
			c-0.346,0-0.611-0.093-0.798-0.278C-46.923,239.832-47.016,239.576-47.016,239.252z M-45,250.572h-1.902v-8.949H-45V250.572z"/>
		<path fill="#4B5666" d="M-34.409,250.572h-1.91v-5.502c0-0.69-0.139-1.206-0.417-1.547c-0.276-0.338-0.719-0.51-1.321-0.51
			c-0.806,0-1.394,0.238-1.765,0.713c-0.372,0.476-0.559,1.271-0.559,2.388v4.458h-1.901v-8.949h1.489l0.266,1.174h0.099
			c0.27-0.426,0.653-0.756,1.147-0.986c0.497-0.232,1.049-0.35,1.651-0.35c2.147,0,3.221,1.094,3.221,3.277V250.572L-34.409,250.572
			z"/>
		<path fill="#4B5666" d="M-25.452,250.572l-0.268-1.174h-0.097c-0.265,0.416-0.642,0.742-1.129,0.979
			c-0.487,0.237-1.045,0.354-1.672,0.354c-1.084,0-1.893-0.271-2.428-0.81c-0.533-0.539-0.8-1.354-0.8-2.452v-5.85h1.917v5.52
			c0,0.686,0.141,1.198,0.421,1.541c0.28,0.342,0.721,0.514,1.319,0.514c0.798,0,1.385-0.238,1.76-0.715
			c0.375-0.479,0.562-1.278,0.562-2.399v-4.459h1.909v8.948L-25.452,250.572L-25.452,250.572z"/>
		<path fill="#4B5666" d="M-13.306,246.083c0,1.462-0.375,2.603-1.124,3.423c-0.75,0.82-1.794,1.229-3.132,1.229
			c-0.836,0-1.574-0.188-2.218-0.565c-0.643-0.378-1.136-0.919-1.479-1.627c-0.346-0.706-0.52-1.526-0.52-2.459
			c0-1.451,0.372-2.585,1.117-3.399c0.744-0.813,1.793-1.222,3.147-1.222c1.294,0,2.318,0.417,3.074,1.251
			C-13.683,243.544-13.306,244.669-13.306,246.083z M-19.82,246.083c0,2.065,0.765,3.099,2.29,3.099
			c1.512,0,2.267-1.033,2.267-3.099c0-2.044-0.761-3.067-2.281-3.067c-0.798,0-1.378,0.266-1.735,0.793
			C-19.64,244.336-19.82,245.094-19.82,246.083z"/>
		<path fill="#4B5666" d="M-4.81,250.572l-0.267-1.174h-0.098c-0.265,0.416-0.641,0.742-1.13,0.979
			c-0.487,0.237-1.044,0.354-1.67,0.354c-1.084,0-1.895-0.271-2.429-0.81c-0.533-0.539-0.802-1.354-0.802-2.452v-5.85h1.919v5.52
			c0,0.686,0.141,1.198,0.42,1.541c0.281,0.342,0.722,0.514,1.319,0.514c0.798,0,1.385-0.238,1.76-0.715
			c0.375-0.479,0.562-1.278,0.562-2.399v-4.459h1.91v8.948L-4.81,250.572L-4.81,250.572z"/>
		<path fill="#4B5666" d="M5.411,248.023c0,0.873-0.318,1.543-0.955,2.011c-0.637,0.467-1.548,0.7-2.734,0.7
			c-1.191,0-2.149-0.183-2.873-0.543v-1.643c1.053,0.485,2.031,0.729,2.938,0.729c1.17,0,1.756-0.354,1.756-1.061
			c0-0.227-0.064-0.416-0.194-0.566c-0.13-0.149-0.343-0.308-0.639-0.469c-0.298-0.162-0.71-0.346-1.239-0.551
			c-1.028-0.398-1.727-0.798-2.092-1.197c-0.363-0.398-0.545-0.916-0.545-1.554c0-0.767,0.308-1.36,0.926-1.784
			c0.618-0.424,1.458-0.636,2.521-0.636c1.052,0,2.048,0.214,2.985,0.64l-0.614,1.433c-0.966-0.398-1.777-0.599-2.437-0.599
			c-1.004,0-1.505,0.285-1.505,0.857c0,0.279,0.131,0.518,0.394,0.712c0.262,0.194,0.832,0.461,1.711,0.802
			c0.738,0.285,1.274,0.547,1.609,0.784c0.334,0.237,0.583,0.511,0.744,0.821C5.329,247.22,5.411,247.591,5.411,248.023z"/>
		<path fill="#4B5666" d="M9.367,250.572h-1.9v-12.59h1.9V250.572z"/>
		<path fill="#4B5666" d="M10.727,241.624h2.07l1.82,5.073c0.275,0.724,0.459,1.402,0.551,2.039h0.064
			c0.049-0.297,0.137-0.656,0.267-1.08s0.814-2.436,2.055-6.032h2.057l-3.827,10.14c-0.695,1.86-1.855,2.791-3.479,2.791
			c-0.421,0-0.831-0.046-1.229-0.138v-1.505c0.286,0.064,0.612,0.098,0.979,0.098c0.918,0,1.562-0.531,1.936-1.595l0.331-0.842
			L10.727,241.624z"/>
	</g>
	<g>
		<path fill="#4B5666" d="M-204.269,364.501l-3.431-9.88h-0.064c0.092,1.467,0.138,2.843,0.138,4.127v5.753h-1.757v-11.83h2.728
			l3.285,9.411h0.049l3.382-9.411h2.735v11.83h-1.861v-5.851c0-0.59,0.015-1.354,0.044-2.299c0.03-0.944,0.056-1.517,0.078-1.716
			h-0.065l-3.553,9.863L-204.269,364.501L-204.269,364.501z"/>
		<path fill="#4B5666" d="M-188.691,364.501l-0.381-1.246h-0.064c-0.432,0.546-0.866,0.916-1.303,1.111
			c-0.438,0.196-0.999,0.296-1.684,0.296c-0.879,0-1.565-0.236-2.06-0.712c-0.493-0.476-0.739-1.146-0.739-2.015
			c0-0.924,0.342-1.619,1.026-2.088c0.686-0.471,1.729-0.727,3.133-0.771l1.545-0.048v-0.479c0-0.569-0.134-1-0.4-1.28
			c-0.267-0.285-0.682-0.427-1.242-0.427c-0.459,0-0.898,0.067-1.319,0.202c-0.421,0.137-0.825,0.294-1.214,0.479l-0.614-1.358
			c0.485-0.254,1.017-0.447,1.594-0.579s1.121-0.197,1.635-0.197c1.138,0,1.997,0.247,2.577,0.743c0.58,0.497,0.87,1.274,0.87,2.339
			v6.028L-188.691,364.501L-188.691,364.501z M-191.524,363.207c0.69,0,1.245-0.191,1.663-0.578s0.627-0.927,0.627-1.623v-0.775
			l-1.148,0.05c-0.896,0.03-1.547,0.182-1.954,0.446c-0.407,0.27-0.611,0.679-0.611,1.229c0,0.397,0.118,0.707,0.356,0.925
			C-192.354,363.098-191.999,363.207-191.524,363.207z"/>
		<path fill="#4B5666" d="M-182.841,359.775l1.076-1.342l2.703-2.883h2.192l-3.601,3.846l3.827,5.104h-2.233l-2.872-3.924
			l-1.044,0.855v3.066h-1.885v-12.592h1.885v6.144l-0.098,1.724h0.05V359.775z"/>
		<path fill="#4B5666" d="M-171.294,364.663c-1.392,0-2.479-0.405-3.265-1.218c-0.784-0.812-1.177-1.93-1.177-3.354
			c0-1.463,0.363-2.61,1.092-3.446s1.729-1.254,3.002-1.254c1.182,0,2.115,0.357,2.8,1.075c0.685,0.718,1.027,1.704,1.027,2.961
			v1.027h-5.963c0.026,0.869,0.262,1.535,0.703,2.003c0.443,0.467,1.065,0.697,1.87,0.697c0.528,0,1.021-0.049,1.477-0.147
			c0.455-0.1,0.945-0.266,1.469-0.498v1.548c-0.465,0.221-0.934,0.377-1.408,0.469
			C-170.142,364.618-170.685,364.663-171.294,364.663z M-171.643,356.831c-0.604,0-1.088,0.19-1.452,0.573
			c-0.364,0.385-0.582,0.941-0.651,1.676h4.062c-0.012-0.738-0.189-1.299-0.534-1.68
			C-170.563,357.021-171.038,356.831-171.643,356.831z"/>
		<path fill="#4B5666" d="M-154.326,361.29c0,1.052-0.38,1.877-1.141,2.476c-0.762,0.601-1.811,0.897-3.146,0.897
			c-1.34,0-2.435-0.207-3.286-0.622v-1.829c0.538,0.254,1.112,0.453,1.72,0.599c0.606,0.146,1.171,0.219,1.694,0.219
			c0.766,0,1.33-0.146,1.694-0.438c0.364-0.292,0.546-0.682,0.546-1.173c0-0.442-0.166-0.817-0.502-1.125
			c-0.334-0.308-1.023-0.671-2.07-1.093c-1.078-0.438-1.84-0.936-2.282-1.496c-0.441-0.562-0.663-1.234-0.663-2.023
			c0-0.986,0.352-1.764,1.052-2.33c0.702-0.565,1.644-0.85,2.825-0.85c1.133,0,2.26,0.248,3.382,0.745l-0.614,1.577
			c-1.053-0.441-1.99-0.664-2.815-0.664c-0.628,0-1.101,0.137-1.425,0.408c-0.323,0.271-0.485,0.633-0.485,1.08
			c0,0.309,0.065,0.569,0.194,0.789c0.129,0.219,0.343,0.426,0.639,0.619c0.297,0.193,0.831,0.449,1.604,0.77
			c0.868,0.361,1.504,0.699,1.908,1.012c0.405,0.312,0.702,0.666,0.891,1.061C-154.419,360.291-154.326,360.754-154.326,361.29z"/>
		<path fill="#4B5666" d="M-146.638,364.501l-0.381-1.246h-0.064c-0.432,0.546-0.865,0.916-1.303,1.111
			c-0.438,0.196-0.998,0.296-1.684,0.296c-0.879,0-1.564-0.236-2.06-0.712c-0.493-0.476-0.739-1.146-0.739-2.015
			c0-0.924,0.342-1.619,1.026-2.088c0.685-0.471,1.729-0.727,3.132-0.771l1.545-0.048v-0.479c0-0.569-0.133-1-0.4-1.28
			c-0.267-0.285-0.681-0.427-1.241-0.427c-0.459,0-0.898,0.067-1.319,0.202c-0.421,0.137-0.824,0.294-1.214,0.479l-0.614-1.358
			c0.485-0.254,1.018-0.447,1.594-0.579c0.578-0.132,1.123-0.197,1.635-0.197c1.139,0,1.998,0.247,2.578,0.743
			c0.58,0.497,0.869,1.274,0.869,2.339v6.028L-146.638,364.501L-146.638,364.501z M-149.47,363.207c0.689,0,1.244-0.191,1.662-0.578
			s0.627-0.927,0.627-1.623v-0.775l-1.148,0.05c-0.896,0.03-1.547,0.182-1.953,0.446c-0.408,0.27-0.611,0.679-0.611,1.229
			c0,0.397,0.119,0.707,0.355,0.925C-150.301,363.098-149.945,363.207-149.47,363.207z"/>
		<path fill="#4B5666" d="M-138.134,356.992h-2.186v7.51h-1.91v-7.51h-1.473v-0.891l1.473-0.582v-0.582
			c0-1.059,0.25-1.842,0.746-2.354c0.496-0.509,1.254-0.766,2.272-0.766c0.669,0,1.327,0.111,1.976,0.332l-0.502,1.44
			c-0.47-0.151-0.918-0.228-1.344-0.228c-0.432,0-0.746,0.135-0.941,0.4c-0.197,0.268-0.297,0.668-0.297,1.201v0.582h2.186V356.992
			L-138.134,356.992z"/>
		<path fill="#4B5666" d="M-132.706,364.663c-1.391,0-2.479-0.405-3.265-1.218c-0.784-0.812-1.178-1.93-1.178-3.354
			c0-1.463,0.363-2.61,1.093-3.446s1.729-1.254,3.003-1.254c1.181,0,2.113,0.357,2.8,1.075c0.685,0.718,1.026,1.704,1.026,2.961
			v1.027h-5.963c0.026,0.869,0.262,1.535,0.703,2.003c0.442,0.467,1.065,0.697,1.869,0.697c0.528,0,1.021-0.049,1.479-0.147
			c0.455-0.1,0.943-0.266,1.468-0.498v1.548c-0.464,0.221-0.935,0.377-1.408,0.469
			C-131.552,364.618-132.095,364.663-132.706,364.663z M-133.052,356.831c-0.604,0-1.09,0.19-1.453,0.573
			c-0.363,0.385-0.581,0.941-0.65,1.676h4.062c-0.013-0.738-0.188-1.299-0.534-1.68
			C-131.974,357.021-132.449,356.831-133.052,356.831z"/>
		<path fill="#4B5666" d="M-123.732,363.126c0.465,0,0.928-0.073,1.393-0.219v1.432c-0.21,0.093-0.48,0.169-0.812,0.229
			c-0.332,0.062-0.676,0.094-1.031,0.094c-1.803,0-2.702-0.949-2.702-2.85v-4.821h-1.224v-0.843l1.312-0.694l0.647-1.896h1.174
			v1.991h2.549v1.438h-2.549v4.791c0,0.459,0.113,0.798,0.344,1.016C-124.404,363.018-124.103,363.126-123.732,363.126z"/>
		<path fill="#4B5666" d="M-121.91,355.551h2.071l1.819,5.073c0.275,0.724,0.459,1.401,0.551,2.039h0.064
			c0.049-0.297,0.139-0.656,0.268-1.08c0.13-0.424,0.814-2.435,2.056-6.032h2.056l-3.828,10.141
			c-0.695,1.859-1.854,2.791-3.479,2.791c-0.421,0-0.83-0.045-1.229-0.137v-1.507c0.285,0.063,0.611,0.099,0.979,0.099
			c0.916,0,1.561-0.531,1.934-1.597l0.332-0.841L-121.91,355.551z"/>
		<path fill="#4B5666" d="M-210.883,384.389l-0.38-1.248h-0.064c-0.433,0.545-0.866,0.916-1.304,1.112
			c-0.437,0.197-0.997,0.296-1.683,0.296c-0.879,0-1.565-0.236-2.059-0.713s-0.741-1.146-0.741-2.016
			c0-0.922,0.343-1.617,1.028-2.088s1.729-0.726,3.131-0.77l1.546-0.049v-0.477c0-0.572-0.134-1-0.4-1.283
			c-0.268-0.283-0.682-0.426-1.242-0.426c-0.459,0-0.898,0.066-1.319,0.203c-0.42,0.135-0.825,0.293-1.213,0.477l-0.615-1.358
			c0.485-0.254,1.017-0.446,1.594-0.577c0.577-0.133,1.122-0.199,1.634-0.199c1.139,0,1.998,0.248,2.578,0.744
			s0.869,1.275,0.869,2.34v6.027h-1.36V384.389z M-213.715,383.092c0.691,0,1.245-0.191,1.663-0.576
			c0.418-0.389,0.627-0.929,0.627-1.623v-0.777l-1.148,0.05c-0.896,0.03-1.548,0.183-1.954,0.448
			c-0.408,0.268-0.611,0.676-0.611,1.226c0,0.399,0.119,0.709,0.355,0.929C-214.545,382.984-214.19,383.092-213.715,383.092z"/>
		<path fill="#4B5666" d="M-194.528,376.133c0,1.233-0.405,2.184-1.214,2.842c-0.81,0.657-1.961,0.985-3.456,0.985h-1.229v4.427
			h-1.934v-11.828h3.406c1.478,0,2.585,0.301,3.321,0.904C-194.898,374.068-194.528,374.958-194.528,376.133z M-200.428,378.335
			h1.027c0.992,0,1.721-0.174,2.186-0.519c0.463-0.346,0.695-0.887,0.695-1.618c0-0.681-0.207-1.188-0.623-1.521
			c-0.415-0.335-1.062-0.502-1.942-0.502h-1.343V378.335z"/>
		<path fill="#4B5666" d="M-187.83,375.277c0.383,0,0.699,0.024,0.946,0.08l-0.186,1.771c-0.271-0.063-0.55-0.099-0.841-0.099
			c-0.762,0-1.378,0.248-1.85,0.744c-0.473,0.498-0.708,1.143-0.708,1.936v4.678h-1.902v-8.947h1.489l0.251,1.576h0.098
			c0.296-0.533,0.683-0.957,1.161-1.271C-188.895,375.434-188.379,375.277-187.83,375.277z"/>
		<path fill="#4B5666" d="M-181.316,384.549c-1.392,0-2.479-0.404-3.265-1.219c-0.785-0.812-1.177-1.932-1.177-3.354
			c0-1.461,0.363-2.609,1.092-3.445s1.729-1.254,3.002-1.254c1.182,0,2.114,0.356,2.8,1.074c0.685,0.719,1.027,1.705,1.027,2.963
			v1.026h-5.963c0.026,0.868,0.262,1.536,0.703,2.003c0.442,0.467,1.065,0.699,1.87,0.699c0.528,0,1.021-0.05,1.477-0.148
			c0.455-0.101,0.945-0.267,1.469-0.496v1.545c-0.465,0.222-0.934,0.377-1.408,0.469
			C-180.165,384.503-180.706,384.549-181.316,384.549z M-181.664,376.716c-0.604,0-1.088,0.191-1.452,0.574
			c-0.364,0.383-0.582,0.94-0.651,1.675h4.062c-0.011-0.738-0.188-1.298-0.534-1.679
			C-180.584,376.906-181.061,376.716-181.664,376.716z"/>
		<path fill="#4B5666" d="M-171.136,375.277c0.383,0,0.698,0.024,0.947,0.08l-0.188,1.771c-0.269-0.063-0.55-0.099-0.841-0.099
			c-0.761,0-1.377,0.248-1.849,0.744c-0.472,0.498-0.708,1.143-0.708,1.936v4.678h-1.901v-8.947h1.488l0.251,1.576h0.097
			c0.297-0.533,0.685-0.957,1.162-1.271C-172.2,375.434-171.688,375.277-171.136,375.277z"/>
		<path fill="#4B5666" d="M-164.623,384.549c-1.392,0-2.48-0.404-3.266-1.219c-0.784-0.812-1.177-1.932-1.177-3.354
			c0-1.461,0.364-2.609,1.093-3.445s1.729-1.254,3.002-1.254c1.181,0,2.115,0.356,2.8,1.074c0.685,0.719,1.026,1.705,1.026,2.963
			v1.026h-5.963c0.027,0.868,0.262,1.536,0.704,2.003c0.442,0.467,1.065,0.699,1.869,0.699c0.529,0,1.021-0.05,1.477-0.148
			c0.456-0.1,0.946-0.267,1.469-0.496v1.545c-0.464,0.222-0.933,0.377-1.407,0.469C-163.47,384.503-164.013,384.549-164.623,384.549
			z M-164.97,376.716c-0.604,0-1.089,0.191-1.452,0.574c-0.365,0.383-0.582,0.94-0.652,1.675h4.062
			c-0.011-0.738-0.188-1.298-0.534-1.679C-163.892,376.906-164.365,376.716-164.97,376.716z"/>
		<path fill="#4B5666" d="M-155.98,384.549c-1.106,0-1.973-0.404-2.599-1.219c-0.626-0.812-0.938-1.945-0.938-3.402
			c0-1.455,0.318-2.596,0.955-3.418s1.514-1.232,2.629-1.232c0.562,0,1.064,0.104,1.51,0.312c0.445,0.207,0.843,0.55,1.193,1.022
			h0.064l0.21-1.172h1.578v12.931h-1.909v-3.796c0-0.237,0.012-0.488,0.031-0.752c0.021-0.266,0.041-0.467,0.059-0.607h-0.105
			C-153.863,384.104-154.756,384.549-155.98,384.549z M-155.439,383.029c0.799,0,1.371-0.23,1.721-0.692
			c0.347-0.461,0.521-1.157,0.521-2.091v-0.301c0-1.104-0.181-1.901-0.539-2.387c-0.358-0.484-0.938-0.729-1.735-0.729
			c-0.681,0-1.197,0.271-1.554,0.81c-0.355,0.541-0.533,1.313-0.533,2.321C-157.558,382.005-156.853,383.029-155.439,383.029z"/>
		<path fill="#4B5666" d="M-142.346,384.389l-0.267-1.176h-0.098c-0.266,0.416-0.643,0.741-1.13,0.979
			c-0.487,0.236-1.045,0.355-1.67,0.355c-1.085,0-1.894-0.271-2.429-0.811c-0.533-0.539-0.801-1.355-0.801-2.451v-5.85h1.918v5.519
			c0,0.685,0.141,1.198,0.42,1.542c0.28,0.342,0.721,0.513,1.319,0.513c0.798,0,1.386-0.237,1.761-0.716
			c0.373-0.479,0.562-1.277,0.562-2.4v-4.457h1.909v8.949h-1.495L-142.346,384.389L-142.346,384.389z"/>
		<path fill="#4B5666" d="M-138.251,373.068c0-0.342,0.094-0.604,0.279-0.785c0.186-0.184,0.451-0.275,0.797-0.275
			c0.334,0,0.595,0.092,0.779,0.275c0.188,0.183,0.279,0.443,0.279,0.785c0,0.322-0.093,0.578-0.279,0.765s-0.445,0.278-0.779,0.278
			c-0.346,0-0.611-0.094-0.797-0.278C-138.158,373.646-138.251,373.391-138.251,373.068z M-136.236,384.389h-1.901v-8.949h1.901
			V384.389z"/>
		<path fill="#4B5666" d="M-127.506,381.837c0,0.874-0.317,1.545-0.954,2.013c-0.637,0.467-1.549,0.699-2.734,0.699
			c-1.191,0-2.149-0.181-2.873-0.543v-1.645c1.053,0.486,2.031,0.729,2.938,0.729c1.171,0,1.757-0.353,1.757-1.062
			c0-0.228-0.065-0.414-0.194-0.565c-0.129-0.149-0.342-0.308-0.64-0.469c-0.297-0.162-0.709-0.347-1.237-0.552
			c-1.031-0.397-1.728-0.797-2.093-1.196c-0.362-0.399-0.546-0.917-0.546-1.554c0-0.767,0.309-1.361,0.928-1.783
			c0.616-0.424,1.457-0.637,2.521-0.637c1.052,0,2.047,0.215,2.985,0.64l-0.614,1.433c-0.966-0.397-1.777-0.599-2.437-0.599
			c-1.004,0-1.505,0.286-1.505,0.856c0,0.28,0.132,0.519,0.394,0.713c0.261,0.192,0.832,0.461,1.711,0.801
			c0.738,0.287,1.275,0.548,1.609,0.785c0.334,0.236,0.582,0.511,0.744,0.82C-127.587,381.037-127.506,381.406-127.506,381.837z"/>
		<path fill="#4B5666" d="M-125.564,373.068c0-0.342,0.093-0.604,0.279-0.785c0.186-0.184,0.451-0.275,0.797-0.275
			c0.334,0,0.594,0.092,0.78,0.275c0.187,0.183,0.278,0.443,0.278,0.785c0,0.322-0.094,0.578-0.278,0.765
			c-0.187,0.187-0.446,0.278-0.78,0.278c-0.346,0-0.611-0.094-0.797-0.278C-125.471,373.646-125.564,373.391-125.564,373.068z
			 M-123.548,384.389h-1.902v-8.949h1.902V384.389z"/>
		<path fill="#4B5666" d="M-117.496,383.011c0.463,0,0.928-0.071,1.393-0.219v1.435c-0.211,0.092-0.481,0.168-0.813,0.229
			s-0.676,0.093-1.03,0.093c-1.804,0-2.703-0.949-2.703-2.849v-4.822h-1.223v-0.842l1.311-0.696l0.647-1.895h1.173v1.99h2.549v1.44
			h-2.549v4.789c0,0.459,0.115,0.798,0.346,1.017C-118.169,382.904-117.869,383.011-117.496,383.011z"/>
		<path fill="#4B5666" d="M-110.408,384.549c-1.392,0-2.479-0.404-3.266-1.219c-0.784-0.812-1.178-1.932-1.178-3.354
			c0-1.461,0.365-2.609,1.094-3.445s1.729-1.254,3.001-1.254c1.183,0,2.115,0.356,2.8,1.074c0.686,0.719,1.028,1.705,1.028,2.963
			v1.026h-5.964c0.027,0.868,0.262,1.536,0.703,2.003c0.442,0.467,1.065,0.699,1.869,0.699c0.529,0,1.021-0.05,1.478-0.148
			c0.456-0.1,0.944-0.267,1.469-0.496v1.545c-0.464,0.222-0.933,0.377-1.407,0.469
			C-109.256,384.503-109.798,384.549-110.408,384.549z M-110.756,376.716c-0.604,0-1.089,0.191-1.452,0.574s-0.581,0.94-0.65,1.675
			h4.062c-0.01-0.738-0.188-1.298-0.533-1.679C-109.676,376.906-110.152,376.716-110.756,376.716z"/>
	</g>
	<g>
		<path fill="#FFFFFF" d="M-197.418,214.384l-4.887-12.767h-0.078c0.092,1.011,0.138,2.213,0.138,3.605v9.16h-1.547v-14.402h2.522
			l4.561,11.88h0.079l4.6-11.88h2.503v14.402h-1.675v-9.279c0-1.062,0.046-2.22,0.138-3.468h-0.079l-4.925,12.747L-197.418,214.384
			L-197.418,214.384z"/>
		<path fill="#FFFFFF" d="M-173.077,207.165c0,2.305-0.583,4.118-1.748,5.438c-1.166,1.318-2.786,1.979-4.861,1.979
			c-2.122,0-3.758-0.647-4.911-1.944c-1.152-1.299-1.729-3.129-1.729-5.494c0-2.344,0.577-4.16,1.733-5.451
			c1.156-1.291,2.798-1.937,4.926-1.937c2.068,0,3.684,0.657,4.847,1.972C-173.658,203.041-173.077,204.854-173.077,207.165z
			 M-184.553,207.165c0,1.95,0.415,3.43,1.246,4.438c0.83,1.008,2.037,1.513,3.62,1.513c1.596,0,2.801-0.503,3.615-1.509
			c0.813-1.004,1.221-2.484,1.221-4.441c0-1.938-0.405-3.406-1.216-4.408c-0.812-1.001-2.012-1.503-3.601-1.503
			c-1.596,0-2.81,0.505-3.64,1.513C-184.138,203.773-184.553,205.24-184.553,207.165z"/>
		<path fill="#FFFFFF" d="M-158.371,207.045c0,2.377-0.645,4.195-1.936,5.452c-1.29,1.258-3.147,1.887-5.57,1.887h-3.989v-14.402
			h4.413c2.239,0,3.979,0.62,5.221,1.862C-158.99,203.085-158.371,204.818-158.371,207.045z M-160.144,207.105
			c0-1.879-0.471-3.295-1.413-4.246c-0.942-0.952-2.343-1.43-4.201-1.43h-2.434v11.506h2.04c1.995,0,3.496-0.49,4.501-1.473
			C-160.646,210.482-160.144,209.029-160.144,207.105z"/>
		<path fill="#FFFFFF" d="M-147.13,214.384h-8.027v-14.402h8.027v1.489h-6.354v4.639h5.969v1.478h-5.969v5.3h6.354V214.384z"/>
		<path fill="#FFFFFF" d="M-142.264,208.396v5.988h-1.675v-14.402h3.949c1.768,0,3.071,0.339,3.916,1.015
			c0.844,0.677,1.267,1.693,1.267,3.054c0,1.905-0.966,3.192-2.896,3.861l3.911,6.473h-1.98l-3.485-5.989H-142.264L-142.264,208.396
			z M-142.264,206.958h2.295c1.183,0,2.05-0.235,2.601-0.704c0.553-0.47,0.828-1.174,0.828-2.113c0-0.951-0.281-1.638-0.843-2.059
			c-0.562-0.42-1.463-0.63-2.704-0.63h-2.177V206.958z"/>
		<path fill="#FFFFFF" d="M-120.218,214.384h-1.911l-7.87-12.087h-0.078c0.104,1.419,0.156,2.719,0.156,3.9v8.187h-1.546v-14.402
			h1.892l7.852,12.038h0.078c-0.014-0.177-0.043-0.746-0.088-1.709c-0.047-0.961-0.062-1.649-0.051-2.062v-8.266h1.566V214.384z"/>
		<path fill="#FFFFFF" d="M-178.358,238.593l-1.792-4.579h-5.772l-1.773,4.579h-1.694l5.693-14.461h1.409l5.664,14.461H-178.358z
			 M-180.672,232.505l-1.675-4.462c-0.217-0.564-0.439-1.257-0.67-2.079c-0.145,0.632-0.352,1.324-0.62,2.079l-1.694,4.462H-180.672
			z"/>
		<path fill="#FFFFFF" d="M-168.311,231.048h4.896v7.004c-0.762,0.242-1.537,0.427-2.325,0.552
			c-0.788,0.125-1.701,0.188-2.738,0.188c-2.181,0-3.878-0.648-5.093-1.945c-1.216-1.297-1.822-3.113-1.822-5.451
			c0-1.498,0.3-2.81,0.901-3.937c0.601-1.127,1.466-1.987,2.596-2.581c1.129-0.595,2.452-0.893,3.97-0.893
			c1.537,0,2.968,0.283,4.295,0.849l-0.65,1.478c-1.3-0.553-2.551-0.826-3.753-0.826c-1.754,0-3.123,0.521-4.108,1.564
			c-0.984,1.044-1.478,2.492-1.478,4.346c0,1.942,0.475,3.418,1.424,4.422c0.949,1.006,2.343,1.508,4.182,1.508
			c0.998,0,1.974-0.114,2.926-0.346v-4.433h-3.222L-168.311,231.048L-168.311,231.048z"/>
		<path fill="#FFFFFF" d="M-159.957,238.593v-14.401h1.676v14.401H-159.957z"/>
		<path fill="#FFFFFF" d="M-154.332,238.593v-14.401h1.676v12.886h6.354v1.517L-154.332,238.593L-154.332,238.593z"/>
		<path fill="#FFFFFF" d="M-135.832,238.593h-8.027v-14.401h8.027v1.488h-6.354v4.639h5.97v1.479h-5.97v5.301h6.354V238.593z"/>
	</g>
	<path fill="#4B5666" d="M-10.781,188.581c-0.056,0-0.114-0.004-0.177-0.013l-2.357-0.33v17.21c0,0.675-0.531,1.37-1.182,1.552
		l-17.314,4.77c-0.325,0.088-0.754,0.133-1.183,0.133c-0.429,0-0.855-0.045-1.182-0.133L-51.491,207
		c-0.648-0.182-1.182-0.877-1.182-1.552l0.002-17.21l-2.358,0.33c-0.062,0.009-0.12,0.013-0.177,0.013
		c-0.544,0-0.78-0.4-0.524-0.956l3.313-7.216c0.281-0.612,1.042-1.26,1.692-1.438l17.314-4.771c0.108-0.029,0.209-0.044,0.301-0.044
		c0.043,0,0.078,0.006,0.114,0.012c0.038-0.006,0.073-0.012,0.114-0.012c0.093,0,0.193,0.015,0.301,0.044l17.316,4.771
		c0.649,0.179,1.411,0.826,1.691,1.438l3.313,7.216C-10,188.18-10.237,188.581-10.781,188.581z M-50.044,203.484
		c0,0.447,0.362,0.809,0.809,0.809c0.447,0,0.811-0.361,0.811-0.809v-7.718c0-0.447-0.362-0.81-0.811-0.81
		c-0.445,0-0.809,0.362-0.809,0.81V203.484z M-50.295,180.528c-0.191,0.054-0.568,0.376-0.651,0.556l-2.591,5.641l16.188-2.271
		c0.083-0.027,0.227-0.15,0.267-0.228l2.449-8.012L-50.295,180.528z M-32.857,185.449l-0.138-0.446v23.903
		c0.283,0,0.47-0.032,0.513-0.045l16.645-4.584V190.43l-13.386-1.878C-30.847,188.323-32.376,187.019-32.857,185.449z
		 M-15.04,181.084c-0.083-0.18-0.461-0.502-0.651-0.556l-15.66-4.313l2.449,8.012c0.039,0.077,0.184,0.2,0.268,0.228l16.187,2.271
		L-15.04,181.084z"/>
</g>
<path fill="#9EBEED" d="M184.852,160.533h-74.979c-1.72,0-3.114,1.391-3.114,3.111l0.003,28.892c0,0.003,0,0.005,0,0.009
	c0,8.683,0,17.384,0,20.292c0,6.45,2.179,15.747,10.51,25.079c11.943,13.375,30.094,18.867,30.094,18.867
	s18.152-5.492,30.092-18.867c8.334-9.332,10.51-18.627,10.51-25.079c0-2.909,0-11.613,0-20.292c0-0.003,0.003-0.005,0.003-0.009
	l-0.003-28.892C187.967,161.924,186.567,160.533,184.852,160.533z M125.448,234.057c-0.396,0.351-0.886,0.525-1.372,0.525
	c-0.568,0-1.133-0.23-1.539-0.688c-8.18-9.163-9.401-17.824-9.401-22.171c0-1.139,0.925-2.062,2.062-2.062
	c1.141,0,2.062,0.924,2.062,2.062c0,3.762,1.087,11.284,8.353,19.419C126.372,231.996,126.297,233.298,125.448,234.057z
	 M181.538,192.435c-0.002,0.036-0.002,0.074-0.002,0.11v20.292c0,4.053-1.152,12.145-8.875,20.794
	c-8.432,9.443-20.662,14.627-25.296,16.349l-0.003-83.021h34.171L181.538,192.435z"/>
<path fill="#FBD35C" d="M169.748,19.27c-8.774,0-20.148,5.172-22.382,13.88l-0.005-0.003v0.003
	c-2.236-8.708-13.609-13.88-22.382-13.88c-17.306,0-31.341,13.432-31.341,31.339c0,21.07,12.461,33.961,26.04,44.427
	c8.148,6.275,26.23,20.482,27.663,20.482c0.006,0,0.012-0.003,0.02-0.003c0.008,0,0.017,0.003,0.024,0.003
	c1.431,0,19.515-14.207,27.662-20.482c13.579-10.465,26.044-23.358,26.044-44.427C201.087,32.701,187.054,19.27,169.748,19.27z
	 M112.821,33.443c-5.411,4.003-8.514,10.261-8.514,17.166c0,1.139-0.923,2.062-2.062,2.062c-1.14,0-2.062-0.922-2.062-2.062
	c0-8.229,3.71-15.694,10.187-20.48c0.915-0.676,2.205-0.483,2.882,0.431C113.93,31.476,113.733,32.768,112.821,33.443z"/>
<path fill="#FA7977" d="M318.891,224.66c0,13.234-7.32,24.749-18.132,30.737c0,0-1.312,0.75-3.023,1.047
	c-1.667,0.285-2.893,0.339-2.893,0.339h-11.077h-11.077c0,0-1.23-0.054-2.895-0.339c-1.712-0.297-3.027-1.047-3.027-1.047
	c-10.806-5.988-18.13-17.503-18.13-30.737c0-14.614,8.924-27.138,21.616-32.43v-19.954c-1.727,0-3.127-1.4-3.127-3.125v-5.495
	c0-1.728,1.4-3.125,3.127-3.125h27.019c1.731,0,3.128,1.397,3.128,3.125v5.495c0,1.728-1.397,3.125-3.128,3.125v19.954
	C309.969,197.526,318.891,210.046,318.891,224.66z M292.805,162.656h-18.076c-1.139,0-2.062,0.921-2.062,2.062
	s0.923,2.062,2.062,2.062h18.076c1.139,0,2.061-0.922,2.061-2.062S293.943,162.656,292.805,162.656z M294.801,198.164
	c-2.394-0.997-3.956-3.339-3.956-5.935v-19.955h-14.159v19.955c0,2.596-1.561,4.935-3.956,5.935
	c-10.729,4.476-17.661,14.876-17.661,26.496c0,10.424,5.674,20.047,14.813,25.107c0.136,0.072,0.581,0.268,1.008,0.342
	c0.946,0.16,1.713,0.226,1.989,0.246h10.885h10.889c0.262-0.021,1.033-0.083,1.992-0.248c0.423-0.072,0.866-0.266,1.006-0.34
	c9.136-5.062,14.809-14.685,14.809-25.107C312.461,213.04,305.53,202.642,294.801,198.164z M308.337,224.66
	c0,8.86-4.786,17.04-12.506,21.401c-0.593,0.096-1.086,0.146-1.34,0.166h-21.457c-0.231-0.021-0.729-0.068-1.329-0.166
	c-7.725-4.361-12.509-12.542-12.509-21.401c0-3.121,0.591-6.106,1.658-8.853h45.828C307.744,218.557,308.337,221.539,308.337,224.66
	z M276.294,238.636c-5.29-3.354-8.567-9.281-8.567-15.539c0-1.14-0.924-2.062-2.063-2.062c-1.14,0-2.062,0.923-2.062,2.062
	c0,7.761,4.123,15.114,10.75,19.186l0.422,0.246l0.618,0.064c0.059,0.007,0.118,0.009,0.181,0.009c1.05,0,1.917-0.812,2.007-1.886
	C277.657,239.804,277.105,238.977,276.294,238.636z"/>
<path fill="#A4D970" d="M340.403,56.053c-0.14,0-0.29-0.012-0.451-0.036l-6.012-0.84v43.887c0,1.719-1.356,3.499-3.01,3.956
	l-44.157,12.159c-0.828,0.226-1.92,0.341-3.011,0.341c-1.092,0-2.184-0.113-3.011-0.341L236.6,103.02
	c-1.659-0.457-3.013-2.237-3.013-3.956l0.001-43.887l-6.013,0.84c-0.159,0.027-0.309,0.036-0.449,0.036
	c-1.387,0-1.991-1.023-1.341-2.439l8.451-18.399c0.718-1.561,2.66-3.214,4.317-3.67l44.156-12.163
	c0.277-0.077,0.532-0.113,0.767-0.113c0.104,0,0.197,0.018,0.292,0.029c0.093-0.012,0.187-0.029,0.289-0.029
	c0.236,0,0.492,0.036,0.771,0.113l44.153,12.163c1.658,0.457,3.599,2.109,4.317,3.67l8.449,18.399
	C342.392,55.03,341.792,56.053,340.403,56.053z M240.283,94.059c0,1.137,0.923,2.059,2.062,2.059c1.14,0,2.061-0.922,2.061-2.059
	V74.378c0-1.14-0.921-2.062-2.061-2.062c-1.139,0-2.062,0.922-2.062,2.062V94.059z M239.641,35.52
	c-0.487,0.139-1.45,0.958-1.661,1.418l-6.608,14.385l41.278-5.792c0.212-0.071,0.577-0.382,0.675-0.582l6.248-20.428L239.641,35.52z
	 M284.11,48.068l-0.347-1.139v60.955c0.722,0,1.196-0.087,1.302-0.113l42.446-11.688V60.768l-34.137-4.789
	C289.233,55.397,285.336,52.072,284.11,48.068z M329.545,36.936c-0.212-0.46-1.173-1.278-1.663-1.416l-39.934-10.999l6.245,20.426
	c0.102,0.199,0.468,0.514,0.679,0.584l41.277,5.789L329.545,36.936z"/>
<g>
	<circle fill="#4B5666" cx="468.263" cy="138.026" r="118.757"/>
	<g>
		<path fill="#FBD35C" d="M388.327,58.09c44.184-44.183,115.688-44.183,159.872,0.001l-79.935,79.935L388.327,58.09z"/>
	</g>
	<g>
		<path fill="#A4D970" d="M548.2,58.09c44.183,44.183,44.182,115.688-0.002,159.871l-79.935-79.935L548.2,58.09z"/>
	</g>
	<g>
		<path fill="#A1BDE3" d="M548.198,217.963c-44.183,44.183-115.688,44.182-159.871-0.002l79.935-79.935L548.198,217.963z"/>
	</g>
	<g>
		<path fill="#FA7977" d="M388.327,217.963c-44.183-44.183-44.182-115.688,0-159.871l79.936,79.935L388.327,217.963z"/>
	</g>
	<circle fill="#4B5666" cx="468.263" cy="138.027" r="40.138"/>
	<path fill="#4B5666" d="M476.17,47.493c-3.1,0-7.117,1.827-7.907,4.903l-0.001-0.001v0.001c-0.79-3.076-4.807-4.903-7.906-4.903
		c-6.111,0-11.068,4.745-11.068,11.069c0,7.442,4.4,11.997,9.197,15.691c2.879,2.218,9.265,7.235,9.771,7.235
		c0.003,0,0.005,0,0.007,0c0.003,0,0.007,0,0.009,0c0.506,0,6.892-5.018,9.77-7.235c4.797-3.695,9.198-8.25,9.198-15.691
		C487.238,52.238,482.281,47.493,476.17,47.493z M456.062,52.5c-1.91,1.414-3.007,3.624-3.007,6.062
		c0,0.403-0.326,0.729-0.729,0.729s-0.729-0.326-0.729-0.729c0-2.906,1.312-5.542,3.598-7.233c0.323-0.239,0.779-0.171,1.019,0.153
		C456.454,51.805,456.386,52.261,456.062,52.5z"/>
	<path fill="#4B5666" d="M405.159,143.678c0,4.674-2.586,8.741-6.404,10.856c0,0-0.464,0.265-1.068,0.37
		c-0.589,0.102-1.022,0.12-1.022,0.12h-3.913h-3.912c0,0-0.434-0.018-1.022-0.12c-0.604-0.105-1.068-0.37-1.068-0.37
		c-3.818-2.115-6.404-6.183-6.404-10.856c0-5.161,3.152-9.585,7.635-11.455v-7.047c-0.609,0-1.104-0.494-1.104-1.104v-1.941
		c0-0.609,0.494-1.103,1.104-1.103h9.544c0.61,0,1.104,0.494,1.104,1.103v1.941c0,0.609-0.494,1.104-1.104,1.104v7.047
		C402.007,134.093,405.159,138.517,405.159,143.678z M395.945,121.778h-6.385c-0.403,0-0.729,0.326-0.729,0.728
		c0,0.403,0.326,0.729,0.729,0.729h6.385c0.402,0,0.729-0.326,0.729-0.729C396.673,122.104,396.347,121.778,395.945,121.778z
		 M396.649,134.319c-0.846-0.353-1.396-1.179-1.396-2.096v-7.047h-5.001v7.047c0,0.917-0.551,1.743-1.397,2.096
		c-3.789,1.581-6.238,5.254-6.238,9.359c0,3.682,2.004,7.08,5.23,8.869c0.05,0.025,0.206,0.093,0.358,0.119
		c0.335,0.059,0.604,0.08,0.702,0.087h3.846h3.845c0.092-0.006,0.364-0.029,0.704-0.087c0.15-0.026,0.305-0.094,0.355-0.119
		c3.227-1.789,5.232-5.187,5.232-8.869C402.887,139.573,400.439,135.9,396.649,134.319z M401.43,143.678
		c0,3.129-1.69,6.018-4.417,7.559c-0.209,0.034-0.384,0.052-0.473,0.06h-7.579c-0.083-0.007-0.257-0.024-0.47-0.06
		c-2.728-1.54-4.419-4.43-4.419-7.559c0-1.103,0.21-2.157,0.585-3.127h16.188C401.222,141.521,401.43,142.575,401.43,143.678z
		 M390.114,148.614c-1.87-1.184-3.027-3.278-3.027-5.488c0-0.402-0.326-0.728-0.729-0.728c-0.402,0-0.729,0.326-0.729,0.728
		c0,2.742,1.456,5.339,3.798,6.777l0.148,0.086l0.218,0.023c0.021,0.002,0.042,0.003,0.064,0.003c0.372,0,0.677-0.287,0.71-0.667
		C390.595,149.026,390.399,148.735,390.114,148.614z"/>
	<g>
		<path fill="#FFFFFF" d="M447.234,135.124l-2.9-7.58h-0.047c0.055,0.6,0.083,1.313,0.083,2.141v5.439h-0.92v-8.551h1.498
			l2.708,7.054h0.047l2.732-7.054h1.485v8.551h-0.994v-5.51c0-0.632,0.026-1.318,0.081-2.06h-0.046l-2.925,7.569H447.234z"/>
		<path fill="#FFFFFF" d="M461.688,130.836c0,1.369-0.347,2.445-1.038,3.229c-0.692,0.784-1.654,1.176-2.887,1.176
			c-1.26,0-2.231-0.385-2.915-1.155c-0.685-0.771-1.027-1.858-1.027-3.261c0-1.393,0.344-2.472,1.029-3.238
			c0.687-0.766,1.661-1.149,2.926-1.149c1.228,0,2.187,0.39,2.877,1.17C461.344,128.387,461.688,129.464,461.688,130.836z
			 M454.875,130.836c0,1.158,0.245,2.037,0.739,2.635c0.493,0.599,1.21,0.897,2.149,0.897c0.947,0,1.662-0.298,2.146-0.894
			c0.483-0.597,0.726-1.476,0.726-2.638c0-1.15-0.241-2.022-0.723-2.618c-0.481-0.594-1.194-0.891-2.137-0.891
			c-0.949,0-1.669,0.299-2.162,0.897C455.121,128.823,454.875,129.693,454.875,130.836z"/>
		<path fill="#FFFFFF" d="M470.422,130.766c0,1.412-0.383,2.491-1.15,3.237c-0.766,0.747-1.868,1.12-3.307,1.12h-2.369v-8.551h2.62
			c1.33,0,2.363,0.368,3.101,1.105C470.053,128.414,470.422,129.444,470.422,130.766z M469.368,130.801
			c0-1.115-0.279-1.956-0.839-2.522c-0.559-0.564-1.391-0.848-2.494-0.848h-1.445v6.833h1.211c1.185,0,2.076-0.291,2.674-0.875
			C469.07,132.807,469.368,131.943,469.368,130.801z"/>
		<path fill="#FFFFFF" d="M477.096,135.124h-4.768v-8.551h4.768v0.882h-3.772v2.756h3.544v0.877h-3.544v3.147h3.772V135.124z"/>
		<path fill="#FFFFFF" d="M479.985,131.567v3.556h-0.994v-8.551h2.346c1.049,0,1.823,0.201,2.325,0.602
			c0.5,0.402,0.751,1.006,0.751,1.814c0,1.131-0.573,1.895-1.72,2.292l2.322,3.843h-1.176l-2.07-3.556H479.985L479.985,131.567z
			 M479.985,130.713h1.363c0.702,0,1.217-0.139,1.544-0.418c0.327-0.278,0.491-0.696,0.491-1.254c0-0.564-0.166-0.973-0.501-1.222
			c-0.333-0.25-0.867-0.375-1.604-0.375h-1.293V130.713L479.985,130.713z"/>
		<path fill="#FFFFFF" d="M493.075,135.124h-1.134l-4.674-7.177h-0.047c0.062,0.843,0.094,1.615,0.094,2.317v4.86h-0.918v-8.551
			h1.122l4.663,7.147h0.046c-0.007-0.105-0.025-0.443-0.053-1.015c-0.027-0.571-0.037-0.979-0.028-1.226v-4.907h0.929V135.124
			L493.075,135.124z"/>
		<path fill="#FFFFFF" d="M458.554,149.498l-1.065-2.72h-3.427l-1.053,2.72h-1.007l3.381-8.585h0.837l3.362,8.585H458.554z
			 M457.179,145.884l-0.994-2.65c-0.128-0.335-0.261-0.746-0.397-1.234c-0.086,0.374-0.209,0.786-0.369,1.234l-1.006,2.65H457.179z"
			/>
		<path fill="#FFFFFF" d="M464.52,145.018h2.907v4.159c-0.452,0.144-0.912,0.253-1.381,0.327c-0.468,0.074-1.01,0.111-1.626,0.111
			c-1.295,0-2.302-0.385-3.023-1.155s-1.082-1.849-1.082-3.237c0-0.889,0.178-1.668,0.534-2.337c0.357-0.668,0.871-1.18,1.542-1.533
			c0.67-0.353,1.456-0.529,2.356-0.529c0.913,0,1.763,0.167,2.551,0.503l-0.386,0.877c-0.771-0.327-1.516-0.49-2.229-0.49
			c-1.041,0-1.854,0.31-2.439,0.93c-0.585,0.62-0.878,1.479-0.878,2.579c0,1.154,0.282,2.029,0.846,2.626
			c0.563,0.596,1.391,0.895,2.483,0.895c0.592,0,1.171-0.067,1.736-0.205v-2.632h-1.912V145.018L464.52,145.018z"/>
		<path fill="#FFFFFF" d="M469.479,149.498v-8.551h0.994v8.551H469.479z"/>
		<path fill="#FFFFFF" d="M472.82,149.498v-8.551h0.994v7.652h3.772v0.899H472.82z"/>
		<path fill="#FFFFFF" d="M483.805,149.498h-4.767v-8.551h4.767v0.883h-3.772v2.755h3.545v0.877h-3.545v3.147h3.772V149.498z"/>
	</g>
	<path fill="#4B5666" d="M481.503,196.173h-26.481c-0.607,0-1.101,0.493-1.101,1.101l0.001,10.205c0,0,0.001,0.002,0.001,0.003
		c0,3.064,0,6.139,0,7.167c0,2.278,0.769,5.561,3.712,8.857c4.218,4.725,10.629,6.664,10.629,6.664s6.41-1.939,10.628-6.664
		c2.943-3.297,3.713-6.579,3.713-8.857c0-1.028,0-4.103,0-7.167c0-0.001,0.001-0.003,0.001-0.003l-0.002-10.205
		C482.604,196.666,482.111,196.173,481.503,196.173z M460.522,222.144c-0.139,0.124-0.313,0.185-0.484,0.185
		c-0.201,0-0.4-0.082-0.544-0.243c-2.89-3.235-3.32-6.295-3.32-7.83c0-0.402,0.326-0.729,0.729-0.729s0.729,0.326,0.729,0.729
		c0,1.327,0.383,3.985,2.95,6.859C460.848,221.415,460.822,221.876,460.522,222.144z M480.334,207.442
		c-0.001,0.013-0.001,0.025-0.001,0.039v7.167c0,1.432-0.407,4.29-3.135,7.346c-2.979,3.335-7.298,5.165-8.935,5.772l-0.002-29.321
		h12.07L480.334,207.442z"/>
	<path fill-rule="evenodd" clip-rule="evenodd" fill="#4B5666" d="M563.288,134.021c-0.05,0-0.103-0.003-0.158-0.012l-2.124-0.297
		v15.501c0,0.607-0.479,1.235-1.063,1.397l-15.597,4.294c-0.292,0.08-0.678,0.121-1.062,0.121c-0.386,0-0.771-0.041-1.065-0.121
		l-15.595-4.294c-0.585-0.162-1.063-0.79-1.063-1.397v-15.501l-2.123,0.297c-0.057,0.008-0.109,0.012-0.159,0.012
		c-0.49,0-0.703-0.36-0.474-0.861l2.984-6.499c0.254-0.551,0.939-1.134,1.525-1.296l15.596-4.296c0.098-0.027,0.188-0.04,0.271-0.04
		c0.037,0,0.069,0.005,0.104,0.011c0.033-0.005,0.065-0.011,0.103-0.011c0.083,0,0.174,0.013,0.271,0.04l15.596,4.296
		c0.585,0.162,1.271,0.745,1.524,1.296l2.984,6.499C563.991,133.66,563.779,134.021,563.288,134.021z M527.926,147.445
		c0,0.402,0.326,0.728,0.728,0.728c0.403,0,0.729-0.326,0.729-0.728v-6.952c0-0.402-0.326-0.729-0.729-0.729
		c-0.401,0-0.728,0.327-0.728,0.729V147.445z M527.699,126.769c-0.172,0.048-0.512,0.338-0.587,0.5l-2.334,5.08l14.58-2.045
		c0.075-0.024,0.204-0.136,0.239-0.205l2.207-7.216L527.699,126.769z M543.405,131.201l-0.122-0.402v21.529
		c0.254,0,0.423-0.03,0.46-0.04l14.992-4.128v-12.474l-12.057-1.691C545.215,133.79,543.839,132.615,543.405,131.201z
		 M559.453,127.27c-0.075-0.163-0.415-0.453-0.587-0.5l-14.105-3.886l2.206,7.216c0.037,0.069,0.166,0.181,0.241,0.205l14.578,2.045
		L559.453,127.27z"/>
</g>
<g>
	<circle fill="#4B5666" cx="547.327" cy="379.58" r="39.693"/>
	<g>
		<g>
			<path fill="#FBD35C" d="M522.43,354.682c13.762-13.762,36.033-13.762,49.795,0l-24.897,24.898L522.43,354.682z"/>
		</g>
		<g>
			<path fill="#A4D970" d="M572.225,354.682c13.763,13.763,13.763,36.034,0,49.797l-24.897-24.898L572.225,354.682z"/>
		</g>
		<g>
			<path fill="#A1BDE3" d="M572.225,404.479c-13.762,13.762-36.033,13.762-49.795,0l24.897-24.898L572.225,404.479z"/>
		</g>
		<g>
			<path fill="#FA7977" d="M522.43,404.479c-13.763-13.763-13.763-36.034,0-49.797l24.897,24.898L522.43,404.479z"/>
		</g>
	</g>
	<circle fill="#4B5666" cx="547.327" cy="379.58" r="16.373"/>
</g>
<path fill-rule="evenodd" clip-rule="evenodd" fill="#4B5767" d="M301.464,364.075c-0.117,0-0.241-0.01-0.372-0.028l-4.958-0.694
	v36.197c0,1.417-1.118,2.884-2.484,3.262l-36.419,10.028c-0.683,0.188-1.584,0.283-2.484,0.283c-0.901,0-1.801-0.095-2.484-0.283
	l-36.417-10.028c-1.367-0.378-2.484-1.845-2.484-3.262l0-36.197l-4.959,0.694c-0.13,0.019-0.254,0.028-0.372,0.028
	c-1.144,0-1.641-0.845-1.104-2.012l6.968-15.177c0.592-1.286,2.193-2.649,3.561-3.026l36.418-10.031
	c0.228-0.062,0.439-0.094,0.633-0.094c0.086,0,0.163,0.014,0.24,0.025c0.079-0.012,0.154-0.025,0.24-0.025
	c0.194,0,0.406,0.031,0.633,0.094l36.418,10.031c1.367,0.377,2.968,1.74,3.561,3.026l6.969,15.177
	C303.105,363.23,302.609,364.075,301.464,364.075z M218.36,347.141c-0.402,0.112-1.197,0.788-1.372,1.167l-5.449,11.864
	l34.044-4.775c0.175-0.058,0.477-0.316,0.559-0.479l5.153-16.85L218.36,347.141z M255.035,357.489l-0.287-0.938v50.272
	c0.595,0,0.986-0.068,1.076-0.092l35.007-9.642v-29.126l-28.154-3.95C259.261,363.534,256.047,360.791,255.035,357.489z
	 M292.508,348.308c-0.175-0.379-0.969-1.055-1.372-1.167l-32.936-9.073l5.153,16.85c0.083,0.163,0.385,0.422,0.56,0.479
	l34.044,4.775L292.508,348.308z"/>
<path fill="#4B5767" d="M483.14,392.776c0,10.915-6.039,20.413-14.953,25.352c0,0-1.084,0.62-2.495,0.864
	c-1.374,0.237-2.387,0.281-2.387,0.281h-9.137h-9.135c0,0-1.016-0.045-2.389-0.281c-1.412-0.244-2.495-0.864-2.495-0.864
	c-8.915-4.938-14.954-14.437-14.954-25.352c0-12.052,7.36-22.382,17.829-26.747v-16.457c-1.424,0-2.577-1.154-2.577-2.577v-4.532
	c0-1.424,1.153-2.577,2.577-2.577h22.286c1.424,0,2.577,1.154,2.577,2.577v4.532c0,1.423-1.153,2.577-2.577,2.577v16.457
	C475.78,370.396,483.14,380.725,483.14,392.776z M463.271,370.924c-1.976-0.823-3.263-2.754-3.263-4.895v-16.457h-11.679v16.457
	c0,2.141-1.287,4.07-3.263,4.895c-8.849,3.691-14.566,12.269-14.566,21.853c0,8.599,4.679,16.534,12.215,20.71
	c0.114,0.059,0.48,0.218,0.832,0.279c0.783,0.136,1.413,0.188,1.642,0.204h8.979h8.981c0.215-0.015,0.85-0.067,1.642-0.204
	c0.351-0.062,0.715-0.22,0.83-0.279c7.534-4.176,12.215-12.111,12.215-20.71C477.836,383.192,472.119,374.615,463.271,370.924z
	 M474.434,392.776c0,7.307-3.947,14.054-10.315,17.652c-0.489,0.08-0.896,0.121-1.104,0.139h-17.697
	c-0.192-0.017-0.601-0.057-1.097-0.139c-6.369-3.598-10.318-10.346-10.318-17.652c0-2.573,0.489-5.034,1.367-7.302h37.799
	C473.946,387.742,474.434,390.203,474.434,392.776z"/>
<path fill="#4B5767" d="M156.412,333.736c-7.238,0-16.618,4.268-18.463,11.449l-0.001-0.002v0.002
	c-1.845-7.182-11.226-11.449-18.462-11.449c-14.272,0-25.848,11.079-25.848,25.849c0,17.378,10.276,28.013,21.478,36.642
	c6.721,5.178,21.634,16.896,22.814,16.896c0.006,0,0.012-0.002,0.018-0.002c0.006,0,0.013,0.002,0.019,0.002
	c1.18,0,16.094-11.719,22.814-16.896c11.202-8.629,21.479-19.264,21.479-36.642C182.26,344.815,170.684,333.736,156.412,333.736z"/>
<path fill="#4B5767" d="M393.203,339.887h-61.839c-1.418,0-2.569,1.149-2.569,2.567l0.003,23.83c0,0.002,0.001,0.005,0.001,0.007
	c0,7.158,0,14.338,0,16.736c0,5.319,1.795,12.986,8.668,20.685c9.849,11.03,24.82,15.561,24.82,15.561s14.971-4.53,24.819-15.561
	c6.874-7.698,8.668-15.365,8.668-20.685c0-2.398,0-9.578,0-16.736c0-0.002,0.001-0.005,0.001-0.007l-0.003-23.83
	C395.772,341.036,394.62,339.887,393.203,339.887z M390.471,366.2c0,0.03,0,0.061,0,0.091v16.736c0,3.344-0.952,10.019-7.321,17.152
	c-6.954,7.788-17.041,12.062-20.863,13.481l-0.003-68.471h28.185L390.471,366.2z"/>
</svg>
