<?xml version="1.0" encoding="utf-8"?>
<!-- Generator: Adobe Illustrator 15.0.2, SVG Export Plug-In . SVG Version: 6.00 Build 0)  -->
<!DOCTYPE svg PUBLIC "-//W3C//DTD SVG 1.1//EN" "http://www.w3.org/Graphics/SVG/1.1/DTD/svg11.dtd">
<svg version="1.1" id="Layer_1" xmlns="http://www.w3.org/2000/svg" xmlns:xlink="http://www.w3.org/1999/xlink" x="0px" y="0px"
	 width="869.293px" height="400px" viewBox="-362.005 19.273 869.293 400" enable-background="new -362.005 19.273 869.293 400"
	 xml:space="preserve">
<g>
	<circle fill="#4B5666" cx="-162.005" cy="219.273" r="200"/>
	<g>
		<path fill="#FBD35C" d="M-296.625,84.651c74.408-74.407,194.83-74.406,269.239,0.003l-134.618,134.619L-296.625,84.651z"/>
	</g>
	<g>
		<path fill="#A4D970" d="M-27.383,84.653c74.408,74.409,74.406,194.831-0.003,269.239l-134.618-134.619L-27.383,84.653z"/>
	</g>
	<g>
		<path fill="#9EBEED" d="M-27.386,353.894c-74.408,74.41-194.83,74.408-269.24-0.002l134.62-134.619L-27.386,353.894z"/>
	</g>
	<g>
		<path fill="#FA7977" d="M-296.627,353.894c-74.408-74.41-74.407-194.831,0.003-269.24l134.619,134.619L-296.627,353.894z"/>
	</g>
	<circle fill="#4B5666" cx="-162.005" cy="219.273" r="67.597"/>
	<path fill="#4B5666" d="M-153.228,49.944c-3.44,0-7.9,2.028-8.777,5.442h-0.001l0,0c-0.878-3.414-5.337-5.442-8.777-5.442
		c-6.786,0-12.29,5.268-12.29,12.289c0,8.263,4.887,13.318,10.212,17.422c3.195,2.462,10.286,8.033,10.847,8.033
		c0.003,0,0.006-0.001,0.009-0.001s0.007,0.001,0.009,0.001c0.562,0,7.652-5.571,10.849-8.033
		c5.326-4.104,10.213-9.159,10.213-17.422C-140.937,55.211-146.441,49.944-153.228,49.944z M-175.551,55.502
		c-2.121,1.569-3.339,4.021-3.339,6.73c0,0.447-0.361,0.81-0.808,0.81c-0.447,0-0.81-0.362-0.81-0.81
		c0-3.227,1.456-6.153,3.994-8.031c0.359-0.266,0.865-0.189,1.131,0.17C-175.115,54.73-175.192,55.237-175.551,55.502z"/>
	<path fill="#4B5666" d="M-277.242,199.302c0,5.189-2.871,9.705-7.109,12.053c0,0-0.515,0.295-1.187,0.411
		c-0.653,0.112-1.135,0.133-1.135,0.133h-4.344h-4.343c0,0-0.483-0.021-1.136-0.133c-0.671-0.116-1.186-0.411-1.186-0.411
		c-4.239-2.348-7.109-6.863-7.109-12.053c0-5.73,3.499-10.642,8.476-12.718v-7.824c-0.677,0-1.225-0.549-1.225-1.225v-2.155
		c0-0.677,0.548-1.226,1.225-1.226h10.596c0.677,0,1.226,0.549,1.226,1.226v2.155c0,0.676-0.549,1.225-1.226,1.225v7.824
		C-280.741,188.662-277.242,193.572-277.242,199.302z M-287.472,174.988h-7.089c-0.446,0-0.809,0.362-0.809,0.809
		c0,0.447,0.362,0.809,0.809,0.809h7.089c0.447,0,0.809-0.361,0.809-0.809C-286.664,175.351-287.026,174.988-287.472,174.988z
		 M-286.689,188.914c-0.939-0.393-1.552-1.311-1.552-2.328v-7.824h-5.552v7.824c0,1.018-0.612,1.936-1.551,2.328
		c-4.207,1.755-6.925,5.832-6.925,10.39c0,4.088,2.226,7.86,5.808,9.846c0.054,0.028,0.228,0.104,0.396,0.134
		c0.372,0.063,0.672,0.089,0.78,0.097h4.269h4.27c0.103-0.008,0.404-0.032,0.781-0.098c0.167-0.028,0.34-0.104,0.395-0.133
		c3.583-1.985,5.808-5.758,5.808-9.846C-279.764,194.746-282.482,190.668-286.689,188.914z M-281.381,199.302
		c0,3.474-1.877,6.681-4.904,8.393c-0.233,0.038-0.426,0.058-0.525,0.065h-8.415c-0.092-0.008-0.286-0.026-0.522-0.065
		c-3.028-1.711-4.906-4.919-4.906-8.393c0-1.224,0.233-2.394,0.65-3.473h17.971C-281.613,196.909-281.381,198.08-281.381,199.302z
		 M-293.946,204.782c-2.075-1.314-3.36-3.64-3.36-6.093c0-0.446-0.362-0.809-0.809-0.809c-0.446,0-0.809,0.362-0.809,0.809
		c0,3.044,1.616,5.928,4.216,7.524l0.165,0.096l0.242,0.026c0.023,0.002,0.047,0.003,0.07,0.003c0.414,0,0.751-0.319,0.788-0.74
		C-293.413,205.24-293.629,204.917-293.946,204.782z"/>
	<path fill="#4B5666" d="M-147.304,307.927h-29.403c-0.674,0-1.221,0.547-1.221,1.221l0.001,11.33c0,0.002,0,0.004,0,0.004
		c0,3.403,0,6.817,0,7.957c0,2.529,0.854,6.174,4.122,9.836c4.683,5.244,11.801,7.397,11.801,7.397s7.118-2.153,11.801-7.397
		c3.269-3.662,4.121-7.307,4.121-9.836c0-1.14,0-4.554,0-7.957c0,0,0.001-0.002,0.001-0.004l-0.001-11.33
		C-146.083,308.474-146.63,307.927-147.304,307.927z M-170.599,336.76c-0.154,0.14-0.347,0.206-0.538,0.206
		c-0.223,0-0.444-0.092-0.604-0.271c-3.207-3.592-3.686-6.987-3.686-8.692c0-0.446,0.361-0.81,0.808-0.81
		c0.447,0,0.81,0.363,0.81,0.81c0,1.476,0.426,4.424,3.275,7.616C-170.236,335.953-170.268,336.463-170.599,336.76z
		 M-148.605,320.439c0,0.015,0,0.028,0,0.043v7.957c0,1.592-0.451,4.765-3.479,8.155c-3.308,3.703-8.103,5.736-9.92,6.411
		l-0.002-32.557h13.401V320.439z"/>
	<g>
		<path fill="#4B5666" d="M-206.817,106.475l-3.432-9.88h-0.064c0.092,1.467,0.138,2.843,0.138,4.127v5.753h-1.756v-11.83h2.727
			l3.285,9.41h0.049l3.383-9.41h2.735v11.83h-1.861v-5.851c0-0.588,0.015-1.354,0.044-2.298c0.029-0.944,0.056-1.516,0.076-1.716
			h-0.064l-3.552,9.864L-206.817,106.475L-206.817,106.475z"/>
		<path fill="#4B5666" d="M-191.24,106.475l-0.38-1.246h-0.065c-0.431,0.545-0.865,0.916-1.303,1.112
			c-0.437,0.197-0.998,0.295-1.683,0.295c-0.879,0-1.565-0.237-2.06-0.712c-0.493-0.475-0.74-1.146-0.74-2.015
			c0-0.922,0.343-1.618,1.027-2.088c0.686-0.469,1.729-0.725,3.132-0.769l1.545-0.048v-0.478c0-0.572-0.133-1-0.4-1.282
			c-0.267-0.284-0.681-0.426-1.241-0.426c-0.459,0-0.898,0.068-1.319,0.203c-0.421,0.135-0.825,0.294-1.214,0.477l-0.615-1.358
			c0.486-0.254,1.018-0.447,1.595-0.579c0.577-0.132,1.122-0.198,1.635-0.198c1.138,0,1.997,0.248,2.577,0.744
			c0.579,0.497,0.869,1.275,0.869,2.339v6.028L-191.24,106.475L-191.24,106.475z M-194.072,105.18c0.69,0,1.245-0.192,1.663-0.579
			c0.418-0.385,0.627-0.926,0.627-1.622v-0.776l-1.148,0.049c-0.896,0.032-1.548,0.182-1.955,0.448
			c-0.407,0.268-0.61,0.676-0.61,1.227c0,0.399,0.118,0.708,0.356,0.926C-194.902,105.07-194.547,105.18-194.072,105.18z"/>
		<path fill="#4B5666" d="M-185.39,101.749l1.076-1.342l2.702-2.882h2.193l-3.601,3.844l3.827,5.106h-2.233l-2.872-3.925
			l-1.045,0.857v3.067h-1.885v-12.59h1.885v6.142l-0.097,1.723H-185.39z"/>
		<path fill="#4B5666" d="M-173.843,106.635c-1.393,0-2.48-0.406-3.266-1.218c-0.784-0.812-1.178-1.93-1.178-3.354
			c0-1.462,0.365-2.611,1.093-3.447c0.729-0.836,1.729-1.254,3.002-1.254c1.182,0,2.115,0.359,2.8,1.076
			c0.686,0.718,1.028,1.705,1.028,2.962v1.027h-5.964c0.026,0.868,0.262,1.535,0.704,2.003c0.442,0.466,1.065,0.699,1.869,0.699
			c0.528,0,1.021-0.049,1.477-0.149s0.945-0.266,1.469-0.498v1.546c-0.464,0.222-0.934,0.378-1.408,0.47
			C-172.691,106.59-173.234,106.635-173.843,106.635z M-174.192,98.802c-0.604,0-1.088,0.192-1.452,0.575
			c-0.364,0.383-0.581,0.941-0.651,1.675h4.062c-0.012-0.739-0.189-1.299-0.534-1.679
			C-173.112,98.994-173.587,98.802-174.192,98.802z"/>
		<path fill="#4B5666" d="M-155.863,98.22c0,1.235-0.404,2.182-1.215,2.84c-0.81,0.658-1.961,0.987-3.455,0.987h-1.229v4.427h-1.934
			v-11.83h3.406c1.479,0,2.586,0.302,3.322,0.906S-155.863,97.044-155.863,98.22z M-161.763,100.421h1.027
			c0.992,0,1.722-0.173,2.186-0.518c0.464-0.346,0.695-0.886,0.695-1.619c0-0.68-0.207-1.187-0.623-1.521
			c-0.416-0.335-1.062-0.502-1.941-0.502h-1.344V100.421L-161.763,100.421z"/>
		<path fill="#4B5666" d="M-149.795,106.635c-1.392,0-2.479-0.406-3.265-1.218c-0.786-0.812-1.178-1.93-1.178-3.354
			c0-1.462,0.363-2.611,1.092-3.447c0.729-0.836,1.729-1.254,3.002-1.254c1.183,0,2.115,0.359,2.801,1.076
			c0.686,0.718,1.027,1.705,1.027,2.962v1.027h-5.965c0.027,0.868,0.262,1.535,0.705,2.003c0.441,0.466,1.064,0.699,1.869,0.699
			c0.528,0,1.021-0.049,1.477-0.149s0.945-0.266,1.47-0.498v1.546c-0.466,0.222-0.935,0.378-1.408,0.47
			C-148.642,106.59-149.185,106.635-149.795,106.635z M-150.144,98.802c-0.604,0-1.088,0.192-1.451,0.575
			c-0.364,0.383-0.582,0.941-0.651,1.675h4.062c-0.01-0.739-0.188-1.299-0.533-1.679S-149.539,98.802-150.144,98.802z"/>
		<path fill="#4B5666" d="M-136.217,101.983c0,1.462-0.375,2.603-1.125,3.423c-0.749,0.82-1.793,1.229-3.131,1.229
			c-0.837,0-1.575-0.188-2.218-0.566c-0.643-0.377-1.137-0.92-1.48-1.626c-0.346-0.707-0.518-1.526-0.518-2.46
			c0-1.451,0.371-2.584,1.115-3.398c0.745-0.814,1.795-1.222,3.147-1.222c1.295,0,2.319,0.416,3.075,1.25
			C-136.594,99.446-136.217,100.57-136.217,101.983z M-142.732,101.983c0,2.066,0.765,3.099,2.291,3.099
			c1.511,0,2.266-1.032,2.266-3.099c0-2.045-0.762-3.066-2.282-3.066c-0.798,0-1.377,0.264-1.735,0.793
			C-142.551,100.238-142.732,100.998-142.732,101.983z"/>
		<path fill="#4B5666" d="M-129.492,106.635c-1.134,0-2.013-0.406-2.639-1.221h-0.113c0.075,0.755,0.113,1.213,0.113,1.375v3.665
			h-1.9v-12.93h1.537c0.043,0.168,0.133,0.567,0.268,1.198h0.097c0.595-0.906,1.483-1.359,2.67-1.359
			c1.117,0,1.987,0.404,2.608,1.214c0.625,0.809,0.936,1.944,0.936,3.406s-0.316,2.603-0.949,3.423
			C-127.5,106.227-128.376,106.635-129.492,106.635z M-129.954,98.917c-0.756,0-1.307,0.221-1.655,0.663
			c-0.348,0.442-0.521,1.149-0.521,2.12v0.283c0,1.09,0.173,1.879,0.519,2.367c0.346,0.487,0.908,0.731,1.69,0.731
			c0.658,0,1.165-0.27,1.521-0.809s0.535-1.308,0.535-2.306c0-1.004-0.178-1.764-0.531-2.278
			C-128.75,99.173-129.269,98.917-129.954,98.917z"/>
		<path fill="#4B5666" d="M-121.805,106.475h-1.901V93.883h1.901V106.475z"/>
		<path fill="#4B5666" d="M-115.178,106.635c-1.394,0-2.479-0.406-3.267-1.218c-0.783-0.812-1.177-1.93-1.177-3.354
			c0-1.462,0.363-2.611,1.093-3.447c0.729-0.836,1.729-1.254,3.002-1.254c1.182,0,2.114,0.359,2.799,1.076
			c0.687,0.718,1.027,1.705,1.027,2.962v1.027h-5.963c0.026,0.868,0.262,1.535,0.703,2.003c0.443,0.466,1.064,0.699,1.869,0.699
			c0.529,0,1.021-0.049,1.479-0.149c0.455-0.1,0.944-0.266,1.469-0.498v1.546c-0.465,0.222-0.935,0.378-1.408,0.47
			C-114.027,106.59-114.568,106.635-115.178,106.635z M-115.527,98.802c-0.604,0-1.088,0.192-1.451,0.575
			c-0.364,0.383-0.582,0.941-0.651,1.675h4.062c-0.011-0.739-0.188-1.299-0.533-1.679S-114.922,98.802-115.527,98.802z"/>
		<path fill="#4B5666" d="M-192.107,126.36l-1.181-3.285h-4.524l-1.156,3.285h-2.039l4.426-11.878h2.104l4.427,11.878H-192.107z
			 M-193.798,121.409l-1.108-3.221c-0.081-0.216-0.192-0.557-0.335-1.021c-0.144-0.464-0.242-0.803-0.296-1.019
			c-0.146,0.663-0.358,1.389-0.639,2.176l-1.068,3.084L-193.798,121.409L-193.798,121.409z"/>
		<path fill="#4B5666" d="M-181.354,126.36l-1.157-4.175c-0.14-0.442-0.394-1.47-0.76-3.083h-0.073
			c-0.312,1.457-0.562,2.489-0.744,3.1l-1.189,4.158h-2.104l-2.508-8.949h1.941l1.142,4.41c0.259,1.09,0.441,2.022,0.55,2.8h0.049
			c0.054-0.394,0.136-0.845,0.246-1.355c0.111-0.51,0.207-0.891,0.288-1.145l1.358-4.71h2.088l1.319,4.71
			c0.081,0.264,0.183,0.668,0.303,1.213c0.122,0.546,0.193,0.969,0.215,1.271h0.065c0.08-0.663,0.27-1.591,0.565-2.783l1.157-4.41
			h1.91l-2.524,8.949L-181.354,126.36L-181.354,126.36z"/>
		<path fill="#4B5666" d="M-171.247,126.522c-1.392,0-2.479-0.405-3.265-1.218c-0.785-0.812-1.178-1.93-1.178-3.354
			c0-1.462,0.364-2.611,1.093-3.447c0.729-0.837,1.729-1.255,3.002-1.255c1.182,0,2.114,0.359,2.8,1.076
			c0.685,0.718,1.027,1.705,1.027,2.962v1.028h-5.964c0.027,0.868,0.263,1.536,0.704,2.002c0.442,0.467,1.066,0.7,1.87,0.7
			c0.528,0,1.021-0.05,1.477-0.149c0.456-0.101,0.945-0.266,1.469-0.498v1.545c-0.464,0.222-0.934,0.378-1.408,0.47
			C-170.093,126.477-170.636,126.522-171.247,126.522z M-171.594,118.69c-0.604,0-1.088,0.19-1.452,0.574
			c-0.364,0.383-0.581,0.941-0.651,1.675h4.062c-0.011-0.739-0.188-1.299-0.534-1.679
			C-170.515,118.879-170.99,118.69-171.594,118.69z"/>
		<path fill="#4B5666" d="M-159.594,123.812c0,0.874-0.318,1.544-0.955,2.011c-0.636,0.467-1.548,0.7-2.734,0.7
			c-1.192,0-2.149-0.181-2.873-0.542v-1.643c1.052,0.485,2.031,0.729,2.938,0.729c1.171,0,1.756-0.354,1.756-1.061
			c0-0.226-0.064-0.415-0.194-0.566c-0.129-0.15-0.343-0.308-0.64-0.47c-0.296-0.161-0.709-0.345-1.237-0.55
			c-1.031-0.399-1.728-0.798-2.092-1.197c-0.364-0.399-0.546-0.917-0.546-1.554c0-0.767,0.309-1.361,0.927-1.784
			c0.617-0.424,1.457-0.636,2.52-0.636c1.053,0,2.048,0.214,2.986,0.64l-0.615,1.432c-0.967-0.398-1.777-0.599-2.437-0.599
			c-1.003,0-1.505,0.286-1.505,0.858c0,0.28,0.131,0.518,0.393,0.712s0.832,0.461,1.711,0.801c0.74,0.286,1.276,0.548,1.61,0.785
			c0.335,0.237,0.583,0.511,0.744,0.821C-159.675,123.008-159.594,123.379-159.594,123.812z"/>
		<path fill="#4B5666" d="M-149.601,121.87c0,1.463-0.375,2.604-1.125,3.424s-1.793,1.229-3.131,1.229
			c-0.836,0-1.575-0.189-2.219-0.566c-0.642-0.378-1.136-0.919-1.479-1.627c-0.345-0.706-0.519-1.526-0.519-2.46
			c0-1.45,0.373-2.583,1.116-3.397c0.744-0.814,1.794-1.223,3.147-1.223c1.295,0,2.32,0.417,3.074,1.251
			C-149.978,119.333-149.601,120.457-149.601,121.87z M-156.115,121.87c0,2.067,0.764,3.1,2.291,3.1c1.51,0,2.266-1.032,2.266-3.1
			c0-2.043-0.762-3.066-2.282-3.066c-0.798,0-1.377,0.265-1.735,0.793C-155.935,120.125-156.115,120.882-156.115,121.87z"/>
		<path fill="#4B5666" d="M-139.875,126.36h-1.91v-5.518c0-0.686-0.129-1.197-0.389-1.534s-0.663-0.506-1.213-0.506
			c-0.733,0-1.271,0.238-1.614,0.717c-0.343,0.477-0.515,1.271-0.515,2.383v4.458h-1.901v-8.949h1.489l0.268,1.174h0.098
			c0.248-0.426,0.607-0.756,1.08-0.987c0.472-0.231,0.99-0.349,1.558-0.349c1.376,0,2.287,0.47,2.735,1.408h0.129
			c0.265-0.442,0.637-0.788,1.117-1.035c0.479-0.248,1.029-0.373,1.649-0.373c1.067,0,1.847,0.271,2.334,0.81
			c0.488,0.54,0.731,1.362,0.731,2.468v5.834h-1.9v-5.518c0-0.686-0.131-1.197-0.393-1.534s-0.668-0.506-1.219-0.506
			c-0.738,0-1.279,0.229-1.621,0.692c-0.344,0.462-0.515,1.169-0.515,2.124L-139.875,126.36L-139.875,126.36z"/>
		<path fill="#4B5666" d="M-127.665,126.522c-1.392,0-2.479-0.405-3.265-1.218s-1.178-1.93-1.178-3.354
			c0-1.462,0.363-2.611,1.093-3.447c0.729-0.837,1.729-1.255,3.002-1.255c1.182,0,2.114,0.359,2.8,1.076
			c0.686,0.718,1.027,1.705,1.027,2.962v1.028h-5.965c0.027,0.868,0.263,1.536,0.705,2.002c0.441,0.467,1.064,0.7,1.869,0.7
			c0.528,0,1.021-0.05,1.478-0.149c0.454-0.101,0.944-0.266,1.469-0.498v1.545c-0.465,0.222-0.935,0.378-1.408,0.47
			C-126.511,126.477-127.054,126.522-127.665,126.522z M-128.012,118.69c-0.604,0-1.089,0.19-1.452,0.574
			c-0.364,0.383-0.582,0.941-0.65,1.675h4.062c-0.011-0.739-0.188-1.299-0.534-1.679
			C-126.933,118.879-127.408,118.69-128.012,118.69z"/>
	</g>
	<g>
		<path fill="#4B5666" d="M-337.333,230.476h-6.691v-11.829h6.691v1.634h-4.758v3.221h4.458v1.618h-4.458v3.714h4.758V230.476z"/>
		<path fill="#4B5666" d="M-332.986,225.904l-3.002-4.378h2.169l2.039,3.132l2.056-3.132h2.152l-3.01,4.378l3.164,4.571h-2.153
			l-2.209-3.35l-2.201,3.35h-2.152L-332.986,225.904z"/>
		<path fill="#4B5666" d="M-321.311,230.638c-1.133,0-2.012-0.407-2.638-1.222h-0.113c0.076,0.755,0.113,1.214,0.113,1.376v3.665
			h-1.901v-12.931h1.537c0.043,0.167,0.133,0.566,0.267,1.197h0.097c0.594-0.906,1.484-1.359,2.67-1.359
			c1.117,0,1.987,0.405,2.61,1.214c0.624,0.81,0.935,1.945,0.935,3.407c0,1.461-0.317,2.603-0.951,3.422
			C-319.318,230.228-320.193,230.638-321.311,230.638z M-321.771,222.918c-0.755,0-1.307,0.222-1.655,0.664
			c-0.348,0.441-0.522,1.149-0.522,2.12v0.283c0,1.089,0.173,1.878,0.518,2.366c0.346,0.488,0.91,0.732,1.691,0.732
			c0.658,0,1.166-0.27,1.521-0.809s0.534-1.309,0.534-2.307c0-1.004-0.177-1.763-0.53-2.278
			C-320.567,223.175-321.086,222.918-321.771,222.918z"/>
		<path fill="#4B5666" d="M-311.616,230.638c-1.392,0-2.479-0.406-3.265-1.218c-0.785-0.812-1.177-1.93-1.177-3.354
			c0-1.461,0.364-2.61,1.092-3.446c0.729-0.837,1.729-1.255,3.002-1.255c1.181,0,2.115,0.358,2.8,1.076
			c0.685,0.718,1.027,1.705,1.027,2.962v1.027h-5.963c0.027,0.869,0.262,1.536,0.704,2.003c0.442,0.467,1.065,0.7,1.869,0.7
			c0.528,0,1.021-0.05,1.477-0.15c0.456-0.099,0.945-0.266,1.468-0.497v1.546c-0.464,0.221-0.934,0.377-1.408,0.469
			C-310.464,230.592-311.006,230.638-311.616,230.638z M-311.964,222.805c-0.604,0-1.088,0.192-1.453,0.575
			c-0.365,0.383-0.581,0.941-0.651,1.675h4.062c-0.011-0.739-0.188-1.299-0.534-1.679
			C-310.885,222.996-311.36,222.805-311.964,222.805z"/>
		<path fill="#4B5666" d="M-301.438,221.364c0.383,0,0.699,0.027,0.947,0.081l-0.186,1.771c-0.27-0.063-0.55-0.097-0.842-0.097
			c-0.761,0-1.377,0.249-1.849,0.745c-0.472,0.496-0.708,1.141-0.708,1.934v4.677h-1.902v-8.949h1.489l0.251,1.578h0.097
			c0.296-0.534,0.684-0.958,1.161-1.271C-302.501,221.521-301.987,221.364-301.438,221.364z"/>
		<path fill="#4B5666" d="M-298.944,219.155c0-0.34,0.093-0.602,0.279-0.784c0.186-0.184,0.452-0.275,0.797-0.275
			c0.335,0,0.595,0.092,0.781,0.275c0.187,0.183,0.279,0.444,0.279,0.784c0,0.323-0.093,0.579-0.279,0.765
			c-0.186,0.187-0.446,0.28-0.781,0.28c-0.345,0-0.611-0.094-0.797-0.28C-298.853,219.734-298.944,219.479-298.944,219.155z
			 M-296.93,230.476h-1.901v-8.949h1.901V230.476z"/>
		<path fill="#4B5666" d="M-286.669,230.476h-1.91v-5.519c0-0.686-0.13-1.196-0.389-1.533c-0.259-0.337-0.664-0.506-1.214-0.506
			c-0.733,0-1.271,0.239-1.614,0.717c-0.343,0.477-0.514,1.271-0.514,2.383v4.458h-1.901v-8.949h1.489l0.267,1.174h0.097
			c0.248-0.427,0.608-0.756,1.081-0.987c0.471-0.232,0.991-0.349,1.557-0.349c1.375,0,2.287,0.47,2.735,1.408h0.13
			c0.264-0.441,0.636-0.788,1.117-1.036c0.48-0.248,1.03-0.372,1.65-0.372c1.068,0,1.846,0.271,2.334,0.81s0.732,1.362,0.732,2.468
			v5.834h-1.902v-5.519c0-0.686-0.131-1.196-0.392-1.533c-0.262-0.337-0.668-0.506-1.218-0.506c-0.739,0-1.28,0.231-1.623,0.691
			c-0.342,0.462-0.513,1.17-0.513,2.125L-286.669,230.476L-286.669,230.476z"/>
		<path fill="#4B5666" d="M-274.459,230.638c-1.392,0-2.479-0.406-3.265-1.218c-0.784-0.812-1.177-1.93-1.177-3.354
			c0-1.461,0.364-2.61,1.092-3.446c0.729-0.837,1.729-1.255,3.002-1.255c1.181,0,2.115,0.358,2.8,1.076s1.027,1.705,1.027,2.962
			v1.027h-5.963c0.027,0.869,0.262,1.536,0.704,2.003c0.443,0.467,1.065,0.7,1.869,0.7c0.529,0,1.021-0.05,1.477-0.15
			c0.456-0.099,0.945-0.266,1.469-0.497v1.546c-0.464,0.221-0.933,0.377-1.408,0.469
			C-273.307,230.592-273.849,230.638-274.459,230.638z M-274.807,222.805c-0.604,0-1.089,0.192-1.452,0.575
			c-0.365,0.383-0.582,0.941-0.652,1.675h4.062c-0.011-0.739-0.189-1.299-0.534-1.679
			C-273.729,222.996-274.204,222.805-274.807,222.805z"/>
		<path fill="#4B5666" d="M-260.945,230.476h-1.91v-5.502c0-0.69-0.139-1.206-0.417-1.546c-0.278-0.34-0.719-0.51-1.323-0.51
			c-0.804,0-1.392,0.237-1.764,0.713c-0.372,0.474-0.559,1.27-0.559,2.387v4.458h-1.901v-8.949h1.489l0.267,1.174h0.097
			c0.27-0.427,0.653-0.756,1.149-0.987c0.496-0.232,1.046-0.349,1.65-0.349c2.147,0,3.221,1.093,3.221,3.277L-260.945,230.476
			L-260.945,230.476z"/>
		<path fill="#4B5666" d="M-254.966,229.1c0.464,0,0.928-0.072,1.392-0.218v1.433c-0.21,0.092-0.481,0.169-0.813,0.23
			s-0.676,0.093-1.032,0.093c-1.802,0-2.703-0.949-2.703-2.848v-4.823h-1.222v-0.842l1.311-0.695l0.647-1.894h1.173v1.99h2.549v1.44
			h-2.549v4.791c0,0.458,0.115,0.797,0.344,1.015C-255.639,228.991-255.338,229.1-254.966,229.1z"/>
		<path fill="#4B5666" d="M-248.064,227.343c0-0.706,0.173-1.322,0.518-1.849c0.345-0.526,0.968-1.048,1.869-1.565
			c-0.512-0.599-0.861-1.104-1.048-1.518c-0.186-0.412-0.279-0.84-0.279-1.282c0-0.82,0.292-1.467,0.877-1.942
			c0.586-0.474,1.372-0.712,2.359-0.712c0.955,0,1.705,0.23,2.25,0.692c0.545,0.461,0.817,1.082,0.817,1.865
			c0,0.614-0.182,1.173-0.546,1.675c-0.365,0.501-0.973,1.003-1.825,1.505l2.8,2.703c0.437-0.577,0.801-1.425,1.093-2.541h1.958
			c-0.377,1.532-0.982,2.78-1.812,3.746l2.436,2.354h-2.452l-1.206-1.173c-0.551,0.442-1.137,0.775-1.76,0.999
			c-0.623,0.224-1.312,0.336-2.067,0.336c-1.241,0-2.215-0.294-2.921-0.882C-247.711,229.168-248.064,228.364-248.064,227.343z
			 M-243.985,229.002c0.987,0,1.832-0.288,2.533-0.865l-3.099-3.051c-0.572,0.366-0.966,0.711-1.181,1.031
			c-0.216,0.321-0.324,0.688-0.324,1.097c0,0.529,0.188,0.959,0.562,1.291C-245.121,228.837-244.616,229.002-243.985,229.002z
			 M-245.191,221.195c0,0.339,0.09,0.66,0.271,0.962c0.181,0.303,0.433,0.624,0.756,0.963c0.61-0.345,1.037-0.667,1.283-0.967
			c0.246-0.299,0.369-0.635,0.369-1.008c0-0.351-0.118-0.63-0.353-0.841c-0.235-0.211-0.546-0.316-0.935-0.316
			c-0.426,0-0.764,0.11-1.016,0.329C-245.066,220.536-245.191,220.829-245.191,221.195z"/>
		<path fill="#4B5666" d="M-344.064,250.362v-11.83h1.934v10.171h5.009v1.659H-344.064z"/>
		<path fill="#4B5666" d="M-331.376,250.523c-1.392,0-2.48-0.405-3.265-1.218c-0.785-0.812-1.177-1.93-1.177-3.354
			c0-1.462,0.364-2.611,1.092-3.446c0.729-0.837,1.729-1.255,3.002-1.255c1.182,0,2.115,0.359,2.8,1.076
			c0.685,0.718,1.028,1.704,1.028,2.962v1.027h-5.963c0.027,0.869,0.262,1.536,0.704,2.003c0.442,0.466,1.065,0.699,1.869,0.699
			c0.529,0,1.021-0.05,1.477-0.149c0.456-0.1,0.945-0.266,1.468-0.498v1.546c-0.464,0.222-0.933,0.378-1.408,0.47
			C-330.224,250.479-330.768,250.523-331.376,250.523z M-331.724,242.691c-0.604,0-1.088,0.191-1.452,0.574
			c-0.365,0.384-0.582,0.941-0.652,1.675h4.062c-0.011-0.738-0.189-1.299-0.534-1.679
			C-330.646,242.881-331.121,242.691-331.724,242.691z"/>
		<path fill="#4B5666" d="M-320.137,250.362l-0.38-1.246h-0.065c-0.432,0.545-0.866,0.916-1.303,1.112
			c-0.437,0.197-0.998,0.295-1.683,0.295c-0.879,0-1.565-0.236-2.06-0.712c-0.493-0.474-0.74-1.146-0.74-2.014
			c0-0.923,0.343-1.619,1.027-2.089c0.686-0.469,1.729-0.726,3.132-0.769l1.545-0.048v-0.478c0-0.571-0.133-1-0.4-1.282
			c-0.267-0.284-0.681-0.425-1.242-0.425c-0.458,0-0.898,0.067-1.319,0.202c-0.421,0.135-0.825,0.294-1.214,0.478l-0.615-1.359
			c0.485-0.254,1.017-0.446,1.594-0.579c0.577-0.133,1.122-0.198,1.634-0.198c1.138,0,1.997,0.248,2.577,0.744
			c0.58,0.497,0.87,1.275,0.87,2.339v6.028L-320.137,250.362L-320.137,250.362z M-322.969,249.067c0.69,0,1.245-0.192,1.663-0.578
			c0.418-0.386,0.627-0.927,0.627-1.623v-0.776l-1.149,0.049c-0.896,0.032-1.547,0.182-1.955,0.448
			c-0.407,0.268-0.61,0.676-0.61,1.227c0,0.399,0.119,0.708,0.356,0.926C-323.799,248.958-323.443,249.067-322.969,249.067z"/>
		<path fill="#4B5666" d="M-311.584,241.251c0.383,0,0.699,0.027,0.947,0.081l-0.187,1.772c-0.27-0.065-0.55-0.098-0.841-0.098
			c-0.76,0-1.377,0.248-1.849,0.744c-0.472,0.497-0.708,1.142-0.708,1.935v4.677h-1.901v-8.949h1.489l0.25,1.578h0.097
			c0.296-0.535,0.684-0.958,1.161-1.271C-312.648,241.408-312.134,241.251-311.584,241.251z"/>
		<path fill="#4B5666" d="M-301.105,250.362h-1.91v-5.502c0-0.691-0.139-1.207-0.417-1.546c-0.278-0.341-0.719-0.51-1.323-0.51
			c-0.804,0-1.392,0.237-1.764,0.712c-0.373,0.475-0.558,1.271-0.558,2.387v4.459h-1.902v-8.949h1.489l0.267,1.173h0.097
			c0.27-0.426,0.652-0.755,1.149-0.987c0.497-0.232,1.047-0.348,1.651-0.348c2.147,0,3.22,1.093,3.22,3.276L-301.105,250.362
			L-301.105,250.362z"/>
		<path fill="#4B5666" d="M-292.019,245.636v4.726h-1.934v-11.83h3.342c1.527,0,2.657,0.285,3.39,0.857
			c0.734,0.571,1.101,1.436,1.101,2.589c0,1.473-0.766,2.522-2.298,3.148l3.342,5.235h-2.201l-2.832-4.726L-292.019,245.636
			L-292.019,245.636z M-292.019,244.034h1.343c0.901,0,1.554-0.167,1.958-0.502c0.404-0.334,0.606-0.83,0.606-1.488
			c0-0.669-0.218-1.149-0.655-1.44c-0.438-0.292-1.095-0.437-1.975-0.437h-1.278L-292.019,244.034L-292.019,244.034z"/>
		<path fill="#4B5666" d="M-277.963,250.362l-0.38-1.246h-0.065c-0.431,0.545-0.866,0.916-1.303,1.112
			c-0.437,0.197-0.998,0.295-1.683,0.295c-0.879,0-1.565-0.236-2.06-0.712c-0.493-0.474-0.74-1.146-0.74-2.014
			c0-0.923,0.343-1.619,1.028-2.089c0.685-0.469,1.729-0.726,3.132-0.769l1.545-0.048v-0.478c0-0.571-0.133-1-0.4-1.282
			c-0.267-0.284-0.681-0.425-1.242-0.425c-0.458,0-0.898,0.067-1.319,0.202c-0.421,0.135-0.825,0.294-1.214,0.478l-0.615-1.359
			c0.486-0.254,1.017-0.446,1.594-0.579c0.578-0.133,1.122-0.198,1.635-0.198c1.138,0,1.997,0.248,2.577,0.744
			c0.58,0.497,0.87,1.275,0.87,2.339v6.028L-277.963,250.362L-277.963,250.362z M-280.795,249.067c0.691,0,1.245-0.192,1.663-0.578
			c0.418-0.386,0.627-0.927,0.627-1.623v-0.776l-1.149,0.049c-0.896,0.032-1.547,0.182-1.955,0.448
			c-0.407,0.268-0.611,0.676-0.611,1.227c0,0.399,0.119,0.708,0.356,0.926C-281.625,248.958-281.271,249.067-280.795,249.067z"/>
		<path fill="#4B5666" d="M-269.41,250.523c-1.133,0-2.012-0.406-2.638-1.222h-0.113c0.076,0.756,0.113,1.214,0.113,1.376v3.665
			h-1.901v-12.93h1.537c0.043,0.167,0.132,0.565,0.267,1.197h0.097c0.593-0.906,1.483-1.359,2.67-1.359
			c1.117,0,1.987,0.404,2.609,1.214c0.624,0.81,0.935,1.944,0.935,3.406c0,1.462-0.317,2.603-0.951,3.423
			C-267.418,250.114-268.293,250.523-269.41,250.523z M-269.872,242.805c-0.755,0-1.307,0.221-1.655,0.663s-0.521,1.149-0.521,2.12
			v0.283c0,1.09,0.173,1.879,0.518,2.366c0.346,0.488,0.909,0.733,1.691,0.733c0.658,0,1.165-0.271,1.521-0.81
			c0.356-0.539,0.534-1.309,0.534-2.306c0-1.003-0.177-1.763-0.53-2.278C-268.667,243.062-269.187,242.805-269.872,242.805z"/>
		<path fill="#4B5666" d="M-263.737,239.042c0-0.339,0.093-0.601,0.28-0.784c0.186-0.183,0.452-0.274,0.796-0.274
			c0.334,0,0.595,0.092,0.781,0.274c0.187,0.184,0.28,0.445,0.28,0.784c0,0.325-0.093,0.579-0.28,0.765
			c-0.186,0.188-0.446,0.28-0.781,0.28c-0.345,0-0.611-0.093-0.796-0.28C-263.646,239.621-263.737,239.366-263.737,239.042z
			 M-261.723,250.362h-1.901v-8.949h1.901V250.362z"/>
		<path fill="#4B5666" d="M-255.985,250.523c-1.117,0-1.988-0.404-2.613-1.213c-0.626-0.81-0.939-1.945-0.939-3.407
			c0-1.467,0.317-2.608,0.951-3.427c0.634-0.816,1.512-1.226,2.634-1.226c1.176,0,2.071,0.435,2.686,1.303h0.097
			c-0.092-0.643-0.137-1.149-0.137-1.521v-3.262h1.909v12.591h-1.489l-0.332-1.173h-0.088
			C-253.917,250.08-254.81,250.523-255.985,250.523z M-255.477,248.987c0.782,0,1.352-0.221,1.707-0.66
			c0.356-0.439,0.54-1.153,0.55-2.141v-0.267c0-1.127-0.183-1.929-0.55-2.403c-0.367-0.475-0.941-0.712-1.723-0.712
			c-0.669,0-1.185,0.271-1.545,0.812c-0.361,0.542-0.542,1.314-0.542,2.318c0,0.992,0.175,1.749,0.525,2.27
			C-256.704,248.726-256.177,248.987-255.477,248.987z"/>
		<path fill="#4B5666" d="M-246.777,250.362h-1.902v-12.591h1.902V250.362z"/>
		<path fill="#4B5666" d="M-245.418,241.414h2.072l1.82,5.073c0.275,0.723,0.458,1.402,0.55,2.039h0.064
			c0.048-0.297,0.138-0.656,0.268-1.08c0.129-0.424,0.814-2.435,2.055-6.032h2.055l-3.828,10.139
			c-0.696,1.861-1.856,2.791-3.479,2.791c-0.421,0-0.831-0.045-1.23-0.137v-1.505c0.286,0.064,0.612,0.097,0.979,0.097
			c0.917,0,1.562-0.531,1.934-1.595l0.332-0.841L-245.418,241.414z"/>
	</g>
	<g>
		<path fill="#4B5666" d="M-74.687,224.658c0,1.952-0.541,3.445-1.625,4.479c-1.084,1.032-2.646,1.549-4.686,1.549h-3.31v-11.83
			h3.657c1.883,0,3.348,0.507,4.395,1.521S-74.687,222.818-74.687,224.658z M-76.726,224.723c0-2.832-1.323-4.248-3.973-4.248
			h-1.675v8.585h1.376C-78.15,229.06-76.726,227.614-76.726,224.723z"/>
		<path fill="#4B5666" d="M-68.439,230.848c-1.393,0-2.479-0.406-3.266-1.218c-0.785-0.812-1.178-1.93-1.178-3.354
			c0-1.462,0.365-2.611,1.093-3.447c0.729-0.836,1.729-1.254,3.003-1.254c1.182,0,2.113,0.358,2.799,1.076
			c0.687,0.718,1.027,1.705,1.027,2.962v1.027h-5.963c0.027,0.868,0.262,1.536,0.704,2.003c0.442,0.466,1.065,0.699,1.868,0.699
			c0.529,0,1.021-0.049,1.478-0.149c0.455-0.1,0.945-0.266,1.47-0.498v1.546c-0.466,0.221-0.935,0.377-1.408,0.47
			C-67.287,230.802-67.829,230.848-68.439,230.848z M-68.785,223.015c-0.605,0-1.091,0.192-1.453,0.575
			c-0.365,0.383-0.582,0.941-0.651,1.675h4.062c-0.011-0.739-0.188-1.299-0.533-1.679
			C-67.708,223.206-68.182,223.015-68.785,223.015z"/>
		<path fill="#4B5666" d="M-60.898,230.687h-1.899v-12.591h1.899V230.687z"/>
		<path fill="#4B5666" d="M-58.292,219.366c0-0.34,0.095-0.602,0.279-0.785s0.45-0.275,0.797-0.275c0.334,0,0.596,0.092,0.78,0.275
			c0.186,0.183,0.279,0.445,0.279,0.785c0,0.323-0.094,0.578-0.279,0.765c-0.185,0.187-0.446,0.279-0.78,0.279
			c-0.347,0-0.61-0.093-0.797-0.279S-58.292,219.689-58.292,219.366z M-56.277,230.687h-1.9v-8.95h1.9V230.687z"/>
		<path fill="#4B5666" d="M-51.518,230.687l-3.398-8.95h2.006l1.82,5.203c0.312,0.874,0.502,1.581,0.566,2.12h0.063
			c0.049-0.388,0.238-1.096,0.567-2.12l1.819-5.203h2.023l-3.415,8.95H-51.518z"/>
		<path fill="#4B5666" d="M-40.781,230.848c-1.392,0-2.479-0.406-3.265-1.218s-1.178-1.93-1.178-3.354
			c0-1.462,0.362-2.611,1.092-3.447c0.729-0.836,1.729-1.254,3.002-1.254c1.182,0,2.115,0.358,2.801,1.076
			c0.686,0.718,1.026,1.705,1.026,2.962v1.027h-5.963c0.025,0.868,0.262,1.536,0.704,2.003c0.441,0.466,1.063,0.699,1.868,0.699
			c0.528,0,1.021-0.049,1.479-0.149c0.455-0.1,0.944-0.266,1.468-0.498v1.546c-0.464,0.221-0.934,0.377-1.408,0.47
			C-39.629,230.802-40.171,230.848-40.781,230.848z M-41.129,223.015c-0.604,0-1.088,0.192-1.452,0.575
			c-0.363,0.383-0.582,0.941-0.649,1.675h4.062c-0.012-0.739-0.188-1.299-0.534-1.679S-40.525,223.015-41.129,223.015z"/>
		<path fill="#4B5666" d="M-30.601,221.575c0.383,0,0.697,0.026,0.945,0.08l-0.187,1.772c-0.271-0.064-0.55-0.097-0.841-0.097
			c-0.762,0-1.378,0.248-1.85,0.744c-0.473,0.496-0.709,1.142-0.709,1.935v4.677h-1.9v-8.95h1.488l0.25,1.578h0.099
			c0.297-0.533,0.684-0.958,1.162-1.271C-31.666,221.731-31.152,221.575-30.601,221.575z"/>
		<path fill="#4B5666" d="M-16.749,218.856h2.006l-4.143,11.83h-2.039l-4.127-11.83h1.991l2.468,7.355
			c0.129,0.351,0.267,0.803,0.413,1.355c0.145,0.553,0.239,0.964,0.282,1.233c0.069-0.41,0.179-0.885,0.323-1.424
			c0.146-0.539,0.265-0.938,0.355-1.198L-16.749,218.856z"/>
		<path fill="#4B5666" d="M-7.784,230.687l-0.381-1.246h-0.062c-0.433,0.545-0.865,0.916-1.305,1.112
			c-0.436,0.196-0.997,0.295-1.683,0.295c-0.879,0-1.565-0.237-2.06-0.712c-0.493-0.475-0.739-1.146-0.739-2.015
			c0-0.922,0.342-1.618,1.025-2.088c0.687-0.469,1.729-0.725,3.133-0.769l1.546-0.048v-0.478c0-0.572-0.135-1-0.4-1.282
			c-0.267-0.284-0.682-0.426-1.242-0.426c-0.459,0-0.897,0.067-1.318,0.202c-0.421,0.136-0.825,0.295-1.215,0.478l-0.614-1.359
			c0.485-0.253,1.017-0.446,1.595-0.578c0.577-0.132,1.121-0.198,1.635-0.198c1.139,0,1.997,0.248,2.577,0.744
			c0.58,0.497,0.87,1.275,0.87,2.339v6.028L-7.784,230.687L-7.784,230.687z M-10.616,229.392c0.691,0,1.245-0.192,1.663-0.579
			c0.418-0.385,0.627-0.926,0.627-1.622v-0.776l-1.147,0.048c-0.896,0.033-1.547,0.183-1.954,0.449
			c-0.407,0.268-0.611,0.676-0.611,1.227c0,0.399,0.118,0.708,0.356,0.926C-11.447,229.282-11.09,229.392-10.616,229.392z"/>
		<path fill="#4B5666" d="M-1.869,230.687h-1.9v-12.591h1.9V230.687z"/>
		<path fill="#4B5666" d="M7.163,230.687l-0.267-1.174H6.797c-0.265,0.416-0.641,0.742-1.129,0.979
			c-0.488,0.237-1.045,0.355-1.671,0.355c-1.085,0-1.894-0.271-2.428-0.809c-0.534-0.539-0.801-1.357-0.801-2.452v-5.851h1.918
			v5.519c0,0.686,0.141,1.199,0.42,1.542c0.28,0.343,0.721,0.514,1.319,0.514c0.798,0,1.385-0.238,1.761-0.717
			c0.375-0.477,0.562-1.276,0.562-2.398v-4.459h1.91v8.95L7.163,230.687L7.163,230.687z"/>
		<path fill="#4B5666" d="M15.278,230.848c-1.393,0-2.479-0.406-3.266-1.218c-0.783-0.812-1.177-1.93-1.177-3.354
			c0-1.462,0.364-2.611,1.092-3.447c0.729-0.836,1.729-1.254,3.003-1.254c1.183,0,2.114,0.358,2.8,1.076
			c0.686,0.718,1.027,1.705,1.027,2.962v1.027h-5.963c0.026,0.868,0.262,1.536,0.704,2.003c0.442,0.466,1.065,0.699,1.869,0.699
			c0.528,0,1.021-0.049,1.477-0.149c0.455-0.1,0.945-0.266,1.47-0.498v1.546c-0.464,0.221-0.935,0.377-1.407,0.47
			C16.43,230.802,15.889,230.848,15.278,230.848z M14.932,223.015c-0.604,0-1.09,0.192-1.452,0.575
			c-0.365,0.383-0.582,0.941-0.652,1.675h4.062c-0.012-0.739-0.188-1.299-0.533-1.679C16.009,223.206,15.535,223.015,14.932,223.015
			z"/>
		<path fill="#4B5666" d="M-79.326,240.231c-1.111,0-1.984,0.394-2.621,1.182c-0.638,0.787-0.955,1.874-0.955,3.261
			c0,1.451,0.307,2.549,0.918,3.293c0.612,0.745,1.498,1.117,2.658,1.117c0.502,0,0.987-0.05,1.456-0.15
			c0.47-0.1,0.958-0.228,1.466-0.384v1.658c-0.929,0.352-1.979,0.526-3.156,0.526c-1.731,0-3.062-0.524-3.988-1.573
			c-0.93-1.05-1.393-2.551-1.393-4.503c0-1.229,0.226-2.307,0.676-3.229c0.449-0.922,1.102-1.629,1.953-2.12
			c0.854-0.491,1.854-0.735,3.002-0.735c1.209,0,2.326,0.253,3.352,0.76l-0.695,1.61c-0.399-0.188-0.822-0.354-1.268-0.497
			C-78.367,240.302-78.835,240.231-79.326,240.231z"/>
		<path fill="#4B5666" d="M-66.12,246.083c0,1.462-0.375,2.603-1.126,3.423c-0.749,0.82-1.794,1.229-3.131,1.229
			c-0.837,0-1.575-0.189-2.218-0.566c-0.642-0.378-1.136-0.919-1.479-1.627c-0.346-0.706-0.519-1.526-0.519-2.459
			c0-1.451,0.371-2.585,1.116-3.399c0.744-0.814,1.793-1.222,3.146-1.222c1.297,0,2.319,0.417,3.075,1.251
			C-66.499,243.544-66.12,244.669-66.12,246.083z M-72.634,246.083c0,2.065,0.763,3.099,2.29,3.099c1.51,0,2.266-1.033,2.266-3.099
			c0-2.044-0.761-3.067-2.28-3.067c-0.799,0-1.377,0.265-1.736,0.793C-72.455,244.336-72.634,245.094-72.634,246.083z"/>
		<path fill="#4B5666" d="M-56.064,250.572h-1.908v-5.502c0-0.69-0.141-1.206-0.417-1.546c-0.277-0.339-0.72-0.51-1.322-0.51
			c-0.805,0-1.394,0.238-1.765,0.712c-0.372,0.476-0.559,1.271-0.559,2.388v4.458h-1.9v-8.949h1.488l0.267,1.174h0.098
			c0.271-0.426,0.652-0.756,1.147-0.987c0.498-0.232,1.048-0.349,1.65-0.349c2.148,0,3.221,1.093,3.221,3.277V250.572
			L-56.064,250.572z"/>
		<path fill="#4B5666" d="M-50.083,249.197c0.464,0,0.927-0.073,1.393-0.219v1.432c-0.21,0.093-0.481,0.169-0.813,0.231
			c-0.33,0.062-0.675,0.093-1.031,0.093c-1.803,0-2.702-0.949-2.702-2.849v-4.822h-1.222v-0.842l1.312-0.695l0.646-1.895h1.174
			v1.991h2.548v1.44h-2.548v4.79c0,0.459,0.114,0.797,0.346,1.016C-50.756,249.087-50.455,249.197-50.083,249.197z"/>
		<path fill="#4B5666" d="M-47.016,239.252c0-0.34,0.093-0.602,0.278-0.784c0.187-0.184,0.452-0.275,0.798-0.275
			c0.335,0,0.595,0.092,0.779,0.275c0.188,0.183,0.279,0.444,0.279,0.784c0,0.324-0.093,0.579-0.279,0.765
			c-0.186,0.187-0.444,0.279-0.779,0.279c-0.346,0-0.611-0.093-0.798-0.279C-46.923,239.832-47.016,239.576-47.016,239.252z
			 M-45,250.572h-1.902v-8.949H-45V250.572z"/>
		<path fill="#4B5666" d="M-34.409,250.572h-1.91v-5.502c0-0.69-0.139-1.206-0.417-1.546c-0.276-0.339-0.719-0.51-1.321-0.51
			c-0.806,0-1.394,0.238-1.765,0.712c-0.372,0.476-0.559,1.271-0.559,2.388v4.458h-1.901v-8.949h1.489l0.266,1.174h0.099
			c0.27-0.426,0.653-0.756,1.147-0.987c0.497-0.232,1.049-0.349,1.651-0.349c2.147,0,3.221,1.093,3.221,3.277V250.572
			L-34.409,250.572z"/>
		<path fill="#4B5666" d="M-25.452,250.572l-0.268-1.173h-0.097c-0.265,0.415-0.642,0.741-1.129,0.979
			c-0.487,0.237-1.045,0.355-1.672,0.355c-1.084,0-1.893-0.271-2.428-0.81c-0.533-0.539-0.8-1.355-0.8-2.452v-5.85h1.917v5.519
			c0,0.686,0.141,1.199,0.421,1.542c0.28,0.342,0.721,0.514,1.319,0.514c0.798,0,1.385-0.239,1.76-0.716
			c0.375-0.478,0.562-1.278,0.562-2.399v-4.459h1.909v8.949L-25.452,250.572L-25.452,250.572z"/>
		<path fill="#4B5666" d="M-13.306,246.083c0,1.462-0.375,2.603-1.124,3.423c-0.75,0.82-1.794,1.229-3.132,1.229
			c-0.836,0-1.574-0.189-2.218-0.566c-0.643-0.378-1.136-0.919-1.479-1.627c-0.346-0.706-0.52-1.526-0.52-2.459
			c0-1.451,0.372-2.585,1.117-3.399c0.744-0.814,1.793-1.222,3.147-1.222c1.294,0,2.318,0.417,3.074,1.251
			C-13.683,243.544-13.306,244.669-13.306,246.083z M-19.82,246.083c0,2.065,0.765,3.099,2.29,3.099
			c1.512,0,2.267-1.033,2.267-3.099c0-2.044-0.761-3.067-2.281-3.067c-0.798,0-1.378,0.265-1.735,0.793
			C-19.64,244.336-19.82,245.094-19.82,246.083z"/>
		<path fill="#4B5666" d="M-4.81,250.572l-0.267-1.173h-0.098c-0.265,0.415-0.641,0.741-1.13,0.979
			c-0.487,0.237-1.044,0.355-1.67,0.355c-1.084,0-1.895-0.271-2.429-0.81c-0.533-0.539-0.802-1.355-0.802-2.452v-5.85h1.919v5.519
			c0,0.686,0.141,1.199,0.42,1.542c0.281,0.342,0.722,0.514,1.319,0.514c0.798,0,1.385-0.239,1.76-0.716
			c0.375-0.478,0.562-1.278,0.562-2.399v-4.459h1.91v8.949L-4.81,250.572L-4.81,250.572z"/>
		<path fill="#4B5666" d="M5.411,248.023c0,0.874-0.318,1.544-0.955,2.011c-0.637,0.467-1.548,0.7-2.734,0.7
			c-1.191,0-2.149-0.182-2.873-0.542v-1.643c1.053,0.485,2.031,0.729,2.938,0.729c1.17,0,1.756-0.354,1.756-1.061
			c0-0.227-0.064-0.416-0.194-0.566s-0.343-0.308-0.639-0.47c-0.298-0.161-0.71-0.345-1.239-0.55
			c-1.028-0.399-1.727-0.798-2.092-1.197c-0.363-0.399-0.545-0.917-0.545-1.554c0-0.767,0.308-1.361,0.926-1.784
			c0.618-0.424,1.458-0.636,2.521-0.636c1.052,0,2.048,0.214,2.985,0.64l-0.614,1.432c-0.966-0.398-1.777-0.599-2.437-0.599
			c-1.004,0-1.505,0.286-1.505,0.858c0,0.28,0.131,0.518,0.394,0.712c0.262,0.194,0.832,0.461,1.711,0.801
			c0.738,0.286,1.274,0.548,1.609,0.785c0.334,0.237,0.583,0.511,0.744,0.821S5.411,247.591,5.411,248.023z"/>
		<path fill="#4B5666" d="M9.367,250.572h-1.9v-12.59h1.9V250.572z"/>
		<path fill="#4B5666" d="M10.727,241.624h2.07l1.82,5.073c0.275,0.724,0.459,1.403,0.551,2.039h0.064
			c0.049-0.297,0.137-0.656,0.267-1.08c0.13-0.423,0.814-2.435,2.055-6.032h2.057l-3.827,10.139
			c-0.695,1.861-1.855,2.792-3.479,2.792c-0.421,0-0.831-0.046-1.229-0.138v-1.505c0.286,0.064,0.612,0.098,0.979,0.098
			c0.918,0,1.562-0.531,1.936-1.595l0.331-0.842L10.727,241.624z"/>
	</g>
	<g>
		<path fill="#4B5666" d="M-204.269,364.501l-3.431-9.88h-0.064c0.092,1.467,0.138,2.843,0.138,4.127v5.753h-1.757v-11.83h2.728
			l3.285,9.411h0.049l3.382-9.411h2.735v11.83h-1.861v-5.85c0-0.59,0.015-1.354,0.044-2.299c0.03-0.945,0.056-1.517,0.078-1.716
			h-0.065l-3.553,9.863L-204.269,364.501L-204.269,364.501z"/>
		<path fill="#4B5666" d="M-188.691,364.501l-0.381-1.246h-0.064c-0.432,0.546-0.866,0.916-1.303,1.111
			c-0.438,0.197-0.999,0.296-1.684,0.296c-0.879,0-1.565-0.236-2.06-0.712c-0.493-0.475-0.739-1.146-0.739-2.014
			c0-0.924,0.342-1.619,1.026-2.088c0.686-0.471,1.729-0.727,3.133-0.771l1.545-0.048v-0.479c0-0.57-0.134-1-0.4-1.281
			c-0.267-0.285-0.682-0.426-1.242-0.426c-0.459,0-0.898,0.067-1.319,0.202c-0.421,0.136-0.825,0.294-1.214,0.478l-0.614-1.358
			c0.485-0.254,1.017-0.447,1.594-0.579c0.577-0.132,1.121-0.197,1.635-0.197c1.138,0,1.997,0.247,2.577,0.743
			c0.58,0.497,0.87,1.274,0.87,2.339v6.028L-188.691,364.501L-188.691,364.501z M-191.524,363.207c0.69,0,1.245-0.191,1.663-0.578
			s0.627-0.927,0.627-1.623v-0.775l-1.148,0.049c-0.896,0.031-1.547,0.182-1.954,0.447c-0.407,0.269-0.611,0.678-0.611,1.229
			c0,0.398,0.118,0.707,0.356,0.925C-192.354,363.097-191.999,363.207-191.524,363.207z"/>
		<path fill="#4B5666" d="M-182.841,359.775l1.076-1.342l2.703-2.882h2.192l-3.601,3.845l3.827,5.104h-2.233l-2.872-3.924
			l-1.044,0.856v3.066h-1.885v-12.592h1.885v6.144l-0.098,1.724H-182.841L-182.841,359.775z"/>
		<path fill="#4B5666" d="M-171.294,364.663c-1.392,0-2.479-0.405-3.265-1.218c-0.784-0.812-1.177-1.93-1.177-3.354
			c0-1.463,0.363-2.611,1.092-3.447s1.729-1.254,3.002-1.254c1.182,0,2.115,0.358,2.8,1.076c0.685,0.717,1.027,1.704,1.027,2.961
			v1.027h-5.963c0.026,0.869,0.262,1.535,0.703,2.003c0.443,0.467,1.065,0.698,1.87,0.698c0.528,0,1.021-0.049,1.477-0.148
			c0.455-0.1,0.945-0.266,1.469-0.498v1.547c-0.465,0.221-0.934,0.377-1.408,0.469
			C-170.142,364.618-170.685,364.663-171.294,364.663z M-171.643,356.831c-0.604,0-1.088,0.19-1.452,0.573
			c-0.364,0.385-0.582,0.941-0.651,1.676h4.062c-0.012-0.738-0.189-1.299-0.534-1.68
			C-170.563,357.021-171.038,356.831-171.643,356.831z"/>
		<path fill="#4B5666" d="M-154.326,361.29c0,1.052-0.38,1.877-1.141,2.476c-0.762,0.6-1.811,0.897-3.146,0.897
			c-1.34,0-2.435-0.207-3.286-0.622v-1.829c0.538,0.254,1.112,0.453,1.72,0.599c0.606,0.146,1.171,0.219,1.694,0.219
			c0.766,0,1.33-0.146,1.694-0.438s0.546-0.682,0.546-1.173c0-0.442-0.166-0.817-0.502-1.125c-0.334-0.308-1.023-0.671-2.07-1.093
			c-1.078-0.438-1.84-0.936-2.282-1.496c-0.441-0.562-0.663-1.235-0.663-2.023c0-0.986,0.352-1.764,1.052-2.33
			c0.702-0.566,1.644-0.85,2.825-0.85c1.133,0,2.26,0.248,3.382,0.745l-0.614,1.577c-1.053-0.441-1.99-0.664-2.815-0.664
			c-0.628,0-1.101,0.137-1.425,0.408c-0.323,0.272-0.485,0.633-0.485,1.08c0,0.309,0.065,0.57,0.194,0.789s0.343,0.426,0.639,0.619
			c0.297,0.194,0.831,0.45,1.604,0.77c0.868,0.361,1.504,0.699,1.908,1.012c0.405,0.312,0.702,0.666,0.891,1.061
			C-154.419,360.291-154.326,360.754-154.326,361.29z"/>
		<path fill="#4B5666" d="M-146.638,364.501l-0.381-1.246h-0.064c-0.432,0.546-0.865,0.916-1.303,1.111
			c-0.438,0.197-0.998,0.296-1.684,0.296c-0.879,0-1.564-0.236-2.06-0.712c-0.493-0.475-0.739-1.146-0.739-2.014
			c0-0.924,0.342-1.619,1.026-2.088c0.685-0.471,1.729-0.727,3.132-0.771l1.545-0.048v-0.479c0-0.57-0.133-1-0.4-1.281
			c-0.267-0.285-0.681-0.426-1.241-0.426c-0.459,0-0.898,0.067-1.319,0.202c-0.421,0.136-0.824,0.294-1.214,0.478l-0.614-1.358
			c0.485-0.254,1.018-0.447,1.594-0.579c0.578-0.132,1.123-0.197,1.635-0.197c1.139,0,1.998,0.247,2.578,0.743
			c0.58,0.497,0.869,1.274,0.869,2.339v6.028L-146.638,364.501L-146.638,364.501z M-149.47,363.207c0.689,0,1.244-0.191,1.662-0.578
			s0.627-0.927,0.627-1.623v-0.775l-1.148,0.049c-0.896,0.031-1.547,0.182-1.953,0.447c-0.408,0.269-0.611,0.678-0.611,1.229
			c0,0.398,0.119,0.707,0.355,0.925C-150.301,363.097-149.945,363.207-149.47,363.207z"/>
		<path fill="#4B5666" d="M-138.134,356.992h-2.186v7.51h-1.91v-7.51h-1.473v-0.891l1.473-0.582v-0.582
			c0-1.058,0.25-1.842,0.746-2.353c0.496-0.509,1.254-0.765,2.272-0.765c0.669,0,1.327,0.11,1.976,0.332l-0.502,1.44
			c-0.47-0.151-0.918-0.228-1.344-0.228c-0.432,0-0.746,0.135-0.941,0.4c-0.197,0.268-0.297,0.668-0.297,1.202v0.582h2.186V356.992
			L-138.134,356.992z"/>
		<path fill="#4B5666" d="M-132.706,364.663c-1.391,0-2.479-0.405-3.265-1.218c-0.784-0.812-1.178-1.93-1.178-3.354
			c0-1.463,0.363-2.611,1.093-3.447s1.729-1.254,3.003-1.254c1.181,0,2.113,0.358,2.8,1.076c0.685,0.717,1.026,1.704,1.026,2.961
			v1.027h-5.963c0.026,0.869,0.262,1.535,0.703,2.003c0.442,0.467,1.065,0.698,1.869,0.698c0.528,0,1.021-0.049,1.479-0.148
			c0.455-0.1,0.943-0.266,1.468-0.498v1.547c-0.464,0.221-0.935,0.377-1.408,0.469
			C-131.552,364.618-132.095,364.663-132.706,364.663z M-133.052,356.831c-0.604,0-1.09,0.19-1.453,0.573
			c-0.363,0.385-0.581,0.941-0.65,1.676h4.062c-0.013-0.738-0.188-1.299-0.534-1.68
			C-131.974,357.021-132.449,356.831-133.052,356.831z"/>
		<path fill="#4B5666" d="M-123.732,363.126c0.465,0,0.928-0.073,1.393-0.219v1.432c-0.21,0.092-0.48,0.169-0.812,0.23
			s-0.676,0.093-1.031,0.093c-1.803,0-2.702-0.949-2.702-2.849v-4.822h-1.224v-0.842l1.312-0.695l0.647-1.895h1.174v1.991h2.549
			v1.438h-2.549v4.791c0,0.459,0.113,0.798,0.344,1.016C-124.404,363.017-124.103,363.126-123.732,363.126z"/>
		<path fill="#4B5666" d="M-121.91,355.551h2.071l1.819,5.073c0.275,0.723,0.459,1.402,0.551,2.039h0.064
			c0.049-0.297,0.139-0.656,0.268-1.08c0.13-0.424,0.814-2.434,2.056-6.032h2.056l-3.828,10.14c-0.695,1.86-1.854,2.791-3.479,2.791
			c-0.421,0-0.83-0.045-1.229-0.137v-1.506c0.285,0.064,0.611,0.098,0.979,0.098c0.916,0,1.561-0.531,1.934-1.596l0.332-0.841
			L-121.91,355.551z"/>
		<path fill="#4B5666" d="M-210.883,384.388l-0.38-1.248h-0.064c-0.433,0.545-0.866,0.916-1.304,1.113
			c-0.437,0.197-0.997,0.296-1.683,0.296c-0.879,0-1.565-0.237-2.059-0.713c-0.494-0.476-0.741-1.146-0.741-2.015
			c0-0.922,0.343-1.618,1.028-2.088c0.685-0.471,1.729-0.726,3.131-0.77l1.546-0.049v-0.477c0-0.572-0.134-1-0.4-1.283
			c-0.268-0.283-0.682-0.426-1.242-0.426c-0.459,0-0.898,0.067-1.319,0.203c-0.42,0.135-0.825,0.293-1.213,0.477l-0.615-1.358
			c0.485-0.254,1.017-0.446,1.594-0.577c0.577-0.133,1.122-0.199,1.634-0.199c1.139,0,1.998,0.248,2.578,0.744
			c0.58,0.496,0.869,1.275,0.869,2.34v6.027h-1.36V384.388z M-213.715,383.092c0.691,0,1.245-0.192,1.663-0.577
			c0.418-0.388,0.627-0.928,0.627-1.623v-0.777l-1.148,0.05c-0.896,0.03-1.548,0.183-1.954,0.448
			c-0.408,0.268-0.611,0.676-0.611,1.226c0,0.399,0.119,0.709,0.355,0.929C-214.545,382.984-214.19,383.092-213.715,383.092z"/>
		<path fill="#4B5666" d="M-194.528,376.133c0,1.233-0.405,2.183-1.214,2.841c-0.81,0.658-1.961,0.986-3.456,0.986h-1.229v4.427
			h-1.934v-11.829h3.406c1.478,0,2.585,0.301,3.321,0.905C-194.898,374.068-194.528,374.958-194.528,376.133z M-200.428,378.335
			h1.027c0.992,0,1.721-0.174,2.186-0.518c0.463-0.346,0.695-0.887,0.695-1.619c0-0.68-0.207-1.188-0.623-1.521
			c-0.415-0.335-1.062-0.502-1.942-0.502h-1.343V378.335z"/>
		<path fill="#4B5666" d="M-187.83,375.277c0.383,0,0.699,0.025,0.946,0.08l-0.186,1.771c-0.271-0.064-0.55-0.098-0.841-0.098
			c-0.762,0-1.378,0.248-1.85,0.744c-0.473,0.498-0.708,1.142-0.708,1.935v4.678h-1.902v-8.948h1.489l0.251,1.576h0.098
			c0.296-0.533,0.683-0.957,1.161-1.271C-188.895,375.433-188.379,375.277-187.83,375.277z"/>
		<path fill="#4B5666" d="M-181.316,384.549c-1.392,0-2.479-0.405-3.265-1.219c-0.785-0.812-1.177-1.931-1.177-3.354
			c0-1.461,0.363-2.609,1.092-3.445s1.729-1.254,3.002-1.254c1.182,0,2.114,0.357,2.8,1.074c0.685,0.719,1.027,1.705,1.027,2.963
			v1.027h-5.963c0.026,0.868,0.262,1.536,0.703,2.002c0.442,0.467,1.065,0.7,1.87,0.7c0.528,0,1.021-0.05,1.477-0.149
			c0.455-0.1,0.945-0.266,1.469-0.496v1.545c-0.465,0.222-0.934,0.377-1.408,0.469
			C-180.165,384.503-180.706,384.549-181.316,384.549z M-181.664,376.716c-0.604,0-1.088,0.191-1.452,0.574
			c-0.364,0.383-0.582,0.941-0.651,1.675h4.062c-0.011-0.739-0.188-1.298-0.534-1.679
			C-180.584,376.906-181.061,376.716-181.664,376.716z"/>
		<path fill="#4B5666" d="M-171.136,375.277c0.383,0,0.698,0.025,0.947,0.08l-0.188,1.771c-0.269-0.064-0.55-0.098-0.841-0.098
			c-0.761,0-1.377,0.248-1.849,0.744c-0.472,0.498-0.708,1.142-0.708,1.935v4.678h-1.901v-8.948h1.488l0.251,1.576h0.097
			c0.297-0.533,0.685-0.957,1.162-1.271C-172.2,375.433-171.688,375.277-171.136,375.277z"/>
		<path fill="#4B5666" d="M-164.623,384.549c-1.392,0-2.48-0.405-3.266-1.219c-0.784-0.812-1.177-1.931-1.177-3.354
			c0-1.461,0.364-2.609,1.093-3.445s1.729-1.254,3.002-1.254c1.181,0,2.115,0.357,2.8,1.074c0.685,0.719,1.026,1.705,1.026,2.963
			v1.027h-5.963c0.027,0.868,0.262,1.536,0.704,2.002c0.442,0.467,1.065,0.7,1.869,0.7c0.529,0,1.021-0.05,1.477-0.149
			c0.456-0.099,0.946-0.266,1.469-0.496v1.545c-0.464,0.222-0.933,0.377-1.407,0.469
			C-163.47,384.503-164.013,384.549-164.623,384.549z M-164.97,376.716c-0.604,0-1.089,0.191-1.452,0.574
			c-0.365,0.383-0.582,0.941-0.652,1.675h4.062c-0.011-0.739-0.188-1.298-0.534-1.679
			C-163.892,376.906-164.365,376.716-164.97,376.716z"/>
		<path fill="#4B5666" d="M-155.98,384.549c-1.106,0-1.973-0.405-2.599-1.219c-0.626-0.812-0.938-1.945-0.938-3.402
			c0-1.456,0.318-2.596,0.955-3.418c0.637-0.823,1.514-1.233,2.629-1.233c0.562,0,1.064,0.104,1.51,0.312
			c0.445,0.207,0.843,0.55,1.193,1.022h0.064l0.21-1.172h1.578v12.931h-1.909v-3.796c0-0.237,0.012-0.488,0.031-0.752
			c0.021-0.266,0.041-0.467,0.059-0.607h-0.105C-153.863,384.103-154.756,384.549-155.98,384.549z M-155.439,383.029
			c0.799,0,1.371-0.23,1.721-0.692c0.347-0.461,0.521-1.157,0.521-2.091v-0.301c0-1.104-0.181-1.901-0.539-2.387
			c-0.358-0.484-0.938-0.729-1.735-0.729c-0.681,0-1.197,0.27-1.554,0.809c-0.355,0.541-0.533,1.314-0.533,2.322
			C-157.558,382.005-156.853,383.029-155.439,383.029z"/>
		<path fill="#4B5666" d="M-142.346,384.388l-0.267-1.175h-0.098c-0.266,0.416-0.643,0.741-1.13,0.979
			c-0.487,0.236-1.045,0.355-1.67,0.355c-1.085,0-1.894-0.271-2.429-0.811c-0.533-0.539-0.801-1.355-0.801-2.451v-5.85h1.918v5.519
			c0,0.685,0.141,1.198,0.42,1.542c0.28,0.342,0.721,0.513,1.319,0.513c0.798,0,1.386-0.237,1.761-0.716
			c0.373-0.479,0.562-1.277,0.562-2.4v-4.457h1.909v8.949h-1.495V384.388z"/>
		<path fill="#4B5666" d="M-138.251,373.068c0-0.342,0.094-0.604,0.279-0.785c0.186-0.184,0.451-0.275,0.797-0.275
			c0.334,0,0.595,0.092,0.779,0.275c0.188,0.183,0.279,0.443,0.279,0.785c0,0.322-0.093,0.578-0.279,0.765
			c-0.186,0.187-0.445,0.278-0.779,0.278c-0.346,0-0.611-0.094-0.797-0.278C-138.158,373.646-138.251,373.39-138.251,373.068z
			 M-136.236,384.388h-1.901v-8.949h1.901V384.388z"/>
		<path fill="#4B5666" d="M-127.506,381.837c0,0.874-0.317,1.545-0.954,2.012s-1.549,0.7-2.734,0.7
			c-1.191,0-2.149-0.181-2.873-0.543v-1.644c1.053,0.486,2.031,0.729,2.938,0.729c1.171,0,1.757-0.353,1.757-1.062
			c0-0.227-0.065-0.414-0.194-0.565c-0.129-0.149-0.342-0.308-0.64-0.469c-0.297-0.162-0.709-0.347-1.237-0.552
			c-1.031-0.397-1.728-0.797-2.093-1.196c-0.362-0.399-0.546-0.917-0.546-1.554c0-0.766,0.309-1.361,0.928-1.783
			c0.616-0.424,1.457-0.637,2.521-0.637c1.052,0,2.047,0.215,2.985,0.64l-0.614,1.433c-0.966-0.398-1.777-0.599-2.437-0.599
			c-1.004,0-1.505,0.286-1.505,0.856c0,0.281,0.132,0.519,0.394,0.713c0.261,0.193,0.832,0.461,1.711,0.801
			c0.738,0.287,1.275,0.548,1.609,0.785c0.334,0.236,0.582,0.511,0.744,0.82C-127.587,381.037-127.506,381.406-127.506,381.837z"/>
		<path fill="#4B5666" d="M-125.564,373.068c0-0.342,0.093-0.604,0.279-0.785c0.186-0.184,0.451-0.275,0.797-0.275
			c0.334,0,0.594,0.092,0.78,0.275c0.187,0.183,0.278,0.443,0.278,0.785c0,0.322-0.094,0.578-0.278,0.765
			c-0.187,0.187-0.446,0.278-0.78,0.278c-0.346,0-0.611-0.094-0.797-0.278C-125.471,373.646-125.564,373.39-125.564,373.068z
			 M-123.548,384.388h-1.902v-8.949h1.902V384.388z"/>
		<path fill="#4B5666" d="M-117.496,383.011c0.463,0,0.928-0.072,1.393-0.219v1.434c-0.211,0.092-0.481,0.168-0.813,0.23
			s-0.676,0.093-1.03,0.093c-1.804,0-2.703-0.95-2.703-2.849v-4.822h-1.223v-0.842l1.311-0.696l0.647-1.894h1.173v1.99h2.549v1.44
			h-2.549v4.789c0,0.459,0.115,0.798,0.346,1.017C-118.169,382.904-117.869,383.011-117.496,383.011z"/>
		<path fill="#4B5666" d="M-110.408,384.549c-1.392,0-2.479-0.405-3.266-1.219c-0.784-0.812-1.178-1.931-1.178-3.354
			c0-1.461,0.365-2.609,1.094-3.445s1.729-1.254,3.001-1.254c1.183,0,2.115,0.357,2.8,1.074c0.686,0.719,1.028,1.705,1.028,2.963
			v1.027h-5.964c0.027,0.868,0.262,1.536,0.703,2.002c0.442,0.467,1.065,0.7,1.869,0.7c0.529,0,1.021-0.05,1.478-0.149
			c0.456-0.099,0.944-0.266,1.469-0.496v1.545c-0.464,0.222-0.933,0.377-1.407,0.469
			C-109.256,384.503-109.798,384.549-110.408,384.549z M-110.756,376.716c-0.604,0-1.089,0.191-1.452,0.574s-0.581,0.941-0.65,1.675
			h4.062c-0.01-0.739-0.188-1.298-0.533-1.679C-109.676,376.906-110.152,376.716-110.756,376.716z"/>
	</g>
	<g>
		<path fill="#FFFFFF" d="M-197.418,214.384l-4.887-12.767h-0.078c0.092,1.011,0.138,2.213,0.138,3.605v9.161h-1.547v-14.402h2.522
			l4.561,11.88h0.079l4.6-11.88h2.503v14.402h-1.675v-9.279c0-1.063,0.046-2.22,0.138-3.468h-0.079l-4.925,12.747L-197.418,214.384
			L-197.418,214.384z"/>
		<path fill="#FFFFFF" d="M-173.077,207.165c0,2.305-0.583,4.118-1.748,5.438c-1.166,1.319-2.786,1.98-4.861,1.98
			c-2.122,0-3.758-0.648-4.911-1.945c-1.152-1.298-1.729-3.128-1.729-5.493c0-2.344,0.577-4.161,1.733-5.452
			c1.156-1.29,2.798-1.936,4.926-1.936c2.068,0,3.684,0.657,4.847,1.971C-173.658,203.041-173.077,204.853-173.077,207.165z
			 M-184.553,207.165c0,1.95,0.415,3.43,1.246,4.438c0.83,1.009,2.037,1.513,3.62,1.513c1.596,0,2.801-0.503,3.615-1.508
			c0.813-1.005,1.221-2.485,1.221-4.442c0-1.937-0.405-3.406-1.216-4.408c-0.812-1.001-2.012-1.503-3.601-1.503
			c-1.596,0-2.81,0.505-3.64,1.513C-184.138,203.773-184.553,205.24-184.553,207.165z"/>
		<path fill="#FFFFFF" d="M-158.371,207.045c0,2.377-0.645,4.195-1.936,5.452c-1.29,1.258-3.147,1.887-5.57,1.887h-3.989v-14.402
			h4.413c2.239,0,3.979,0.62,5.221,1.862C-158.99,203.085-158.371,204.819-158.371,207.045z M-160.144,207.105
			c0-1.878-0.471-3.294-1.413-4.246s-2.343-1.429-4.201-1.429h-2.434v11.506h2.04c1.995,0,3.496-0.49,4.501-1.473
			C-160.646,210.482-160.144,209.029-160.144,207.105z"/>
		<path fill="#FFFFFF" d="M-147.13,214.384h-8.027v-14.402h8.027v1.488h-6.354v4.639h5.969v1.478h-5.969v5.3h6.354V214.384z"/>
		<path fill="#FFFFFF" d="M-142.264,208.396v5.989h-1.675v-14.402h3.949c1.768,0,3.071,0.339,3.916,1.015
			c0.844,0.677,1.267,1.694,1.267,3.054c0,1.905-0.966,3.192-2.896,3.861l3.911,6.473h-1.98l-3.485-5.989L-142.264,208.396
			L-142.264,208.396z M-142.264,206.958h2.295c1.183,0,2.05-0.235,2.601-0.704c0.553-0.47,0.828-1.174,0.828-2.113
			c0-0.952-0.281-1.638-0.843-2.059c-0.562-0.42-1.463-0.63-2.704-0.63h-2.177V206.958z"/>
		<path fill="#FFFFFF" d="M-120.218,214.384h-1.911l-7.87-12.087h-0.078c0.104,1.419,0.156,2.719,0.156,3.9v8.187h-1.546v-14.402
			h1.892l7.852,12.038h0.078c-0.014-0.177-0.043-0.747-0.088-1.709c-0.047-0.962-0.062-1.65-0.051-2.063v-8.266h1.566V214.384z"/>
		<path fill="#FFFFFF" d="M-178.358,238.593l-1.792-4.58h-5.772l-1.773,4.58h-1.694l5.693-14.461h1.409l5.664,14.461H-178.358z
			 M-180.672,232.505l-1.675-4.462c-0.217-0.565-0.439-1.257-0.67-2.079c-0.145,0.631-0.352,1.324-0.62,2.079l-1.694,4.462H-180.672
			z"/>
		<path fill="#FFFFFF" d="M-168.311,231.048h4.896v7.004c-0.762,0.242-1.537,0.427-2.325,0.551
			c-0.788,0.125-1.701,0.188-2.738,0.188c-2.181,0-3.878-0.648-5.093-1.945c-1.216-1.297-1.822-3.114-1.822-5.452
			c0-1.497,0.3-2.809,0.901-3.936s1.466-1.987,2.596-2.581c1.129-0.595,2.452-0.892,3.97-0.892c1.537,0,2.968,0.282,4.295,0.848
			l-0.65,1.477c-1.3-0.552-2.551-0.826-3.753-0.826c-1.754,0-3.123,0.521-4.108,1.565c-0.984,1.044-1.478,2.492-1.478,4.345
			c0,1.943,0.475,3.418,1.424,4.423c0.949,1.005,2.343,1.507,4.182,1.507c0.998,0,1.974-0.114,2.926-0.345v-4.433h-3.222
			L-168.311,231.048L-168.311,231.048z"/>
		<path fill="#FFFFFF" d="M-159.957,238.593v-14.402h1.676v14.402H-159.957z"/>
		<path fill="#FFFFFF" d="M-154.332,238.593v-14.402h1.676v12.886h6.354v1.517L-154.332,238.593L-154.332,238.593z"/>
		<path fill="#FFFFFF" d="M-135.832,238.593h-8.027v-14.402h8.027v1.488h-6.354v4.64h5.97v1.478h-5.97v5.3h6.354V238.593z"/>
	</g>
	<path fill="#4B5666" d="M-10.781,188.581c-0.056,0-0.114-0.004-0.177-0.013l-2.357-0.33v17.21c0,0.675-0.531,1.371-1.182,1.552
		l-17.314,4.769c-0.325,0.089-0.754,0.134-1.183,0.134s-0.855-0.045-1.182-0.134L-51.491,207c-0.648-0.181-1.182-0.877-1.182-1.552
		l0.002-17.21l-2.358,0.33c-0.062,0.009-0.12,0.013-0.177,0.013c-0.544,0-0.78-0.4-0.524-0.956l3.313-7.216
		c0.281-0.612,1.042-1.26,1.692-1.438l17.314-4.771c0.108-0.029,0.209-0.044,0.301-0.044c0.043,0,0.078,0.006,0.114,0.012
		c0.038-0.006,0.073-0.012,0.114-0.012c0.093,0,0.193,0.015,0.301,0.044l17.316,4.771c0.649,0.179,1.411,0.826,1.691,1.438
		l3.313,7.216C-10,188.18-10.237,188.581-10.781,188.581z M-50.044,203.485c0,0.446,0.362,0.808,0.809,0.808
		c0.447,0,0.811-0.361,0.811-0.808v-7.719c0-0.447-0.362-0.81-0.811-0.81c-0.445,0-0.809,0.362-0.809,0.81V203.485z
		 M-50.295,180.528c-0.191,0.054-0.568,0.376-0.651,0.556l-2.591,5.641l16.188-2.271c0.083-0.027,0.227-0.15,0.267-0.228
		l2.449-8.012L-50.295,180.528z M-32.857,185.449l-0.138-0.446v23.903c0.283,0,0.47-0.032,0.513-0.044l16.645-4.584V190.43
		l-13.386-1.878C-30.847,188.323-32.376,187.019-32.857,185.449z M-15.04,181.084c-0.083-0.18-0.461-0.502-0.651-0.556l-15.66-4.313
		l2.449,8.012c0.039,0.077,0.184,0.2,0.268,0.228l16.187,2.271L-15.04,181.084z"/>
</g>
<g>
	<path fill="#4B5767" d="M238.311,260.241H114.428c-2.841,0-5.145,2.299-5.145,5.143l0.005,47.734c0,0.006,0,0.01,0,0.016
		c0,14.344,0,28.723,0,33.527c0,10.658,3.599,26.018,17.365,41.436c19.732,22.101,49.723,31.175,49.723,31.175
		s29.991-9.074,49.718-31.175c13.769-15.418,17.364-30.777,17.364-41.436c0-4.805,0-19.188,0-33.527c0-0.006,0.005-0.01,0.005-0.016
		l-0.005-47.734C243.458,262.54,241.148,260.241,238.311,260.241z M140.163,381.723c-0.652,0.578-1.463,0.867-2.267,0.867
		c-0.939,0-1.871-0.382-2.544-1.137c-13.514-15.139-15.533-29.449-15.533-36.631c0-1.883,1.527-3.407,3.407-3.407
		c1.885,0,3.407,1.524,3.407,3.407c0,6.216,1.794,18.644,13.8,32.086C141.688,378.316,141.563,380.468,140.163,381.723z
		 M232.837,312.952c-0.003,0.059-0.003,0.122-0.003,0.182v33.527c0,6.697-1.906,20.065-14.663,34.356
		c-13.933,15.604-34.141,24.169-41.795,27.013l-0.007-137.171h56.461L232.837,312.952z"/>
	<path fill="#4B5767" d="M213.577,19.275c-14.496,0-33.29,8.545-36.981,22.934l-0.007-0.005v0.005
		c-3.696-14.389-22.487-22.934-36.981-22.934c-28.594,0-51.782,22.193-51.782,51.78c0,34.812,20.588,56.113,43.024,73.404
		c13.462,10.368,43.34,33.842,45.706,33.842c0.01,0,0.02-0.005,0.034-0.005c0.012,0,0.027,0.005,0.04,0.005
		c2.363,0,32.243-23.474,45.703-33.842c22.436-17.291,43.031-38.593,43.031-73.404C265.357,41.468,242.171,19.275,213.577,19.275z
		 M119.521,42.694c-8.939,6.613-14.067,16.953-14.067,28.361c0,1.882-1.525,3.407-3.407,3.407c-1.883,0-3.407-1.525-3.407-3.407
		c0-13.595,6.13-25.93,16.83-33.837c1.512-1.118,3.643-0.799,4.763,0.711C121.353,39.444,121.029,41.577,119.521,42.694z"/>
	<path fill="#4B5767" d="M466.357,366.197c0,21.865-12.094,40.892-29.959,50.785c0,0-2.166,1.24-4.995,1.73
		c-2.755,0.471-4.78,0.559-4.78,0.559h-18.301h-18.301c0,0-2.034-0.088-4.784-0.559c-2.829-0.49-5.001-1.73-5.001-1.73
		c-17.854-9.894-29.954-28.92-29.954-50.785c0-24.145,14.742-44.838,35.715-53.584v-32.969c-2.854,0-5.167-2.313-5.167-5.162v-9.079
		c0-2.854,2.313-5.162,5.167-5.162h44.642c2.858,0,5.167,2.309,5.167,5.162v9.079c0,2.854-2.309,5.162-5.167,5.162v32.969
		C451.616,321.364,466.357,342.052,466.357,366.197z M423.256,263.75H393.39c-1.883,0-3.407,1.524-3.407,3.407
		s1.524,3.407,3.407,3.407h29.866c1.882,0,3.407-1.524,3.407-3.407S425.138,263.75,423.256,263.75z M426.555,322.418
		c-3.956-1.647-6.535-5.516-6.535-9.806v-32.969h-23.395v32.969c0,4.29-2.578,8.153-6.535,9.806
		c-17.727,7.397-29.179,24.58-29.179,43.778c0,17.223,9.373,33.121,24.473,41.484c0.226,0.118,0.961,0.441,1.667,0.564
		c1.563,0.265,2.829,0.372,3.285,0.406h17.986h17.992c0.432-0.034,1.706-0.137,3.29-0.411c0.7-0.118,1.431-0.437,1.661-0.56
		c15.095-8.363,24.469-24.262,24.469-41.484C455.734,346.999,444.282,329.816,426.555,322.418z M448.92,366.197
		c0,14.639-7.908,28.155-20.664,35.361c-0.98,0.157-1.794,0.24-2.216,0.274h-35.449c-0.383-0.034-1.206-0.112-2.196-0.274
		c-12.762-7.206-20.669-20.723-20.669-35.361c0-5.157,0.976-10.089,2.74-14.629h75.719
		C447.939,356.113,448.92,361.04,448.92,366.197z M395.979,389.288c-8.741-5.54-14.158-15.335-14.158-25.674
		c0-1.883-1.525-3.407-3.407-3.407c-1.883,0-3.407,1.524-3.407,3.407c0,12.824,6.81,24.973,17.762,31.699l0.695,0.406l1.021,0.108
		c0.098,0.01,0.195,0.015,0.299,0.015c1.735,0,3.167-1.344,3.318-3.118C398.229,391.219,397.316,389.851,395.979,389.288z"/>
	<path fill="#4B5767" d="M504.641,80.051c-0.232,0-0.48-0.02-0.745-0.06l-9.932-1.387v72.512c0,2.839-2.241,5.78-4.974,6.535
		l-72.959,20.09c-1.367,0.373-3.172,0.564-4.973,0.564c-1.805,0-3.608-0.187-4.977-0.564l-72.948-20.09
		c-2.74-0.755-4.979-3.696-4.979-6.535l0.002-72.512l-9.935,1.387c-0.262,0.045-0.51,0.06-0.742,0.06
		c-2.292,0-3.29-1.691-2.216-4.03l13.962-30.4c1.187-2.578,4.395-5.309,7.133-6.064l72.956-20.095
		c0.458-0.127,0.88-0.187,1.268-0.187c0.171,0,0.325,0.029,0.48,0.049c0.154-0.02,0.309-0.049,0.478-0.049
		c0.39,0,0.813,0.06,1.272,0.187l72.953,20.095c2.738,0.756,5.946,3.486,7.133,6.064l13.958,30.4
		C507.928,78.36,506.936,80.051,504.641,80.051z M339.218,142.846c0,1.878,1.524,3.402,3.407,3.402s3.404-1.524,3.404-3.402v-32.518
		c0-1.883-1.521-3.407-3.404-3.407s-3.407,1.524-3.407,3.407V142.846z M338.158,46.125c-0.804,0.23-2.396,1.584-2.745,2.344
		l-10.918,23.768l68.201-9.57c0.351-0.117,0.953-0.632,1.115-0.961l10.324-33.753L338.158,46.125z M411.632,66.858l-0.573-1.882
		v100.711c1.193,0,1.976-0.143,2.151-0.187l70.13-19.311V87.841l-56.402-7.913C420.096,78.967,413.656,73.472,411.632,66.858z
		 M486.7,48.464c-0.351-0.76-1.938-2.113-2.747-2.339l-65.982-18.173l10.319,33.748c0.167,0.329,0.774,0.849,1.123,0.966
		l68.198,9.565L486.7,48.464z"/>
</g>
</svg>
