<?xml version="1.0" encoding="utf-8"?>
<!-- Generator: Adobe Illustrator 15.0.2, SVG Export Plug-In . SVG Version: 6.00 Build 0)  -->
<!DOCTYPE svg PUBLIC "-//W3C//DTD SVG 1.1//EN" "http://www.w3.org/Graphics/SVG/1.1/DTD/svg11.dtd">
<svg version="1.1" id="Layer_1" xmlns="http://www.w3.org/2000/svg" xmlns:xlink="http://www.w3.org/1999/xlink" x="0px" y="0px"
	 width="1110.316px" height="1110.316px" viewBox="0 0 1110.316 1110.316" enable-background="new 0 0 1110.316 1110.316"
	 xml:space="preserve">
<circle fill="#4B5666" cx="555.158" cy="555.158" r="555.158"/>
<g>
	<path fill="#FBD35C" d="M181.483,181.477c206.542-206.542,540.808-206.539,747.354,0.008L555.163,555.157L181.483,181.477z"/>
</g>
<g>
	<path fill="#A4D970" d="M928.84,181.479c206.543,206.544,206.538,540.808-0.007,747.353L555.16,555.159L928.84,181.479z"/>
</g>
<g>
	<path fill="#9EBEED" d="M928.833,928.839c-206.542,206.544-540.808,206.538-747.353-0.007l373.673-373.673L928.833,928.839z"/>
</g>
<g>
	<path fill="#FA7977" d="M181.477,928.837c-206.542-206.544-206.539-540.808,0.006-747.353l373.674,373.673L181.477,928.837z"/>
</g>
<circle fill="#4B5666" cx="555.158" cy="555.158" r="187.634"/>
<g>
	<path fill="#FFFFFF" d="M478.874,538.881l-2.641-34.548l-14.018,34.782h-3.168l-14.077-34.782l-2.64,34.548h-3.754l3.227-40.472
		h4.985l13.901,35.31l13.959-35.31h4.928l3.227,40.472H478.874z"/>
	<path fill="#FFFFFF" d="M509.024,539.644c-10.793,0-18.184-8.563-18.184-20.94c0-12.435,7.508-21.057,18.301-21.057
		c10.91,0,18.242,8.563,18.242,20.939C527.384,530.963,519.935,539.644,509.024,539.644z M509.083,501.283
		c-8.506,0-14.078,7.038-14.078,17.303c0,10.382,5.631,17.421,14.137,17.421c8.505,0,14.077-7.039,14.077-17.304
		C523.219,508.321,517.588,501.283,509.083,501.283z"/>
	<path fill="#FFFFFF" d="M547.21,538.881h-10.852v-40.472h11.027c13.491,0,21.058,8.153,21.058,20.177
		C568.443,531.021,560.231,538.881,547.21,538.881z M547.444,502.046h-7.038v33.198h7.038c10.266,0,16.834-5.514,16.834-16.6
		C564.278,507.735,557.534,502.046,547.444,502.046z"/>
	<path fill="#FFFFFF" d="M577.478,538.881v-40.472h21.115v3.637h-17.068v13.843h13.49l0.587,3.636h-14.077v15.72h17.655v3.637
		H577.478z"/>
	<path fill="#FFFFFF" d="M633.552,538.412l-4.105,0.879l-13.139-18.3h-5.221v17.89h-4.047v-40.472h10.324
		c7.918,0,12.962,3.988,12.962,11.027c0,6.275-4.048,9.854-9.619,11.026L633.552,538.412z M617.188,501.987h-6.101v15.543h5.396
		c5.982,0,9.736-2.698,9.736-7.859C626.22,504.744,623.054,501.987,617.188,501.987z"/>
	<path fill="#FFFFFF" d="M667.749,538.881l-23.639-34.078v34.078h-3.812v-40.472h3.812l22.934,33.022v-33.022h3.813v40.472H667.749z
		"/>
	<path fill="#FFFFFF" d="M513.335,609.68l-5.221-13.49H490.4l-4.985,13.08h-4.105l15.953-40.706h4.165l15.837,40.237L513.335,609.68
		z M499.257,573.314l-7.391,19.297h14.898L499.257,573.314z"/>
	<path fill="#FFFFFF" d="M540.552,610.032c-11.965,0-19.004-8.563-19.004-20.94c0-12.435,7.332-21.057,18.652-21.057
		c4.985,0,8.856,1.29,11.965,3.52l-0.703,4.164c-2.992-2.404-6.688-4.047-11.32-4.047c-9.033,0-14.43,6.921-14.43,17.361
		c0,10.441,5.396,17.304,14.898,17.304c3.812,0,6.569-0.88,9.268-2.522v-12.142h-9.736l-0.587-3.637h14.312v17.89
		C550.112,608.39,545.772,610.032,540.552,610.032z"/>
	<path fill="#FFFFFF" d="M564.483,609.27v-40.472h4.048v40.472H564.483z"/>
	<path fill="#FFFFFF" d="M579.794,609.27v-40.472h4.047v36.835h15.602l0.587,3.637H579.794z"/>
	<path fill="#FFFFFF" d="M607.126,609.27v-40.472h21.117v3.637h-17.069v13.843h13.491l0.586,3.636h-14.077v15.72h17.655v3.637
		H607.126z"/>
</g>
<g>
	<path fill="#4B5666" d="M461.729,241.762l-2.063-26.354L449.2,241.906h-3.408l-10.465-26.499l-2.017,26.354h-4.225l2.641-33.123
		h5.568l10.321,27.17l10.32-27.17h5.521l2.592,33.123H461.729z"/>
	<path fill="#4B5666" d="M486.399,241.762l-0.479-3.072c-1.824,1.872-4.321,3.553-8.065,3.553c-4.128,0-6.721-2.496-6.721-6.385
		c0-5.713,4.896-7.969,14.449-8.977v-0.961c0-2.88-1.728-3.888-4.368-3.888c-2.784,0-5.424,0.864-7.921,1.968l-0.575-3.696
		c2.735-1.104,5.328-1.92,8.88-1.92c5.569,0,8.257,2.256,8.257,7.345v16.033H486.399z M485.583,230.145
		c-8.448,0.816-10.225,3.121-10.225,5.473c0,1.872,1.248,3.072,3.408,3.072c2.496,0,4.896-1.248,6.816-3.217V230.145z"/>
	<path fill="#4B5666" d="M510.927,242.098l-10.177-12.337v12.001h-4.272v-33.986l4.272-0.673v21.362l8.881-9.602h5.136
		l-9.648,10.129l10.465,12.386L510.927,242.098z"/>
	<path fill="#4B5666" d="M536.799,230.769h-15.553c0.144,5.329,2.688,7.825,6.672,7.825c3.312,0,5.713-1.297,8.209-3.265
		l0.624,3.841c-2.448,1.92-5.376,3.072-9.169,3.072c-5.952,0-10.608-3.601-10.608-12.002c0-7.344,4.32-11.856,10.081-11.856
		c6.672,0,9.744,5.136,9.744,11.473C536.799,230.097,536.799,230.48,536.799,230.769z M527.006,221.744
		c-2.64,0-4.896,1.872-5.568,5.809h11.041C531.95,223.855,530.318,221.744,527.006,221.744z"/>
	<path fill="#4B5666" d="M561.421,228.32h-3.504v13.441h-4.513v-33.123h8.785c7.008,0,11.232,3.408,11.232,9.553
		C573.422,224.961,568.621,228.32,561.421,228.32z M561.949,212.623h-4.032v11.713h3.744c4.513,0,7.2-1.872,7.2-6
		C568.861,214.543,566.461,212.623,561.949,212.623z"/>
	<path fill="#4B5666" d="M595.55,230.769h-15.553c0.144,5.329,2.688,7.825,6.672,7.825c3.312,0,5.713-1.297,8.209-3.265l0.624,3.841
		c-2.448,1.92-5.376,3.072-9.169,3.072c-5.952,0-10.608-3.601-10.608-12.002c0-7.344,4.32-11.856,10.081-11.856
		c6.672,0,9.744,5.136,9.744,11.473C595.55,230.097,595.55,230.48,595.55,230.769z M585.757,221.744
		c-2.64,0-4.896,1.872-5.568,5.809h11.041C590.701,223.855,589.069,221.744,585.757,221.744z"/>
	<path fill="#4B5666" d="M610.188,242.242c-6.097,0-10.513-4.369-10.513-11.905s4.416-11.953,10.513-11.953
		c6.145,0,10.657,4.417,10.657,11.953S616.333,242.242,610.188,242.242z M610.188,221.984c-4.128,0-6.192,3.552-6.192,8.353
		c0,4.704,2.16,8.353,6.192,8.353c4.225,0,6.337-3.553,6.337-8.353C616.525,225.633,614.316,221.984,610.188,221.984z"/>
	<path fill="#4B5666" d="M636.301,242.05c-2.257,0-4.32-0.433-5.761-1.009v9.025l-4.272,0.624v-31.827h3.408l0.528,3.312
		c1.728-2.016,4.08-3.792,7.44-3.792c4.944,0,9.024,3.648,9.024,11.28C646.669,238.018,641.869,242.05,636.301,242.05z
		 M636.973,222.176c-2.593,0-4.608,1.584-6.433,4.033v10.992c1.728,0.864,3.12,1.248,5.568,1.248c3.601,0,6.24-2.928,6.24-8.593
		C642.349,224.864,640.093,222.176,636.973,222.176z"/>
	<path fill="#4B5666" d="M652.427,241.762v-33.986l4.272-0.673v34.659H652.427z"/>
	<path fill="#4B5666" d="M682.284,230.769h-15.553c0.144,5.329,2.688,7.825,6.672,7.825c3.312,0,5.713-1.297,8.209-3.265
		l0.624,3.841c-2.448,1.92-5.376,3.072-9.169,3.072c-5.952,0-10.608-3.601-10.608-12.002c0-7.344,4.32-11.856,10.081-11.856
		c6.672,0,9.744,5.136,9.744,11.473C682.284,230.097,682.284,230.48,682.284,230.769z M672.491,221.744
		c-2.64,0-4.896,1.872-5.568,5.809h11.041C677.436,223.855,675.804,221.744,672.491,221.744z"/>
	<path fill="#4B5666" d="M482.944,299.697l-3.889-10.272h-13.681l-3.745,9.937h-4.56l12.961-33.267h4.512l12.77,32.644
		L482.944,299.697z M472.191,271.471l-5.28,13.97h10.608L472.191,271.471z"/>
	<path fill="#4B5666" d="M513.136,299.361h-3.36l-5.28-17.329l-5.232,17.329h-3.312l-7.393-22.562l4.081-0.672l5.04,16.945
		l5.089-16.609h3.6l5.089,16.609l4.896-16.609h4.176L513.136,299.361z"/>
	<path fill="#4B5666" d="M542.991,288.369h-15.553c0.144,5.328,2.688,7.824,6.672,7.824c3.312,0,5.713-1.296,8.209-3.264l0.624,3.84
		c-2.448,1.92-5.376,3.072-9.169,3.072c-5.952,0-10.608-3.6-10.608-12.001c0-7.345,4.32-11.856,10.081-11.856
		c6.672,0,9.744,5.136,9.744,11.473C542.991,287.697,542.991,288.081,542.991,288.369z M533.198,279.344
		c-2.64,0-4.896,1.873-5.568,5.809h11.041C538.143,281.456,536.511,279.344,533.198,279.344z"/>
	<path fill="#4B5666" d="M555.375,299.842c-3.024,0-6.385-1.057-8.354-2.16l0.624-4.032c2.16,1.488,4.945,2.64,8.065,2.64
		c2.928,0,4.656-1.104,4.656-3.023c0-2.112-1.296-2.881-5.425-3.889c-5.376-1.344-7.536-2.977-7.536-7.057
		c0-3.648,3.072-6.336,8.064-6.336c2.832,0,5.376,0.576,7.536,1.535l-0.672,4.033c-2.016-1.152-4.561-1.969-6.96-1.969
		c-2.593,0-3.937,1.008-3.937,2.641c0,1.535,1.152,2.4,4.752,3.312c5.665,1.439,8.209,3.072,8.209,7.439
		C564.399,297.154,561.279,299.842,555.375,299.842z"/>
	<path fill="#4B5666" d="M578.846,299.842c-6.097,0-10.513-4.368-10.513-11.904c0-7.537,4.416-11.953,10.513-11.953
		c6.145,0,10.657,4.416,10.657,11.953C589.503,295.474,584.99,299.842,578.846,299.842z M578.846,279.584
		c-4.129,0-6.192,3.553-6.192,8.354c0,4.703,2.16,8.352,6.192,8.352c4.225,0,6.337-3.552,6.337-8.352
		C585.183,283.232,582.974,279.584,578.846,279.584z"/>
	<path fill="#4B5666" d="M623.151,299.361V283.76c0-2.352-0.864-3.936-3.36-3.936c-2.256,0-4.416,1.488-6.48,3.696v15.841h-4.272
		V283.76c0-2.352-0.864-3.936-3.36-3.936c-2.256,0-4.416,1.488-6.48,3.696v15.841h-4.272v-22.897h3.408l0.528,3.312
		c2.16-1.968,4.752-3.792,7.969-3.792c3.36,0,5.185,1.439,6.048,3.792c2.064-1.968,4.849-3.792,8.065-3.792
		c4.368,0,6.48,2.592,6.48,6.721v16.656H623.151z"/>
	<path fill="#4B5666" d="M652.573,288.369h-15.553c0.144,5.328,2.688,7.824,6.672,7.824c3.312,0,5.713-1.296,8.209-3.264l0.624,3.84
		c-2.448,1.92-5.376,3.072-9.169,3.072c-5.952,0-10.608-3.6-10.608-12.001c0-7.345,4.32-11.856,10.081-11.856
		c6.672,0,9.744,5.136,9.744,11.473C652.573,287.697,652.573,288.081,652.573,288.369z M642.78,279.344
		c-2.64,0-4.896,1.873-5.568,5.809h11.041C647.725,281.456,646.093,279.344,642.78,279.344z"/>
</g>
<path fill="#4B5666" d="M530.79,85.135c-18.836,0-34.113,14.62-34.113,34.113c0,36.697,34.723,46.25,53.606,68.228
	c0.171,0.242,0.316,0.439,0.538,0.656c2.387,2.365,6.237,2.365,8.623,0c0.22-0.217,0.417-0.414,0.586-0.656
	c18.859-21.931,53.606-31.677,53.606-68.228c0-19.493-15.277-34.113-34.113-34.113c-9.552,0-21.93,5.63-24.367,15.108
	C552.72,90.765,540.342,85.135,530.79,85.135z M518.536,117.663c-0.417,2.292-2.414,4.022-4.802,4.022
	c-2.681,0-4.875-2.194-4.875-4.874c0-3.507,2.949-8.845,6.97-12.84c3.948-3.9,8.649-6.653,12.524-6.653
	c2.678,0,4.873,2.268,4.873,4.947c0,2.387-1.73,4.386-4.021,4.799C523.942,108.283,519.754,112.767,518.536,117.663z"/>
<g>
	<path fill="#4B5666" d="M466.245,957.873l-2.064-26.355l-10.465,26.499h-3.408l-10.465-26.499l-2.016,26.355h-4.225l2.641-33.123
		h5.568l10.32,27.17l10.322-27.17h5.52l2.592,33.123H466.245z"/>
	<path fill="#4B5666" d="M490.915,957.873l-0.479-3.072c-1.824,1.871-4.322,3.552-8.066,3.552c-4.127,0-6.721-2.496-6.721-6.384
		c0-5.713,4.896-7.969,14.449-8.978v-0.96c0-2.881-1.727-3.889-4.367-3.889c-2.785,0-5.424,0.864-7.922,1.969l-0.574-3.697
		c2.734-1.104,5.328-1.92,8.879-1.92c5.57,0,8.258,2.256,8.258,7.346v16.033H490.915z M490.099,946.256
		c-8.447,0.816-10.225,3.12-10.225,5.473c0,1.871,1.248,3.072,3.408,3.072c2.496,0,4.896-1.248,6.816-3.217V946.256z"/>
	<path fill="#4B5666" d="M515.442,958.209l-10.176-12.338v12.002h-4.273v-33.987l4.273-0.673v21.362l8.881-9.601h5.135
		l-9.648,10.129l10.465,12.385L515.442,958.209z"/>
	<path fill="#4B5666" d="M541.315,946.879h-15.553c0.143,5.329,2.688,7.825,6.672,7.825c3.312,0,5.713-1.296,8.209-3.265
		l0.623,3.841c-2.447,1.921-5.375,3.072-9.168,3.072c-5.953,0-10.609-3.601-10.609-12.001c0-7.345,4.32-11.857,10.082-11.857
		c6.672,0,9.744,5.137,9.744,11.473C541.315,946.207,541.315,946.592,541.315,946.879z M531.522,937.855
		c-2.641,0-4.896,1.871-5.568,5.809h11.041C536.466,939.967,534.835,937.855,531.522,937.855z"/>
	<path fill="#4B5666" d="M565.745,958.256c-3.6,0-6.816-0.863-9.266-2.16l0.672-4.607c2.258,1.488,5.377,2.832,8.689,2.832
		c3.457,0,5.904-1.824,5.904-5.041c0-3.023-1.344-4.271-6.336-6.527c-6.24-2.833-8.594-4.896-8.594-9.649
		c0-5.329,4.082-8.737,10.082-8.737c3.217,0,5.615,0.769,7.537,1.873l-0.721,4.512c-1.824-1.393-4.32-2.447-6.961-2.447
		c-3.793,0-5.473,2.016-5.473,4.464c0,2.544,1.248,3.744,6.289,6.048c6.432,2.929,8.641,5.137,8.641,10.129
		C576.21,954.656,571.938,958.256,565.745,958.256z"/>
	<path fill="#4B5666" d="M595.745,957.873l-0.48-3.072c-1.824,1.871-4.32,3.552-8.064,3.552c-4.129,0-6.721-2.496-6.721-6.384
		c0-5.713,4.896-7.969,14.449-8.978v-0.96c0-2.881-1.729-3.889-4.369-3.889c-2.783,0-5.424,0.864-7.92,1.969l-0.576-3.697
		c2.736-1.104,5.328-1.92,8.881-1.92c5.568,0,8.256,2.256,8.256,7.346v16.033H595.745z M594.929,946.256
		c-8.449,0.816-10.225,3.12-10.225,5.473c0,1.871,1.248,3.072,3.408,3.072c2.496,0,4.896-1.248,6.816-3.217V946.256z"/>
	<path fill="#4B5666" d="M614.464,927.438c-1.969,0-3.168,0.816-3.168,2.929v4.608h4.607l0.527,3.6h-5.135v19.299h-4.178v-19.299
		h-3.455v-3.6h3.455v-5.041c0-4.561,3.025-6.288,7.105-6.288c0.863,0,1.393,0.097,1.824,0.097l0.623,3.888
		C616.192,927.533,615.327,927.438,614.464,927.438z"/>
	<path fill="#4B5666" d="M638.849,946.879h-15.553c0.145,5.329,2.688,7.825,6.672,7.825c3.312,0,5.713-1.296,8.209-3.265
		l0.625,3.841c-2.449,1.921-5.377,3.072-9.17,3.072c-5.951,0-10.607-3.601-10.607-12.001c0-7.345,4.32-11.857,10.08-11.857
		c6.672,0,9.744,5.137,9.744,11.473C638.849,946.207,638.849,946.592,638.849,946.879z M629.056,937.855
		c-2.639,0-4.896,1.871-5.568,5.809h11.041C634.001,939.967,632.368,937.855,629.056,937.855z"/>
	<path fill="#4B5666" d="M652.048,958.256c-4.033,0-6.672-1.439-6.672-6.048v-13.634h-3.457v-3.6h3.457v-7.633l4.176-0.624v8.257
		h4.943l0.576,3.6h-5.52v12.865c0,1.873,0.768,3.025,3.168,3.025c0.768,0,1.439-0.049,1.969-0.145l0.576,3.648
		C654.544,958.113,653.536,958.256,652.048,958.256z"/>
	<path fill="#4B5666" d="M669.521,959.889c-1.969,5.328-4.416,6.721-8.209,6.721c-0.576,0-1.057-0.096-1.488-0.191l-0.576-3.745
		c0.721,0.192,1.584,0.336,2.4,0.336c1.775,0,2.977-0.864,3.648-2.688l0.863-2.352l-8.352-22.658l4.225-0.672l6.24,18.242
		l6.096-17.906h4.369L669.521,959.889z"/>
	<path fill="#4B5666" d="M434.54,1015.473l-0.48-3.072c-1.824,1.872-4.32,3.553-8.064,3.553c-4.128,0-6.721-2.496-6.721-6.385
		c0-5.713,4.896-7.969,14.449-8.977v-0.961c0-2.88-1.728-3.888-4.368-3.888c-2.784,0-5.425,0.864-7.921,1.968l-0.576-3.696
		c2.736-1.104,5.329-1.92,8.881-1.92c5.568,0,8.258,2.257,8.258,7.345v16.033H434.54z M433.724,1003.855
		c-8.448,0.816-10.225,3.121-10.225,5.473c0,1.872,1.248,3.072,3.408,3.072c2.496,0,4.896-1.248,6.816-3.217V1003.855z"/>
	<path fill="#4B5666" d="M463.819,1002.031h-3.504v13.441h-4.514V982.35h8.785c7.008,0,11.232,3.408,11.232,9.553
		C475.819,998.672,471.021,1002.031,463.819,1002.031z M464.347,986.334h-4.031v11.713h3.744c4.512,0,7.199-1.872,7.199-6
		C471.259,988.254,468.858,986.334,464.347,986.334z"/>
	<path fill="#4B5666" d="M484.747,1001.936v13.537h-4.273v-22.898h3.408l0.721,4.656c1.633-2.592,4.271-4.943,8.016-5.136
		l0.674,4.08C489.499,996.367,486.282,998.911,484.747,1001.936z"/>
	<path fill="#4B5666" d="M515.323,1004.479h-15.553c0.145,5.329,2.688,7.825,6.672,7.825c3.312,0,5.713-1.297,8.209-3.265
		l0.625,3.841c-2.449,1.92-5.377,3.072-9.17,3.072c-5.951,0-10.607-3.601-10.607-12.002c0-7.344,4.32-11.856,10.08-11.856
		c6.672,0,9.744,5.136,9.744,11.474C515.323,1003.808,515.323,1004.191,515.323,1004.479z M505.53,995.455
		c-2.639,0-4.896,1.872-5.568,5.809h11.041C510.476,997.566,508.843,995.455,505.53,995.455z"/>
	<path fill="#4B5666" d="M525.019,1001.936v13.537h-4.273v-22.898h3.408l0.721,4.656c1.633-2.592,4.271-4.943,8.016-5.136
		l0.674,4.08C529.771,996.367,526.554,998.911,525.019,1001.936z"/>
	<path fill="#4B5666" d="M555.595,1004.479h-15.553c0.145,5.329,2.688,7.825,6.672,7.825c3.312,0,5.713-1.297,8.209-3.265
		l0.625,3.841c-2.449,1.92-5.377,3.072-9.17,3.072c-5.951,0-10.607-3.601-10.607-12.002c0-7.344,4.32-11.856,10.08-11.856
		c6.672,0,9.744,5.136,9.744,11.474C555.595,1003.808,555.595,1004.191,555.595,1004.479z M545.802,995.455
		c-2.639,0-4.896,1.872-5.568,5.809h11.041C550.747,997.566,549.114,995.455,545.802,995.455z"/>
	<path fill="#4B5666" d="M575.61,1024.401v-11.569c-1.537,1.537-3.744,3.121-6.865,3.121c-4.943,0-9.023-3.601-9.023-11.281
		c0-8.354,4.607-12.385,11.232-12.385c3.457,0,5.904,0.527,8.928,1.439v30.051L575.61,1024.401z M575.61,996.751
		c-1.439-0.528-2.496-0.815-4.609-0.815c-4.463,0-6.959,2.688-6.959,8.544c0,5.04,2.256,7.681,5.328,7.681
		c2.4,0,4.512-1.584,6.24-3.744V996.751z"/>
	<path fill="#4B5666" d="M601.771,1015.473l-0.527-3.312c-2.16,2.017-4.896,3.793-8.113,3.793c-4.369,0-6.625-2.593-6.625-6.721
		v-16.658h4.273v15.602c0,2.353,1.008,3.937,3.504,3.937c2.256,0,4.561-1.488,6.625-3.696v-15.842h4.271v22.898H601.771z"/>
	<path fill="#4B5666" d="M614.394,987.967c-1.488,0-2.736-1.201-2.736-2.689c0-1.487,1.248-2.735,2.736-2.735
		s2.688,1.248,2.688,2.735C617.081,986.766,615.882,987.967,614.394,987.967z M612.233,1015.473v-22.898h4.271v22.898H612.233z"/>
	<path fill="#4B5666" d="M630.522,1015.953c-3.025,0-6.385-1.057-8.354-2.16l0.623-4.033c2.16,1.488,4.945,2.641,8.066,2.641
		c2.928,0,4.656-1.104,4.656-3.024c0-2.112-1.297-2.88-5.426-3.888c-5.375-1.345-7.535-2.977-7.535-7.057
		c0-3.648,3.072-6.337,8.064-6.337c2.832,0,5.375,0.576,7.535,1.536l-0.672,4.032c-2.016-1.151-4.561-1.968-6.959-1.968
		c-2.594,0-3.938,1.008-3.938,2.64c0,1.536,1.152,2.4,4.752,3.312c5.666,1.44,8.209,3.072,8.209,7.44
		C639.546,1013.265,636.427,1015.953,630.522,1015.953z"/>
	<path fill="#4B5666" d="M647.272,987.967c-1.488,0-2.736-1.201-2.736-2.689c0-1.487,1.248-2.735,2.736-2.735
		s2.689,1.248,2.689,2.735C649.962,986.766,648.761,987.967,647.272,987.967z M645.112,1015.473v-22.898h4.273v22.898H645.112z"/>
	<path fill="#4B5666" d="M664.218,1015.857c-4.033,0-6.672-1.441-6.672-6.049v-13.634h-3.457v-3.601h3.457v-7.633l4.176-0.623v8.256
		h4.943l0.576,3.601h-5.52v12.865c0,1.872,0.768,3.024,3.168,3.024c0.768,0,1.439-0.049,1.969-0.145l0.576,3.648
		C666.714,1015.713,665.706,1015.857,664.218,1015.857z"/>
	<path fill="#4B5666" d="M690.954,1004.479h-15.553c0.143,5.329,2.688,7.825,6.672,7.825c3.312,0,5.713-1.297,8.209-3.265
		l0.623,3.841c-2.447,1.92-5.375,3.072-9.168,3.072c-5.953,0-10.609-3.601-10.609-12.002c0-7.344,4.32-11.856,10.082-11.856
		c6.672,0,9.744,5.136,9.744,11.474C690.954,1003.808,690.954,1004.191,690.954,1004.479z M681.161,995.455
		c-2.641,0-4.896,1.872-5.568,5.809h11.041C686.104,997.566,684.474,995.455,681.161,995.455z"/>
</g>
<g>
	<path fill="#4B5666" d="M555.16,801.247h-44.197c0,0,0,49.915,0,56.935s2.369,17.138,11.44,27.298
		c12.998,14.559,32.757,20.538,32.757,20.538s19.759-5.979,32.757-20.538c9.071-10.16,11.44-20.278,11.44-27.298s0-56.935,0-56.935
		H555.16z M527.625,880.817c-8.407-9.416-9.662-18.224-9.662-22.636v-49.935h37.197v90.363
		C550.114,896.738,536.803,891.097,527.625,880.817z"/>
</g>
<g>
	<path fill="#4B5666" d="M64.403,586.547v-33.123H82.26v4.128H68.915v9.601h10.369l0.672,4.129H68.915v11.137H82.74v4.129H64.403z"
		/>
	<path fill="#4B5666" d="M101.556,586.883l-5.76-8.881l-5.376,8.545h-4.512l7.729-11.713l-7.249-10.85l4.225-0.672l5.232,8.16
		l4.992-7.824h4.465l-7.249,11.041l7.729,11.568L101.556,586.883z"/>
	<path fill="#4B5666" d="M120.563,586.834c-2.257,0-4.32-0.432-5.761-1.008v9.025l-4.272,0.623v-31.826h3.408l0.528,3.312
		c1.728-2.017,4.08-3.793,7.44-3.793c4.944,0,9.024,3.648,9.024,11.281C130.932,582.803,126.132,586.834,120.563,586.834z
		 M121.235,566.961c-2.593,0-4.608,1.584-6.433,4.032v10.993c1.728,0.863,3.12,1.248,5.568,1.248c3.601,0,6.24-2.929,6.24-8.594
		C126.611,569.648,124.355,566.961,121.235,566.961z"/>
	<path fill="#4B5666" d="M154.884,575.553h-15.553c0.144,5.329,2.688,7.825,6.672,7.825c3.312,0,5.713-1.296,8.209-3.265
		l0.624,3.841c-2.448,1.921-5.376,3.072-9.169,3.072c-5.952,0-10.608-3.601-10.608-12.001c0-7.345,4.32-11.857,10.081-11.857
		c6.672,0,9.744,5.137,9.744,11.473C154.884,574.881,154.884,575.266,154.884,575.553z M145.091,566.529
		c-2.64,0-4.896,1.871-5.568,5.809h11.041C150.035,568.641,148.403,566.529,145.091,566.529z"/>
	<path fill="#4B5666" d="M164.578,573.01v13.537h-4.272v-22.898h3.408l0.72,4.656c1.633-2.592,4.272-4.944,8.017-5.137l0.673,4.08
		C169.33,567.441,166.114,569.984,164.578,573.01z"/>
	<path fill="#4B5666" d="M179.985,559.04c-1.488,0-2.736-1.2-2.736-2.688s1.248-2.736,2.736-2.736s2.688,1.248,2.688,2.736
		S181.474,559.04,179.985,559.04z M177.825,586.547v-22.898h4.272v22.898H177.825z"/>
	<path fill="#4B5666" d="M217.38,586.547v-15.602c0-2.353-0.864-3.937-3.36-3.937c-2.256,0-4.416,1.487-6.48,3.696v15.842h-4.272
		v-15.602c0-2.353-0.864-3.937-3.36-3.937c-2.256,0-4.416,1.487-6.48,3.696v15.842h-4.272v-22.898h3.408l0.528,3.312
		c2.16-1.969,4.752-3.793,7.969-3.793c3.36,0,5.185,1.44,6.048,3.793c2.064-1.969,4.849-3.793,8.065-3.793
		c4.368,0,6.48,2.593,6.48,6.721v16.658H217.38z"/>
	<path fill="#4B5666" d="M246.802,575.553h-15.553c0.144,5.329,2.688,7.825,6.672,7.825c3.312,0,5.713-1.296,8.209-3.265
		l0.624,3.841c-2.448,1.921-5.376,3.072-9.169,3.072c-5.952,0-10.608-3.601-10.608-12.001c0-7.345,4.32-11.857,10.081-11.857
		c6.672,0,9.744,5.137,9.744,11.473C246.802,574.881,246.802,575.266,246.802,575.553z M237.009,566.529
		c-2.64,0-4.896,1.871-5.568,5.809h11.041C241.953,568.641,240.321,566.529,237.009,566.529z"/>
	<path fill="#4B5666" d="M266.625,586.547v-15.602c0-2.353-1.008-3.937-3.505-3.937c-2.256,0-4.56,1.487-6.624,3.696v15.842h-4.272
		v-22.898h3.408l0.528,3.312c2.16-1.969,4.849-3.793,8.112-3.793c4.32,0,6.625,2.593,6.625,6.721v16.658H266.625z"/>
	<path fill="#4B5666" d="M285.296,586.93c-4.032,0-6.672-1.439-6.672-6.048v-13.634h-3.457v-3.6h3.457v-7.633l4.176-0.624v8.257
		h4.944l0.576,3.6H282.8v12.865c0,1.873,0.769,3.025,3.168,3.025c0.769,0,1.44-0.049,1.969-0.145l0.576,3.648
		C287.792,586.787,286.784,586.93,285.296,586.93z"/>
	<path fill="#4B5666" d="M329.025,586.834l-4.849-4.752c-2.688,3.217-6.289,5.088-10.705,5.088c-6.864,0-10.897-3.216-10.897-8.928
		c0-4.753,3.072-7.922,7.537-10.082c-2.112-2.207-3.312-4.224-3.312-7.344c0-4.32,3.265-8.018,9.025-8.018
		c3.168,0,5.904,0.816,8.16,2.064l-0.72,4.513c-2.544-1.632-5.089-2.64-7.489-2.64c-3.023,0-4.512,1.632-4.512,3.984
		c0,2.063,1.008,3.6,3.312,5.904l9.12,9.121c1.057-2.257,1.824-5.089,2.305-8.449l3.937,0.863
		c-0.673,3.938-1.776,7.489-3.409,10.418l7.153,7.152L329.025,586.834z M312.703,570.753c-3.552,1.681-5.616,4.128-5.616,7.009
		c0,3.264,2.593,5.568,6.433,5.568c3.024,0,5.761-1.296,7.969-3.937L312.703,570.753z"/>
	<path fill="#4B5666" d="M64.979,644.146v-33.123h4.512v28.994h11.953l0.624,4.129H64.979z"/>
	<path fill="#4B5666" d="M104.483,633.153H88.93c0.144,5.329,2.688,7.825,6.673,7.825c3.312,0,5.712-1.297,8.208-3.265l0.624,3.841
		c-2.448,1.92-5.376,3.072-9.169,3.072c-5.952,0-10.609-3.601-10.609-12.002c0-7.344,4.321-11.856,10.081-11.856
		c6.672,0,9.745,5.136,9.745,11.474C104.483,632.481,104.483,632.865,104.483,633.153z M94.691,624.129
		c-2.64,0-4.896,1.872-5.569,5.809h11.041C99.635,626.24,98.003,624.129,94.691,624.129z"/>
	<path fill="#4B5666" d="M123.779,644.146l-0.479-3.072c-1.824,1.872-4.321,3.553-8.065,3.553c-4.128,0-6.721-2.496-6.721-6.385
		c0-5.713,4.896-7.969,14.449-8.977v-0.961c0-2.88-1.728-3.888-4.368-3.888c-2.784,0-5.424,0.864-7.921,1.968l-0.575-3.696
		c2.735-1.104,5.328-1.92,8.88-1.92c5.569,0,8.257,2.257,8.257,7.345v16.033H123.779z M122.963,632.529
		c-8.448,0.816-10.225,3.121-10.225,5.473c0,1.872,1.248,3.072,3.408,3.072c2.496,0,4.896-1.248,6.816-3.217V632.529z"/>
	<path fill="#4B5666" d="M138.131,630.609v13.537h-4.272v-22.898h3.408l0.72,4.656c1.633-2.592,4.272-4.943,8.017-5.136l0.673,4.08
		C142.883,625.041,139.667,627.585,138.131,630.609z"/>
	<path fill="#4B5666" d="M165.443,644.146v-15.602c0-2.352-1.008-3.936-3.505-3.936c-2.256,0-4.56,1.488-6.624,3.695v15.842h-4.272
		v-22.898h3.408l0.528,3.312c2.16-1.968,4.849-3.792,8.112-3.792c4.32,0,6.625,2.593,6.625,6.721v16.657H165.443z"/>
	<path fill="#4B5666" d="M210.132,643.475l-4.561,1.008l-10.129-14.305h-3.408v13.969h-4.513v-33.123h9.024
		c6.769,0,10.993,3.36,10.993,9.409c0,4.992-2.928,7.968-7.248,9.169L210.132,643.475z M196.354,615.008h-4.32v11.377h3.84
		c4.368,0,7.152-1.968,7.152-5.713C203.026,617.072,200.771,615.008,196.354,615.008z"/>
	<path fill="#4B5666" d="M228.13,644.146l-0.479-3.072c-1.824,1.872-4.321,3.553-8.065,3.553c-4.128,0-6.721-2.496-6.721-6.385
		c0-5.713,4.896-7.969,14.449-8.977v-0.961c0-2.88-1.728-3.888-4.368-3.888c-2.784,0-5.424,0.864-7.921,1.968l-0.575-3.696
		c2.735-1.104,5.328-1.92,8.88-1.92c5.569,0,8.257,2.257,8.257,7.345v16.033H228.13z M227.313,632.529
		c-8.448,0.816-10.225,3.121-10.225,5.473c0,1.872,1.248,3.072,3.408,3.072c2.496,0,4.896-1.248,6.816-3.217V632.529z"/>
	<path fill="#4B5666" d="M248.241,644.435c-2.257,0-4.32-0.433-5.761-1.009v9.025l-4.272,0.624v-31.827h3.408l0.528,3.312
		c1.728-2.016,4.08-3.792,7.44-3.792c4.944,0,9.024,3.648,9.024,11.28C258.609,640.402,253.81,644.435,248.241,644.435z
		 M248.913,624.561c-2.593,0-4.608,1.584-6.433,4.033v10.992c1.728,0.864,3.12,1.248,5.568,1.248c3.601,0,6.24-2.928,6.24-8.592
		C254.289,627.249,252.033,624.561,248.913,624.561z"/>
	<path fill="#4B5666" d="M266.528,616.641c-1.488,0-2.736-1.201-2.736-2.689c0-1.487,1.248-2.735,2.736-2.735
		s2.688,1.248,2.688,2.735C269.217,615.439,268.017,616.641,266.528,616.641z M264.368,644.146v-22.898h4.272v22.898H264.368z"/>
	<path fill="#4B5666" d="M291.394,644.146l-0.528-3.312c-1.728,2.064-4.08,3.793-7.44,3.793c-4.944,0-9.024-3.601-9.024-11.281
		c0-8.354,4.8-12.385,10.368-12.385c2.257,0,4.321,0.432,5.761,1.008V610.16l4.272-0.673v34.659H291.394z M290.529,625.857
		c-1.776-0.912-3.168-1.297-5.616-1.297c-3.601,0-6.192,2.929-6.192,8.593c0,5.04,2.256,7.681,5.328,7.681
		c2.641,0,4.656-1.584,6.48-4.032V625.857z"/>
	<path fill="#4B5666" d="M301.856,644.146V610.16l4.272-0.673v34.659H301.856z"/>
	<path fill="#4B5666" d="M322.689,646.162c-1.969,5.329-4.416,6.721-8.209,6.721c-0.576,0-1.056-0.096-1.488-0.191l-0.576-3.744
		c0.721,0.191,1.585,0.336,2.4,0.336c1.776,0,2.977-0.864,3.648-2.688l0.864-2.353l-8.353-22.658l4.225-0.672l6.24,18.242
		l6.097-17.906h4.368L322.689,646.162z"/>
</g>
<g>
	<path fill="#4B5666" d="M792.503,586.549h-9.408v-33.123h9.601c11.521,0,17.426,6.816,17.426,16.514
		C810.121,579.779,803.88,586.549,792.503,586.549z M792.839,557.506h-5.232v24.962h5.089c7.969,0,12.77-4.032,12.77-12.481
		C805.465,561.682,800.425,557.506,792.839,557.506z"/>
	<path fill="#4B5666" d="M834.743,575.555H819.19c0.145,5.329,2.688,7.825,6.672,7.825c3.312,0,5.713-1.296,8.209-3.265l0.625,3.841
		c-2.449,1.921-5.377,3.072-9.17,3.072c-5.951,0-10.607-3.601-10.607-12.001c0-7.345,4.32-11.857,10.08-11.857
		c6.672,0,9.744,5.137,9.744,11.473C834.743,574.883,834.743,575.268,834.743,575.555z M824.95,566.531
		c-2.639,0-4.896,1.871-5.568,5.809h11.041C829.896,568.643,828.263,566.531,824.95,566.531z"/>
	<path fill="#4B5666" d="M840.501,586.549v-33.987l4.273-0.673v34.66H840.501z"/>
	<path fill="#4B5666" d="M854.325,559.042c-1.488,0-2.736-1.2-2.736-2.688s1.248-2.736,2.736-2.736s2.689,1.248,2.689,2.736
		S855.813,559.042,854.325,559.042z M852.165,586.549V563.65h4.273v22.898H852.165z"/>
	<path fill="#4B5666" d="M873.526,586.645h-4.08l-8.113-22.658l4.273-0.672l5.951,18.098l5.762-17.762h4.367L873.526,586.645z"/>
	<path fill="#4B5666" d="M903.958,575.555h-15.553c0.145,5.329,2.688,7.825,6.672,7.825c3.312,0,5.713-1.296,8.209-3.265
		l0.625,3.841c-2.449,1.921-5.377,3.072-9.17,3.072c-5.951,0-10.607-3.601-10.607-12.001c0-7.345,4.32-11.857,10.08-11.857
		c6.672,0,9.744,5.137,9.744,11.473C903.958,574.883,903.958,575.268,903.958,575.555z M894.165,566.531
		c-2.639,0-4.896,1.871-5.568,5.809h11.041C899.11,568.643,897.478,566.531,894.165,566.531z"/>
	<path fill="#4B5666" d="M913.653,573.012v13.537h-4.273V563.65h3.408l0.721,4.656c1.633-2.592,4.271-4.944,8.016-5.137l0.674,4.08
		C918.405,567.443,915.188,569.986,913.653,573.012z"/>
	<path fill="#4B5666" d="M951.956,586.692h-4.031l-12.77-32.644l4.512-0.959l10.322,27.555l10.129-27.219h4.752L951.956,586.692z"/>
	<path fill="#4B5666" d="M979.796,586.549l-0.479-3.072c-1.824,1.871-4.322,3.552-8.066,3.552c-4.127,0-6.721-2.496-6.721-6.384
		c0-5.713,4.896-7.969,14.449-8.978v-0.96c0-2.881-1.727-3.889-4.367-3.889c-2.785,0-5.424,0.864-7.922,1.969l-0.574-3.697
		c2.734-1.104,5.328-1.92,8.879-1.92c5.57,0,8.258,2.256,8.258,7.346v16.033H979.796z M978.979,574.932
		c-8.447,0.816-10.225,3.12-10.225,5.473c0,1.871,1.248,3.072,3.408,3.072c2.496,0,4.896-1.248,6.816-3.217V574.932z"/>
	<path fill="#4B5666" d="M990.21,586.549v-33.987l4.273-0.673v34.66H990.21z"/>
	<path fill="#4B5666" d="M1016.708,586.549l-0.527-3.312c-2.16,2.016-4.896,3.792-8.113,3.792c-4.369,0-6.625-2.593-6.625-6.721
		V563.65h4.273v15.602c0,2.352,1.008,3.936,3.504,3.936c2.256,0,4.561-1.488,6.625-3.695V563.65h4.271v22.898H1016.708z"/>
	<path fill="#4B5666" d="M1045.362,575.555h-15.553c0.145,5.329,2.688,7.825,6.672,7.825c3.312,0,5.713-1.296,8.209-3.265
		l0.625,3.841c-2.449,1.921-5.377,3.072-9.17,3.072c-5.951,0-10.607-3.601-10.607-12.001c0-7.345,4.32-11.857,10.08-11.857
		c6.672,0,9.744,5.137,9.744,11.473C1045.362,574.883,1045.362,575.268,1045.362,575.555z M1035.569,566.531
		c-2.639,0-4.896,1.871-5.568,5.809h11.041C1040.515,568.643,1038.882,566.531,1035.569,566.531z"/>
	<path fill="#4B5666" d="M798.312,644.772c-9.312,0-15.313-6.913-15.313-17.138c0-10.272,6.097-17.233,15.409-17.233
		c3.937,0,6.865,1.009,9.409,2.736l-0.673,4.608c-2.399-1.824-5.232-3.217-8.784-3.217c-6.721,0-10.704,5.089-10.704,13.058
		s4.031,13.009,10.704,13.009c3.552,0,6.673-1.392,9.313-3.312l0.672,4.273C805.8,643.428,802.104,644.772,798.312,644.772z"/>
	<path fill="#4B5666" d="M823.079,644.629c-6.096,0-10.512-4.369-10.512-11.905s4.416-11.953,10.512-11.953
		c6.145,0,10.658,4.417,10.658,11.953S829.224,644.629,823.079,644.629z M823.079,624.371c-4.127,0-6.191,3.552-6.191,8.353
		c0,4.704,2.16,8.353,6.191,8.353c4.225,0,6.338-3.553,6.338-8.353C829.417,628.02,827.208,624.371,823.079,624.371z"/>
	<path fill="#4B5666" d="M853.56,644.148v-15.602c0-2.352-1.008-3.936-3.504-3.936c-2.256,0-4.561,1.488-6.625,3.695v15.842h-4.271
		V621.25h3.408l0.527,3.312c2.16-1.968,4.85-3.792,8.113-3.792c4.32,0,6.625,2.593,6.625,6.721v16.657H853.56z"/>
	<path fill="#4B5666" d="M872.231,644.533c-4.033,0-6.672-1.441-6.672-6.049v-13.634h-3.457v-3.601h3.457v-7.633l4.176-0.623v8.256
		h4.943l0.576,3.601h-5.52v12.865c0,1.872,0.768,3.024,3.168,3.024c0.768,0,1.439-0.049,1.969-0.145l0.576,3.648
		C874.728,644.389,873.72,644.533,872.231,644.533z"/>
	<path fill="#4B5666" d="M883.126,616.643c-1.488,0-2.736-1.201-2.736-2.689c0-1.487,1.248-2.735,2.736-2.735
		s2.689,1.248,2.689,2.735C885.815,615.441,884.614,616.643,883.126,616.643z M880.966,644.148V621.25h4.273v22.898H880.966z"/>
	<path fill="#4B5666" d="M906.696,644.148v-15.602c0-2.352-1.008-3.936-3.506-3.936c-2.256,0-4.559,1.488-6.623,3.695v15.842h-4.273
		V621.25h3.408l0.529,3.312c2.16-1.968,4.848-3.792,8.111-3.792c4.32,0,6.625,2.593,6.625,6.721v16.657H906.696z"/>
	<path fill="#4B5666" d="M932.759,644.148l-0.527-3.312c-2.16,2.017-4.896,3.793-8.113,3.793c-4.367,0-6.623-2.593-6.623-6.721
		V621.25h4.271v15.602c0,2.353,1.008,3.937,3.504,3.937c2.256,0,4.561-1.488,6.625-3.696V621.25h4.271v22.898H932.759z"/>
	<path fill="#4B5666" d="M952.103,644.629c-6.096,0-10.512-4.369-10.512-11.905s4.416-11.953,10.512-11.953
		c6.145,0,10.658,4.417,10.658,11.953S958.247,644.629,952.103,644.629z M952.103,624.371c-4.127,0-6.191,3.552-6.191,8.353
		c0,4.704,2.16,8.353,6.191,8.353c4.225,0,6.338-3.553,6.338-8.353C958.44,628.02,956.231,624.371,952.103,624.371z"/>
	<path fill="#4B5666" d="M983.351,644.148l-0.527-3.312c-2.16,2.017-4.896,3.793-8.113,3.793c-4.367,0-6.623-2.593-6.623-6.721
		V621.25h4.271v15.602c0,2.353,1.008,3.937,3.504,3.937c2.256,0,4.561-1.488,6.625-3.696V621.25h4.271v22.898H983.351z"/>
	<path fill="#4B5666" d="M1000.438,644.629c-3.023,0-6.385-1.057-8.354-2.16l0.625-4.033c2.16,1.488,4.945,2.641,8.064,2.641
		c2.928,0,4.656-1.104,4.656-3.024c0-2.112-1.295-2.88-5.424-3.888c-5.377-1.345-7.537-2.977-7.537-7.057
		c0-3.648,3.072-6.337,8.064-6.337c2.832,0,5.377,0.576,7.537,1.536l-0.672,4.032c-2.016-1.151-4.561-1.968-6.961-1.968
		c-2.592,0-3.936,1.008-3.936,2.64c0,1.536,1.152,2.4,4.752,3.312c5.664,1.44,8.209,3.072,8.209,7.44
		C1009.464,641.94,1006.343,644.629,1000.438,644.629z"/>
	<path fill="#4B5666" d="M1015.028,644.148v-33.986l4.273-0.673v34.659H1015.028z"/>
	<path fill="#4B5666" d="M1035.862,646.164c-1.969,5.329-4.416,6.721-8.209,6.721c-0.576,0-1.057-0.096-1.488-0.191l-0.576-3.744
		c0.721,0.191,1.584,0.336,2.4,0.336c1.775,0,2.977-0.864,3.648-2.688l0.863-2.353l-8.352-22.658l4.225-0.672l6.24,18.242
		l6.096-17.906h4.369L1035.862,646.164z"/>
</g>
<g>
	<path fill="#4B5666" d="M211.754,463.965v-22.213h1.391c1.217,0,2.204-0.986,2.204-2.205v-7.424c0-1.217-0.987-2.203-2.204-2.203
		h-32.194c-1.218,0-2.205,0.986-2.205,2.203v7.424c0,1.219,0.987,2.205,2.205,2.205h1.392v22.213
		c-13.816,5.762-23.53,19.395-23.53,35.299c0,16.027,9.863,29.74,23.847,35.428h28.777c13.984-5.688,23.847-19.4,23.847-35.428
		C235.284,483.359,225.571,469.727,211.754,463.965z M209.998,527.691H184.1c-11.152-5.075-18.287-16.095-18.287-28.428
		c0-12.648,7.546-23.968,19.224-28.838l4.306-1.796v-4.665v-22.213h15.412v22.213v4.665l4.306,1.796
		c11.678,4.87,19.224,16.189,19.224,28.838C228.284,511.597,221.149,522.616,209.998,527.691z"/>
	<path fill="#4B5666" d="M171.243,499.723c0.12,9.561,5.432,17.861,13.25,22.223h25.112c7.818-4.361,13.13-12.662,13.25-22.223
		H171.243z M192.474,519.822c-2.347,0-4.249-1.902-4.249-4.248c0-2.348,1.902-4.25,4.249-4.25s4.249,1.902,4.249,4.25
		C196.723,517.92,194.82,519.822,192.474,519.822z M195.578,505.279c-0.812,0-1.471-0.658-1.471-1.471s0.659-1.471,1.471-1.471
		s1.47,0.658,1.47,1.471S196.39,505.279,195.578,505.279z M205.382,514.104c-1.535,0-2.778-1.244-2.778-2.779
		s1.243-2.777,2.778-2.777c1.534,0,2.778,1.242,2.778,2.777S206.916,514.104,205.382,514.104z"/>
</g>
<path fill="#4B5666" d="M979.929,471.18l-12.039-26.211l-54.621-15.047l-54.623,15.047l-12.037,26.211l12.037-1.645v50.115
	l54.623,15.043l54.621-15.043v-50.16l-42.584-5.977L979.929,471.18z M863.646,450.852l39.101-10.771l-5.361,17.099l-39.098,5.34
	L863.646,450.852z M865.646,514.317v-38.673l38.037-5.195l4.402-0.602l1.33-4.239l3.854-12.29v74.114L865.646,514.317z
	 M962.889,450.852l5.336,11.617l-37.757-5.299l-6.062-16.919L962.889,450.852z"/>
</svg>
