<?xml version="1.0" encoding="utf-8"?>
<!-- Generator: Adobe Illustrator 15.0.2, SVG Export Plug-In . SVG Version: 6.00 Build 0)  -->
<!DOCTYPE svg PUBLIC "-//W3C//DTD SVG 1.1//EN" "http://www.w3.org/Graphics/SVG/1.1/DTD/svg11.dtd">
<svg version="1.1" id="Layer_1" xmlns="http://www.w3.org/2000/svg" xmlns:xlink="http://www.w3.org/1999/xlink" x="0px" y="0px"
	 width="1110.316px" height="1110.316px" viewBox="244.159 -48.85 1110.316 1110.316"
	 enable-background="new 244.159 -48.85 1110.316 1110.316" xml:space="preserve">
<circle fill="#4B5666" cx="799.317" cy="506.309" r="555.158"/>
<g>
	<path fill="#FBD35C" d="M425.642,132.627c206.542-206.542,540.808-206.539,747.354,0.008L799.322,506.308L425.642,132.627z"/>
</g>
<g>
	<path fill="#A4D970" d="M1172.999,132.63c206.543,206.544,206.538,540.808-0.007,747.353L799.319,506.31L1172.999,132.63z"/>
</g>
<g>
	<path fill="#9EBEED" d="M1172.992,879.989c-206.542,206.544-540.808,206.538-747.353-0.007L799.312,506.31L1172.992,879.989z"/>
</g>
<g>
	<path fill="#FA7977" d="M425.636,879.987c-206.542-206.544-206.539-540.808,0.006-747.353l373.674,373.673L425.636,879.987z"/>
</g>
<circle fill="#4B5666" cx="799.317" cy="506.309" r="187.634"/>
<path fill="#4B5666" d="M823.684,36.285c-9.553,0-21.932,5.631-24.367,15.109l-0.002-0.002v0.002
	c-2.436-9.479-14.814-15.109-24.365-15.109c-18.836,0-34.113,14.621-34.113,34.113c0,22.936,13.562,36.971,28.346,48.359
	c8.869,6.834,28.551,22.299,30.109,22.299c0.008,0,0.016-0.002,0.023-0.002s0.018,0.002,0.025,0.002
	c1.559,0,21.24-15.465,30.109-22.299c14.783-11.389,28.348-25.424,28.348-48.359C857.797,50.906,842.52,36.285,823.684,36.285z
	 M761.717,51.715c-5.889,4.355-9.268,11.166-9.268,18.684c0,1.24-1.004,2.246-2.244,2.246s-2.246-1.006-2.246-2.246
	c0-8.957,4.041-17.082,11.088-22.293c0.996-0.738,2.4-0.527,3.139,0.47S762.713,50.979,761.717,51.715z"/>
<path fill-rule="evenodd" clip-rule="evenodd" fill="#4B5666" d="M479.443,450.873c0,14.404-7.969,26.939-19.734,33.457
	c0,0-1.43,0.818-3.293,1.141c-1.812,0.312-3.15,0.371-3.15,0.371h-12.058h-12.056c0,0-1.34-0.059-3.152-0.371
	c-1.863-0.322-3.293-1.141-3.293-1.141c-11.766-6.518-19.734-19.053-19.734-33.457c0-15.905,9.713-29.538,23.529-35.301v-21.718
	c-1.879,0-3.401-1.523-3.401-3.401v-5.981c0-1.879,1.522-3.401,3.401-3.401h29.412c1.879,0,3.402,1.522,3.402,3.401v5.981
	c0,1.878-1.523,3.401-3.402,3.401v21.718C469.73,421.335,479.443,434.968,479.443,450.873z M451.046,383.382H431.37
	c-1.24,0-2.245,1.006-2.245,2.245c0,1.24,1.005,2.245,2.245,2.245h19.677c1.24,0,2.246-1.005,2.246-2.245
	C453.292,384.388,452.287,383.382,451.046,383.382z M453.22,422.033c-2.607-1.088-4.307-3.636-4.307-6.461v-21.718h-15.412v21.718
	c0,2.825-1.698,5.373-4.306,6.461c-11.677,4.871-19.224,16.191-19.224,28.84c0,11.348,6.177,21.82,16.121,27.331
	c0.151,0.077,0.635,0.288,1.099,0.369c1.033,0.178,1.865,0.247,2.166,0.269h11.85h11.853c0.283-0.02,1.121-0.089,2.166-0.27
	c0.463-0.08,0.943-0.291,1.096-0.368c9.943-5.511,16.121-15.983,16.121-27.331C472.443,438.225,464.898,426.904,453.22,422.033z
	 M467.953,450.873c0,9.643-5.209,18.547-13.613,23.296c-0.646,0.106-1.182,0.16-1.457,0.183h-23.355
	c-0.254-0.021-0.794-0.074-1.448-0.183c-8.405-4.748-13.617-13.653-13.617-23.296c0-3.396,0.646-6.645,1.805-9.637h49.884
	C467.31,444.229,467.953,447.477,467.953,450.873z M433.078,466.085c-5.761-3.649-9.328-10.104-9.328-16.913
	c0-1.24-1.005-2.245-2.245-2.245c-1.239,0-2.246,1.005-2.246,2.245c0,8.45,4.485,16.454,11.703,20.886l0.458,0.266l0.672,0.073
	c0.064,0.006,0.13,0.009,0.195,0.009c1.148,0,2.086-0.887,2.188-2.056C434.56,467.357,433.958,466.457,433.078,466.085z"/>
<path fill="#4B5666" d="M840.123,752.394h-81.615c-1.871,0-3.391,1.518-3.391,3.39l0.004,31.45c0,0.003,0.001,0.007,0.001,0.01
	c0,9.446,0,18.922,0,22.089c0,7.02,2.369,17.138,11.44,27.299c12.998,14.558,32.757,20.537,32.757,20.537
	s19.759-5.979,32.757-20.537c9.071-10.161,11.44-20.279,11.44-27.299c0-3.167,0-12.643,0-22.089c0-0.003,0.001-0.007,0.001-0.01
	l-0.004-31.45C843.514,753.911,841.994,752.394,840.123,752.394z M775.462,832.431c-0.429,0.382-0.963,0.569-1.494,0.569
	c-0.618,0-1.232-0.253-1.676-0.75c-8.903-9.971-10.232-19.398-10.232-24.131c0-1.239,1.005-2.245,2.244-2.245
	c1.24,0,2.246,1.006,2.246,2.245c0,4.093,1.181,12.281,9.092,21.141C776.467,830.185,776.386,831.604,775.462,832.431z
	 M836.518,787.123c-0.001,0.039-0.001,0.08-0.001,0.12v22.089c0,4.412-1.256,13.221-9.662,22.636
	c-9.177,10.279-22.489,15.921-27.535,17.794l-0.004-90.368h37.198L836.518,787.123z"/>
<g>
	<path fill="#4B5666" d="M674.928,193.202l-9.523-27.425h-0.18c0.255,4.073,0.382,7.892,0.382,11.455v15.97h-4.874v-32.838h7.569
		l9.119,26.122h0.135l9.39-26.122h7.592v32.838h-5.166v-16.239c0-1.632,0.041-3.759,0.123-6.379s0.154-4.208,0.213-4.762h-0.18
		l-9.859,27.38H674.928z"/>
	<path fill="#4B5666" d="M718.166,193.202l-1.056-3.459h-0.18c-1.198,1.513-2.403,2.542-3.616,3.088
		c-1.213,0.547-2.771,0.82-4.672,0.82c-2.44,0-4.346-0.659-5.717-1.977c-1.369-1.317-2.055-3.182-2.055-5.593
		c0-2.561,0.951-4.492,2.853-5.795s4.799-2.014,8.692-2.134l4.29-0.135v-1.325c0-1.587-0.37-2.774-1.112-3.56
		c-0.74-0.787-1.89-1.18-3.447-1.18c-1.272,0-2.493,0.188-3.661,0.562s-2.291,0.816-3.369,1.325l-1.707-3.773
		c1.348-0.704,2.822-1.239,4.425-1.605c1.603-0.367,3.114-0.551,4.537-0.551c3.159,0,5.544,0.688,7.154,2.066
		c1.609,1.378,2.414,3.541,2.414,6.491v16.733H718.166z M710.305,189.608c1.917,0,3.455-0.535,4.615-1.605
		c1.161-1.071,1.741-2.572,1.741-4.504v-2.156l-3.189,0.135c-2.485,0.09-4.294,0.506-5.425,1.246
		c-1.13,0.742-1.695,1.876-1.695,3.403c0,1.108,0.329,1.966,0.988,2.571C707.999,189.306,708.987,189.608,710.305,189.608z"/>
	<path fill="#4B5666" d="M734.405,180.085l2.987-3.729l7.502-7.996h6.087l-9.995,10.669l10.624,14.173h-6.199l-7.974-10.894
		l-2.897,2.381v8.513h-5.233v-34.949h5.233v17.048l-0.27,4.784H734.405z"/>
	<path fill="#4B5666" d="M766.456,193.651c-3.863,0-6.884-1.127-9.063-3.381c-2.178-2.253-3.268-5.356-3.268-9.31
		c0-4.058,1.011-7.247,3.032-9.568s4.799-3.481,8.333-3.481c3.279,0,5.87,0.996,7.771,2.987s2.853,4.731,2.853,8.221v2.853h-16.554
		c0.075,2.411,0.727,4.264,1.954,5.559c1.228,1.296,2.957,1.943,5.188,1.943c1.468,0,2.834-0.139,4.1-0.416
		c1.265-0.276,2.624-0.737,4.076-1.381v4.29c-1.288,0.614-2.591,1.048-3.908,1.303S768.148,193.651,766.456,193.651z
		 M765.49,171.909c-1.677,0-3.021,0.531-4.031,1.595c-1.012,1.063-1.614,2.613-1.809,4.649h11.275
		c-0.03-2.052-0.524-3.605-1.482-4.66C768.485,172.437,767.167,171.909,765.49,171.909z"/>
	<path fill="#4B5666" d="M816.364,170.292c0,3.429-1.123,6.057-3.369,7.884s-5.443,2.74-9.591,2.74h-3.414v12.286h-5.368v-32.838
		h9.456c4.103,0,7.176,0.839,9.221,2.516C815.342,164.557,816.364,167.027,816.364,170.292z M799.99,176.401h2.853
		c2.755,0,4.776-0.479,6.064-1.438s1.932-2.456,1.932-4.492c0-1.887-0.576-3.294-1.729-4.223s-2.95-1.393-5.391-1.393h-3.729
		V176.401z"/>
	<path fill="#4B5666" d="M833.21,193.651c-3.863,0-6.884-1.127-9.063-3.381c-2.178-2.253-3.268-5.356-3.268-9.31
		c0-4.058,1.011-7.247,3.032-9.568s4.799-3.481,8.333-3.481c3.279,0,5.87,0.996,7.771,2.987s2.853,4.731,2.853,8.221v2.853h-16.554
		c0.075,2.411,0.727,4.264,1.954,5.559c1.228,1.296,2.957,1.943,5.188,1.943c1.468,0,2.834-0.139,4.1-0.416
		c1.265-0.276,2.624-0.737,4.076-1.381v4.29c-1.288,0.614-2.591,1.048-3.908,1.303S834.902,193.651,833.21,193.651z
		 M832.244,171.909c-1.677,0-3.021,0.531-4.031,1.595c-1.012,1.063-1.614,2.613-1.809,4.649h11.275
		c-0.03-2.052-0.524-3.605-1.482-4.66C835.239,172.437,833.921,171.909,832.244,171.909z"/>
	<path fill="#4B5666" d="M870.899,180.736c0,4.058-1.041,7.225-3.122,9.501s-4.979,3.414-8.692,3.414
		c-2.321,0-4.372-0.524-6.154-1.572s-3.152-2.553-4.11-4.515s-1.438-4.237-1.438-6.828c0-4.028,1.033-7.173,3.1-9.434
		s4.979-3.392,8.737-3.392c3.594,0,6.438,1.156,8.535,3.471C869.852,173.694,870.899,176.813,870.899,180.736z M852.818,180.736
		c0,5.735,2.119,8.603,6.356,8.603c4.192,0,6.289-2.867,6.289-8.603c0-5.675-2.111-8.513-6.334-8.513
		c-2.216,0-3.822,0.733-4.817,2.201C853.316,175.893,852.818,177.996,852.818,180.736z"/>
	<path fill="#4B5666" d="M889.565,193.651c-3.145,0-5.585-1.131-7.322-3.392h-0.314c0.21,2.097,0.314,3.369,0.314,3.818v10.175
		h-5.278V168.36h4.268c0.12,0.464,0.367,1.572,0.741,3.324h0.27c1.647-2.516,4.118-3.773,7.412-3.773c3.1,0,5.515,1.123,7.243,3.369
		c1.73,2.246,2.595,5.398,2.595,9.456s-0.88,7.225-2.64,9.501C895.095,192.514,892.665,193.651,889.565,193.651z M888.285,172.224
		c-2.097,0-3.627,0.614-4.594,1.842c-0.965,1.228-1.448,3.189-1.448,5.885v0.786c0,3.024,0.479,5.215,1.438,6.569
		c0.958,1.355,2.523,2.033,4.694,2.033c1.827,0,3.234-0.749,4.223-2.246s1.482-3.631,1.482-6.401c0-2.785-0.49-4.893-1.471-6.323
		C891.628,172.938,890.187,172.224,888.285,172.224z"/>
	<path fill="#4B5666" d="M910.903,193.202h-5.278v-34.949h5.278V193.202z"/>
	<path fill="#4B5666" d="M929.298,193.651c-3.863,0-6.884-1.127-9.063-3.381c-2.178-2.253-3.268-5.356-3.268-9.31
		c0-4.058,1.011-7.247,3.032-9.568s4.799-3.481,8.333-3.481c3.279,0,5.87,0.996,7.771,2.987s2.853,4.731,2.853,8.221v2.853h-16.554
		c0.075,2.411,0.727,4.264,1.954,5.559c1.228,1.296,2.957,1.943,5.188,1.943c1.468,0,2.834-0.139,4.1-0.416
		c1.265-0.276,2.624-0.737,4.076-1.381v4.29c-1.288,0.614-2.591,1.048-3.908,1.303S930.99,193.651,929.298,193.651z
		 M928.332,171.909c-1.677,0-3.021,0.531-4.031,1.595c-1.012,1.063-1.614,2.613-1.809,4.649h11.275
		c-0.03-2.052-0.524-3.605-1.482-4.66C931.327,172.437,930.009,171.909,928.332,171.909z"/>
	<path fill="#4B5666" d="M715.762,248.402l-3.279-9.119h-12.556l-3.212,9.119h-5.66l12.286-32.973h5.84l12.286,32.973H715.762z
		 M711.067,234.656l-3.077-8.939c-0.225-0.599-0.535-1.542-0.932-2.83c-0.397-1.288-0.671-2.231-0.82-2.83
		c-0.404,1.842-0.996,3.855-1.774,6.042l-2.965,8.558H711.067z"/>
	<path fill="#4B5666" d="M745.612,248.402l-3.212-11.59c-0.39-1.228-1.093-4.08-2.111-8.558h-0.202
		c-0.868,4.043-1.558,6.91-2.066,8.603l-3.302,11.545h-5.84l-6.963-24.842h5.391l3.167,12.241c0.719,3.024,1.228,5.615,1.527,7.771
		h0.135c0.149-1.093,0.378-2.347,0.685-3.763c0.308-1.414,0.573-2.474,0.798-3.178l3.773-13.072h5.795l3.661,13.072
		c0.225,0.733,0.506,1.856,0.842,3.369c0.338,1.513,0.536,2.688,0.596,3.526h0.18c0.225-1.842,0.749-4.417,1.572-7.727l3.212-12.241
		h5.301l-7.008,24.842H745.612z"/>
	<path fill="#4B5666" d="M773.666,248.852c-3.863,0-6.884-1.127-9.063-3.381c-2.178-2.253-3.268-5.356-3.268-9.31
		c0-4.058,1.011-7.247,3.032-9.568s4.799-3.481,8.333-3.481c3.279,0,5.87,0.996,7.771,2.987s2.853,4.731,2.853,8.221v2.853h-16.554
		c0.075,2.411,0.727,4.264,1.954,5.559c1.228,1.296,2.957,1.943,5.188,1.943c1.468,0,2.834-0.139,4.1-0.416
		c1.265-0.276,2.624-0.737,4.076-1.381v4.29c-1.288,0.614-2.591,1.048-3.908,1.303S775.358,248.852,773.666,248.852z M772.7,227.109
		c-1.677,0-3.021,0.531-4.031,1.595c-1.012,1.063-1.614,2.613-1.809,4.649h11.275c-0.03-2.052-0.524-3.605-1.482-4.66
		C775.695,227.637,774.377,227.109,772.7,227.109z"/>
	<path fill="#4B5666" d="M806.01,241.327c0,2.426-0.884,4.286-2.65,5.581c-1.767,1.296-4.298,1.943-7.592,1.943
		c-3.31,0-5.967-0.502-7.974-1.505v-4.56c2.92,1.348,5.638,2.021,8.153,2.021c3.249,0,4.874-0.98,4.874-2.942
		c0-0.629-0.18-1.153-0.539-1.572s-0.951-0.854-1.774-1.303s-1.969-0.958-3.437-1.527c-2.86-1.108-4.795-2.216-5.807-3.324
		c-1.01-1.108-1.516-2.546-1.516-4.312c0-2.126,0.857-3.777,2.572-4.952c1.714-1.176,4.046-1.764,6.996-1.764
		c2.92,0,5.683,0.592,8.288,1.774l-1.707,3.976c-2.681-1.108-4.934-1.662-6.761-1.662c-2.785,0-4.178,0.794-4.178,2.381
		c0,0.778,0.363,1.438,1.09,1.977c0.726,0.539,2.31,1.28,4.75,2.224c2.052,0.794,3.541,1.52,4.47,2.179s1.617,1.419,2.066,2.279
		C805.785,239.1,806.01,240.129,806.01,241.327z"/>
	<path fill="#4B5666" d="M833.749,235.937c0,4.058-1.041,7.225-3.122,9.501s-4.979,3.414-8.692,3.414
		c-2.321,0-4.372-0.524-6.154-1.572s-3.152-2.553-4.11-4.515s-1.438-4.237-1.438-6.828c0-4.028,1.033-7.173,3.1-9.434
		s4.979-3.392,8.737-3.392c3.594,0,6.438,1.156,8.535,3.471C832.701,228.895,833.749,232.014,833.749,235.937z M815.668,235.937
		c0,5.735,2.119,8.603,6.356,8.603c4.192,0,6.289-2.867,6.289-8.603c0-5.675-2.111-8.513-6.334-8.513
		c-2.216,0-3.822,0.733-4.817,2.201C816.166,231.093,815.668,233.196,815.668,235.937z"/>
	<path fill="#4B5666" d="M860.747,248.402h-5.301v-15.318c0-1.901-0.359-3.32-1.078-4.256c-0.719-0.937-1.842-1.404-3.369-1.404
		c-2.036,0-3.53,0.662-4.48,1.988c-0.951,1.324-1.427,3.529-1.427,6.614v12.376h-5.278v-24.842h4.133l0.741,3.257h0.27
		c0.688-1.183,1.688-2.097,2.999-2.74c1.31-0.644,2.751-0.966,4.323-0.966c3.818,0,6.349,1.303,7.592,3.908h0.359
		c0.733-1.228,1.767-2.187,3.1-2.875s2.86-1.033,4.582-1.033c2.965,0,5.125,0.749,6.479,2.246c1.355,1.497,2.033,3.781,2.033,6.851
		v16.194h-5.278v-15.318c0-1.901-0.363-3.32-1.089-4.256c-0.727-0.937-1.854-1.404-3.381-1.404c-2.052,0-3.553,0.641-4.504,1.92
		c-0.95,1.281-1.426,3.246-1.426,5.896V248.402z"/>
	<path fill="#4B5666" d="M894.641,248.852c-3.863,0-6.884-1.127-9.063-3.381c-2.178-2.253-3.268-5.356-3.268-9.31
		c0-4.058,1.011-7.247,3.032-9.568s4.799-3.481,8.333-3.481c3.279,0,5.87,0.996,7.771,2.987s2.853,4.731,2.853,8.221v2.853h-16.554
		c0.075,2.411,0.727,4.264,1.954,5.559c1.228,1.296,2.957,1.943,5.188,1.943c1.468,0,2.834-0.139,4.1-0.416
		c1.265-0.276,2.624-0.737,4.076-1.381v4.29c-1.288,0.614-2.591,1.048-3.908,1.303S896.333,248.852,894.641,248.852z
		 M893.675,227.109c-1.677,0-3.021,0.531-4.031,1.595c-1.012,1.063-1.614,2.613-1.809,4.649h11.275
		c-0.03-2.052-0.524-3.605-1.482-4.66C896.67,227.637,895.352,227.109,893.675,227.109z"/>
</g>
<g>
	<path fill="#4B5666" d="M312.647,537.404h-18.575v-32.838h18.575v4.537H299.44v8.939h12.376v4.492H299.44v10.31h13.207V537.404z"/>
	<path fill="#4B5666" d="M324.709,524.714l-8.333-12.151h6.02l5.66,8.692l5.705-8.692h5.975l-8.355,12.151l8.782,12.69h-5.975
		l-6.132-9.299l-6.109,9.299h-5.975L324.709,524.714z"/>
	<path fill="#4B5666" d="M357.12,537.854c-3.145,0-5.585-1.131-7.322-3.392h-0.314c0.21,2.097,0.314,3.369,0.314,3.818v10.175
		h-5.278v-35.893h4.268c0.12,0.464,0.367,1.572,0.741,3.324h0.27c1.647-2.516,4.118-3.773,7.412-3.773
		c3.1,0,5.515,1.123,7.243,3.369c1.73,2.246,2.595,5.398,2.595,9.456s-0.88,7.225-2.64,9.501
		C362.649,536.716,360.22,537.854,357.12,537.854z M355.84,516.426c-2.097,0-3.627,0.614-4.594,1.842
		c-0.965,1.228-1.448,3.189-1.448,5.885v0.786c0,3.024,0.479,5.215,1.438,6.569c0.958,1.355,2.523,2.033,4.694,2.033
		c1.827,0,3.234-0.749,4.223-2.246s1.482-3.631,1.482-6.401c0-2.785-0.49-4.893-1.471-6.323
		C359.183,517.141,357.741,516.426,355.84,516.426z"/>
	<path fill="#4B5666" d="M384.028,537.854c-3.863,0-6.884-1.127-9.063-3.381c-2.178-2.253-3.268-5.356-3.268-9.31
		c0-4.058,1.011-7.247,3.032-9.568s4.799-3.481,8.333-3.481c3.279,0,5.87,0.996,7.771,2.987s2.853,4.731,2.853,8.221v2.853h-16.554
		c0.075,2.411,0.727,4.264,1.954,5.559c1.228,1.296,2.957,1.943,5.188,1.943c1.468,0,2.834-0.139,4.1-0.416
		c1.265-0.276,2.624-0.737,4.076-1.381v4.29c-1.288,0.614-2.591,1.048-3.908,1.303S385.721,537.854,384.028,537.854z
		 M383.062,516.111c-1.677,0-3.021,0.531-4.031,1.595c-1.012,1.063-1.614,2.613-1.809,4.649h11.275
		c-0.03-2.052-0.524-3.605-1.482-4.66C386.058,516.639,384.739,516.111,383.062,516.111z"/>
	<path fill="#4B5666" d="M412.284,512.113c1.063,0,1.939,0.075,2.628,0.225l-0.517,4.919c-0.749-0.18-1.527-0.27-2.336-0.27
		c-2.111,0-3.822,0.688-5.132,2.066c-1.311,1.378-1.966,3.167-1.966,5.368v12.982h-5.278v-24.842h4.133l0.696,4.38h0.27
		c0.823-1.482,1.897-2.658,3.224-3.526C409.33,512.548,410.757,512.113,412.284,512.113z"/>
	<path fill="#4B5666" d="M419.202,505.981c0-0.943,0.258-1.67,0.775-2.179c0.516-0.509,1.254-0.764,2.212-0.764
		c0.929,0,1.651,0.255,2.167,0.764c0.518,0.509,0.775,1.235,0.775,2.179c0,0.898-0.258,1.606-0.775,2.122
		c-0.516,0.518-1.238,0.775-2.167,0.775c-0.958,0-1.696-0.258-2.212-0.775C419.46,507.588,419.202,506.88,419.202,505.981z
		 M424.795,537.404h-5.278v-24.842h5.278V537.404z"/>
	<path fill="#4B5666" d="M453.275,537.404h-5.301v-15.318c0-1.901-0.359-3.32-1.078-4.256c-0.719-0.937-1.842-1.404-3.369-1.404
		c-2.036,0-3.53,0.662-4.48,1.988c-0.951,1.324-1.427,3.529-1.427,6.614v12.376h-5.278v-24.842h4.133l0.741,3.257h0.27
		c0.688-1.183,1.688-2.097,2.999-2.74c1.31-0.644,2.751-0.966,4.323-0.966c3.818,0,6.349,1.303,7.592,3.908h0.359
		c0.733-1.228,1.767-2.187,3.1-2.875s2.86-1.033,4.582-1.033c2.965,0,5.125,0.749,6.479,2.246c1.355,1.497,2.033,3.781,2.033,6.851
		v16.194h-5.278v-15.318c0-1.901-0.363-3.32-1.089-4.256c-0.727-0.937-1.854-1.404-3.381-1.404c-2.052,0-3.553,0.641-4.504,1.92
		c-0.95,1.281-1.426,3.246-1.426,5.896V537.404z"/>
	<path fill="#4B5666" d="M487.169,537.854c-3.863,0-6.884-1.127-9.063-3.381c-2.178-2.253-3.268-5.356-3.268-9.31
		c0-4.058,1.011-7.247,3.032-9.568s4.799-3.481,8.333-3.481c3.279,0,5.87,0.996,7.771,2.987s2.853,4.731,2.853,8.221v2.853h-16.554
		c0.075,2.411,0.727,4.264,1.954,5.559c1.228,1.296,2.957,1.943,5.188,1.943c1.468,0,2.834-0.139,4.1-0.416
		c1.265-0.276,2.624-0.737,4.076-1.381v4.29c-1.288,0.614-2.591,1.048-3.908,1.303S488.861,537.854,487.169,537.854z
		 M486.203,516.111c-1.677,0-3.021,0.531-4.031,1.595c-1.012,1.063-1.614,2.613-1.809,4.649h11.275
		c-0.03-2.052-0.524-3.605-1.482-4.66C489.198,516.639,487.88,516.111,486.203,516.111z"/>
	<path fill="#4B5666" d="M524.679,537.404h-5.301v-15.273c0-1.917-0.386-3.347-1.157-4.29c-0.771-0.943-1.995-1.415-3.672-1.415
		c-2.231,0-3.863,0.659-4.896,1.977s-1.55,3.526-1.55,6.626v12.376h-5.278v-24.842h4.133l0.741,3.257h0.27
		c0.749-1.183,1.812-2.097,3.189-2.74s2.905-0.966,4.582-0.966c5.96,0,8.939,3.032,8.939,9.097V537.404z"/>
	<path fill="#4B5666" d="M541.277,533.586c1.288,0,2.575-0.202,3.863-0.606v3.976c-0.584,0.255-1.336,0.468-2.258,0.641
		c-0.92,0.172-1.875,0.258-2.863,0.258c-5.001,0-7.502-2.636-7.502-7.906v-13.387h-3.392v-2.336l3.639-1.932l1.797-5.256h3.257
		v5.525h7.075v3.998h-7.075v13.297c0,1.272,0.318,2.213,0.955,2.818C539.409,533.283,540.244,533.586,541.277,533.586z"/>
	<path fill="#4B5666" d="M560.437,528.712c0-1.962,0.479-3.673,1.438-5.132c0.958-1.461,2.688-2.909,5.188-4.347
		c-1.423-1.662-2.392-3.065-2.909-4.212c-0.516-1.145-0.774-2.332-0.774-3.56c0-2.276,0.812-4.073,2.437-5.391
		c1.625-1.317,3.808-1.977,6.548-1.977c2.65,0,4.731,0.64,6.244,1.921c1.513,1.279,2.269,3.006,2.269,5.177
		c0,1.707-0.506,3.257-1.516,4.649c-1.012,1.393-2.699,2.785-5.065,4.178l7.771,7.502c1.213-1.603,2.224-3.953,3.032-7.053h5.436
		c-1.048,4.253-2.726,7.719-5.031,10.399l6.761,6.536h-6.806l-3.347-3.257c-1.527,1.228-3.155,2.152-4.886,2.774
		c-1.729,0.621-3.642,0.932-5.738,0.932c-3.444,0-6.146-0.816-8.108-2.448S560.437,531.542,560.437,528.712z M571.757,533.316
		c2.74,0,5.084-0.801,7.03-2.403l-8.603-8.468c-1.587,1.019-2.681,1.973-3.279,2.863c-0.599,0.892-0.898,1.906-0.898,3.044
		c0,1.468,0.521,2.661,1.561,3.583C568.608,532.855,570.005,533.316,571.757,533.316z M568.41,511.642
		c0,0.943,0.251,1.834,0.753,2.673c0.501,0.839,1.201,1.729,2.1,2.673c1.692-0.958,2.879-1.853,3.561-2.685
		c0.681-0.83,1.021-1.763,1.021-2.796c0-0.974-0.326-1.752-0.977-2.336c-0.652-0.584-1.517-0.876-2.595-0.876
		c-1.183,0-2.122,0.303-2.819,0.91C568.759,509.811,568.41,510.623,568.41,511.642z"/>
	<path fill="#4B5666" d="M293.96,592.604v-32.838h5.368V588h13.903v4.604H293.96z"/>
	<path fill="#4B5666" d="M329.179,593.054c-3.863,0-6.885-1.127-9.063-3.381c-2.179-2.253-3.268-5.356-3.268-9.31
		c0-4.058,1.011-7.247,3.032-9.568s4.799-3.481,8.333-3.481c3.279,0,5.87,0.996,7.771,2.987s2.853,4.731,2.853,8.221v2.853h-16.554
		c0.075,2.411,0.727,4.264,1.954,5.559c1.228,1.296,2.957,1.943,5.188,1.943c1.468,0,2.834-0.139,4.1-0.416
		c1.265-0.276,2.624-0.737,4.076-1.381v4.29c-1.288,0.614-2.591,1.048-3.908,1.303S330.871,593.054,329.179,593.054z
		 M328.213,571.312c-1.677,0-3.021,0.531-4.031,1.595c-1.012,1.063-1.614,2.613-1.809,4.649h11.275
		c-0.03-2.052-0.524-3.605-1.482-4.66C331.208,571.839,329.89,571.312,328.213,571.312z"/>
	<path fill="#4B5666" d="M360.377,592.604l-1.056-3.459h-0.18c-1.198,1.513-2.403,2.542-3.616,3.088
		c-1.213,0.547-2.771,0.82-4.672,0.82c-2.44,0-4.346-0.659-5.717-1.977c-1.369-1.317-2.055-3.182-2.055-5.593
		c0-2.561,0.951-4.492,2.853-5.795s4.799-2.014,8.692-2.134l4.29-0.135v-1.325c0-1.587-0.37-2.774-1.112-3.56
		c-0.74-0.787-1.89-1.18-3.447-1.18c-1.272,0-2.493,0.188-3.661,0.562s-2.291,0.816-3.369,1.325l-1.707-3.773
		c1.348-0.704,2.822-1.239,4.425-1.605c1.603-0.367,3.114-0.551,4.537-0.551c3.159,0,5.544,0.688,7.154,2.066
		c1.609,1.378,2.414,3.541,2.414,6.491v16.733H360.377z M352.516,589.011c1.917,0,3.455-0.535,4.615-1.605
		c1.161-1.071,1.741-2.572,1.741-4.504v-2.156l-3.189,0.135c-2.485,0.09-4.294,0.506-5.425,1.246
		c-1.13,0.742-1.695,1.876-1.695,3.403c0,1.108,0.329,1.966,0.988,2.571C350.21,588.708,351.198,589.011,352.516,589.011z"/>
	<path fill="#4B5666" d="M384.118,567.313c1.063,0,1.939,0.075,2.628,0.225l-0.517,4.919c-0.749-0.18-1.527-0.27-2.336-0.27
		c-2.111,0-3.822,0.688-5.132,2.066c-1.311,1.378-1.966,3.167-1.966,5.368v12.982h-5.278v-24.842h4.133l0.696,4.38h0.27
		c0.823-1.482,1.897-2.658,3.224-3.526C381.164,567.748,382.591,567.313,384.118,567.313z"/>
	<path fill="#4B5666" d="M413.205,592.604h-5.301v-15.273c0-1.917-0.386-3.347-1.157-4.29c-0.771-0.943-1.995-1.415-3.672-1.415
		c-2.231,0-3.863,0.659-4.896,1.977s-1.55,3.526-1.55,6.626v12.376h-5.278v-24.842h4.133l0.741,3.257h0.27
		c0.749-1.183,1.812-2.097,3.189-2.74s2.905-0.966,4.582-0.966c5.96,0,8.939,3.032,8.939,9.097V592.604z"/>
	<path fill="#4B5666" d="M438.429,579.487v13.117h-5.368v-32.838h9.276c4.237,0,7.375,0.794,9.411,2.381s3.055,3.983,3.055,7.188
		c0,4.088-2.126,7-6.379,8.737l9.276,14.532h-6.109l-7.861-13.117H438.429z M438.429,575.04h3.729c2.501,0,4.312-0.464,5.436-1.393
		s1.685-2.306,1.685-4.133c0-1.856-0.606-3.189-1.819-3.998s-3.04-1.213-5.48-1.213h-3.549V575.04z"/>
	<path fill="#4B5666" d="M477.443,592.604l-1.056-3.459h-0.18c-1.198,1.513-2.403,2.542-3.616,3.088
		c-1.213,0.547-2.771,0.82-4.672,0.82c-2.44,0-4.346-0.659-5.717-1.977c-1.369-1.317-2.055-3.182-2.055-5.593
		c0-2.561,0.951-4.492,2.853-5.795s4.799-2.014,8.692-2.134l4.29-0.135v-1.325c0-1.587-0.37-2.774-1.112-3.56
		c-0.74-0.787-1.89-1.18-3.447-1.18c-1.272,0-2.493,0.188-3.661,0.562s-2.291,0.816-3.369,1.325l-1.707-3.773
		c1.348-0.704,2.822-1.239,4.425-1.605c1.603-0.367,3.114-0.551,4.537-0.551c3.159,0,5.544,0.688,7.154,2.066
		c1.609,1.378,2.414,3.541,2.414,6.491v16.733H477.443z M469.582,589.011c1.917,0,3.455-0.535,4.615-1.605
		c1.161-1.071,1.741-2.572,1.741-4.504v-2.156l-3.189,0.135c-2.485,0.09-4.294,0.506-5.425,1.246
		c-1.13,0.742-1.695,1.876-1.695,3.403c0,1.108,0.329,1.966,0.988,2.571C467.276,588.708,468.265,589.011,469.582,589.011z"/>
	<path fill="#4B5666" d="M501.185,593.054c-3.145,0-5.585-1.131-7.322-3.392h-0.314c0.21,2.097,0.314,3.369,0.314,3.818v10.175
		h-5.278v-35.893h4.268c0.12,0.464,0.367,1.572,0.741,3.324h0.27c1.647-2.516,4.118-3.773,7.412-3.773
		c3.1,0,5.515,1.123,7.243,3.369c1.73,2.246,2.595,5.398,2.595,9.456s-0.88,7.225-2.64,9.501
		C506.714,591.916,504.284,593.054,501.185,593.054z M499.904,571.626c-2.097,0-3.627,0.614-4.594,1.842
		c-0.965,1.228-1.448,3.189-1.448,5.885v0.786c0,3.024,0.479,5.215,1.438,6.569c0.958,1.355,2.523,2.033,4.694,2.033
		c1.827,0,3.234-0.749,4.223-2.246s1.482-3.631,1.482-6.401c0-2.785-0.49-4.893-1.471-6.323
		C503.247,572.341,501.806,571.626,499.904,571.626z"/>
	<path fill="#4B5666" d="M516.93,561.182c0-0.943,0.258-1.67,0.775-2.179c0.516-0.509,1.254-0.764,2.212-0.764
		c0.929,0,1.651,0.255,2.167,0.764c0.518,0.509,0.775,1.235,0.775,2.179c0,0.898-0.258,1.606-0.775,2.122
		c-0.516,0.518-1.238,0.775-2.167,0.775c-0.958,0-1.696-0.258-2.212-0.775C517.188,562.788,516.93,562.08,516.93,561.182z
		 M522.522,592.604h-5.278v-24.842h5.278V592.604z"/>
	<path fill="#4B5666" d="M538.447,593.054c-3.1,0-5.518-1.123-7.255-3.369s-2.605-5.398-2.605-9.456c0-4.073,0.88-7.243,2.639-9.513
		c1.76-2.268,4.197-3.402,7.312-3.402c3.265,0,5.75,1.205,7.457,3.616h0.27c-0.255-1.782-0.382-3.189-0.382-4.223v-9.052h5.301
		v34.949h-4.133l-0.921-3.257h-0.247C544.189,591.818,541.712,593.054,538.447,593.054z M539.862,588.786
		c2.171,0,3.751-0.61,4.739-1.83c0.988-1.221,1.497-3.201,1.527-5.941v-0.741c0-3.13-0.509-5.354-1.527-6.671
		s-2.613-1.977-4.784-1.977c-1.856,0-3.287,0.752-4.29,2.258c-1.003,1.504-1.505,3.649-1.505,6.435c0,2.755,0.486,4.855,1.46,6.3
		C536.456,588.063,537.916,588.786,539.862,588.786z"/>
	<path fill="#4B5666" d="M564.008,592.604h-5.278v-34.949h5.278V592.604z"/>
	<path fill="#4B5666" d="M567.781,567.763h5.75l5.054,14.083c0.764,2.007,1.272,3.894,1.527,5.66h0.18
		c0.135-0.823,0.382-1.823,0.741-2.999c0.359-1.175,2.261-6.757,5.705-16.744h5.705l-10.624,28.144
		c-1.932,5.166-5.151,7.749-9.658,7.749c-1.168,0-2.306-0.127-3.414-0.382v-4.178c0.794,0.18,1.699,0.27,2.718,0.27
		c2.546,0,4.335-1.475,5.368-4.425l0.921-2.336L567.781,567.763z"/>
</g>
<g>
	<path fill="#4B5666" d="M1041.699,521.255c0,5.421-1.504,9.564-4.514,12.433c-3.01,2.867-7.346,4.301-13.006,4.301h-9.186V505.15
		h10.152c5.225,0,9.291,1.407,12.195,4.223C1040.248,512.188,1041.699,516.148,1041.699,521.255z M1036.039,521.435
		c0-7.861-3.676-11.792-11.027-11.792h-4.65v23.831h3.818C1032.086,533.474,1036.039,529.461,1036.039,521.435z"/>
	<path fill="#4B5666" d="M1059.039,538.438c-3.863,0-6.883-1.127-9.062-3.381c-2.178-2.253-3.268-5.356-3.268-9.31
		c0-4.058,1.01-7.247,3.031-9.568s4.799-3.481,8.334-3.481c3.279,0,5.869,0.996,7.771,2.987c1.9,1.991,2.852,4.731,2.852,8.221
		v2.853h-16.553c0.074,2.411,0.727,4.264,1.953,5.559c1.229,1.296,2.957,1.943,5.189,1.943c1.467,0,2.834-0.139,4.1-0.416
		c1.264-0.276,2.623-0.737,4.076-1.381v4.29c-1.289,0.614-2.592,1.048-3.908,1.303
		C1062.236,538.311,1060.732,538.438,1059.039,538.438z M1058.074,516.695c-1.678,0-3.021,0.531-4.031,1.595
		c-1.012,1.063-1.615,2.613-1.809,4.649h11.275c-0.031-2.052-0.525-3.605-1.482-4.66
		C1061.068,517.223,1059.75,516.695,1058.074,516.695z"/>
	<path fill="#4B5666" d="M1079.973,537.988h-5.277v-34.949h5.277V537.988z"/>
	<path fill="#4B5666" d="M1087.205,506.565c0-0.943,0.258-1.67,0.775-2.179c0.516-0.509,1.254-0.764,2.211-0.764
		c0.93,0,1.652,0.255,2.168,0.764c0.518,0.509,0.775,1.235,0.775,2.179c0,0.898-0.258,1.606-0.775,2.122
		c-0.516,0.518-1.238,0.775-2.168,0.775c-0.957,0-1.695-0.258-2.211-0.775C1087.463,508.172,1087.205,507.464,1087.205,506.565z
		 M1092.797,537.988h-5.277v-24.842h5.277V537.988z"/>
	<path fill="#4B5666" d="M1106.006,537.988l-9.434-24.842h5.57l5.053,14.442c0.869,2.426,1.393,4.388,1.572,5.885h0.18
		c0.135-1.078,0.66-3.04,1.572-5.885l5.055-14.442h5.615l-9.479,24.842H1106.006z"/>
	<path fill="#4B5666" d="M1135.811,538.438c-3.863,0-6.883-1.127-9.062-3.381c-2.178-2.253-3.268-5.356-3.268-9.31
		c0-4.058,1.01-7.247,3.031-9.568s4.799-3.481,8.334-3.481c3.279,0,5.869,0.996,7.771,2.987c1.9,1.991,2.852,4.731,2.852,8.221
		v2.853h-16.553c0.074,2.411,0.727,4.264,1.953,5.559c1.229,1.296,2.957,1.943,5.189,1.943c1.467,0,2.834-0.139,4.1-0.416
		c1.264-0.276,2.623-0.737,4.076-1.381v4.29c-1.289,0.614-2.592,1.048-3.908,1.303
		C1139.008,538.311,1137.504,538.438,1135.811,538.438z M1134.846,516.695c-1.678,0-3.021,0.531-4.031,1.595
		c-1.012,1.063-1.615,2.613-1.809,4.649h11.275c-0.031-2.052-0.525-3.605-1.482-4.66
		C1137.84,517.223,1136.521,516.695,1134.846,516.695z"/>
	<path fill="#4B5666" d="M1164.066,512.697c1.064,0,1.939,0.075,2.629,0.225l-0.518,4.919c-0.748-0.18-1.527-0.27-2.336-0.27
		c-2.111,0-3.822,0.688-5.131,2.066c-1.311,1.378-1.967,3.167-1.967,5.368v12.982h-5.277v-24.842h4.133l0.695,4.38h0.27
		c0.824-1.482,1.898-2.658,3.225-3.526C1161.113,513.132,1162.539,512.697,1164.066,512.697z"/>
	<path fill="#4B5666" d="M1202.52,505.15h5.57l-11.5,32.838h-5.66l-11.455-32.838H1185l6.85,20.417
		c0.359,0.974,0.742,2.228,1.146,3.763c0.404,1.534,0.666,2.676,0.785,3.425c0.195-1.138,0.494-2.456,0.898-3.953
		s0.734-2.605,0.988-3.324L1202.52,505.15z"/>
	<path fill="#4B5666" d="M1227.406,537.988l-1.057-3.459h-0.18c-1.197,1.513-2.402,2.542-3.615,3.088
		c-1.213,0.547-2.771,0.82-4.672,0.82c-2.441,0-4.346-0.659-5.717-1.977c-1.369-1.317-2.055-3.182-2.055-5.593
		c0-2.561,0.951-4.492,2.852-5.795c1.902-1.303,4.799-2.014,8.693-2.134l4.289-0.135v-1.325c0-1.587-0.369-2.774-1.111-3.56
		c-0.74-0.787-1.891-1.18-3.447-1.18c-1.273,0-2.494,0.188-3.662,0.562s-2.291,0.816-3.369,1.325l-1.707-3.773
		c1.348-0.704,2.822-1.239,4.426-1.605c1.602-0.367,3.113-0.551,4.537-0.551c3.158,0,5.543,0.688,7.154,2.066
		c1.609,1.378,2.414,3.541,2.414,6.491v16.733H1227.406z M1219.545,534.395c1.916,0,3.455-0.535,4.615-1.605
		c1.16-1.071,1.74-2.572,1.74-4.504v-2.156l-3.189,0.135c-2.484,0.09-4.293,0.506-5.424,1.246c-1.131,0.742-1.695,1.876-1.695,3.403
		c0,1.108,0.328,1.966,0.988,2.571C1217.238,534.092,1218.227,534.395,1219.545,534.395z"/>
	<path fill="#4B5666" d="M1243.824,537.988h-5.277v-34.949h5.277V537.988z"/>
	<path fill="#4B5666" d="M1268.893,537.988l-0.742-3.257h-0.27c-0.732,1.153-1.777,2.059-3.133,2.718s-2.9,0.988-4.639,0.988
		c-3.01,0-5.256-0.749-6.738-2.246s-2.223-3.766-2.223-6.806v-16.239h5.322v15.318c0,1.901,0.391,3.328,1.168,4.279
		c0.779,0.95,2,1.426,3.662,1.426c2.215,0,3.844-0.662,4.885-1.988c1.041-1.324,1.561-3.545,1.561-6.659v-12.376h5.301v24.842
		H1268.893z"/>
	<path fill="#4B5666" d="M1291.42,538.438c-3.863,0-6.883-1.127-9.062-3.381c-2.178-2.253-3.268-5.356-3.268-9.31
		c0-4.058,1.01-7.247,3.031-9.568s4.799-3.481,8.334-3.481c3.279,0,5.869,0.996,7.771,2.987c1.9,1.991,2.852,4.731,2.852,8.221
		v2.853h-16.553c0.074,2.411,0.727,4.264,1.953,5.559c1.229,1.296,2.957,1.943,5.189,1.943c1.467,0,2.834-0.139,4.1-0.416
		c1.264-0.276,2.623-0.737,4.076-1.381v4.29c-1.289,0.614-2.592,1.048-3.908,1.303
		C1294.617,538.311,1293.113,538.438,1291.42,538.438z M1290.455,516.695c-1.678,0-3.021,0.531-4.031,1.595
		c-1.012,1.063-1.615,2.613-1.809,4.649h11.275c-0.031-2.052-0.525-3.605-1.482-4.66
		C1293.449,517.223,1292.131,516.695,1290.455,516.695z"/>
	<path fill="#4B5666" d="M1028.818,564.483c-3.086,0-5.512,1.093-7.277,3.279c-1.768,2.187-2.65,5.203-2.65,9.052
		c0,4.028,0.85,7.075,2.549,9.142s4.158,3.1,7.379,3.1c1.393,0,2.74-0.139,4.043-0.416c1.303-0.276,2.658-0.632,4.064-1.066v4.604
		c-2.574,0.974-5.494,1.46-8.76,1.46c-4.807,0-8.498-1.456-11.072-4.369c-2.576-2.912-3.863-7.078-3.863-12.499
		c0-3.414,0.625-6.401,1.875-8.962s3.059-4.522,5.424-5.885c2.367-1.362,5.145-2.044,8.334-2.044c3.354,0,6.453,0.704,9.299,2.111
		l-1.932,4.47c-1.109-0.524-2.279-0.984-3.516-1.381C1031.48,564.682,1030.18,564.483,1028.818,564.483z"/>
	<path fill="#4B5666" d="M1065.475,580.723c0,4.058-1.041,7.225-3.123,9.501c-2.08,2.276-4.979,3.414-8.691,3.414
		c-2.322,0-4.373-0.524-6.154-1.572c-1.783-1.048-3.152-2.553-4.111-4.515c-0.957-1.962-1.438-4.237-1.438-6.828
		c0-4.028,1.033-7.173,3.1-9.434s4.979-3.392,8.738-3.392c3.594,0,6.438,1.156,8.535,3.471
		C1064.426,573.681,1065.475,576.8,1065.475,580.723z M1047.393,580.723c0,5.735,2.119,8.603,6.357,8.603
		c4.191,0,6.289-2.867,6.289-8.603c0-5.675-2.111-8.513-6.334-8.513c-2.217,0-3.822,0.733-4.818,2.201
		S1047.393,577.982,1047.393,580.723z"/>
	<path fill="#4B5666" d="M1093.393,593.188h-5.301v-15.273c0-1.917-0.385-3.347-1.156-4.29s-1.996-1.415-3.672-1.415
		c-2.232,0-3.863,0.659-4.896,1.977s-1.551,3.526-1.551,6.626v12.376h-5.277v-24.842h4.133l0.74,3.257h0.27
		c0.75-1.183,1.812-2.097,3.189-2.74c1.379-0.644,2.906-0.966,4.582-0.966c5.961,0,8.939,3.032,8.939,9.097V593.188z"/>
	<path fill="#4B5666" d="M1109.992,589.37c1.287,0,2.574-0.202,3.863-0.606v3.976c-0.584,0.255-1.336,0.468-2.258,0.641
		c-0.92,0.172-1.875,0.258-2.863,0.258c-5.002,0-7.502-2.636-7.502-7.906v-13.387h-3.393v-2.336l3.639-1.932l1.797-5.256h3.258
		v5.525h7.074v3.998h-7.074v13.297c0,1.272,0.318,2.213,0.955,2.818C1108.123,589.067,1108.959,589.37,1109.992,589.37z"/>
	<path fill="#4B5666" d="M1118.504,561.766c0-0.943,0.258-1.67,0.775-2.179c0.516-0.509,1.254-0.764,2.213-0.764
		c0.928,0,1.65,0.255,2.166,0.764c0.518,0.509,0.775,1.235,0.775,2.179c0,0.898-0.258,1.606-0.775,2.122
		c-0.516,0.518-1.238,0.775-2.166,0.775c-0.959,0-1.697-0.258-2.213-0.775C1118.762,563.372,1118.504,562.664,1118.504,561.766z
		 M1124.098,593.188h-5.279v-24.842h5.279V593.188z"/>
	<path fill="#4B5666" d="M1153.498,593.188h-5.301v-15.273c0-1.917-0.385-3.347-1.156-4.29s-1.996-1.415-3.672-1.415
		c-2.232,0-3.863,0.659-4.896,1.977s-1.551,3.526-1.551,6.626v12.376h-5.277v-24.842h4.133l0.74,3.257h0.27
		c0.75-1.183,1.812-2.097,3.189-2.74c1.379-0.644,2.906-0.966,4.582-0.966c5.961,0,8.939,3.032,8.939,9.097V593.188z"/>
	<path fill="#4B5666" d="M1178.363,593.188l-0.742-3.257h-0.27c-0.732,1.153-1.777,2.059-3.133,2.718s-2.9,0.988-4.639,0.988
		c-3.01,0-5.256-0.749-6.738-2.246s-2.223-3.766-2.223-6.806v-16.239h5.322v15.318c0,1.901,0.391,3.328,1.168,4.279
		c0.779,0.95,2,1.426,3.662,1.426c2.215,0,3.844-0.662,4.885-1.988c1.041-1.324,1.561-3.545,1.561-6.659v-12.376h5.301v24.842
		H1178.363z"/>
	<path fill="#4B5666" d="M1212.076,580.723c0,4.058-1.041,7.225-3.121,9.501c-2.082,2.276-4.979,3.414-8.693,3.414
		c-2.32,0-4.371-0.524-6.154-1.572c-1.781-1.048-3.152-2.553-4.109-4.515c-0.959-1.962-1.438-4.237-1.438-6.828
		c0-4.028,1.033-7.173,3.1-9.434s4.979-3.392,8.736-3.392c3.594,0,6.439,1.156,8.535,3.471
		C1211.029,573.681,1212.076,576.8,1212.076,580.723z M1193.996,580.723c0,5.735,2.119,8.603,6.355,8.603
		c4.193,0,6.289-2.867,6.289-8.603c0-5.675-2.111-8.513-6.334-8.513c-2.215,0-3.822,0.733-4.816,2.201
		C1194.494,575.879,1193.996,577.982,1193.996,580.723z"/>
	<path fill="#4B5666" d="M1235.66,593.188l-0.74-3.257h-0.27c-0.734,1.153-1.779,2.059-3.135,2.718
		c-1.354,0.659-2.9,0.988-4.637,0.988c-3.01,0-5.256-0.749-6.738-2.246s-2.225-3.766-2.225-6.806v-16.239h5.324v15.318
		c0,1.901,0.389,3.328,1.168,4.279c0.777,0.95,1.998,1.426,3.66,1.426c2.217,0,3.846-0.662,4.885-1.988
		c1.041-1.324,1.562-3.545,1.562-6.659v-12.376h5.301v24.842H1235.66z"/>
	<path fill="#4B5666" d="M1264.029,586.113c0,2.426-0.885,4.286-2.65,5.581c-1.768,1.296-4.299,1.943-7.592,1.943
		c-3.311,0-5.967-0.502-7.975-1.505v-4.56c2.92,1.348,5.639,2.021,8.154,2.021c3.248,0,4.873-0.98,4.873-2.942
		c0-0.629-0.18-1.153-0.539-1.572s-0.951-0.854-1.773-1.303c-0.824-0.449-1.969-0.958-3.438-1.527
		c-2.859-1.108-4.795-2.216-5.807-3.324c-1.01-1.108-1.516-2.546-1.516-4.312c0-2.126,0.857-3.777,2.572-4.952
		c1.715-1.176,4.047-1.764,6.996-1.764c2.92,0,5.684,0.592,8.289,1.774l-1.707,3.976c-2.682-1.108-4.934-1.662-6.762-1.662
		c-2.785,0-4.178,0.794-4.178,2.381c0,0.778,0.363,1.438,1.09,1.977s2.311,1.28,4.75,2.224c2.053,0.794,3.541,1.52,4.471,2.179
		c0.928,0.659,1.617,1.419,2.066,2.279C1263.805,583.886,1264.029,584.915,1264.029,586.113z"/>
	<path fill="#4B5666" d="M1275.012,593.188h-5.277v-34.949h5.277V593.188z"/>
	<path fill="#4B5666" d="M1278.785,568.347h5.75l5.055,14.083c0.764,2.007,1.271,3.894,1.527,5.66h0.18
		c0.135-0.823,0.381-1.823,0.74-2.999c0.359-1.175,2.262-6.757,5.705-16.744h5.705l-10.623,28.144
		c-1.932,5.166-5.152,7.749-9.658,7.749c-1.168,0-2.307-0.127-3.414-0.382v-4.178c0.793,0.18,1.699,0.27,2.717,0.27
		c2.547,0,4.336-1.475,5.369-4.425l0.92-2.336L1278.785,568.347z"/>
</g>
<g>
	<path fill="#4B5666" d="M682.006,909.43l-9.524-27.424h-0.18c0.255,4.072,0.382,7.891,0.382,11.455v15.969h-4.874v-32.838h7.569
		l9.119,26.123h0.135l9.389-26.123h7.592v32.838h-5.166v-16.238c0-1.633,0.041-3.76,0.123-6.379
		c0.084-2.621,0.154-4.209,0.215-4.762h-0.18l-9.861,27.379H682.006z"/>
	<path fill="#4B5666" d="M725.242,909.43l-1.057-3.459h-0.18c-1.197,1.514-2.402,2.543-3.615,3.088
		c-1.213,0.547-2.771,0.82-4.672,0.82c-2.441,0-4.346-0.658-5.717-1.977c-1.369-1.316-2.055-3.182-2.055-5.592
		c0-2.561,0.951-4.492,2.852-5.795c1.902-1.303,4.799-2.014,8.693-2.135l4.289-0.135v-1.324c0-1.588-0.369-2.775-1.111-3.561
		c-0.74-0.787-1.891-1.18-3.447-1.18c-1.273,0-2.494,0.188-3.662,0.562c-1.168,0.373-2.291,0.816-3.369,1.324l-1.707-3.773
		c1.348-0.703,2.822-1.238,4.426-1.605c1.602-0.367,3.113-0.551,4.537-0.551c3.158,0,5.543,0.689,7.154,2.066
		c1.609,1.379,2.414,3.541,2.414,6.492v16.732H725.242z M717.381,905.836c1.916,0,3.455-0.535,4.615-1.605s1.74-2.572,1.74-4.504
		v-2.156l-3.189,0.135c-2.484,0.09-4.293,0.506-5.424,1.246c-1.131,0.742-1.695,1.877-1.695,3.404c0,1.107,0.328,1.965,0.988,2.57
		C715.074,905.533,716.062,905.836,717.381,905.836z"/>
	<path fill="#4B5666" d="M741.48,896.312l2.988-3.729l7.502-7.996h6.086l-9.994,10.67l10.623,14.172h-6.199l-7.973-10.893
		l-2.898,2.381v8.512h-5.232V874.48h5.232v17.049l-0.27,4.783H741.48z"/>
	<path fill="#4B5666" d="M773.533,909.879c-3.863,0-6.883-1.127-9.062-3.381c-2.178-2.252-3.268-5.355-3.268-9.309
		c0-4.059,1.01-7.248,3.031-9.568c2.021-2.322,4.799-3.482,8.334-3.482c3.279,0,5.869,0.996,7.771,2.988
		c1.9,1.99,2.852,4.73,2.852,8.221v2.852h-16.553c0.074,2.412,0.727,4.264,1.953,5.559c1.229,1.297,2.957,1.943,5.189,1.943
		c1.467,0,2.834-0.139,4.1-0.416c1.264-0.275,2.623-0.736,4.076-1.381v4.291c-1.289,0.613-2.592,1.047-3.908,1.303
		C776.73,909.752,775.227,909.879,773.533,909.879z M772.568,888.137c-1.678,0-3.021,0.531-4.031,1.596
		c-1.012,1.062-1.615,2.613-1.809,4.648h11.275c-0.031-2.051-0.525-3.605-1.482-4.66
		C775.562,888.664,774.244,888.137,772.568,888.137z"/>
	<path fill="#4B5666" d="M820.635,900.514c0,2.92-1.057,5.211-3.168,6.873s-5.023,2.492-8.736,2.492
		c-3.715,0-6.754-0.576-9.119-1.729v-5.076c1.496,0.703,3.088,1.258,4.773,1.662c1.684,0.404,3.252,0.605,4.705,0.605
		c2.125,0,3.695-0.404,4.705-1.213c1.012-0.809,1.516-1.895,1.516-3.256c0-1.229-0.463-2.27-1.393-3.123
		c-0.928-0.854-2.844-1.863-5.75-3.031c-2.994-1.213-5.105-2.598-6.334-4.156c-1.227-1.557-1.842-3.428-1.842-5.615
		c0-2.74,0.975-4.896,2.92-6.469c1.947-1.572,4.561-2.357,7.84-2.357c3.145,0,6.273,0.688,9.389,2.066l-1.707,4.379
		c-2.92-1.227-5.525-1.842-7.816-1.842c-1.738,0-3.055,0.379-3.953,1.135s-1.348,1.756-1.348,2.998c0,0.854,0.18,1.584,0.539,2.189
		c0.359,0.607,0.951,1.18,1.773,1.719c0.824,0.539,2.307,1.25,4.447,2.135c2.412,1.002,4.178,1.939,5.301,2.807
		c1.123,0.869,1.947,1.85,2.471,2.943C820.373,897.742,820.635,899.031,820.635,900.514z"/>
	<path fill="#4B5666" d="M841.973,909.43l-1.057-3.459h-0.18c-1.197,1.514-2.402,2.543-3.615,3.088
		c-1.213,0.547-2.771,0.82-4.672,0.82c-2.441,0-4.346-0.658-5.717-1.977c-1.369-1.316-2.055-3.182-2.055-5.592
		c0-2.561,0.951-4.492,2.852-5.795c1.902-1.303,4.799-2.014,8.693-2.135l4.289-0.135v-1.324c0-1.588-0.369-2.775-1.111-3.561
		c-0.74-0.787-1.891-1.18-3.447-1.18c-1.273,0-2.494,0.188-3.662,0.562c-1.168,0.373-2.291,0.816-3.369,1.324l-1.707-3.773
		c1.348-0.703,2.822-1.238,4.426-1.605c1.602-0.367,3.113-0.551,4.537-0.551c3.158,0,5.543,0.689,7.154,2.066
		c1.609,1.379,2.414,3.541,2.414,6.492v16.732H841.973z M834.111,905.836c1.916,0,3.455-0.535,4.615-1.605s1.74-2.572,1.74-4.504
		v-2.156l-3.189,0.135c-2.484,0.09-4.293,0.506-5.424,1.246c-1.131,0.742-1.695,1.877-1.695,3.404c0,1.107,0.328,1.965,0.988,2.57
		C831.805,905.533,832.793,905.836,834.111,905.836z"/>
	<path fill="#4B5666" d="M865.578,888.586h-6.064v20.844h-5.301v-20.844h-4.088v-2.471l4.088-1.617v-1.617
		c0-2.934,0.689-5.109,2.066-6.525c1.379-1.414,3.482-2.121,6.312-2.121c1.855,0,3.684,0.307,5.48,0.92l-1.393,3.998
		c-1.303-0.418-2.547-0.629-3.729-0.629c-1.199,0-2.07,0.371-2.617,1.111c-0.547,0.742-0.82,1.854-0.82,3.336v1.617h6.064V888.586z"
		/>
	<path fill="#4B5666" d="M880.648,909.879c-3.863,0-6.883-1.127-9.062-3.381c-2.178-2.252-3.268-5.355-3.268-9.309
		c0-4.059,1.01-7.248,3.031-9.568c2.021-2.322,4.799-3.482,8.334-3.482c3.279,0,5.869,0.996,7.771,2.988
		c1.9,1.99,2.852,4.73,2.852,8.221v2.852h-16.553c0.074,2.412,0.727,4.264,1.953,5.559c1.229,1.297,2.957,1.943,5.189,1.943
		c1.467,0,2.834-0.139,4.1-0.416c1.264-0.275,2.623-0.736,4.076-1.381v4.291c-1.289,0.613-2.592,1.047-3.908,1.303
		C883.846,909.752,882.342,909.879,880.648,909.879z M879.684,888.137c-1.678,0-3.021,0.531-4.031,1.596
		c-1.012,1.062-1.615,2.613-1.809,4.648h11.275c-0.031-2.051-0.525-3.605-1.482-4.66
		C882.678,888.664,881.359,888.137,879.684,888.137z"/>
	<path fill="#4B5666" d="M905.559,905.611c1.287,0,2.574-0.201,3.863-0.605v3.975c-0.584,0.256-1.336,0.469-2.258,0.641
		c-0.92,0.172-1.875,0.258-2.863,0.258c-5.002,0-7.502-2.635-7.502-7.906v-13.387h-3.393v-2.336l3.639-1.932l1.797-5.256h3.258
		v5.525h7.074v3.998H902.1v13.297c0,1.273,0.318,2.213,0.955,2.818C903.689,905.309,904.525,905.611,905.559,905.611z"/>
	<path fill="#4B5666" d="M910.613,884.588h5.75l5.053,14.084c0.764,2.006,1.273,3.893,1.527,5.66h0.18
		c0.135-0.824,0.383-1.824,0.742-3c0.359-1.174,2.26-6.756,5.705-16.744h5.705l-10.625,28.145c-1.932,5.166-5.15,7.748-9.658,7.748
		c-1.168,0-2.305-0.127-3.414-0.381v-4.178c0.795,0.18,1.699,0.27,2.719,0.27c2.545,0,4.334-1.475,5.367-4.426l0.922-2.336
		L910.613,884.588z"/>
	<path fill="#4B5666" d="M663.643,964.631l-1.055-3.459h-0.18c-1.199,1.512-2.404,2.541-3.617,3.088s-2.77,0.82-4.672,0.82
		c-2.44,0-4.346-0.66-5.716-1.977c-1.37-1.318-2.056-3.182-2.056-5.594c0-2.561,0.951-4.492,2.854-5.795
		c1.9-1.303,4.799-2.014,8.691-2.133l4.291-0.135v-1.326c0-1.586-0.371-2.773-1.112-3.559c-0.741-0.787-1.891-1.18-3.448-1.18
		c-1.272,0-2.492,0.188-3.66,0.561c-1.168,0.375-2.291,0.816-3.369,1.326l-1.707-3.773c1.348-0.705,2.822-1.24,4.424-1.605
		c1.603-0.367,3.115-0.551,4.537-0.551c3.16,0,5.545,0.688,7.154,2.066c1.609,1.377,2.414,3.541,2.414,6.49v16.734H663.643z
		 M655.781,961.037c1.917,0,3.455-0.535,4.616-1.605c1.16-1.072,1.741-2.572,1.741-4.504v-2.156l-3.189,0.135
		c-2.486,0.09-4.295,0.506-5.425,1.246c-1.131,0.742-1.696,1.875-1.696,3.402c0,1.109,0.33,1.967,0.988,2.572
		C653.476,960.734,654.464,961.037,655.781,961.037z"/>
	<path fill="#4B5666" d="M709.037,941.721c0,3.428-1.123,6.057-3.369,7.883c-2.246,1.828-5.443,2.74-9.592,2.74h-3.414v12.287
		h-5.367v-32.838h9.455c4.104,0,7.176,0.838,9.221,2.516C708.014,935.984,709.037,938.455,709.037,941.721z M692.662,947.83h2.854
		c2.754,0,4.775-0.48,6.064-1.438c1.287-0.959,1.932-2.457,1.932-4.492c0-1.887-0.576-3.295-1.73-4.223
		c-1.152-0.93-2.949-1.393-5.391-1.393h-3.729V947.83z"/>
	<path fill="#4B5666" d="M727.635,939.34c1.062,0,1.939,0.074,2.627,0.225l-0.516,4.918c-0.75-0.18-1.527-0.27-2.336-0.27
		c-2.111,0-3.822,0.689-5.133,2.066c-1.311,1.379-1.965,3.168-1.965,5.369v12.982h-5.279v-24.842h4.133l0.697,4.379h0.27
		c0.822-1.482,1.896-2.658,3.223-3.525C724.68,939.773,726.107,939.34,727.635,939.34z"/>
	<path fill="#4B5666" d="M745.715,965.08c-3.863,0-6.883-1.127-9.062-3.381c-2.178-2.254-3.268-5.357-3.268-9.311
		c0-4.057,1.01-7.246,3.031-9.568c2.021-2.32,4.799-3.48,8.334-3.48c3.279,0,5.869,0.996,7.771,2.986
		c1.9,1.992,2.852,4.732,2.852,8.221v2.854H738.82c0.074,2.41,0.727,4.264,1.953,5.559c1.229,1.295,2.957,1.943,5.189,1.943
		c1.467,0,2.834-0.139,4.1-0.416c1.264-0.277,2.623-0.738,4.076-1.381v4.289c-1.289,0.615-2.592,1.049-3.908,1.303
		C748.912,964.953,747.408,965.08,745.715,965.08z M744.75,943.338c-1.678,0-3.021,0.531-4.031,1.594
		c-1.012,1.064-1.615,2.613-1.809,4.65h11.275c-0.031-2.053-0.525-3.605-1.482-4.66C747.744,943.865,746.426,943.338,744.75,943.338
		z"/>
	<path fill="#4B5666" d="M773.971,939.34c1.064,0,1.939,0.074,2.629,0.225l-0.518,4.918c-0.748-0.18-1.527-0.27-2.336-0.27
		c-2.111,0-3.822,0.689-5.131,2.066c-1.311,1.379-1.967,3.168-1.967,5.369v12.982h-5.277v-24.842h4.133l0.695,4.379h0.27
		c0.824-1.482,1.898-2.658,3.225-3.525C771.018,939.773,772.443,939.34,773.971,939.34z"/>
	<path fill="#4B5666" d="M792.053,965.08c-3.863,0-6.885-1.127-9.064-3.381c-2.178-2.254-3.268-5.357-3.268-9.311
		c0-4.057,1.012-7.246,3.033-9.568c2.021-2.32,4.799-3.48,8.332-3.48c3.279,0,5.871,0.996,7.771,2.986
		c1.902,1.992,2.854,4.732,2.854,8.221v2.854h-16.555c0.076,2.41,0.727,4.264,1.955,5.559c1.227,1.295,2.957,1.943,5.188,1.943
		c1.469,0,2.834-0.139,4.1-0.416s2.625-0.738,4.076-1.381v4.289c-1.287,0.615-2.59,1.049-3.908,1.303
		C795.25,964.953,793.744,965.08,792.053,965.08z M791.086,943.338c-1.676,0-3.021,0.531-4.031,1.594
		c-1.012,1.064-1.613,2.613-1.809,4.65h11.275c-0.029-2.053-0.523-3.605-1.482-4.66
		C794.082,943.865,792.764,943.338,791.086,943.338z"/>
	<path fill="#4B5666" d="M816.041,965.08c-3.07,0-5.473-1.127-7.211-3.381c-1.736-2.254-2.605-5.402-2.605-9.445
		s0.885-7.205,2.65-9.488c1.768-2.285,4.201-3.426,7.301-3.426c1.557,0,2.953,0.287,4.188,0.865c1.236,0.576,2.34,1.523,3.314,2.84
		h0.18l0.584-3.256h4.379v35.893h-5.301v-10.535c0-0.658,0.031-1.355,0.09-2.088c0.061-0.734,0.113-1.295,0.158-1.686h-0.293
		C821.918,963.844,819.439,965.08,816.041,965.08z M817.545,960.857c2.217,0,3.807-0.641,4.773-1.92
		c0.965-1.281,1.449-3.217,1.449-5.807v-0.832c0-3.068-0.498-5.277-1.494-6.625s-2.602-2.021-4.818-2.021
		c-1.887,0-3.324,0.748-4.312,2.246c-0.988,1.496-1.482,3.646-1.482,6.445C811.66,958.02,813.623,960.857,817.545,960.857z"/>
	<path fill="#4B5666" d="M853.887,964.631l-0.74-3.258h-0.27c-0.734,1.154-1.779,2.059-3.135,2.719
		c-1.354,0.658-2.9,0.988-4.637,0.988c-3.01,0-5.256-0.75-6.738-2.246c-1.482-1.498-2.225-3.766-2.225-6.807v-16.238h5.324v15.318
		c0,1.9,0.389,3.328,1.168,4.279c0.777,0.949,1.998,1.426,3.66,1.426c2.217,0,3.846-0.662,4.885-1.988
		c1.041-1.324,1.562-3.545,1.562-6.66v-12.375h5.301v24.842H853.887z"/>
	<path fill="#4B5666" d="M865.252,933.207c0-0.943,0.258-1.67,0.775-2.178c0.516-0.51,1.254-0.764,2.213-0.764
		c0.928,0,1.65,0.254,2.166,0.764c0.518,0.508,0.775,1.234,0.775,2.178c0,0.898-0.258,1.607-0.775,2.123
		c-0.516,0.518-1.238,0.775-2.166,0.775c-0.959,0-1.697-0.258-2.213-0.775C865.51,934.814,865.252,934.105,865.252,933.207z
		 M870.846,964.631h-5.279v-24.842h5.279V964.631z"/>
	<path fill="#4B5666" d="M895.08,957.555c0,2.426-0.883,4.287-2.65,5.582c-1.766,1.295-4.297,1.943-7.592,1.943
		c-3.309,0-5.967-0.502-7.973-1.506v-4.559c2.92,1.348,5.637,2.021,8.152,2.021c3.25,0,4.875-0.98,4.875-2.943
		c0-0.629-0.18-1.152-0.539-1.572c-0.359-0.418-0.951-0.854-1.775-1.303c-0.822-0.449-1.969-0.957-3.436-1.527
		c-2.861-1.107-4.795-2.215-5.807-3.324c-1.01-1.107-1.516-2.545-1.516-4.312c0-2.125,0.857-3.777,2.572-4.951
		c1.713-1.176,4.045-1.764,6.996-1.764c2.92,0,5.682,0.592,8.287,1.773l-1.707,3.977c-2.68-1.109-4.934-1.662-6.76-1.662
		c-2.785,0-4.178,0.793-4.178,2.381c0,0.777,0.363,1.438,1.09,1.977c0.725,0.539,2.309,1.279,4.75,2.223
		c2.051,0.795,3.541,1.52,4.469,2.18c0.93,0.658,1.617,1.418,2.066,2.279S895.08,956.357,895.08,957.555z"/>
	<path fill="#4B5666" d="M900.471,933.207c0-0.943,0.258-1.67,0.775-2.178c0.516-0.51,1.254-0.764,2.213-0.764
		c0.928,0,1.65,0.254,2.166,0.764c0.518,0.508,0.775,1.234,0.775,2.178c0,0.898-0.258,1.607-0.775,2.123
		c-0.516,0.518-1.238,0.775-2.166,0.775c-0.959,0-1.697-0.258-2.213-0.775C900.729,934.814,900.471,934.105,900.471,933.207z
		 M906.064,964.631h-5.279v-24.842h5.279V964.631z"/>
	<path fill="#4B5666" d="M922.865,960.812c1.287,0,2.574-0.203,3.863-0.607v3.977c-0.584,0.254-1.336,0.467-2.258,0.641
		c-0.92,0.172-1.875,0.258-2.863,0.258c-5.002,0-7.502-2.637-7.502-7.906v-13.387h-3.393v-2.336l3.639-1.932l1.797-5.256h3.258
		v5.525h7.074v3.998h-7.074v13.297c0,1.271,0.318,2.213,0.955,2.818C920.996,960.51,921.832,960.812,922.865,960.812z"/>
	<path fill="#4B5666" d="M942.541,965.08c-3.863,0-6.885-1.127-9.064-3.381c-2.178-2.254-3.268-5.357-3.268-9.311
		c0-4.057,1.012-7.246,3.033-9.568c2.021-2.32,4.799-3.48,8.332-3.48c3.279,0,5.871,0.996,7.771,2.986
		c1.902,1.992,2.854,4.732,2.854,8.221v2.854h-16.555c0.076,2.41,0.727,4.264,1.955,5.559c1.227,1.295,2.957,1.943,5.188,1.943
		c1.469,0,2.834-0.139,4.1-0.416s2.625-0.738,4.076-1.381v4.289c-1.287,0.615-2.59,1.049-3.908,1.303
		C945.738,964.953,944.232,965.08,942.541,965.08z M941.574,943.338c-1.676,0-3.021,0.531-4.031,1.594
		c-1.012,1.064-1.613,2.613-1.809,4.65h11.275c-0.029-2.053-0.523-3.605-1.482-4.66C944.57,943.865,943.252,943.338,941.574,943.338
		z"/>
</g>
<g>
	<path fill="#FFFFFF" d="M701.017,492.738l-13.562-35.438h-0.219c0.255,2.808,0.383,6.144,0.383,10.008v25.43h-4.293v-39.977h7
		l12.66,32.977h0.219l12.77-32.977h6.945v39.977h-4.648V466.98c0-2.953,0.127-6.161,0.383-9.625h-0.219l-13.672,35.383H701.017z"/>
	<path fill="#FFFFFF" d="M768.583,472.695c0,6.398-1.618,11.43-4.854,15.094c-3.236,3.664-7.734,5.496-13.494,5.496
		c-5.889,0-10.432-1.8-13.631-5.4c-3.199-3.6-4.799-8.682-4.799-15.244c0-6.508,1.604-11.553,4.812-15.135
		c3.208-3.582,7.766-5.373,13.672-5.373c5.742,0,10.227,1.823,13.453,5.469C766.97,461.248,768.583,466.279,768.583,472.695z
		 M736.728,472.695c0,5.414,1.152,9.521,3.459,12.318c2.306,2.799,5.655,4.197,10.049,4.197c4.43,0,7.774-1.395,10.035-4.184
		c2.26-2.789,3.391-6.899,3.391-12.332c0-5.377-1.126-9.456-3.377-12.236c-2.252-2.779-5.583-4.17-9.994-4.17
		c-4.43,0-7.798,1.399-10.104,4.197C737.88,463.285,736.728,467.354,736.728,472.695z"/>
	<path fill="#FFFFFF" d="M809.407,472.367c0,6.6-1.791,11.645-5.373,15.135c-3.582,3.491-8.736,5.236-15.463,5.236h-11.074v-39.977
		h12.25c6.216,0,11.047,1.723,14.492,5.168S809.407,466.188,809.407,472.367z M804.485,472.531c0-5.213-1.309-9.142-3.924-11.785
		c-2.616-2.643-6.504-3.965-11.662-3.965h-6.754v31.938h5.66c5.541,0,9.707-1.362,12.496-4.088
		C803.091,481.906,804.485,477.873,804.485,472.531z"/>
	<path fill="#FFFFFF" d="M840.606,492.738h-22.285v-39.977h22.285v4.129H822.97v12.879h16.57v4.102h-16.57v14.711h17.637V492.738z"
		/>
	<path fill="#FFFFFF" d="M854.114,476.113v16.625h-4.648v-39.977h10.965c4.903,0,8.526,0.939,10.869,2.816
		c2.342,1.878,3.514,4.703,3.514,8.477c0,5.287-2.68,8.859-8.039,10.719l10.855,17.965h-5.496l-9.68-16.625H854.114z
		 M854.114,472.121h6.371c3.281,0,5.688-0.651,7.219-1.955c1.531-1.303,2.297-3.258,2.297-5.865c0-2.643-0.779-4.548-2.338-5.715
		c-1.559-1.166-4.061-1.75-7.506-1.75h-6.043V472.121z"/>
	<path fill="#FFFFFF" d="M915.31,492.738h-5.305l-21.848-33.551h-0.219c0.291,3.938,0.438,7.547,0.438,10.828v22.723h-4.293v-39.977
		h5.25l21.793,33.414h0.219c-0.037-0.492-0.119-2.073-0.246-4.744c-0.128-2.67-0.174-4.58-0.137-5.729v-22.941h4.348V492.738z"/>
	<path fill="#FFFFFF" d="M753.927,559.938l-4.977-12.715h-16.023l-4.922,12.715h-4.703l15.805-40.141h3.91l15.723,40.141H753.927z
		 M747.501,543.04l-4.648-12.387c-0.602-1.567-1.222-3.49-1.859-5.77c-0.401,1.75-0.976,3.674-1.723,5.77l-4.703,12.387H747.501z"/>
	<path fill="#FFFFFF" d="M781.817,538.993h13.59v19.441c-2.115,0.675-4.266,1.186-6.453,1.531s-4.722,0.52-7.602,0.52
		c-6.053,0-10.765-1.8-14.137-5.4c-3.373-3.6-5.059-8.645-5.059-15.135c0-4.156,0.834-7.797,2.502-10.924
		c1.668-3.126,4.069-5.514,7.205-7.164c3.135-1.649,6.809-2.475,11.02-2.475c4.266,0,8.239,0.784,11.922,2.352l-1.805,4.102
		c-3.609-1.531-7.082-2.297-10.418-2.297c-4.867,0-8.668,1.449-11.402,4.348s-4.102,6.918-4.102,12.059
		c0,5.396,1.316,9.488,3.951,12.277c2.634,2.789,6.503,4.184,11.607,4.184c2.771,0,5.478-0.318,8.121-0.957v-12.305h-8.941V538.993z
		"/>
	<path fill="#FFFFFF" d="M805.005,559.938v-39.977h4.648v39.977H805.005z"/>
	<path fill="#FFFFFF" d="M820.618,559.938v-39.977h4.648v35.766h17.637v4.211H820.618z"/>
	<path fill="#FFFFFF" d="M871.97,559.938h-22.285v-39.977h22.285v4.129h-17.637v12.879h16.57v4.102h-16.57v14.711h17.637V559.938z"
		/>
</g>
<path fill-rule="evenodd" clip-rule="evenodd" fill="#4B5666" d="M1219.084,421.111c-0.154,0-0.318-0.012-0.491-0.037l-6.543-0.916
	l-0.001,47.773c0,1.871-1.476,3.807-3.278,4.305l-48.065,13.236c-0.901,0.248-2.091,0.373-3.278,0.373
	c-1.189,0-2.377-0.125-3.279-0.373l-48.062-13.236c-1.805-0.498-3.279-2.434-3.279-4.305l0.001-47.773l-6.545,0.916
	c-0.172,0.025-0.336,0.037-0.49,0.037c-1.51,0-2.166-1.113-1.457-2.654l9.197-20.029c0.781-1.699,2.895-3.498,4.699-3.994
	l48.064-13.24c0.301-0.082,0.58-0.123,0.836-0.123c0.113,0,0.215,0.018,0.316,0.033c0.104-0.016,0.203-0.033,0.316-0.033
	c0.256,0,0.535,0.041,0.836,0.123l48.064,13.24c1.805,0.496,3.918,2.295,4.699,3.994l9.197,20.029
	C1221.25,419.998,1220.594,421.111,1219.084,421.111z M1110.098,462.482c0,1.24,1.006,2.244,2.246,2.244s2.244-1.004,2.244-2.244
	v-21.424c0-1.24-1.004-2.246-2.244-2.246s-2.246,1.006-2.246,2.246V462.482z M1109.402,398.762c-0.531,0.148-1.58,1.041-1.811,1.541
	l-7.191,15.658l44.932-6.303c0.23-0.076,0.629-0.418,0.738-0.633l6.801-22.238L1109.402,398.762z M1157.807,412.42l-0.379-1.238
	v66.35c0.785,0,1.302-0.09,1.42-0.121l46.202-12.725v-38.441l-37.157-5.213C1163.384,420.398,1159.142,416.777,1157.807,412.42z
	 M1207.264,400.303c-0.23-0.5-1.279-1.393-1.811-1.541l-43.47-11.975l6.801,22.238c0.109,0.215,0.509,0.557,0.739,0.633
	l44.931,6.303L1207.264,400.303z"/>
</svg>
