<?xml version="1.0" encoding="utf-8"?>
<!-- Generator: Adobe Illustrator 15.0.2, SVG Export Plug-In . SVG Version: 6.00 Build 0)  -->
<!DOCTYPE svg PUBLIC "-//W3C//DTD SVG 1.1//EN" "http://www.w3.org/Graphics/SVG/1.1/DTD/svg11.dtd">
<svg version="1.1" id="Layer_1" xmlns="http://www.w3.org/2000/svg" xmlns:xlink="http://www.w3.org/1999/xlink" x="0px" y="0px"
	 width="124.069px" height="124.069px" viewBox="-80.714 61.63 124.069 124.069"
	 enable-background="new -80.714 61.63 124.069 124.069" xml:space="preserve">
<path fill="#FFFFFF" d="M42.784,126.96c-1.912-5.681-8.066-8.735-13.746-6.823l-11.519,3.877l-7.807-23.195l11.219-3.775
	c5.68-1.912,8.735-8.066,6.823-13.746c-1.912-5.68-8.066-8.734-13.746-6.822L2.79,80.25l-3.779-11.227
	c-1.912-5.68-8.066-8.734-13.746-6.822l0,0c-5.68,1.912-8.734,8.066-6.823,13.746l3.779,11.228l-23.685,7.971l-3.733-11.091
	c-1.912-5.68-8.066-8.734-13.746-6.823c-5.68,1.912-8.734,8.066-6.823,13.746l3.733,11.092l-11.29,3.8
	c-5.68,1.911-8.735,8.065-6.823,13.745l0,0c1.912,5.681,8.066,8.734,13.746,6.823l11.291-3.8l7.807,23.195l-10.99,3.699
	c-5.68,1.912-8.734,8.065-6.823,13.745c1.912,5.681,8.066,8.735,13.746,6.823l10.99-3.699l4.008,11.906
	c1.912,5.68,8.066,8.734,13.746,6.823c5.68-1.912,8.734-8.066,6.823-13.746l-4.008-11.907l23.685-7.971l3.962,11.771
	c1.912,5.68,8.066,8.734,13.746,6.823c5.68-1.912,8.734-8.066,6.823-13.746l-3.962-11.771l11.519-3.877
	C41.642,138.794,44.696,132.64,42.784,126.96z M-26.733,138.908l-7.807-23.195l23.684-7.971l7.808,23.195L-26.733,138.908z"/>
</svg>
