<?xml version="1.0" encoding="utf-8"?>
<!-- Generator: Adobe Illustrator 15.0.2, SVG Export Plug-In . SVG Version: 6.00 Build 0)  -->
<!DOCTYPE svg PUBLIC "-//W3C//DTD SVG 1.1//EN" "http://www.w3.org/Graphics/SVG/1.1/DTD/svg11.dtd">
<svg version="1.1"
	 id="svg2" xmlns:cc="http://creativecommons.org/ns#" xmlns:rdf="http://www.w3.org/1999/02/22-rdf-syntax-ns#" xmlns:dc="http://purl.org/dc/elements/1.1/"
	 xmlns="http://www.w3.org/2000/svg" xmlns:xlink="http://www.w3.org/1999/xlink" x="0px" y="0px" width="180px" height="180px"
	 viewBox="-0.409 -17.196 180 180" enable-background="new -0.409 -17.196 180 180" xml:space="preserve">
<path id="path22" fill="#FFFFFF" d="M179.18,17.234c-6.59,2.924-13.676,4.901-21.108,5.791c7.588-4.551,13.414-11.755,16.158-20.336
	c-7.103,4.214-14.967,7.271-23.344,8.918C144.185,4.464,134.63,0,124.058,0C103.755,0,87.3,16.457,87.3,36.758
	c0,2.882,0.322,5.688,0.952,8.377C57.7,43.604,30.614,28.965,12.484,6.728c-3.164,5.427-4.978,11.74-4.978,18.479
	c0,12.755,6.487,24.004,16.354,30.599c-6.025-0.188-11.694-1.843-16.651-4.598c-0.005,0.154-0.005,0.308-0.005,0.461
	c0,17.812,12.672,32.667,29.487,36.046c-3.082,0.84-6.329,1.285-9.682,1.285c-2.371,0-4.67-0.226-6.918-0.656
	c4.682,14.604,18.253,25.231,34.343,25.53c-12.592,9.859-28.438,15.733-45.662,15.733c-2.966,0-5.894-0.175-8.771-0.513
	c16.274,10.43,35.594,16.514,56.355,16.514c67.611,0,104.581-56.011,104.581-104.59c0-1.593-0.036-3.175-0.104-4.751
	c7.179-5.187,13.411-11.659,18.342-19.032"/>
</svg>
